<svg width="80" height="68" viewBox="0 0 80 68" fill="none" xmlns="http://www.w3.org/2000/svg">
<g clip-path="url(#clip0_858_20)">
<path d="M45.0334 7.78853C31.6049 9.5709 21.6878 19.9786 12.313 28.7675C1.39155 39.0075 -11.0234 48.915 -25.6122 53.3311C-30.4504 54.7916 -35.6815 55.9073 -40.6718 54.5611C-46.0618 53.1097 -52.963 47.4936 -50.016 41.1436C-49.5934 40.2431 -48.9503 39.3613 -48.1499 38.6781C-48.4026 40.0937 -48.168 41.6337 -47.6535 42.9318C-44.0093 52.0569 -29.5248 49.5521 -30.297 39.3667C-30.9201 31.1771 -40.6217 26.2428 -48.0297 29.4096C-54.1773 32.0409 -56.976 39.518 -55.466 45.7076C-53.7213 52.8716 -47.0356 57.6233 -39.9453 58.8394C-30.7666 60.4119 -21.0452 56.906 -12.353 51.9681C-11.3046 56.2398 -7.60625 57.695 -3.01654 55.8703C4.78146 52.7702 9.34653 44.5904 14.1724 38.2555C14.8927 40.4122 16.8887 42.0951 19.2095 42.4182C23.1997 42.9808 26.3976 39.6341 28.26 36.5547C28.3366 36.4291 28.4131 36.3034 28.4897 36.1778C28.4897 36.1778 28.4994 36.1835 28.5091 36.1893C33.5996 38.4696 37.173 37.1278 39.5476 32.1091C40.8666 29.3128 41.4607 26.2382 43.3971 23.7552C46.8154 19.3617 52.4589 16.3725 57.4971 20.2069C57.5496 20.2512 57.6007 20.1565 57.5501 20.1199C52.6056 16.2621 47.4309 17.9704 43.157 22.1264C38.7088 26.4489 38.1318 38.5774 29.6826 34.2736C29.6729 34.2679 29.6553 34.264 29.6456 34.2583C31.5396 31.0727 33.3549 28.0707 36.0964 25.2558C39.018 22.2649 42.4178 19.2285 46.1321 17.2203C52.9175 13.553 63.0566 17.8125 62.4145 26.2192C62.4065 26.2868 62.5138 26.2846 62.5219 26.2171C62.9034 20.892 59.7276 16.7735 54.5482 15.3679C48.3708 13.6865 43.598 17.0734 38.8828 20.7575C34.6744 24.0447 31.0665 27.9772 28.3501 32.5565C27.6475 33.7318 27.1122 35.0457 26.3414 36.1806C24.3547 39.0942 16.389 43.2853 16.0599 36.9406C16.0453 36.6491 15.9251 36.4332 15.7598 36.2694C22.1989 28.3847 31.1844 20.4964 40.2547 16.2429C46.0475 13.5198 53.2303 12.2454 59.0565 15.6128C64.6218 18.8322 67.4666 26.6483 63.1336 32.0651C63.0905 32.125 63.1644 32.1885 63.2154 32.1267C67.0979 27.1993 66.4633 20.0618 61.5527 16.007C55.9397 11.3649 47.735 11.9022 41.3492 14.5764C32.1008 18.4481 22.6633 26.154 16.0016 33.5122C12.1958 37.7155 9.12937 42.5214 5.37222 46.7535C2.94908 49.4808 -8.96232 59.3775 -9.75475 50.5087C-9.76053 50.4855 -9.76438 50.4701 -9.77015 50.447C-5.44487 47.7946 -1.42888 44.8669 2.06545 42.1431C12.2138 34.2271 20.509 23.9696 31.0731 16.5893C38.8676 11.1456 50.1574 7.70778 59.2212 12.0469C64.3929 14.52 69.0574 19.2182 68.8041 25.2573C68.6281 29.277 66.5629 34.0054 62.2043 35.0265C58.5272 35.8859 54.0337 33.0715 52.9948 29.404C53.4193 30.208 54.0685 30.9151 54.8493 31.3844C56.8664 32.6194 59.8196 32.3175 60.8912 29.9928C61.9234 27.7434 60.6077 25.6614 58.9074 24.2327C54.2266 20.301 49.2022 24.8081 49.9091 30.2061C50.6162 35.5713 56.5551 39.091 61.6679 37.767C61.7304 37.7515 61.7054 37.6511 61.6429 37.6667C57.9553 38.7501 53.7743 36.3906 51.9889 33.0567C53.2592 35.2566 55.2799 36.6054 57.9789 37.0145C58.0393 37.0241 58.0553 36.9217 57.9948 36.9122C55.5927 36.4291 53.8394 34.5217 53.1702 32.2703C54.0929 34.0077 55.6917 35.4617 57.8295 36.2157C63.5082 38.2263 68.5273 34.1304 70.1572 28.9203C74.8594 13.8696 57.4487 6.1358 45.0471 7.77692L45.0334 7.78853Z" fill="#F0DEAB"/>
</g>
<defs>
<clipPath id="clip0_858_20">
<rect width="80" height="68" fill="white"/>
</clipPath>
</defs>
</svg>
