<svg width="80" height="68" viewBox="0 0 80 68" fill="none" xmlns="http://www.w3.org/2000/svg">
<g clip-path="url(#clip0_858_31)">
<path d="M34.9661 7.78853C48.3951 9.5709 58.3121 19.9786 67.6871 28.7675C78.6081 39.0075 91.0231 48.915 105.612 53.3311C110.45 54.7916 115.681 55.9073 120.672 54.5611C126.062 53.1097 132.963 47.4936 130.016 41.1436C129.593 40.2431 128.95 39.3613 128.15 38.6781C128.402 40.0937 128.168 41.6337 127.653 42.9318C124.009 52.0569 109.525 49.5521 110.297 39.3667C110.92 31.1771 120.622 26.2428 128.03 29.4096C134.177 32.0409 136.976 39.518 135.466 45.7076C133.721 52.8716 127.035 57.6233 119.945 58.8394C110.766 60.4119 101.045 56.906 92.3531 51.9681C91.3041 56.2398 87.6061 57.695 83.0161 55.8703C75.2181 52.7702 70.6531 44.5904 65.8271 38.2555C65.1071 40.4122 63.1111 42.0951 60.7901 42.4182C56.8001 42.9808 53.6021 39.6341 51.7401 36.5547C51.6631 36.4291 51.5871 36.3034 51.5101 36.1778C51.5101 36.1778 51.5001 36.1835 51.4911 36.1893C46.4001 38.4696 42.8271 37.1278 40.4521 32.1091C39.1331 29.3128 38.5391 26.2382 36.6031 23.7552C33.1841 19.3617 27.5411 16.3725 22.5031 20.2069C22.4501 20.2512 22.3991 20.1565 22.4501 20.1199C27.3941 16.2621 32.5691 17.9704 36.8431 22.1264C41.2911 26.4489 41.8681 38.5774 50.3171 34.2736C50.3271 34.2679 50.3441 34.264 50.3541 34.2583C48.4601 31.0727 46.6451 28.0707 43.9031 25.2558C40.9821 22.2649 37.5821 19.2285 33.8681 17.2203C27.0821 13.553 16.9431 17.8125 17.5851 26.2192C17.5931 26.2868 17.4861 26.2846 17.4781 26.2171C17.0961 20.892 20.2721 16.7735 25.4521 15.3679C31.6291 13.6865 36.4021 17.0734 41.1171 20.7575C45.3251 24.0447 48.9331 27.9772 51.6501 32.5565C52.3521 33.7318 52.8881 35.0457 53.6581 36.1806C55.6451 39.0942 63.6111 43.2853 63.9401 36.9406C63.9541 36.6491 64.0751 36.4332 64.2401 36.2694C57.8011 28.3847 48.8151 20.4964 39.7451 16.2429C33.9521 13.5198 26.7691 12.2454 20.9431 15.6128C15.3781 18.8322 12.5331 26.6483 16.8661 32.0651C16.9091 32.125 16.8351 32.1885 16.7841 32.1267C12.9021 27.1993 13.5371 20.0618 18.4471 16.007C24.0601 11.3649 32.2651 11.9022 38.6511 14.5764C47.8991 18.4481 57.3361 26.154 63.9981 33.5122C67.8041 37.7155 70.8701 42.5214 74.6281 46.7535C77.0511 49.4808 88.9621 59.3775 89.7551 50.5087C89.7601 50.4855 89.7641 50.4701 89.7701 50.447C85.4451 47.7946 81.4291 44.8669 77.9341 42.1431C67.7861 34.2271 59.4911 23.9696 48.9271 16.5893C41.1321 11.1456 29.8421 7.70778 20.7791 12.0469C15.6071 14.52 10.9421 19.2182 11.1961 25.2573C11.3721 29.277 13.4371 34.0054 17.7961 35.0265C21.4731 35.8859 25.9661 33.0715 27.0051 29.404C26.5801 30.208 25.9311 30.9151 25.1501 31.3844C23.1331 32.6194 20.1801 32.3175 19.1091 29.9928C18.0761 27.7434 19.3921 25.6614 21.0921 24.2327C25.7731 20.301 30.7981 24.8081 30.0911 30.2061C29.3841 35.5713 23.4451 39.091 18.3321 37.767C18.2691 37.7515 18.2941 37.6511 18.3571 37.6667C22.0451 38.7501 26.2261 36.3906 28.0111 33.0567C26.7411 35.2566 24.7201 36.6054 22.0211 37.0145C21.9601 37.0241 21.9451 36.9217 22.0051 36.9122C24.4071 36.4291 26.1601 34.5217 26.8301 32.2703C25.9071 34.0077 24.3081 35.4617 22.1701 36.2157C16.4921 38.2263 11.4731 34.1304 9.84308 28.9203C5.14008 13.8696 22.5511 6.1358 34.9531 7.77692L34.9661 7.78853Z" fill="#F0DEAB"/>
</g>
<defs>
<clipPath id="clip0_858_31">
<rect width="80" height="68" fill="white"/>
</clipPath>
</defs>
</svg>
