<svg width="125" height="18" viewBox="0 0 125 18" fill="none" xmlns="http://www.w3.org/2000/svg">
<g clip-path="url(#clip0_524_1498)">
<path d="M74.474 16.281C80.7783 16.9848 86.4642 13.4176 91.7203 10.5174C97.8435 7.13814 104.608 4.07579 111.738 3.7257C114.102 3.61146 116.606 3.69622 118.721 4.86073C121.006 6.11736 123.506 9.41556 121.447 11.9399C121.153 12.2973 120.761 12.6216 120.319 12.8391C120.595 12.231 120.663 11.5124 120.576 10.8712C119.954 6.36058 113.088 5.86308 112.285 10.5285C111.64 14.2799 115.489 17.5855 119.215 16.9922C122.307 16.4984 124.426 13.4508 124.441 10.499C124.459 7.08286 121.96 4.1974 118.875 2.85601C114.882 1.12031 110.067 1.60675 105.558 2.85232C105.566 0.814442 104.05 -0.254248 101.757 0.0516186C97.8624 0.571223 94.8611 3.73676 91.9503 6.04366C91.8673 4.99339 91.1509 4.01314 90.1329 3.60778C88.3834 2.9076 86.5509 4.05368 85.3557 5.22924C85.3067 5.27715 85.2576 5.32505 85.2086 5.37296C85.2086 5.37296 85.2048 5.36928 85.2011 5.36559C83.1462 3.76992 81.3702 3.97261 79.7225 5.96258C78.8063 7.07181 78.188 8.3874 77.0266 9.28658C74.9755 10.8786 72.0722 11.5898 70.2171 9.30132C70.1983 9.27552 70.1643 9.31238 70.1832 9.33449C71.993 11.623 74.5381 11.435 76.9512 10.0457C79.4624 8.60114 81.0988 3.21347 84.4507 6.09525C84.4545 6.09893 84.4621 6.10262 84.4658 6.1063C83.2442 7.32608 82.0791 8.47216 80.5143 9.4303C78.8478 10.4474 76.9588 11.4313 75.0434 11.9178C71.5443 12.8059 67.4194 9.75459 68.6637 6.04734C68.675 6.01786 68.626 6.0068 68.6147 6.03629C67.8379 8.3874 68.8145 10.5948 71.0089 11.8072C73.6257 13.2555 76.1783 12.2679 78.7384 11.1402C81.0234 10.1342 83.1085 8.77066 84.8617 7.01653C85.3142 6.56695 85.7063 6.03629 86.1852 5.61249C87.4181 4.52538 91.5129 3.53408 90.9435 6.42323C90.9171 6.55589 90.9473 6.66644 91.0039 6.75857C87.1844 9.58139 82.2073 12.1205 77.6035 13.0159C74.6625 13.5908 71.254 13.3587 68.9879 11.1918C66.8237 9.12075 66.4165 5.2882 68.9993 3.33876C69.0257 3.31665 68.9993 3.2798 68.9691 3.30191C66.6465 5.08183 66.1261 8.36161 67.8983 10.7348C69.923 13.4508 73.7124 14.1289 76.9173 13.6424C81.5588 12.9386 86.7206 10.5322 90.5816 7.97098C92.7873 6.50798 94.7253 4.69121 96.9122 3.20978C98.3224 2.25533 104.857 -0.858611 104.212 3.21715C104.212 3.22821 104.212 3.23558 104.212 3.24663C101.946 3.95418 99.7891 4.82019 97.8926 5.65303C92.3839 8.07417 87.4521 11.7556 81.8152 13.8893C77.6563 15.4629 72.1363 15.7429 68.5091 12.7764C66.4391 11.0849 64.8517 8.45005 65.6511 5.76359C66.1865 3.97629 67.6607 2.08213 69.7571 2.11161C71.5255 2.13741 73.2486 3.90627 73.3052 5.67146C73.2034 5.26241 72.9884 4.87178 72.6868 4.57329C71.9101 3.79204 70.5338 3.59672 69.7835 4.52169C69.0596 5.41718 69.4215 6.50061 70.0324 7.33345C71.714 9.62561 74.5079 8.16261 74.7983 5.65672C75.0848 3.16556 72.7848 0.917626 70.3114 0.939737C70.2812 0.939737 70.2812 0.987644 70.3114 0.987644C72.1099 0.913941 73.7425 2.44327 74.1761 4.14212C73.8481 3.01079 73.0827 2.17794 71.9025 1.69151C71.8761 1.68045 71.8573 1.72467 71.8837 1.73573C72.9206 2.22217 73.5012 3.27612 73.5502 4.36323C73.3278 3.4788 72.766 2.64596 71.8799 2.06739C69.5271 0.527002 66.7822 1.80575 65.4512 3.96524C61.6091 10.2042 68.6448 15.6324 74.4665 16.2847L74.474 16.281Z" fill="#F0DEAB"/>
<path d="M50.526 16.281C44.2217 16.9848 38.5358 13.4176 33.2797 10.5174C27.1565 7.13814 20.3922 4.07579 13.2622 3.7257C10.8981 3.61146 8.39447 3.69622 6.27922 4.86073C3.9943 6.11736 1.49446 9.41556 3.55315 11.9399C3.84724 12.2973 4.23938 12.6216 4.68053 12.8391C4.40528 12.231 4.33742 11.5124 4.42414 10.8712C5.04627 6.36058 11.9123 5.86308 12.7155 10.5285C13.3602 14.2799 9.51054 17.5855 5.78529 16.9922C2.69348 16.4984 0.574467 13.4508 0.559383 10.499C0.540531 7.08286 3.04036 4.1974 6.12463 2.85601C10.1176 1.12031 14.9325 1.60675 19.442 2.85232C19.4345 0.814442 20.9502 -0.254248 23.2427 0.0516186C27.1376 0.571223 30.1389 3.73676 33.0497 6.04366C33.1327 4.99339 33.8491 4.01314 34.8671 3.60778C36.6166 2.9076 38.4491 4.05368 39.6443 5.22924C39.6933 5.27715 39.7424 5.32505 39.7914 5.37296C39.7914 5.37296 39.7952 5.36928 39.7989 5.36559C41.8538 3.76992 43.6298 3.97261 45.2775 5.96258C46.1937 7.07181 46.812 8.3874 47.9734 9.28658C50.0245 10.8786 52.9278 11.5898 54.7829 9.30132C54.8017 9.27552 54.8357 9.31238 54.8168 9.33449C53.007 11.623 50.4619 11.435 48.0488 10.0457C45.5376 8.60114 43.9012 3.21347 40.5493 6.09525C40.5455 6.09893 40.5379 6.10262 40.5342 6.1063C41.7558 7.32608 42.9209 8.47216 44.4857 9.4303C46.1522 10.4474 48.0412 11.4313 49.9566 11.9178C53.4557 12.8059 57.5806 9.75459 56.3363 6.04734C56.325 6.01786 56.374 6.0068 56.3853 6.03629C57.1621 8.3874 56.1855 10.5948 53.9911 11.8072C51.3743 13.2555 48.8217 12.2679 46.2616 11.1402C43.9766 10.1342 41.8915 8.77066 40.1383 7.01653C39.6858 6.56695 39.2937 6.03629 38.8148 5.61249C37.5819 4.52538 33.4871 3.53408 34.0565 6.42323C34.0829 6.55589 34.0527 6.66644 33.9961 6.75857C37.8156 9.58139 42.7927 12.1205 47.3965 13.0159C50.3375 13.5908 53.746 13.3587 56.0121 11.1918C58.1763 9.12075 58.5835 5.2882 56.0007 3.33876C55.9743 3.31665 56.0007 3.2798 56.0309 3.30191C58.3535 5.08183 58.8739 8.36161 57.1017 10.7348C55.077 13.4508 51.2876 14.1289 48.0827 13.6424C43.4412 12.9386 38.2794 10.5322 34.4184 7.97098C32.2127 6.50798 30.2747 4.69121 28.0878 3.20978C26.6776 2.25533 20.1433 -0.858611 20.7881 3.21715C20.7881 3.22821 20.7881 3.23558 20.7881 3.24663C23.0542 3.95418 25.2109 4.82019 27.1074 5.65303C32.6161 8.07417 37.5479 11.7556 43.1848 13.8893C47.3437 15.4629 52.8637 15.7429 56.4909 12.7764C58.5609 11.0849 60.1483 8.45005 59.3489 5.76359C58.8135 3.97629 57.3393 2.08213 55.2429 2.11161C53.4745 2.13741 51.7514 3.90627 51.6948 5.67146C51.7966 5.26241 52.0116 4.87178 52.3132 4.57329C53.0899 3.79204 54.4662 3.59672 55.2165 4.52169C55.9404 5.41718 55.5785 6.50061 54.9676 7.33345C53.286 9.62561 50.4921 8.16261 50.2017 5.65672C49.9152 3.16556 52.2152 0.917626 54.6886 0.939737C54.7188 0.939737 54.7188 0.987644 54.6886 0.987644C52.8901 0.913941 51.2575 2.44327 50.8239 4.14212C51.1519 3.01079 51.9173 2.17794 53.0975 1.69151C53.1239 1.68045 53.1427 1.72467 53.1163 1.73573C52.0794 2.22217 51.4988 3.27612 51.4498 4.36323C51.6722 3.4788 52.234 2.64596 53.1201 2.06739C55.4729 0.527002 58.2178 1.80575 59.5488 3.96524C63.3909 10.2042 56.3552 15.6324 50.5335 16.2847L50.526 16.281Z" fill="#F0DEAB"/>
</g>
<defs>
<clipPath id="clip0_524_1498">
<rect width="123.881" height="17.0615" fill="white" transform="translate(0.559265)"/>
</clipPath>
</defs>
</svg>
