<svg width="49" height="7" viewBox="0 0 49 7" fill="none" xmlns="http://www.w3.org/2000/svg">
<path d="M0.358579 3.78485C0.280474 3.86295 0.280474 3.98959 0.358579 4.06769L1.63137 5.34048C1.70948 5.41859 1.83611 5.41859 1.91421 5.34048C1.99232 5.26238 1.99232 5.13575 1.91421 5.05764L0.782843 3.92627L1.91421 2.7949C1.99232 2.71679 1.99232 2.59016 1.91421 2.51206C1.83611 2.43395 1.70948 2.43395 1.63137 2.51206L0.358579 3.78485ZM0.5 4.12627H18.5V3.72627H0.5V4.12627Z" fill="#F0DEAB"/>
<path d="M24.5 0.92627L25.0729 2.93389L27.0981 2.42627L25.6459 3.92627L27.0981 5.42627L25.0729 4.91865L24.5 6.92627L23.9271 4.91865L21.9019 5.42627L23.3541 3.92627L21.9019 2.42627L23.9271 2.93389L24.5 0.92627Z" fill="#F0DEAB"/>
<path d="M48.6414 4.06769C48.7195 3.98959 48.7195 3.86295 48.6414 3.78485L47.3686 2.51206C47.2905 2.43395 47.1639 2.43395 47.0858 2.51206C47.0077 2.59016 47.0077 2.71679 47.0858 2.7949L48.2172 3.92627L47.0858 5.05764C47.0077 5.13575 47.0077 5.26238 47.0858 5.34048C47.1639 5.41859 47.2905 5.41859 47.3686 5.34048L48.6414 4.06769ZM30.5 4.12627H48.5V3.72627H30.5V4.12627Z" fill="#F0DEAB"/>
</svg>
