<svg width="15" height="15" viewBox="0 0 15 15" fill="none" xmlns="http://www.w3.org/2000/svg">
<path d="M10.2664 2.0459H4.73362C3.20578 2.0459 1.96722 3.28445 1.96722 4.81229V10.3451C1.96722 11.8729 3.20578 13.1115 4.73362 13.1115H10.2664C11.7942 13.1115 13.0328 11.8729 13.0328 10.3451V4.81229C13.0328 3.28445 11.7942 2.0459 10.2664 2.0459Z" stroke="#F0DEAB" stroke-width="1.03279" stroke-linecap="round" stroke-linejoin="round"/>
<path d="M9.71315 7.23029C9.78143 7.69075 9.70278 8.16102 9.48838 8.57421C9.27399 8.9874 8.93476 9.32246 8.51896 9.53175C8.10316 9.74103 7.63196 9.81388 7.17237 9.73992C6.71278 9.66597 6.28822 9.44898 5.95906 9.11982C5.6299 8.79067 5.41292 8.3661 5.33896 7.90651C5.26501 7.44692 5.33785 6.97572 5.54714 6.55992C5.75642 6.14412 6.09149 5.8049 6.50467 5.5905C6.91786 5.37611 7.38813 5.29746 7.8486 5.36574C8.31829 5.43539 8.75312 5.65425 9.08888 5.99001C9.42463 6.32576 9.6435 6.7606 9.71315 7.23029Z" stroke="#F0DEAB" stroke-width="1.03279" stroke-linecap="round" stroke-linejoin="round"/>
<path d="M10.543 4.53564H10.5486" stroke="#F0DEAB" stroke-width="1.47541" stroke-linecap="round" stroke-linejoin="round"/>
</svg>
