<svg width="45" height="42" viewBox="0 0 45 42" fill="none" xmlns="http://www.w3.org/2000/svg">
<g clip-path="url(#clip0_529_1143)">
<path d="M40.4408 32.0013C37.278 38.1617 29.7384 40.5805 23.6025 37.4094C17.4666 34.2382 15.052 26.6749 18.2149 20.5146C21.3777 14.3542 28.9172 11.9354 35.0532 15.1065C41.1891 18.2776 43.6036 25.8409 40.4408 32.0013Z" stroke="#F0DEAB" stroke-width="2"/>
<path d="M26.7297 26.7861C26.7297 33.7174 21.1302 39.3307 14.2297 39.3307C7.32929 39.3307 1.72974 33.7174 1.72974 26.7861C1.72974 19.8548 7.32929 14.2415 14.2297 14.2415C21.1302 14.2415 26.7297 19.8548 26.7297 26.7861Z" stroke="#F0DEAB" stroke-width="2"/>
<path d="M32.4628 5.84304L34.9093 4.79644L35.8044 7.32097L32.4628 5.84304ZM35.2447 4.67749L35.9886 6.87353L38.0372 5.91259L35.2447 4.67749ZM38.4344 6.08823L39.2461 8.31431L41.419 7.40836L38.4344 6.08823ZM39.0517 8.75716L38.1564 6.23266L35.7113 7.27972L39.0517 8.75716ZM42.392 10.2346L41.4968 7.71007L39.0505 8.75667L42.391 10.2341L42.392 10.2346ZM35.6278 7.69133L34.3589 14.3939L34.4647 14.7324L34.7697 14.5757L38.8027 9.09548L35.6278 7.69133ZM32.2966 6.21797L34.1402 14.2972L35.2756 7.53556L32.2978 6.21848L32.2966 6.21797ZM39.187 9.26551L34.9884 14.6724L42.166 10.5831L39.187 9.26551Z" fill="#F0DEAB"/>
<path d="M35.6235 0.785645L35.5739 3.22562" stroke="#F0DEAB" stroke-width="0.5"/>
<path d="M42.4739 6.12573L44.2357 4.44302" stroke="#F0DEAB" stroke-width="0.5"/>
<path d="M38.8557 4.71533L39.8369 2.48221" stroke="#F0DEAB" stroke-width="0.5"/>
</g>
<defs>
<clipPath id="clip0_529_1143">
<rect width="45" height="41" fill="white" transform="translate(0 0.219238)"/>
</clipPath>
</defs>
</svg>
