<svg width="80" height="67" viewBox="0 0 80 67" fill="none" xmlns="http://www.w3.org/2000/svg">
<g clip-path="url(#clip0_858_16)">
<path d="M45.0334 60.0644C31.6049 58.282 21.6878 47.8743 12.313 39.0855C1.39155 28.8454 -11.0234 18.9379 -25.6122 14.5218C-30.4504 13.0614 -35.6815 11.9456 -40.6718 13.2918C-46.0618 14.7433 -52.963 20.3593 -50.016 26.7093C-49.5934 27.6099 -48.9503 28.4916 -48.1499 29.1748C-48.4026 27.7592 -48.168 26.2192 -47.6535 24.9211C-44.0093 15.796 -29.5248 18.3008 -30.297 28.4862C-30.9201 36.6759 -40.6217 41.6101 -48.0297 38.4433C-54.1773 35.8121 -56.976 28.335 -55.466 22.1453C-53.7213 14.9813 -47.0356 10.2296 -39.9453 9.01354C-30.7666 7.44105 -21.0452 10.9469 -12.353 15.8849C-11.3046 11.6131 -7.60625 10.1579 -3.01654 11.9826C4.78146 15.0827 9.34653 23.2626 14.1724 29.5974C14.8927 27.4407 16.8887 25.7579 19.2095 25.4348C23.1997 24.8721 26.3976 28.2189 28.26 31.2982C28.3366 31.4238 28.4131 31.5495 28.4897 31.6752C28.4897 31.6752 28.4994 31.6694 28.5091 31.6636C33.5996 29.3833 37.173 30.7251 39.5476 35.7438C40.8666 38.5401 41.4607 41.6147 43.3971 44.0977C46.8154 48.4913 52.4589 51.4804 57.4971 47.646C57.5496 47.6017 57.6007 47.6964 57.5501 47.733C52.6056 51.5908 47.4309 49.8825 43.157 45.7265C38.7088 41.404 38.1318 29.2755 29.6826 33.5793C29.6729 33.5851 29.6553 33.5889 29.6456 33.5947C31.5396 36.7802 33.3549 39.7823 36.0964 42.5971C39.018 45.5881 42.4178 48.6244 46.1321 50.6326C52.9175 54.2999 63.0566 50.0404 62.4145 41.6337C62.4065 41.5661 62.5138 41.5683 62.5219 41.6359C62.9034 46.961 59.7276 51.0794 54.5482 52.485C48.3708 54.1664 43.598 50.7795 38.8828 47.0955C34.6744 43.8083 31.0665 39.8757 28.3501 35.2964C27.6475 34.1211 27.1122 32.8072 26.3414 31.6724C24.3547 28.7588 16.389 24.5676 16.0599 30.9123C16.0453 31.2038 15.9251 31.4198 15.7598 31.5835C22.1989 39.4682 31.1844 47.3566 40.2547 51.61C46.0475 54.3331 53.2303 55.6076 59.0565 52.2401C64.6218 49.0207 67.4666 41.2047 63.1336 35.7879C63.0905 35.7279 63.1644 35.6644 63.2154 35.7263C67.0979 40.6537 66.4633 47.7912 61.5527 51.846C55.9397 56.488 47.735 55.9507 41.3492 53.2765C32.1008 49.4049 22.6633 41.6989 16.0016 34.3407C12.1958 30.1375 9.12937 25.3315 5.37222 21.0994C2.94908 18.3721 -8.96232 8.47542 -9.75475 17.3442C-9.76053 17.3674 -9.76438 17.3828 -9.77015 17.406C-5.44487 20.0583 -1.42888 22.986 2.06545 25.7098C12.2138 33.6259 20.509 43.8833 31.0731 51.2636C38.8676 56.7073 50.1574 60.1452 59.2212 55.8061C64.3929 53.3329 69.0574 48.6347 68.8041 42.5956C68.6281 38.576 66.5629 33.8475 62.2043 32.8264C58.5272 31.967 54.0337 34.7814 52.9948 38.449C53.4193 37.6449 54.0685 36.9378 54.8493 36.4685C56.8664 35.2336 59.8196 35.5354 60.8912 37.8601C61.9234 40.1095 60.6077 42.1915 58.9074 43.6202C54.2266 47.5519 49.2022 43.0448 49.9091 37.6468C50.6162 32.2817 56.5551 28.7619 61.6679 30.0859C61.7304 30.1015 61.7054 30.2018 61.6429 30.1862C57.9553 29.1028 53.7743 31.4623 51.9889 34.7962C53.2592 32.5963 55.2799 31.2475 57.9789 30.8384C58.0393 30.8289 58.0553 30.9312 57.9948 30.9407C55.5927 31.4239 53.8394 33.3312 53.1702 35.5826C54.0929 33.8453 55.6917 32.3913 57.8295 31.6373C63.5082 29.6266 68.5273 33.7225 70.1572 38.9326C74.8594 53.9833 57.4487 61.7171 45.0471 60.076L45.0334 60.0644Z" fill="#F0DEAB"/>
</g>
<defs>
<clipPath id="clip0_858_16">
<rect width="80" height="67" fill="white"/>
</clipPath>
</defs>
</svg>
