<svg width="80" height="67" viewBox="0 0 80 67" fill="none" xmlns="http://www.w3.org/2000/svg">
<g clip-path="url(#clip0_858_25)">
<path d="M34.9661 60.0644C48.3951 58.282 58.3121 47.8743 67.6871 39.0855C78.6081 28.8454 91.0231 18.9379 105.612 14.5218C110.45 13.0614 115.681 11.9456 120.672 13.2918C126.062 14.7433 132.963 20.3593 130.016 26.7093C129.593 27.6099 128.95 28.4916 128.15 29.1748C128.402 27.7592 128.168 26.2192 127.653 24.9211C124.009 15.796 109.525 18.3008 110.297 28.4862C110.92 36.6759 120.622 41.6101 128.03 38.4433C134.177 35.8121 136.976 28.335 135.466 22.1453C133.721 14.9813 127.035 10.2296 119.945 9.01354C110.766 7.44105 101.045 10.9469 92.3531 15.8849C91.3041 11.6131 87.6061 10.1579 83.0161 11.9826C75.2181 15.0827 70.6531 23.2626 65.8271 29.5974C65.1071 27.4407 63.1111 25.7579 60.7901 25.4348C56.8001 24.8721 53.6021 28.2189 51.7401 31.2982C51.6631 31.4238 51.5871 31.5495 51.5101 31.6752C51.5101 31.6752 51.5001 31.6694 51.4911 31.6636C46.4001 29.3833 42.8271 30.7251 40.4521 35.7438C39.1331 38.5401 38.5391 41.6147 36.6031 44.0977C33.1841 48.4913 27.5411 51.4804 22.5031 47.646C22.4501 47.6017 22.3991 47.6964 22.4501 47.733C27.3941 51.5908 32.5691 49.8825 36.8431 45.7265C41.2911 41.404 41.8681 29.2755 50.3171 33.5793C50.3271 33.5851 50.3441 33.5889 50.3541 33.5947C48.4601 36.7802 46.6451 39.7823 43.9031 42.5971C40.9821 45.5881 37.5821 48.6244 33.8681 50.6326C27.0821 54.2999 16.9431 50.0404 17.5851 41.6337C17.5931 41.5661 17.4861 41.5683 17.4781 41.6359C17.0961 46.961 20.2721 51.0794 25.4521 52.485C31.6291 54.1664 36.4021 50.7795 41.1171 47.0955C45.3251 43.8083 48.9331 39.8757 51.6501 35.2964C52.3521 34.1211 52.8881 32.8072 53.6581 31.6724C55.6451 28.7588 63.6111 24.5676 63.9401 30.9123C63.9541 31.2038 64.0751 31.4198 64.2401 31.5835C57.8011 39.4682 48.8151 47.3566 39.7451 51.61C33.9521 54.3331 26.7691 55.6076 20.9431 52.2401C15.3781 49.0207 12.5331 41.2047 16.8661 35.7879C16.9091 35.7279 16.8351 35.6644 16.7841 35.7263C12.9021 40.6537 13.5371 47.7912 18.4471 51.846C24.0601 56.488 32.2651 55.9507 38.6511 53.2765C47.8991 49.4049 57.3361 41.6989 63.9981 34.3407C67.8041 30.1375 70.8701 25.3315 74.6281 21.0994C77.0511 18.3721 88.9621 8.47542 89.7551 17.3442C89.7601 17.3674 89.7641 17.3828 89.7701 17.406C85.4451 20.0583 81.4291 22.986 77.9341 25.7098C67.7861 33.6259 59.4911 43.8833 48.9271 51.2636C41.1321 56.7073 29.8421 60.1452 20.7791 55.8061C15.6071 53.3329 10.9421 48.6347 11.1961 42.5956C11.3721 38.576 13.4371 33.8475 17.7961 32.8264C21.4731 31.967 25.9661 34.7814 27.0051 38.449C26.5801 37.6449 25.9311 36.9378 25.1501 36.4685C23.1331 35.2336 20.1801 35.5354 19.1091 37.8601C18.0761 40.1095 19.3921 42.1915 21.0921 43.6202C25.7731 47.5519 30.7981 43.0448 30.0911 37.6468C29.3841 32.2817 23.4451 28.7619 18.3321 30.0859C18.2691 30.1015 18.2941 30.2018 18.3571 30.1862C22.0451 29.1028 26.2261 31.4623 28.0111 34.7962C26.7411 32.5963 24.7201 31.2475 22.0211 30.8384C21.9601 30.8289 21.9451 30.9312 22.0051 30.9407C24.4071 31.4239 26.1601 33.3312 26.8301 35.5826C25.9071 33.8453 24.3081 32.3913 22.1701 31.6373C16.4921 29.6266 11.4731 33.7225 9.84308 38.9326C5.14008 53.9833 22.5511 61.7171 34.9531 60.076L34.9661 60.0644Z" fill="#F0DEAB"/>
</g>
<defs>
<clipPath id="clip0_858_25">
<rect width="80" height="67" fill="white"/>
</clipPath>
</defs>
</svg>
