<svg width="128" height="190" viewBox="0 0 128 190" fill="none" xmlns="http://www.w3.org/2000/svg">
<g opacity="0.1" clip-path="url(#clip0_892_905)">
<path d="M35.9609 82.4408C35.0417 84.6828 36.1069 87.2597 38.3574 88.1789C40.5994 89.098 43.1763 88.0243 44.0955 85.7823C45.0146 83.5318 43.9494 80.9634 41.6989 80.0443C39.4483 79.1166 36.88 80.1903 35.9609 82.4408Z" fill="#F0DEAB"/>
<path d="M32.6622 67.6148C21.4953 41.7765 -0.20267 61.8252 24.141 77.1839C-3.43246 66.5239 1.4466 100.273 25.9019 90.4209C0.579024 101.038 19.073 118.381 31.0301 100.712C15.869 124.583 52.4532 127.263 43.786 95.9613C53.0373 126.954 75.706 101.828 54.2141 89.708C86.3746 105.006 78.5578 69.5905 51.5685 79.5805C80.4218 67.0995 62.1082 40.7286 45.7703 68.302C57.2034 43.6405 24.957 39.2081 32.6536 67.6148H32.6622ZM26.486 78.0687C9.95056 65.811 24.9313 51.2683 34.698 74.0658C35.5054 75.947 35.9779 77.2354 36.4245 77.9828C36.2441 78.0944 36.0638 78.1975 35.892 78.3264C35.4882 76.8317 33.9592 74.607 32.4732 71.7551C30.3944 67.7608 25.9277 66.6785 24.6392 67.8639C23.3422 69.0407 24.0208 73.5504 27.7831 76.0329C30.6521 77.9227 32.7223 79.6664 34.1568 80.1131C33.8733 80.534 33.3408 81.7194 33.2892 81.8482C31.5541 81.1438 29.1403 79.7953 26.5032 78.0687H26.486ZM45.1518 86.3149C44.0266 89.0293 40.917 90.3264 38.2026 89.2097C35.4882 88.093 34.1911 84.975 35.3078 82.2606C36.4245 79.5462 39.5427 78.2491 42.257 79.3658C44.9714 80.4825 46.2685 83.6005 45.1518 86.3149ZM26.0308 78.6185C28.8483 80.6371 31.6743 81.9427 33.0659 82.544C33.0143 82.7673 32.9628 82.9993 32.9284 83.2226C31.6314 82.4066 28.917 81.917 25.7473 80.9205C21.4524 79.5719 17.5354 81.9599 17.4495 83.7122C17.3636 85.4646 21.0315 88.1703 25.4467 87.2684C28.9256 86.5554 31.6829 86.3235 32.9628 85.5762C33.0659 86.1603 33.2463 86.7273 33.4782 87.2599C33.4009 87.2942 33.3236 87.3286 33.2377 87.3629C5.81885 95.9528 3.86034 73.1553 26.0222 78.6185H26.0308ZM33.7187 87.9126C33.7187 87.9126 33.7703 87.8955 33.796 87.8783C33.9506 88.1532 34.1138 88.4195 34.3028 88.6686C32.8082 88.9434 30.5061 90.567 27.4739 92.1389C23.4796 94.2176 22.3973 98.6844 23.5827 99.9814C24.7595 101.279 29.2692 100.6 31.7516 96.8375C33.7359 93.8225 35.5655 91.6836 35.892 90.2491C36.2012 90.481 36.5448 90.67 36.8884 90.8504C36.0294 92.4224 33.6328 96.6743 32.1038 98.315C19.9148 111.578 10.0622 97.1296 33.7187 87.8955V87.9126ZM32.5333 98.9249C34.0795 96.9492 36.5877 92.869 37.7216 91.2284C38.1425 91.383 38.572 91.5032 39.0101 91.5719C38.1425 92.8175 37.6615 95.6006 36.6307 98.8733C35.2821 103.168 37.67 107.085 39.4224 107.171C41.1747 107.257 43.4854 102.344 42.9786 99.174C42.4117 95.6264 42.0337 92.8604 41.2606 91.6063C41.5011 91.572 41.7416 91.5204 41.9736 91.4603C50.6322 118.836 24.3815 121.508 32.5333 98.9335V98.9249ZM51.0015 88.4538C71.935 106.046 50.6064 116.405 42.6608 91.2369C43.2707 91.0222 43.8548 90.7388 44.3959 90.3694C44.7052 91.864 46.3029 94.1489 47.8576 97.1382C49.945 101.132 54.4031 102.215 55.7002 101.029C56.9972 99.844 56.3186 95.3429 52.5563 92.8604C49.6271 90.9277 47.5312 89.1582 46.0967 88.7545C46.4747 88.2563 47.179 86.7616 47.2392 86.5898C48.5019 87.2856 49.7646 87.9127 51.0101 88.4538H51.0015ZM51.4138 87.8783C49.5756 86.8475 48.3473 86.2119 47.4367 85.791C47.4367 85.7652 47.4453 85.748 47.4539 85.7222C48.7767 86.5125 51.4568 86.9935 54.5663 87.9728C58.8612 89.3214 62.7782 86.9334 62.8641 85.1811C62.9414 83.4287 59.2822 80.723 54.867 81.6249C51.5341 82.3121 48.8626 82.544 47.514 83.2226C47.4453 82.7674 47.3251 82.3207 47.179 81.8912C70.9558 73.6277 79.3223 96.1847 51.4138 87.8783ZM53.9736 61.6792C56.0953 61.1209 58.2256 61.7479 60.3129 63.5604C62.4174 65.39 63.0874 67.4258 62.3144 69.6077C60.3902 75.088 50.0481 79.9413 46.6293 80.6543C46.5348 80.4825 46.4403 80.3106 46.3286 80.1474C47.8233 79.7265 50.0223 78.2147 52.8397 76.7458C56.834 74.6671 57.9078 70.2003 56.7309 68.9033C55.5541 67.6062 51.0445 68.2848 48.562 72.0472C46.7238 74.8303 45.0316 76.8661 44.5162 78.292C44.0609 77.9656 43.5713 77.6821 43.0301 77.4588C42.781 77.3557 42.5233 77.2698 42.2656 77.1925C43.0559 75.4574 44.4303 72.2877 44.645 71.6778C46.7667 67.5977 50.0394 62.7186 53.965 61.6706L53.9736 61.6792ZM44.1382 71.1539C42.7982 73.7051 41.8963 76.1531 41.587 77.0379C41.5613 77.0379 41.5269 77.0207 41.5011 77.0207C42.2485 75.6635 42.7381 73.0522 43.6915 70.0286C45.0401 65.7337 42.6522 61.8167 40.8998 61.7308C39.1475 61.6535 36.4417 65.3213 37.3436 69.7279C38.0222 73.0093 38.2542 75.6635 38.907 77.0293C38.3486 77.1324 37.8075 77.3042 37.2835 77.5275C26.9155 49.5847 51.7746 45.3156 44.1382 71.1539Z" fill="#F0DEAB"/>
<path d="M63.9723 25.37C62.2371 25.6363 60.6136 26.9592 59.6773 28.7545C59.4111 26.2033 58.1483 23.8411 56.3702 23.068C55.3652 22.6299 53.4067 22.3894 51.3538 25.413C49.945 23.4202 47.8663 23.2827 46.4404 24.0472C45.1519 24.743 44.1898 26.3235 44.7567 28.3164C43.1161 27.4058 41.2521 27.1653 39.7918 27.5862C37.6443 28.2047 36.4417 30.0945 36.5276 32.6972C35.3079 32.4739 34.2685 32.7831 33.5727 33.582C32.6794 34.6127 32.5334 36.2964 33.212 37.8597C34.3201 40.4109 37.1976 42.421 39.9808 44.3623C41.6901 45.5563 43.1762 46.8275 44.4303 47.8755C50.1941 52.7202 49.5928 58.2435 49.5928 58.4239L50.4089 58.7245C53.0374 57.6937 68.9973 45.0924 72.2271 37.2412C72.6824 36.1332 73.0002 35.0079 73.1462 33.8912C73.3009 32.7058 72.794 31.5548 71.7976 30.8246C70.8699 30.146 69.6931 29.9227 68.5764 30.189C68.8427 29.3128 68.8685 28.3078 68.3788 27.5776C67.245 25.894 65.6816 25.121 63.9637 25.3872L63.9723 25.37ZM52.4533 29.4245C54.2571 22.9391 59.6258 28.66 58.784 31.7781C58.0538 34.4839 55.9751 40.7803 54.0596 46.3637C54.7296 42.6529 55.2364 38.8991 55.8033 35.2828C55.7346 35.5405 55.6831 35.781 55.6229 36.0043C54.8327 39.2513 54.1712 42.6271 53.381 45.9686C53.7761 41.3043 53.6387 36.5541 53.3294 32.0444C53.2521 36.8461 53.0803 41.9571 52.2385 46.8705C52.1183 43.1425 51.5943 39.3973 51.0703 35.9442C51.328 40.9263 51.9207 46.6386 51.0445 51.8011C51.0187 51.6808 51.0016 51.5606 50.9672 51.4403C51.0273 50.65 51.0703 49.9027 51.0703 49.3272C51.0703 43.6751 49.9021 35.6951 47.7031 31.3658C47.1963 30.3608 47.746 24.5884 52.4361 29.4245H52.4533ZM44.9371 47.3945C43.6572 46.2606 42.1196 45.0065 40.3845 43.7867C37.6787 41.8969 33.9249 34.3035 40.3415 36.0129C37.6357 29.9485 45.6071 28.7201 47.1104 31.675C49.2321 35.8497 50.3573 43.5376 50.4003 49.0952C50.2886 48.6915 50.1769 48.2964 50.0567 47.9099C49.2492 45.2041 48.27 42.5498 47.1619 39.9471C47.0502 39.6722 46.9214 39.3544 46.7582 38.9936C47.6086 41.708 48.3301 44.4654 48.8713 47.2571C47.4625 44.096 45.5814 41.0981 43.7947 38.5211C45.5556 41.7423 47.7975 45.6765 49.0517 49.6536C47.1447 46.4324 44.1555 43.6923 41.2607 41.6736C41.149 41.5877 41.0116 41.4932 40.8569 41.3902C44.1812 44.2506 48.459 48.5369 49.5069 53.1411C49.0001 51.6379 47.7975 49.9199 44.9457 47.3859L44.9371 47.3945ZM64.4962 34.0029C67.726 32.5684 77.381 35.8153 55.2535 54.043C58.1569 50.9764 60.6222 47.5233 62.8556 43.9328C62.993 43.718 63.1476 43.4775 63.3108 43.2026C60.6909 46.6214 57.8305 50.2978 54.5578 53.3472C58.1913 48.1761 61.0345 42.4897 63.8005 36.8118C61.1376 41.2871 58.5263 46.1404 55.4511 50.5384C57.255 46.5441 58.6551 42.3007 60.0209 38.3236C57.8649 43.0566 55.6315 48.2277 52.6766 52.7116C52.857 52.0158 53.0288 51.32 53.192 50.6071C55.4597 44.1647 58.5864 35.111 59.4368 31.9585C59.5914 31.3916 64.0496 26.6414 64.4876 34.0029H64.4962Z" fill="#F0DEAB"/>
<path d="M107.944 151.95C104.619 151.598 101.063 152.096 96.9401 152.672C88.3846 153.874 77.7418 155.369 63.2249 149.828C41.6815 141.608 39.766 119.283 39.7488 119.059L39.6973 118.304L40.4016 118.02C42.2141 117.299 43.6142 115.744 44.5849 113.39C45.5727 110.985 45.7703 108.537 45.8132 107.833V107.644L47.8834 107.712V107.918C46.9128 131.936 75.9723 139.744 85.2837 141.625C83.2479 138.224 82.9644 133.035 82.6466 127.22C82.4147 122.925 82.1741 118.484 81.1863 114.404C78.6695 104.019 62.5807 96.5798 62.4175 96.5111L63.2593 94.6299C70.3201 97.748 75.9722 91.0737 76.0324 91.005L76.5564 90.3694L77.2865 90.7473C78.4118 91.3229 83.7804 94.8103 89.4412 101.304C92.963 105.342 93.8306 113.33 94.7497 121.783C95.2995 126.859 95.875 132.108 97.0518 136.437C99.9552 147.14 108.012 149.82 108.356 149.931L112.307 151.675L107.935 151.933L107.944 151.95ZM41.8963 119.618C42.4117 123.354 45.7789 140.972 63.9636 147.913C77.9823 153.264 88.3331 151.804 96.6567 150.636C99.1993 150.275 101.536 149.949 103.769 149.828C100.797 147.758 96.9401 143.876 95.0761 136.995C93.8564 132.511 93.2808 127.177 92.7139 122.023C91.8291 113.897 90.9959 106.226 87.9036 102.679C83.2651 97.3615 78.8069 94.1231 77.0116 92.9893C75.7489 94.252 72.5879 96.9492 68.4475 97.4646C73.7303 100.694 81.3925 106.518 83.1878 113.94C84.2185 118.201 84.4676 122.736 84.6995 127.125C85.0603 133.714 85.3954 139.933 88.5908 142.347L91.7089 144.7L87.8349 144.193C87.3968 144.133 76.9687 142.725 66.5062 137.605C55.0645 132.004 48.1927 124.145 46.3115 114.61C45.2635 116.972 43.7774 118.647 41.8963 119.618Z" fill="#F0DEAB"/>
<path d="M79.9323 94.0716C79.9065 94.1403 79.855 94.2004 79.7863 94.2348L70.3374 99.758C70.1742 99.8525 69.968 99.801 69.865 99.6378C69.7705 99.4746 69.822 99.2598 69.9852 99.1653L79.4341 93.6421C79.5973 93.5476 79.812 93.5991 79.9065 93.7623C79.9666 93.8568 79.9666 93.9685 79.9237 94.063L79.9323 94.0716Z" fill="#F0DEAB"/>
<path d="M81.633 95.6348C81.6072 95.7035 81.5557 95.7636 81.4869 95.8066L72.1669 101.012C72.0037 101.107 71.789 101.046 71.7031 100.883C71.6086 100.72 71.6687 100.505 71.8319 100.411L81.152 95.2053C81.3152 95.1108 81.5299 95.1709 81.6158 95.3341C81.6673 95.4286 81.6759 95.5403 81.633 95.6348Z" fill="#F0DEAB"/>
<path d="M83.7036 97.2327C83.6692 97.3014 83.6176 97.3702 83.5489 97.4045L73.8682 102.584C73.705 102.67 73.4902 102.61 73.4043 102.447C73.3184 102.284 73.3785 102.069 73.5417 101.983L83.2225 96.8032C83.3943 96.7173 83.6005 96.7774 83.6864 96.9406C83.7379 97.0351 83.7379 97.1468 83.7036 97.2327Z" fill="#F0DEAB"/>
<path d="M86.2717 100.016C86.2373 100.093 86.1772 100.162 86.0913 100.196L76.2903 104.465C76.1185 104.543 75.9123 104.465 75.835 104.285C75.7577 104.113 75.835 103.907 76.0154 103.83L85.8164 99.5604C85.9882 99.4831 86.1944 99.5604 86.2631 99.7408C86.3061 99.8267 86.2975 99.9212 86.2631 100.007L86.2717 100.016Z" fill="#F0DEAB"/>
<path d="M89.6389 103.872C89.5959 103.976 89.51 104.053 89.3983 104.079L77.7247 106.587C77.5357 106.63 77.3554 106.51 77.3124 106.321C77.2695 106.132 77.3897 105.951 77.5787 105.917L89.2523 103.409C89.4413 103.366 89.6217 103.486 89.6646 103.675C89.6818 103.744 89.6646 103.812 89.6474 103.881L89.6389 103.872Z" fill="#F0DEAB"/>
<path d="M91.3653 107.807C91.3138 107.927 91.2022 108.013 91.0647 108.021L79.2451 108.485C79.0561 108.485 78.8929 108.348 78.8843 108.159C78.8843 107.97 79.0217 107.807 79.2107 107.807L91.0389 107.343C91.2279 107.343 91.3911 107.48 91.3911 107.669C91.3911 107.721 91.3911 107.772 91.3653 107.815V107.807Z" fill="#F0DEAB"/>
<path d="M92.6625 112.17C92.6109 112.308 92.4735 112.394 92.3189 112.385L80.8514 111.389C80.6624 111.372 80.525 111.208 80.5336 111.019C80.5508 110.83 80.714 110.693 80.9029 110.702L92.3704 111.698C92.5594 111.715 92.6968 111.878 92.6882 112.067C92.6882 112.102 92.6711 112.136 92.6625 112.17Z" fill="#F0DEAB"/>
<path d="M92.7998 116.061C92.7396 116.208 92.585 116.302 92.4218 116.268L82.0625 114.361C81.8735 114.326 81.7532 114.146 81.7876 113.966C81.8219 113.777 82.0023 113.656 82.1827 113.691L92.5421 115.598C92.7311 115.632 92.8513 115.812 92.817 116.001C92.817 116.027 92.8084 116.044 92.7998 116.07V116.061Z" fill="#F0DEAB"/>
<path d="M93.4614 120.176C93.3927 120.331 93.2209 120.425 93.0577 120.374L82.5866 117.556C82.4062 117.505 82.2946 117.316 82.3461 117.135C82.3976 116.946 82.5866 116.843 82.767 116.895L93.2466 119.712C93.427 119.764 93.5387 119.953 93.4872 120.133C93.4872 120.15 93.4786 120.159 93.47 120.176H93.4614Z" fill="#F0DEAB"/>
<path d="M93.6159 123.707C93.5472 123.87 93.3669 123.956 93.2036 123.904L83.1793 120.898C82.9989 120.846 82.8958 120.648 82.9473 120.468C83.0075 120.288 83.1965 120.185 83.3768 120.236L93.4012 123.243C93.5816 123.294 93.6847 123.492 93.6331 123.672C93.6331 123.681 93.6245 123.698 93.6159 123.707Z" fill="#F0DEAB"/>
<path d="M94.4835 127.031C94.4234 127.186 94.2516 127.28 94.0798 127.237L83.3511 124.437C83.1707 124.385 83.059 124.205 83.102 124.016C83.1449 123.827 83.3339 123.724 83.5229 123.767L94.2516 126.567C94.432 126.619 94.5437 126.799 94.5007 126.988C94.5007 127.005 94.4921 127.022 94.4835 127.031Z" fill="#F0DEAB"/>
<path d="M94.6641 130.2C94.5954 130.355 94.4321 130.449 94.2603 130.407L83.7378 127.692C83.5488 127.649 83.4457 127.46 83.4887 127.271C83.5402 127.091 83.7206 126.979 83.9096 127.022L94.4236 129.737C94.6039 129.779 94.7156 129.968 94.6726 130.157C94.6726 130.175 94.6641 130.192 94.6555 130.2H94.6641Z" fill="#F0DEAB"/>
<path d="M95.3169 133.439C95.2482 133.602 95.0678 133.688 94.9046 133.637L83.8839 130.347C83.7035 130.295 83.6004 130.097 83.6519 129.917C83.7035 129.737 83.8925 129.634 84.0814 129.685L95.1022 132.975C95.2826 133.027 95.3857 133.216 95.3341 133.405C95.3341 133.413 95.3341 133.43 95.3255 133.439H95.3169Z" fill="#F0DEAB"/>
<path d="M96.1588 136.506C96.0901 136.66 95.9183 136.755 95.7551 136.712L84.133 133.671C83.9526 133.619 83.841 133.439 83.8925 133.25C83.9354 133.061 84.1244 132.958 84.3134 133.001L95.9355 136.042C96.1244 136.093 96.2275 136.274 96.1846 136.463C96.1846 136.48 96.1846 136.497 96.1674 136.506H96.1588Z" fill="#F0DEAB"/>
<path d="M97.2495 140.173C97.1894 140.328 97.0262 140.414 96.8544 140.38L84.5967 137.691C84.4077 137.648 84.296 137.468 84.3304 137.279C84.3648 137.098 84.5537 136.978 84.7427 137.021L97.0004 139.71C97.1894 139.753 97.3011 139.933 97.2667 140.122C97.2667 140.139 97.2581 140.156 97.2495 140.182V140.173Z" fill="#F0DEAB"/>
<path d="M99.0446 143.627C98.9845 143.781 98.8127 143.867 98.6495 143.833L85.9021 140.826C85.7132 140.783 85.6015 140.594 85.6444 140.414C85.6874 140.233 85.8764 140.113 86.0567 140.156L98.8041 143.163C98.9931 143.206 99.1048 143.395 99.0618 143.575C99.0618 143.592 99.0532 143.609 99.0446 143.627Z" fill="#F0DEAB"/>
<path d="M106.295 150.696C106.226 150.868 106.02 150.954 105.848 150.885L87.0018 143.137C86.83 143.068 86.7441 142.862 86.8128 142.69C86.8815 142.518 87.0877 142.433 87.2594 142.501L106.106 150.249C106.277 150.318 106.363 150.524 106.295 150.696Z" fill="#F0DEAB"/>
<path d="M98.2116 151.082C98.2116 151.082 98.1944 151.125 98.1772 151.143C98.0741 151.297 97.8594 151.34 97.7047 151.237L86.0397 143.472C85.8851 143.369 85.8336 143.154 85.9452 142.999C86.0483 142.845 86.263 142.802 86.4177 142.905L98.0741 150.67C98.2115 150.765 98.2631 150.936 98.203 151.082H98.2116Z" fill="#F0DEAB"/>
<path d="M93.4444 151.847C93.4444 151.847 93.4101 151.916 93.3757 151.95C93.2469 152.088 93.0321 152.096 92.8947 151.967L83.0764 142.733C82.939 142.604 82.9304 142.39 83.0593 142.252C83.1881 142.115 83.4029 142.106 83.5489 142.235L93.3671 151.469C93.4702 151.572 93.5045 151.718 93.453 151.847H93.4444Z" fill="#F0DEAB"/>
<path d="M88.694 152.251C88.6682 152.302 88.6339 152.354 88.5823 152.397C88.4277 152.508 88.213 152.483 88.1013 152.328L80.4134 142.115C80.3017 141.96 80.3275 141.745 80.4821 141.634C80.6281 141.522 80.8515 141.548 80.9631 141.702L88.651 151.916C88.7283 152.019 88.7369 152.148 88.694 152.251Z" fill="#F0DEAB"/>
<path d="M83.274 152.491C83.2397 152.569 83.1795 152.637 83.1022 152.672C82.9304 152.749 82.7243 152.672 82.647 152.5L77.5617 141.376C77.4844 141.204 77.5618 140.998 77.7336 140.921C77.9053 140.843 78.1115 140.921 78.1888 141.092L83.274 152.216C83.317 152.302 83.317 152.405 83.274 152.491Z" fill="#F0DEAB"/>
<path d="M79.7522 152.036C79.7178 152.122 79.6491 152.19 79.5632 152.225C79.3914 152.293 79.1852 152.208 79.1165 152.036L74.4007 140.319C74.332 140.147 74.4179 139.941 74.5897 139.873C74.7615 139.804 74.9676 139.89 75.0363 140.062L79.7522 151.778C79.7865 151.864 79.7865 151.959 79.7522 152.036Z" fill="#F0DEAB"/>
<path d="M75.4572 151.632C75.4229 151.727 75.3456 151.796 75.2425 151.83C75.0621 151.881 74.8731 151.787 74.813 151.598L70.9561 138.997C70.9046 138.816 71.0077 138.627 71.1881 138.567C71.3685 138.516 71.566 138.61 71.6176 138.799L75.4744 151.4C75.5002 151.478 75.4916 151.564 75.4658 151.632H75.4572Z" fill="#F0DEAB"/>
<path d="M71.1966 150.876C71.1536 150.979 71.0677 151.057 70.9475 151.082C70.7585 151.117 70.5781 150.996 70.5438 150.816L67.9238 137.613C67.8895 137.424 68.0098 137.244 68.1901 137.21C68.3791 137.175 68.5595 137.296 68.5938 137.476L71.2138 150.679C71.2309 150.747 71.2138 150.816 71.1966 150.876Z" fill="#F0DEAB"/>
<path d="M66.6952 149.768C66.6523 149.88 66.5406 149.974 66.4032 149.983C66.2142 150 66.051 149.854 66.0338 149.665L64.9687 135.99C64.9515 135.801 65.0975 135.638 65.2865 135.621C65.4755 135.604 65.6387 135.75 65.6558 135.939L66.721 149.614C66.721 149.665 66.721 149.725 66.6952 149.768Z" fill="#F0DEAB"/>
<path d="M62.4777 148.282C62.4261 148.411 62.2887 148.497 62.1427 148.497C61.9537 148.497 61.8077 148.325 61.8163 148.136L62.4519 134.538C62.4605 134.349 62.6237 134.203 62.8127 134.212C63.0017 134.212 63.1477 134.384 63.1391 134.573L62.5035 148.171C62.5035 148.171 62.4949 148.248 62.4777 148.282Z" fill="#F0DEAB"/>
<path d="M59.2654 146.47C59.2139 146.607 59.0678 146.693 58.9132 146.684C58.7242 146.667 58.5868 146.504 58.604 146.306L59.8323 133.078C59.8495 132.889 60.0213 132.752 60.2103 132.769C60.3993 132.786 60.5367 132.958 60.5195 133.138L59.2912 146.375C59.2912 146.375 59.2826 146.444 59.2654 146.47Z" fill="#F0DEAB"/>
<path d="M54.8671 143.918C54.807 144.073 54.6352 144.159 54.472 144.125C54.283 144.082 54.1713 143.893 54.2142 143.712L57.2637 130.862C57.3066 130.681 57.4956 130.561 57.676 130.604C57.8649 130.647 57.9766 130.836 57.9337 131.017L54.8757 143.867C54.8757 143.867 54.8671 143.901 54.8585 143.918H54.8671Z" fill="#F0DEAB"/>
<path d="M51.7063 140.766C51.6375 140.938 51.4486 141.024 51.2768 140.955C51.0964 140.895 51.0019 140.697 51.062 140.517L55.168 128.715C55.2195 128.534 55.4257 128.44 55.606 128.5C55.7864 128.56 55.8809 128.757 55.8208 128.938L51.7148 140.74C51.7148 140.74 51.7148 140.749 51.7148 140.758L51.7063 140.766Z" fill="#F0DEAB"/>
<path d="M53.5873 126.558V126.567L48.6395 137.407C48.5622 137.579 48.356 137.657 48.1842 137.579C48.0124 137.502 47.9523 137.287 48.0124 137.124L52.9602 126.284C53.0375 126.112 53.2437 126.034 53.4155 126.112C53.5873 126.189 53.6646 126.387 53.5958 126.55L53.5873 126.558Z" fill="#F0DEAB"/>
<path d="M52.0065 124.677C52.0065 124.677 51.9893 124.712 51.9808 124.72L46.4918 133.851C46.3974 134.014 46.1826 134.066 46.0194 133.971C45.8562 133.877 45.8047 133.662 45.8991 133.499L51.3881 124.368C51.4825 124.205 51.6973 124.153 51.8605 124.248C52.0065 124.334 52.0667 124.514 51.998 124.669L52.0065 124.677Z" fill="#F0DEAB"/>
<path d="M50.366 122.641C50.366 122.641 50.3402 122.684 50.3316 122.71L44.6623 130.776C44.5507 130.931 44.3359 130.974 44.1813 130.862C44.0267 130.75 43.9837 130.535 44.0954 130.381L49.7647 122.315C49.8764 122.16 50.0911 122.126 50.2457 122.229C50.3832 122.324 50.4261 122.495 50.366 122.641Z" fill="#F0DEAB"/>
<path d="M49.4298 120.399C49.4298 120.399 49.3955 120.468 49.3611 120.503L43.3224 127.057C43.1936 127.194 42.9788 127.203 42.8328 127.074C42.6954 126.945 42.6868 126.73 42.8156 126.584L48.8543 120.03C48.9831 119.893 49.1979 119.884 49.3439 120.013C49.4556 120.116 49.4813 120.271 49.4298 120.399Z" fill="#F0DEAB"/>
<path d="M48.5364 118.673C48.5192 118.725 48.4849 118.768 48.4419 118.802L42.1627 124.145C42.0167 124.265 41.802 124.248 41.6817 124.102C41.5615 123.956 41.5786 123.741 41.7246 123.621L48.0039 118.278C48.1499 118.158 48.3646 118.175 48.4849 118.321C48.5708 118.424 48.588 118.561 48.5364 118.673Z" fill="#F0DEAB"/>
<path d="M47.7376 115.495C47.7204 115.538 47.686 115.581 47.6517 115.615L41.5443 121.147C41.4068 121.276 41.1835 121.267 41.0633 121.121C40.9344 120.984 40.943 120.76 41.089 120.64L47.1964 115.108C47.3339 114.979 47.5572 114.996 47.6775 115.134C47.7719 115.237 47.7891 115.374 47.7462 115.495H47.7376Z" fill="#F0DEAB"/>
<path d="M77.0807 133.242C62.9676 126.327 59.755 123.896 55.3999 112.205C55.3999 112.205 63.6462 112.626 64.0499 103.503C77.6906 108.863 72.9919 124.506 77.0807 133.242Z" fill="#F0DEAB"/>
<path d="M55.0559 116.646C55.9922 117.032 56.4389 118.098 56.0523 119.034C55.6658 119.97 54.5921 120.417 53.6644 120.03C52.7281 119.644 52.2814 118.579 52.6679 117.642C53.0545 116.706 54.1196 116.259 55.0559 116.646Z" fill="#F0DEAB"/>
<path d="M58.9988 122.719C59.9351 123.105 60.3818 124.179 59.9952 125.107C59.6087 126.043 58.5435 126.49 57.6072 126.103C56.6709 125.717 56.2243 124.652 56.6108 123.715C56.9973 122.779 58.0625 122.332 58.9988 122.719Z" fill="#F0DEAB"/>
<path d="M64.0325 127.633C64.9688 128.019 65.4154 129.084 65.0289 130.02C64.6424 130.957 63.5772 131.403 62.6409 131.017C61.7046 130.63 61.2579 129.565 61.6445 128.629C62.031 127.693 63.0962 127.246 64.0325 127.633Z" fill="#F0DEAB"/>
<path d="M69.3152 131.043C70.2515 131.429 70.6981 132.494 70.3116 133.431C69.9251 134.367 68.8599 134.814 67.9236 134.427C66.9873 134.041 66.5407 132.975 66.9272 132.039C67.3138 131.103 68.3789 130.656 69.3152 131.043Z" fill="#F0DEAB"/>
<path d="M74.9934 133.499C75.9297 133.886 76.3764 134.951 75.9898 135.887C75.6033 136.824 74.5382 137.27 73.6019 136.884C72.6656 136.497 72.2189 135.432 72.6054 134.496C72.992 133.56 74.0571 133.113 74.9934 133.499Z" fill="#F0DEAB"/>
<path d="M81.0149 135.106C81.9512 135.492 82.3979 136.557 82.0113 137.494C81.6248 138.43 80.5596 138.877 79.6233 138.49C78.687 138.104 78.2404 137.038 78.6269 136.102C79.0135 135.166 80.0786 134.719 81.0149 135.106Z" fill="#F0DEAB"/>
<path d="M80.6023 128.878C81.5386 129.264 81.9853 130.33 81.5987 131.266C81.2122 132.202 80.147 132.649 79.2107 132.262C78.2744 131.876 77.8278 130.811 78.2143 129.874C78.6009 128.938 79.666 128.491 80.6023 128.878Z" fill="#F0DEAB"/>
<path d="M79.6663 122.427C80.6026 122.814 81.0492 123.879 80.6627 124.815C80.2761 125.751 79.211 126.198 78.2747 125.811C77.3384 125.425 76.8917 124.36 77.2783 123.423C77.6648 122.487 78.73 122.04 79.6663 122.427Z" fill="#F0DEAB"/>
<path d="M78.3777 114.722C79.314 115.108 79.7607 116.174 79.3741 117.11C78.9876 118.046 77.9224 118.493 76.9861 118.106C76.0498 117.72 75.6032 116.655 75.9897 115.718C76.3763 114.782 77.4414 114.335 78.3777 114.722Z" fill="#F0DEAB"/>
<path d="M75.9294 108.632C76.8657 109.018 77.3124 110.084 76.9259 111.02C76.5393 111.956 75.4742 112.403 74.5379 112.016C73.6016 111.63 73.1549 110.565 73.5415 109.628C73.928 108.692 74.9932 108.245 75.9294 108.632Z" fill="#F0DEAB"/>
<path d="M72.4251 103.607C73.3613 103.993 73.808 105.058 73.4215 105.995C73.0349 106.931 71.9698 107.378 71.0335 106.991C70.0972 106.605 69.6505 105.539 70.0371 104.603C70.4236 103.667 71.4888 103.22 72.4251 103.607Z" fill="#F0DEAB"/>
<path d="M66.9529 99.7497C67.8892 100.136 68.3358 101.201 67.9493 102.138C67.5627 103.074 66.4976 103.521 65.5613 103.134C64.625 102.748 64.1784 101.682 64.5649 100.746C64.9515 99.8098 66.0252 99.3632 66.9529 99.7497Z" fill="#F0DEAB"/>
<path d="M52.3503 110.582C53.2866 110.968 53.7333 112.033 53.3468 112.97C52.9602 113.906 51.8865 114.353 50.9588 113.966C50.0225 113.58 49.5758 112.514 49.9624 111.578C50.3489 110.642 51.4141 110.195 52.3503 110.582Z" fill="#F0DEAB"/>
<path d="M75.895 88.8232C84.2186 91.7524 90.7297 96.3995 94.9302 101.837C99.0619 107.188 101.69 122.435 110.263 119.644C119.154 116.749 110.967 101.364 100.436 95.0595C89.9137 88.7545 80.8771 88.7545 75.9036 88.8147L75.895 88.8232Z" fill="#F0DEAB"/>
<path d="M76.5049 90.0601C85.9881 92.4137 91.7863 99.7752 95.4112 108.434C97.3267 113.029 98.7612 117.797 100.479 122.461C102.043 126.713 103.907 130.974 107.239 134.143C110.297 137.055 114.506 138.558 118.672 137.45C122.529 136.428 126.249 132.786 126.034 128.543C125.836 124.669 120.897 120.271 117.384 123.629C116.096 124.866 115.615 127.031 117.178 128.276C119.222 129.9 121.378 126.756 119.446 126.206C121.481 126.679 119.48 129.728 117.521 128.783C115.185 127.744 115.486 124.849 116.998 123.243C120.554 119.472 126.171 123.354 127.151 127.452C128.31 132.125 124.823 136.901 120.751 138.825C116.482 140.843 111.199 140.276 107.154 137.957C98.5121 133.009 97.1377 120.391 94.4921 111.792C91.5371 102.189 86.5894 93.4101 76.5049 90.0601C80.7912 91.486 78.6953 90.6012 76.5049 90.0601Z" fill="#F0DEAB"/>
<path d="M75.7319 86.9594C91.4943 88.265 106.406 82.6645 118.93 73.396C108.837 85.0267 90.79 91.6151 75.7319 86.9594C79.6403 87.2858 79.5029 88.1276 75.7319 86.9594Z" fill="#F0DEAB"/>
<path d="M75.311 85.121C79.7864 82.0973 83.4886 77.7767 85.6103 72.7945C87.9725 67.2541 88.3161 61.3099 88.1529 55.3743C91.8551 66.5153 87.4485 81.3328 75.311 85.121C78.1285 84.2448 77.7334 83.4803 75.311 85.121Z" fill="#F0DEAB"/>
<path d="M75.8091 85.877C82.2858 84.4339 88.6251 81.3931 93.5643 76.935C98.9587 72.0817 102.481 65.8712 105.092 59.1711C103.245 73.4561 90.7039 86.1948 75.8091 85.877C79.3739 85.9543 79.2622 85.1039 75.8091 85.877Z" fill="#F0DEAB"/>
<path d="M89.6386 50.1004C91.9149 51.0367 93.0059 53.6479 92.0696 55.9243C91.1333 58.2092 88.522 59.2915 86.2457 58.3552C83.9607 57.4189 82.8784 54.8076 83.8147 52.5313C84.751 50.2463 87.3623 49.1641 89.6386 50.1004Z" fill="#F0DEAB"/>
<path d="M106.99 53.5188C109.267 54.4551 110.358 57.0664 109.421 59.3428C108.485 61.6277 105.874 62.7099 103.597 61.7737C101.321 60.8374 100.23 58.2261 101.167 55.9498C102.103 53.6649 104.714 52.5825 106.99 53.5188Z" fill="#F0DEAB"/>
<path d="M120.425 69.6163C122.701 70.5526 123.792 73.1639 122.856 75.4402C121.92 77.7166 119.308 78.8074 117.032 77.8711C114.756 76.9348 113.665 74.3235 114.601 72.0472C115.537 69.7709 118.149 68.68 120.425 69.6163Z" fill="#F0DEAB"/>
<path d="M73.6189 6.91026C73.7563 9.10067 75.1393 10.7843 76.2044 12.5796C76.5223 13.1122 76.7027 13.6018 76.78 14.0656C76.445 14.0484 76.1014 14.0484 75.7578 14.0914C74.1944 14.2975 72.047 15.3884 72.0813 17.261C72.1157 19.2625 74.5981 18.833 75.5774 17.9311C76.2302 17.3298 76.8745 16.4708 77.2524 15.5431C79.5115 16.0327 81.2381 18.017 82.1057 20.6798C82.4407 21.7106 82.7156 23.0248 82.5695 24.1845C81.8738 23.4371 81.0234 22.8788 80.0012 22.6212C78.2746 22.1917 75.5087 22.9389 75.3626 25.052C75.208 27.3198 77.9052 28.4279 79.8036 28.1014C81.135 27.8695 82.0284 27.2081 82.5781 26.2976C83.6776 27.9898 84.3133 30.206 84.4078 31.8982C84.5452 34.226 83.4629 37.7393 81.1436 38.5897C81.1608 37.2153 80.9289 35.7722 80.3791 34.2604C79.8379 32.7744 78.3347 31.4515 76.8487 32.6884C74.9503 34.2604 75.1737 37.0091 76.7198 38.7357C77.931 40.0843 79.1937 40.3678 80.3619 40.0242C79.9754 42.6698 78.4206 45.0664 76.2989 46.9219C74.0913 48.8546 71.3941 50.1774 68.6797 51.2597C66.3261 52.2046 63.4743 52.7286 62.9417 52.763C61.1206 52.8574 60.4335 53.7078 66.9016 53.8195C68.7742 53.8538 70.6554 54.1631 72.4077 54.8503C75.4142 56.0099 78.3863 58.7157 78.9188 62.0314C79.3999 64.9863 77.3469 69.5905 73.6619 68.3278C72.3304 67.8725 71.3082 66.5325 72.0212 65.1324C72.7341 63.7236 74.0312 65.098 74.538 64.0586C72.8802 62.3578 70.7069 64.3764 70.6554 66.2404C70.6125 67.9928 72.004 69.307 73.5759 69.7967C77.5445 71.0336 80.5509 67.0737 80.7743 63.4917C81.032 59.2655 77.9138 55.5203 74.246 53.8023C72.4421 52.9605 70.5008 52.5912 68.5423 52.5482C74.5895 50.3063 80.3448 45.7794 81.0663 39.7407C83.1193 38.6584 84.7514 35.7464 85.0434 33.599C85.3956 31.0564 84.8802 27.3112 83.1365 24.8888C83.7807 22.1658 82.6554 18.4636 81.2553 16.5739C80.3448 15.3369 79.0305 14.4694 77.5616 14.1773C77.5788 13.911 77.5617 13.6447 77.5015 13.3785C76.9861 11.1279 75.062 9.44429 74.4693 7.20234C74.1171 5.87091 73.6962 3.43997 75.8179 0.167236C73.1894 3.55164 73.5588 6.16296 73.6017 6.92745L73.6189 6.91026ZM75.5516 16.7027C74.9933 17.1666 74.203 17.6133 73.4729 17.304C72.6225 16.9518 72.6483 16.4192 73.3956 16.0756C74.5294 15.5516 75.6032 15.3713 76.5824 15.4486C76.3762 15.8781 76.0498 16.2904 75.5516 16.7027ZM78.8673 38.5983C77.4414 38.1344 75.6031 36.2962 76.2474 34.647C77.3898 31.7436 79.649 34.7157 80.0785 36.2017C80.3362 37.0693 80.4478 37.9283 80.4478 38.7615C79.9668 38.8216 79.4428 38.7787 78.8673 38.5983ZM82.0799 25.619C81.7621 26.1 81.2896 26.4951 80.6025 26.7185C79.6318 27.0363 78.5667 26.8645 77.6475 26.4608C76.9518 26.1601 75.2853 25.0263 76.5051 24.3563C78.8501 23.0764 80.7399 23.9526 82.0799 25.619Z" fill="#F0DEAB"/>
<path d="M22.9902 134.573C23.5915 134.487 26.8642 134.47 29.6731 135.011C32.9115 135.638 36.1757 136.531 39.0361 138.198C41.7848 139.804 44.0182 142.123 45.006 144.975C43.6402 144.838 42.2916 145.422 41.2437 147.174C39.8951 149.416 40.2301 152.508 42.6782 153.849C44.5937 154.896 45.9681 153.11 46.2601 151.357C46.5522 149.562 46.5007 147.922 46.1828 146.401C48.9316 146.856 50.8729 150.524 51.2165 153.127C51.4656 155.017 51.2337 157.602 50.3747 159.715C49.5672 158.831 48.4334 158.281 46.913 158.307C44.7397 158.341 41.991 160.145 42.6438 162.627C43.2537 164.938 46.4835 165.179 48.3045 164.337C49.3783 163.839 50.2029 163.04 50.8214 162.06C51.2251 163.315 51.1993 164.826 51.0533 166.038C50.6582 169.173 49.1721 171.733 46.7755 172.763C46.1657 171.819 45.2723 171.002 44.4133 170.478C43.1334 169.688 40.2988 169.74 40.6767 171.965C41.0375 174.043 43.6488 174.799 45.4269 174.696C45.8135 174.67 46.1914 174.602 46.5608 174.516C46.578 175.04 46.4835 175.624 46.243 176.277C45.4441 178.493 44.2673 180.649 44.5851 183.106C44.6968 183.965 44.8428 186.928 48.4763 190.124C45.4183 186.954 45.3754 184.162 45.4785 182.616C45.6589 180.005 47.437 177.737 47.5314 175.126C47.54 174.825 47.4971 174.524 47.4198 174.232C48.9745 173.588 50.2544 172.351 51.0018 170.788C52.1442 168.4 52.6081 164.053 51.311 161.176C52.7283 158.109 52.505 153.857 51.5773 151.117C50.787 148.806 48.3647 145.929 45.865 145.164C41.5873 133.027 27.8607 133.207 23.9866 133.327C20.4132 134.324 21.3495 134.813 22.9988 134.581L22.9902 134.573ZM46.0454 173.012C44.9717 173.313 43.7519 173.339 42.3775 172.995C41.4756 172.772 41.3382 172.188 42.1972 171.612C42.9445 171.114 43.9237 171.441 44.6281 171.836C45.2637 172.188 45.719 172.574 46.0368 173.012H46.0454ZM49.971 160.574C48.8371 162.705 46.9302 164.079 44.0611 163.16C42.5665 162.679 44.1814 161.064 44.8772 160.583C45.8049 159.947 46.9559 159.526 48.0984 159.672C48.9144 159.776 49.5157 160.111 49.971 160.583V160.574ZM45.3668 146.35C45.5472 147.277 45.6073 148.248 45.5043 149.27C45.3325 151.005 43.4685 154.785 41.5873 151.813C40.5221 150.129 42.1714 147.69 43.6488 146.874C44.2415 146.547 44.8171 146.393 45.3668 146.35Z" fill="#F0DEAB"/>
<path d="M4.84821 39.8611C4.80526 39.9642 4.71078 40.0501 4.58193 40.0673C4.39295 40.1016 4.22116 39.9728 4.1868 39.7838L3.62847 36.3651C3.6027 36.1761 3.72294 36.0043 3.91192 35.9699C4.1009 35.9355 4.27269 36.0644 4.30705 36.2534L4.85681 39.6721C4.8654 39.7409 4.85682 39.801 4.83964 39.8525L4.84821 39.8611Z" fill="#F0DEAB"/>
<path d="M5.86167 37.5846C5.81872 37.6962 5.71566 37.7821 5.58681 37.7993C5.39784 37.8251 5.22604 37.6876 5.20886 37.4986L4.7536 33.7879C4.72783 33.5989 4.86527 33.4271 5.05425 33.4013C5.24322 33.3755 5.415 33.5129 5.43218 33.7019L5.88744 37.4128C5.88744 37.4729 5.88744 37.533 5.86167 37.5846Z" fill="#F0DEAB"/>
<path d="M7.09876 35.9268C7.04722 36.0557 6.9184 36.1416 6.77237 36.1416C6.58339 36.1416 6.42876 35.9783 6.43735 35.7893L6.51466 31.984C6.51466 31.7951 6.67787 31.6404 6.86685 31.649C7.05582 31.649 7.21045 31.8123 7.20186 32.0012L7.12453 35.8065C7.12453 35.8065 7.11594 35.8925 7.09876 35.9268Z" fill="#F0DEAB"/>
<path d="M8.64486 34.6125C8.58473 34.7671 8.42151 34.853 8.2583 34.8186C8.06933 34.7757 7.95766 34.5953 7.99202 34.4149L8.72216 30.9704C8.75652 30.79 8.9455 30.6697 9.12589 30.7041C9.31487 30.7471 9.42653 30.9274 9.39217 31.1078L8.67063 34.5523C8.67063 34.5523 8.66202 34.5953 8.65343 34.6125H8.64486Z" fill="#F0DEAB"/>
<path d="M15.7744 30.3348C15.7744 30.3348 15.7572 30.3777 15.74 30.3949L13.4121 33.9597C13.3091 34.1143 13.0943 34.1658 12.9397 34.0627C12.7765 33.9596 12.7421 33.7449 12.8366 33.5903L15.1645 30.0341C15.2676 29.8709 15.4823 29.8279 15.6369 29.931C15.7744 30.0255 15.8259 30.1973 15.7658 30.352L15.7744 30.3348Z" fill="#F0DEAB"/>
<path d="M18.3343 30.584C18.3343 30.584 18.3085 30.6356 18.2913 30.6614L15.7917 34.0801C15.68 34.2347 15.4653 34.2691 15.3107 34.1574C15.156 34.0458 15.1131 33.831 15.2334 33.6764L17.733 30.2576C17.8447 30.103 18.0594 30.0687 18.214 30.1803C18.3429 30.2748 18.3858 30.4466 18.3257 30.5926L18.3343 30.584Z" fill="#F0DEAB"/>
<path d="M20.688 30.8675C20.688 30.8675 20.6708 30.9104 20.6536 30.9362L18.1024 34.5869C17.9907 34.7415 17.7846 34.7758 17.6214 34.6728C17.4668 34.5611 17.4324 34.3549 17.5355 34.1917L20.0867 30.541C20.1983 30.3864 20.4131 30.3521 20.5677 30.4552C20.7051 30.5497 20.7481 30.7214 20.688 30.8675Z" fill="#F0DEAB"/>
<path d="M23.2649 30.9359C23.2649 30.9359 23.2306 30.996 23.2134 31.0218L20.0609 34.9216C19.9406 35.0676 19.7259 35.0934 19.5799 34.9731C19.4338 34.8529 19.4081 34.6381 19.5283 34.4921L22.6808 30.5923C22.8011 30.4463 23.0158 30.4205 23.1619 30.5408C23.2821 30.6353 23.3165 30.7985 23.2649 30.9359Z" fill="#F0DEAB"/>
<path d="M26.8466 30.7985C26.8295 30.8415 26.7951 30.893 26.7521 30.9274L22.2167 34.8787C22.0707 34.999 21.8559 34.9904 21.7357 34.8444C21.6154 34.6984 21.624 34.4836 21.77 34.3634L26.3055 30.412C26.4515 30.2831 26.6663 30.3003 26.7865 30.4464C26.8724 30.5495 26.8896 30.6869 26.8466 30.8071V30.7985Z" fill="#F0DEAB"/>
<path d="M30.0595 30.1973C30.0338 30.2575 29.9908 30.3091 29.9393 30.352L23.3423 34.8187C23.1876 34.9218 22.9729 34.8874 22.8698 34.7242C22.7582 34.5696 22.8011 34.3549 22.9643 34.2432L29.5613 29.7764C29.716 29.6734 29.9307 29.7078 30.0424 29.871C30.1111 29.9741 30.1197 30.0943 30.0767 30.1973H30.0595Z" fill="#F0DEAB"/>
<path d="M29.2175 32.697C29.1832 32.7743 29.1317 32.843 29.0458 32.8774L23.1445 35.6691C22.9727 35.7464 22.7666 35.6691 22.6893 35.5059C22.612 35.3341 22.6806 35.1279 22.8524 35.0506L28.7537 32.2589C28.9255 32.173 29.1317 32.2503 29.209 32.4221C29.2519 32.5166 29.2519 32.6111 29.209 32.697H29.2175Z" fill="#F0DEAB"/>
<path d="M28.2643 35.4631C28.2214 35.5576 28.1441 35.6349 28.0324 35.6607L22.3373 37.1639C22.1569 37.2154 21.968 37.1037 21.9164 36.9148C21.8649 36.7344 21.9765 36.5454 22.1569 36.4939L27.852 34.9906C28.0324 34.9477 28.2214 35.0508 28.2729 35.2398C28.2901 35.3171 28.2815 35.3944 28.2557 35.4545L28.2643 35.4631Z" fill="#F0DEAB"/>
<path d="M27.2764 37.7221C27.2335 37.8338 27.1304 37.9197 27.0015 37.9369L21.5298 38.5983C21.3408 38.6241 21.169 38.4867 21.1432 38.2977C21.1175 38.1087 21.2549 37.9369 21.4439 37.9111L26.9156 37.2497C27.1046 37.2239 27.2764 37.3613 27.3022 37.5503C27.3022 37.6104 27.3022 37.6706 27.2764 37.7221Z" fill="#F0DEAB"/>
<path d="M26.3229 39.7407C26.2714 39.8695 26.1425 39.9554 26.0051 39.9554L20.7138 39.8867C20.5248 39.8867 20.3702 39.7321 20.3788 39.5345C20.3788 39.3456 20.5334 39.1909 20.7309 39.1909L26.0223 39.2597C26.2113 39.2597 26.3659 39.4142 26.3659 39.6118C26.3659 39.6548 26.3573 39.6977 26.3401 39.7407H26.3229Z" fill="#F0DEAB"/>
<path d="M24.8284 42.034C24.7682 42.18 24.6136 42.2745 24.4418 42.2401L19.5714 41.2867C19.3824 41.2523 19.2621 41.0719 19.3051 40.8829C19.3395 40.7025 19.5198 40.5737 19.7088 40.6081L24.5793 41.553C24.7682 41.5873 24.8885 41.7677 24.8541 41.9567C24.8541 41.9824 24.8456 41.9996 24.837 42.0254L24.8284 42.034Z" fill="#F0DEAB"/>
<path d="M23.5653 43.7436C23.4966 43.8982 23.3248 43.9927 23.153 43.9412L18.5402 42.6613C18.3598 42.6098 18.2482 42.4208 18.2997 42.2404C18.3513 42.06 18.5402 41.9484 18.7206 41.9999L23.3334 43.2712C23.5138 43.3227 23.6254 43.5117 23.5739 43.6921C23.5739 43.7093 23.5739 43.7179 23.5567 43.735L23.5653 43.7436Z" fill="#F0DEAB"/>
<path d="M21.7614 45.7278C21.7614 45.7278 21.7529 45.745 21.7443 45.7622C21.6584 45.9254 21.4436 45.9941 21.2804 45.9082L17.2174 43.7435C17.0542 43.6576 16.9855 43.4429 17.0714 43.2797C17.1573 43.1165 17.372 43.0477 17.5352 43.1422L21.5982 45.3069C21.7528 45.3928 21.8216 45.5818 21.7528 45.7364L21.7614 45.7278Z" fill="#F0DEAB"/>
<path d="M20.5333 46.7671C20.5333 46.7671 20.5333 46.7929 20.5162 46.8015C20.4303 46.9647 20.2155 47.0334 20.0523 46.939L15.9893 44.7743C15.8175 44.6884 15.7659 44.4737 15.8518 44.3105C15.9377 44.1472 16.1525 44.0785 16.3157 44.173L20.3787 46.3377C20.5333 46.4236 20.602 46.6125 20.5333 46.7671Z" fill="#F0DEAB"/>
<path d="M18.7295 47.8236C18.7295 47.8236 18.7123 47.858 18.7037 47.8752C18.6006 48.0384 18.3859 48.0813 18.2313 47.9783L14.5119 45.5817C14.3487 45.4786 14.3057 45.2639 14.4088 45.1093C14.5119 44.9461 14.7266 44.9031 14.8812 45.0062L18.6006 47.4028C18.7467 47.4887 18.7982 47.669 18.7295 47.8236Z" fill="#F0DEAB"/>
<path d="M16.3842 48.7171C16.3842 48.7171 16.3498 48.7859 16.324 48.8203C16.1952 48.9577 15.9804 48.9663 15.8344 48.8374L12.9139 46.1488C12.7764 46.0199 12.7678 45.7966 12.8967 45.6677C13.0255 45.5303 13.2403 45.5218 13.3863 45.6506L16.3068 48.3392C16.4185 48.4423 16.4443 48.5969 16.3927 48.7171H16.3842Z" fill="#F0DEAB"/>
<path d="M13.9535 49.078C13.9278 49.1296 13.8934 49.1811 13.8419 49.224C13.6873 49.3357 13.4725 49.3099 13.3608 49.1553L11.3165 46.4581C11.1962 46.3035 11.2306 46.0888 11.3852 45.9771C11.5398 45.8654 11.7545 45.8912 11.8662 46.0458L13.9106 48.743C13.9879 48.8461 13.9965 48.9749 13.9535 49.078Z" fill="#F0DEAB"/>
<path d="M11.0414 48.6225C11.0157 48.6826 10.9813 48.7342 10.9212 48.7771C10.7666 48.8888 10.5518 48.8458 10.4402 48.6912L8.79949 46.3462C8.68783 46.1916 8.73078 45.9768 8.8854 45.8652C9.04001 45.7535 9.25476 45.7964 9.36643 45.9511L10.9985 48.2961C11.0672 48.3991 11.0758 48.5194 11.0329 48.6225H11.0414Z" fill="#F0DEAB"/>
<path d="M10.1909 33.9855C10.1307 34.1401 9.95894 34.226 9.79574 34.1831C9.61535 34.1401 9.49507 33.9511 9.53802 33.7708L10.3025 30.5582C10.3455 30.3778 10.5345 30.2575 10.7149 30.3005C10.9038 30.3434 11.0155 30.5324 10.9725 30.7128L10.2081 33.9254C10.2081 33.9254 10.1995 33.9597 10.1909 33.9769V33.9855Z" fill="#F0DEAB"/>
<path d="M13.3606 30.3349L11.9948 33.6678C11.9261 33.8482 11.7199 33.9255 11.5481 33.8567C11.3764 33.788 11.2905 33.5819 11.3592 33.4101L12.7335 30.0772C12.8022 29.9054 13.0084 29.8195 13.1802 29.8882C13.352 29.9569 13.4379 30.1631 13.3692 30.3349H13.3606Z" fill="#F0DEAB"/>
<path d="M-10.8714 130.08C-11.0002 131.755 -10.7339 133.465 -10.0983 135.02C-8.45762 139.014 -4.21423 142.321 0.261094 141.376C4.08358 140.594 7.59683 136.231 5.32911 132.408C4.62474 131.223 3.31051 130.201 1.88459 130.132C0.132259 130.055 -1.97227 131.695 -1.34521 133.619C-1.03597 134.573 0.0892988 135.398 1.06854 134.822C1.70419 134.444 1.4465 133.628 1.20598 134.006C0.621873 134.942 -0.48621 134.006 -0.529159 133.224C-0.572108 132.331 0.295454 131.635 1.09431 131.481C2.64049 131.18 4.00627 132.709 4.28114 134.101C4.56461 135.569 3.75717 137.021 2.70061 137.992C-0.494817 140.912 -4.86706 139.169 -7.26364 136.136C-9.30802 133.542 -9.29943 127.332 -9.03315 124.875C-9.71175 125.923 -11.5757 128.594 -12.555 129.496C-14.1183 130.939 -16.051 131.962 -18.1126 132.477C-22.7254 133.559 -28.6524 131.876 -29.1334 126.413C-29.3482 123.913 -28.0683 121.327 -25.3281 121.13C-23.593 121.001 -21.3854 122.496 -22.4247 124.42C-23.2322 125.914 -25.2938 124.918 -25.3281 123.973C-26.2472 126.267 -22.7941 127.332 -21.6173 125.485C-20.3975 123.561 -20.8528 120.992 -22.6223 119.876C-24.1513 118.888 -26.2472 118.905 -27.8707 119.627C-32.0454 121.473 -32.5522 127.065 -30.4906 130.665C-26.1527 138.224 -15.4755 136.248 -10.8886 130.089L-10.8714 130.08Z" fill="#F0DEAB"/>
<path d="M15.4492 95.3945C15.4225 95.4478 15.4225 95.4478 15.4492 95.3945Z" fill="#F0DEAB"/>
<path d="M29.6731 29.6822C25.7304 30.7387 22.3459 30.1031 18.9701 29.7852C15.371 29.4502 11.4712 28.5225 7.82908 29.7852C4.75391 30.859 0.0123082 38.1002 2.97581 43.8554C-5.49379 48.2363 -10.2182 54.3179 -12.6578 58.5613C-12.3657 56.431 -12.3055 54.3093 -12.1252 52.222C-11.0085 39.4832 -17.6828 35.5405 -17.0386 31.1339C-16.6434 28.428 -15.3979 25.3529 -12.2884 25.3529C-9.97769 25.3529 -6.44727 27.2684 -6.39573 29.9141C-6.36996 31.1596 -7.36638 32.869 -8.69781 33.058C-9.92616 33.2384 -11.4466 31.6406 -10.0894 30.6786C-11.9877 31.5805 -9.96911 33.7795 -8.50883 33.6507C-6.93689 33.5046 -5.63982 31.8039 -5.39931 30.3436C-4.8152 26.7702 -9.23896 23.9785 -12.3399 23.9871C-15.9476 23.9871 -17.9491 27.3285 -18.1639 30.627C-18.2927 32.5855 -17.7344 34.7931 -16.5404 36.7087C-19.3407 33.3844 -24.0135 31.5634 -29.073 33.7709C-33.1102 35.5405 -35.9706 40.1188 -35.7731 44.534C-35.5669 49.0265 -31.3922 54.0946 -26.4616 52.5054C-23.7558 51.6379 -22.4674 48.8118 -22.6563 46.1232C-23.3779 45.3673 -23.9878 47.2484 -24.2369 47.6264C-24.8553 48.5627 -25.6628 49.4303 -26.7795 49.7309C-29.073 50.358 -31.3836 48.4253 -32.2856 46.4582C-33.3507 44.2678 -33.0415 41.7166 -32.1567 39.5262C-30.2498 34.8103 -24.3915 32.1389 -19.8045 35.0079C-15.3979 37.7652 -14.1524 44.388 -14.3929 49.1296C-14.6764 54.9192 -16.2311 60.5713 -16.5232 66.3609C-16.7895 71.6179 -15.9133 76.7975 -13.3192 81.3674C-15.7501 79.7696 -19.3235 82.527 -17.0472 85.4218C-20.6291 84.5972 -21.3163 89.8799 -18.2669 90.1376C-21.7372 90.4554 -21.9863 94.6817 -18.8167 95.24C-21.952 95.6265 -22.1839 99.8012 -18.9197 99.6552C-22.4158 101.133 -21.0329 104.105 -18.2583 103.864C-20.7752 106.347 -18.4902 110.307 -15.0801 109.37C-18.6878 111.518 -16.9269 114.902 -12.9412 113.717C-16.1624 115.89 -13.9634 119.403 -10.8882 118.665C-13.8947 122.582 -7.92473 126.705 -5.61405 122.264C-6.73932 126.078 -0.305522 126.988 -0.116545 122.994C0.802571 125.914 4.4275 125.15 5.18341 122.942C5.3638 123.294 5.54419 123.655 5.75035 123.999C8.04384 127.864 11.5914 130.484 15.371 132.786C19.245 135.149 23.7976 137.159 26.8041 140.663C29.2264 143.489 30.6266 147.99 28.0153 151.169C25.5156 154.201 20.7225 154.845 17.9222 151.873C16.668 150.533 15.895 148.617 16.711 146.848C17.2607 145.671 18.575 144.563 19.9494 144.735C21.8907 144.975 22.5177 148.446 20.5764 148.025C20.5593 148.025 19.0045 146.753 19.3567 147.801C19.6659 148.763 20.7654 149.064 21.6158 148.66C23.9952 147.518 22.7411 144.486 20.8341 143.678C18.6609 142.759 16.2472 144.254 15.225 146.186C12.6222 151.117 18.0854 156.151 22.8184 156.159C28.4791 156.159 32.8342 150.937 32.0525 145.422C31.2622 139.839 27.4655 136.549 23.0246 133.723C24.7253 133.482 26.2887 132.563 27.4913 131.369C29.9909 128.895 31.5199 124.712 29.7161 121.422C28.0496 118.381 23.0246 116.577 20.774 120.03C19.8635 121.43 19.8034 123.483 21.3066 124.506C22.4834 125.296 24.5364 125.004 24.5449 123.243C23.5313 122.856 23.5571 124.428 22.3459 123.793C21.5127 123.363 21.3839 122.453 21.6931 121.654C22.7153 119.051 26.0825 120.108 27.3195 121.894C30.0768 125.889 24.8456 131.652 20.5936 132.237C16.1699 129.625 11.5485 127.151 8.8341 123.183C2.24568 113.562 9.86488 101.657 15.4569 95.3087C15.4483 95.3345 15.4311 95.3602 15.4225 95.3774C15.4225 95.3602 15.4397 95.3345 15.4569 95.3087C15.8606 94.8535 16.6337 94.3552 17.0374 93.9859C17.6988 93.3674 17.5786 92.8434 14.9157 92.7661C13.9622 92.7403 8.43896 91.3488 6.65227 90.7131C2.95863 89.4075 -0.554614 87.5778 -3.45799 84.9064C-8.85242 79.9243 -10.7422 72.5112 -7.83882 65.6651C-6.54175 62.6071 -4.1366 59.6179 -0.597575 59.3945C2.16836 59.2227 5.38097 60.5627 6.81548 63.0194C8.34448 65.6221 7.05601 70.5957 3.38813 70.2779C1.91927 70.149 0.28717 68.809 0.94859 67.2027C1.64437 65.4933 2.9071 67.1425 3.55134 66.1289C2.05671 64.3594 -0.107941 66.3866 -0.0220428 68.1647C0.055266 69.771 1.55849 70.9393 3.03595 71.2227C6.81549 71.9615 9.28936 67.6923 8.82551 64.4024C8.25858 60.3823 4.01519 57.6937 0.218472 57.4017C-3.90466 57.0838 -7.32343 59.1969 -9.68564 62.4353C-14.7451 69.3759 -12.9412 78.9107 -7.26332 84.8892C-4.72072 87.5693 -1.61119 89.5106 1.78181 90.8849C-14.2984 85.104 -14.2211 68.6973 -13.3621 63.1569C-12.2884 60.4081 -7.89037 50.9593 3.69736 44.9893C6.67804 49.1468 12.459 50.8218 16.2472 49.9199C22.2171 48.5026 26.0224 40.9435 28.2128 35.6006C29.4755 32.5254 30.0854 30.0859 30.094 30.0601L30.2315 29.4932L29.6645 29.6478L29.6731 29.6822ZM-14.0751 86.7446C-14.2039 86.9422 -14.3156 87.1484 -14.4358 87.3545C-14.4616 87.3459 -14.4874 87.3202 -14.5132 87.3116C-15.1832 87.0367 -15.9563 87.3545 -16.2311 88.0245C-16.506 88.6945 -16.1882 89.4676 -15.5096 89.7425C-15.4838 89.7511 -15.4666 89.7597 -15.4409 89.7597C-15.4924 89.9229 -15.5439 90.0861 -15.5783 90.2493C-16.1195 90.0002 -16.6864 89.8713 -17.3392 89.9143C-20.1309 88.5227 -17.7601 84.5456 -14.0665 86.736L-14.0751 86.7446ZM-17.3907 90.6101C-16.7723 90.5929 -16.2311 90.6616 -15.7243 90.9365C-15.7673 91.2028 -15.8016 91.469 -15.8188 91.7267C-16.3772 91.6752 -16.9355 91.9844 -17.1588 92.5342C-17.4337 93.2042 -17.1159 93.9773 -16.4373 94.2521C-16.1538 94.3638 -15.8532 94.3724 -15.5783 94.2951C-15.4495 94.716 -15.2777 95.1111 -15.0457 95.4805C-15.7845 94.9221 -16.8668 94.6903 -17.8202 94.8706C-20.2426 94.6044 -19.607 90.6702 -17.3822 90.6101H-17.3907ZM-16.8238 95.8584C-16.9183 95.9615 -16.9956 96.0904 -17.0558 96.2279C-17.3306 96.8979 -17.0128 97.671 -16.3342 97.9458C-16.317 97.9458 -16.2913 97.9544 -16.2741 97.963C-16.3342 98.1262 -16.3943 98.2894 -16.4459 98.4526C-17.1331 98.5213 -17.7945 98.7704 -18.3442 99.1656C-20.5261 98.4956 -20.1653 95.6008 -16.8152 95.867L-16.8238 95.8584ZM-16.6348 99.1656C-16.6778 99.4061 -16.7036 99.6466 -16.7207 99.8871C-17.2877 99.827 -17.8546 100.136 -18.078 100.686C-18.3528 101.356 -18.035 102.129 -17.365 102.404C-17.0729 102.524 -16.7637 102.524 -16.4888 102.438C-16.4459 102.61 -16.4115 102.773 -16.36 102.954C-16.6692 102.988 -16.9784 103.065 -17.2705 103.194C-19.6843 103.684 -21.0071 100.11 -16.6348 99.1656ZM-16.1195 103.624C-16.0078 103.916 -15.8789 104.216 -15.7415 104.517C-15.7071 104.586 -15.6642 104.663 -15.6298 104.74C-15.8961 104.878 -16.128 105.101 -16.2483 105.402C-16.5232 106.072 -16.2054 106.845 -15.5268 107.12C-15.0286 107.326 -14.4788 107.197 -14.118 106.854C-13.7658 107.223 -13.3879 107.575 -12.9756 107.876C-13.5425 108.099 -14.1094 108.417 -14.5733 108.829C-17.3306 110.161 -20.7236 104.869 -16.1195 103.624ZM-12.254 108.34C-11.8847 108.537 -11.5153 108.692 -11.1288 108.795C-11.5153 108.898 -11.8503 109.164 -12.0135 109.568C-12.2884 110.238 -11.9706 111.011 -11.292 111.286C-11.0944 111.372 -10.8882 111.389 -10.6821 111.372C-10.6305 111.767 -10.5532 112.162 -10.4502 112.557C-11.0429 112.574 -11.6098 112.72 -12.0994 113.012C-16.0851 114.206 -17.9062 110.358 -12.254 108.348V108.34ZM-10.2354 113.236C-10.201 113.339 -10.1495 113.433 -10.1066 113.536C-10.4587 113.648 -10.768 113.914 -10.914 114.284C-11.1889 114.954 -10.871 115.727 -10.201 116.002C-9.71141 116.199 -9.17886 116.088 -8.81808 115.753C-8.74077 115.847 -8.67205 115.95 -8.59474 116.045C-9.59116 116.431 -10.3213 117.084 -10.6821 117.934C-13.6026 118.785 -14.5561 114.095 -10.244 113.244L-10.2354 113.236ZM-8.07934 116.577C-8.00203 116.654 -7.91613 116.723 -7.83882 116.792C-7.9419 116.904 -8.02781 117.032 -8.08794 117.17C-8.36281 117.84 -8.04499 118.613 -7.36639 118.888C-6.71356 119.154 -5.96624 118.862 -5.67419 118.226C-5.51957 118.295 -5.37353 118.373 -5.20173 118.441C-5.70853 119.18 -6.01779 119.944 -5.97484 120.924C-5.96625 121.156 -5.92329 121.396 -5.85457 121.628C-8.98128 125.219 -13.3106 119.352 -8.07934 116.569V116.577ZM-4.54032 118.699C-4.40288 118.75 -4.25686 118.785 -4.11942 118.836C-4.3084 119.472 -3.99057 120.159 -3.36351 120.417C-2.6935 120.692 -1.92042 120.374 -1.64554 119.704C-1.60259 119.601 -1.58541 119.506 -1.56823 119.395C-1.42221 119.412 -1.27617 119.438 -1.13014 119.446C-1.25899 120.477 -1.0786 121.559 -0.563208 122.418C-1.36207 124.849 -7.00562 123.81 -4.54892 118.699H-4.54032ZM3.99801 120.013C3.99801 120.013 3.98084 120.039 3.98084 120.065C4.89136 123.81 -0.975536 125.476 -0.442964 119.489C-0.185268 119.498 0.0638506 119.489 0.321547 119.489C0.338726 119.987 0.639374 120.451 1.129 120.657C1.79901 120.932 2.57209 120.614 2.84697 119.944C2.98441 119.618 2.97582 119.266 2.84697 118.957C3.11325 118.836 3.37095 118.699 3.60288 118.536C3.71455 119.043 3.84339 119.541 3.99801 120.03V120.013ZM1.30078 102.979C-1.0099 104.654 -4.72072 108.288 -5.11585 109.173C-4.03353 109.027 -0.305519 105.385 1.52412 103.186C1.799 103.435 2.09104 103.658 2.37451 103.864C-0.614762 106.209 -3.15735 110.023 -4.02492 113.579C-0.941161 111.586 1.83335 107.927 3.07029 104.319C3.3108 104.466 3.55133 104.603 3.77466 104.715C2.49477 107.094 1.54131 109.817 1.07746 112.454C2.42607 110.152 3.45684 107.481 4.02378 104.843C4.58212 105.118 5.05457 105.29 5.34662 105.393C4.33302 107.455 3.60287 109.654 3.29363 111.956C3.13901 113.133 3.10467 114.31 3.17339 115.486C2.8212 116.947 0.0208908 117.05 -1.13874 117.187C-2.75364 117.376 -4.41147 116.766 -5.69136 115.847C-10.1495 112.669 -8.98988 109.551 -8.50026 108.64C-7.2805 106.63 0.493328 102.06 0.493328 102.06C0.751024 102.387 1.01731 102.696 1.30078 102.971V102.979ZM-0.37423 100.669C-0.236793 100.969 -0.0735956 101.244 0.0982017 101.511C0.0982017 101.511 -6.59329 106.192 -10.0636 106.879C-11.8245 107.171 -13.5511 104.345 -14.0922 103.203C-15.2776 100.695 -14.8052 98.9938 -13.2505 97.0524C-11.4724 96.2708 -1.07001 97.3187 -1.07001 97.3187C-1.07001 97.4905 -1.0786 97.6624 -1.07001 97.8256C-3.33773 97.3445 -5.89753 97.3703 -8.14807 97.6795C-5.93189 98.2722 -3.3635 98.3667 -1.04424 98.1606C-1.01847 98.4097 -0.984114 98.6416 -0.941165 98.8735C-4.25685 98.5041 -8.15664 99.3803 -10.7851 101.158C-7.67561 101.923 -3.68132 101.39 -0.692051 99.8699C-0.640512 100.025 -0.588988 100.179 -0.52027 100.325C-2.71927 101.21 -4.88392 102.507 -6.64485 104.027C-4.45443 103.289 -2.24682 102.103 -0.37423 100.669ZM7.85485 101.313C7.43394 101.871 7.0474 102.455 6.67804 103.048C1.10322 100.334 1.4726 96.288 2.50338 94.046C3.38814 94.3209 4.32442 94.3896 5.22635 94.5614C3.51697 98.3753 5.862 100.823 7.85485 101.322V101.313ZM-0.0993484 92.9035C-0.185247 93.1097 -0.253983 93.3159 -0.331292 93.522C-2.37568 92.1133 -4.72072 90.9708 -7.04857 90.2493C-5.11585 91.7611 -2.80517 93.0324 -0.460134 93.9086C-0.520263 94.089 -0.571805 94.2694 -0.623344 94.4497C-3.38928 92.182 -7.49523 90.7389 -10.9569 90.8763C-8.4573 93.3073 -4.39429 94.9823 -0.803724 95.1197C-0.829493 95.24 -0.863858 95.3603 -0.889627 95.4719C-3.13158 94.7933 -5.59688 94.4583 -7.89896 94.5528C-5.7429 95.3431 -3.29478 95.7984 -0.958335 95.8413C-1.00128 96.1162 -1.02706 96.3739 -1.04424 96.6316C-1.04424 96.6316 -8.92114 96.3739 -12.6663 95.575C-15.4924 90.696 -12.0049 87.3373 -9.86605 86.0832C-7.18601 88.9436 -3.793 91.3402 -0.107947 92.9207L-0.0993484 92.9035ZM-12.6749 82.5012C-12.2282 83.1884 -11.7386 83.8584 -11.2232 84.5113C-11.2662 84.4855 -11.3091 84.4683 -11.3521 84.4511C-11.4895 84.1763 -11.7214 83.9443 -12.0221 83.8155C-12.6921 83.5406 -13.4652 83.8584 -13.7401 84.5284C-13.9462 85.018 -13.826 85.5592 -13.4824 85.9286C-13.5425 86.0059 -13.6112 86.0832 -13.6713 86.1605C-14.3671 85.6193 -15.3034 85.2929 -16.1968 85.3015C-17.5626 83.4461 -15.3549 81.3846 -13.1474 82.3552C-13.0013 82.4239 -12.8725 82.3724 -12.7952 82.2865C-12.7522 82.3552 -12.7179 82.4325 -12.6663 82.5012H-12.6749ZM5.10611 44.3021C6.78113 44.2592 9.44398 43.9929 12.6394 42.9363C17.4411 41.3558 20.4991 38.1002 19.8979 36.7516C19.2966 35.403 14.6408 35.2312 10.4576 38.0573C7.40817 40.1188 5.38097 41.9571 4.26429 43.0909C4.36737 42.0945 4.62507 40.4281 5.28649 38.8046C6.1197 36.7688 7.34805 35.3859 8.92858 34.6987C11.3509 33.6421 13.988 34.1231 16.5306 34.587C18.721 34.9821 20.7998 35.3687 22.7411 34.8361C22.7067 34.9134 22.6809 34.9993 22.638 35.0852C21.59 37.6364 18.5922 43.7438 13.3696 45.4188C10.8098 46.2434 8.03525 45.8569 5.10611 44.3021ZM27.5858 35.36C25.4555 40.5569 21.7103 47.0251 16.0238 48.3823C12.6824 49.1726 9.02307 48.0645 5.14045 45.0924C8.10395 46.587 10.9386 46.922 13.5757 46.063C19.0732 44.2935 22.1827 37.9714 23.2651 35.3343C23.5056 34.7416 23.6259 34.3808 23.6259 34.3808L23.8578 33.6765L23.1706 33.9514C21.2121 34.7244 18.9959 34.3207 16.6423 33.8912C13.9966 33.4102 11.2564 32.912 8.64513 34.0544C6.89279 34.8189 5.55277 36.3221 4.64225 38.5297C4.05814 39.947 3.77466 41.3816 3.63722 42.4123C3.50837 40.66 3.51696 37.8683 4.49621 35.4889C5.31224 33.4961 6.66086 32.1303 8.50769 31.4345C11.9608 30.1288 15.2765 30.4381 18.7898 30.7645C22.0625 31.0737 25.4469 31.3829 29.2694 30.4724C29.0203 31.3572 28.4619 33.1954 27.5686 35.3515L27.5858 35.36Z" fill="#F0DEAB"/>
<path d="M33.9079 143.575C33.2722 139.985 38.3059 139.014 39.1305 142.648C40.0668 146.796 34.5349 147.089 33.9079 143.575Z" fill="#F0DEAB"/>
<path d="M34.0798 149.777C34.8528 146.676 39.3454 147.664 38.6324 150.902C37.7992 154.664 33.3239 152.869 34.0798 149.777Z" fill="#F0DEAB"/>
<path d="M31.5626 154.905C33.0572 152.388 37.0945 154.991 34.7494 157.388C32.9799 159.183 30.2655 157.096 31.5626 154.905Z" fill="#F0DEAB"/>
<path d="M27.6288 157.276C29.9137 156.649 30.9445 160.042 28.5651 160.6C25.9022 161.227 25.3525 157.92 27.6288 157.276Z" fill="#F0DEAB"/>
<path d="M22.7239 158.135C24.6652 158.187 24.6566 161.142 22.6638 160.97C20.0954 160.755 20.7826 158.092 22.7239 158.135Z" fill="#F0DEAB"/>
<path d="M18.2743 160.231C16.7453 159.973 17.1319 157.783 18.6437 158.041C20.1555 158.29 19.8119 160.48 18.2743 160.231C18.9529 160.343 17.5957 160.119 18.2743 160.231Z" fill="#F0DEAB"/>
<path d="M6.52311 12.1158C4.04064 8.83445 -0.683792 9.23821 -4.11115 10.4837C-6.95439 11.5231 -9.42828 13.3785 -11.4984 15.6377C-11.9279 14.8989 -12.3059 14.1086 -12.6237 13.2496C-13.5858 10.6899 -13.9208 7.70919 -12.8041 5.14941C-12.3488 4.11004 -11.5242 3.11361 -10.5192 2.34911C-10.502 2.39206 -10.4848 2.43503 -10.4676 2.47798C-9.37673 4.78865 -4.84988 6.91894 -4.33449 3.12222C-4.17129 1.93682 -4.79834 0.425012 -5.94079 0.0728277C-7.36671 -0.365255 -9.07609 0.631129 -10.3903 1.69627C-10.4075 1.65332 -10.4333 1.6104 -10.4419 1.56746C-11.7304 -1.85131 -9.29943 -6.79908 -5.86349 -8.0532C-5.92362 -7.4605 -5.90642 -6.85922 -5.76898 -6.23215C-5.39103 -4.57431 -3.83628 -2.69312 -1.97228 -3.0539C-0.649441 -3.31159 -0.142622 -5.04676 -0.451857 -6.18062C-0.89853 -7.82128 -2.82267 -9.04106 -4.46334 -9.04106C-4.81552 -9.04106 -5.15912 -8.97232 -5.49413 -8.86065C-5.09041 -10.9909 -3.7332 -12.9752 -3.52704 -15.1484C-3.34666 -17.0468 -3.77616 -20.6202 -6.37888 -20.0876C-7.33236 -19.8986 -8.84417 -18.5414 -9.37674 -17.7597C-7.90787 -19.4863 -5.88925 -20.1134 -4.61795 -18.739C-3.25216 -17.2615 -3.79332 -14.6588 -4.35166 -12.9752C-4.81552 -11.575 -5.47695 -10.1921 -5.76041 -8.75758C-6.77402 -8.34526 -7.7017 -7.5292 -8.39748 -6.79906C-10.4934 -4.61724 -11.7475 -0.992322 -10.691 1.94541C-11.026 2.23747 -11.3352 2.52091 -11.6015 2.7786C-14.8571 5.98262 -14.0238 11.2826 -12.2973 15.0106C-12.1427 15.337 -11.9795 15.6634 -11.8163 15.9726C-13.414 17.7937 -14.9086 19.6577 -16.1541 21.6506C-18.8685 25.9884 -19.6674 30.1888 -18.2673 35.1452C-17.812 35.5317 -16.9788 36.2877 -16.5664 36.7172C-16.8757 34.8016 -17.4512 32.5167 -17.4512 30.5668C-17.434 25.37 -15.5614 21.1695 -12.3231 17.1666C-12.0997 16.8832 -11.8592 16.6083 -11.6101 16.342C-9.46264 20.1216 -6.01809 22.8359 -1.6029 23.5059C1.78151 24.0213 5.32053 22.9304 7.0385 19.8123C8.36134 17.4157 8.17235 14.289 6.51451 12.1072L6.52311 12.1158ZM-5.5199 -8.14768C-3.57 -8.70602 -0.503402 -7.05679 -0.752508 -4.78906C-0.872766 -3.6552 -2.16983 -3.36315 -3.08035 -3.61226C-4.66948 -4.05034 -5.57142 -6.05179 -5.61437 -7.54643C-5.61437 -7.744 -5.61438 -7.93297 -5.5972 -8.13053C-5.57143 -8.13053 -5.54567 -8.14769 -5.5199 -8.15628V-8.14768ZM-6.45619 0.974753C-4.50629 1.11219 -3.90499 3.84373 -5.75181 4.64259C-7.46979 5.38991 -9.37672 3.63757 -10.1928 2.11717C-9.0589 1.34408 -7.73608 0.880264 -6.45619 0.974753ZM-1.45688 22.0199C-5.88066 21.5389 -9.17058 19.4172 -11.2837 16.007C-7.82197 12.4079 -2.81407 10.1573 2.39139 11.2912C5.84451 12.0471 8.12941 14.3835 7.4594 17.7937C6.65195 21.8653 2.27112 22.4236 -1.45688 22.0199Z" fill="#F0DEAB"/>
</g>
<defs>
<clipPath id="clip0_892_905">
<rect width="128" height="190" fill="white"/>
</clipPath>
</defs>
</svg>
