<svg width="135" height="174" viewBox="0 0 135 174" fill="none" xmlns="http://www.w3.org/2000/svg">
<g clip-path="url(#clip0_893_9185)">
<path d="M86.579 70.7477C87.4279 72.8184 86.4441 75.1986 84.3654 76.0475C82.2947 76.8964 79.9146 75.9047 79.0656 73.834C78.2167 71.7553 79.2005 69.3831 81.2792 68.5342C83.3579 67.6773 85.7301 68.669 86.579 70.7477Z" fill="#F0DEAB"/>
<path d="M89.6255 57.054C99.9395 33.189 119.98 51.7066 97.4959 65.8923C122.964 56.0464 118.457 87.2185 95.8694 78.1184C119.258 87.9246 102.177 103.943 91.1329 87.6231C105.136 109.671 71.3459 112.147 79.3511 83.2357C70.8064 111.861 49.869 88.6545 69.7195 77.4598C40.0152 91.59 47.2349 58.8788 72.1631 68.1059C45.5133 56.578 62.4283 32.2211 77.5184 57.6887C66.9585 34.9106 96.7421 30.8167 89.6334 57.054H89.6255ZM95.3299 66.7095C110.603 55.3879 96.7659 41.9559 87.7452 63.0123C86.9994 64.7498 86.563 65.9399 86.1505 66.6301C86.3171 66.7333 86.4837 66.8285 86.6423 66.9475C87.0152 65.567 88.4275 63.5121 89.8 60.8781C91.72 57.1888 95.8456 56.1892 97.0357 57.2841C98.2337 58.371 97.6069 62.5363 94.1319 64.8292C91.482 66.5746 89.5699 68.1852 88.245 68.5977C88.5068 68.9865 88.9987 70.0813 89.0463 70.2004C90.6489 69.5498 92.8784 68.3042 95.3141 66.7095H95.3299ZM78.0897 74.326C79.129 76.8331 82.001 78.0311 84.5081 76.9997C87.0152 75.9683 88.2133 73.0883 87.1819 70.5812C86.1505 68.0741 83.2705 66.8761 80.7634 67.9075C78.2563 68.9389 77.0583 71.8189 78.0897 74.326ZM95.7504 67.2173C93.1481 69.0817 90.5379 70.2876 89.2526 70.843C89.3002 71.0493 89.3478 71.2635 89.3795 71.4698C90.5775 70.7161 93.0846 70.2639 96.0122 69.3435C99.9791 68.0979 103.597 70.3035 103.676 71.922C103.756 73.5405 100.368 76.0397 96.2899 75.2066C93.0767 74.5481 90.5299 74.3339 89.3478 73.6437C89.2526 74.1832 89.086 74.7068 88.8718 75.1987C88.9432 75.2304 89.0146 75.2622 89.0939 75.2939C114.419 83.2278 116.228 62.1713 95.7583 67.2173H95.7504ZM88.6496 75.8016C88.6496 75.8016 88.602 75.7858 88.5782 75.7699C88.4354 76.0238 88.2847 76.2697 88.1101 76.4998C89.4906 76.7537 91.6169 78.2532 94.4175 79.7051C98.1068 81.6251 99.1064 85.7507 98.0116 86.9487C96.9246 88.1467 92.7593 87.5199 90.4665 84.0449C88.6337 81.2601 86.9438 79.2846 86.6423 77.9597C86.3567 78.1739 86.0394 78.3484 85.722 78.5151C86.5154 79.9669 88.729 83.8942 90.1412 85.4096C101.399 97.6594 110.499 84.3147 88.6496 75.7858V75.8016ZM89.7445 85.9728C88.3164 84.1481 85.9997 80.3795 84.9524 78.8641C84.5637 79.007 84.167 79.118 83.7624 79.1815C84.5637 80.3319 85.008 82.9024 85.96 85.9252C87.2057 89.8922 85.0001 93.51 83.3815 93.5894C81.763 93.6687 79.6288 89.1305 80.0969 86.203C80.6206 82.9263 80.9696 80.3716 81.6837 79.2132C81.4615 79.1815 81.2394 79.1339 81.0252 79.0783C73.0279 104.363 97.2737 106.831 89.7445 85.9808V85.9728ZM72.6867 76.3015C53.3519 92.55 73.0517 102.118 80.3905 78.872C79.8272 78.6737 79.2877 78.4119 78.7878 78.0708C78.5022 79.4512 77.0265 81.5617 75.5905 84.3226C73.6626 88.0119 69.5449 89.0115 68.3469 87.9166C67.1489 86.8218 67.7757 82.6644 71.2507 80.3715C73.9561 78.5864 75.892 76.9521 77.2169 76.5792C76.8678 76.119 76.2173 74.7385 76.1617 74.5798C74.9955 75.2225 73.8292 75.8016 72.6788 76.3015H72.6867ZM72.3059 75.7699C74.0037 74.8179 75.1383 74.2308 75.9793 73.842C75.9793 73.8182 75.9713 73.8023 75.9634 73.7785C74.7416 74.5084 72.2662 74.9527 69.3942 75.8572C65.4273 77.1028 61.8094 74.8972 61.7301 73.2787C61.6587 71.6602 65.0385 69.1611 69.1165 69.9941C72.1948 70.6288 74.6622 70.843 75.9079 71.4698C75.9713 71.0493 76.0824 70.6368 76.2173 70.2401C54.2564 62.6077 46.5288 83.442 72.3059 75.7699ZM69.9416 51.5717C67.982 51.056 66.0144 51.6352 64.0864 53.3092C62.1426 54.9991 61.5238 56.8794 62.2379 58.8946C64.015 63.9564 73.5674 68.4391 76.725 69.0976C76.8123 68.9389 76.8996 68.7802 77.0027 68.6295C75.6222 68.2407 73.5912 66.8443 70.9889 65.4876C67.2996 63.5677 66.3079 59.4421 67.3949 58.244C68.4818 57.046 72.647 57.6728 74.9399 61.1479C76.6378 63.7184 78.2008 65.5988 78.6768 66.9158C79.0973 66.6143 79.5495 66.3524 80.0493 66.1462C80.2794 66.051 80.5174 65.9716 80.7554 65.9002C80.0255 64.2976 78.7561 61.37 78.5578 60.8067C76.5981 57.0381 73.5753 52.5317 69.9496 51.5638L69.9416 51.5717ZM79.0258 60.3228C80.2635 62.6791 81.0966 64.9402 81.3822 65.7574C81.406 65.7574 81.4377 65.7415 81.4615 65.7415C80.7713 64.488 80.3191 62.0761 79.4384 59.2834C78.1928 55.3165 80.3984 51.6986 82.0169 51.6193C83.6354 51.5479 86.1346 54.9356 85.3015 59.0057C84.6747 62.0364 84.4606 64.488 83.8576 65.7495C84.3733 65.8447 84.8731 66.0034 85.3571 66.2097C94.9332 40.4009 71.9727 36.4577 79.0258 60.3228Z" fill="#F0DEAB"/>
<path d="M60.7067 18.0353C62.3093 18.2812 63.8088 19.503 64.6736 21.1612C64.9196 18.8049 66.0859 16.623 67.7282 15.909C68.6564 15.5044 70.4653 15.2823 72.3615 18.075C73.6627 16.2343 75.5827 16.1074 76.8997 16.8135C78.0898 17.4561 78.9784 18.9159 78.4547 20.7566C79.9701 19.9156 81.6917 19.6935 83.0405 20.0822C85.024 20.6534 86.1347 22.3989 86.0553 24.8029C87.182 24.5966 88.142 24.8822 88.7846 25.62C89.6097 26.5721 89.7446 28.1271 89.1178 29.5711C88.0943 31.9275 85.4365 33.784 82.866 35.577C81.2871 36.6798 79.9145 37.854 78.7562 38.8219C73.4326 43.2966 73.988 48.3981 73.988 48.5647L73.2343 48.8424C70.8065 47.8903 56.0654 36.2514 53.0823 28.9998C52.6618 27.9764 52.3682 26.9371 52.2334 25.9057C52.0906 24.8108 52.5587 23.7477 53.479 23.0733C54.3358 22.4465 55.4228 22.2402 56.4542 22.4862C56.2082 21.6769 56.1844 20.7486 56.6367 20.0743C57.6839 18.5192 59.1279 17.8052 60.7146 18.0511L60.7067 18.0353ZM71.346 21.7801C69.6799 15.79 64.7212 21.0739 65.4988 23.9539C66.1731 26.4531 68.0931 32.2686 69.8624 37.4256C69.2435 33.9982 68.7754 30.5311 68.2518 27.191C68.3153 27.429 68.3629 27.6511 68.4184 27.8574C69.1483 30.8564 69.7592 33.9744 70.4891 37.0607C70.1242 32.7526 70.2511 28.3651 70.5367 24.1999C70.6082 28.6349 70.7668 33.3555 71.5443 37.8937C71.6554 34.4504 72.1394 30.9912 72.6234 27.8018C72.3853 32.4035 71.8379 37.6795 72.6472 42.4477C72.671 42.3366 72.6868 42.2256 72.7186 42.1145C72.663 41.3846 72.6234 40.6943 72.6234 40.1628C72.6234 34.9423 73.7023 27.5718 75.7334 23.5731C76.2015 22.6449 75.6938 17.3133 71.3619 21.7801H71.346ZM78.2881 38.3777C79.4702 37.3304 80.8904 36.172 82.4931 35.0454C84.9922 33.3 88.4593 26.2865 82.5327 27.8653C85.0319 22.264 77.6693 21.1295 76.2808 23.8587C74.3212 27.7146 73.2819 34.8153 73.2422 39.9485C73.3453 39.5757 73.4485 39.2107 73.5595 38.8537C74.3053 36.3546 75.2098 33.903 76.2332 31.499C76.3364 31.2451 76.4554 30.9516 76.6061 30.6184C75.8207 33.1255 75.1542 35.6722 74.6544 38.2507C75.9556 35.3311 77.6931 32.5621 79.3433 30.182C77.7169 33.1572 75.6462 36.7909 74.4878 40.4643C76.2491 37.4891 79.0101 34.9582 81.6838 33.0937C81.7869 33.0144 81.9139 32.9271 82.0567 32.8319C78.9863 35.4739 75.0352 39.4329 74.0673 43.6854C74.5354 42.297 75.6462 40.7102 78.2802 38.3697L78.2881 38.3777ZM60.2228 26.0088C57.2396 24.6839 48.322 27.6828 68.7596 44.5184C66.0779 41.6861 63.8009 38.4967 61.7381 35.1803C61.6112 34.982 61.4684 34.7598 61.3176 34.5059C63.7374 37.6636 66.3794 41.0593 69.4022 43.8758C66.0462 39.0996 63.4201 33.8474 60.8654 28.6032C63.3249 32.7367 65.7368 37.2193 68.5771 41.2815C66.911 37.5922 65.6178 33.6729 64.3563 29.9995C66.3477 34.3711 68.4105 39.1472 71.1397 43.2887C70.9731 42.6461 70.8144 42.0034 70.6637 41.3449C68.5692 35.3945 65.6812 27.0323 64.8958 24.1206C64.753 23.5969 60.6353 19.2095 60.2307 26.0088H60.2228Z" fill="#F0DEAB"/>
<path d="M20.0935 134.949C23.1639 134.623 26.4486 135.083 30.2568 135.615C38.1589 136.726 47.9889 138.106 61.3971 132.989C81.2952 125.396 83.0645 104.776 83.0803 104.57L83.1279 103.872L82.4773 103.61C80.8033 102.943 79.5101 101.507 78.6136 99.3335C77.7012 97.112 77.5187 94.8508 77.479 94.2003V94.0258L75.567 94.0892V94.2796C76.4635 116.463 49.6233 123.675 41.023 125.412C42.9033 122.27 43.1652 117.478 43.4587 112.107C43.6729 108.14 43.8951 104.038 44.8075 100.27C47.1321 90.6777 61.9922 83.8069 62.1429 83.7435L61.3654 82.006C54.8438 84.8859 49.6233 78.7214 49.5678 78.6579L49.0838 78.0708L48.4094 78.4199C47.3701 78.9515 42.4114 82.1726 37.183 88.1706C33.9302 91.8995 33.1288 99.278 32.2799 107.085C31.7722 111.774 31.2406 116.621 30.1537 120.62C27.472 130.506 20.03 132.981 19.7127 133.084L16.0631 134.695L20.1015 134.933L20.0935 134.949ZM81.0969 105.086C80.6208 108.537 77.5108 124.809 60.7148 131.22C47.7668 136.162 38.2065 134.814 30.5186 133.735C28.1702 133.401 26.0122 133.1 23.9494 132.989C26.6945 131.077 30.2568 127.491 31.9784 121.136C33.105 116.994 33.6366 112.067 34.1602 107.307C34.9774 99.8016 35.747 92.7166 38.6032 89.44C42.8875 84.5289 47.0051 81.5379 48.6633 80.4906C49.8296 81.6569 52.7492 84.1481 56.5733 84.6241C51.694 87.6072 44.617 92.9864 42.9589 99.8413C42.0068 103.776 41.7767 107.966 41.5625 112.02C41.2293 118.105 40.9199 123.849 37.9685 126.078L35.0885 128.252L38.6667 127.784C39.0713 127.729 48.703 126.428 58.3664 121.699C68.9343 116.526 75.2813 109.267 77.0189 100.46C77.9868 102.642 79.3594 104.189 81.0969 105.086Z" fill="#F0DEAB"/>
<path d="M45.9657 81.4902C45.9895 81.5537 46.037 81.6093 46.1005 81.641L54.8278 86.7424C54.9785 86.8297 55.1689 86.7821 55.2641 86.6314C55.3514 86.4806 55.3038 86.2823 55.153 86.195L46.4258 81.0936C46.2751 81.0063 46.0767 81.0538 45.9895 81.2046C45.9339 81.2919 45.9339 81.395 45.9736 81.4823L45.9657 81.4902Z" fill="#F0DEAB"/>
<path d="M44.3949 82.934C44.4187 82.9975 44.4663 83.053 44.5298 83.0927L53.138 87.9006C53.2888 87.9878 53.4871 87.9323 53.5664 87.7816C53.6537 87.6308 53.5982 87.4325 53.4474 87.3452L44.8392 82.5373C44.6885 82.4501 44.4901 82.5056 44.4108 82.6563C44.3632 82.7436 44.3552 82.8468 44.3949 82.934Z" fill="#F0DEAB"/>
<path d="M42.483 84.4098C42.5147 84.4733 42.5623 84.5368 42.6258 84.5685L51.5672 89.3526C51.718 89.4319 51.9163 89.3764 51.9957 89.2257C52.075 89.0749 52.0195 88.8766 51.8687 88.7972L42.9273 84.0131C42.7686 83.9338 42.5782 83.9893 42.4988 84.1401C42.4512 84.2273 42.4512 84.3305 42.483 84.4098Z" fill="#F0DEAB"/>
<path d="M40.1106 86.9803C40.1424 87.0517 40.1979 87.1152 40.2772 87.1469L49.3298 91.09C49.4884 91.1614 49.6789 91.09 49.7503 90.9234C49.8217 90.7647 49.7503 90.5743 49.5837 90.5029L40.5311 86.5598C40.3725 86.4884 40.1821 86.5598 40.1186 86.7264C40.0789 86.8058 40.0868 86.893 40.1186 86.9724L40.1106 86.9803Z" fill="#F0DEAB"/>
<path d="M37.0005 90.5427C37.0401 90.6379 37.1195 90.7093 37.2226 90.7331L48.0047 93.0498C48.1792 93.0894 48.3458 92.9784 48.3855 92.8038C48.4252 92.6293 48.3141 92.4626 48.1396 92.4309L37.3575 90.1142C37.1829 90.0746 37.0163 90.1856 36.9766 90.3602C36.9608 90.4237 36.9767 90.4871 36.9925 90.5506L37.0005 90.5427Z" fill="#F0DEAB"/>
<path d="M35.4057 94.1763C35.4533 94.2873 35.5564 94.3667 35.6834 94.3746L46.6004 94.803C46.7749 94.803 46.9257 94.6761 46.9336 94.5015C46.9336 94.327 46.8066 94.1763 46.6321 94.1763L35.7072 93.7478C35.5327 93.7478 35.3819 93.8747 35.3819 94.0493C35.3819 94.0969 35.3819 94.1445 35.4057 94.1842V94.1763Z" fill="#F0DEAB"/>
<path d="M34.2077 98.2067C34.2553 98.3336 34.3823 98.4129 34.5251 98.405L45.1167 97.4847C45.2913 97.4688 45.4182 97.3181 45.4103 97.1435C45.3944 96.969 45.2437 96.842 45.0691 96.85L34.4775 97.7703C34.3029 97.7861 34.176 97.9369 34.1839 98.1114C34.1839 98.1432 34.1998 98.1749 34.2077 98.2067Z" fill="#F0DEAB"/>
<path d="M34.0812 101.801C34.1368 101.935 34.2796 102.023 34.4303 101.991L43.9985 100.23C44.1731 100.198 44.2841 100.031 44.2524 99.8648C44.2207 99.6902 44.0541 99.5791 43.8875 99.6109L34.3192 101.372C34.1447 101.404 34.0336 101.571 34.0654 101.745C34.0654 101.769 34.0733 101.785 34.0812 101.809V101.801Z" fill="#F0DEAB"/>
<path d="M33.47 105.601C33.5335 105.744 33.6921 105.831 33.8429 105.784L43.5143 103.181C43.6809 103.134 43.784 102.959 43.7364 102.792C43.6888 102.618 43.5143 102.523 43.3477 102.57L33.6684 105.173C33.5017 105.22 33.3986 105.395 33.4462 105.561C33.4462 105.577 33.4541 105.585 33.4621 105.601H33.47Z" fill="#F0DEAB"/>
<path d="M33.3273 108.862C33.3908 109.013 33.5573 109.092 33.7081 109.044L42.9669 106.267C43.1335 106.22 43.2287 106.037 43.1811 105.871C43.1256 105.704 42.951 105.609 42.7844 105.657L33.5256 108.433C33.359 108.481 33.2638 108.663 33.3114 108.83C33.3114 108.838 33.3193 108.854 33.3273 108.862Z" fill="#F0DEAB"/>
<path d="M32.526 111.932C32.5816 112.075 32.7402 112.162 32.8989 112.123L42.8083 109.536C42.9749 109.489 43.0781 109.322 43.0384 109.147C42.9987 108.973 42.8242 108.878 42.6496 108.917L32.7403 111.504C32.5737 111.551 32.4705 111.718 32.5102 111.893C32.5102 111.908 32.5181 111.924 32.526 111.932Z" fill="#F0DEAB"/>
<path d="M32.3591 114.86C32.4225 115.003 32.5733 115.09 32.732 115.05L42.4509 112.543C42.6255 112.503 42.7207 112.329 42.681 112.154C42.6334 111.988 42.4668 111.885 42.2923 111.924L32.5812 114.431C32.4146 114.471 32.3115 114.646 32.3512 114.82C32.3512 114.836 32.3591 114.852 32.367 114.86H32.3591Z" fill="#F0DEAB"/>
<path d="M31.7566 117.851C31.8201 118.002 31.9867 118.081 32.1374 118.033L42.3165 114.995C42.4831 114.947 42.5783 114.765 42.5307 114.598C42.4831 114.431 42.3086 114.336 42.134 114.384L31.9549 117.423C31.7883 117.47 31.6931 117.645 31.7407 117.819C31.7407 117.827 31.7407 117.843 31.7486 117.851H31.7566Z" fill="#F0DEAB"/>
<path d="M30.9787 120.683C31.0421 120.826 31.2008 120.913 31.3516 120.874L42.086 118.065C42.2526 118.017 42.3558 117.851 42.3082 117.676C42.2685 117.502 42.094 117.407 41.9194 117.446L31.1849 120.255C31.0104 120.302 30.9152 120.469 30.9549 120.644C30.9549 120.659 30.9548 120.675 30.9707 120.683H30.9787Z" fill="#F0DEAB"/>
<path d="M29.9715 124.071C30.027 124.214 30.1777 124.293 30.3364 124.262L41.658 121.778C41.8326 121.739 41.9357 121.572 41.904 121.397C41.8722 121.231 41.6977 121.12 41.5231 121.159L30.2015 123.643C30.027 123.682 29.9239 123.849 29.9556 124.024C29.9556 124.039 29.9635 124.055 29.9715 124.079V124.071Z" fill="#F0DEAB"/>
<path d="M28.313 127.26C28.3685 127.403 28.5272 127.483 28.6779 127.451L40.4517 124.674C40.6263 124.634 40.7294 124.46 40.6898 124.293C40.6501 124.127 40.4756 124.016 40.3089 124.055L28.5351 126.832C28.3606 126.872 28.2574 127.046 28.2971 127.213C28.2971 127.229 28.305 127.245 28.313 127.26Z" fill="#F0DEAB"/>
<path d="M21.6169 133.79C21.6804 133.949 21.8708 134.028 22.0295 133.965L39.4364 126.808C39.595 126.745 39.6744 126.554 39.6109 126.396C39.5474 126.237 39.357 126.158 39.1984 126.221L21.7915 133.377C21.6328 133.441 21.5535 133.631 21.6169 133.79Z" fill="#F0DEAB"/>
<path d="M29.0828 134.147C29.0828 134.147 29.0987 134.187 29.1146 134.203C29.2098 134.346 29.4081 134.385 29.5509 134.29L40.3251 127.118C40.4679 127.023 40.5155 126.824 40.4124 126.681C40.3172 126.539 40.1188 126.499 39.976 126.594L29.2098 133.766C29.0829 133.854 29.0352 134.012 29.0908 134.147H29.0828Z" fill="#F0DEAB"/>
<path d="M33.4861 134.853C33.4861 134.853 33.5178 134.917 33.5495 134.948C33.6685 135.075 33.8669 135.083 33.9938 134.964L43.0622 126.435C43.1892 126.316 43.1971 126.118 43.0781 125.991C42.9591 125.864 42.7607 125.856 42.6259 125.975L33.5575 134.504C33.4623 134.599 33.4305 134.734 33.4781 134.853H33.4861Z" fill="#F0DEAB"/>
<path d="M37.8733 135.226C37.8971 135.274 37.9289 135.321 37.9765 135.361C38.1193 135.464 38.3176 135.44 38.4208 135.297L45.5216 125.864C45.6247 125.721 45.6009 125.523 45.4581 125.42C45.3232 125.317 45.1169 125.34 45.0138 125.483L37.913 134.917C37.8416 135.012 37.8337 135.131 37.8733 135.226Z" fill="#F0DEAB"/>
<path d="M42.8794 135.448C42.9111 135.52 42.9666 135.583 43.0381 135.615C43.1967 135.686 43.3871 135.615 43.4585 135.456L48.1554 125.182C48.2268 125.023 48.1554 124.833 47.9967 124.761C47.838 124.69 47.6476 124.761 47.5762 124.92L42.8794 135.194C42.8397 135.274 42.8397 135.369 42.8794 135.448Z" fill="#F0DEAB"/>
<path d="M46.1325 135.028C46.1642 135.107 46.2277 135.17 46.307 135.202C46.4657 135.266 46.6561 135.186 46.7196 135.028L51.0753 124.206C51.1387 124.047 51.0594 123.857 50.9007 123.793C50.742 123.73 50.5516 123.809 50.4882 123.968L46.1325 134.79C46.1007 134.869 46.1007 134.956 46.1325 135.028Z" fill="#F0DEAB"/>
<path d="M50.0994 134.655C50.1312 134.742 50.2026 134.805 50.2978 134.837C50.4644 134.885 50.6389 134.798 50.6945 134.623L54.2568 122.984C54.3044 122.817 54.2092 122.643 54.0426 122.587C53.876 122.54 53.6935 122.627 53.6459 122.802L50.0836 134.441C50.0598 134.512 50.0677 134.591 50.0915 134.655H50.0994Z" fill="#F0DEAB"/>
<path d="M54.0348 133.957C54.0744 134.052 54.1538 134.123 54.2648 134.147C54.4394 134.179 54.606 134.068 54.6377 133.901L57.0576 121.707C57.0893 121.532 56.9782 121.366 56.8116 121.334C56.6371 121.302 56.4705 121.413 56.4387 121.58L54.0189 133.774C54.003 133.838 54.0189 133.901 54.0348 133.957Z" fill="#F0DEAB"/>
<path d="M58.1921 132.933C58.2318 133.036 58.3349 133.124 58.4619 133.132C58.6364 133.147 58.7872 133.013 58.803 132.838L59.7868 120.207C59.8027 120.033 59.6678 119.882 59.4933 119.866C59.3187 119.85 59.168 119.985 59.1521 120.16L58.1683 132.79C58.1683 132.838 58.1683 132.894 58.1921 132.933Z" fill="#F0DEAB"/>
<path d="M62.0875 131.561C62.1351 131.68 62.262 131.759 62.3969 131.759C62.5715 131.759 62.7063 131.6 62.6984 131.426L62.1113 118.867C62.1034 118.692 61.9526 118.557 61.7781 118.565C61.6035 118.565 61.4686 118.724 61.4766 118.898L62.0637 131.458C62.0637 131.458 62.0716 131.529 62.0875 131.561Z" fill="#F0DEAB"/>
<path d="M65.0548 129.887C65.1024 130.013 65.2372 130.093 65.38 130.085C65.5546 130.069 65.6815 129.918 65.6657 129.736L64.5311 117.518C64.5153 117.343 64.3566 117.216 64.182 117.232C64.0075 117.248 63.8806 117.407 63.8964 117.573L65.031 129.799C65.031 129.799 65.0389 129.863 65.0548 129.887Z" fill="#F0DEAB"/>
<path d="M69.1171 127.53C69.1726 127.673 69.3313 127.753 69.482 127.721C69.6566 127.681 69.7597 127.507 69.72 127.34L66.9035 115.471C66.8639 115.304 66.6893 115.193 66.5227 115.233C66.3482 115.273 66.245 115.447 66.2847 115.614L69.1091 127.483C69.1091 127.483 69.1171 127.515 69.125 127.53H69.1171Z" fill="#F0DEAB"/>
<path d="M72.0367 124.618C72.1002 124.777 72.2747 124.856 72.4334 124.793C72.6 124.737 72.6873 124.555 72.6317 124.388L68.8394 113.487C68.7918 113.321 68.6014 113.233 68.4348 113.289C68.2681 113.344 68.1809 113.527 68.2364 113.694L72.0288 124.595C72.0288 124.595 72.0288 124.603 72.0288 124.611L72.0367 124.618Z" fill="#F0DEAB"/>
<path d="M70.2987 111.496V111.504L74.8686 121.516C74.94 121.675 75.1304 121.746 75.2891 121.675C75.4478 121.604 75.5033 121.405 75.4478 121.255L70.8779 111.242C70.8065 111.083 70.6161 111.012 70.4574 111.083C70.2987 111.155 70.2273 111.337 70.2908 111.488L70.2987 111.496Z" fill="#F0DEAB"/>
<path d="M71.7589 109.758C71.7589 109.758 71.7748 109.79 71.7827 109.798L76.8524 118.232C76.9397 118.382 77.1381 118.43 77.2888 118.343C77.4395 118.255 77.4871 118.057 77.3999 117.906L72.3301 109.473C72.2429 109.322 72.0445 109.274 71.8938 109.362C71.7589 109.441 71.7034 109.608 71.7668 109.75L71.7589 109.758Z" fill="#F0DEAB"/>
<path d="M73.2744 107.878C73.2744 107.878 73.2982 107.918 73.3062 107.942L78.5425 115.391C78.6456 115.534 78.844 115.574 78.9868 115.471C79.1296 115.368 79.1693 115.169 79.0661 115.026L73.8298 107.577C73.7267 107.434 73.5283 107.402 73.3855 107.497C73.2586 107.585 73.2189 107.743 73.2744 107.878Z" fill="#F0DEAB"/>
<path d="M74.139 105.807C74.139 105.807 74.1707 105.871 74.2024 105.902L79.7799 111.956C79.8989 112.083 80.0973 112.091 80.2321 111.972C80.3591 111.853 80.367 111.655 80.248 111.52L74.6705 105.466C74.5515 105.339 74.3532 105.331 74.2183 105.45C74.1151 105.545 74.0914 105.688 74.139 105.807Z" fill="#F0DEAB"/>
<path d="M74.9643 104.213C74.9802 104.26 75.012 104.3 75.0516 104.332L80.8513 109.267C80.9861 109.378 81.1845 109.362 81.2956 109.227C81.4066 109.092 81.3908 108.894 81.2559 108.783L75.4562 103.848C75.3214 103.737 75.123 103.753 75.012 103.887C74.9326 103.983 74.9167 104.11 74.9643 104.213Z" fill="#F0DEAB"/>
<path d="M75.7019 101.277C75.7178 101.317 75.7495 101.357 75.7812 101.388L81.4222 106.498C81.5492 106.617 81.7554 106.609 81.8665 106.474C81.9855 106.347 81.9776 106.141 81.8427 106.03L76.2017 100.92C76.0748 100.801 75.8685 100.817 75.7574 100.944C75.6702 101.039 75.6543 101.166 75.694 101.277H75.7019Z" fill="#F0DEAB"/>
<path d="M48.6 117.669C61.6353 111.282 64.6025 109.037 68.625 98.2386C68.625 98.2386 61.0085 98.6274 60.6356 90.2017C48.0367 95.1524 52.3765 109.6 48.6 117.669Z" fill="#F0DEAB"/>
<path d="M68.9423 102.34C68.0775 102.697 67.6649 103.681 68.0219 104.546C68.379 105.411 69.3707 105.823 70.2275 105.466C71.0923 105.109 71.5049 104.126 71.1479 103.261C70.7908 102.396 69.8071 101.983 68.9423 102.34Z" fill="#F0DEAB"/>
<path d="M65.3007 107.95C64.4359 108.307 64.0233 109.299 64.3803 110.155C64.7374 111.02 65.7212 111.433 66.5859 111.076C67.4507 110.719 67.8633 109.735 67.5063 108.87C67.1492 108.005 66.1654 107.593 65.3007 107.95Z" fill="#F0DEAB"/>
<path d="M60.6512 112.488C59.7865 112.845 59.3739 113.829 59.7309 114.693C60.0879 115.558 61.0717 115.971 61.9365 115.614C62.8013 115.257 63.2139 114.273 62.8569 113.408C62.4998 112.543 61.516 112.131 60.6512 112.488Z" fill="#F0DEAB"/>
<path d="M55.7718 115.638C54.9071 115.995 54.4945 116.978 54.8515 117.843C55.2086 118.708 56.1924 119.12 57.0572 118.763C57.9219 118.406 58.3345 117.423 57.9775 116.558C57.6204 115.693 56.6366 115.281 55.7718 115.638Z" fill="#F0DEAB"/>
<path d="M50.5277 117.907C49.6629 118.264 49.2504 119.247 49.6074 120.112C49.9644 120.977 50.9482 121.39 51.813 121.033C52.6778 120.675 53.0903 119.692 52.7333 118.827C52.3763 117.962 51.3925 117.55 50.5277 117.907Z" fill="#F0DEAB"/>
<path d="M44.9662 119.39C44.1014 119.747 43.6888 120.731 44.0459 121.596C44.4029 122.461 45.3867 122.873 46.2515 122.516C47.1163 122.159 47.5288 121.175 47.1718 120.311C46.8148 119.446 45.831 119.033 44.9662 119.39Z" fill="#F0DEAB"/>
<path d="M45.347 113.638C44.4823 113.995 44.0697 114.979 44.4267 115.844C44.7837 116.709 45.7675 117.121 46.6323 116.764C47.4971 116.407 47.9097 115.423 47.5527 114.559C47.1956 113.694 46.2118 113.281 45.347 113.638Z" fill="#F0DEAB"/>
<path d="M46.2118 107.68C45.347 108.037 44.9344 109.021 45.2915 109.886C45.6485 110.75 46.6323 111.163 47.4971 110.806C48.3619 110.449 48.7744 109.465 48.4174 108.6C48.0604 107.736 47.0766 107.323 46.2118 107.68Z" fill="#F0DEAB"/>
<path d="M47.4017 100.563C46.5369 100.92 46.1244 101.904 46.4814 102.769C46.8384 103.634 47.8222 104.046 48.687 103.689C49.5518 103.332 49.9644 102.348 49.6073 101.484C49.2503 100.619 48.2665 100.206 47.4017 100.563Z" fill="#F0DEAB"/>
<path d="M49.663 94.9383C48.7982 95.2953 48.3856 96.2792 48.7426 97.1439C49.0997 98.0087 50.0835 98.4213 50.9482 98.0642C51.813 97.7072 52.2256 96.7234 51.8686 95.8587C51.5116 94.9939 50.5278 94.5813 49.663 94.9383Z" fill="#F0DEAB"/>
<path d="M52.8998 90.297C52.035 90.654 51.6224 91.6378 51.9795 92.5026C52.3365 93.3674 53.3203 93.7799 54.1851 93.4229C55.0498 93.0659 55.4624 92.0821 55.1054 91.2173C54.7484 90.3525 53.7646 89.9399 52.8998 90.297Z" fill="#F0DEAB"/>
<path d="M57.954 86.7345C57.0892 87.0915 56.6766 88.0753 57.0337 88.94C57.3907 89.8048 58.3745 90.2174 59.2393 89.8604C60.1041 89.5034 60.5166 88.5196 60.1596 87.6548C59.8026 86.79 58.8108 86.3774 57.954 86.7345Z" fill="#F0DEAB"/>
<path d="M71.4413 96.7393C70.5765 97.0964 70.164 98.0802 70.521 98.945C70.878 99.8098 71.8697 100.222 72.7266 99.8653C73.5914 99.5082 74.0039 98.5245 73.6469 97.6597C73.2899 96.7949 72.3061 96.3823 71.4413 96.7393Z" fill="#F0DEAB"/>
<path d="M49.6948 76.6426C42.0069 79.348 35.993 83.6403 32.1134 88.6624C28.2972 93.6052 25.8695 107.688 17.9515 105.109C9.73997 102.436 17.3009 88.226 27.0278 82.4026C36.7468 76.5791 45.0932 76.5792 49.6869 76.6347L49.6948 76.6426Z" fill="#F0DEAB"/>
<path d="M49.1313 77.7852C40.3724 79.959 35.017 86.7583 31.6689 94.7557C29.8997 99.0003 28.5748 103.404 26.988 107.712C25.544 111.639 23.8224 115.574 20.7441 118.502C17.9196 121.191 14.032 122.58 10.1841 121.556C6.62183 120.612 3.18647 117.248 3.38482 113.329C3.56729 109.751 8.12926 105.689 11.3742 108.791C12.5643 109.933 13.0086 111.932 11.5646 113.083C9.67635 114.582 7.68495 111.679 9.47006 111.171C7.58974 111.607 9.43832 114.424 11.2472 113.551C13.4052 112.591 13.1275 109.917 11.7312 108.434C8.44658 104.951 3.25784 108.537 2.35338 112.321C1.28231 116.637 4.50346 121.048 8.2641 122.826C12.2072 124.69 17.0866 124.166 20.8234 122.024C28.8048 117.454 30.0742 105.8 32.5179 97.8578C35.2471 88.9878 39.817 80.8794 49.1313 77.7852C45.1724 79.1022 47.1082 78.285 49.1313 77.7852Z" fill="#F0DEAB"/>
<path d="M49.8452 74.9211C35.2866 76.127 21.5134 70.9542 9.9459 62.3936C19.2682 73.136 35.9372 79.2212 49.8452 74.9211C46.2353 75.2226 46.3623 76.0001 49.8452 74.9211Z" fill="#F0DEAB"/>
<path d="M50.2344 73.2232C46.1008 70.4305 42.6813 66.4398 40.7217 61.8382C38.5399 56.7208 38.2225 51.2306 38.3733 45.7483C34.9538 56.0385 39.0239 69.7244 50.2344 73.2232C47.6321 72.4139 47.997 71.7078 50.2344 73.2232Z" fill="#F0DEAB"/>
<path d="M49.7739 73.9214C43.7918 72.5885 37.9366 69.78 33.3747 65.6623C28.3922 61.1797 25.1394 55.4435 22.7275 49.2551C24.4333 62.4491 36.0166 74.215 49.7739 73.9214C46.4814 73.9928 46.5845 73.2074 49.7739 73.9214Z" fill="#F0DEAB"/>
<path d="M37.0003 40.8769C34.8978 41.7417 33.8902 44.1535 34.755 46.256C35.6198 48.3664 38.0317 49.3661 40.1342 48.5013C42.2446 47.6365 43.2443 45.2246 42.3795 43.1221C41.5147 41.0117 39.1028 40.0121 37.0003 40.8769Z" fill="#F0DEAB"/>
<path d="M20.9741 44.0346C18.8716 44.8994 17.864 47.3113 18.7288 49.4138C19.5936 51.5242 22.0055 52.5238 24.1079 51.659C26.2104 50.7942 27.218 48.3824 26.3532 46.2799C25.4884 44.1695 23.0765 43.1698 20.9741 44.0346Z" fill="#F0DEAB"/>
<path d="M8.56581 58.9024C6.46335 59.7672 5.45573 62.1791 6.32052 64.2816C7.18531 66.3841 9.59722 67.3916 11.6997 66.5268C13.8022 65.6621 14.8098 63.2502 13.945 61.1477C13.0802 59.0453 10.6683 58.0376 8.56581 58.9024Z" fill="#F0DEAB"/>
<path d="M51.7974 0.985618C51.6704 3.00875 50.3931 4.56381 49.4093 6.22198C49.1157 6.71388 48.9491 7.1661 48.8777 7.59452C49.1871 7.57866 49.5045 7.57863 49.8218 7.6183C51.2658 7.80871 53.2492 8.81631 53.2175 10.5459C53.1858 12.3945 50.8929 11.9978 49.9884 11.1648C49.3855 10.6094 48.7904 9.81598 48.4413 8.95912C46.3547 9.41135 44.76 11.2441 43.9587 13.7036C43.6493 14.6557 43.3954 15.8695 43.5303 16.9406C44.1729 16.2503 44.9584 15.7347 45.9025 15.4967C47.4972 15.1 50.0519 15.7902 50.1868 17.7419C50.3296 19.8364 47.8384 20.8599 46.085 20.5584C44.8552 20.3442 44.0301 19.7333 43.5223 18.8923C42.5068 20.4553 41.9197 22.5022 41.8325 24.0652C41.7055 26.2153 42.7052 29.4602 44.8473 30.2456C44.8314 28.9762 45.0457 27.6434 45.5534 26.247C46.0533 24.8744 47.4417 23.6526 48.8142 24.7951C50.5676 26.247 50.3613 28.7858 48.9332 30.3805C47.8146 31.6261 46.6483 31.8879 45.5693 31.5706C45.9263 34.0142 47.3623 36.2278 49.322 37.9415C51.361 39.7266 53.8522 40.9484 56.3593 41.9481C58.5332 42.8208 61.1672 43.3048 61.6591 43.3365C63.3411 43.4238 63.9758 44.2092 58.0016 44.3123C56.272 44.3441 54.5345 44.6297 52.916 45.2644C50.1392 46.3355 47.3941 48.8346 46.9022 51.8971C46.4579 54.6263 48.3541 58.8789 51.7577 57.7126C52.9874 57.2921 53.9316 56.0545 53.273 54.7612C52.6145 53.4601 51.4165 54.7295 50.9484 53.7695C52.4797 52.1986 54.4869 54.0631 54.5345 55.7847C54.5742 57.4032 53.2889 58.6171 51.837 59.0693C48.1716 60.2118 45.3947 56.5543 45.1885 53.2459C44.9504 49.3424 47.8304 45.8833 51.2182 44.2965C52.8843 43.519 54.6773 43.1778 56.4863 43.1381C50.9008 41.0674 45.5851 36.8863 44.9187 31.3088C43.0225 30.3091 41.5151 27.6195 41.2453 25.6361C40.92 23.2877 41.3961 19.8285 43.0066 17.5912C42.4116 15.0761 43.4509 11.6566 44.7442 9.91119C45.5851 8.76872 46.799 7.96742 48.1557 7.69767C48.1399 7.45172 48.1557 7.20578 48.2112 6.95983C48.6873 4.88116 50.4645 3.32612 51.0119 1.25539C51.3372 0.0256438 51.726 -2.21964 49.7663 -5.24243C52.1941 -2.1165 51.8529 0.295389 51.8132 1.0015L51.7974 0.985618ZM50.0122 10.0302C50.5279 10.4586 51.2578 10.8712 51.9322 10.5856C52.7177 10.2603 52.6939 9.76837 52.0036 9.45102C50.9564 8.96705 49.9646 8.80046 49.0602 8.87186C49.2506 9.26855 49.5521 9.6494 50.0122 10.0302ZM46.9498 30.2536C48.2668 29.8252 49.9646 28.1273 49.3696 26.604C48.3144 23.9224 46.2278 26.6675 45.8311 28.0401C45.5931 28.8414 45.4899 29.6347 45.4899 30.4043C45.9342 30.4599 46.4182 30.4202 46.9498 30.2536ZM43.9825 18.2656C44.2761 18.7099 44.7124 19.0748 45.3471 19.2811C46.2437 19.5746 47.2275 19.4159 48.0764 19.0431C48.719 18.7654 50.2582 17.7181 49.1316 17.0993C46.9656 15.9171 45.2202 16.7264 43.9825 18.2656Z" fill="#F0DEAB"/>
<path d="M98.559 118.898C98.0036 118.819 94.9808 118.803 92.3865 119.303C89.3954 119.882 86.3805 120.707 83.7385 122.246C81.1997 123.73 79.1369 125.872 78.2245 128.506C79.486 128.379 80.7316 128.919 81.6996 130.537C82.9452 132.608 82.6357 135.464 80.3746 136.702C78.6054 137.67 77.336 136.02 77.0662 134.401C76.7964 132.743 76.844 131.228 77.1376 129.823C74.5988 130.244 72.8057 133.632 72.4884 136.036C72.2583 137.781 72.4725 140.169 73.2659 142.121C74.0117 141.304 75.0589 140.796 76.4632 140.82C78.4705 140.851 81.0093 142.517 80.4063 144.81C79.843 146.945 76.8599 147.167 75.1779 146.389C74.1862 145.929 73.4245 145.191 72.8533 144.287C72.4804 145.445 72.5042 146.841 72.6391 147.96C73.0041 150.856 74.3766 153.22 76.5902 154.172C77.1535 153.3 77.9786 152.546 78.772 152.062C79.9541 151.332 82.5723 151.38 82.2232 153.434C81.89 155.354 79.4781 156.053 77.8358 155.957C77.4787 155.934 77.1297 155.87 76.7885 155.791C76.7726 156.275 76.8599 156.814 77.0821 157.417C77.8199 159.464 78.9068 161.456 78.6133 163.725C78.5101 164.518 78.3753 167.255 75.0193 170.207C77.8437 167.279 77.8834 164.7 77.7882 163.272C77.6215 160.86 75.9793 158.766 75.892 156.354C75.884 156.076 75.9237 155.799 75.9951 155.529C74.5591 154.934 73.3769 153.791 72.6867 152.347C71.6315 150.142 71.2031 146.127 72.4011 143.47C71.092 140.637 71.2983 136.71 72.1551 134.179C72.8851 132.045 75.1224 129.387 77.4311 128.681C81.3822 117.47 94.0605 117.637 97.6387 117.748C100.939 118.668 100.074 119.121 98.551 118.906L98.559 118.898ZM77.2645 154.402C78.2563 154.68 79.3829 154.704 80.6523 154.387C81.4853 154.18 81.6123 153.641 80.8189 153.109C80.1286 152.649 79.2242 152.95 78.5736 153.315C77.9865 153.641 77.566 153.998 77.2725 154.402H77.2645ZM73.6388 142.914C74.686 144.882 76.4474 146.151 79.0973 145.302C80.4778 144.858 78.9862 143.366 78.3435 142.922C77.4867 142.335 76.4235 141.946 75.3683 142.081C74.6146 142.176 74.0593 142.486 73.6388 142.922V142.914ZM77.8913 129.776C77.7247 130.633 77.6692 131.529 77.7644 132.473C77.923 134.076 79.6447 137.567 81.3822 134.822C82.366 133.267 80.8427 131.013 79.4781 130.26C78.9306 129.958 78.3991 129.815 77.8913 129.776Z" fill="#F0DEAB"/>
<path d="M115.316 31.4199C115.355 31.5151 115.442 31.5945 115.561 31.6104C115.736 31.6421 115.895 31.5231 115.926 31.3486L116.442 28.1909C116.466 28.0164 116.355 27.8577 116.18 27.8259C116.006 27.7942 115.847 27.9132 115.815 28.0878L115.308 31.2454C115.3 31.3089 115.308 31.3644 115.323 31.412L115.316 31.4199Z" fill="#F0DEAB"/>
<path d="M114.379 29.3173C114.419 29.4205 114.514 29.4998 114.633 29.5157C114.808 29.5395 114.967 29.4125 114.982 29.238L115.403 25.8106C115.427 25.636 115.3 25.4774 115.125 25.4536C114.951 25.4298 114.792 25.5567 114.776 25.7312L114.356 29.1586C114.356 29.2142 114.356 29.2697 114.379 29.3173Z" fill="#F0DEAB"/>
<path d="M113.237 27.7861C113.285 27.9051 113.404 27.9845 113.538 27.9845C113.713 27.9845 113.856 27.8337 113.848 27.6592L113.776 24.1445C113.776 23.9699 113.626 23.8271 113.451 23.835C113.277 23.835 113.134 23.9858 113.142 24.1603L113.213 27.675C113.213 27.675 113.221 27.7544 113.237 27.7861Z" fill="#F0DEAB"/>
<path d="M111.809 26.5723C111.864 26.7151 112.015 26.7945 112.166 26.7627C112.34 26.7231 112.444 26.5565 112.412 26.3899L111.737 23.2084C111.706 23.0418 111.531 22.9307 111.364 22.9624C111.19 23.0021 111.087 23.1687 111.119 23.3353L111.785 26.5168C111.785 26.5168 111.793 26.5565 111.801 26.5723H111.809Z" fill="#F0DEAB"/>
<path d="M105.224 22.6212C105.224 22.6212 105.239 22.6609 105.255 22.6767L107.405 25.9693C107.501 26.1121 107.699 26.1597 107.842 26.0645C107.992 25.9693 108.024 25.7709 107.937 25.6281L105.787 22.3435C105.692 22.1927 105.493 22.1531 105.35 22.2483C105.224 22.3356 105.176 22.4943 105.231 22.6371L105.224 22.6212Z" fill="#F0DEAB"/>
<path d="M102.859 22.8514C102.859 22.8514 102.883 22.899 102.899 22.9228L105.208 26.0805C105.311 26.2233 105.509 26.255 105.652 26.1519C105.795 26.0488 105.835 25.8504 105.724 25.7076L103.415 22.5499C103.312 22.4071 103.113 22.3754 102.971 22.4785C102.852 22.5658 102.812 22.7245 102.867 22.8593L102.859 22.8514Z" fill="#F0DEAB"/>
<path d="M100.686 23.1132C100.686 23.1132 100.702 23.1529 100.717 23.1767L103.074 26.5486C103.177 26.6914 103.367 26.7231 103.518 26.6279C103.661 26.5248 103.693 26.3344 103.597 26.1836L101.241 22.8117C101.138 22.6689 100.94 22.6372 100.797 22.7324C100.67 22.8197 100.63 22.9783 100.686 23.1132Z" fill="#F0DEAB"/>
<path d="M98.3056 23.1768C98.3056 23.1768 98.3373 23.2323 98.3532 23.2561L101.265 26.8581C101.376 26.9929 101.574 27.0167 101.709 26.9057C101.844 26.7946 101.868 26.5962 101.757 26.4614L98.8451 22.8594C98.734 22.7245 98.5356 22.7007 98.4008 22.8118C98.2897 22.8991 98.258 23.0499 98.3056 23.1768Z" fill="#F0DEAB"/>
<path d="M94.9968 23.0497C95.0127 23.0894 95.0444 23.137 95.0841 23.1688L99.2732 26.8183C99.4081 26.9294 99.6064 26.9215 99.7175 26.7866C99.8285 26.6517 99.8206 26.4534 99.6857 26.3423L95.4967 22.6927C95.3618 22.5737 95.1634 22.5896 95.0524 22.7245C94.973 22.8197 94.9572 22.9466 94.9968 23.0577V23.0497Z" fill="#F0DEAB"/>
<path d="M92.0295 22.4942C92.0533 22.5498 92.0929 22.5974 92.1405 22.6371L98.2337 26.7626C98.3765 26.8579 98.5749 26.8261 98.6701 26.6754C98.7732 26.5326 98.7336 26.3342 98.5828 26.2311L92.4896 22.1055C92.3468 22.0103 92.1484 22.042 92.0453 22.1928C91.9818 22.288 91.9739 22.399 92.0136 22.4942H92.0295Z" fill="#F0DEAB"/>
<path d="M92.8074 24.8029C92.8391 24.8743 92.8867 24.9378 92.966 24.9696L98.4166 27.5481C98.5753 27.6195 98.7657 27.5481 98.8371 27.3973C98.9085 27.2386 98.845 27.0482 98.6864 26.9768L93.2358 24.3983C93.0771 24.319 92.8867 24.3904 92.8153 24.5491C92.7756 24.6363 92.7756 24.7236 92.8153 24.8029H92.8074Z" fill="#F0DEAB"/>
<path d="M93.6877 27.3579C93.7274 27.4452 93.7988 27.5166 93.9019 27.5404L99.1621 28.9288C99.3287 28.9764 99.5033 28.8732 99.5509 28.6987C99.5985 28.5321 99.4953 28.3576 99.3287 28.31L94.0686 26.9215C93.902 26.8819 93.7274 26.9771 93.6798 27.1516C93.6639 27.223 93.6719 27.2945 93.6957 27.35L93.6877 27.3579Z" fill="#F0DEAB"/>
<path d="M94.6004 29.4444C94.6401 29.5475 94.7353 29.6268 94.8543 29.6427L99.9082 30.2536C100.083 30.2774 100.241 30.1505 100.265 29.976C100.289 29.8014 100.162 29.6427 99.9875 29.6189L94.9337 29.008C94.7591 28.9842 94.6004 29.1111 94.5766 29.2857C94.5766 29.3412 94.5766 29.3967 94.6004 29.4444Z" fill="#F0DEAB"/>
<path d="M95.4807 31.3088C95.5283 31.4278 95.6473 31.5071 95.7742 31.5071L100.661 31.4437C100.836 31.4437 100.979 31.3009 100.971 31.1184C100.971 30.9439 100.828 30.801 100.646 30.801L95.7584 30.8645C95.5838 30.8645 95.441 31.0073 95.441 31.1898C95.441 31.2294 95.4489 31.2691 95.4648 31.3088H95.4807Z" fill="#F0DEAB"/>
<path d="M96.8612 33.4271C96.9167 33.562 97.0596 33.6493 97.2182 33.6175L101.717 32.7369C101.891 32.7051 102.002 32.5385 101.963 32.364C101.931 32.1973 101.764 32.0784 101.59 32.1101L97.0913 32.9828C96.9167 33.0146 96.8057 33.1811 96.8374 33.3557C96.8374 33.3795 96.8453 33.3954 96.8533 33.4192L96.8612 33.4271Z" fill="#F0DEAB"/>
<path d="M98.0277 35.006C98.0912 35.1488 98.2499 35.236 98.4086 35.1884L102.669 34.0063C102.836 33.9587 102.939 33.7842 102.891 33.6176C102.844 33.4509 102.669 33.3478 102.502 33.3954L98.2419 34.5696C98.0753 34.6172 97.9722 34.7918 98.0198 34.9584C98.0198 34.9742 98.0198 34.9822 98.0357 34.998L98.0277 35.006Z" fill="#F0DEAB"/>
<path d="M99.6938 36.8386C99.6938 36.8386 99.7018 36.8545 99.7097 36.8703C99.789 37.0211 99.9874 37.0845 100.138 37.0052L103.891 35.0059C104.042 34.9265 104.105 34.7282 104.026 34.5774C103.946 34.4267 103.748 34.3632 103.597 34.4505L99.8446 36.4498C99.7018 36.5292 99.6383 36.7037 99.7018 36.8465L99.6938 36.8386Z" fill="#F0DEAB"/>
<path d="M100.828 37.7987C100.828 37.7987 100.828 37.8224 100.844 37.8304C100.923 37.9811 101.122 38.0446 101.273 37.9573L105.025 35.958C105.184 35.8787 105.232 35.6803 105.152 35.5296C105.073 35.3789 104.875 35.3154 104.724 35.4026L100.971 37.402C100.828 37.4813 100.765 37.6559 100.828 37.7987Z" fill="#F0DEAB"/>
<path d="M102.494 38.7744C102.494 38.7744 102.51 38.8061 102.518 38.822C102.613 38.9727 102.812 39.0124 102.955 38.9172L106.39 36.7037C106.541 36.6085 106.58 36.4101 106.485 36.2673C106.39 36.1166 106.192 36.0769 106.049 36.1721L102.613 38.3856C102.479 38.465 102.431 38.6316 102.494 38.7744Z" fill="#F0DEAB"/>
<path d="M104.66 39.5997C104.66 39.5997 104.692 39.6632 104.716 39.695C104.835 39.8219 105.033 39.8298 105.168 39.7108L107.865 37.2275C107.992 37.1085 108 36.9022 107.881 36.7832C107.762 36.6563 107.564 36.6484 107.429 36.7674L104.732 39.2507C104.628 39.3459 104.605 39.4887 104.652 39.5997H104.66Z" fill="#F0DEAB"/>
<path d="M106.906 39.9329C106.93 39.9805 106.961 40.0281 107.009 40.0677C107.152 40.1709 107.35 40.1471 107.453 40.0043L109.341 37.5131C109.452 37.3703 109.421 37.1719 109.278 37.0688C109.135 36.9656 108.937 36.9894 108.834 37.1322L106.945 39.6235C106.874 39.7187 106.866 39.8377 106.906 39.9329Z" fill="#F0DEAB"/>
<path d="M109.595 39.5123C109.619 39.5679 109.651 39.6155 109.706 39.6551C109.849 39.7583 110.047 39.7186 110.15 39.5758L111.666 37.4099C111.769 37.2671 111.729 37.0688 111.586 36.9656C111.444 36.8625 111.245 36.9021 111.142 37.0449L109.635 39.2109C109.571 39.3061 109.563 39.4171 109.603 39.5123H109.595Z" fill="#F0DEAB"/>
<path d="M110.381 25.9932C110.436 26.136 110.595 26.2153 110.746 26.1757C110.912 26.136 111.023 25.9615 110.984 25.7949L110.278 22.8276C110.238 22.661 110.063 22.5499 109.897 22.5896C109.722 22.6293 109.619 22.8038 109.659 22.9704L110.365 25.9377C110.365 25.9377 110.373 25.9694 110.381 25.9853V25.9932Z" fill="#F0DEAB"/>
<path d="M107.453 22.6213L108.715 25.6996C108.778 25.8662 108.969 25.9376 109.127 25.8741C109.286 25.8106 109.365 25.6203 109.302 25.4616L108.032 22.3832C107.969 22.2246 107.779 22.1452 107.62 22.2087C107.461 22.2721 107.382 22.4626 107.445 22.6213H107.453Z" fill="#F0DEAB"/>
<path d="M129.835 114.749C129.954 116.296 129.708 117.875 129.121 119.311C127.605 123 123.686 126.055 119.552 125.182C116.022 124.46 112.777 120.43 114.871 116.899C115.522 115.804 116.736 114.86 118.053 114.797C119.671 114.725 121.615 116.241 121.036 118.018C120.75 118.898 119.711 119.66 118.807 119.129C118.22 118.779 118.458 118.026 118.68 118.375C119.219 119.24 120.243 118.375 120.282 117.653C120.322 116.828 119.521 116.185 118.783 116.042C117.355 115.765 116.093 117.177 115.839 118.462C115.578 119.819 116.323 121.16 117.299 122.056C120.251 124.754 124.289 123.143 126.502 120.342C128.391 117.946 128.383 112.21 128.137 109.941C128.764 110.909 130.485 113.376 131.39 114.21C132.834 115.542 134.619 116.487 136.523 116.963C140.783 117.962 146.258 116.407 146.702 111.361C146.9 109.052 145.718 106.664 143.187 106.482C141.585 106.363 139.546 107.743 140.506 109.521C141.251 110.901 143.156 109.981 143.187 109.108C144.036 111.226 140.847 112.21 139.76 110.504C138.633 108.727 139.054 106.355 140.688 105.324C142.1 104.411 144.036 104.427 145.536 105.094C149.392 106.799 149.86 111.964 147.956 115.289C143.949 122.27 134.087 120.446 129.851 114.757L129.835 114.749Z" fill="#F0DEAB"/>
<path d="M105.525 82.7122C105.55 82.7618 105.55 82.7618 105.525 82.7122Z" fill="#F0DEAB"/>
<path d="M92.3869 22.0182C96.0285 22.9941 99.1544 22.407 102.272 22.1134C105.597 21.804 109.199 20.9471 112.563 22.1134C115.403 23.1052 119.782 29.7934 117.045 35.1091C124.868 39.1553 129.232 44.7725 131.485 48.6918C131.215 46.7242 131.16 44.7645 130.993 42.8366C129.962 31.0707 136.126 27.4291 135.531 23.359C135.166 20.8599 134.016 18.0196 131.144 18.0196C129.009 18.0196 125.749 19.7888 125.701 22.2324C125.677 23.3829 126.598 24.9617 127.827 25.1362C128.962 25.3028 130.366 23.8271 129.113 22.9385C130.866 23.7716 129.002 25.8027 127.653 25.6836C126.201 25.5488 125.003 23.9779 124.781 22.6291C124.241 19.3287 128.327 16.7501 131.191 16.7581C134.524 16.7581 136.372 19.8443 136.57 22.8909C136.689 24.6998 136.174 26.7388 135.071 28.5081C137.657 25.4377 141.973 23.7557 146.646 25.7947C150.375 27.4291 153.017 31.6578 152.835 35.7358C152.644 39.8852 148.789 44.5662 144.235 43.0984C141.735 42.2971 140.545 39.6869 140.72 37.2036C141.386 36.5054 141.95 38.2429 142.18 38.592C142.751 39.4568 143.497 40.2581 144.528 40.5358C146.646 41.115 148.781 39.3299 149.614 37.513C150.597 35.4899 150.312 33.1336 149.495 31.1104C147.733 26.7547 142.322 24.2873 138.086 26.9372C134.016 29.484 132.865 35.601 133.087 39.9805C133.349 45.3279 134.785 50.5483 135.055 55.8957C135.301 60.7513 134.492 65.5353 132.096 69.7561C134.341 68.2805 137.642 70.8272 135.539 73.5009C138.847 72.7393 139.482 77.6186 136.666 77.8566C139.871 78.1502 140.101 82.0536 137.173 82.5693C140.069 82.9263 140.283 86.7822 137.269 86.6473C140.498 88.012 139.22 90.757 136.658 90.5349C138.982 92.8278 136.872 96.4853 133.722 95.6205C137.054 97.604 135.428 100.73 131.747 99.635C134.722 101.642 132.691 104.887 129.85 104.205C132.627 107.823 127.113 111.631 124.979 107.529C126.018 111.052 120.076 111.893 119.901 108.204C119.053 110.901 115.704 110.195 115.006 108.156C114.84 108.481 114.673 108.814 114.483 109.132C112.364 112.702 109.088 115.122 105.597 117.248C102.019 119.43 97.8136 121.286 95.0368 124.524C92.7994 127.134 91.5062 131.291 93.9181 134.227C96.2269 137.027 100.654 137.622 103.24 134.877C104.399 133.639 105.113 131.87 104.359 130.236C103.851 129.149 102.637 128.125 101.368 128.284C99.5749 128.506 98.9958 131.712 100.789 131.323C100.805 131.323 102.241 130.149 101.915 131.117C101.63 132.005 100.614 132.283 99.8288 131.91C97.6311 130.855 98.7895 128.054 100.551 127.308C102.558 126.459 104.787 127.84 105.732 129.625C108.136 134.179 103.09 138.828 98.7181 138.836C93.4897 138.836 89.4672 134.012 90.1892 128.919C90.9191 123.762 94.4259 120.723 98.5277 118.113C96.9568 117.891 95.5128 117.042 94.4021 115.939C92.0933 113.654 90.6811 109.79 92.3472 106.752C93.8864 103.943 98.5277 102.277 100.606 105.466C101.447 106.76 101.503 108.656 100.114 109.6C99.0275 110.33 97.1313 110.06 97.1234 108.434C98.0596 108.077 98.0358 109.529 99.1544 108.941C99.924 108.545 100.043 107.704 99.7574 106.966C98.8133 104.562 95.7032 105.538 94.5607 107.188C92.014 110.877 96.8457 116.201 100.773 116.74C104.859 114.329 109.127 112.044 111.634 108.378C117.72 99.4922 110.682 88.4959 105.517 82.6328C105.525 82.6566 105.541 82.6804 105.549 82.6962C105.549 82.6804 105.533 82.6566 105.517 82.6328C105.144 82.2123 104.43 81.7521 104.058 81.411C103.447 80.8397 103.558 80.3558 106.017 80.2844C106.898 80.2606 111.999 78.9753 113.65 78.3882C117.061 77.1822 120.306 75.4923 122.988 73.0249C127.97 68.4233 129.716 61.5764 127.034 55.2531C125.836 52.4287 123.614 49.6677 120.346 49.4614C117.791 49.3027 114.824 50.5404 113.499 52.8095C112.087 55.2134 113.277 59.8071 116.664 59.5136C118.021 59.3946 119.529 58.1569 118.918 56.6732C118.275 55.0944 117.109 56.6177 116.514 55.6815C117.894 54.0471 119.894 55.9195 119.814 57.5618C119.743 59.0455 118.354 60.1245 116.99 60.3863C113.499 61.0686 111.214 57.1255 111.642 54.0868C112.166 50.3738 116.085 47.8905 119.592 47.6207C123.4 47.3272 126.558 49.2789 128.74 52.27C133.413 58.6805 131.747 67.4871 126.502 73.0091C124.154 75.4844 121.282 77.2774 118.148 78.5469C133 73.2074 132.929 58.0538 132.135 52.9364C131.144 50.3976 127.082 41.6704 116.379 36.1563C113.626 39.9963 108.286 41.5434 104.787 40.7104C99.2734 39.4013 95.7587 32.4195 93.7356 27.4846C92.5693 24.6443 92.006 22.3911 91.9981 22.3673L91.8712 21.8437L92.3948 21.9865L92.3869 22.0182ZM132.794 74.7227C132.913 74.9052 133.016 75.0956 133.127 75.2861C133.151 75.2781 133.175 75.2543 133.199 75.2464C133.817 74.9925 134.531 75.286 134.785 75.9049C135.039 76.5237 134.746 77.2378 134.119 77.4916C134.095 77.4996 134.079 77.5075 134.055 77.5075C134.103 77.6583 134.151 77.809 134.182 77.9598C134.682 77.7297 135.206 77.6107 135.809 77.6503C138.387 76.365 136.198 72.6917 132.786 74.7148L132.794 74.7227ZM135.856 78.293C135.285 78.2771 134.785 78.3406 134.317 78.5945C134.357 78.8404 134.389 79.0863 134.405 79.3244C134.92 79.2768 135.436 79.5624 135.642 80.0701C135.896 80.689 135.603 81.403 134.976 81.6569C134.714 81.7601 134.436 81.768 134.182 81.6966C134.063 82.0854 133.905 82.4503 133.69 82.7914C134.373 82.2757 135.372 82.0616 136.253 82.2282C138.49 81.9822 137.903 78.3485 135.848 78.293H135.856ZM135.333 83.1405C135.42 83.2357 135.491 83.3548 135.547 83.4817C135.801 84.1006 135.507 84.8146 134.881 85.0685C134.865 85.0685 134.841 85.0764 134.825 85.0843C134.881 85.2351 134.936 85.3858 134.984 85.5366C135.618 85.6 136.229 85.8301 136.737 86.1951C138.752 85.5763 138.419 82.9025 135.325 83.1485L135.333 83.1405ZM135.158 86.1951C135.198 86.4172 135.222 86.6394 135.238 86.8615C135.761 86.806 136.285 87.0916 136.491 87.5994C136.745 88.2182 136.451 88.9322 135.833 89.1861C135.563 89.2972 135.277 89.2972 135.023 89.2179C134.984 89.3766 134.952 89.5273 134.904 89.6939C135.19 89.7256 135.476 89.7971 135.745 89.9161C137.975 90.3683 139.197 87.0678 135.158 86.1951ZM134.682 90.3128C134.579 90.5825 134.46 90.8602 134.333 91.1379C134.301 91.2013 134.262 91.2727 134.23 91.3442C134.476 91.4711 134.69 91.6774 134.801 91.9551C135.055 92.5739 134.762 93.288 134.135 93.5418C133.675 93.7323 133.167 93.6132 132.834 93.2959C132.508 93.6371 132.159 93.9623 131.778 94.24C132.302 94.4463 132.826 94.7398 133.254 95.1207C135.801 96.3504 138.935 91.4632 134.682 90.3128ZM131.112 94.6684C130.771 94.8509 130.43 94.9937 130.073 95.0889C130.43 95.1841 130.739 95.4301 130.89 95.803C131.144 96.4218 130.85 97.1359 130.223 97.3897C130.041 97.4691 129.85 97.4849 129.66 97.4691C129.612 97.834 129.541 98.199 129.446 98.5639C129.993 98.5798 130.517 98.7147 130.969 98.9844C134.65 100.087 136.332 96.5329 131.112 94.6764V94.6684ZM129.248 99.1907C129.216 99.2859 129.168 99.3732 129.129 99.4684C129.454 99.5715 129.739 99.8175 129.874 100.159C130.128 100.777 129.835 101.492 129.216 101.745C128.764 101.928 128.272 101.825 127.938 101.515C127.867 101.603 127.804 101.698 127.732 101.785C128.652 102.142 129.327 102.745 129.66 103.531C132.358 104.316 133.238 99.9841 129.255 99.1987L129.248 99.1907ZM127.256 102.277C127.185 102.348 127.105 102.412 127.034 102.475C127.129 102.578 127.209 102.697 127.264 102.824C127.518 103.443 127.224 104.157 126.598 104.411C125.995 104.657 125.304 104.387 125.035 103.8C124.892 103.864 124.757 103.935 124.598 103.999C125.066 104.681 125.352 105.387 125.312 106.292C125.304 106.506 125.265 106.728 125.201 106.942C128.089 110.258 132.088 104.84 127.256 102.269V102.277ZM123.987 104.237C123.86 104.284 123.726 104.316 123.599 104.364C123.773 104.951 123.48 105.585 122.9 105.823C122.282 106.077 121.568 105.784 121.314 105.165C121.274 105.07 121.258 104.982 121.242 104.879C121.107 104.895 120.973 104.919 120.838 104.927C120.957 105.879 120.79 106.879 120.314 107.672C121.052 109.917 126.264 108.957 123.995 104.237H123.987ZM116.101 105.451C116.101 105.451 116.117 105.474 116.117 105.498C115.276 108.957 120.695 110.496 120.203 104.967C119.965 104.974 119.735 104.967 119.497 104.967C119.481 105.427 119.203 105.855 118.751 106.046C118.132 106.299 117.418 106.006 117.164 105.387C117.037 105.086 117.045 104.76 117.164 104.475C116.918 104.364 116.68 104.237 116.466 104.086C116.363 104.554 116.244 105.014 116.101 105.466V105.451ZM118.592 89.7177C120.727 91.2648 124.154 94.6208 124.519 95.438C123.519 95.3031 120.076 91.9392 118.386 89.9081C118.132 90.1382 117.862 90.3445 117.601 90.5349C120.362 92.7008 122.71 96.2235 123.511 99.5081C120.663 97.6674 118.1 94.2876 116.958 90.9554C116.736 91.0903 116.514 91.2172 116.307 91.3203C117.49 93.518 118.37 96.033 118.799 98.4687C117.553 96.3425 116.601 93.875 116.077 91.4394C115.562 91.6932 115.125 91.8519 114.856 91.9471C115.792 93.8513 116.466 95.8823 116.752 98.0086C116.895 99.0955 116.926 100.182 116.863 101.269C117.188 102.618 119.775 102.713 120.846 102.84C122.337 103.015 123.868 102.452 125.051 101.603C129.168 98.6671 128.097 95.7871 127.645 94.9461C126.518 93.0896 119.338 88.8688 119.338 88.8688C119.1 89.1703 118.854 89.4559 118.592 89.7098V89.7177ZM120.139 87.5835C120.013 87.8612 119.862 88.1151 119.703 88.361C119.703 88.361 125.884 92.685 129.089 93.3197C130.715 93.5894 132.31 90.9792 132.81 89.924C133.905 87.6073 133.468 86.0364 132.032 84.2434C130.39 83.5214 120.782 84.4893 120.782 84.4893C120.782 84.648 120.79 84.8067 120.782 84.9574C122.877 84.5131 125.241 84.5369 127.32 84.8225C125.273 85.3699 122.9 85.4573 120.758 85.2668C120.734 85.4969 120.703 85.7111 120.663 85.9253C123.726 85.5842 127.328 86.3934 129.755 88.0358C126.883 88.7419 123.194 88.25 120.433 86.8457C120.385 86.9885 120.338 87.1313 120.274 87.2661C122.305 88.0833 124.305 89.2813 125.931 90.6856C123.908 90.0033 121.869 88.9085 120.139 87.5835ZM112.539 88.1786C112.928 88.6943 113.285 89.2337 113.626 89.7812C118.775 87.2741 118.434 83.5372 117.482 81.4665C116.664 81.7204 115.8 81.7839 114.967 81.9426C116.545 85.4652 114.379 87.7263 112.539 88.1865V88.1786ZM119.886 80.4113C119.965 80.6017 120.028 80.7921 120.1 80.9826C121.988 79.6814 124.154 78.6262 126.304 77.9598C124.519 79.3561 122.385 80.5303 120.219 81.3396C120.274 81.5062 120.322 81.6728 120.37 81.8394C122.924 79.7449 126.717 78.412 129.914 78.5389C127.605 80.7842 123.852 82.3313 120.536 82.4582C120.56 82.5693 120.592 82.6804 120.615 82.7836C122.686 82.1568 124.963 81.8474 127.09 81.9346C125.098 82.6645 122.837 83.085 120.679 83.1247C120.719 83.3786 120.742 83.6166 120.758 83.8546C120.758 83.8546 128.034 83.6166 131.493 82.8788C134.103 78.3723 130.882 75.2702 128.906 74.1118C126.431 76.7538 123.297 78.9673 119.894 80.4272L119.886 80.4113ZM131.501 70.8034C131.088 71.4381 130.636 72.057 130.16 72.66C130.2 72.6362 130.239 72.6203 130.279 72.6044C130.406 72.3505 130.62 72.1363 130.898 72.0173C131.517 71.7634 132.231 72.057 132.485 72.6758C132.675 73.128 132.564 73.6279 132.247 73.969C132.302 74.0404 132.366 74.1118 132.421 74.1832C133.064 73.6834 133.928 73.3819 134.754 73.3899C136.015 71.6761 133.976 69.772 131.937 70.6686C131.802 70.732 131.683 70.6844 131.612 70.6051C131.572 70.6685 131.54 70.7399 131.493 70.8034H131.501ZM115.078 35.5216C113.531 35.482 111.071 35.236 108.12 34.2601C103.685 32.8003 100.86 29.7934 101.416 28.5478C101.971 27.3021 106.271 27.1435 110.135 29.7537C112.951 31.6578 114.824 33.3557 115.855 34.4029C115.76 33.4826 115.522 31.9435 114.911 30.444C114.141 28.5636 113.007 27.2863 111.547 26.6516C109.31 25.6757 106.874 26.12 104.526 26.5485C102.503 26.9134 100.583 27.2704 98.7895 26.7785C98.8212 26.8499 98.845 26.9292 98.8847 27.0086C99.8526 29.3649 102.622 35.0059 107.445 36.553C109.81 37.3147 112.372 36.9577 115.078 35.5216ZM94.3148 27.2625C96.2824 32.0625 99.7415 38.0367 104.994 39.2902C108.08 40.0201 111.46 38.9966 115.046 36.2515C112.309 37.632 109.691 37.9414 107.255 37.1481C102.177 35.5137 99.3052 29.6744 98.3055 27.2387C98.0834 26.6913 97.9723 26.3581 97.9723 26.3581L97.7581 25.7075L98.3928 25.9614C100.202 26.6754 102.249 26.3025 104.423 25.9058C106.866 25.4615 109.397 25.0014 111.809 26.0566C113.427 26.7627 114.665 28.1511 115.506 30.1901C116.046 31.4992 116.307 32.8241 116.434 33.7762C116.553 32.1577 116.545 29.5792 115.641 27.3815C114.887 25.5409 113.642 24.2793 111.936 23.6367C108.746 22.4308 105.684 22.7164 102.439 23.0179C99.4163 23.3035 96.2903 23.5891 92.7598 22.7481C92.9898 23.5653 93.5055 25.2631 94.3307 27.2545L94.3148 27.2625Z" fill="#F0DEAB"/>
<path d="M88.4753 127.213C89.0624 123.897 84.4131 123 83.6515 126.356C82.7867 130.188 87.8961 130.458 88.4753 127.213Z" fill="#F0DEAB"/>
<path d="M88.3164 132.941C87.6024 130.077 83.453 130.989 84.1115 133.98C84.8811 137.456 89.0146 135.797 88.3164 132.941Z" fill="#F0DEAB"/>
<path d="M90.6411 137.678C89.2606 135.353 85.5317 137.757 87.6976 139.97C89.332 141.629 91.8391 139.701 90.6411 137.678Z" fill="#F0DEAB"/>
<path d="M94.275 139.867C92.1646 139.288 91.2126 142.422 93.4102 142.938C95.8697 143.517 96.3775 140.463 94.275 139.867Z" fill="#F0DEAB"/>
<path d="M98.8049 140.661C97.0119 140.708 97.0198 143.438 98.8605 143.279C101.233 143.081 100.598 140.621 98.8049 140.661Z" fill="#F0DEAB"/>
<path d="M102.915 142.597C104.327 142.358 103.97 140.335 102.574 140.573C101.177 140.803 101.495 142.827 102.915 142.597C102.288 142.7 103.542 142.493 102.915 142.597Z" fill="#F0DEAB"/>
<path d="M113.769 5.79339C116.062 2.76267 120.425 3.13558 123.591 4.28599C126.217 5.24599 128.502 6.9597 130.414 9.0463C130.811 8.36399 131.16 7.63405 131.453 6.84067C132.342 4.47638 132.651 1.72334 131.62 -0.640941C131.199 -1.60094 130.438 -2.52127 129.509 -3.22738C129.494 -3.18771 129.478 -3.14802 129.462 -3.10836C128.454 -0.974151 124.273 0.993443 123.797 -2.51332C123.646 -3.60819 124.225 -5.00453 125.281 -5.32982C126.598 -5.73445 128.176 -4.81416 129.39 -3.83036C129.406 -3.87003 129.43 -3.90967 129.438 -3.94934C130.628 -7.10701 128.383 -11.6769 125.209 -12.8353C125.265 -12.2878 125.249 -11.7325 125.122 -11.1533C124.773 -9.62205 123.337 -7.88453 121.615 -8.21775C120.393 -8.45577 119.925 -10.0584 120.211 -11.1057C120.623 -12.621 122.401 -13.7477 123.916 -13.7477C124.241 -13.7477 124.559 -13.6842 124.868 -13.581C124.495 -15.5486 123.242 -17.3814 123.051 -19.3886C122.885 -21.142 123.281 -24.4425 125.685 -23.9506C126.566 -23.776 127.962 -22.5225 128.454 -21.8005C127.097 -23.3952 125.233 -23.9744 124.059 -22.705C122.797 -21.3403 123.297 -18.9364 123.813 -17.3813C124.241 -16.0881 124.852 -14.8108 125.114 -13.4858C126.05 -13.105 126.907 -12.3513 127.55 -11.6769C129.486 -9.6617 130.644 -6.31362 129.668 -3.60025C129.977 -3.3305 130.263 -3.06871 130.509 -2.83069C133.516 0.128634 132.746 5.02381 131.152 8.4671C131.009 8.76858 130.858 9.07006 130.707 9.35568C132.183 11.0377 133.564 12.7593 134.714 14.6C137.221 18.6066 137.959 22.4862 136.666 27.064C136.245 27.4211 135.476 28.1192 135.095 28.5159C135.38 26.7467 135.912 24.6363 135.912 22.8353C135.896 18.0353 134.167 14.1557 131.175 10.4585C130.969 10.1967 130.747 9.94283 130.517 9.69688C128.534 13.1878 125.352 15.6948 121.274 16.3137C118.148 16.7897 114.879 15.7821 113.293 12.9021C112.071 10.6886 112.245 7.80065 113.777 5.78545L113.769 5.79339ZM124.892 -12.9225C123.091 -13.4382 120.259 -11.9149 120.489 -9.82041C120.6 -8.77314 121.798 -8.50339 122.639 -8.73347C124.106 -9.1381 124.939 -10.9867 124.979 -12.3672C124.979 -12.5497 124.979 -12.7242 124.963 -12.9067C124.939 -12.9067 124.916 -12.9225 124.892 -12.9305V-12.9225ZM125.757 -4.49678C123.956 -4.36984 123.4 -1.84691 125.106 -1.10906C126.693 -0.418815 128.454 -2.03732 129.208 -3.44161C128.161 -4.15566 126.939 -4.58405 125.757 -4.49678ZM121.139 14.9411C125.225 14.4968 128.264 12.5372 130.215 9.38745C127.018 6.06317 122.393 3.98451 117.585 5.03178C114.395 5.72995 112.285 7.88792 112.904 11.0377C113.65 14.7983 117.696 15.314 121.139 14.9411Z" fill="#F0DEAB"/>
</g>
<defs>
<clipPath id="clip0_893_9185">
<rect width="135" height="174" fill="white"/>
</clipPath>
</defs>
</svg>
