<svg width="135" height="174" viewBox="0 0 135 174" fill="none" xmlns="http://www.w3.org/2000/svg">
<g clip-path="url(#clip0_893_9186)">
<path d="M49.1734 71.5412C48.3245 73.6119 49.3083 75.9921 51.387 76.841C53.4577 77.6899 55.8379 76.6982 56.6868 74.6274C57.5357 72.5488 56.5519 70.1766 54.4732 69.3276C52.3946 68.4708 50.0224 69.4625 49.1734 71.5412Z" fill="#F0DEAB"/>
<path d="M46.127 57.8474C35.813 33.9824 15.7721 52.5 38.2566 66.6857C12.7889 56.8398 17.2954 88.0119 39.883 78.9118C16.4941 88.7181 33.5756 104.736 44.6195 88.4165C30.6163 110.465 64.4066 112.94 56.4013 84.0291C64.9461 112.654 85.8835 89.448 66.033 78.2533C95.7373 92.3835 88.5175 59.6722 63.5894 68.8993C90.2391 57.3714 73.3242 33.0145 58.234 58.4822C68.794 35.7041 39.0103 31.6102 46.119 57.8474H46.127ZM40.4225 67.5029C25.1499 56.1813 38.9865 42.7493 48.0073 63.8057C48.7531 65.5433 49.1894 66.7333 49.602 67.4236C49.4354 67.5267 49.2688 67.6219 49.1101 67.741C48.7372 66.3605 47.325 64.3056 45.9524 61.6715C44.0324 57.9823 39.9068 56.9827 38.7168 58.0775C37.5187 59.1645 38.1455 63.3297 41.6205 65.6226C44.2704 67.3681 46.1825 68.9786 47.5074 69.3912C47.2456 69.78 46.7537 70.8748 46.7061 70.9938C45.1035 70.3432 42.8741 69.0976 40.4384 67.5029H40.4225ZM57.6628 75.1194C56.6234 77.6265 53.7514 78.8245 51.2443 77.7931C48.7372 76.7617 47.5392 73.8818 48.5706 71.3747C49.602 68.8676 52.482 67.6696 54.9891 68.701C57.4962 69.7324 58.6942 72.6123 57.6628 75.1194ZM40.002 68.0107C42.6043 69.8752 45.2146 71.0811 46.4999 71.6364C46.4523 71.8427 46.4046 72.057 46.3729 72.2633C45.1749 71.5095 42.6678 71.0573 39.7402 70.137C35.7733 68.8914 32.1555 71.097 32.0761 72.7155C31.9968 74.334 35.3845 76.8331 39.4625 76.0001C42.6757 75.3416 45.2225 75.1274 46.4047 74.4371C46.4999 74.9766 46.6665 75.5003 46.8807 75.9922C46.8093 76.0239 46.7379 76.0556 46.6585 76.0874C21.3337 84.0212 19.5248 62.9648 39.9941 68.0107H40.002ZM47.1028 76.5951C47.1028 76.5951 47.1504 76.5793 47.1742 76.5634C47.317 76.8173 47.4678 77.0632 47.6423 77.2933C46.2618 77.5472 44.1356 79.0467 41.3349 80.4986C37.6457 82.4186 36.646 86.5442 37.7409 87.7422C38.8278 88.9402 42.9931 88.3134 45.286 84.8384C47.1187 82.0536 48.8086 80.0781 49.1101 78.7531C49.3957 78.9673 49.7131 79.1419 50.0304 79.3085C49.237 80.7604 47.0235 84.6877 45.6113 86.203C34.3531 98.4529 25.253 85.1081 47.1028 76.5793V76.5951ZM46.008 86.7663C47.4361 84.9415 49.7527 81.173 50.8 79.6576C51.1888 79.8004 51.5855 79.9115 51.9901 79.9749C51.1888 81.1253 50.7445 83.6959 49.7924 86.7187C48.5468 90.6856 50.7524 94.3035 52.3709 94.3828C53.9894 94.4622 56.1236 89.924 55.6555 86.9964C55.1319 83.7197 54.7828 81.165 54.0687 80.0067C54.2909 79.975 54.513 79.9273 54.7272 79.8718C62.7246 105.157 38.4787 107.624 46.008 86.7742V86.7663ZM63.0657 77.0949C82.4005 93.3435 62.7008 102.912 55.362 79.6655C55.9253 79.4671 56.4648 79.2054 56.9646 78.8642C57.2502 80.2447 58.7259 82.3551 60.1619 85.1161C62.0899 88.8053 66.2075 89.805 67.4055 88.7101C68.6036 87.6152 67.9768 83.4579 64.5017 81.165C61.7963 79.3799 59.8605 77.7455 58.5355 77.3727C58.8846 76.9125 59.5352 75.532 59.5907 75.3733C60.757 76.0159 61.9233 76.5951 63.0737 77.0949H63.0657ZM63.4465 76.5634C61.7487 75.6113 60.6142 75.0242 59.7732 74.6355C59.7732 74.6117 59.7811 74.5958 59.789 74.572C61.0109 75.3019 63.4862 75.7462 66.3583 76.6506C70.3252 77.8963 73.943 75.6906 74.0224 74.0721C74.0938 72.4536 70.714 69.9545 66.636 70.7876C63.5576 71.4223 61.0902 71.6365 59.8446 72.2633C59.7811 71.8428 59.67 71.4302 59.5352 71.0335C81.496 63.4012 89.2236 84.2354 63.4465 76.5634ZM65.8108 52.3652C67.7705 51.8495 69.7381 52.4286 71.666 54.1027C73.6098 55.7926 74.2286 57.6729 73.5146 59.6881C71.7374 64.7499 62.1851 69.2325 59.0274 69.891C58.9401 69.7324 58.8529 69.5737 58.7497 69.4229C60.1302 69.0342 62.1613 67.6378 64.7636 66.2811C68.4528 64.3611 69.4445 60.2355 68.3576 59.0375C67.2707 57.8395 63.1054 58.4663 60.8125 61.9413C59.1147 64.5119 57.5517 66.3922 57.0757 67.7092C56.6552 67.4077 56.203 67.1459 55.7031 66.9396C55.473 66.8444 55.235 66.7651 54.997 66.6937C55.7269 65.091 56.9963 62.1635 57.1947 61.6002C59.1543 57.8316 62.1771 53.3251 65.8029 52.3572L65.8108 52.3652ZM56.7266 61.1162C55.4889 63.4726 54.6559 65.7337 54.3702 66.5509C54.3464 66.5509 54.3147 66.535 54.2909 66.535C54.9811 65.2814 55.4334 62.8696 56.314 60.0769C57.5596 56.11 55.354 52.4921 53.7355 52.4128C52.117 52.3414 49.6179 55.7291 50.4509 59.7992C51.0777 62.8299 51.2919 65.2815 51.8949 66.5429C51.3792 66.6381 50.8793 66.7968 50.3954 67.0031C40.8192 41.1943 63.7798 37.2512 56.7266 61.1162Z" fill="#F0DEAB"/>
<path d="M75.0462 18.8287C73.4436 19.0747 71.9441 20.2965 71.0793 21.9547C70.8334 19.5983 69.6671 17.4165 68.0248 16.7025C67.0965 16.2978 65.2876 16.0757 63.3914 18.8684C62.0903 17.0278 60.1703 16.9008 58.8532 17.6069C57.6632 18.2496 56.7746 19.7094 57.2982 21.55C55.7828 20.709 54.0612 20.4869 52.7124 20.8757C50.729 21.4469 49.6182 23.1924 49.6976 25.5963C48.571 25.39 47.611 25.6756 46.9683 26.4135C46.1432 27.3655 46.0084 28.9206 46.6351 30.3646C47.6586 32.7209 50.3164 34.5774 52.887 36.3705C54.4658 37.4733 55.8384 38.6475 56.9967 39.6154C62.3203 44.0901 61.765 49.1916 61.765 49.3582L62.5187 49.6359C64.9464 48.6838 79.6875 37.0448 82.6706 29.7933C83.0911 28.7698 83.3847 27.7305 83.5196 26.6991C83.6624 25.6043 83.1943 24.5411 82.2739 23.8667C81.4171 23.24 80.3302 23.0337 79.2988 23.2796C79.5447 22.4704 79.5685 21.5421 79.1163 20.8677C78.069 19.3127 76.6251 18.5987 75.0383 18.8446L75.0462 18.8287ZM64.4069 22.5735C66.073 16.5835 71.0317 21.8674 70.2542 24.7474C69.5798 27.2465 67.6598 33.062 65.8906 38.219C66.5094 34.7916 66.9775 31.3246 67.5011 27.9844C67.4377 28.2224 67.3901 28.4445 67.3345 28.6508C66.6046 31.6498 65.9937 34.7678 65.2638 37.8541C65.6287 33.546 65.5018 29.1586 65.2162 24.9933C65.1448 29.4284 64.9861 34.149 64.2086 38.6872C64.0975 35.2439 63.6135 31.7847 63.1296 28.5953C63.3676 33.1969 63.915 38.4729 63.1058 43.2412C63.082 43.1301 63.0661 43.019 63.0344 42.908C63.0899 42.1781 63.1296 41.4878 63.1296 40.9562C63.1296 35.7358 62.0506 28.3652 60.0195 24.3666C59.5514 23.4383 60.0592 18.1068 64.3911 22.5735H64.4069ZM57.4648 39.1711C56.2827 38.1238 54.8625 36.9655 53.2599 35.8389C50.7607 34.0934 47.2936 27.0799 53.2202 28.6588C50.7211 23.0575 58.0837 21.9229 59.4721 24.6522C61.4317 28.508 62.4711 35.6088 62.5107 40.742C62.4076 40.3691 62.3045 40.0042 62.1934 39.6472C61.4476 37.148 60.5432 34.6964 59.5197 32.2925C59.4165 32.0386 59.2975 31.7451 59.1468 31.4118C59.9322 33.9189 60.5987 36.4657 61.0985 39.0442C59.7974 36.1245 58.0598 33.3556 56.4096 30.9754C58.036 33.9506 60.1068 37.5843 61.2651 41.2577C59.5038 38.2825 56.7428 35.7516 54.0691 33.8872C53.966 33.8079 53.8391 33.7206 53.6962 33.6254C56.7666 36.2673 60.7177 40.2263 61.6856 44.4789C61.2175 43.0904 60.1068 41.5037 57.4727 39.1632L57.4648 39.1711ZM75.5302 26.8023C78.5133 25.4773 87.4309 28.4763 66.9934 45.3119C69.675 42.4795 71.952 39.2901 74.0148 35.9738C74.1418 35.7755 74.2846 35.5533 74.4353 35.2994C72.0155 38.4571 69.3735 41.8527 66.3507 44.6693C69.7067 39.8931 72.3328 34.6409 74.8875 29.3966C72.428 33.5301 70.0162 38.0128 67.1758 42.0749C68.8419 38.3857 70.1352 34.4663 71.3967 30.793C69.4053 35.1645 67.3424 39.9407 64.6132 44.0822C64.7798 43.4395 64.9385 42.7969 65.0892 42.1384C67.1838 36.188 70.0717 27.8257 70.8572 24.914C71 24.3904 75.1176 20.003 75.5222 26.8023H75.5302Z" fill="#F0DEAB"/>
<path d="M115.659 135.742C112.589 135.417 109.304 135.877 105.496 136.408C97.594 137.519 87.764 138.9 74.3558 133.782C54.4577 126.19 52.6885 105.57 52.6726 105.363L52.625 104.665L53.2756 104.403C54.9496 103.737 56.2428 102.301 57.1394 100.127C58.0518 97.9055 58.2342 95.6443 58.2739 94.9937V94.8192L60.186 94.8827V95.0731C59.2894 117.256 86.1296 124.468 94.7299 126.206C92.8496 123.064 92.5878 118.272 92.2942 112.9C92.08 108.934 91.8579 104.832 90.9455 101.063C88.6208 91.4711 73.7608 84.6004 73.61 84.5369L74.3875 82.7994C80.9092 85.6794 86.1296 79.5148 86.1852 79.4514L86.6691 78.8643L87.3435 79.2133C88.3828 79.7449 93.3415 82.966 98.5699 88.964C101.823 92.6929 102.624 100.071 103.473 107.878C103.981 112.567 104.512 117.415 105.599 121.413C108.281 131.299 115.723 133.774 116.04 133.878L119.69 135.488L115.651 135.726L115.659 135.742ZM54.6561 105.879C55.1321 109.33 58.2422 125.603 75.0381 132.013C87.9861 136.956 97.5465 135.607 105.234 134.528C107.583 134.195 109.741 133.893 111.804 133.782C109.058 131.87 105.496 128.284 103.774 121.929C102.648 117.788 102.116 112.861 101.593 108.1C100.776 100.595 100.006 93.5101 97.1497 90.2334C92.8655 85.3224 88.7478 82.3313 87.0896 81.2841C85.9233 82.4503 83.0037 84.9415 79.1796 85.4176C84.0589 88.4007 91.1359 93.7799 92.7941 100.635C93.7461 104.57 93.9762 108.759 94.1904 112.813C94.5236 118.898 94.8331 124.643 97.7845 126.872L100.664 129.046L97.0863 128.578C96.6816 128.522 87.0499 127.221 77.3865 122.492C66.8186 117.32 60.4716 110.06 58.7341 101.254C57.7661 103.435 56.3936 104.982 54.6561 105.879Z" fill="#F0DEAB"/>
<path d="M89.7873 82.2837C89.7635 82.3472 89.7159 82.4027 89.6524 82.4344L80.9252 87.5359C80.7744 87.6232 80.584 87.5756 80.4888 87.4248C80.4015 87.2741 80.4491 87.0757 80.5999 86.9885L89.3271 81.887C89.4779 81.7997 89.6762 81.8473 89.7635 81.998C89.819 82.0853 89.819 82.1885 89.7793 82.2758L89.7873 82.2837Z" fill="#F0DEAB"/>
<path d="M91.358 83.7277C91.3342 83.7912 91.2866 83.8467 91.2231 83.8864L82.6149 88.6943C82.4642 88.7815 82.2658 88.726 82.1865 88.5753C82.0992 88.4245 82.1548 88.2262 82.3055 88.1389L90.9137 83.331C91.0645 83.2438 91.2628 83.2993 91.3421 83.45C91.3897 83.5373 91.3977 83.6405 91.358 83.7277Z" fill="#F0DEAB"/>
<path d="M93.27 85.2033C93.2382 85.2668 93.1906 85.3302 93.1271 85.362L84.1857 90.1461C84.035 90.2254 83.8366 90.1699 83.7573 90.0191C83.6779 89.8684 83.7335 89.67 83.8842 89.5907L92.8257 84.8066C92.9844 84.7273 93.1747 84.7828 93.2541 84.9335C93.3017 85.0208 93.3017 85.1239 93.27 85.2033Z" fill="#F0DEAB"/>
<path d="M95.6423 87.7738C95.6106 87.8452 95.555 87.9087 95.4757 87.9404L86.4232 91.8835C86.2645 91.9549 86.0741 91.8835 86.0027 91.7169C85.9313 91.5582 86.0027 91.3678 86.1693 91.2964L95.2218 87.3533C95.3805 87.2818 95.5709 87.3533 95.6343 87.5199C95.674 87.5992 95.6661 87.6865 95.6343 87.7658L95.6423 87.7738Z" fill="#F0DEAB"/>
<path d="M98.7525 91.3364C98.7128 91.4316 98.6335 91.503 98.5303 91.5268L87.7482 93.8435C87.5737 93.8831 87.4071 93.7721 87.3674 93.5975C87.3277 93.423 87.4388 93.2563 87.6134 93.2246L98.3955 90.9079C98.57 90.8683 98.7366 90.9793 98.7763 91.1539C98.7922 91.2174 98.7763 91.2808 98.7604 91.3443L98.7525 91.3364Z" fill="#F0DEAB"/>
<path d="M100.347 94.97C100.3 95.081 100.196 95.1604 100.07 95.1683L89.1526 95.5967C88.978 95.5967 88.8273 95.4698 88.8193 95.2952C88.8193 95.1207 88.9463 94.97 89.1208 94.97L100.046 94.5415C100.22 94.5415 100.371 94.6684 100.371 94.843C100.371 94.8906 100.371 94.9382 100.347 94.9779V94.97Z" fill="#F0DEAB"/>
<path d="M101.545 99.0004C101.498 99.1273 101.371 99.2066 101.228 99.1987L90.6362 98.2784C90.4616 98.2625 90.3347 98.1118 90.3426 97.9372C90.3585 97.7627 90.5092 97.6357 90.6838 97.6437L101.275 98.564C101.45 98.5798 101.577 98.7306 101.569 98.9051C101.569 98.9369 101.553 98.9686 101.545 99.0004Z" fill="#F0DEAB"/>
<path d="M101.672 102.594C101.617 102.729 101.474 102.816 101.323 102.785L91.7549 101.023C91.5804 100.992 91.4693 100.825 91.501 100.658C91.5327 100.484 91.6993 100.373 91.866 100.405L101.434 102.166C101.609 102.198 101.72 102.364 101.688 102.539C101.688 102.563 101.68 102.578 101.672 102.602V102.594Z" fill="#F0DEAB"/>
<path d="M102.283 106.395C102.219 106.538 102.061 106.625 101.91 106.577L92.2387 103.975C92.0721 103.927 91.9689 103.753 92.0165 103.586C92.0641 103.412 92.2387 103.316 92.4053 103.364L102.085 105.966C102.251 106.014 102.354 106.188 102.307 106.355C102.307 106.371 102.299 106.379 102.291 106.395H102.283Z" fill="#F0DEAB"/>
<path d="M102.426 109.656C102.362 109.806 102.196 109.886 102.045 109.838L92.786 107.061C92.6194 107.014 92.5242 106.831 92.5718 106.664C92.6274 106.498 92.8019 106.403 92.9685 106.45L102.227 109.227C102.394 109.275 102.489 109.457 102.442 109.624C102.442 109.632 102.434 109.648 102.426 109.656Z" fill="#F0DEAB"/>
<path d="M103.227 112.726C103.171 112.869 103.013 112.956 102.854 112.916L92.9446 110.33C92.778 110.282 92.6749 110.116 92.7145 109.941C92.7542 109.767 92.9288 109.671 93.1033 109.711L103.013 112.297C103.179 112.345 103.282 112.512 103.243 112.686C103.243 112.702 103.235 112.718 103.227 112.726Z" fill="#F0DEAB"/>
<path d="M103.394 115.653C103.33 115.796 103.18 115.884 103.021 115.844L93.302 113.337C93.1274 113.297 93.0323 113.123 93.0719 112.948C93.1195 112.781 93.2861 112.678 93.4607 112.718L103.172 115.225C103.338 115.265 103.441 115.439 103.402 115.614C103.402 115.63 103.394 115.646 103.386 115.653H103.394Z" fill="#F0DEAB"/>
<path d="M103.996 118.644C103.933 118.795 103.766 118.874 103.616 118.827L93.4364 115.788C93.2698 115.741 93.1746 115.558 93.2222 115.392C93.2698 115.225 93.4444 115.13 93.6189 115.177L103.798 118.216C103.965 118.264 104.06 118.438 104.012 118.613C104.012 118.621 104.012 118.636 104.004 118.644H103.996Z" fill="#F0DEAB"/>
<path d="M104.774 121.477C104.711 121.62 104.552 121.707 104.401 121.667L93.6669 118.859C93.5003 118.811 93.3971 118.645 93.4447 118.47C93.4844 118.295 93.659 118.2 93.8335 118.24L104.568 121.048C104.743 121.096 104.838 121.263 104.798 121.437C104.798 121.453 104.798 121.469 104.782 121.477H104.774Z" fill="#F0DEAB"/>
<path d="M105.781 124.865C105.726 125.008 105.575 125.087 105.417 125.055L94.0949 122.572C93.9204 122.532 93.8172 122.366 93.849 122.191C93.8807 122.025 94.0553 121.913 94.2298 121.953L105.551 124.436C105.726 124.476 105.829 124.643 105.797 124.817C105.797 124.833 105.789 124.849 105.781 124.873V124.865Z" fill="#F0DEAB"/>
<path d="M107.44 128.054C107.384 128.197 107.226 128.276 107.075 128.245L95.3012 125.468C95.1266 125.428 95.0235 125.253 95.0632 125.087C95.1028 124.92 95.2774 124.809 95.444 124.849L107.218 127.626C107.392 127.665 107.496 127.84 107.456 128.007C107.456 128.022 107.448 128.038 107.44 128.054Z" fill="#F0DEAB"/>
<path d="M114.136 134.584C114.073 134.742 113.882 134.822 113.723 134.758L96.3166 127.602C96.1579 127.538 96.0786 127.348 96.142 127.189C96.2055 127.031 96.3959 126.951 96.5546 127.015L113.961 134.171C114.12 134.235 114.199 134.425 114.136 134.584Z" fill="#F0DEAB"/>
<path d="M106.67 134.941C106.67 134.941 106.654 134.98 106.638 134.996C106.543 135.139 106.345 135.179 106.202 135.083L95.4278 127.911C95.285 127.816 95.2374 127.618 95.3405 127.475C95.4358 127.332 95.6341 127.292 95.7769 127.388L106.543 134.56C106.67 134.647 106.718 134.806 106.662 134.941H106.67Z" fill="#F0DEAB"/>
<path d="M102.267 135.647C102.267 135.647 102.235 135.71 102.203 135.742C102.084 135.869 101.886 135.877 101.759 135.758L92.6907 127.229C92.5638 127.11 92.5558 126.912 92.6748 126.785C92.7939 126.658 92.9922 126.65 93.1271 126.769L102.195 135.298C102.291 135.393 102.322 135.528 102.275 135.647H102.267Z" fill="#F0DEAB"/>
<path d="M97.8796 136.02C97.8558 136.067 97.8241 136.115 97.7765 136.155C97.6336 136.258 97.4353 136.234 97.3322 136.091L90.2314 126.658C90.1282 126.515 90.152 126.317 90.2948 126.214C90.4297 126.11 90.636 126.134 90.7391 126.277L97.8399 135.71C97.9113 135.806 97.9193 135.925 97.8796 136.02Z" fill="#F0DEAB"/>
<path d="M92.8736 136.242C92.8418 136.313 92.7863 136.377 92.7149 136.408C92.5562 136.48 92.3658 136.408 92.2944 136.25L87.5975 125.975C87.5261 125.817 87.5975 125.626 87.7562 125.555C87.9149 125.483 88.1053 125.555 88.1767 125.713L92.8736 135.988C92.9132 136.067 92.9132 136.162 92.8736 136.242Z" fill="#F0DEAB"/>
<path d="M89.6205 135.821C89.5887 135.901 89.5253 135.964 89.4459 135.996C89.2872 136.059 89.0968 135.98 89.0333 135.821L84.6777 125C84.6142 124.841 84.6935 124.651 84.8522 124.587C85.0109 124.524 85.2013 124.603 85.2648 124.762L89.6205 135.583C89.6522 135.663 89.6522 135.75 89.6205 135.821Z" fill="#F0DEAB"/>
<path d="M85.6535 135.448C85.6218 135.536 85.5504 135.599 85.4551 135.631C85.2885 135.678 85.114 135.591 85.0585 135.417L81.4961 123.778C81.4485 123.611 81.5438 123.437 81.7104 123.381C81.877 123.333 82.0595 123.421 82.1071 123.595L85.6693 135.234C85.6932 135.306 85.6852 135.385 85.6614 135.448H85.6535Z" fill="#F0DEAB"/>
<path d="M81.7182 134.75C81.6785 134.845 81.5992 134.917 81.4881 134.941C81.3135 134.972 81.1469 134.861 81.1152 134.695L78.6954 122.5C78.6636 122.326 78.7747 122.159 78.9413 122.127C79.1159 122.096 79.2825 122.207 79.3142 122.373L81.734 134.568C81.7499 134.631 81.734 134.695 81.7182 134.75Z" fill="#F0DEAB"/>
<path d="M77.5608 133.727C77.5211 133.83 77.418 133.917 77.2911 133.925C77.1165 133.941 76.9658 133.806 76.9499 133.632L75.9661 121.001C75.9502 120.826 76.0851 120.676 76.2597 120.66C76.4342 120.644 76.5849 120.779 76.6008 120.953L77.5846 133.584C77.5846 133.632 77.5846 133.687 77.5608 133.727Z" fill="#F0DEAB"/>
<path d="M73.6654 132.354C73.6178 132.473 73.4909 132.553 73.356 132.553C73.1815 132.553 73.0466 132.394 73.0545 132.22L73.6416 119.66C73.6496 119.486 73.8003 119.351 73.9749 119.359C74.1494 119.359 74.2843 119.517 74.2764 119.692L73.6892 132.251C73.6892 132.251 73.6813 132.323 73.6654 132.354Z" fill="#F0DEAB"/>
<path d="M70.6982 130.68C70.6506 130.807 70.5157 130.886 70.3729 130.878C70.1983 130.862 70.0714 130.712 70.0873 130.529L71.2218 118.311C71.2377 118.137 71.3964 118.01 71.5709 118.026C71.7454 118.041 71.8724 118.2 71.8565 118.367L70.722 130.593C70.722 130.593 70.714 130.656 70.6982 130.68Z" fill="#F0DEAB"/>
<path d="M66.6363 128.324C66.5808 128.467 66.4221 128.546 66.2714 128.514C66.0969 128.475 65.9937 128.3 66.0334 128.133L68.8499 116.264C68.8896 116.098 69.0641 115.987 69.2307 116.026C69.4053 116.066 69.5084 116.241 69.4687 116.407L66.6443 128.276C66.6443 128.276 66.6363 128.308 66.6284 128.324H66.6363Z" fill="#F0DEAB"/>
<path d="M63.7162 125.412C63.6528 125.571 63.4782 125.65 63.3195 125.587C63.1529 125.531 63.0657 125.349 63.1212 125.182L66.9136 114.281C66.9612 114.114 67.1516 114.027 67.3182 114.083C67.4848 114.138 67.5721 114.321 67.5165 114.487L63.7241 125.388C63.7241 125.388 63.7241 125.396 63.7241 125.404L63.7162 125.412Z" fill="#F0DEAB"/>
<path d="M65.4542 112.289V112.297L60.8843 122.31C60.8129 122.468 60.6225 122.54 60.4638 122.468C60.3051 122.397 60.2496 122.199 60.3051 122.048L64.875 112.036C64.9464 111.877 65.1368 111.805 65.2955 111.877C65.4542 111.948 65.5256 112.131 65.4621 112.281L65.4542 112.289Z" fill="#F0DEAB"/>
<path d="M63.994 110.552C63.994 110.552 63.9782 110.584 63.9702 110.592L58.9005 119.025C58.8132 119.176 58.6149 119.224 58.4641 119.136C58.3134 119.049 58.2658 118.851 58.3531 118.7L63.4228 110.266C63.5101 110.116 63.7084 110.068 63.8592 110.155C63.994 110.235 64.0496 110.401 63.9861 110.544L63.994 110.552Z" fill="#F0DEAB"/>
<path d="M62.4785 108.672C62.4785 108.672 62.4547 108.711 62.4468 108.735L57.2104 116.185C57.1073 116.328 56.9089 116.367 56.7661 116.264C56.6233 116.161 56.5837 115.963 56.6868 115.82L61.9231 108.37C62.0263 108.227 62.2246 108.196 62.3674 108.291C62.4944 108.378 62.5341 108.537 62.4785 108.672Z" fill="#F0DEAB"/>
<path d="M61.614 106.601C61.614 106.601 61.5822 106.664 61.5505 106.696L55.973 112.749C55.854 112.876 55.6557 112.884 55.5208 112.765C55.3938 112.646 55.3859 112.448 55.5049 112.313L61.0824 106.26C61.2014 106.133 61.3998 106.125 61.5347 106.244C61.6378 106.339 61.6616 106.482 61.614 106.601Z" fill="#F0DEAB"/>
<path d="M60.7891 105.006C60.7732 105.054 60.7415 105.093 60.7018 105.125L54.9021 110.06C54.7673 110.171 54.5689 110.155 54.4579 110.02C54.3468 109.885 54.3626 109.687 54.4975 109.576L60.2972 104.641C60.432 104.53 60.6304 104.546 60.7415 104.681C60.8208 104.776 60.8367 104.903 60.7891 105.006Z" fill="#F0DEAB"/>
<path d="M60.051 102.071C60.0351 102.11 60.0034 102.15 59.9717 102.182L54.3307 107.291C54.2038 107.41 53.9975 107.402 53.8864 107.267C53.7674 107.141 53.7753 106.934 53.9102 106.823L59.5512 101.714C59.6781 101.595 59.8844 101.611 59.9955 101.738C60.0828 101.833 60.0986 101.96 60.0589 102.071H60.051Z" fill="#F0DEAB"/>
<path d="M87.1529 118.462C74.1176 112.075 71.1504 109.83 67.1279 99.0321C67.1279 99.0321 74.7444 99.4209 75.1173 90.9951C87.7163 95.9458 83.3764 110.393 87.1529 118.462Z" fill="#F0DEAB"/>
<path d="M66.8107 103.134C67.6755 103.491 68.088 104.475 67.731 105.339C67.374 106.204 66.3822 106.617 65.5254 106.26C64.6606 105.903 64.248 104.919 64.6051 104.054C64.9621 103.189 65.9459 102.777 66.8107 103.134Z" fill="#F0DEAB"/>
<path d="M70.4523 108.743C71.3171 109.1 71.7296 110.092 71.3726 110.949C71.0156 111.813 70.0318 112.226 69.167 111.869C68.3022 111.512 67.8896 110.528 68.2467 109.663C68.6037 108.799 69.5875 108.386 70.4523 108.743Z" fill="#F0DEAB"/>
<path d="M75.1017 113.281C75.9665 113.638 76.379 114.622 76.022 115.487C75.665 116.352 74.6812 116.764 73.8164 116.407C72.9516 116.05 72.5391 115.066 72.8961 114.202C73.2531 113.337 74.2369 112.924 75.1017 113.281Z" fill="#F0DEAB"/>
<path d="M79.9811 116.431C80.8459 116.788 81.2584 117.772 80.9014 118.637C80.5444 119.501 79.5606 119.914 78.6958 119.557C77.831 119.2 77.4185 118.216 77.7755 117.351C78.1325 116.487 79.1163 116.074 79.9811 116.431Z" fill="#F0DEAB"/>
<path d="M85.2252 118.7C86.09 119.057 86.5026 120.041 86.1455 120.906C85.7885 121.77 84.8047 122.183 83.9399 121.826C83.0752 121.469 82.6626 120.485 83.0196 119.62C83.3766 118.756 84.3604 118.343 85.2252 118.7Z" fill="#F0DEAB"/>
<path d="M90.7867 120.184C91.6515 120.541 92.0641 121.525 91.7071 122.389C91.35 123.254 90.3663 123.667 89.5015 123.31C88.6367 122.953 88.2241 121.969 88.5811 121.104C88.9382 120.239 89.922 119.827 90.7867 120.184Z" fill="#F0DEAB"/>
<path d="M90.4059 114.432C91.2707 114.789 91.6832 115.773 91.3262 116.637C90.9692 117.502 89.9854 117.915 89.1206 117.558C88.2558 117.201 87.8433 116.217 88.2003 115.352C88.5573 114.487 89.5411 114.075 90.4059 114.432Z" fill="#F0DEAB"/>
<path d="M89.5411 108.473C90.4059 108.83 90.8185 109.814 90.4615 110.679C90.1044 111.544 89.1206 111.956 88.2559 111.599C87.3911 111.242 86.9785 110.259 87.3355 109.394C87.6926 108.529 88.6763 108.116 89.5411 108.473Z" fill="#F0DEAB"/>
<path d="M88.3512 101.357C89.216 101.714 89.6285 102.697 89.2715 103.562C88.9145 104.427 87.9307 104.839 87.0659 104.482C86.2011 104.125 85.7886 103.142 86.1456 102.277C86.5026 101.412 87.4864 101 88.3512 101.357Z" fill="#F0DEAB"/>
<path d="M86.09 95.7318C86.9548 96.0888 87.3673 97.0726 87.0103 97.9374C86.6533 98.8022 85.6695 99.2147 84.8047 98.8577C83.9399 98.5007 83.5273 97.5169 83.8844 96.6521C84.2414 95.7873 85.2252 95.3747 86.09 95.7318Z" fill="#F0DEAB"/>
<path d="M82.8531 91.0904C83.7179 91.4474 84.1305 92.4313 83.7735 93.296C83.4165 94.1608 82.4327 94.5734 81.5679 94.2163C80.7031 93.8593 80.2905 92.8755 80.6475 92.0108C81.0046 91.146 81.9884 90.7334 82.8531 91.0904Z" fill="#F0DEAB"/>
<path d="M77.799 87.5279C78.6637 87.8849 79.0763 88.8687 78.7193 89.7335C78.3622 90.5983 77.3784 91.0109 76.5136 90.6539C75.6489 90.2968 75.2363 89.313 75.5933 88.4482C75.9504 87.5834 76.9421 87.1709 77.799 87.5279Z" fill="#F0DEAB"/>
<path d="M64.3116 97.5328C65.1764 97.8898 65.589 98.8736 65.232 99.7384C64.8749 100.603 63.8832 101.016 63.0263 100.659C62.1616 100.302 61.749 99.3179 62.106 98.4531C62.4631 97.5884 63.4469 97.1758 64.3116 97.5328Z" fill="#F0DEAB"/>
<path d="M86.0581 77.4363C93.746 80.1417 99.7599 84.434 103.64 89.4561C107.456 94.3989 109.883 108.481 117.801 105.903C126.013 103.229 118.452 89.0197 108.725 83.1963C99.0061 77.3728 90.6597 77.3729 86.066 77.4284L86.0581 77.4363Z" fill="#F0DEAB"/>
<path d="M86.6216 78.5786C95.3805 80.7525 100.736 87.5518 104.084 95.5491C105.853 99.7937 107.178 104.197 108.765 108.505C110.209 112.432 111.931 116.368 115.009 119.295C117.833 121.985 121.721 123.373 125.569 122.35C129.131 121.406 132.566 118.042 132.368 114.122C132.186 110.544 127.624 106.482 124.379 109.584C123.189 110.727 122.744 112.726 124.188 113.876C126.077 115.376 128.068 112.472 126.283 111.964C128.163 112.401 126.315 115.217 124.506 114.344C122.348 113.384 122.625 110.711 124.022 109.227C127.306 105.744 132.495 109.33 133.4 113.115C134.471 117.431 131.249 121.842 127.489 123.619C123.546 125.484 118.666 124.96 114.93 122.818C106.948 118.248 105.679 106.593 103.235 98.6513C100.506 89.7812 95.9359 81.6728 86.6216 78.5786C90.5806 79.8956 88.6447 79.0784 86.6216 78.5786Z" fill="#F0DEAB"/>
<path d="M85.9077 75.7145C100.466 76.9205 114.239 71.7476 125.807 63.187C116.485 73.9294 99.8157 80.0147 85.9077 75.7145C89.5176 76.016 89.3907 76.7935 85.9077 75.7145Z" fill="#F0DEAB"/>
<path d="M85.5186 74.0167C89.6521 71.2239 93.0716 67.2332 95.0313 62.6316C97.2131 57.5143 97.5304 52.024 97.3797 46.5417C100.799 56.8319 96.7291 70.5178 85.5186 74.0167C88.1209 73.2074 87.7559 72.5013 85.5186 74.0167Z" fill="#F0DEAB"/>
<path d="M85.979 74.7149C91.9611 73.382 97.8163 70.5734 102.378 66.4558C107.361 61.9731 110.614 56.237 113.025 50.0486C111.32 63.2426 99.7363 75.0084 85.979 74.7149C89.2715 74.7863 89.1684 74.0008 85.979 74.7149Z" fill="#F0DEAB"/>
<path d="M98.7526 41.6703C100.855 42.5351 101.863 44.947 100.998 47.0495C100.133 49.1599 97.7212 50.1596 95.6188 49.2948C93.5084 48.43 92.5087 46.0181 93.3735 43.9156C94.2383 41.8052 96.6501 40.8056 98.7526 41.6703Z" fill="#F0DEAB"/>
<path d="M114.779 44.8281C116.881 45.6928 117.889 48.1048 117.024 50.2072C116.159 52.3176 113.747 53.3173 111.645 52.4525C109.543 51.5877 108.535 49.1758 109.4 47.0733C110.265 44.9629 112.676 43.9633 114.779 44.8281Z" fill="#F0DEAB"/>
<path d="M127.187 59.6959C129.29 60.5607 130.297 62.9726 129.432 65.0751C128.568 67.1775 126.156 68.1851 124.053 67.3203C121.951 66.4555 120.943 64.0436 121.808 61.9412C122.673 59.8387 125.085 58.8311 127.187 59.6959Z" fill="#F0DEAB"/>
<path d="M83.9556 1.77907C84.0825 3.80221 85.3599 5.35727 86.3437 7.01544C86.6372 7.50734 86.8038 7.95955 86.8752 8.38798C86.5658 8.37211 86.2485 8.37209 85.9311 8.41176C84.4872 8.60217 82.5037 9.60977 82.5354 11.3393C82.5672 13.1879 84.86 12.7913 85.7645 11.9582C86.3675 11.4028 86.9625 10.6094 87.3116 9.75258C89.3982 10.2048 90.9929 12.0376 91.7942 14.4971C92.1036 15.4491 92.3575 16.663 92.2226 17.734C91.58 17.0438 90.7946 16.5281 89.8504 16.2901C88.2557 15.8934 85.701 16.5836 85.5661 18.5354C85.4233 20.6299 87.9146 21.6533 89.6679 21.3519C90.8977 21.1376 91.7228 20.5268 92.2306 19.6858C93.2461 21.2487 93.8332 23.2957 93.9205 24.8587C94.0474 27.0087 93.0478 30.2537 90.9056 31.0391C90.9215 29.7697 90.7073 28.4368 90.1995 27.0405C89.6997 25.6679 88.3113 24.4461 86.9387 25.5886C85.1853 27.0404 85.3916 29.5793 86.8197 31.174C87.9384 32.4196 89.1046 32.6814 90.1836 32.364C89.8266 34.8077 88.3906 37.0212 86.4309 38.7349C84.3919 40.5201 81.9007 41.7419 79.3936 42.7415C77.2197 43.6142 74.5857 44.0982 74.0938 44.1299C72.4118 44.2172 71.7771 45.0027 77.7513 45.1058C79.4809 45.1375 81.2184 45.4232 82.8369 46.0579C85.6137 47.1289 88.3589 49.6281 88.8508 52.6905C89.2951 55.4198 87.3989 59.6723 83.9953 58.5061C82.7655 58.0856 81.8214 56.8479 82.4799 55.5547C83.1384 54.2536 84.3364 55.523 84.8045 54.563C83.2733 52.9921 81.266 54.8565 81.2184 56.5782C81.1787 58.1967 82.464 59.4105 83.9159 59.8628C87.5813 61.0052 90.3582 57.3477 90.5645 54.0393C90.8025 50.1359 87.9225 46.6767 84.5347 45.09C82.8686 44.3124 81.0756 43.9713 79.2667 43.9316C84.8521 41.8609 90.1678 37.6798 90.8342 32.1023C92.7304 31.1026 94.2378 28.413 94.5076 26.4295C94.8329 24.0811 94.3569 20.622 92.7463 18.3846C93.3413 15.8696 92.302 12.4501 91.0088 10.7047C90.1678 9.56218 88.9539 8.76088 87.5972 8.49113C87.6131 8.24518 87.5972 7.99923 87.5417 7.75328C87.0657 5.67462 85.2885 4.11958 84.741 2.04885C84.4157 0.819101 84.027 -1.42618 85.9866 -4.44897C83.5589 -1.32304 83.9 1.08885 83.9397 1.79496L83.9556 1.77907ZM85.7407 10.8237C85.225 11.2521 84.4951 11.6647 83.8207 11.3791C83.0353 11.0538 83.0591 10.5618 83.7493 10.2445C84.7966 9.76051 85.7883 9.59391 86.6928 9.66532C86.5023 10.062 86.2008 10.4429 85.7407 10.8237ZM88.8032 31.047C87.4861 30.6186 85.7883 28.9208 86.3833 27.3975C87.4385 24.7159 89.5251 27.461 89.9218 28.8335C90.1599 29.6348 90.263 30.4282 90.263 31.1978C89.8187 31.2533 89.3347 31.2137 88.8032 31.047ZM91.7704 19.059C91.4769 19.5033 91.0405 19.8682 90.4058 20.0745C89.5093 20.3681 88.5255 20.2094 87.6765 19.8365C87.0339 19.5588 85.4947 18.5116 86.6214 17.8927C88.7873 16.7106 90.5327 17.5198 91.7704 19.059Z" fill="#F0DEAB"/>
<path d="M37.1935 119.692C37.7488 119.612 40.7716 119.596 43.366 120.096C46.357 120.675 49.3719 121.501 52.0139 123.04C54.5527 124.523 56.6155 126.665 57.5279 129.3C56.2664 129.173 55.0208 129.712 54.0529 131.331C52.8073 133.401 53.1167 136.257 55.3778 137.495C57.1471 138.463 58.4165 136.813 58.6862 135.194C58.956 133.536 58.9084 132.021 58.6148 130.617C61.1537 131.037 62.9467 134.425 63.2641 136.829C63.4942 138.574 63.2799 140.962 62.4866 142.914C61.7408 142.097 60.6935 141.589 59.2892 141.613C57.282 141.645 54.7431 143.311 55.3461 145.604C55.9094 147.738 58.8925 147.96 60.5745 147.182C61.5662 146.722 62.3279 145.984 62.8991 145.08C63.272 146.238 63.2482 147.635 63.1133 148.753C62.7484 151.649 61.3758 154.013 59.1623 154.965C58.599 154.093 57.7739 153.339 56.9805 152.855C55.7983 152.125 53.1802 152.173 53.5292 154.228C53.8625 156.148 56.2744 156.846 57.9167 156.751C58.2737 156.727 58.6228 156.663 58.9639 156.584C58.9798 157.068 58.8925 157.607 58.6704 158.21C57.9325 160.257 56.8456 162.249 57.1392 164.518C57.2423 165.311 57.3772 168.048 60.7332 171C57.9087 168.072 57.8691 165.494 57.9643 164.066C58.1309 161.654 59.7732 159.559 59.8605 157.147C59.8684 156.87 59.8287 156.592 59.7573 156.322C61.1933 155.727 62.3755 154.585 63.0657 153.141C64.1209 150.935 64.5494 146.921 63.3513 144.263C64.6604 141.43 64.4541 137.503 63.5973 134.972C62.8674 132.838 60.63 130.18 58.3213 129.474C54.3702 118.264 41.692 118.43 38.1138 118.541C34.8133 119.462 35.6781 119.914 37.2014 119.7L37.1935 119.692ZM58.4879 155.196C57.4962 155.473 56.3696 155.497 55.1002 155.18C54.2671 154.973 54.1402 154.434 54.9335 153.902C55.6238 153.442 56.5282 153.744 57.1788 154.109C57.7659 154.434 58.1864 154.791 58.48 155.196H58.4879ZM62.1137 143.707C61.0664 145.675 59.3051 146.944 56.6552 146.095C55.2747 145.651 56.7663 144.16 57.4089 143.715C58.2658 143.128 59.3289 142.739 60.3841 142.874C61.1378 142.97 61.6932 143.279 62.1137 143.715V143.707ZM57.8611 130.569C58.0277 131.426 58.0833 132.322 57.9881 133.266C57.8294 134.869 56.1078 138.36 54.3703 135.615C53.3865 134.06 54.9097 131.807 56.2744 131.053C56.8218 130.751 57.3534 130.609 57.8611 130.569Z" fill="#F0DEAB"/>
<path d="M20.4374 32.2134C20.3977 32.3086 20.3105 32.388 20.1915 32.4038C20.0169 32.4356 19.8582 32.3166 19.8265 32.142L19.3108 28.9844C19.287 28.8098 19.3981 28.6511 19.5726 28.6194C19.7472 28.5876 19.9058 28.7067 19.9376 28.8812L20.4454 32.0389C20.4533 32.1023 20.4454 32.1579 20.4295 32.2055L20.4374 32.2134Z" fill="#F0DEAB"/>
<path d="M21.3735 30.1108C21.3338 30.2139 21.2386 30.2933 21.1196 30.3091C20.9451 30.3329 20.7864 30.206 20.7705 30.0314L20.35 26.604C20.3262 26.4295 20.4532 26.2708 20.6277 26.247C20.8023 26.2232 20.9609 26.3501 20.9768 26.5247L21.3973 29.9521C21.3973 30.0076 21.3973 30.0632 21.3735 30.1108Z" fill="#F0DEAB"/>
<path d="M22.516 28.5796C22.4684 28.6986 22.3494 28.7779 22.2145 28.7779C22.04 28.7779 21.8972 28.6272 21.9051 28.4526L21.9765 24.9379C21.9765 24.7634 22.1272 24.6206 22.3018 24.6285C22.4763 24.6285 22.6192 24.7793 22.6112 24.9538L22.5398 28.4685C22.5398 28.4685 22.5319 28.5478 22.516 28.5796Z" fill="#F0DEAB"/>
<path d="M23.9441 27.3658C23.8886 27.5086 23.7378 27.5879 23.5871 27.5562C23.4126 27.5165 23.3094 27.3499 23.3412 27.1833L24.0155 24.0019C24.0473 23.8352 24.2218 23.7242 24.3884 23.7559C24.563 23.7956 24.6661 23.9622 24.6344 24.1288L23.9679 27.3103C23.9679 27.3103 23.96 27.3499 23.9521 27.3658H23.9441Z" fill="#F0DEAB"/>
<path d="M30.5294 23.4147C30.5294 23.4147 30.5136 23.4543 30.4977 23.4702L28.3476 26.7627C28.2524 26.9055 28.0541 26.9531 27.9113 26.8579C27.7605 26.7627 27.7288 26.5644 27.8161 26.4216L29.9661 23.1369C30.0613 22.9862 30.2597 22.9465 30.4025 23.0417C30.5294 23.129 30.577 23.2877 30.5215 23.4305L30.5294 23.4147Z" fill="#F0DEAB"/>
<path d="M32.8935 23.6446C32.8935 23.6446 32.8696 23.6922 32.8538 23.716L30.5451 26.8737C30.4419 27.0165 30.2435 27.0483 30.1007 26.9451C29.9579 26.842 29.9183 26.6436 30.0293 26.5008L32.3381 23.3431C32.4412 23.2003 32.6396 23.1686 32.7824 23.2717C32.9014 23.359 32.9411 23.5177 32.8855 23.6526L32.8935 23.6446Z" fill="#F0DEAB"/>
<path d="M35.0672 23.9064C35.0672 23.9064 35.0513 23.9461 35.0355 23.9699L32.6791 27.3418C32.576 27.4846 32.3856 27.5163 32.2348 27.4211C32.092 27.318 32.0603 27.1276 32.1555 26.9768L34.5119 23.6049C34.615 23.4621 34.8133 23.4304 34.9561 23.5256C35.0831 23.6129 35.1227 23.7716 35.0672 23.9064Z" fill="#F0DEAB"/>
<path d="M37.4474 23.97C37.4474 23.97 37.4156 24.0255 37.3998 24.0493L34.488 27.6513C34.377 27.7861 34.1786 27.8099 34.0437 27.6989C33.9089 27.5878 33.8851 27.3895 33.9961 27.2546L36.9079 23.6526C37.019 23.5178 37.2173 23.494 37.3522 23.605C37.4632 23.6923 37.495 23.8431 37.4474 23.97Z" fill="#F0DEAB"/>
<path d="M40.7561 23.8432C40.7402 23.8829 40.7085 23.9305 40.6688 23.9622L36.4798 27.6118C36.3449 27.7228 36.1465 27.7149 36.0355 27.5801C35.9244 27.4452 35.9323 27.2468 36.0672 27.1358L40.2563 23.4862C40.3911 23.3672 40.5895 23.3831 40.7006 23.5179C40.7799 23.6131 40.7958 23.7401 40.7561 23.8511V23.8432Z" fill="#F0DEAB"/>
<path d="M43.723 23.2877C43.6992 23.3432 43.6595 23.3909 43.6119 23.4305L37.5187 27.5561C37.3759 27.6513 37.1776 27.6196 37.0824 27.4688C36.9792 27.326 37.0189 27.1277 37.1696 27.0245L43.2628 22.8989C43.4056 22.8037 43.604 22.8355 43.7071 22.9862C43.7706 23.0815 43.7785 23.1925 43.7388 23.2877H43.723Z" fill="#F0DEAB"/>
<path d="M42.9456 25.5964C42.9138 25.6678 42.8662 25.7313 42.7869 25.763L37.3363 28.3415C37.1777 28.4129 36.9873 28.3415 36.9159 28.1908C36.8445 28.0321 36.9079 27.8417 37.0666 27.7703L42.5171 25.1918C42.6758 25.1124 42.8662 25.1838 42.9376 25.3425C42.9773 25.4298 42.9773 25.5171 42.9376 25.5964H42.9456Z" fill="#F0DEAB"/>
<path d="M42.0652 28.1513C42.0255 28.2386 41.9541 28.3101 41.851 28.3339L36.5908 29.7223C36.4242 29.7699 36.2497 29.6667 36.2021 29.4922C36.1545 29.3256 36.2576 29.151 36.4242 29.1034L41.6844 27.715C41.851 27.6753 42.0255 27.7706 42.0731 27.9451C42.089 28.0165 42.0811 28.0879 42.0573 28.1434L42.0652 28.1513Z" fill="#F0DEAB"/>
<path d="M41.1525 30.2378C41.1128 30.3409 41.0176 30.4203 40.8986 30.4362L35.8448 31.0471C35.6702 31.0709 35.5115 30.944 35.4877 30.7694C35.4639 30.5949 35.5909 30.4362 35.7654 30.4124L40.8193 29.8015C40.9938 29.7777 41.1525 29.9046 41.1763 30.0791C41.1763 30.1347 41.1763 30.1902 41.1525 30.2378Z" fill="#F0DEAB"/>
<path d="M40.2718 32.1023C40.2242 32.2213 40.1052 32.3006 39.9782 32.3006L35.091 32.2371C34.9164 32.2371 34.7736 32.0943 34.7816 31.9119C34.7816 31.7373 34.9244 31.5945 35.1069 31.5945L39.9941 31.658C40.1686 31.658 40.3115 31.8008 40.3115 31.9832C40.3115 32.0229 40.3035 32.0626 40.2877 32.1023H40.2718Z" fill="#F0DEAB"/>
<path d="M38.8917 34.2206C38.8362 34.3554 38.6934 34.4427 38.5347 34.411L34.0362 33.5303C33.8617 33.4986 33.7506 33.332 33.7903 33.1574C33.822 32.9908 33.9886 32.8718 34.1632 32.9036L38.6616 33.7763C38.8362 33.808 38.9473 33.9746 38.9155 34.1491C38.9155 34.1729 38.9076 34.1888 38.8997 34.2126L38.8917 34.2206Z" fill="#F0DEAB"/>
<path d="M37.7252 35.7992C37.6617 35.942 37.503 36.0293 37.3444 35.9817L33.0839 34.7995C32.9173 34.7519 32.8141 34.5774 32.8617 34.4108C32.9093 34.2442 33.0839 34.141 33.2505 34.1886L37.511 35.3628C37.6776 35.4104 37.7807 35.585 37.7331 35.7516C37.7331 35.7675 37.7331 35.7754 37.7173 35.7913L37.7252 35.7992Z" fill="#F0DEAB"/>
<path d="M36.0591 37.632C36.0591 37.632 36.0512 37.6479 36.0432 37.6638C35.9639 37.8145 35.7656 37.878 35.6148 37.7987L31.8621 35.7993C31.7113 35.72 31.6479 35.5216 31.7272 35.3709C31.8066 35.2202 32.0049 35.1567 32.1557 35.2439L35.9084 37.2433C36.0512 37.3226 36.1146 37.4972 36.0512 37.64L36.0591 37.632Z" fill="#F0DEAB"/>
<path d="M34.9246 38.5921C34.9246 38.5921 34.9246 38.6159 34.9088 38.6238C34.8294 38.7746 34.6311 38.8381 34.4803 38.7508L30.7276 36.7515C30.5689 36.6721 30.5213 36.4738 30.6007 36.3231C30.68 36.1723 30.8784 36.1088 31.0291 36.1961L34.7818 38.1954C34.9246 38.2748 34.9881 38.4493 34.9246 38.5921Z" fill="#F0DEAB"/>
<path d="M33.2585 39.5678C33.2585 39.5678 33.2427 39.5996 33.2347 39.6154C33.1395 39.7662 32.9412 39.8059 32.7984 39.7106L29.363 37.4971C29.2123 37.4019 29.1726 37.2036 29.2678 37.0608C29.363 36.91 29.5614 36.8704 29.7042 36.9656L33.1395 39.1791C33.2744 39.2584 33.322 39.425 33.2585 39.5678Z" fill="#F0DEAB"/>
<path d="M31.0928 40.3929C31.0928 40.3929 31.061 40.4565 31.0372 40.4882C30.9182 40.6151 30.7199 40.623 30.585 40.504L27.8875 38.0207C27.7606 37.9017 27.7526 37.6954 27.8716 37.5764C27.9906 37.4495 28.189 37.4416 28.3239 37.5606L31.0214 40.0439C31.1245 40.1391 31.1483 40.2819 31.1007 40.3929H31.0928Z" fill="#F0DEAB"/>
<path d="M28.8472 40.7263C28.8234 40.7739 28.7917 40.8215 28.7441 40.8612C28.6013 40.9643 28.4029 40.9405 28.2998 40.7977L26.4115 38.3065C26.3004 38.1637 26.3322 37.9654 26.475 37.8622C26.6178 37.7591 26.8162 37.7829 26.9193 37.9257L28.8076 40.4169C28.879 40.5121 28.8869 40.6311 28.8472 40.7263Z" fill="#F0DEAB"/>
<path d="M26.1579 40.3058C26.1341 40.3613 26.1024 40.4089 26.0468 40.4486C25.904 40.5517 25.7057 40.5121 25.6026 40.3693L24.0872 38.2034C23.984 38.0606 24.0237 37.8622 24.1665 37.7591C24.3093 37.6559 24.5077 37.6956 24.6108 37.8384L26.1182 40.0043C26.1817 40.0995 26.1897 40.2106 26.15 40.3058H26.1579Z" fill="#F0DEAB"/>
<path d="M25.3723 26.7867C25.3167 26.9295 25.1581 27.0088 25.0073 26.9691C24.8407 26.9295 24.7296 26.7549 24.7693 26.5883L25.4754 23.6211C25.5151 23.4545 25.6896 23.3434 25.8562 23.3831C26.0308 23.4227 26.1339 23.5973 26.0943 23.7639L25.3882 26.7311C25.3882 26.7311 25.3802 26.7629 25.3723 26.7787V26.7867Z" fill="#F0DEAB"/>
<path d="M28.2997 23.4147L27.0382 26.493C26.9747 26.6597 26.7843 26.731 26.6257 26.6676C26.467 26.6041 26.3876 26.4137 26.4511 26.255L27.7205 23.1767C27.784 23.018 27.9744 22.9387 28.1331 23.0021C28.2918 23.0656 28.3711 23.256 28.3076 23.4147H28.2997Z" fill="#F0DEAB"/>
<path d="M5.91827 115.542C5.79926 117.09 6.0452 118.668 6.63231 120.104C8.14767 123.794 12.067 126.848 16.2005 125.975C19.7311 125.254 22.976 121.223 20.8815 117.693C20.2309 116.598 19.017 115.654 17.7 115.59C16.0815 115.519 14.1377 117.034 14.7169 118.811C15.0025 119.692 16.0418 120.454 16.9463 119.922C17.5334 119.573 17.2954 118.819 17.0733 119.168C16.5337 120.033 15.5103 119.168 15.4706 118.446C15.431 117.621 16.2323 116.978 16.9701 116.836C18.3982 116.558 19.6597 117.97 19.9136 119.256C20.1754 120.612 19.4296 121.953 18.4537 122.85C15.5023 125.547 11.464 123.936 9.25047 121.136C7.36221 118.74 7.37015 113.004 7.6161 110.735C6.98932 111.702 5.2677 114.17 4.36324 115.003C2.91928 116.336 1.13416 117.28 -0.769959 117.756C-5.03043 118.756 -10.5048 117.201 -10.9491 112.155C-11.1474 109.846 -9.96531 107.458 -7.43441 107.275C-5.83177 107.156 -3.79277 108.537 -4.75276 110.314C-5.49855 111.695 -7.40267 110.774 -7.43441 109.902C-8.28333 112.02 -5.09392 113.004 -4.00698 111.298C-2.88038 109.521 -3.30086 107.148 -4.93523 106.117C-6.34745 105.205 -8.28332 105.221 -9.78282 105.887C-13.6387 107.593 -14.1068 112.758 -12.2026 116.082C-8.19604 123.064 1.66571 121.239 5.90238 115.55L5.91827 115.542Z" fill="#F0DEAB"/>
<path d="M-12.6308 90.2333C-14.9872 88.2657 -17.7006 91.7566 -15.4473 92.5024C-16.0583 91.8042 -15.852 90.8363 -14.9158 90.7569C-13.2338 90.6141 -12.0755 92.185 -13.0037 94.0257C-13.932 95.8743 -16.8834 96.2154 -18.6526 94.8904C-22.8338 91.8676 -21.1439 86.4647 -17.7006 83.6878C-14.3684 80.9903 -9.77465 80.5461 -5.83153 82.0852C-5.72046 82.1328 -7.61665 81.3871 -5.83153 82.0852C-5.53798 82.2043 -5.37931 81.879 -5.49038 81.6806C-6.69633 80.9031 -8.02921 79.8955 -8.53698 79.3639C-9.71912 78.1421 -10.5998 76.6267 -11.0282 74.9765C-11.9168 71.5649 -10.9489 66.9554 -7.06921 65.9795C-4.60179 65.3527 -0.45239 67.0823 -1.99156 70.3193C-2.74527 72.1362 -6.15682 71.4618 -5.08575 69.7402C-4.99848 69.5974 -4.75254 69.3038 -4.1337 69.0341C-5.02229 68.7643 -5.65701 69.2721 -5.82362 69.8195C-6.49799 72.0806 -3.7846 73.0089 -2.1899 72.1997C-1.0871 71.6443 -0.53967 70.5256 -0.412728 69.3435C0.0236333 65.1068 -4.7446 63.2662 -8.18789 64.4245C-15.0269 66.7253 -14.2335 75.4129 -9.77466 79.6813C-12.3452 79.2052 -14.3683 79.4353 -16.3915 80.2128C-20.3901 81.7599 -23.8572 85.6554 -23.6668 90.1301C-23.5002 93.9542 -20.3029 98.1354 -16.1614 97.8339C-12.6943 97.58 -9.1717 93.1291 -12.6388 90.2333H-12.6308Z" fill="#F0DEAB"/>
<path d="M30.2286 83.5054C30.2038 83.5551 30.2038 83.5551 30.2286 83.5054Z" fill="#F0DEAB"/>
<path d="M43.3661 22.8117C39.7244 23.7875 36.5985 23.2004 33.4805 22.9069C30.1562 22.5975 26.5542 21.7406 23.1903 22.9069C20.35 23.8986 15.9705 30.5868 18.7077 35.9025C10.8849 39.9488 6.52127 45.5659 4.26806 49.4853C4.53781 47.5177 4.59337 45.558 4.75998 43.6301C5.79138 31.8642 -0.373218 28.2226 0.22182 24.1525C0.586777 21.6533 1.73718 18.813 4.60924 18.813C6.74344 18.813 10.0042 20.5823 10.0518 23.0259C10.0756 24.1763 9.15532 25.7551 7.92558 25.9297C6.79104 26.0963 5.38675 24.6206 6.6403 23.732C4.88692 24.565 6.75137 26.5961 8.10012 26.4771C9.55202 26.3422 10.75 24.7713 10.9722 23.4226C11.5117 20.1221 7.42575 17.5436 4.56163 17.5515C1.22942 17.5515 -0.61919 20.6378 -0.817536 23.6844C-0.936544 25.4933 -0.420832 27.5323 0.681972 29.3016C-1.90446 26.2312 -6.22047 24.5492 -10.8935 26.5882C-14.6224 28.2226 -17.2644 32.4513 -17.0819 36.5293C-16.8915 40.6787 -13.0356 45.3597 -8.48161 43.8919C-5.98245 43.0906 -4.79238 40.4804 -4.96692 37.9971C-5.63336 37.2989 -6.19666 39.0364 -6.42675 39.3855C-6.99798 40.2503 -7.74378 41.0516 -8.77518 41.3293C-10.8935 41.9085 -13.0277 40.1233 -13.8608 38.3065C-14.8446 36.2834 -14.5589 33.927 -13.7418 31.9039C-11.9804 27.5482 -6.56955 25.0808 -2.33288 27.7307C1.73718 30.2774 2.88758 36.3944 2.66543 40.7739C2.40362 46.1213 0.967582 51.3418 0.697831 56.6892C0.451882 61.5447 1.26114 66.3288 3.65716 70.5496C1.41189 69.0739 -1.88859 71.6207 0.213878 74.2944C-3.09454 73.5328 -3.72925 78.4121 -0.912738 78.6501C-4.11801 78.9436 -4.34808 82.8471 -1.42049 83.3628C-4.31635 83.7198 -4.53056 87.5757 -1.51569 87.4408C-4.74477 88.8054 -3.46743 91.5505 -0.904797 91.3283C-3.22941 93.6212 -1.119 97.2788 2.03074 96.414C-1.30148 98.3974 0.324951 101.523 4.00626 100.428C1.03106 102.436 3.06212 105.681 5.90243 104.998C3.12559 108.616 8.63962 112.424 10.7738 108.323C9.73449 111.845 15.6769 112.686 15.8515 108.997C16.7004 111.695 20.0485 110.988 20.7467 108.949C20.9133 109.275 21.0799 109.608 21.2703 109.925C23.3886 113.496 26.6653 115.915 30.1562 118.042C33.7344 120.223 37.9393 122.08 40.7162 125.317C42.9535 127.927 44.2467 132.085 41.8348 135.02C39.5261 137.821 35.099 138.416 32.5126 135.671C31.3542 134.433 30.6402 132.664 31.3939 131.029C31.9016 129.942 33.1155 128.919 34.385 129.078C36.178 129.3 36.7572 132.505 34.9641 132.116C34.9482 132.116 33.5122 130.942 33.8375 131.91C34.1231 132.799 35.1387 133.076 35.9241 132.703C38.1218 131.648 36.9635 128.848 35.2021 128.102C33.1949 127.253 30.9655 128.633 30.0213 130.418C27.6174 134.972 32.6633 139.622 37.0349 139.63C42.2633 139.63 46.2857 134.806 45.5637 129.712C44.8338 124.555 41.3271 121.517 37.2253 118.906C38.7962 118.684 40.2401 117.835 41.3509 116.733C43.6596 114.448 45.0718 110.584 43.4057 107.545C41.8666 104.737 37.2253 103.07 35.1466 106.26C34.3056 107.553 34.2501 109.449 35.6385 110.393C36.7254 111.123 38.6216 110.854 38.6295 109.227C37.6934 108.87 37.7172 110.322 36.5985 109.735C35.8289 109.338 35.7099 108.497 35.9955 107.759C36.9397 105.355 40.0497 106.331 41.1922 107.981C43.739 111.671 38.9073 116.994 34.98 117.534C30.8941 115.122 26.6257 112.837 24.1186 109.172C18.0333 100.286 25.0706 89.2894 30.2355 83.4263C30.2276 83.4501 30.2117 83.4738 30.2038 83.4897C30.2038 83.4738 30.2197 83.4501 30.2355 83.4263C30.6084 83.0058 31.3225 82.5456 31.6954 82.2044C32.3063 81.6332 32.1952 81.1492 29.7357 81.0778C28.8551 81.054 23.7536 79.7687 22.1034 79.1816C18.6918 77.9757 15.4469 76.2858 12.7652 73.8183C7.78277 69.2167 6.03732 62.3698 8.71896 56.0466C9.91697 53.2221 12.1384 50.4611 15.4072 50.2549C17.9619 50.0962 20.9291 51.3338 22.2541 53.6029C23.6663 56.0069 22.4763 60.6006 19.0885 60.307C17.7318 60.188 16.2244 58.9503 16.8353 57.4667C17.4779 55.8879 18.6442 57.4112 19.2392 56.475C17.8588 54.8406 15.8594 56.713 15.9388 58.3553C16.0102 59.8389 17.3986 60.9179 18.7632 61.1797C22.2541 61.862 24.539 57.9189 24.1106 54.8803C23.587 51.1672 19.6677 48.684 16.1609 48.4142C12.3527 48.1207 9.195 50.0724 7.01319 53.0634C2.34015 59.474 4.00624 68.2806 9.25052 73.8025C11.5989 76.2779 14.471 78.0709 17.6049 79.3403C2.7527 74.0008 2.82412 58.8472 3.6175 53.7299C4.60924 51.1911 8.67135 42.4638 19.3741 36.9498C22.1272 40.7898 27.4666 42.3369 30.9655 41.5038C36.4795 40.1947 39.9942 33.213 42.0173 28.2781C43.1836 25.4378 43.7469 23.1846 43.7548 23.1608L43.8818 22.6372L43.3581 22.78L43.3661 22.8117ZM2.95898 75.5162C2.83997 75.6987 2.73685 75.8891 2.62577 76.0795C2.60197 76.0716 2.57815 76.0478 2.55435 76.0399C1.93551 75.786 1.22146 76.0795 0.967579 76.6983C0.713696 77.3172 1.00727 78.0312 1.63404 78.2851C1.65785 78.293 1.6737 78.301 1.6975 78.301C1.6499 78.4517 1.60229 78.6025 1.57056 78.7532C1.07073 78.5231 0.547103 78.4041 -0.0558694 78.4438C-2.63437 77.1585 -0.44463 73.4851 2.96692 75.5083L2.95898 75.5162ZM-0.103471 79.0864C0.467766 79.0706 0.967601 79.134 1.4357 79.3879C1.39603 79.6339 1.36428 79.8798 1.34841 80.1178C0.832713 80.0702 0.317015 80.3558 0.110735 80.8636C-0.143148 81.4824 0.150401 82.1965 0.777175 82.4504C1.03899 82.5535 1.31668 82.5615 1.57056 82.4901C1.68957 82.8788 1.84824 83.2437 2.06245 83.5849C1.38014 83.0692 0.380494 82.855 -0.500163 83.0216C-2.73751 82.7757 -2.15042 79.142 -0.0955531 79.0864H-0.103471ZM0.420166 83.934C0.332894 84.0292 0.261474 84.1483 0.205937 84.2752C-0.0479462 84.894 0.245603 85.6081 0.872377 85.862C0.888245 85.862 0.912052 85.8699 0.92792 85.8778C0.872383 86.0285 0.816836 86.1793 0.769233 86.33C0.134525 86.3935 -0.476374 86.6236 -0.98414 86.9886C-2.99934 86.3697 -2.66612 83.696 0.428084 83.9419L0.420166 83.934ZM0.594712 86.9886C0.555043 87.2107 0.531236 87.4328 0.515368 87.655C-0.00826537 87.5994 -0.531913 87.885 -0.738193 88.3928C-0.992076 89.0117 -0.69851 89.7257 -0.07967 89.9796C0.190081 90.0907 0.475691 90.0907 0.729574 90.0113C0.769243 90.17 0.800973 90.3207 0.848576 90.4874C0.562958 90.5191 0.277341 90.5905 0.00759072 90.7095C-2.22182 91.1618 -3.44362 87.8613 0.594712 86.9886ZM1.07072 91.1062C1.17386 91.376 1.29287 91.6536 1.41981 91.9313C1.45155 91.9948 1.49122 92.0662 1.52296 92.1376C1.27701 92.2646 1.06279 92.4708 0.95172 92.7485C0.697837 93.3674 0.991387 94.0814 1.61816 94.3353C2.07832 94.5257 2.5861 94.4067 2.91932 94.0894C3.24461 94.4305 3.59369 94.7558 3.97451 95.0335C3.45088 95.2398 2.92726 95.5333 2.49883 95.9141C-0.0479346 97.1439 -3.18182 92.2566 1.07072 91.1062ZM4.64095 95.4619C4.98211 95.6444 5.32326 95.7872 5.68029 95.8824C5.32326 95.9776 5.01384 96.2235 4.8631 96.5964C4.60922 97.2153 4.90277 97.9293 5.52954 98.1832C5.71202 98.2625 5.90245 98.2784 6.09286 98.2625C6.14046 98.6275 6.21186 98.9924 6.30707 99.3574C5.75963 99.3733 5.23601 99.5082 4.78378 99.7779C1.10248 100.881 -0.579517 97.3264 4.64095 95.4698V95.4619ZM6.50541 99.9842C6.53715 100.079 6.58475 100.167 6.62441 100.262C6.29913 100.365 6.01351 100.611 5.87863 100.952C5.62475 101.571 5.91831 102.285 6.53715 102.539C6.98938 102.721 7.48127 102.618 7.81449 102.309C7.8859 102.396 7.94937 102.491 8.02078 102.579C7.10045 102.936 6.42608 103.539 6.09286 104.324C3.39535 105.109 2.51468 100.778 6.49747 99.9921L6.50541 99.9842ZM8.49682 103.07C8.56822 103.142 8.64756 103.205 8.71896 103.269C8.62376 103.372 8.54441 103.491 8.48887 103.618C8.23499 104.237 8.52854 104.951 9.15531 105.205C9.75829 105.451 10.4485 105.181 10.7183 104.594C10.8611 104.657 10.996 104.729 11.1547 104.792C10.6866 105.474 10.4009 106.181 10.4406 107.085C10.4485 107.299 10.4882 107.521 10.5517 107.736C7.66376 111.052 3.6651 105.633 8.49682 103.063V103.07ZM11.7656 105.03C11.8925 105.078 12.0274 105.109 12.1543 105.157C11.9798 105.744 12.2733 106.379 12.8525 106.617C13.4713 106.871 14.1854 106.577 14.4393 105.958C14.4789 105.863 14.4948 105.776 14.5107 105.673C14.6455 105.689 14.7804 105.712 14.9153 105.72C14.7963 106.672 14.9629 107.672 15.4389 108.465C14.7011 110.711 9.48853 109.751 11.7576 105.03H11.7656ZM19.6518 106.244C19.6518 106.244 19.6359 106.268 19.6359 106.292C20.4769 109.751 15.0581 111.29 15.55 105.76C15.788 105.768 16.0181 105.76 16.2561 105.76C16.272 106.22 16.5497 106.649 17.0019 106.839C17.6207 107.093 18.3348 106.799 18.5887 106.181C18.7156 105.879 18.7077 105.554 18.5887 105.268C18.8346 105.157 19.0726 105.03 19.2868 104.879C19.39 105.347 19.509 105.808 19.6518 106.26V106.244ZM17.1606 90.5112C15.0264 92.0583 11.5989 95.4143 11.234 96.2315C12.2336 96.0966 15.6769 92.7327 17.3668 90.7016C17.6207 90.9317 17.8905 91.1379 18.1523 91.3283C15.3913 93.4943 13.0429 97.0169 12.2416 100.302C15.0898 98.4609 17.6525 95.0811 18.7949 91.7489C19.0171 91.8837 19.2392 92.0106 19.4455 92.1138C18.2634 94.3115 17.3827 96.8265 16.9543 99.2622C18.1999 97.1359 19.152 94.6685 19.6756 92.2328C20.1913 92.4867 20.6277 92.6454 20.8974 92.7406C19.9612 94.6447 19.2868 96.6758 19.0012 98.8021C18.8584 99.889 18.8267 100.976 18.8902 102.063C18.5649 103.412 15.9784 103.507 14.9074 103.634C13.4158 103.808 11.8846 103.245 10.7024 102.396C6.58476 99.4605 7.65581 96.5805 8.10804 95.7396C9.23465 93.883 16.4148 89.6623 16.4148 89.6623C16.6528 89.9637 16.8987 90.2494 17.1606 90.5032V90.5112ZM15.6135 88.377C15.7404 88.6547 15.8912 88.9085 16.0498 89.1545C16.0498 89.1545 9.86937 93.4784 6.6641 94.1131C5.03766 94.3829 3.44296 91.7727 2.94312 90.7175C1.84825 88.4008 2.2846 86.8299 3.72062 85.0368C5.36293 84.3148 14.9708 85.2828 14.9708 85.2828C14.9708 85.4414 14.9629 85.6001 14.9708 85.7509C12.8763 85.3066 10.512 85.3303 8.43333 85.616C10.4803 86.1634 12.8525 86.2507 14.9946 86.0603C15.0184 86.2904 15.0502 86.5046 15.0898 86.7188C12.0274 86.3776 8.42542 87.1869 5.99766 88.8292C8.86971 89.5353 12.5589 89.0434 15.3199 87.6391C15.3675 87.7819 15.4151 87.9247 15.4786 88.0596C13.4475 88.8768 11.4482 90.0748 9.82175 91.4791C11.8449 90.7968 13.8839 89.7019 15.6135 88.377ZM23.2141 88.972C22.8253 89.4877 22.4683 90.0272 22.1272 90.5746C16.9781 88.0675 17.3193 84.3307 18.2713 82.26C19.0885 82.5138 19.9533 82.5773 20.7863 82.736C19.2075 86.2587 21.3734 88.5198 23.2141 88.98V88.972ZM15.8674 81.2047C15.788 81.3952 15.7245 81.5856 15.6531 81.776C13.7649 80.4749 11.5989 79.4197 9.44886 78.7532C11.234 80.1496 13.3682 81.3238 15.5341 82.133C15.4786 82.2997 15.431 82.4663 15.3834 82.6329C12.8287 80.5383 9.03631 79.2054 5.83897 79.3324C8.14772 81.5777 11.9004 83.1248 15.2168 83.2517C15.193 83.3628 15.1612 83.4739 15.1374 83.577C13.0667 82.9502 10.7897 82.6408 8.66342 82.7281C10.6548 83.458 12.916 83.8785 15.074 83.9182C15.0343 84.172 15.0105 84.41 14.9946 84.6481C14.9946 84.6481 7.7193 84.4101 4.26014 83.6722C1.64991 79.1658 4.87103 76.0636 6.84656 74.9053C9.32192 77.5472 12.4558 79.7608 15.8594 81.2206L15.8674 81.2047ZM4.2522 71.5969C4.66476 72.2316 5.11699 72.8504 5.59302 73.4534C5.55336 73.4296 5.51369 73.4137 5.47402 73.3979C5.34708 73.144 5.13287 72.9298 4.85518 72.8108C4.23634 72.5569 3.5223 72.8504 3.26841 73.4693C3.078 73.9215 3.18907 74.4213 3.50642 74.7625C3.45088 74.8339 3.38741 74.9053 3.33187 74.9767C2.68923 74.4769 1.82444 74.1754 0.999321 74.1833C-0.26216 72.4696 1.77685 70.5655 3.81585 71.462C3.95073 71.5255 4.06971 71.4779 4.14112 71.3985C4.18079 71.462 4.21254 71.5334 4.26014 71.5969H4.2522ZM20.6753 36.3151C22.2224 36.2754 24.6819 36.0295 27.6332 35.0536C32.0683 33.5938 34.8927 30.5868 34.3374 29.3412C33.782 28.0956 29.4818 27.9369 25.618 30.5472C22.8015 32.4513 20.9291 34.1491 19.8977 35.1964C19.993 34.2761 20.231 32.7369 20.8419 31.2374C21.6115 29.3571 22.746 28.0798 24.2058 27.4451C26.4432 26.4692 28.8789 26.9135 31.2273 27.3419C33.2504 27.7069 35.1704 28.0639 36.9635 27.572C36.9317 27.6434 36.9079 27.7227 36.8682 27.802C35.9003 30.1584 33.1314 35.7994 28.3076 37.3465C25.9433 38.1081 23.3807 37.7511 20.6753 36.3151ZM41.4381 28.0559C39.4705 32.8559 36.0114 38.8301 30.7592 40.0837C27.6729 40.8136 24.2931 39.7901 20.707 37.045C23.4442 38.4255 26.0623 38.7349 28.498 37.9415C33.5757 36.3071 36.4477 30.4678 37.4474 28.0322C37.6696 27.4847 37.7806 27.1515 37.7806 27.1515L37.9948 26.5009L37.3602 26.7548C35.5512 27.4689 33.5043 27.096 31.3304 26.6993C28.8868 26.255 26.3559 25.7948 23.944 26.85C22.3255 27.5561 21.0878 28.9445 20.2468 30.9835C19.7073 32.2926 19.4455 33.6176 19.3186 34.5696C19.1996 32.9511 19.2075 30.3726 20.112 28.175C20.8657 26.3343 22.1113 25.0728 23.8171 24.4302C27.0065 23.2242 30.0689 23.5099 33.3139 23.8113C36.3367 24.097 39.4626 24.3826 42.9932 23.5416C42.7631 24.3588 42.2474 26.0566 41.4223 28.048L41.4381 28.0559Z" fill="#F0DEAB"/>
<path d="M47.2777 128.006C46.6906 124.69 51.3398 123.794 52.1014 127.15C52.9662 130.982 47.8568 131.251 47.2777 128.006Z" fill="#F0DEAB"/>
<path d="M47.4365 133.735C48.1505 130.87 52.3 131.783 51.6415 134.774C50.8719 138.249 46.7383 136.591 47.4365 133.735Z" fill="#F0DEAB"/>
<path d="M45.1119 138.471C46.4924 136.146 50.2213 138.55 48.0553 140.764C46.4209 142.422 43.9139 140.494 45.1119 138.471Z" fill="#F0DEAB"/>
<path d="M41.4779 140.661C43.5883 140.082 44.5404 143.215 42.3427 143.731C39.8832 144.31 39.3754 141.256 41.4779 140.661Z" fill="#F0DEAB"/>
<path d="M36.948 141.454C38.741 141.502 38.7331 144.231 36.8925 144.072C34.5202 143.874 35.1549 141.414 36.948 141.454Z" fill="#F0DEAB"/>
<path d="M32.8382 143.39C31.426 143.152 31.783 141.129 33.1793 141.367C34.5757 141.597 34.2584 143.62 32.8382 143.39C33.465 143.493 32.2114 143.287 32.8382 143.39Z" fill="#F0DEAB"/>
<path d="M21.9843 6.58685C19.6914 3.55612 15.3278 3.92904 12.1622 5.07945C9.5361 6.03944 7.25114 7.75316 5.33909 9.83976C4.9424 9.15745 4.59331 8.42751 4.29976 7.63412C3.41117 5.26984 3.10175 2.5168 4.13315 0.152516C4.55365 -0.807479 5.3153 -1.72781 6.24356 -2.43393C6.25943 -2.39426 6.27529 -2.35457 6.29116 -2.3149C7.29876 -0.180694 11.4799 1.7869 11.9559 -1.71986C12.1067 -2.81473 11.5275 -4.21108 10.4723 -4.53637C9.15527 -4.94099 7.57644 -4.0207 6.36256 -3.03691C6.34669 -3.07657 6.32289 -3.11621 6.31496 -3.15588C5.12488 -6.31355 7.37015 -10.8835 10.5437 -12.0418C10.4882 -11.4944 10.504 -10.939 10.631 -10.3598C10.9801 -8.8286 12.4161 -7.09107 14.1377 -7.4243C15.3595 -7.66231 15.8276 -9.26496 15.542 -10.3122C15.1295 -11.8276 13.3523 -12.9542 11.8369 -12.9542C11.5116 -12.9542 11.1943 -12.8907 10.8848 -12.7876C11.2577 -14.7552 12.5113 -16.5879 12.7017 -18.5952C12.8683 -20.3485 12.4716 -23.649 10.0677 -23.1571C9.187 -22.9826 7.79065 -21.729 7.29875 -21.007C8.65544 -22.6017 10.5199 -23.1809 11.6941 -21.9115C12.9556 -20.5469 12.4558 -18.1429 11.9401 -16.5879C11.5116 -15.2947 10.9007 -14.0173 10.6389 -12.6924C9.7027 -12.3116 8.84586 -11.5578 8.20322 -10.8834C6.26736 -8.86824 5.10901 -5.52017 6.08487 -2.80679C5.77545 -2.53704 5.48983 -2.27525 5.24389 -2.03723C2.23696 0.922091 3.00654 5.81726 4.60125 9.26055C4.74405 9.56204 4.8948 9.86352 5.04554 10.1491C3.56984 11.8311 2.18936 13.5528 1.03896 15.3934C-1.46814 19.4 -2.206 23.2797 -0.912786 27.8575C-0.492292 28.2145 0.277299 28.9127 0.658124 29.3094C0.372506 27.5401 -0.159061 25.4298 -0.159061 23.6288C-0.143194 18.8288 1.58639 14.9491 4.57745 11.252C4.78373 10.9901 5.00586 10.7363 5.23594 10.4903C7.21941 13.9812 10.4009 16.4883 14.4789 17.1071C17.6048 17.5832 20.8736 16.5756 22.4603 13.6956C23.6822 11.4821 23.5076 8.59411 21.9764 6.57891L21.9843 6.58685ZM10.861 -12.1291C12.662 -12.6448 15.4944 -11.1215 15.2643 -9.02695C15.1533 -7.97968 13.9553 -7.70993 13.1143 -7.94002C11.6465 -8.34464 10.8134 -10.1932 10.7738 -11.5737C10.7738 -11.7562 10.7738 -11.9307 10.7896 -12.1132C10.8134 -12.1132 10.8372 -12.1291 10.861 -12.137V-12.1291ZM9.99625 -3.70332C11.7972 -3.57638 12.3526 -1.05345 10.6468 -0.315602C9.06006 0.374642 7.29876 -1.24386 6.54505 -2.64815C7.59232 -3.3622 8.81411 -3.79059 9.99625 -3.70332ZM14.6138 15.7346C10.5278 15.2903 7.48916 13.3306 5.53743 10.1809C8.73477 6.85662 13.3602 4.77797 18.1681 5.82523C21.3575 6.52341 23.4679 8.68137 22.8491 11.8311C22.1033 15.5918 18.057 16.1075 14.6138 15.7346Z" fill="#F0DEAB"/>
</g>
<defs>
<clipPath id="clip0_893_9186">
<rect width="135" height="174" fill="white"/>
</clipPath>
</defs>
</svg>
