<svg width="393" height="102" viewBox="0 0 393 102" fill="none" xmlns="http://www.w3.org/2000/svg">
<g clip-path="url(#clip0_894_12111)">
<path d="M155.192 45.6976C158.187 43.3178 158.82 39.3072 156.041 38.2588C153.96 37.4766 151.081 38.8413 152.03 44.4162C152.679 44.2165 154.393 44.5493 155.192 45.6976Z" fill="#F0DEAB"/>
<path d="M149.284 49.1758C148.752 48.5435 149.035 47.4784 149.001 46.6796C145.374 43.2514 140.498 45.1153 140.914 48.1773C141.313 51.1063 145.424 51.6554 149.301 49.1758H149.284Z" fill="#F0DEAB"/>
<path d="M146.422 56.3818C146.688 57.4802 148.552 58.7117 149.717 58.1459C152.014 57.0642 153.079 53.7025 151.897 50.9234C151.148 50.9234 150.4 50.6572 149.8 50.0747C145.174 52.0384 146.206 55.4499 146.422 56.3818Z" fill="#F0DEAB"/>
<path d="M127.268 95.8388C122.242 95.7722 121.826 99.3169 121.643 100.249C121.443 101.364 122.658 103.228 123.956 103.194C126.485 103.128 128.832 100.482 128.849 97.4697C128.15 97.1868 127.584 96.621 127.268 95.8388Z" fill="#F0DEAB"/>
<path d="M119.879 90.5301C119.063 93.3758 122.624 95.5225 127.151 94.8236C126.918 94.0248 127.6 93.1594 127.883 92.4272C125.936 87.8341 120.727 87.5679 119.879 90.5301Z" fill="#F0DEAB"/>
<path d="M153.661 45.3817C151.331 43.5511 148.086 47.6783 151.032 49.6087C153.944 51.5058 156.307 47.4619 153.661 45.3817Z" fill="#F0DEAB"/>
<path d="M158.321 56.8973C160.501 55.2498 157.838 50.4237 154.843 50.0576C154.477 50.7233 153.844 51.2059 153.046 51.4389C152.397 56.4314 156.058 58.5948 158.321 56.8973Z" fill="#F0DEAB"/>
<path d="M155.508 46.2634C155.824 47.0123 156.224 48.7263 155.358 49.575C156.64 50.2407 163.496 50.7566 162.614 46.5962C161.998 43.7339 157.389 43.9336 155.508 46.2634Z" fill="#F0DEAB"/>
<path d="M196.43 75.6527C197.245 70.8932 200.208 64.9522 202.754 60.8084C204.301 58.2955 201.922 55.583 199.159 56.1488C200.79 53.9687 198.261 49.6086 196.43 46.2637C194.599 49.6086 192.07 53.9854 193.701 56.1488C190.938 55.583 188.558 58.2955 190.106 60.8084C192.652 64.9522 195.631 70.8932 196.43 75.6527Z" fill="#F0DEAB"/>
<path d="M149.734 45.7311C149.917 45.4482 151.199 44.2167 151.432 44.017C150.966 38.9247 148.569 36.3619 146.173 38.2757C143.327 40.5556 147.038 45.4981 149.734 45.7311Z" fill="#F0DEAB"/>
<path d="M132.344 105.508C135.007 104.875 134.491 99.3836 131.911 97.8359C131.312 98.2853 130.547 98.5016 129.715 98.3851C127.119 102.695 129.598 106.157 132.361 105.508H132.344Z" fill="#F0DEAB"/>
<path d="M161.001 41.554C163.098 39.6236 170.37 38.0592 170.021 43.2514C169.954 44.3664 170.32 45.1486 170.936 46.0306C172.5 48.2772 175.928 47.0623 176.378 50.3574C176.444 50.8566 177.01 51.1395 177.343 50.8067C183.617 44.9156 180.521 37.9261 174.198 36.8777C177.31 36.1788 180.372 35.3134 183.334 34.1485C188.526 32.1182 192.803 28.7233 196.431 24.6794C200.059 28.7399 204.336 32.1182 209.528 34.1485C212.507 35.3134 215.569 36.1788 218.664 36.8777C212.34 37.9261 209.245 44.9156 215.519 50.8067C215.868 51.1395 216.417 50.8566 216.484 50.3574C216.933 47.079 220.361 48.2772 221.926 46.0306C222.541 45.1486 222.908 44.3664 222.841 43.2514C222.508 38.0592 229.781 39.6236 231.861 41.554C232.443 42.0865 233.175 41.0381 232.576 40.5388C228.982 37.6099 224.239 36.7445 224.222 36.7279C222.358 36.3951 217.416 34.7143 217.732 29.6386C217.815 28.3738 217.466 27.3088 216.867 26.1938C215.186 23.0152 211.325 21.9335 210.609 18.0893C210.543 17.7066 210.11 17.5068 209.744 17.64C205.068 19.2708 204.768 28.69 210.26 33.0334C196.164 25.4449 197.696 17.0742 199.826 17.59C200.907 17.8397 200.441 19.9865 201.157 20.336C204.552 21.9502 204.835 15.5598 201.972 14.5114C199.11 13.4463 197.396 14.761 196.431 16.5749C195.466 14.761 193.735 13.4463 190.889 14.5114C188.027 15.5765 188.326 21.9668 191.705 20.336C192.42 20.0031 191.971 17.8563 193.036 17.59C195.166 17.0908 196.697 25.4615 182.602 33.0334C188.093 28.69 187.794 19.2875 183.117 17.64C182.735 17.5068 182.319 17.7066 182.252 18.0893C181.537 21.9335 177.692 23.0152 175.995 26.1938C175.396 27.3088 175.046 28.3738 175.129 29.6386C175.446 34.7143 170.503 36.3951 168.639 36.7279C168.623 36.7279 163.88 37.6099 160.285 40.5388C159.669 41.0381 160.418 42.0865 161.001 41.554Z" fill="#F0DEAB"/>
<path d="M123.823 38.0593C125.354 38.0593 126.602 36.8111 126.602 35.2801C126.602 33.7491 125.354 32.501 123.823 32.501C122.292 32.501 121.044 33.7491 121.044 35.2801C121.044 36.8111 122.292 38.0593 123.823 38.0593Z" fill="#F0DEAB"/>
<path d="M97.812 63.2047C98.1947 63.8038 98.9602 63.0051 98.877 62.7055C96.8634 55.3499 110.426 56.5814 107.564 48.3105C109.877 48.1441 112.274 48.9263 114.254 51.0731C114.786 51.6555 115.818 50.9232 115.269 50.3574C102.871 37.61 91.6379 53.7524 97.812 63.1881V63.2047Z" fill="#F0DEAB"/>
<path d="M97.5623 38.1096C99.0934 38.1096 100.341 36.8614 100.341 35.3304C100.341 33.7994 99.0934 32.5513 97.5623 32.5513C96.0313 32.5513 94.7832 33.7994 94.7832 35.3304C94.7832 36.8614 96.0313 38.1096 97.5623 38.1096Z" fill="#F0DEAB"/>
<path d="M150.316 105.324C150.599 104.892 150.366 104.276 149.8 104.309C144.958 104.659 141.063 99.4001 136.537 103.178C136.454 103.244 136.404 103.327 136.354 103.411C136.004 103.377 135.638 103.594 135.655 104.043C135.788 106.639 134.773 108.536 133.025 110.384C131.977 111.482 130.413 111.881 129.331 112.946C127.401 114.827 130.23 119.004 130.429 121.018C130.446 121.284 130.662 121.55 130.929 121.583C139.499 122.432 140.148 111.598 137.436 105.508C139.116 107.238 139.699 109.585 139.998 112.064C140.315 114.794 138.734 117.606 138.384 120.302C137.785 124.928 143.11 125.428 143.693 129.355C143.776 129.904 144.641 130.204 144.874 129.571C147.504 122.016 146.139 114.494 141.113 108.27C140.93 108.054 140.681 108.004 140.464 108.054C140.414 107.921 140.348 107.804 140.298 107.671C141.296 108.403 142.345 109.036 143.493 109.335C146.638 110.151 148.735 107.688 150.333 105.308L150.316 105.324Z" fill="#F0DEAB"/>
<path d="M110.659 38.0593C112.19 38.0593 113.438 36.8111 113.438 35.2801C113.438 33.7491 112.19 32.501 110.659 32.501C109.128 32.501 107.88 33.7491 107.88 35.2801C107.88 36.8111 109.128 38.0593 110.659 38.0593Z" fill="#F0DEAB"/>
<path d="M111.974 53.4362C111.658 53.5526 111.491 53.9188 111.608 54.2183C112.49 56.6979 111.824 60.2259 114.004 61.7403C118.215 64.6526 119.28 68.9794 118.83 76.2018C118.747 77.4 118.531 80.2125 118.864 81.1777C117.432 73.6058 111.142 73.4227 108.446 73.7555C107.88 73.8221 107.714 74.4545 108.097 74.8373C110.626 77.4334 109.494 81.4772 112.324 83.9568C114.936 86.2201 122.375 86.4864 125.237 87.6347C123.823 83.441 130.596 73.456 129.464 68.1473C129.365 67.6481 128.948 67.6647 128.383 67.7979C123.84 68.813 120.528 72.5074 121.659 82.9417C118.897 80.9614 120.528 67.8811 124.605 64.7857C130.163 60.5588 137.702 59.9763 143.41 56.0322C144.059 55.5829 143.36 54.5678 142.694 55.0171C138.035 58.229 131.911 59.3273 126.852 61.9566C130.596 59.3106 134.107 55.3666 133.791 48.6933C133.775 48.3272 133.342 47.9944 132.959 48.1608C130.529 49.2924 126.569 48.893 125.237 53.7357C125.354 49.7916 125.237 44.4497 119.712 41.6539C119.346 41.4709 118.964 41.9368 118.98 42.3029C119.147 45.1154 118.115 47.362 117.416 50.008C117.066 51.3393 117.216 52.6374 117.616 53.8689C115.968 52.887 114.088 52.6707 111.991 53.4029L111.974 53.4362Z" fill="#F0DEAB"/>
<path d="M134.041 94.6407C134.041 95.4562 133.708 97.1702 132.576 97.6196C133.475 98.7512 139.549 101.963 140.414 97.8026C141.013 94.9236 136.703 93.2595 134.041 94.6407Z" fill="#F0DEAB"/>
<path d="M128.582 95.9057C130.479 98.818 134.273 96.0721 132.692 93.0933C131.295 90.4806 126.652 92.9601 128.582 95.9057Z" fill="#F0DEAB"/>
<path d="M131.595 91.5618C132.277 91.645 133.708 92.6435 133.974 94.0081C137.686 93.0262 139.866 89.6147 137.752 87.5345C136.171 85.9868 132.993 86.07 131.611 91.5618H131.595Z" fill="#F0DEAB"/>
<path d="M137.919 77.167C137.852 77.2669 137.802 77.3667 137.802 77.4998C137.686 83.8736 142.112 88.5665 148.802 87.3184C149.401 87.2019 149.801 86.6527 149.318 86.2367C146.655 83.9401 145.657 80.5286 147.854 77.5332C148.087 77.217 148.02 76.751 147.637 76.5846C144.575 75.2865 141.047 74.3712 138.068 76.335C137.735 76.5513 137.752 76.9174 137.919 77.167Z" fill="#F0DEAB"/>
<path d="M128.699 83.5739C125.171 84.5225 126.586 90.5467 128.965 91.8448C129.248 91.6617 130.912 91.0293 131.212 90.9461C132.843 86.1034 131.678 82.7917 128.716 83.5739H128.699Z" fill="#F0DEAB"/>
<path d="M137.802 40.8386C139.333 40.8386 140.581 39.5905 140.581 38.0594C140.581 36.5284 139.333 35.2803 137.802 35.2803C136.271 35.2803 135.022 36.5284 135.022 38.0594C135.022 39.5905 136.271 40.8386 137.802 40.8386Z" fill="#F0DEAB"/>
<path d="M159.752 62.4723C159.386 62.9716 159.835 63.6206 160.435 63.4542C173.748 59.5767 175.362 81.8598 180.072 88.583C184.715 95.2064 192.42 93.459 196.43 96.6542C200.424 93.459 208.146 95.2064 212.789 88.583C217.515 81.8432 219.113 59.5767 232.426 63.4542C233.025 63.6206 233.474 62.9882 233.108 62.4723C228.266 55.8823 218.131 51.672 210.675 56.6644C210.526 56.7643 210.409 56.8808 210.276 56.9806C210.742 54.8006 210.409 52.3709 209.411 50.4571C207.547 46.9124 204.618 46.8792 202.072 48.9927C204.435 42.4026 200.474 36.6945 196.447 32.5674C192.403 36.6779 188.459 42.386 190.822 48.9927C188.276 46.8958 185.347 46.9291 183.483 50.4571C182.485 52.3709 182.152 54.8006 182.618 56.9806C182.485 56.8808 182.351 56.7643 182.202 56.6644C174.746 51.6553 164.612 55.8656 159.769 62.4723H159.752ZM190.988 50.8731C191.538 51.0562 192.153 51.1228 192.103 50.4738C191.771 45.5146 191.92 40.6053 196.43 38.1756C200.94 40.6053 201.09 45.5146 200.757 50.4738C200.707 51.1228 201.323 51.0562 201.872 50.8731C204.452 50.0244 210.16 50.9064 208.462 58.4784C202.238 61.2076 200.674 72.3741 196.43 79.0141C192.187 72.3741 190.622 61.2076 184.398 58.4784C182.701 50.9064 188.409 50.0244 190.988 50.8731Z" fill="#F0DEAB"/>
<path d="M237.668 45.6976C238.45 44.5493 240.181 44.2165 240.83 44.4162C241.762 38.8413 238.9 37.4766 236.819 38.2588C234.04 39.3072 234.673 43.3178 237.668 45.6976Z" fill="#F0DEAB"/>
<path d="M243.876 46.6962C243.842 47.495 244.109 48.5601 243.593 49.1925C247.47 51.6554 251.581 51.1229 251.98 48.194C252.396 45.1319 247.52 43.2847 243.892 46.6962H243.876Z" fill="#F0DEAB"/>
<path d="M243.143 58.1459C244.308 58.7117 246.188 57.4802 246.438 56.3818C246.654 55.4499 247.686 52.0384 243.06 50.0747C242.461 50.6572 241.712 50.94 240.963 50.9234C239.781 53.6859 240.846 57.0642 243.143 58.1459Z" fill="#F0DEAB"/>
<path d="M265.593 95.8388C265.276 96.621 264.711 97.1701 264.012 97.4697C264.045 100.482 266.375 103.128 268.904 103.194C270.202 103.244 271.417 101.364 271.218 100.249C271.034 99.3169 270.618 95.7722 265.593 95.8388Z" fill="#F0DEAB"/>
<path d="M264.977 92.3943C265.259 93.1432 265.942 94.0252 265.709 94.8074C270.252 95.5063 273.797 93.3595 272.981 90.5138C272.132 87.535 266.924 87.8012 264.977 92.3943Z" fill="#F0DEAB"/>
<path d="M239.216 45.3817C236.57 47.4619 238.933 51.5058 241.846 49.6087C244.791 47.6783 241.546 43.5511 239.216 45.3817Z" fill="#F0DEAB"/>
<path d="M234.54 56.8973C236.803 58.5948 240.464 56.4314 239.815 51.4389C239 51.2059 238.384 50.7233 238.018 50.0576C235.023 50.4404 232.36 55.2665 234.54 56.8973Z" fill="#F0DEAB"/>
<path d="M230.246 46.5967C229.364 50.7571 236.22 50.2578 237.485 49.5755C236.62 48.7101 237.019 47.0127 237.335 46.2638C235.455 43.9174 230.845 43.7343 230.229 46.5967H230.246Z" fill="#F0DEAB"/>
<path d="M243.126 45.7311C245.822 45.4981 249.533 40.5556 246.687 38.2757C244.291 36.3619 241.895 38.9413 241.445 44.017C241.678 44.2167 242.96 45.4482 243.143 45.7311H243.126Z" fill="#F0DEAB"/>
<path d="M260.967 97.8525C258.387 99.4002 257.871 104.892 260.534 105.524C263.28 106.173 265.776 102.712 263.18 98.4017C262.348 98.5182 261.582 98.3185 260.983 97.8525H260.967Z" fill="#F0DEAB"/>
<path d="M307.247 40.5222C308.145 40.905 309.227 40.8052 310.043 40.1395C311.241 39.191 311.44 37.4436 310.475 36.2454C310.242 35.9458 309.943 35.7128 309.626 35.5464C309.294 35.3967 308.928 35.3301 308.545 35.3301C307.014 35.3301 305.766 36.5782 305.766 38.1092C305.766 39.1577 306.365 40.0729 307.213 40.5389L307.247 40.5222Z" fill="#F0DEAB"/>
<path d="M196.431 15.7926C197.662 14.7608 198.544 13.5793 197.962 11.6322C197.912 11.4325 197.779 11.316 197.629 11.2328C197.462 10.7003 197.279 10.1843 197.03 9.6851V9.30237C197.03 8.98618 196.813 8.63672 196.464 8.63672H196.364C196.015 8.63672 195.798 8.98618 195.798 9.30237V9.6851C195.565 10.1843 195.382 10.7003 195.199 11.2328C195.049 11.2994 194.933 11.4325 194.866 11.6322C194.284 13.5959 195.166 14.7608 196.397 15.7926H196.431Z" fill="#F0DEAB"/>
<path d="M269.038 38.0593C270.569 38.0593 271.817 36.8111 271.817 35.2801C271.817 33.7491 270.569 32.501 269.038 32.501C267.507 32.501 266.259 33.7491 266.259 35.2801C266.259 36.8111 267.507 38.0593 269.038 38.0593Z" fill="#F0DEAB"/>
<path d="M278.606 51.0731C280.57 48.9264 282.983 48.1442 285.296 48.3106C282.45 56.5815 296.013 55.35 293.983 62.7056C293.9 63.0051 294.665 63.8039 295.048 63.2048C301.222 53.7524 289.989 37.6267 277.591 50.3742C277.042 50.94 278.074 51.6555 278.606 51.0897V51.0731Z" fill="#F0DEAB"/>
<path d="M295.298 38.1096C296.829 38.1096 298.077 36.8614 298.077 35.3304C298.077 33.7994 296.829 32.5513 295.298 32.5513C293.767 32.5513 292.519 33.7994 292.519 35.3304C292.519 36.8614 293.767 38.1096 295.298 38.1096Z" fill="#F0DEAB"/>
<path d="M243.077 104.31C242.511 104.277 242.278 104.892 242.561 105.325C244.158 107.705 246.255 110.168 249.401 109.352C250.532 109.053 251.581 108.42 252.596 107.688C252.546 107.821 252.479 107.938 252.429 108.071C252.213 108.021 251.963 108.071 251.78 108.287C246.771 114.511 245.39 122.016 248.019 129.588C248.236 130.221 249.118 129.921 249.201 129.372C249.8 125.445 255.109 124.945 254.51 120.319C254.16 117.64 252.579 114.827 252.895 112.081C253.195 109.602 253.777 107.255 255.458 105.525C252.729 111.615 253.395 122.449 261.965 121.6C262.248 121.567 262.448 121.301 262.464 121.035C262.664 119.021 265.476 114.861 263.546 112.963C262.448 111.898 260.883 111.499 259.851 110.401C258.104 108.553 257.072 106.656 257.222 104.06C257.239 103.611 256.873 103.395 256.523 103.428C256.49 103.345 256.423 103.261 256.34 103.195C251.797 99.4005 247.903 104.659 243.077 104.326V104.31Z" fill="#F0DEAB"/>
<path d="M282.201 38.0593C283.732 38.0593 284.98 36.8111 284.98 35.2801C284.98 33.7491 283.732 32.501 282.201 32.501C280.67 32.501 279.422 33.7491 279.422 35.2801C279.422 36.8111 280.67 38.0593 282.201 38.0593Z" fill="#F0DEAB"/>
<path d="M266.008 61.9898C260.949 59.3605 254.825 58.2621 250.166 55.0503C249.517 54.6009 248.801 55.6161 249.45 56.0654C255.175 60.0095 262.697 60.5919 268.255 64.8189C272.332 67.8976 273.963 80.9945 271.201 82.9749C272.332 72.5406 269.02 68.8295 264.477 67.831C263.912 67.6979 263.495 67.6813 263.396 68.1805C262.264 73.4725 269.037 83.4741 267.623 87.6678C270.485 86.5195 277.924 86.2699 280.536 83.99C283.382 81.5271 282.234 77.4831 284.763 74.8704C285.146 74.4877 284.98 73.8553 284.414 73.7887C281.718 73.4392 275.411 73.6389 273.996 81.2109C274.329 80.229 274.113 77.4332 274.03 76.235C273.564 69.0126 274.645 64.6858 278.856 61.7735C281.036 60.2591 280.353 56.7477 281.252 54.2514C281.369 53.9353 281.202 53.5691 280.886 53.4693C278.789 52.7371 276.892 52.9535 275.261 53.9353C275.661 52.7038 275.81 51.4058 275.444 50.0744C274.745 47.4451 273.713 45.1818 273.88 42.3694C273.896 42.0033 273.514 41.5373 273.148 41.7203C267.623 44.4995 267.506 49.8414 267.623 53.8021C266.291 48.9761 262.331 49.3588 259.901 48.2272C259.535 48.0608 259.085 48.3936 259.069 48.7597C258.753 55.433 262.264 59.3937 266.008 62.0231V61.9898Z" fill="#F0DEAB"/>
<path d="M258.82 94.6407C256.157 93.2595 251.847 94.9236 252.446 97.8026C253.311 101.98 259.386 98.7512 260.284 97.6196C259.153 97.1702 258.836 95.4562 258.82 94.6407Z" fill="#F0DEAB"/>
<path d="M260.167 93.0933C258.57 96.0721 262.364 98.818 264.278 95.9057C266.208 92.9601 261.582 90.4806 260.167 93.0933Z" fill="#F0DEAB"/>
<path d="M255.125 87.5346C252.995 89.6148 255.191 93.0263 258.886 94.0082C259.152 92.6436 260.583 91.6451 261.266 91.5619C259.884 86.0868 256.706 85.9869 255.125 87.5346Z" fill="#F0DEAB"/>
<path d="M254.793 76.3518C251.814 74.4047 248.286 75.3034 245.224 76.6014C244.841 76.7679 244.791 77.2504 245.007 77.55C247.204 80.5455 246.206 83.957 243.543 86.2536C243.06 86.6696 243.46 87.2188 244.059 87.3352C250.732 88.5834 255.175 83.8904 255.059 77.5167C255.059 77.3836 255.009 77.2671 254.942 77.1839C255.126 76.9342 255.126 76.5681 254.793 76.3518Z" fill="#F0DEAB"/>
<path d="M264.161 83.574C261.199 82.7752 260.034 86.1035 261.665 90.9462C261.965 91.0294 263.629 91.6618 263.912 91.8449C266.275 90.5468 267.69 84.5226 264.178 83.574H264.161Z" fill="#F0DEAB"/>
<path d="M137.868 73.1899C137.852 73.4228 138.051 74.8873 138.634 74.6543C145.307 72.0083 151.681 76.3351 154.26 82.5424C156.008 86.7528 155.026 92.2445 154.643 96.6379C153.994 104.127 152.812 112.148 155.608 119.337C158.803 127.558 167.207 130.088 174.979 132.151C179.389 133.316 183.816 134.498 187.843 136.661C191.521 138.641 194.3 141.653 196.43 145.131C198.56 141.653 201.323 138.641 205.017 136.661C209.061 134.498 213.488 133.316 217.881 132.151C225.653 130.088 234.057 127.575 237.252 119.337C240.048 112.131 238.866 104.11 238.217 96.6379C237.834 92.2445 236.852 86.7361 238.6 82.5424C241.179 76.3351 247.553 72.0083 254.226 74.6543C254.825 74.8873 255.008 73.4395 254.992 73.1899C254.276 63.5544 238.5 59.9432 235.005 69.0129C228.532 63.9871 220.178 72.1082 223.106 79.0477C215.967 77.3503 216.283 92.9102 222.291 95.5728C224.188 96.4049 230.395 97.1205 228.315 100.266C225.836 104.01 223.489 98.2355 221.792 96.8542C218.131 93.8754 215.485 98.0358 214.786 101.614C212.239 98.535 206.465 99.9828 204.385 95.7226C204.085 95.1235 203.32 95.3565 203.22 95.9389C202.005 102.429 201.622 108.903 207.879 112.531C205.583 115.992 207.63 119.287 211.59 120.452C214.27 121.234 223.206 116.874 222.674 122.266C222.291 126.16 214.952 127.641 212.007 128.573C209.36 129.405 203.802 131.585 201.439 133.183C200.041 129.938 205.367 126.243 208.612 125.461C209.211 125.311 209.294 124.513 208.711 124.28C203.919 122.382 198.893 125.611 196.43 130.37C193.95 125.611 188.941 122.382 184.148 124.28C183.566 124.513 183.649 125.328 184.248 125.461C187.493 126.227 192.819 129.938 191.421 133.183C189.058 131.585 183.499 129.405 180.853 128.573C177.925 127.658 170.569 126.16 170.186 122.266C169.654 116.874 178.59 121.234 181.269 120.452C185.23 119.287 187.277 115.992 184.981 112.531C191.238 108.903 190.855 102.446 189.64 95.9389C189.524 95.3565 188.758 95.1235 188.459 95.7226C186.378 99.9662 180.604 98.535 178.058 101.614C177.359 98.0358 174.713 93.8754 171.052 96.8542C169.354 98.2355 167.008 104.01 164.528 100.266C162.448 97.1205 168.655 96.4049 170.552 95.5728C176.577 92.9102 176.893 77.3503 169.737 79.0477C172.666 72.1082 164.312 63.9871 157.838 69.0129C154.343 59.9598 138.567 63.5544 137.852 73.1899H137.868ZM224.637 86.7195C223.706 84.373 225.902 84.2898 227.666 84.5894C226.085 81.261 225.253 76.8177 227.45 73.6059C229.081 71.2262 230.628 75.1203 231.926 77.317C233.258 73.3064 236.836 72.1082 238.6 72.2413C239.265 72.2913 239.532 72.907 239.116 73.323C233.641 78.7815 233.524 86.5697 233.757 94.0085C233.774 94.5743 233.291 94.6908 232.808 94.5743C227.766 93.2097 225.686 89.3322 224.637 86.7195ZM213.604 112.963C213.604 112.78 215.235 111.599 215.418 111.565C210.026 111.565 208.944 107.888 207.863 103.844C210.792 106.007 215.118 103.195 218.796 108.57C218.53 106.456 218.646 103.078 221.159 103.328C224.704 103.677 228.082 108.636 227.3 116.092C227.234 116.658 226.585 116.824 226.218 116.441C223.04 113.23 213.271 119.204 213.621 112.963H213.604ZM171.734 103.328C174.247 103.078 174.363 106.473 174.097 108.57C177.775 103.195 182.085 106.007 185.03 103.844C183.949 107.888 182.867 111.565 177.475 111.565C177.658 111.599 179.272 112.78 179.289 112.963C179.639 119.204 169.87 113.213 166.691 116.441C166.325 116.824 165.66 116.658 165.61 116.092C164.844 108.636 168.206 103.677 171.75 103.328H171.734ZM154.277 72.2247C156.057 72.1082 159.619 73.2897 160.95 77.3003C162.248 75.1036 163.796 71.2262 165.427 73.5893C167.623 76.7845 166.791 81.2444 165.21 84.5727C166.974 84.2732 169.171 84.3564 168.239 86.7028C167.207 89.3156 165.127 93.1931 160.085 94.5577C159.602 94.6908 159.12 94.5577 159.136 93.9919C159.369 86.5531 159.253 78.7648 153.778 73.3064C153.362 72.8903 153.628 72.2746 154.293 72.2247H154.277Z" fill="#F0DEAB"/>
<path d="M255.058 40.8386C256.589 40.8386 257.838 39.5905 257.838 38.0594C257.838 36.5284 256.589 35.2803 255.058 35.2803C253.527 35.2803 252.279 36.5284 252.279 38.0594C252.279 39.5905 253.527 40.8386 255.058 40.8386Z" fill="#F0DEAB"/>
<path d="M-5.24913 137.043C-1.08874 139.956 -2.85275 144.881 -3.75139 146.546C-3.75139 146.562 -6.03129 150.823 -5.98137 155.449C-5.98137 156.231 -4.69996 156.314 -4.74989 155.515C-4.94959 152.67 -1.65456 146.013 2.20629 149.508C3.03837 150.257 3.87045 150.456 4.95216 150.523C7.68138 150.689 8.87957 147.261 11.7253 148.959C12.158 149.225 12.7238 148.959 12.6905 148.476C11.9916 139.889 4.58604 137.959 -0.173455 142.252C1.2078 139.39 2.45593 136.461 3.38786 133.399C5.03537 128.073 5.05201 122.615 4.13672 117.256C9.56188 116.957 14.8872 115.709 19.7133 112.93C22.4758 111.332 25.0552 109.468 27.5514 107.488C24.4228 113.079 27.9675 119.869 36.488 118.638C36.954 118.571 37.0871 117.955 36.7376 117.589C34.4411 115.193 37.5364 113.262 36.7542 110.633C36.4547 109.601 36.0553 108.819 35.14 108.187C30.8631 105.208 36.6378 100.498 39.4335 100.066C40.2157 99.9491 39.8496 98.7177 39.0841 98.8841C34.5576 99.8659 30.9131 103.028 30.8964 103.044C29.4819 104.293 25.0718 107.105 21.3108 103.694C20.3789 102.845 19.3305 102.445 18.0824 102.212C14.5544 101.547 11.2926 103.877 7.8478 102.046C7.49833 101.863 7.08229 102.079 6.94916 102.445C5.31828 107.122 12.4742 113.229 19.2972 111.648C4.58605 117.939 -1.00552 111.515 0.70856 110.167C1.57392 109.485 2.97182 111.182 3.68741 110.833C7.06565 109.202 2.25622 104.992 -0.356507 106.556C-2.96924 108.137 -3.01916 110.3 -2.20373 112.181C-4.21736 111.798 -6.33084 112.331 -7.27941 115.226C-8.22798 118.122 -3.05245 121.883 -2.20373 118.222C-2.02067 117.456 -3.98437 116.474 -3.51841 115.476C-2.58648 113.495 4.91888 117.523 2.05652 133.266C2.08981 126.26 -5.46548 120.635 -9.65916 123.264C-9.99199 123.48 -10.1085 123.93 -9.85886 124.229C-7.29605 127.191 -8.84372 130.869 -7.41254 134.164C-6.91329 135.329 -6.29755 136.261 -5.24913 136.993V137.043Z" fill="#F0DEAB"/>
<path d="M46.2896 98.1519C45.8902 96.8206 46.689 95.2729 47.2548 94.8735C43.4772 90.6632 40.6315 92.0611 39.9492 94.1746C39.0339 97.0037 42.5619 99.0007 46.2896 98.1519Z" fill="#F0DEAB"/>
<path d="M50.9166 93.8917C51.5157 94.4242 52.5308 94.8736 52.6806 95.689C57.0241 94.2079 59.1542 90.6466 57.1239 88.4998C54.9938 86.2698 50.5006 88.9325 50.9 93.8917H50.9166Z" fill="#F0DEAB"/>
<path d="M53.0631 96.6545C53.1463 97.4866 52.8967 98.2521 52.4141 98.8346C53.8452 101.481 57.1403 102.745 59.4202 101.63C60.5851 101.065 60.7848 98.8346 60.1025 97.9526C59.5034 97.2037 57.4897 94.2748 53.0631 96.6545Z" fill="#F0DEAB"/>
<path d="M103.353 98.4849C100.508 97.2867 97.4623 101.53 99.8254 105.907C100.574 106.157 101.689 106.173 102.155 106.839C105.533 103.727 106.066 99.6165 103.337 98.4682L103.353 98.4849Z" fill="#F0DEAB"/>
<path d="M46.9885 96.7376C46.9552 100.116 51.5982 100.781 51.931 97.32C52.2638 93.8086 47.0051 93.7754 46.9885 96.7376Z" fill="#F0DEAB"/>
<path d="M49.901 100.582C48.3367 103.161 50.4335 108.254 53.0795 107.571C55.8087 106.856 56.4078 102.645 52.0977 100.033C51.4154 100.532 50.6332 100.698 49.901 100.582Z" fill="#F0DEAB"/>
<path d="M42.3452 104.509C45.0578 107.804 48.9353 102.129 49.2016 100.698C47.9867 100.831 46.905 99.4666 46.5223 98.751C43.5102 98.751 40.498 102.246 42.3452 104.509Z" fill="#F0DEAB"/>
<path d="M49.7009 93.892C51.1986 91.6453 49.6343 85.6544 46.0897 86.4532C43.0942 87.1355 43.6101 90.6135 47.3045 94.1416C47.6041 94.075 49.3681 93.8587 49.7009 93.892Z" fill="#F0DEAB"/>
<path d="M82.8184 40.1561C83.6338 40.8052 84.7155 40.905 85.6142 40.5389C86.4795 40.0729 87.062 39.1577 87.062 38.1092C87.062 36.5782 85.8139 35.3301 84.2829 35.3301C83.9001 35.3301 83.534 35.4133 83.2012 35.5464C82.885 35.7128 82.6021 35.9625 82.3524 36.2454C81.3872 37.4436 81.5869 39.1909 82.7851 40.1561H82.8184Z" fill="#F0DEAB"/>
<path d="M55.9588 69.312C57.157 70.2772 58.9044 70.0775 59.853 68.8793C60.8182 67.6811 60.6185 65.9337 59.4203 64.9685C58.2221 64.0199 56.4747 64.203 55.5095 65.4012C54.5609 66.5994 54.744 68.3467 55.9422 69.2953L55.9588 69.312Z" fill="#F0DEAB"/>
<path d="M74.8304 69.8449C74.9302 70.627 76.1451 70.2775 76.0119 69.4953C75.5626 66.6164 76.4446 64.2533 78.0256 62.5392C82.7185 69.928 90.2072 58.5618 94.7004 64.7192C94.8835 64.9688 95.9819 64.869 95.7489 64.1867C92.2209 53.4695 72.6004 52.1881 74.8304 69.8282V69.8449Z" fill="#F0DEAB"/>
<path d="M72.367 48.7929C73.5652 49.7414 75.3126 49.5584 76.2778 48.3602C77.2263 47.162 77.0433 45.4147 75.8285 44.4494C74.6303 43.5009 72.8829 43.6839 71.9343 44.8821C70.9857 46.0803 71.1688 47.8277 72.367 48.7929Z" fill="#F0DEAB"/>
<path d="M64.1792 59.0112C65.3774 59.9598 67.1248 59.7767 68.0733 58.5785C69.0219 57.3803 68.8388 55.6329 67.6407 54.6677C66.4425 53.7191 64.6951 53.9022 63.7299 55.1004C62.7813 56.2986 62.9644 58.046 64.1792 58.9945V59.0112Z" fill="#F0DEAB"/>
<path d="M61.7329 95.3898C68.3896 93.3761 73.5318 87.8678 80.305 86.1371C85.2641 84.8723 96.5139 91.7453 96.3308 95.1568C88.8754 87.768 83.9162 88.0509 80.2883 90.9632C79.839 91.3293 79.5561 91.6454 79.8889 92.0282C83.3171 96.2052 95.349 97.1538 97.7453 100.865C98.6274 97.9027 103.071 91.945 102.921 88.4835C102.754 84.7225 98.8936 83.0916 98.4276 79.4804C98.3611 78.9479 97.7786 78.6816 97.3626 79.081C95.4155 80.9782 91.6379 86.0206 96.6636 91.8452C96.1145 90.9798 93.7846 89.3988 92.8028 88.7165C86.8784 84.5728 84.1658 81.0447 84.4986 75.9358C84.6651 73.2897 81.5031 71.6256 80.1219 69.379C79.9388 69.0961 79.5561 68.9962 79.2732 69.1793C77.3927 70.3608 76.3775 71.9751 76.1279 73.8722C75.4123 72.7905 74.497 71.8752 73.2156 71.3094C70.7194 70.211 68.323 69.612 66.2262 67.7315C65.9599 67.4818 65.3442 67.4985 65.261 67.8979C63.9962 73.9554 68.1067 77.3669 71.2519 79.7467C66.6422 77.783 64.4788 81.128 62.0824 82.3095C61.7163 82.4926 61.6997 83.0417 61.9826 83.2914C67.0083 87.7014 72.2837 87.4185 76.6771 86.1371C71.4683 88.4502 66.792 92.5607 61.3668 94.1916C60.6013 94.4246 60.9508 95.6062 61.7163 95.3732L61.7329 95.3898Z" fill="#F0DEAB"/>
<path d="M92.4036 101.048C89.9406 102.862 91.8045 105.841 96.5972 107.605C96.8469 107.422 98.3779 106.523 98.6941 106.406C99.16 103.744 95.3325 98.8844 92.3869 101.048H92.4036Z" fill="#F0DEAB"/>
<path d="M7.16561 193.641C9.26245 186.768 16.618 184.488 23.075 186.336C27.4517 187.584 31.1462 191.777 34.3413 194.823C39.7831 199.998 45.3248 205.923 52.697 208.219C61.1177 210.849 68.3401 205.856 74.7971 201.063C78.4582 198.351 82.136 195.622 86.3463 193.808C90.1905 192.16 94.2677 191.877 98.3116 192.377C96.9304 188.549 96.298 184.505 97.0469 180.395C97.8789 175.885 99.7095 171.691 101.54 167.514C104.785 160.158 108.03 152.021 103.604 144.382C99.7262 137.692 92.72 133.632 86.4462 129.471C82.7684 127.025 77.8591 124.362 75.6624 120.385C72.4173 114.494 73.0164 106.822 79.2404 103.244C79.7895 102.928 78.7744 101.863 78.5747 101.73C70.5867 96.2713 57.9391 106.356 62.8484 114.743C54.8771 116.674 56.0253 128.273 63.2644 130.303C57.4732 134.83 69.8379 144.282 75.6791 141.237C77.5096 140.272 81.9529 135.862 83.1012 139.456C84.4825 143.733 78.5081 141.969 76.3614 142.435C71.7516 143.434 73.3659 148.11 75.7123 150.872C71.7184 150.956 69.2388 156.347 64.629 155.332C63.98 155.183 63.6805 155.931 64.0632 156.381C68.39 161.39 73.1995 165.717 79.9393 163.087C81.2041 167.031 85.0649 167.497 88.4432 165.118C90.7231 163.503 92.8865 153.801 96.764 157.579C99.5597 160.308 96.1482 166.965 95.0499 169.844C94.0514 172.423 92.2874 178.131 92.071 180.977C88.6761 180.045 89.0922 173.571 90.5067 170.559C90.773 170.01 90.1905 169.428 89.6414 169.744C85.1648 172.307 84.5657 178.248 86.7457 183.14C81.487 182.109 75.8288 184.022 74.3311 188.948C74.148 189.547 74.8303 189.997 75.3129 189.614C77.9423 187.567 84.1496 185.703 85.8138 188.815C83.0846 189.664 77.9257 192.643 75.6291 194.207C73.083 195.921 67.3416 200.747 64.0632 198.617C59.5201 195.672 68.5065 191.411 69.5549 188.815C71.1193 185.004 69.8212 181.326 65.6775 180.977C66.7425 173.821 61.4505 170.093 55.6093 166.998C55.0934 166.715 54.4277 167.181 54.7106 167.78C56.7409 172.057 52.0147 175.668 52.8302 179.579C49.6017 177.898 44.6924 177.366 44.7423 182.092C44.759 184.289 47.8044 189.714 43.3444 189.331C39.5834 188.998 42.9118 183.706 43.4276 181.693C45.0918 175.319 33.1265 165.384 30.0145 172.024C26.4199 165.417 14.854 166.882 14.7542 175.069C5.48481 172.157 -1.53794 186.735 5.56802 193.308C5.75108 193.475 6.9992 194.224 7.18226 193.625L7.16561 193.641ZM81.4537 132.433C77.2434 135.529 72.9166 134.747 70.2206 133.915C67.8076 133.182 69.1223 131.402 70.4536 130.22C66.8757 129.388 62.865 127.258 61.7334 123.547C60.8847 120.784 64.8953 121.999 67.4248 122.365C65.1116 118.821 66.4097 115.293 67.6079 113.978C68.0572 113.495 68.7062 113.662 68.7728 114.261C69.6215 121.949 75.6458 126.892 81.6035 131.352C82.0528 131.685 81.8531 132.134 81.4537 132.433ZM94.4341 151.222C89.9409 151.704 88.5264 163.071 83.8667 158.91C83.7336 158.794 83.8168 156.78 83.9 156.63C80.5384 160.857 76.9937 159.41 73.1495 157.729C76.6609 156.78 77.1602 151.655 83.6504 152.137C81.8364 151.039 79.257 148.825 81.021 147.012C83.5006 144.465 89.4749 144.915 94.8169 150.157C95.2329 150.556 94.9334 151.172 94.4175 151.222H94.4341ZM50.2174 185.637C51.5987 183.523 54.3113 185.537 55.7924 187.051C53.8786 180.827 58.7712 179.196 58.9043 175.568C61.3839 178.93 63.5806 182.075 60.219 186.286C60.3521 186.153 62.2826 185.637 62.4323 185.737C67.5247 189.348 56.7576 193.259 57.2901 197.752C57.3567 198.268 56.8241 198.7 56.3415 198.384C50.0344 194.34 48.2537 188.599 50.2008 185.62L50.2174 185.637ZM15.0204 179.895C16.0356 178.431 19.1975 176.384 23.1582 177.848C22.2429 175.469 20.1793 171.824 23.0583 172.04C26.9358 172.323 29.898 175.752 31.4956 179.063C32.361 177.499 33.7922 175.835 35.0403 178.015C36.4382 180.445 38.1689 184.505 36.0887 189.281C35.889 189.747 35.4896 190.03 35.0569 189.664C29.3821 184.838 23.2247 180.078 15.5363 180.96C14.9539 181.027 14.6377 180.428 15.0038 179.895H15.0204Z" fill="#F0DEAB"/>
<path d="M49.4188 81.96C50.6169 82.9086 52.3643 82.7255 53.3295 81.5273C54.2947 80.3291 54.095 78.5818 52.8969 77.6332C51.6987 76.668 49.9513 76.8677 48.9861 78.0659C48.0375 79.2641 48.2206 81.0114 49.4188 81.9766V81.96Z" fill="#F0DEAB"/>
<path d="M442.243 295.738C440.496 294.706 440.712 293.641 440.529 291.71C440.413 290.346 440.13 289.048 439.73 287.75C439.148 285.869 439.913 285.387 440.762 283.772C442.01 281.376 442.16 278.414 441.994 275.768C441.91 274.353 441.494 274.02 442.693 273.205C443.608 272.573 444.224 271.574 444.756 270.626C445.821 268.728 445.888 266.315 445.721 264.219C445.588 262.588 445.172 262.554 446.57 261.389C447.602 260.524 448.567 259.409 449.216 258.244C450.697 255.565 450.93 253.185 450.681 250.19C450.514 248.326 452.678 246.995 453.626 245.647C454.408 244.532 454.691 243.017 454.957 241.719C455.59 238.574 454.558 235.162 456.322 232.317C457.87 229.82 459.234 227.707 459.051 224.595C458.951 222.748 458.236 220.817 458.935 219.037C459.501 217.605 460.083 216.158 460.466 214.66C460.849 213.162 461.048 211.714 460.982 210.283C460.416 208.969 459.6 207.754 458.619 206.572C457.62 205.39 456.472 204.325 455.34 203.277C453.942 201.979 453.743 199.949 453.027 198.235C451.829 195.356 449.699 194.041 447.219 192.46C444.407 190.663 443.841 187.151 441.91 184.589C441.112 183.524 440.18 182.292 438.998 181.626C437.55 180.828 435.037 180.561 434.372 178.814C433.307 176.018 432.075 173.955 429.562 172.191C428.464 171.425 427.116 170.826 425.818 170.51C424.054 170.077 424.403 169.861 423.821 168.33C423.072 166.349 421.957 164.219 420.177 162.971C419.294 162.355 418.313 161.706 417.198 161.557C415.767 161.34 415.983 160.858 415.467 159.543C414.468 157.08 413.054 154.484 410.891 152.87C409.426 151.771 408.527 151.671 408.245 149.724C408.045 148.376 407.729 147.095 407.246 145.814C406.564 144 405.898 143.134 407.03 141.454C407.546 140.688 408.011 139.939 408.261 139.04C409.176 135.779 409.343 132.567 410.508 129.322C411.423 126.776 411.14 124.496 410.408 121.933C409.276 118.022 409.143 113.812 409.127 109.751C409.127 106.989 408.727 104.542 408.095 101.93C405.682 100.732 403.402 99.7996 400.706 99.1839C396.745 98.2852 392.668 97.2035 389.107 95.2398C386.777 93.9584 384.613 93.1763 381.934 93.4925C378.506 93.8919 375.344 93.3427 371.966 93.5257C371.034 93.5756 370.202 93.8752 369.336 94.1914C367.439 94.9236 366.74 94.0749 365.126 93.0098C363.978 92.261 362.796 91.6619 361.532 91.1626C359.701 90.4471 359.801 89.5484 359.052 87.8842C357.954 85.4047 355.74 83.4576 353.56 81.9265C352.395 81.1111 351.879 81.2276 351.996 79.7798C352.079 78.6648 351.68 77.5664 351.264 76.5679C350.448 74.5543 348.601 72.99 346.854 71.8085C345.489 70.8932 345.206 71.2094 345.173 69.3788C345.14 68.0308 344.873 66.583 344.357 65.3515C343.192 62.5224 341.462 60.8416 338.966 59.1941C337.401 58.1623 337.717 55.6328 337.251 54.0519C336.869 52.7538 335.87 51.5723 335.005 50.5571C332.941 48.1108 329.646 46.7795 328.515 43.6343C327.516 40.8718 326.717 38.492 324.171 36.678C322.657 35.5963 320.71 34.964 319.761 33.2998C318.996 31.9685 318.213 30.6039 317.282 29.3724C316.35 28.1409 315.351 27.0759 314.186 26.2438C312.805 25.861 311.357 25.7445 309.809 25.7778C308.262 25.8111 306.731 26.0607 305.2 26.2937C303.319 26.5766 301.588 25.4616 299.808 24.9457C296.812 24.0804 294.449 24.9457 291.67 25.8943C288.508 26.976 285.413 25.2286 282.201 25.1454C280.87 25.1121 279.322 25.0622 278.074 25.5781C276.543 26.2105 274.779 28.0078 272.982 27.442C270.136 26.5267 267.756 26.2271 264.811 27.0759C263.529 27.442 262.214 28.1409 261.149 28.9564C259.702 30.0547 259.768 29.6553 258.204 29.1561C256.19 28.507 253.827 28.0411 251.73 28.6568C250.682 28.9564 249.583 29.3391 248.768 30.088C247.703 31.0698 247.47 30.6039 246.122 30.1878C243.576 29.4223 240.664 28.9231 238.051 29.6054C236.287 30.0713 235.638 30.7037 233.94 29.7219C232.759 29.0396 231.561 28.4904 230.263 28.0577C228.415 27.4586 227.334 27.4253 226.718 25.4949C226.435 24.6129 226.152 23.7808 225.603 23.032C223.623 20.2695 221.226 18.1393 219.412 15.2104C217.981 12.9138 216.034 11.699 213.571 10.6839C209.81 9.13621 206.432 6.60668 203.253 4.07716C201.09 2.34643 198.943 1.14827 196.497 0C194.051 1.13163 191.904 2.34643 189.74 4.07716C186.562 6.60668 183.184 9.11956 179.423 10.6839C176.96 11.699 175.013 12.8972 173.581 15.2104C171.767 18.1393 169.354 20.2695 167.391 23.032C166.841 23.7975 166.559 24.6295 166.276 25.4949C165.66 27.4253 164.578 27.4586 162.731 28.0577C161.433 28.4904 160.235 29.0396 159.053 29.7219C157.356 30.7037 156.707 30.0713 154.943 29.6054C152.313 28.9231 149.401 29.439 146.872 30.1878C145.507 30.5872 145.274 31.0698 144.226 30.088C143.41 29.3225 142.295 28.9564 141.263 28.6568C139.167 28.0411 136.82 28.507 134.79 29.1561C133.225 29.6553 133.292 30.0713 131.844 28.9564C130.779 28.1409 129.464 27.442 128.183 27.0759C125.238 26.2271 122.858 26.5267 120.012 27.442C118.215 28.0244 116.451 26.2105 114.92 25.5781C113.655 25.0622 112.107 25.1121 110.793 25.1454C107.581 25.2286 104.485 26.976 101.324 25.8943C98.5444 24.9457 96.1813 24.0804 93.1858 24.9457C91.4052 25.4616 89.6911 26.5766 87.7939 26.2937C86.2796 26.0607 84.7319 25.8277 83.1842 25.7778C81.6366 25.7445 80.1887 25.861 78.8075 26.2438C77.6426 27.0925 76.6441 28.1576 75.7121 29.3891C74.7802 30.6205 73.9981 31.9685 73.2325 33.3165C72.284 34.964 70.3369 35.613 68.8225 36.6947C66.2764 38.5086 65.4776 40.8717 64.4791 43.6509C63.3474 46.7961 60.0524 48.1275 57.9888 50.5738C57.1401 51.5889 56.125 52.7705 55.7422 54.0685C55.2763 55.6495 55.5925 58.1623 54.0282 59.2108C51.5319 60.8749 49.8178 62.5391 48.6363 65.3682C48.1204 66.5997 47.8541 68.0641 47.8208 69.3954C47.7876 71.2093 47.488 70.9098 46.14 71.8251C44.376 73.0067 42.5455 74.5543 41.7134 76.5846C41.2973 77.5831 40.8979 78.6981 40.9811 79.7964C41.0976 81.2442 40.5817 81.1277 39.4168 81.9432C37.2368 83.4576 35.0234 85.4213 33.9251 87.9009C33.1929 89.565 33.2761 90.4637 31.4455 91.1959C30.1807 91.6952 28.9992 92.2943 27.8509 93.0432C26.2367 94.1082 25.5377 94.9403 23.6406 94.2247C22.7752 93.8919 21.9598 93.609 21.0112 93.559C17.6163 93.376 14.4544 93.9418 11.0429 93.5257C8.34697 93.2095 6.18355 93.9751 3.87037 95.2731C0.309069 97.2368 -3.76812 98.3185 -7.72882 99.2172C-10.4248 99.8329 -12.7213 100.765 -15.1177 101.963C-15.7501 104.576 -16.1495 107.022 -16.1495 109.785C-16.1495 113.845 -16.2992 118.055 -17.4142 121.966C-18.1465 124.512 -18.4294 126.792 -17.5141 129.355C-16.3492 132.6 -16.1994 135.812 -15.2675 139.074C-15.0178 139.972 -14.5352 140.721 -14.036 141.487C-12.9044 143.168 -13.57 144.033 -14.2523 145.864C-14.7349 147.145 -15.0511 148.426 -15.2508 149.774C-15.5504 151.721 -16.4324 151.821 -17.8968 152.92C-20.0769 154.534 -21.4914 157.147 -22.4733 159.593C-23.0058 160.908 -22.7728 161.39 -24.204 161.607C-25.3023 161.773 -26.2842 162.405 -27.1828 163.038C-28.9635 164.286 -30.0785 166.416 -30.8274 168.396C-31.4098 169.927 -31.0603 170.144 -32.8077 170.576C-34.1057 170.909 -35.4704 171.492 -36.5521 172.257C-39.0483 174.021 -40.2964 176.085 -41.3615 178.88C-42.0271 180.644 -44.54 180.894 -45.9878 181.693C-47.1694 182.359 -48.1013 183.59 -48.9001 184.655C-50.8305 187.218 -51.3964 190.729 -54.2088 192.527C-56.6884 194.107 -58.8185 195.422 -60.0167 198.301C-60.7323 200.015 -60.932 202.046 -62.3299 203.344C-63.4615 204.392 -64.6098 205.44 -65.6083 206.639C-66.6068 207.82 -67.4222 209.035 -67.988 210.35C-68.0546 211.781 -67.8383 213.229 -67.4721 214.726C-67.0894 216.224 -66.5236 217.672 -65.9578 219.103C-65.2588 220.884 -65.9578 222.798 -66.0742 224.645C-66.2407 227.757 -64.8927 229.87 -63.345 232.367C-61.581 235.212 -62.6128 238.624 -61.9804 241.769C-61.7141 243.067 -61.4312 244.598 -60.6491 245.696C-59.7005 247.044 -57.5371 248.376 -57.7035 250.24C-57.9698 253.218 -57.7368 255.615 -56.2391 258.294C-55.59 259.459 -54.6248 260.591 -53.593 261.439C-52.1952 262.604 -52.6112 262.638 -52.7443 264.269C-52.9274 266.382 -52.8442 268.778 -51.7791 270.692C-51.2466 271.641 -50.6475 272.639 -49.7156 273.272C-48.5174 274.087 -48.9334 274.42 -49.0166 275.834C-49.183 278.48 -49.0499 281.443 -47.7851 283.839C-46.9364 285.453 -46.1875 285.952 -46.7534 287.816C-47.1528 289.114 -47.4357 290.412 -47.5522 291.777C-47.7352 293.707 -47.5022 294.772 -49.2496 295.804C-50.0484 296.27 -50.7806 296.736 -51.413 297.435C-53.6596 299.981 -55.2073 302.794 -57.6536 305.223C-59.584 307.121 -60.3163 309.301 -60.7656 311.913C-61.4479 315.924 -63.1453 319.785 -64.9093 323.446C-66.1075 325.942 -66.8065 328.305 -67.3723 330.935C-65.7248 333.065 -64.0606 334.895 -61.8972 336.626C-58.7187 339.156 -55.5235 341.901 -53.1604 345.213C-51.6293 347.377 -50.0151 349.024 -47.4523 349.889C-44.1905 351.004 -41.5778 352.885 -38.4492 354.2C-37.5838 354.566 -36.7185 354.666 -35.8032 354.732C-33.7729 354.899 -33.5233 355.964 -32.5248 357.628C-31.8258 358.793 -31.0104 359.841 -30.0785 360.856C-28.7472 362.304 -29.2131 363.07 -29.2797 364.884C-29.3629 367.596 -28.2146 370.325 -26.9166 372.622C-26.2176 373.853 -25.7017 373.97 -26.434 375.235C-26.9998 376.2 -27.0996 377.365 -27.1662 378.446C-27.2993 380.627 -26.3175 382.823 -25.2524 384.637C-24.4203 386.052 -24.0376 385.902 -24.7865 387.549C-25.3356 388.764 -25.735 390.195 -25.8016 391.527C-25.9846 394.589 -25.1526 396.835 -23.6215 399.415C-22.6563 401.029 -24.0376 403.159 -24.3038 404.79C-24.5202 406.138 -24.1374 407.636 -23.8046 408.917C-23.0058 412.029 -20.6094 414.642 -20.9589 417.97C-21.2584 420.899 -21.5746 423.379 -20.0602 426.108C-19.1616 427.739 -17.6971 429.153 -17.5474 431.067C-17.4309 432.598 -17.331 434.163 -17.0148 435.677C-16.6986 437.191 -16.2659 438.589 -15.5836 439.854C-14.5019 440.802 -13.2538 441.535 -11.8393 442.167C-10.4414 442.799 -8.94365 443.265 -7.46255 443.715C-5.63198 444.281 -4.56691 446.028 -3.18566 447.259C-0.855839 449.34 1.6404 449.589 4.55268 449.939C7.881 450.338 9.89463 453.267 12.757 454.731C13.9385 455.347 15.3031 456.063 16.6678 456.146C18.3153 456.246 20.695 455.381 22.0596 456.679C24.2397 458.742 26.2367 460.057 29.2654 460.556C30.5801 460.772 32.0612 460.722 33.3759 460.44C35.1566 460.073 34.9236 460.423 36.1218 461.538C37.6695 463.002 39.5832 464.434 41.7466 464.783C42.8117 464.949 43.9766 465.116 45.0417 464.783C46.4229 464.35 46.4229 464.883 47.488 465.848C49.4517 467.629 51.8481 469.359 54.5107 469.875C56.308 470.225 57.1568 469.925 58.2718 471.556C59.0373 472.688 59.886 473.703 60.8678 474.652C62.2657 475.999 63.2309 476.482 62.948 478.496C62.8149 479.411 62.7151 480.276 62.8815 481.208C63.4639 484.553 64.7121 487.515 65.0782 490.944C65.3611 493.64 66.6092 495.57 68.3732 497.55C71.0858 500.579 73.0495 504.323 74.7969 507.968C75.9951 510.464 77.4096 512.478 79.1237 514.575C81.8196 514.608 84.2826 514.458 86.9785 513.842C90.9392 512.944 95.083 512.145 99.1435 512.378C101.79 512.528 104.086 512.295 106.366 510.83C109.278 508.983 112.357 508.101 115.336 506.487C116.151 506.038 116.784 505.405 117.416 504.74C118.814 503.258 119.796 503.708 121.726 503.974C123.091 504.157 124.405 504.174 125.77 504.074C127.734 503.924 128.033 504.773 129.431 505.954C131.495 507.718 134.34 508.517 136.97 508.933C138.368 509.149 138.784 508.833 139.316 510.181C139.716 511.213 140.564 512.028 141.363 512.761C142.977 514.225 145.307 514.824 147.404 515.124C149.035 515.357 149.151 514.957 149.984 516.572C150.583 517.77 151.465 518.968 152.463 519.85C154.743 521.897 157.023 522.646 159.985 523.062C161.849 523.328 162.648 525.725 163.763 526.939C164.678 527.955 166.093 528.57 167.307 529.119C170.236 530.434 173.781 530.201 176.161 532.548C178.258 534.611 180.005 536.408 183.084 536.924C184.914 537.241 186.945 536.974 188.525 538.056C189.79 538.921 191.088 539.803 192.453 540.519C193.834 541.218 195.199 541.75 196.613 542C198.028 541.734 199.392 541.218 200.757 540.519C202.138 539.82 203.42 538.938 204.684 538.056C206.265 536.974 208.296 537.241 210.126 536.924C213.205 536.408 214.952 534.611 217.049 532.548C219.429 530.201 222.974 530.434 225.903 529.119C227.117 528.57 228.532 527.938 229.447 526.939C230.562 525.708 231.361 523.311 233.225 523.062C236.187 522.646 238.467 521.897 240.747 519.85C241.745 518.951 242.611 517.77 243.226 516.572C244.042 514.957 244.175 515.34 245.806 515.124C247.903 514.824 250.233 514.225 251.847 512.761C252.646 512.028 253.494 511.213 253.894 510.181C254.426 508.833 254.842 509.166 256.24 508.933C258.853 508.517 261.699 507.718 263.762 505.954C265.16 504.773 265.46 503.924 267.423 504.074C268.788 504.174 270.103 504.157 271.467 503.974C273.398 503.708 274.379 503.258 275.777 504.74C276.41 505.405 277.026 506.038 277.858 506.487C280.836 508.118 283.932 508.983 286.827 510.847C289.107 512.311 291.387 512.544 294.05 512.395C298.11 512.162 302.254 512.96 306.215 513.859C308.911 514.475 311.374 514.625 314.07 514.591C315.784 512.511 317.182 510.481 318.397 507.985C320.161 504.323 322.124 500.596 324.82 497.567C326.584 495.587 327.832 493.656 328.115 490.96C328.481 487.532 329.729 484.57 330.312 481.225C330.478 480.31 330.378 479.428 330.245 478.512C329.962 476.499 330.928 476.016 332.326 474.668C333.307 473.72 334.156 472.704 334.922 471.573C336.037 469.959 336.885 470.242 338.683 469.892C341.345 469.376 343.742 467.645 345.705 465.865C346.754 464.916 346.754 464.384 348.135 464.816C349.2 465.149 350.365 464.999 351.43 464.816C353.577 464.467 355.507 463.019 357.038 461.571C358.22 460.44 358.004 460.09 359.784 460.473C361.099 460.739 362.58 460.806 363.895 460.573C366.923 460.057 368.92 458.759 371.1 456.695C372.465 455.397 374.845 456.263 376.492 456.163C377.857 456.08 379.222 455.364 380.403 454.748C383.249 453.284 385.279 450.355 388.607 449.955C391.536 449.606 394.016 449.356 396.346 447.276C397.727 446.045 398.792 444.297 400.623 443.731C402.087 443.282 403.585 442.833 404.999 442.184C406.414 441.551 407.662 440.802 408.744 439.871C409.426 438.606 409.859 437.208 410.175 435.693C410.491 434.179 410.591 432.632 410.707 431.084C410.841 429.17 412.322 427.755 413.22 426.125C414.735 423.395 414.419 420.899 414.119 417.987C413.77 414.659 416.166 412.029 416.965 408.934C417.298 407.652 417.68 406.155 417.464 404.807C417.198 403.176 415.833 401.046 416.782 399.431C418.313 396.852 419.145 394.605 418.962 391.543C418.878 390.212 418.496 388.781 417.947 387.566C417.198 385.919 417.58 386.052 418.412 384.654C419.494 382.823 420.459 380.627 420.326 378.446C420.26 377.365 420.143 376.2 419.594 375.235C418.862 373.97 419.378 373.853 420.077 372.622C421.375 370.309 422.523 367.596 422.44 364.884C422.39 363.053 421.907 362.287 423.239 360.856C424.17 359.858 424.969 358.809 425.685 357.628C426.683 355.964 426.95 354.915 428.963 354.732C429.879 354.649 430.761 354.566 431.626 354.2C434.755 352.885 437.367 351.004 440.629 349.889C443.192 349.007 444.806 347.377 446.337 345.213C448.684 341.901 451.895 339.156 455.074 336.626C457.237 334.895 458.902 333.065 460.549 330.951C459.983 328.322 459.284 325.959 458.086 323.463C456.322 319.801 454.625 315.941 453.942 311.93C453.493 309.317 452.761 307.137 450.83 305.24C448.384 302.81 446.836 299.998 444.59 297.452C443.974 296.753 443.225 296.287 442.426 295.821L442.243 295.738ZM449.266 305.523C451.246 307.437 452.045 309.317 452.528 311.997C453.693 318.537 457.387 324.162 458.985 330.569C454.758 335.644 449 339.089 445.106 344.481C443.508 346.694 441.977 348.042 439.348 348.908C438.233 349.274 436.985 349.607 435.953 350.189C433.024 351.82 430.661 353.867 427.066 353.268C426.866 353.234 426.633 353.384 426.517 353.551C424.72 356.28 423.388 359.192 420.642 361.139C420.476 361.256 420.393 361.539 420.459 361.722C421.907 365.932 420.143 370.525 417.464 373.853C417.281 374.07 417.364 374.403 417.53 374.602C420.193 378.064 418.529 382.623 415.916 385.586C415.733 385.802 415.633 386.068 415.783 386.335C417.381 389.33 418.246 392.758 416.998 396.07C416.482 397.434 414.818 398.999 414.968 400.563C415.084 401.828 415.7 402.893 415.9 404.108C416.199 405.938 415.9 407.752 415.267 409.466C414.568 411.314 413.353 413.128 412.854 415.025C412.405 416.755 412.821 418.237 412.987 419.967C413.32 423.512 411.673 426.374 409.493 428.987C408.71 429.919 409.11 433.297 408.91 434.529C408.644 436.143 408.245 437.657 407.562 439.022C406.397 440.004 404.999 440.719 403.485 441.335C402.32 441.801 398.942 442.167 398.21 443.132C396.146 445.845 393.716 448.075 390.188 448.541C388.458 448.774 386.927 448.691 385.346 449.523C383.598 450.438 382.101 452.019 380.453 453.101C378.905 454.116 377.225 454.798 375.361 454.898C374.113 454.981 372.948 454.615 371.7 454.781C370.135 454.981 368.987 456.945 367.755 457.76C364.793 459.707 361.265 459.641 357.987 458.742C357.687 458.659 357.454 458.825 357.288 459.042C354.975 462.237 350.898 464.883 346.937 463.052C346.704 462.952 346.371 462.936 346.188 463.152C343.542 466.514 339.465 469.26 335.038 468.777C334.838 468.76 334.572 468.91 334.506 469.093C333.224 472.205 330.678 474.152 328.415 476.499C328.282 476.648 328.182 476.898 328.265 477.098C329.646 480.459 328.182 483.222 327.25 486.434C326.917 487.582 326.884 488.863 326.767 490.028C326.518 492.774 325.536 494.572 323.738 496.618C319.345 501.611 317.265 508.001 313.254 513.243C306.648 513.094 300.357 510.747 293.717 511.08C290.988 511.213 288.974 510.864 286.678 509.349C285.696 508.7 284.664 507.935 283.566 507.485C280.454 506.221 277.392 505.621 275.628 502.46C275.528 502.276 275.261 502.193 275.062 502.21C271.8 502.51 268.705 503.275 265.476 502.343C265.293 502.293 264.994 502.393 264.894 502.559C262.514 506.32 257.821 507.802 253.544 507.768C253.261 507.768 253.062 508.034 252.995 508.284C251.947 512.528 247.337 514.075 243.409 513.876C243.127 513.876 242.86 513.959 242.744 514.225C241.396 517.354 239.249 520.15 235.887 521.248C234.49 521.697 232.243 521.381 231.111 522.463C230.196 523.345 229.763 524.493 228.915 525.408C227.667 526.79 226.086 527.688 224.338 528.254C222.458 528.87 220.294 529.036 218.497 529.835C216.866 530.567 215.967 531.815 214.703 533.014C212.14 535.493 208.878 535.992 205.467 535.909C204.252 535.876 201.855 538.306 200.757 538.921C199.326 539.72 197.911 540.352 196.414 540.669C194.916 540.369 193.485 539.737 192.054 538.921C190.955 538.306 188.575 535.893 187.361 535.909C183.949 535.976 180.687 535.493 178.124 533.014C176.876 531.799 175.978 530.551 174.33 529.835C172.533 529.036 170.353 528.853 168.489 528.237C166.742 527.672 165.144 526.773 163.896 525.392C163.064 524.476 162.615 523.328 161.699 522.446C160.568 521.348 158.304 521.681 156.923 521.231C153.562 520.133 151.415 517.337 150.067 514.209C149.95 513.926 149.684 513.842 149.401 513.859C145.457 514.059 140.847 512.511 139.816 508.268C139.749 508.018 139.549 507.752 139.266 507.752C134.99 507.785 130.297 506.304 127.917 502.543C127.817 502.376 127.517 502.277 127.334 502.326C124.106 503.258 120.994 502.493 117.749 502.193C117.549 502.177 117.299 502.26 117.183 502.443C115.419 505.622 112.34 506.204 109.245 507.469C108.147 507.918 107.115 508.684 106.133 509.333C103.836 510.847 101.823 511.196 99.0936 511.063C92.4536 510.73 86.1631 513.094 79.5564 513.227C75.5457 507.968 73.4655 501.594 69.0721 496.602C67.2582 494.555 66.293 492.758 66.0434 490.012C65.9435 488.83 65.8936 487.549 65.5608 486.417C64.6122 483.205 63.1644 480.443 64.5456 477.065C64.6288 476.865 64.529 476.615 64.3959 476.465C62.1326 474.102 59.6031 472.155 58.305 469.06C58.2385 468.877 57.9722 468.727 57.7725 468.744C53.3458 469.226 49.252 466.481 46.6226 463.119C46.4562 462.903 46.1067 462.903 45.8904 463.019C41.9297 464.85 37.8359 462.204 35.5393 459.008C35.3729 458.792 35.1399 458.626 34.8404 458.709C31.562 459.607 28.034 459.674 25.0718 457.727C23.8569 456.928 22.7087 454.948 21.1444 454.748C19.8962 454.582 18.7147 454.948 17.4666 454.865C15.6193 454.748 13.9219 454.066 12.3742 453.067C10.7267 451.986 9.22897 450.388 7.48161 449.489C5.88401 448.657 4.35298 448.741 2.6389 448.508C-0.889122 448.042 -3.31879 445.812 -5.38235 443.099C-6.11458 442.134 -9.49282 441.768 -10.6577 441.302C-12.1721 440.686 -13.5534 439.97 -14.7349 438.989C-15.4339 437.624 -15.8333 436.126 -16.0829 434.495C-16.2826 433.264 -15.8832 429.886 -16.6654 428.954C-18.8454 426.324 -20.4929 423.479 -20.1601 419.934C-19.9937 418.203 -19.5776 416.722 -20.027 414.991C-20.5262 413.094 -21.741 411.28 -22.44 409.433C-23.089 407.702 -23.3719 405.905 -23.0724 404.074C-22.8727 402.843 -22.2569 401.778 -22.1404 400.53C-21.9907 398.965 -23.6548 397.401 -24.1707 396.037C-25.4022 392.725 -24.5535 389.297 -22.9559 386.301C-22.8061 386.035 -22.9059 385.769 -23.089 385.552C-25.7017 382.59 -27.3659 378.03 -24.7032 374.569C-24.5535 374.369 -24.4703 374.053 -24.6367 373.82C-27.316 370.492 -29.0966 365.915 -27.6322 361.688C-27.5656 361.505 -27.6654 361.206 -27.8319 361.106C-30.5777 359.159 -31.9091 356.247 -33.7063 353.517C-33.8062 353.351 -34.0392 353.201 -34.2555 353.234C-37.8335 353.834 -40.2132 351.803 -43.1421 350.156C-44.1739 349.573 -45.422 349.257 -46.5537 348.891C-49.1664 348.042 -50.6974 346.678 -52.295 344.464C-56.1891 339.072 -61.9471 335.611 -66.1741 330.535C-64.5599 324.128 -60.8654 318.52 -59.7172 311.98C-59.2345 309.284 -58.4358 307.403 -56.4554 305.506C-55.6067 304.691 -54.6248 303.859 -53.9425 302.877C-52.0121 300.131 -50.764 297.269 -47.2692 296.254C-47.0695 296.187 -46.9364 295.954 -46.9031 295.771C-46.4704 292.526 -46.5204 289.331 -44.9061 286.385C-44.8063 286.219 -44.8562 285.903 -44.9893 285.769C-48.118 282.608 -48.5174 277.698 -47.5522 273.538C-47.4856 273.255 -47.7019 273.005 -47.9349 272.889C-51.829 270.925 -52.3283 266.082 -51.2632 262.288C-51.1967 262.022 -51.2133 261.739 -51.4629 261.556C-54.2088 259.542 -56.4554 256.83 -56.7882 253.302C-56.9214 251.837 -56.1059 249.724 -56.9214 248.376C-57.5704 247.294 -58.5855 246.595 -59.3011 245.58C-60.3662 244.066 -60.8987 242.302 -61.0651 240.471C-61.2482 238.507 -60.932 236.344 -61.3147 234.414C-61.6642 232.649 -62.6794 231.501 -63.578 230.02C-65.4086 226.975 -65.1756 223.68 -64.3435 220.368C-64.044 219.186 -65.8745 216.324 -66.224 215.109C-66.69 213.545 -66.9895 212.014 -66.9562 210.483C-66.3239 209.085 -65.3919 207.837 -64.2936 206.622C-63.4449 205.69 -60.5659 203.909 -60.3163 202.711C-59.6339 199.366 -58.4191 196.304 -55.4403 194.357C-53.9758 193.409 -52.5613 192.809 -51.4962 191.378C-50.3147 189.797 -49.6656 187.717 -48.6505 186.036C-47.7019 184.455 -46.4704 183.107 -44.8562 182.192C-43.7745 181.593 -42.5597 181.41 -41.4946 180.711C-40.1633 179.846 -39.9969 177.582 -39.2314 176.318C-37.4174 173.289 -34.2056 171.808 -30.8606 171.192C-30.5611 171.142 -30.4113 170.893 -30.3614 170.626C-29.6791 166.749 -27.1329 162.588 -22.7728 162.522C-22.5232 162.522 -22.207 162.389 -22.1571 162.106C-21.2251 157.929 -18.7455 153.685 -14.5519 152.204C-14.3688 152.137 -14.2024 151.888 -14.2024 151.688C-14.3855 148.327 -12.9543 145.481 -11.9391 142.369C-11.8726 142.186 -11.9059 141.903 -12.0556 141.77C-14.7516 139.34 -14.6517 136.211 -15.1842 132.916C-15.3839 131.751 -15.8998 130.57 -16.3159 129.455C-17.2811 126.875 -17.1812 124.829 -16.449 122.199C-14.6517 115.792 -15.5504 109.136 -14.219 102.679C-8.21142 99.9494 -1.5215 99.3337 4.3197 96.1551C6.71609 94.8571 8.69643 94.3079 11.4257 94.6573C12.5906 94.8071 13.8553 95.0568 15.0369 94.9902C18.3819 94.7905 21.4106 93.975 24.3728 96.0719C24.5392 96.1884 24.8221 96.1551 24.9886 96.0553C27.801 94.3745 30.2473 92.3442 33.5756 91.7784C33.7587 91.7451 33.975 91.5287 34.0083 91.329C34.5242 86.9024 38.1188 83.5408 41.9796 81.7102C42.2293 81.5937 42.2958 81.2609 42.2459 81.0113C41.3473 76.7344 44.8253 73.3395 48.4532 71.8085C48.7028 71.692 48.9192 71.4923 48.9025 71.1927C48.7528 67.7978 49.485 64.3364 52.0312 61.8901C53.0796 60.875 55.2596 60.1926 55.8088 58.7115C56.2415 57.53 56.1583 56.2985 56.5077 55.1003C57.0236 53.3196 58.0721 51.8219 59.4034 50.5405C60.8179 49.1759 62.7151 48.0775 63.9798 46.5798C65.1447 45.2152 65.411 43.7008 66.0101 42.0699C67.2416 38.725 69.9708 36.8777 73.0661 35.4466C74.1811 34.9473 75.2795 31.7355 75.9951 30.7037C76.927 29.3557 77.9421 28.1742 79.157 27.2423C80.6381 26.8595 82.2024 26.8262 83.8332 26.9261C85.0814 27.0093 88.2932 28.1409 89.3749 27.5917C92.4203 26.0441 95.5656 25.0789 98.9438 26.1939C100.591 26.743 101.939 27.4752 103.737 27.4253C105.7 27.3587 107.747 26.5766 109.694 26.3104C111.525 26.0607 113.339 26.1939 115.07 26.8928C116.218 27.3588 117.116 28.1908 118.315 28.5902C119.812 29.0895 121.693 27.8081 123.157 27.625C126.669 27.159 129.814 28.7567 132.377 30.9866C132.61 31.1863 132.893 31.153 133.126 31.0199C136.587 29.1394 141.413 28.5403 144.192 31.9019C144.359 32.1016 144.642 32.2514 144.908 32.1183C148.735 30.2378 153.611 29.5388 157.389 31.8853C157.555 31.9851 157.855 31.9518 158.005 31.8353C160.518 29.6054 163.646 28.9397 166.708 27.7914C166.891 27.7249 167.091 27.5418 167.108 27.3255C167.324 23.6976 169.837 21.8337 172.084 19.3541C172.882 18.4721 173.465 17.3239 174.081 16.3254C175.495 13.9623 177.159 12.7641 179.672 11.699C185.796 9.10295 190.439 4.26021 196.33 1.26473C202.222 4.26021 206.865 9.10295 212.989 11.699C215.502 12.7641 217.166 13.9623 218.58 16.3254C219.196 17.3405 219.778 18.4721 220.577 19.3541C222.824 21.8504 225.337 23.6976 225.553 27.3255C225.553 27.5418 225.769 27.7249 225.952 27.7914C229.014 28.9397 232.143 29.5887 234.656 31.8353C234.806 31.9685 235.105 32.0018 235.272 31.8853C239.049 29.5388 243.925 30.2378 247.77 32.1183C248.019 32.2514 248.319 32.085 248.485 31.9019C251.264 28.5403 256.09 29.1394 259.552 31.0199C259.801 31.153 260.084 31.1863 260.301 30.9866C262.864 28.7567 266.025 27.159 269.52 27.625C270.968 27.8247 272.865 29.0895 274.363 28.5902C275.561 28.1908 276.46 27.3588 277.608 26.8928C279.322 26.1939 281.153 26.0607 282.983 26.3104C284.93 26.5766 286.977 27.3587 288.941 27.4253C290.738 27.4752 292.086 26.743 293.734 26.1939C297.112 25.0789 300.257 26.0441 303.303 27.5917C304.384 28.1409 307.596 27.0093 308.844 26.9261C310.475 26.8262 312.039 26.8762 313.521 27.2423C314.735 28.1742 315.75 29.3557 316.682 30.7037C317.398 31.7355 318.513 34.9473 319.611 35.4466C322.723 36.8611 325.436 38.725 326.667 42.0533C327.266 43.6842 327.533 45.1985 328.698 46.5631C329.979 48.0609 331.86 49.1592 333.274 50.5239C334.605 51.8053 335.654 53.303 336.17 55.0836C336.519 56.2818 336.436 57.4967 336.869 58.6949C337.418 60.176 339.581 60.8583 340.646 61.8734C343.192 64.3197 343.925 67.7812 343.775 71.1761C343.775 71.4756 343.975 71.6753 344.224 71.7918C347.852 73.3228 351.33 76.7177 350.432 80.9946C350.382 81.2442 350.432 81.5771 350.698 81.6936C354.559 83.5241 358.137 86.8857 358.669 91.3124C358.702 91.5121 358.902 91.7284 359.102 91.7617C362.414 92.3275 364.877 94.3578 367.689 96.0553C367.855 96.1551 368.138 96.1884 368.305 96.0719C371.284 93.975 374.296 94.7905 377.641 94.9902C378.822 95.0568 380.087 94.8071 381.252 94.6573C383.981 94.2912 385.945 94.8404 388.358 96.1385C394.199 99.317 400.889 99.9328 406.897 102.662C408.228 109.136 407.329 115.792 409.127 122.183C409.859 124.812 409.959 126.859 408.993 129.438C408.577 130.537 408.061 131.718 407.862 132.883C407.313 136.195 407.429 139.323 404.733 141.753C404.583 141.903 404.55 142.169 404.617 142.352C405.632 145.464 407.063 148.31 406.88 151.671C406.88 151.871 407.046 152.121 407.229 152.187C411.423 153.685 413.919 157.929 414.835 162.089C414.884 162.372 415.201 162.505 415.45 162.505C419.81 162.572 422.357 166.732 423.039 170.61C423.089 170.876 423.239 171.126 423.538 171.175C426.883 171.791 430.095 173.256 431.909 176.301C432.658 177.549 432.841 179.829 434.155 180.694C435.22 181.393 436.435 181.56 437.517 182.176C439.131 183.074 440.379 184.439 441.311 186.003C442.326 187.701 442.975 189.781 444.157 191.345C445.222 192.776 446.637 193.375 448.101 194.324C451.08 196.271 452.295 199.333 452.977 202.678C453.227 203.876 456.106 205.657 456.954 206.589C458.053 207.804 458.985 209.052 459.617 210.45C459.65 211.981 459.351 213.512 458.885 215.076C458.535 216.274 456.705 219.136 457.004 220.335C457.836 223.646 458.069 226.925 456.239 229.97C455.34 231.468 454.325 232.616 453.976 234.364C453.593 236.294 453.909 238.457 453.726 240.421C453.56 242.252 453.027 243.999 451.962 245.53C451.246 246.545 450.231 247.244 449.582 248.326C448.767 249.674 449.582 251.804 449.449 253.252C449.133 256.78 446.87 259.492 444.124 261.489C443.874 261.672 443.858 261.955 443.924 262.222C444.989 266.016 444.507 270.859 440.596 272.822C440.363 272.939 440.146 273.188 440.213 273.471C441.195 277.632 440.795 282.524 437.65 285.703C437.517 285.836 437.467 286.152 437.567 286.319C439.181 289.264 439.131 292.459 439.564 295.704C439.597 295.904 439.73 296.137 439.93 296.187C443.425 297.202 444.673 300.065 446.603 302.81C447.286 303.792 448.268 304.608 449.116 305.44L449.266 305.523Z" fill="#F0DEAB"/>
<path d="M437.7 298.284C439.397 293.741 437.7 290.163 434.954 286.435C439.48 283.639 440.446 276.8 438.216 272.173C443.474 270.343 444.073 264.452 441.444 259.958C447.751 258.427 449.682 252.486 446.803 246.861C451.779 244.565 455.323 237.559 450.713 233.648C452.644 232.55 454.757 229.338 455.456 228.09C457.137 225.044 455.972 222.099 453.676 219.952C456.305 217.905 457.72 214.344 457.254 211.099C456.272 207.97 453.443 205.357 450.181 204.658C451.329 201.729 451.096 198.584 448.267 196.554C447.119 195.738 443.807 193.758 441.594 193.608C444.057 188.1 437.816 183.324 432.341 183.407C432.508 177.083 428.181 172.557 421.824 173.921C422.223 168.729 419.144 163.703 413.619 164.319C413.619 159.177 409.792 153.435 404.5 152.886C405.349 148.326 405.349 144.382 401.837 141.004C403.202 139.423 404.417 137.693 404.833 135.596C405.332 133.066 405.365 130.487 406.314 128.057C407.811 124.163 408.078 121.95 405.348 118.788C406.014 117.773 406.43 116.807 406.38 115.509C406.314 114.062 405.149 112.797 405.165 111.349C405.215 108.653 406.064 106.506 405.165 104.193C403.102 102.795 400.839 103.145 398.193 102.595C396.761 102.296 395.796 100.881 394.398 100.482C393.15 100.132 392.102 100.332 390.97 100.748C388.491 97.3866 386.277 97.1536 382.15 97.7527C379.571 98.1355 377.041 97.5863 374.478 97.5197C372.348 97.4531 370.385 98.2686 368.537 99.2338C366.041 95.0734 362.18 94.1748 357.554 93.9917C358.186 88.7163 353.443 83.6906 348.434 82.5589C350.265 77.3002 346.055 73.1731 340.896 72.4076C343.641 66.5331 340.197 61.3076 333.989 60.0595C335.287 54.7342 332.026 47.595 326.101 48.7599C326.451 46.5632 325.253 42.902 324.72 41.604C323.372 38.3922 320.36 37.4602 317.248 37.9262C317.298 34.5979 315.384 31.2695 312.555 29.6054C309.493 28.4238 305.699 29.0063 303.119 31.1198C301.538 28.3905 298.942 26.6099 295.581 27.5751C294.216 27.9579 290.621 29.3225 289.107 30.9533C286.328 25.5947 278.706 27.4919 275.361 31.8187C270.518 27.7415 264.278 28.3074 261.399 34.1153C257.604 30.5706 251.73 29.8384 248.768 34.5479C244.757 31.3361 237.868 30.7536 234.14 34.5479C231.111 31.0366 228.016 28.5903 223.206 29.2226C222.807 27.1757 222.224 25.1288 220.843 23.4979C219.179 21.5342 217.182 19.8867 215.867 17.6401C213.77 14.0455 212.206 12.4479 208.029 12.6143C207.646 11.466 207.147 10.5341 206.099 9.76862C204.917 8.9199 203.203 9.053 202.088 8.12107C200.008 6.40698 198.86 4.41 196.48 3.66113C194.1 4.39336 192.952 6.39034 190.872 8.12107C189.74 9.053 188.026 8.9199 186.861 9.76862C185.813 10.5341 185.313 11.466 184.931 12.6143C180.754 12.4645 179.189 14.0455 177.092 17.6401C175.778 19.8867 173.781 21.5342 172.117 23.4979C170.735 25.1288 170.153 27.1591 169.753 29.2226C164.944 28.5903 161.832 31.0366 158.803 34.5479C155.076 30.7536 148.186 31.3361 144.175 34.5479C141.213 29.8384 135.355 30.5706 131.544 34.1153C128.665 28.3074 122.425 27.7415 117.582 31.8187C114.237 27.4753 106.615 25.5781 103.836 30.9533C102.338 29.3225 98.7271 27.9579 97.3625 27.5751C94.0176 26.6265 91.4048 28.3905 89.8239 31.1198C87.2444 29.0063 83.4502 28.4238 80.3881 29.6054C77.5424 31.2695 75.6453 34.5979 75.6952 37.9262C72.5832 37.4602 69.5711 38.3922 68.2231 41.604C67.6739 42.9187 66.4924 46.5632 66.8252 48.7599C60.9008 47.5783 57.6391 54.7342 58.9371 60.0429C52.7298 61.291 49.285 66.5164 52.0308 72.4076C46.8886 73.1731 42.6616 77.3002 44.4922 82.5423C39.4831 83.6905 34.7402 88.6997 35.3726 93.9751C30.7462 94.1582 26.8854 95.0568 24.3891 99.2172C22.5419 98.252 20.5782 97.4365 18.4481 97.5031C15.8853 97.5697 13.3391 98.1188 10.7763 97.7361C6.6492 97.137 4.43587 97.37 1.95627 100.732C0.824646 100.316 -0.223777 100.116 -1.4719 100.465C-2.86979 100.848 -3.83501 102.279 -5.26618 102.579C-7.9122 103.128 -10.1921 102.778 -12.239 104.176C-13.1377 106.49 -12.2889 108.636 -12.239 111.332C-12.2057 112.797 -13.3873 114.045 -13.4538 115.493C-13.5204 116.791 -13.0877 117.756 -12.4221 118.771C-15.1513 121.933 -14.885 124.146 -13.3873 128.04C-12.4553 130.47 -12.4054 133.066 -11.9062 135.579C-11.4901 137.676 -10.2753 139.407 -8.91069 140.988C-12.4054 144.349 -12.4221 148.31 -11.5733 152.853C-16.8654 153.402 -20.6929 159.16 -20.6929 164.286C-26.2179 163.67 -29.3133 168.696 -28.8972 173.888C-35.2377 172.523 -39.5645 177.033 -39.4147 183.374C-44.8898 183.29 -51.1304 188.067 -48.6675 193.575C-50.8808 193.725 -54.1925 195.705 -55.3407 196.521C-58.1698 198.551 -58.4194 201.679 -57.2545 204.625C-60.4996 205.324 -63.3287 207.92 -64.3106 211.049C-64.7932 214.294 -63.362 217.872 -60.7326 219.919C-63.0458 222.065 -64.1941 224.994 -62.5133 228.056C-61.831 229.305 -59.7008 232.516 -57.7871 233.615C-62.3968 237.509 -58.8521 244.515 -53.8763 246.811C-56.7719 252.453 -54.8248 258.394 -48.5177 259.908C-51.1304 264.402 -50.5313 270.276 -45.2892 272.123C-47.5192 276.75 -46.554 283.589 -42.0275 286.385C-44.7733 290.113 -46.4708 293.691 -44.79 298.234C-46.7038 299.083 -48.551 300.098 -49.8324 301.812C-51.38 303.876 -52.5283 306.189 -54.4254 307.969C-57.4709 310.815 -58.6691 312.696 -57.5874 316.739C-58.6191 317.372 -59.4346 318.054 -59.9338 319.252C-60.4996 320.584 -60.0004 322.231 -60.6494 323.529C-61.8642 325.942 -63.5617 327.507 -63.7447 329.986C-62.4966 332.133 -60.2999 332.815 -58.1532 334.463C-57.0049 335.345 -56.7386 337.059 -55.6569 338.007C-54.6751 338.856 -53.6599 339.139 -52.4451 339.256C-51.6629 343.366 -49.7658 344.531 -45.7885 345.779C-43.3089 346.561 -41.2619 348.142 -38.982 349.324C-37.0849 350.306 -34.9714 350.422 -32.8746 350.355C-32.4253 355.198 -29.3466 357.661 -25.2527 359.841C-28.1151 364.318 -26.0182 370.908 -21.991 374.103C-25.9184 378.03 -23.9214 383.589 -19.6112 386.518C-24.637 390.628 -23.8049 396.819 -18.7459 400.646C-22.224 404.873 -22.3904 412.728 -16.5325 414.243C-17.7973 416.073 -18.3132 419.884 -18.3964 421.299C-18.5795 424.777 -16.2663 426.923 -13.2541 427.855C-14.7352 430.834 -14.469 434.662 -12.6384 437.391C-10.3918 439.787 -6.714 440.902 -3.48553 440.12C-3.25255 443.266 -1.6716 445.995 1.75657 446.577C3.15446 446.81 6.98203 447.16 9.04558 446.344C9.212 452.385 16.9171 453.966 21.8097 451.52C24.4058 457.294 30.2636 459.491 35.3892 455.497C37.2697 460.34 42.2456 463.552 46.9552 460.589C49.1851 465.216 55.1262 468.727 60.1353 466.93C61.3335 471.406 63.0642 474.968 67.6906 476.482C67.158 478.512 66.8086 480.593 67.3411 482.656C67.9901 485.152 69.0718 487.499 69.2882 490.095C69.621 494.255 70.3366 496.352 74.1808 498.033C74.031 499.231 74.0643 500.296 74.68 501.444C75.3623 502.726 76.9766 503.342 77.5757 504.673C78.7073 507.119 78.8737 509.416 80.6877 511.113C83.1506 511.479 85.0478 510.181 87.6605 509.532C89.075 509.183 90.5561 510.048 91.9873 509.782C93.2687 509.549 94.1174 508.917 94.9661 508.051C98.6606 509.998 100.757 509.249 104.219 506.92C106.366 505.472 108.895 504.856 111.242 503.808C113.189 502.942 114.603 501.361 115.851 499.68C119.912 502.343 123.773 501.478 128.016 499.631C129.73 504.656 136.187 507.119 141.196 505.971C141.812 511.496 147.42 513.393 152.38 511.845C152.463 518.336 157.821 521.548 163.962 519.983C165.094 525.342 171.135 530.368 175.961 526.74C176.61 528.87 179.256 531.649 180.321 532.581C182.917 534.894 186.046 534.428 188.642 532.647C190.04 535.66 193.201 537.84 196.48 538.106C199.758 537.84 202.92 535.676 204.318 532.647C206.914 534.428 210.043 534.894 212.639 532.581C213.704 531.632 216.35 528.853 216.999 526.723C221.825 530.351 227.866 525.325 228.998 519.967C235.138 521.531 240.497 518.319 240.58 511.829C245.539 513.376 251.147 511.479 251.763 505.954C256.772 507.103 263.229 504.64 264.943 499.597C269.187 501.445 273.048 502.31 277.108 499.647C278.357 501.328 279.771 502.909 281.718 503.774C284.065 504.823 286.577 505.439 288.741 506.886C292.202 509.216 294.299 509.965 297.994 508.018C298.842 508.883 299.691 509.516 300.972 509.749C302.404 509.998 303.885 509.15 305.299 509.499C307.929 510.148 309.826 511.446 312.272 511.08C314.086 509.383 314.252 507.086 315.384 504.64C316 503.308 317.597 502.693 318.28 501.411C318.895 500.263 318.929 499.215 318.779 498C322.606 496.336 323.322 494.222 323.672 490.062C323.871 487.466 324.97 485.119 325.619 482.623C326.151 480.559 325.802 478.463 325.269 476.449C329.879 474.934 331.61 471.373 332.824 466.913C337.834 468.71 343.775 465.199 346.005 460.556C350.714 463.518 355.69 460.323 357.57 455.464C362.696 459.441 368.554 457.244 371.15 451.486C376.043 453.949 383.748 452.352 383.914 446.311C385.978 447.143 389.805 446.794 391.203 446.544C394.631 445.945 396.212 443.216 396.445 440.087C399.674 440.869 403.352 439.754 405.598 437.358C407.429 434.628 407.712 430.801 406.23 427.822C409.243 426.89 411.556 424.743 411.373 421.265C411.29 419.851 410.774 416.04 409.509 414.209C415.35 412.695 415.2 404.84 411.722 400.613C416.765 396.786 417.613 390.595 412.588 386.484C416.898 383.572 418.911 378.014 414.967 374.086C418.978 370.875 421.091 364.301 418.212 359.825C422.306 357.661 425.385 355.182 425.834 350.339C427.931 350.422 430.028 350.289 431.942 349.307C434.222 348.126 436.269 346.545 438.748 345.762C442.726 344.514 444.623 343.333 445.405 339.239C446.603 339.122 447.635 338.856 448.617 337.991C449.715 337.042 449.965 335.345 451.113 334.446C453.26 332.799 455.456 332.116 456.704 329.97C456.521 327.49 454.824 325.926 453.609 323.513C452.96 322.215 453.459 320.567 452.894 319.236C452.378 318.037 451.579 317.355 450.547 316.723C451.629 312.696 450.431 310.815 447.385 307.953C445.488 306.172 444.323 303.859 442.792 301.795C441.511 300.098 439.663 299.066 437.75 298.217L437.7 298.284ZM447.951 310.249C450.048 312.163 450.015 314.177 449.216 316.823C449.116 317.172 449.216 317.455 449.532 317.638C452.344 319.202 451.679 321.466 452.411 324.062C453.093 326.442 455.04 327.49 455.39 329.753C454.092 331.65 451.878 331.75 450.231 333.597C448.434 335.611 448.067 337.941 444.856 338.124C444.49 338.141 444.273 338.357 444.207 338.723C443.791 341.436 442.925 343.266 440.213 344.082C438.898 344.481 437.45 344.814 436.235 345.48C432.391 347.526 429.812 349.39 425.235 349.157C424.902 349.157 424.603 349.424 424.586 349.756C424.37 354.815 421.108 357.012 416.964 359.126C416.598 359.309 416.548 359.775 416.781 360.091C420.043 364.235 417.48 370.925 413.536 373.654C413.17 373.903 413.336 374.403 413.619 374.636C417.946 378.23 415.284 383.639 411.156 385.968C410.74 386.201 410.707 386.767 411.107 387.034C416.382 390.711 415.517 396.652 410.474 400.047C410.158 400.264 409.991 400.696 410.291 401.013C413.819 404.69 414.368 412.728 407.895 413.294C407.279 413.361 407.262 414.359 407.845 414.492C408.926 414.742 409.825 419.085 409.942 420.084C410.391 423.745 408.743 426.058 405.099 426.89C404.733 426.973 404.466 427.423 404.683 427.772C406.33 430.435 406.247 434.079 404.55 436.642C402.436 438.855 398.908 439.754 395.946 438.756C395.563 438.622 395.18 438.989 395.18 439.355C395.18 443.099 393.283 445.213 389.622 445.595C388.607 445.695 384.18 445.778 383.698 444.797C383.432 444.264 382.466 444.497 382.55 445.113C383.432 451.553 375.477 452.801 371.1 450.172C370.734 449.955 370.335 450.205 370.201 450.554C368.005 456.229 362.413 458.393 357.654 454.066C357.304 453.75 356.755 453.899 356.622 454.349C355.257 458.892 350.581 462.686 346.121 459.275C345.838 459.058 345.306 459.008 345.156 459.408C343.359 463.868 337.417 467.862 332.641 465.599C332.292 465.432 331.843 465.598 331.743 465.981C330.594 470.491 329.18 474.152 324.304 475.5C323.988 475.584 323.771 475.933 323.871 476.249C325.103 480.659 323.871 483.588 322.723 487.782C322.357 489.113 322.34 490.594 322.257 491.975C322.057 494.804 320.476 496.053 317.914 497.068C317.581 497.201 317.414 497.467 317.481 497.817C318.013 500.995 315.833 501.877 314.269 504.074C312.838 506.088 313.221 508.268 311.673 509.948C309.393 510.115 307.929 508.434 305.449 508.317C302.753 508.168 300.706 509.333 298.559 506.936C298.31 506.67 298.01 506.62 297.694 506.803C295.298 508.168 293.351 508.634 291.004 507.019C289.872 506.237 288.708 505.322 287.443 504.773C283.449 503.059 280.387 502.193 277.707 498.466C277.508 498.199 277.108 498.133 276.842 498.333C272.765 501.311 269.004 500.13 264.76 498.216C264.378 498.05 263.995 498.299 263.895 498.682C262.68 503.824 255.874 505.971 251.264 504.606C250.831 504.473 250.548 504.923 250.548 505.272C250.432 510.897 244.541 512.178 240.147 510.414C239.698 510.248 239.249 510.564 239.282 511.047C239.698 517.454 234.523 520.499 228.715 518.669C228.349 518.552 227.916 518.702 227.849 519.135C227.167 524.194 221.243 529.619 216.749 524.926C216.317 524.476 215.518 525.092 215.784 525.625C216.267 526.607 213.438 530.035 212.722 530.75C210.143 533.38 207.314 533.546 204.368 531.216C204.085 530.983 203.553 531.067 203.419 531.433C202.354 534.378 199.459 536.575 196.397 536.841C193.351 536.575 190.439 534.362 189.374 531.433C189.241 531.05 188.708 530.983 188.425 531.2C185.496 533.529 182.667 533.363 180.071 530.734C179.356 530.002 176.527 526.59 177.009 525.608C177.275 525.076 176.477 524.46 176.044 524.909C171.551 529.602 165.626 524.177 164.944 519.118C164.894 518.685 164.445 518.535 164.079 518.652C158.271 520.483 153.095 517.437 153.511 511.03C153.545 510.547 153.095 510.231 152.646 510.398C148.253 512.162 142.361 510.88 142.245 505.255C142.245 504.906 141.962 504.457 141.529 504.573C136.92 505.954 130.097 503.791 128.898 498.649C128.815 498.266 128.416 498.016 128.033 498.183C123.806 500.097 120.045 501.278 115.951 498.299C115.685 498.1 115.286 498.166 115.086 498.432C112.407 502.143 109.344 503.009 105.351 504.74C104.069 505.289 102.921 506.204 101.789 506.986C99.4594 508.6 97.4957 508.134 95.0993 506.77C94.7831 506.587 94.4835 506.637 94.2339 506.903C92.0871 509.299 90.0236 508.134 87.3443 508.284C84.8813 508.417 83.4169 510.082 81.137 509.915C79.5893 508.234 79.9721 506.038 78.5409 504.024C76.9766 501.827 74.7965 500.945 75.3291 497.767C75.3956 497.401 75.2292 497.151 74.8964 497.001C72.3336 495.986 70.7526 494.738 70.5529 491.909C70.4531 490.544 70.4531 489.063 70.087 487.715C68.9387 483.521 67.7072 480.593 68.9387 476.183C69.0219 475.85 68.8222 475.517 68.506 475.417C63.63 474.086 62.2155 470.408 61.0672 465.898C60.9674 465.499 60.5347 465.349 60.1686 465.515C55.3924 467.779 49.4514 463.785 47.6707 459.325C47.5043 458.909 46.9718 458.975 46.7055 459.175C42.2456 462.586 37.5693 458.792 36.2047 454.249C36.0715 453.8 35.5224 453.633 35.1729 453.966C30.4134 458.293 24.8052 456.129 22.6251 450.455C22.492 450.105 22.0926 449.839 21.7265 450.072C17.3497 452.701 9.39507 451.453 10.2771 445.013C10.3603 444.397 9.37842 444.164 9.1288 444.697C8.64619 445.695 4.21953 445.612 3.20439 445.495C-0.456757 445.113 -2.3539 442.999 -2.37054 439.255C-2.37054 438.889 -2.7533 438.523 -3.13606 438.656C-6.09826 439.671 -9.62628 438.772 -11.7398 436.542C-13.4372 433.979 -13.5204 430.352 -11.8895 427.672C-11.6732 427.323 -11.9395 426.874 -12.3056 426.79C-15.9501 425.942 -17.581 423.628 -17.1483 419.984C-17.0318 418.969 -16.1165 414.625 -15.0514 414.392C-14.469 414.259 -14.4856 413.261 -15.1014 413.194C-21.5749 412.612 -21.0258 404.59 -17.4978 400.913C-17.1982 400.596 -17.3646 400.164 -17.6808 399.947C-22.7232 396.553 -23.5886 390.611 -18.3132 386.934C-17.9304 386.651 -17.9471 386.102 -18.3631 385.869C-22.4902 383.539 -25.1529 378.13 -20.8261 374.536C-20.5598 374.303 -20.3767 373.804 -20.7429 373.554C-24.6869 370.808 -27.2664 364.135 -23.988 359.991C-23.7384 359.675 -23.7883 359.225 -24.171 359.026C-28.3148 356.912 -31.5765 354.699 -31.7929 349.657C-31.7929 349.324 -32.0924 349.041 -32.4419 349.057C-37.0183 349.29 -39.5978 347.427 -43.442 345.38C-44.6568 344.731 -46.1047 344.381 -47.4193 343.982C-50.1319 343.166 -50.9973 341.336 -51.4133 338.623C-51.4632 338.257 -51.6962 338.057 -52.0623 338.024C-55.2742 337.841 -55.6569 335.511 -57.4376 333.498C-59.0851 331.65 -61.2984 331.551 -62.5965 329.67C-62.247 327.407 -60.2999 326.358 -59.6176 323.979C-58.8854 321.382 -59.5511 319.136 -56.7386 317.572C-56.4224 317.388 -56.3059 317.106 -56.4224 316.756C-57.2212 314.127 -57.2379 312.096 -55.1577 310.183C-54.1425 309.251 -52.9943 308.319 -52.1788 307.204C-49.616 303.692 -48.085 300.897 -43.8747 299.116C-43.5585 298.983 -43.4254 298.617 -43.5585 298.301C-45.5555 293.658 -43.5585 290.263 -40.7627 286.552C-40.5131 286.219 -40.6629 285.786 -41.0123 285.603C-45.7552 283.29 -46.3376 276.151 -43.9745 271.974C-43.7582 271.591 -44.1243 271.208 -44.4738 271.125C-49.9322 269.76 -49.8657 263.736 -47.1697 259.842C-46.9035 259.442 -47.1198 258.927 -47.5858 258.86C-53.9262 257.828 -55.7401 252.104 -52.6614 246.861C-52.4617 246.529 -52.5117 246.063 -52.9111 245.913C-57.7038 244.132 -61.6812 237.143 -56.0896 233.798C-55.5571 233.482 -55.9731 232.566 -56.5556 232.699C-57.6206 232.949 -60.3332 229.421 -60.8824 228.572C-62.8627 225.46 -62.3968 222.681 -59.4845 220.335C-59.2016 220.102 -59.1517 219.569 -59.4845 219.353C-62.1139 217.672 -63.6283 214.344 -63.1956 211.298C-62.247 208.386 -59.4679 206.04 -56.3559 205.657C-55.9565 205.607 -55.7568 205.108 -55.9232 204.775C-57.5374 201.397 -56.7553 198.684 -53.61 196.737C-52.7446 196.204 -48.7839 194.207 -47.9186 194.89C-47.4526 195.256 -46.6705 194.623 -47.0199 194.108C-50.5979 188.682 -43.9912 184.106 -38.8988 184.572C-38.4662 184.605 -38.2332 184.206 -38.2498 183.84C-38.7324 177.782 -34.622 173.405 -28.4646 175.236C-27.9986 175.369 -27.5826 175.003 -27.6658 174.52C-28.4146 169.844 -25.8518 164.386 -20.3435 165.534C-19.994 165.601 -19.4947 165.434 -19.528 164.985C-19.8442 160.192 -16.233 154.018 -10.941 153.985C-10.5416 153.985 -10.2254 153.652 -10.2919 153.252C-11.2072 148.693 -11.5234 144.782 -7.71249 141.454C-7.46287 141.237 -7.42959 140.838 -7.64593 140.588C-10.6747 137.16 -10.8245 133.981 -11.6233 129.688C-11.8729 128.323 -12.5053 126.992 -13.0212 125.711C-14.0696 123.081 -13.1709 121.267 -11.3237 119.237C-11.0741 118.971 -11.0575 118.671 -11.2572 118.372C-13.1044 115.742 -11.5234 113.995 -11.0741 111.349C-10.6581 108.919 -11.9561 107.105 -11.2904 104.925C-9.31009 103.794 -7.26317 104.659 -4.98327 103.71C-2.48703 102.679 -1.13907 100.748 1.82314 101.963C2.15597 102.096 2.45552 102.013 2.65522 101.713C4.21953 99.4502 5.78383 98.1687 8.57962 98.6181C9.94423 98.8344 11.3754 99.1506 12.7733 99.084C17.1168 98.901 20.262 98.3518 24.2726 100.532C24.5722 100.698 24.955 100.565 25.1047 100.282C27.5011 95.8223 31.3952 95.2565 36.0383 95.14C36.4543 95.14 36.7039 94.7406 36.6207 94.3578C35.4724 89.1989 40.6813 84.3063 45.4408 83.5408C45.8734 83.4742 45.94 82.9417 45.7902 82.6255C43.4604 77.5165 48.2033 73.8055 52.9295 73.4893C53.4121 73.456 53.6783 72.9734 53.4454 72.5407C50.3001 66.9325 53.6451 61.9567 59.6693 61.0913C60.0521 61.0414 60.3849 60.7085 60.2518 60.3091C58.6708 55.4498 61.6497 47.9944 67.7405 50.2743C68.323 50.4906 68.7723 49.5919 68.3063 49.2258C67.4409 48.5435 68.506 44.2334 68.8388 43.2682C70.037 39.7734 72.5 38.4088 76.1611 39.2242C76.5273 39.3074 76.9599 39.0079 76.9267 38.6085C76.6105 35.4965 78.258 32.2514 80.904 30.6871C83.7663 29.6054 87.3443 30.3376 89.5743 32.5177C89.8572 32.8006 90.3731 32.6342 90.5228 32.3014C92.1537 28.9398 94.7665 27.858 98.2445 29.1061C99.2098 29.4556 103.237 31.3029 103.237 32.4012C103.237 33.0003 104.219 33.2 104.419 32.6175C106.432 26.4268 114.121 28.7567 116.933 33.0169C117.166 33.383 117.632 33.3165 117.915 33.0502C122.358 28.8898 128.333 29.3724 130.746 35.3301C130.929 35.7794 131.478 35.8626 131.794 35.5132C134.989 32.0184 140.847 30.6206 143.393 35.6297C143.56 35.9459 144.009 36.2288 144.325 35.9292C147.886 32.6841 154.959 31.669 158.271 35.7794C158.52 36.079 158.986 36.1455 159.253 35.8127C162.231 32.2514 165.11 29.5555 170.086 30.4708C170.419 30.5373 170.752 30.3043 170.802 29.9715C171.601 25.4616 173.98 23.3648 176.843 20.0698C177.758 19.0214 178.407 17.69 179.089 16.5084C180.487 14.0455 182.468 13.6128 185.214 13.8125C185.58 13.8458 185.829 13.6628 185.929 13.3133C186.828 10.218 189.174 10.3677 191.537 9.06965C193.701 7.87146 194.3 5.74137 196.43 4.89265C198.56 5.74137 199.159 7.87146 201.323 9.06965C203.686 10.3677 206.032 10.218 206.931 13.3133C207.031 13.6628 207.28 13.8292 207.646 13.8125C210.392 13.6295 212.356 14.0455 213.77 16.5084C214.453 17.7066 215.102 19.038 216.017 20.0698C218.863 23.3482 221.259 25.4616 222.058 29.9715C222.125 30.3043 222.441 30.5207 222.774 30.4708C227.749 29.5555 230.612 32.2514 233.607 35.8127C233.874 36.1289 234.339 36.079 234.589 35.7794C237.917 31.669 244.99 32.6841 248.535 35.9292C248.868 36.2288 249.317 35.9459 249.467 35.6297C252.013 30.6206 257.871 32.0184 261.066 35.5132C261.382 35.8626 261.931 35.7628 262.114 35.3301C264.527 29.3724 270.502 28.8898 274.945 33.0502C275.228 33.3165 275.677 33.3664 275.927 33.0169C278.739 28.7567 286.428 26.4268 288.441 32.6175C288.641 33.2 289.623 33.0003 289.623 32.4012C289.623 31.3029 293.65 29.4556 294.615 29.1061C298.093 27.858 300.706 28.9398 302.337 32.3014C302.503 32.6342 303.003 32.8006 303.286 32.5177C305.516 30.321 309.094 29.6054 311.956 30.6871C314.585 32.2514 316.249 35.4965 315.933 38.6085C315.883 39.0079 316.333 39.3074 316.699 39.2242C320.36 38.4088 322.823 39.7734 324.021 43.2682C324.354 44.2334 325.419 48.5435 324.554 49.2258C324.088 49.5919 324.554 50.4906 325.119 50.2743C331.21 47.9944 334.189 55.4498 332.608 60.3091C332.475 60.7252 332.808 61.0414 333.191 61.0913C339.215 61.9733 342.56 66.9491 339.414 72.5407C339.182 72.9568 339.448 73.456 339.93 73.4893C344.657 73.8055 349.399 77.5165 347.07 82.6255C346.92 82.9417 346.986 83.4742 347.419 83.5408C352.162 84.3063 357.371 89.1989 356.239 94.3578C356.156 94.7406 356.406 95.14 356.822 95.14C361.465 95.2565 365.359 95.8223 367.755 100.282C367.905 100.582 368.288 100.698 368.587 100.532C372.614 98.3518 375.743 98.901 380.087 99.084C381.468 99.1506 382.916 98.8178 384.28 98.6181C387.093 98.1854 388.64 99.4502 390.205 101.713C390.404 102.013 390.704 102.113 391.037 101.963C394.016 100.732 395.364 102.679 397.86 103.71C400.14 104.659 402.187 103.794 404.167 104.925C404.833 107.122 403.535 108.919 403.951 111.349C404.417 114.012 405.998 115.742 404.134 118.372C403.917 118.671 403.951 118.971 404.2 119.237C406.064 121.267 406.963 123.065 405.914 125.711C405.398 126.992 404.766 128.323 404.516 129.688C403.718 133.965 403.568 137.143 400.539 140.588C400.323 140.838 400.356 141.237 400.606 141.454C404.417 144.765 404.1 148.693 403.185 153.252C403.102 153.652 403.435 153.985 403.817 153.985C409.093 154.018 412.721 160.192 412.405 164.985C412.371 165.434 412.871 165.601 413.22 165.534C418.728 164.386 421.291 169.844 420.542 174.52C420.476 174.986 420.892 175.369 421.341 175.236C427.498 173.405 431.609 177.782 431.126 183.84C431.093 184.222 431.326 184.622 431.759 184.572C436.851 184.106 443.458 188.682 439.88 194.108C439.53 194.623 440.312 195.256 440.778 194.89C441.644 194.207 445.605 196.204 446.47 196.737C449.599 198.667 450.397 201.397 448.783 204.775C448.633 205.108 448.816 205.607 449.216 205.657C452.328 206.04 455.123 208.369 456.055 211.298C456.471 214.344 454.974 217.655 452.344 219.336C451.995 219.553 452.045 220.085 452.344 220.318C455.273 222.665 455.739 225.46 453.742 228.556C453.193 229.421 450.497 232.932 449.415 232.683C448.833 232.55 448.417 233.465 448.949 233.781C454.541 237.109 450.547 244.099 445.771 245.896C445.372 246.046 445.322 246.512 445.521 246.845C448.583 252.104 446.786 257.812 440.446 258.843C439.98 258.927 439.763 259.442 440.03 259.825C442.726 263.719 442.792 269.744 437.334 271.108C436.984 271.191 436.618 271.574 436.834 271.957C439.198 276.151 438.615 283.273 433.872 285.586C433.523 285.753 433.356 286.202 433.623 286.535C436.435 290.229 438.415 293.641 436.418 298.284C436.285 298.583 436.418 298.966 436.735 299.099C440.945 300.88 442.476 303.676 445.039 307.187C445.854 308.302 447.002 309.234 448.018 310.166L447.951 310.249Z" fill="#F0DEAB"/>
<path d="M345.606 94.8736C346.171 95.2563 346.987 96.804 346.571 98.1354C350.298 99.0007 353.826 96.9871 352.911 94.158C352.229 92.0445 349.367 90.6466 345.589 94.857L345.606 94.8736Z" fill="#F0DEAB"/>
<path d="M335.72 88.5167C333.69 90.6468 335.82 94.208 340.164 95.7058C340.33 94.8903 341.329 94.4411 341.928 93.9252C342.327 88.9493 337.851 86.2867 335.72 88.5167Z" fill="#F0DEAB"/>
<path d="M333.441 101.63C335.721 102.745 339.016 101.497 340.447 98.8343C339.964 98.2518 339.731 97.4863 339.814 96.6542C335.388 94.2578 333.374 97.1867 332.775 97.9356C332.076 98.8176 332.276 101.048 333.457 101.613L333.441 101.63Z" fill="#F0DEAB"/>
<path d="M289.507 98.4848C286.778 99.6164 287.31 103.744 290.689 106.856C291.155 106.173 292.27 106.173 293.019 105.94C295.382 101.547 292.336 97.3033 289.491 98.5015L289.507 98.4848Z" fill="#F0DEAB"/>
<path d="M340.929 97.32C341.262 100.781 345.905 100.116 345.872 96.7376C345.855 93.7754 340.596 93.8086 340.929 97.32Z" fill="#F0DEAB"/>
<path d="M339.781 107.571C342.427 108.254 344.54 103.145 342.959 100.582C342.21 100.698 341.445 100.532 340.763 100.033C336.452 102.645 337.051 106.856 339.781 107.571Z" fill="#F0DEAB"/>
<path d="M350.515 104.509C352.378 102.246 349.35 98.7676 346.337 98.751C345.938 99.4666 344.873 100.848 343.658 100.715C343.924 102.129 347.802 107.804 350.515 104.526V104.509Z" fill="#F0DEAB"/>
<path d="M343.159 93.892C343.492 93.8587 345.256 94.075 345.555 94.1416C349.25 90.6135 349.765 87.1355 346.77 86.4532C343.209 85.6544 341.661 91.6453 343.159 93.892Z" fill="#F0DEAB"/>
<path d="M353.427 100.099C356.24 100.532 361.998 105.241 357.737 108.22C356.822 108.852 356.439 109.634 356.123 110.666C355.341 113.279 358.436 115.226 356.14 117.622C355.79 117.989 355.924 118.604 356.389 118.671C364.91 119.902 368.438 113.113 365.326 107.521C367.806 109.518 370.385 111.382 373.164 112.963C377.99 115.742 383.299 116.99 388.741 117.29C387.825 122.648 387.842 128.107 389.49 133.432C390.438 136.477 391.67 139.406 393.051 142.269C388.291 137.975 380.886 139.922 380.187 148.493C380.154 148.959 380.72 149.225 381.152 148.975C383.998 147.278 385.196 150.706 387.925 150.539C389.007 150.473 389.839 150.273 390.671 149.524C394.515 146.013 397.827 152.686 397.627 155.515C397.577 156.314 398.859 156.231 398.859 155.449C398.909 150.806 396.629 146.562 396.612 146.529C395.714 144.865 393.95 139.955 398.11 137.043C399.142 136.328 399.757 135.379 400.273 134.231C401.705 130.936 400.157 127.241 402.72 124.296C402.969 123.996 402.853 123.547 402.52 123.33C398.326 120.701 390.771 126.326 390.804 133.315C387.942 117.572 395.447 113.545 396.379 115.526C396.845 116.524 394.898 117.506 395.065 118.271C395.913 121.933 401.089 118.172 400.14 115.276C399.192 112.38 397.078 111.864 395.065 112.231C395.88 110.35 395.83 108.17 393.217 106.606C390.605 105.041 385.795 109.252 389.173 110.883C389.889 111.232 391.287 109.535 392.152 110.217C393.866 111.565 388.275 117.989 373.564 111.698C380.387 113.279 387.543 107.172 385.912 102.495C385.779 102.112 385.362 101.913 385.013 102.096C381.568 103.926 378.306 101.597 374.778 102.262C373.53 102.495 372.482 102.895 371.55 103.727C367.789 107.138 363.379 104.309 361.964 103.078C361.948 103.061 358.303 99.8991 353.777 98.9173C353.011 98.7509 352.645 99.9823 353.427 100.099Z" fill="#F0DEAB"/>
<path d="M336.902 69.3123C338.1 68.3471 338.3 66.5997 337.335 65.4015C336.386 64.2033 334.639 64.0037 333.441 64.9522C332.242 65.9174 332.043 67.6648 332.991 68.863C333.94 70.0612 335.687 70.2609 336.885 69.3123H336.902Z" fill="#F0DEAB"/>
<path d="M298.177 64.7358C302.67 58.5784 310.159 69.9446 314.852 62.5557C316.433 64.2532 317.315 66.6329 316.866 69.5119C316.749 70.2774 317.947 70.6435 318.047 69.8614C320.277 52.2213 300.657 53.5027 297.129 64.2199C296.912 64.9022 298.011 65.0021 298.177 64.7524V64.7358Z" fill="#F0DEAB"/>
<path d="M320.494 48.7932C321.692 47.8446 321.892 46.0973 320.926 44.8991C319.978 43.7009 318.214 43.5012 317.016 44.4498C315.817 45.3984 315.618 47.1457 316.583 48.3606C317.531 49.5588 319.279 49.7584 320.494 48.7932Z" fill="#F0DEAB"/>
<path d="M328.681 59.0113C329.88 58.0461 330.079 56.2988 329.131 55.1006C328.182 53.9024 326.435 53.7026 325.22 54.6679C324.022 55.6164 323.822 57.3638 324.771 58.5786C325.719 59.7768 327.467 59.9766 328.665 59.028L328.681 59.0113Z" fill="#F0DEAB"/>
<path d="M316.732 73.8886C316.483 71.9915 315.467 70.3773 313.587 69.1957C313.304 69.0126 312.921 69.1125 312.738 69.3954C311.357 71.642 308.178 73.3062 308.362 75.9522C308.694 81.0612 305.982 84.6058 300.057 88.7329C299.059 89.4152 296.746 90.9962 296.196 91.8615C301.222 86.0203 297.445 80.978 295.498 79.0975C295.081 78.6981 294.499 78.9643 294.432 79.4969C293.983 83.1081 290.106 84.739 289.939 88.5C289.789 91.9614 294.233 97.9191 295.115 100.881C297.511 97.1702 309.543 96.2217 312.988 92.0446C313.304 91.6452 313.038 91.3457 312.588 90.9795C308.961 88.0506 304.001 87.7844 296.546 95.1733C296.363 91.7784 307.613 84.8887 312.572 86.1535C319.345 87.8676 324.487 93.3926 331.144 95.4062C331.909 95.6392 332.259 94.4577 331.493 94.2247C326.068 92.5938 321.409 88.4833 316.183 86.1701C320.576 87.4516 325.852 87.7344 330.878 83.3244C331.16 83.0748 331.144 82.5256 330.778 82.3426C328.381 81.1444 326.218 77.8161 321.608 79.7798C324.77 77.4 328.864 73.9885 327.599 67.9309C327.516 67.5315 326.9 67.5316 326.634 67.7646C324.537 69.6451 322.141 70.2441 319.644 71.3425C318.38 71.8917 317.464 72.8236 316.732 73.9053V73.8886Z" fill="#F0DEAB"/>
<path d="M300.457 101.048C297.528 98.8844 293.7 103.744 294.149 106.406C294.466 106.506 295.997 107.422 296.246 107.605C301.039 105.857 302.92 102.878 300.457 101.048Z" fill="#F0DEAB"/>
<path d="M343.442 81.96C344.64 81.0114 344.84 79.2641 343.875 78.0659C342.926 76.8677 341.179 76.668 339.981 77.6332C338.782 78.5818 338.583 80.3291 339.531 81.544C340.497 82.7422 342.244 82.9418 343.442 81.9766V81.96Z" fill="#F0DEAB"/>
<path d="M289.257 144.399C284.813 152.038 288.075 160.175 291.32 167.531C293.151 171.708 294.998 175.902 295.814 180.412C296.562 184.522 295.947 188.566 294.549 192.394C298.593 191.894 302.67 192.177 306.514 193.825C310.724 195.639 314.402 198.351 318.063 201.08C324.52 205.873 331.726 210.866 340.147 208.236C347.519 205.94 353.061 200.015 358.502 194.84C361.698 191.794 365.392 187.601 369.769 186.353C376.226 184.505 383.581 186.785 385.678 193.658C385.861 194.274 387.126 193.508 387.292 193.342C394.382 186.769 387.376 172.191 378.106 175.103C378.006 166.899 366.44 165.451 362.846 172.057C359.717 165.418 347.752 175.353 349.416 181.726C349.949 183.723 353.26 189.032 349.499 189.365C345.023 189.748 348.068 184.322 348.085 182.126C348.135 177.399 343.225 177.932 339.997 179.613C340.812 175.702 336.086 172.091 338.116 167.814C338.399 167.215 337.734 166.749 337.218 167.032C331.377 170.127 326.085 173.855 327.15 181.011C323.023 181.36 321.708 185.038 323.272 188.849C324.337 191.428 333.307 195.705 328.764 198.651C325.485 200.781 319.744 195.971 317.198 194.241C314.901 192.693 309.726 189.698 307.013 188.849C308.677 185.737 314.885 187.601 317.514 189.648C317.997 190.03 318.696 189.581 318.496 188.982C316.998 184.056 311.34 182.142 306.081 183.174C308.261 178.265 307.646 172.34 303.186 169.778C302.637 169.461 302.054 170.044 302.32 170.593C303.735 173.605 304.168 180.079 300.756 181.011C300.54 178.165 298.776 172.457 297.777 169.877C296.662 166.998 293.251 160.342 296.063 157.613C299.957 153.835 302.104 163.537 304.401 165.151C307.779 167.531 311.64 167.065 312.904 163.121C319.644 165.767 324.47 161.423 328.781 156.414C329.163 155.965 328.864 155.216 328.215 155.366C323.605 156.381 321.125 150.989 317.131 150.906C319.495 148.127 321.109 143.467 316.482 142.469C314.336 142.003 308.361 143.767 309.743 139.49C310.907 135.895 315.317 140.305 317.165 141.271C323.006 144.316 335.354 134.864 329.579 130.337C336.818 128.29 337.967 116.708 329.995 114.777C334.888 106.39 322.24 96.305 314.269 101.763C314.069 101.897 313.054 102.962 313.603 103.278C319.827 106.856 320.426 114.528 317.181 120.419C314.985 124.413 310.075 127.075 306.398 129.505C300.14 133.665 293.134 137.726 289.24 144.416L289.257 144.399ZM357.803 178.015C359.052 175.835 360.483 177.499 361.348 179.064C362.962 175.752 365.925 172.324 369.785 172.041C372.664 171.824 370.584 175.469 369.686 177.849C373.646 176.384 376.808 178.431 377.823 179.896C378.189 180.445 377.89 181.027 377.291 180.961C369.602 180.079 363.445 184.855 357.77 189.664C357.337 190.03 356.938 189.731 356.738 189.282C354.658 184.489 356.389 180.445 357.787 177.999L357.803 178.015ZM330.395 185.753C330.545 185.654 332.492 186.17 332.625 186.303C329.263 182.076 331.46 178.947 333.939 175.586C334.073 179.23 338.965 180.861 337.051 187.068C338.533 185.554 341.245 183.524 342.626 185.654C344.557 188.632 342.793 194.374 336.486 198.418C336.003 198.734 335.47 198.301 335.537 197.785C336.07 193.292 325.302 189.381 330.395 185.77V185.753ZM311.257 131.336C317.215 126.876 323.239 121.933 324.088 114.245C324.154 113.662 324.803 113.479 325.253 113.962C326.451 115.276 327.749 118.804 325.436 122.349C327.965 122 331.959 120.785 331.127 123.531C329.995 127.242 326.001 129.372 322.407 130.204C323.738 131.385 325.036 133.166 322.64 133.898C319.944 134.714 315.617 135.513 311.407 132.417C311.007 132.118 310.808 131.668 311.257 131.336ZM311.823 146.995C313.587 148.809 311.007 151.006 309.193 152.121C315.684 151.638 316.183 156.764 319.694 157.712C315.867 159.393 312.322 160.841 308.944 156.614C309.044 156.764 309.11 158.778 308.977 158.894C304.317 163.054 302.903 151.688 298.41 151.206C297.894 151.156 297.594 150.54 298.01 150.141C303.352 144.898 309.343 144.432 311.806 146.995H311.823Z" fill="#F0DEAB"/>
</g>
<defs>
<clipPath id="clip0_894_12111">
<rect width="393" height="102" fill="white"/>
</clipPath>
</defs>
</svg>
