<svg width="62" height="181" viewBox="0 0 62 181" fill="none" xmlns="http://www.w3.org/2000/svg">
<g clip-path="url(#clip0_894_12112)">
<path d="M60.0458 58.285C57.4583 61.0604 53.3559 62.498 52.6039 66.722C52.3385 68.2037 52.7035 69.5639 54.152 70.2715C55.0588 70.7249 56.1424 70.9571 56.9386 71.5873C57.7126 72.1955 58.1549 73.0249 58.8294 73.7105C61.1184 76.0547 63.7059 74.009 63.5732 71.0677C63.3852 66.8105 59.4819 62.697 60.8751 58.5061C61.1516 57.6657 60.0347 58.2739 60.0347 58.2739L60.0458 58.285ZM61.9809 67.5845C62.4675 68.9556 63.0093 70.7249 62.6223 72.1734C62.2684 73.5004 61.0078 74.6725 59.7362 73.4008C59.3491 73.0138 58.9953 72.6047 58.6636 72.1845C57.8232 71.134 56.9054 70.5479 55.6559 70.0724C54.3068 69.5417 52.8583 68.7124 53.3448 66.9432C53.5992 66.0143 54.0304 65.2624 54.4948 64.422C55.49 62.5975 57.1929 61.4917 58.6747 60.1869C57.9891 60.8061 57.3588 61.4696 56.9497 62.4537C56.4631 63.648 56.4742 64.986 57.4693 65.9148C58.3761 66.7552 59.6477 65.9922 60.1564 65.1186C60.4439 64.621 60.477 63.9465 60.4439 63.3715C60.8862 64.809 61.4944 66.2244 61.992 67.5955L61.9809 67.5845Z" fill="#F0DEAB"/>
<path d="M45.1293 84.4365C46.036 84.8235 46.6773 85.5091 47.5066 86.0067C50.3153 87.6764 52.3057 85.0336 51.41 82.225C50.1273 78.1557 45.2951 75.1922 45.5605 70.7802C45.6157 69.8956 44.6869 70.7692 44.6869 70.7802C42.9066 74.1196 39.3129 76.5744 39.6778 80.8538C39.7994 82.3576 40.5071 83.574 42.0884 83.8946C43.0836 84.0937 44.1894 84.0384 45.1293 84.4475V84.4365ZM40.4518 80.8648C40.4518 79.9028 40.684 79.0625 40.9052 78.1336C41.3917 76.1211 42.7518 74.6062 43.8576 72.9586C43.3489 73.7437 42.9177 74.5399 42.785 75.5904C42.6192 76.862 42.973 78.1557 44.1782 78.7971C45.2619 79.3721 46.3014 78.3105 46.5667 77.3264C46.7216 76.7735 46.5667 76.11 46.3898 75.5572C47.1859 76.8288 48.1369 78.0341 48.9662 79.2394C49.7956 80.4447 50.7687 82.0038 50.7687 83.5077C50.7687 84.8788 49.8509 86.3384 48.3028 85.4427C47.8273 85.1663 47.385 84.8677 46.9537 84.536C45.8701 83.7399 44.8307 83.4192 43.5037 83.2644C42.0662 83.1096 40.4518 82.6673 40.4629 80.8428L40.4518 80.8648Z" fill="#F0DEAB"/>
<path d="M40.9387 98.2589C39.645 94.1896 34.8017 91.2483 35.056 86.8363C35.1113 85.9516 34.1825 86.8363 34.1825 86.8363C32.4133 90.1868 28.8305 92.6526 29.1954 96.932C29.3281 98.4358 30.0358 99.6411 31.6171 99.9618C32.6123 100.161 33.7181 100.105 34.658 100.504C35.5647 100.891 36.2061 101.576 37.0465 102.063C39.8662 103.721 41.8344 101.079 40.9387 98.2699V98.2589ZM36.4714 100.614C35.3878 99.818 34.3484 99.4973 33.0214 99.3536C31.5839 99.1988 29.9695 98.7675 29.9806 96.943C29.9806 95.981 30.2017 95.1406 30.4339 94.2117C30.9204 92.1882 32.2695 90.6843 33.3642 89.0257C32.8556 89.8108 32.4243 90.6069 32.2916 91.6574C32.1368 92.929 32.4907 94.2228 33.6959 94.8641C34.7907 95.4391 35.8191 94.3666 36.0844 93.3935C36.2282 92.8406 36.0844 92.1771 35.9075 91.6242C36.7036 92.8959 37.6657 94.1012 38.495 95.2954C39.3243 96.4896 40.2974 98.0598 40.3084 99.5637C40.3084 100.935 39.4017 102.406 37.8537 101.51C37.3782 101.233 36.9359 100.935 36.4936 100.614H36.4714Z" fill="#F0DEAB"/>
<path d="M27.3265 105.911C27.0943 105.059 26.4972 106.176 26.4972 106.176C25.8669 109.914 23.2463 113.375 24.9492 117.322C25.5463 118.705 26.5968 119.633 28.2001 119.434C29.2064 119.313 30.2347 118.915 31.252 118.992C32.2251 119.069 33.0655 119.512 34.0054 119.722C37.2011 120.407 38.2405 117.278 36.5044 114.89C33.9943 111.44 28.4655 110.168 27.3265 105.9V105.911ZM34.5804 118.959C34.0496 118.848 33.5299 118.705 33.0102 118.528C31.7275 118.119 30.6439 118.141 29.339 118.428C27.9237 118.738 26.254 118.837 25.69 117.101C25.3915 116.183 25.3361 115.31 25.2477 114.37C25.0708 112.302 25.878 110.444 26.3977 108.52C26.1655 109.427 26.0107 110.323 26.2208 111.362C26.4751 112.623 27.216 113.74 28.565 113.961C29.7813 114.16 30.4227 112.822 30.3674 111.816C30.3342 111.241 29.9915 110.655 29.6376 110.201C30.7987 111.163 32.0813 111.993 33.2534 112.866C34.4145 113.74 35.841 114.912 36.3165 116.338C36.7588 117.632 36.3496 119.313 34.5915 118.959H34.5804Z" fill="#F0DEAB"/>
<path d="M15.1736 92.5199C16.7106 88.1964 17.9933 83.7954 19.5193 79.4718C20.614 76.3867 21.6866 73.357 23.4005 70.5483C25.8222 66.5675 28.9626 63.0511 32.3904 59.9107C39.0472 53.7848 46.7765 48.8973 55.114 45.381C63.4626 41.8757 73.2265 39.454 82.1943 41.8203C73.9453 39.0006 64.6347 40.803 56.64 43.6228C48.4573 46.5199 40.7722 51.0204 34.0933 56.5492C27.8236 61.7353 22.7039 67.9829 19.7183 75.4911C17.739 74.1642 15.7044 74.8939 13.9573 76.442C11.9337 78.2444 10.8721 80.5887 10.8721 83.32C10.8721 86.6704 12.6524 89.5896 12.0885 92.9954C11.4582 96.8435 9.74426 100.271 7.23416 103.235C7.36685 103.191 7.42214 103.18 7.44426 103.169C11.038 100.327 13.6366 96.5892 15.1625 92.5089L15.1736 92.5199Z" fill="#F0DEAB"/>
<path d="M15.8592 69.5751C15.8592 69.5751 15.9366 69.6083 15.9698 69.5751C16.014 69.5309 16.0582 69.4976 16.1025 69.4534C21.5539 66.8217 24.9818 61.2265 28.8631 56.8255C32.9102 52.2366 37.6981 48.4217 43.2049 45.7125C49.0765 42.8265 55.4237 41.0351 61.8261 39.8077C67.9963 38.6245 75.2612 37.3197 81.5088 38.6245C75.615 36.7779 68.3612 37.6736 62.3679 38.5692C55.9987 39.5202 49.7068 41.1789 43.8352 43.8659C42.4087 44.5294 41.0376 45.2592 39.6996 46.0664C39.7217 44.64 37.9967 43.5895 36.6698 43.2135C33.8722 42.4395 31.3179 44.6952 29.6482 46.7188C26.8837 50.0693 25.1035 54.2933 23.7102 58.3847C22.9251 60.7068 22.0515 62.9404 20.4371 64.8313C19.0217 66.49 17.4073 67.9275 15.826 69.4203C15.7818 69.4645 15.8039 69.5198 15.8481 69.564C15.8149 69.5861 15.7818 69.6083 15.7486 69.6304C15.7929 69.6083 15.826 69.5862 15.8592 69.5751Z" fill="#F0DEAB"/>
<path d="M18.8777 104.208C19.2869 93.6144 23.1903 82.7999 29.2167 74.1418C41.2586 56.4494 62.2018 47.1499 82.7471 43.7994C62.3567 45.8893 41.6788 54.9898 29.2057 71.7422C23.146 79.8807 18.9994 90.1865 18.0263 100.371C16.0249 99.862 14.2225 101.355 13.1167 103.002C11.5023 105.38 10.9273 108.078 12.0552 110.82C13.4816 114.281 15.7595 117.278 15.6821 121.237C15.5936 125.549 12.6523 131.244 10.9826 132.969C14.0235 131.078 17.0643 125.151 18.1148 120.12C19.2095 114.878 18.6676 109.504 18.8777 104.197V104.208Z" fill="#F0DEAB"/>
<path d="M13.4484 71.7311C13.6917 71.4989 13.7248 71.2225 13.6474 70.9682C13.6474 70.4706 13.2936 70.2163 12.8734 70.161C12.4532 69.984 11.9888 70.0283 11.7455 70.5038C11.5686 70.6807 11.4912 70.935 11.5796 71.2225C11.5354 72.2177 13.0171 72.6932 13.4484 71.7201V71.7311Z" fill="#F0DEAB"/>
<path d="M9.97716 74.3408C11.2377 74.6946 11.5805 72.6821 10.331 72.3393C9.07044 71.9855 8.72764 73.998 9.97716 74.3408Z" fill="#F0DEAB"/>
<path d="M8.263 76.6079C8.81588 76.7074 9.35773 76.3204 9.45725 75.7675C9.63417 74.7281 8.24091 74.1752 7.6659 74.905C7.38946 75.1261 7.27888 75.5132 7.45581 75.8339C7.55532 76.2209 7.87599 76.5305 8.27406 76.6079H8.263Z" fill="#F0DEAB"/>
<path d="M5.64205 106.121C6.94685 106.486 7.30072 104.407 6.00697 104.042C4.6911 103.677 4.34829 105.756 5.64205 106.121Z" fill="#F0DEAB"/>
<path d="M3.62952 108.134C4.96751 108.509 5.33244 106.375 4.00552 106.01C2.66753 105.634 2.3026 107.769 3.62952 108.134Z" fill="#F0DEAB"/>
<path d="M0.401183 109.703C0.401183 109.703 0.423274 109.736 0.445389 109.748C0.567024 109.958 0.755049 110.112 1.04255 110.157C1.2637 110.19 1.46272 110.157 1.63964 110.046C2.55743 109.67 2.41367 108.255 1.41847 108.089C0.555972 107.945 -0.173818 108.985 0.401183 109.703Z" fill="#F0DEAB"/>
<path d="M8.87111 133.101C7.52207 132.725 7.16826 134.86 8.49518 135.236C9.84423 135.612 10.198 133.477 8.87111 133.101Z" fill="#F0DEAB"/>
<path d="M6.09533 137.315C7.46649 137.691 7.83142 135.523 6.47132 135.147C5.10017 134.772 4.73523 136.939 6.09533 137.315Z" fill="#F0DEAB"/>
<path d="M3.30892 139.449C4.65796 139.825 5.02283 137.679 3.68485 137.315C2.33581 136.939 1.982 139.084 3.30892 139.449Z" fill="#F0DEAB"/>
<path d="M96.8798 125.007C96.5259 123.824 96.1942 122.563 95.2874 121.657C93.5735 119.954 91.0855 120.109 88.8629 120.308C88.7966 120.308 88.7634 120.363 88.7634 120.418C88.7302 120.341 88.686 120.263 88.6417 120.186C90.4773 119.766 92.335 119.489 94.2259 119.523C94.436 119.523 94.5576 119.29 94.5023 119.113C94.0379 117.466 94.6903 115.785 95.4754 114.348C95.586 114.137 95.3648 113.872 95.1437 113.961C93.5624 114.569 92.0033 115.066 90.2893 115.088C90.2119 115.088 90.1124 115.144 90.0792 115.221C89.836 115.84 89.6259 116.471 89.4269 117.101C89.1394 117.974 88.6749 118.549 88.0999 119.124C88.487 118.129 88.7081 117.123 88.7634 116.161C88.9624 112.523 87.1268 109.604 84.285 109.051C81.2441 108.454 79.3754 110.356 78.9441 112.379C78.5682 114.071 79.1985 116.128 81.4211 116.659C83.0466 117.046 83.9201 116.393 84.2961 115.962C84.9042 115.276 85.0811 114.237 84.7494 113.363C84.5835 112.943 84.3735 112.689 83.9312 112.335C82.9802 111.738 82.5047 112.269 82.3499 112.435C81.985 112.899 82.0956 113.596 82.6042 113.994C83.1018 114.403 83.8096 114.348 84.1855 113.894C84.2408 113.828 84.285 113.739 84.3182 113.651C84.5283 114.325 84.3735 115.099 83.9201 115.63C83.4004 116.216 82.56 116.404 81.5316 116.172C79.6408 115.719 79.1984 113.96 79.4307 112.49C79.8619 109.814 85.8662 109.548 85.8552 113.695C85.8552 115.387 84.7384 117.399 83.0908 118.715C81.7638 119.777 80.3043 120.219 79.0658 119.943C77.1086 119.489 74.3663 117.786 72.973 115.11C71.6682 112.6 71.6903 109.659 73.0504 106.386C75.3615 100.78 79.7292 97.8605 83.9422 95.0297C88.9292 91.6903 94.0932 88.2292 95.8403 80.3672C97.1673 74.4513 96.8355 69.8403 91.948 67.2196C89.4047 65.8595 86.7951 65.8374 83.5773 66.0253C80.9345 66.335 77.9379 67.1422 74.7865 68.6349C69.2355 71.2667 59.4936 78.0009 56.6407 93.4042C55.0927 101.775 56.7403 109.88 61.1523 116.128C61.1523 116.15 61.1744 116.183 61.1965 116.205C61.1965 116.216 61.2297 116.227 61.2297 116.238C61.8047 117.035 62.4129 117.82 63.0763 118.549C64.9893 120.673 67.1788 122.386 69.4567 123.603C69.4898 123.636 69.523 123.658 69.5561 123.658C72.3869 125.151 75.3504 125.881 78.0595 125.66C81.3547 125.394 83.7653 124.299 85.4571 122.807C84.4951 124.145 83.4888 125.416 81.8634 125.991C81.6533 126.069 81.6312 126.312 81.7639 126.467C82.7923 127.628 82.8143 129.165 83.3893 130.547C83.4557 130.713 83.6879 130.835 83.8537 130.702C84.7826 129.95 85.7004 129.275 86.7951 128.767C86.961 128.689 87.0273 128.557 86.9942 128.369C86.7067 127.075 86.9831 125.693 87.0826 124.377C87.1048 124.111 87.1268 123.78 87.1268 123.437C87.724 128.479 94.0932 129.651 98.3836 129.95C98.66 129.972 98.7485 129.618 98.649 129.43C97.8749 127.993 97.311 126.522 96.8576 124.952L96.8798 125.007ZM72.4201 115.077C72.4643 115.166 72.4975 115.265 72.5417 115.354C72.973 116.183 73.4927 116.891 74.0677 117.499C74.0677 117.499 74.0566 117.51 74.0456 117.521C73.548 118.472 72.1105 118.096 71.3254 117.72C70.4518 117.3 69.7109 116.493 69.6888 115.486C70.4186 115.509 71.1816 115.188 71.834 114.911C71.834 114.911 71.834 114.911 71.8451 114.911C72.011 114.967 72.1879 115.022 72.3648 115.077C72.3869 115.077 72.398 115.077 72.4201 115.077ZM58.4321 100.514C58.7196 100.614 59.0071 100.691 59.2614 100.724C59.9691 100.824 60.6657 100.68 61.2518 100.348C61.0859 101.764 61.5504 103.301 62.623 104.208C62.623 104.208 62.623 104.219 62.6119 104.219C61.8821 105.236 60.3229 105.358 59.5157 105.103C58.5426 104.794 57.3374 104.285 56.9946 103.223C57.7133 102.483 58.1114 101.498 58.4542 100.525L58.4321 100.514ZM71.0379 99.8951C70.6177 100.238 70.1864 100.514 69.6999 100.747C69.0807 101.034 68.1961 101.244 67.5768 101.675C67.5437 101.653 67.4994 101.631 67.4662 101.609C67.3888 101.388 67.3446 101.123 67.3004 100.957C67.1788 100.481 66.9686 100.039 66.8802 99.5523C66.7586 98.9331 66.7364 98.2917 66.7032 97.6725C68.196 98.6787 69.6999 99.3975 71.0379 99.9061V99.8951ZM68.4172 95.3504C69.0917 94.9855 69.722 94.51 70.3965 94.1451C71.1263 93.736 71.8562 93.3489 72.5749 92.9287C72.9067 94.51 73.0504 96.2018 73.172 97.8163C71.3254 97.0864 69.7441 96.246 68.4062 95.3504H68.4172ZM67.6432 94.8086C65.5864 93.2936 64.1268 91.635 63.0874 90.0538C63.6071 89.8768 64.3259 89.8436 64.735 89.8215C65.2436 89.7883 65.7744 89.7773 66.2831 89.6999C66.5153 89.6667 67.4442 89.346 67.9418 89.2797C67.7206 91.1153 67.9638 92.984 67.6321 94.8086H67.6432ZM63.4413 86.5374C63.1206 87.4109 62.8441 88.2956 62.5566 89.1802C61.6277 87.5547 61.086 86.0398 60.7321 84.8787C60.8316 84.8566 60.9311 84.8345 61.0417 84.8124C61.4951 84.7129 61.9816 84.7018 62.446 84.6466C63.1095 84.5691 63.7951 84.4585 64.4696 84.4475C64.3259 84.9451 63.596 86.1835 63.4633 86.5374H63.4413ZM61.7383 94.3109C61.7936 93.8133 61.7937 93.3379 61.7937 92.8624C62.7999 94.2888 63.9167 95.461 65.0667 96.4451C63.7951 96.6331 62.5345 96.8432 61.2629 97.0422C61.4398 96.1355 61.6277 95.2398 61.7273 94.3109H61.7383ZM67.4994 102.737C66.7475 104.495 64.8455 105.181 63.198 104.009C61.9374 103.113 61.4729 101.443 61.8157 99.9615V99.9393C61.9927 99.7734 62.1475 99.5855 62.2912 99.3754C63.7177 100.581 65.4537 101.742 67.4883 102.737H67.4994ZM66.4489 111.373C65.5643 110.71 65.0778 109.493 65.1994 108.421C65.1994 108.387 65.1994 108.365 65.1994 108.332C66.272 108.575 67.2562 108.266 68.0634 107.547C68.0965 108.83 68.4614 110.079 69.5783 110.875C69.6225 110.886 69.6557 110.92 69.711 110.953C68.7268 111.638 67.6321 112.269 66.46 111.373H66.4489ZM69.722 111.561C69.6557 112.313 69.921 113.22 70.3191 113.773C70.5845 114.137 70.8941 114.414 71.248 114.624C70.4297 114.956 69.4566 115.232 68.6937 114.657C67.8533 114.016 67.4441 113.175 67.1898 112.191C67.5657 112.28 67.9528 112.302 68.384 112.258C68.8706 112.213 69.3129 111.882 69.722 111.561ZM68.1186 106.729C68.1186 106.729 68.0744 106.784 68.0634 106.817C67.2893 107.735 66.2278 108.199 65.0004 107.757C64.348 107.525 63.4633 107.138 63.1316 106.474C62.9105 106.032 62.4792 104.971 62.9768 104.561C62.9989 104.539 63.01 104.517 63.0321 104.495C63.209 104.606 63.386 104.694 63.585 104.772C64.8566 105.269 65.9845 105.125 66.847 104.451C66.9244 105.38 67.4331 106.143 68.1408 106.673C68.1408 106.696 68.1297 106.707 68.1186 106.729ZM60.6658 105.778C61.2408 105.778 61.8379 105.634 62.2581 105.313C62.3023 105.678 62.4239 106.065 62.5234 106.386C62.822 107.271 63.7287 107.79 64.5249 108.122C64.547 108.133 64.5802 108.144 64.6134 108.155C63.9167 109.062 63.1427 109.991 62.1032 109.648C61.2297 109.361 60.323 108.31 60.3008 107.027C60.4667 106.607 60.5884 106.176 60.6768 105.789L60.6658 105.778ZM64.6908 109.084C64.7903 110.123 65.321 111.307 66.1835 111.804C66.3162 111.882 66.4489 111.948 66.5705 112.003C66.1614 113.164 64.5581 113.651 63.5629 112.954C63.3085 112.777 62.4018 111.616 62.3023 110.179C63.2864 110.267 64.1158 109.836 64.6797 109.084H64.6908ZM66.3494 116.216C66.4379 116.238 66.5153 116.261 66.5927 116.272C66.5927 116.294 66.5705 116.316 66.5705 116.349C66.5484 116.869 66.7033 117.333 66.9687 117.709C65.5533 118.417 64.1157 117.278 63.6734 115.896C64.1047 115.564 64.4475 115.122 64.6576 114.613C64.8898 115.365 65.5975 116.006 66.3384 116.216H66.3494ZM66.7143 115.807C65.885 115.564 65.0335 114.956 65.0004 113.761C65.7081 113.651 66.3826 113.231 66.7917 112.645C67.1345 113.795 67.7538 114.834 68.9038 115.343C68.2403 115.708 67.4552 116.017 66.7143 115.807ZM69.2133 115.741C69.3129 116.625 69.8437 117.366 70.5514 117.864C70.1201 118.361 69.0033 118.273 68.4614 118.129C67.5879 117.897 67.035 117.289 67.0681 116.36C67.0681 116.36 67.0681 116.349 67.0681 116.338C67.8201 116.36 68.5388 116.117 69.2133 115.741ZM70.4629 120.485C69.9874 120.186 69.2576 119.611 69.2133 118.793C69.2133 118.793 69.2133 118.793 69.2133 118.782C69.2133 118.76 69.2023 118.748 69.1912 118.726C69.6777 118.748 70.1975 118.693 70.5845 118.461C70.6066 119.191 71.4913 120.064 72.011 120.374C72.0663 120.407 72.1437 120.44 72.1989 120.473C71.6461 120.728 71.0047 120.827 70.4629 120.485ZM70.673 121.115C70.0316 121.856 69.0143 121.944 68.2513 121.303C68.3951 121.192 68.5277 121.06 68.6383 120.938C68.8816 120.639 69.0475 120.286 69.147 119.91C69.4456 120.385 69.9321 120.783 70.3965 121.004C70.485 121.048 70.5845 121.093 70.673 121.115ZM72.1547 114.513C71.5134 114.303 70.9273 113.983 70.6177 113.33C70.3523 112.755 70.0759 111.959 70.2638 111.329C70.6951 111.561 71.1927 111.76 71.5465 111.638C71.6018 112.645 71.8009 113.596 72.1437 114.513H72.1547ZM71.5244 111.086C71.5244 111.086 71.4249 111.13 71.3807 111.185C71.3365 111.24 70.3744 110.82 70.308 110.787C69.8547 110.499 69.335 110.157 69.0696 109.681C68.5941 108.863 68.5057 107.956 68.5388 107.027C68.5499 107.027 68.5609 107.005 68.572 106.983C69.733 107.636 71.2369 107.713 72.3206 106.95C71.8008 108.387 71.5244 109.77 71.5134 111.086H71.5244ZM72.6413 106.143C71.4581 107.724 67.3557 106.906 67.223 104.119C67.5105 103.81 67.7538 103.422 67.9418 102.98C69.5341 103.721 71.3143 104.34 73.2826 104.783C73.0614 105.225 72.8293 105.678 72.6413 106.154V106.143ZM73.7913 103.843C73.6586 103.212 73.2162 102.56 72.9287 102.018C72.6744 101.554 72.4091 100.935 72.2874 100.337C73.8908 100.824 75.1624 101.012 75.7816 101.078C75.0518 101.908 74.3884 102.825 73.7913 103.843ZM77.4403 99.1321C77.4403 99.1321 77.4403 99.1653 77.4403 99.1764C76.3345 98.8999 75.3062 98.5903 74.3441 98.2586C74.8528 97.761 75.2509 97.1307 75.7374 96.6552C76.224 96.1908 76.7879 95.5162 77.385 95.0739C77.4182 95.0739 77.4513 95.096 77.4845 95.1071C77.4955 95.3614 77.4845 95.6268 77.5066 95.8812C77.5509 96.2461 77.6172 96.611 77.6282 96.9869C77.6614 97.7167 77.6946 98.4466 77.4514 99.1432L77.4403 99.1321ZM95.3869 80.1571C95.3869 80.0907 95.4201 80.0134 95.4091 79.947C95.398 79.5379 95.2321 79.2061 95.1326 78.8302C95.3206 78.7528 95.5307 78.6422 95.7076 78.5095C95.6192 79.0402 95.5086 79.5821 95.3869 80.1461V80.1571ZM90.5879 78.7748C90.8754 78.5426 91.1518 78.2662 91.4062 77.9677C91.561 77.7907 91.7047 77.5917 91.8374 77.4037C92.4677 77.7575 93.0538 78.233 93.4187 78.7085C93.8499 79.2614 94.0047 79.8364 93.7946 80.1129C93.5845 80.3893 92.9874 80.3893 92.3461 80.1018C91.76 79.8475 91.1076 79.3609 90.5879 78.7859V78.7748ZM90.599 82.7446C90.2673 82.9105 89.7365 82.6451 89.2942 82.1032C88.874 81.6056 88.498 80.8316 88.299 80.0465C88.299 80.0354 88.2879 80.0244 88.2879 80.0134C88.8297 79.8475 89.3605 79.6153 89.8581 79.3057C90.3446 79.9359 90.7317 80.6879 90.8754 81.3182C91.0413 82.0037 90.9307 82.5898 90.6101 82.7446H90.599ZM92.3018 76.5744C92.5783 75.9994 92.7552 75.3802 92.8216 74.7499C93.5072 74.8273 94.1595 75.0042 94.6461 75.2585C95.2653 75.5902 95.6413 76.0436 95.5639 76.3864C95.4754 76.7292 94.9336 76.9614 94.2369 76.9614C93.6619 76.9614 92.9543 76.8176 92.3018 76.5633V76.5744ZM84.8711 66.4677C85.5124 66.4234 86.1206 66.4234 86.6956 66.4345C88.6196 66.5008 90.223 66.8657 91.3288 67.4739C95.0552 69.5085 96.172 72.2951 96.0062 75.9109C95.8735 75.546 95.5417 75.2032 95.0552 74.9157C94.9999 74.8825 94.9447 74.8494 94.8783 74.8162C94.3365 74.5287 93.5956 74.3297 92.8547 74.2523C92.8547 73.5335 92.7221 72.8037 92.4014 72.1071C91.4394 70.0061 89.0398 68.6128 86.8172 69.7407C85.0148 70.6474 84.1413 73.3345 86.1096 74.6061C87.0273 75.2033 88.5312 74.9157 88.8629 73.7547C89.1172 72.8258 87.8787 71.51 87.16 72.5936C87.7239 71.8859 88.6528 72.5273 88.686 73.2681C88.7191 74.1749 87.6576 74.7167 86.8725 74.4734C84.8047 73.8542 85.5346 71.2225 87.0052 70.4595C88.6418 69.608 90.4331 70.5037 91.3066 71.9855C92.4456 73.9206 91.8264 76.1321 90.3225 77.647C87.2264 80.7542 82.1841 79.2503 80.7908 75.1922C79.5745 71.6537 81.3879 67.5292 84.8711 66.4455V66.4677ZM87.4033 82.5124C87.2374 83.1979 86.8614 83.6624 86.4855 83.6513C86.1206 83.6403 85.7778 83.1537 85.6451 82.4681C85.5124 81.8379 85.5345 81.0085 85.7114 80.2455C86.2864 80.3119 86.8725 80.2898 87.4364 80.2013C87.4364 80.2124 87.4364 80.2234 87.4364 80.2345C87.5912 81.0306 87.5692 81.8931 87.4033 82.5124ZM79.7514 73.8984C79.1432 73.9648 78.2586 73.9537 77.5288 73.7215C76.8542 73.5225 76.4009 73.1355 76.4119 72.8037C76.423 72.472 76.9095 72.1292 77.5951 71.9855C78.2254 71.8417 79.0769 71.8417 79.8288 71.9855C79.7293 72.6158 79.6961 73.2571 79.7403 73.8984H79.7514ZM77.8163 75.6234C78.347 75.2585 79.11 74.9489 79.873 74.8052C79.9504 75.1811 80.0499 75.546 80.1826 75.8999C80.271 76.1321 80.3706 76.3422 80.4701 76.5523C79.8066 76.9283 79.0547 77.1937 78.4355 77.2489C77.7389 77.3263 77.1639 77.1605 77.0533 76.8287C76.9317 76.5081 77.2523 75.9994 77.8383 75.6124L77.8163 75.6234ZM79.4528 78.8855C79.7735 78.3547 80.3153 77.7907 80.9235 77.3595C81.2884 77.9124 81.7196 78.3768 82.2062 78.7859C81.7528 79.3388 81.1888 79.8475 80.6691 80.135C80.0609 80.4778 79.4749 80.5552 79.2427 80.3119C78.9994 80.0686 79.0879 79.4826 79.4528 78.8855ZM82.2283 81.2408C82.3278 80.6436 82.6264 79.9359 82.9802 79.3388C83.5552 79.6816 84.1634 79.9359 84.8048 80.1018C84.5725 80.8205 84.2076 81.5172 83.7874 81.9927C83.334 82.5234 82.8033 82.7998 82.5047 82.645C82.2172 82.4902 82.0956 81.9374 82.2283 81.2408ZM77.3297 68.8672C77.4735 68.5465 78.0595 68.4028 78.734 68.5355C79.3532 68.635 80.0941 68.9778 80.7465 69.4201C80.448 69.9508 80.2158 70.5037 80.0499 71.0898C79.309 70.9018 78.546 70.5369 78.0374 70.1278C77.4734 69.6855 77.197 69.1879 77.3297 68.8672ZM75.0186 69.1436C75.284 69.022 75.5384 68.9004 75.7927 68.8008C75.6932 69.5417 76.2461 70.183 76.7547 70.7138C75.8812 71.1782 74.9744 71.9191 75.0518 73.0138C75.0961 73.7879 75.6157 74.4955 76.3124 74.8604C75.7705 75.347 75.4831 76.4196 75.6821 76.9614C75.9807 77.8239 76.8211 78.6643 77.7499 78.7196C77.385 79.7148 77.6062 80.7542 78.4797 81.4951C79.1321 82.0479 80.0057 82.3244 80.7245 81.9705C80.9346 83.8061 83.2898 85.1441 84.4398 83.5629C84.7937 84.4364 85.612 85.1331 86.5298 85.3211C87.6466 85.5533 88.3432 84.7018 88.6307 83.7508C89.2167 84.3922 90.3115 84.7129 91.0855 84.547C92.2576 84.2927 92.7663 83.1206 92.6336 82.0148C93.0316 82.1475 93.3413 82.2691 93.8167 82.1364C94.248 82.0259 94.6571 81.672 94.9004 81.3182C95.0773 81.0749 95.2432 80.7653 95.3538 80.4556C94.8562 82.5898 94.1264 84.3811 93.2086 85.9181C90.0129 86.648 74.3442 88.4061 72.8514 70.2936C73.6365 69.8402 74.3663 69.4532 75.0518 69.1436H75.0186ZM70.7946 71.6205C70.0869 76.5523 76.1466 90.9273 91.7158 88.0191C90.1346 89.9763 88.2216 91.5023 86.187 92.9398C86.2423 92.8403 86.2643 92.7297 86.2201 92.6302C85.9105 91.9225 84.5615 89.722 84.1523 89.0475C84.0417 88.8706 83.7211 88.7932 83.5552 88.9037C82.737 89.5009 80.6802 91.1484 80.1494 91.6903C79.9393 91.9114 80.3816 92.5638 80.6138 92.3648C81.3989 91.7013 83.2345 89.91 83.7763 89.5782C84.3403 90.6398 84.8158 91.9114 85.5013 93.0725C85.5566 93.1941 85.6783 93.2273 85.7888 93.2052C85.0922 93.6917 84.3845 94.1672 83.6658 94.6427C83.4115 94.8196 83.1571 94.9855 82.9139 95.1513C76.423 95.3946 70.1975 90.2638 68.0634 87.7095C65.1441 84.2263 64.0162 80.3783 63.8172 78.0783C66.0398 75.2364 68.4946 73.1575 70.7946 71.6095V71.6205ZM63.0321 79.1287C63.0321 79.4051 63.0653 79.7148 63.1205 80.0244C62.1475 81.296 61.4398 82.7778 60.4778 84.0715C60.4336 83.9167 60.3893 83.773 60.345 83.6513C61.1744 81.9706 62.0701 80.4777 63.0321 79.1287ZM58.9076 87.0239C59.3941 88.5388 59.9802 89.8768 60.6436 91.071C60.1903 91.1927 59.748 91.3254 59.2835 91.4249C58.6643 91.5576 58.0783 91.7787 57.4811 91.9335C57.8792 90.1864 58.3547 88.5499 58.9076 87.035V87.0239ZM57.1494 93.548C57.1715 93.4595 57.1826 93.371 57.2047 93.2715C57.9456 94.7201 59.4715 96.9206 61.9153 99.0658C61.3071 99.9725 60.2234 100.47 59.1177 100.216C58.2441 100.017 56.9393 99.3533 56.6297 98.2365C56.696 96.6884 56.8619 95.1182 57.1605 93.5369L57.1494 93.548ZM56.5965 99.309C56.9283 99.7514 57.448 100.105 57.9787 100.36C57.9566 100.382 57.9455 100.393 57.9345 100.426C57.647 101.244 57.3152 102.096 56.7513 102.748C56.6297 101.62 56.5744 100.47 56.5965 99.309ZM56.9282 104.186C57.6138 105.048 58.8081 105.523 59.8364 105.723C59.936 105.745 60.0354 105.767 60.146 105.778C59.8917 106.906 59.2836 108.575 57.9898 108.719C57.5143 107.26 57.1605 105.734 56.9282 104.186ZM58.797 110.875C58.5648 110.323 58.3547 109.759 58.1556 109.195C58.9518 109.051 59.5378 108.476 59.947 107.768C60.0686 108.708 60.7653 109.648 61.6056 110.024C61.0638 110.632 59.7701 111.384 58.9739 110.909C58.9186 110.875 58.8523 110.864 58.797 110.875ZM59.0513 111.473C59.9802 111.749 61.2076 111.141 61.86 110.466C62.0148 111.052 62.059 111.683 62.3023 112.236C61.9374 112.468 61.5946 112.722 61.1634 112.833C60.7211 112.943 60.146 113.098 59.7258 112.855C59.4825 112.401 59.2614 111.937 59.0513 111.473ZM61.6167 115.962C61.0528 115.166 60.5331 114.325 60.0576 113.485C60.4225 113.518 60.7984 113.452 61.1412 113.363C61.672 113.22 62.0811 112.943 62.5345 112.667C62.5345 112.667 62.5345 112.667 62.5456 112.678C62.999 113.253 63.5408 113.607 64.2595 113.761C64.2927 113.761 64.3148 113.773 64.348 113.784C64.3038 114.436 63.9388 115.044 63.4302 115.464C63.0763 115.741 62.0811 116.36 61.6278 115.973L61.6167 115.962ZM63.4633 118.273C62.9657 117.731 62.5124 117.156 62.0701 116.57C62.4571 116.537 62.8884 116.371 63.2312 116.183C63.6624 117.344 64.6686 118.295 65.8186 118.428C65.7191 118.936 65.2657 119.644 64.7792 119.633C64.3258 119.202 63.8835 118.748 63.4633 118.273ZM66.7917 121.225C66.7917 121.225 66.6922 121.225 66.648 121.225C66.1614 120.849 65.686 120.451 65.2215 120.031C65.8076 119.777 66.2499 119.025 66.3273 118.417C66.648 118.384 66.9687 118.284 67.3004 118.096C67.6211 118.373 68.0191 118.572 68.4836 118.649C68.5499 118.66 68.6273 118.671 68.7047 118.682C68.7047 118.715 68.6937 118.737 68.7047 118.771C68.7711 119.357 68.7047 119.987 68.3509 120.473C68.0302 120.927 67.3888 121.447 66.7917 121.225ZM69.6668 123.183C69.4456 123.072 69.2355 122.961 69.0143 122.829C68.4504 122.497 67.8975 122.132 67.3446 121.745C67.4994 121.712 67.6542 121.668 67.798 121.59C68.8485 122.608 70.4297 122.409 71.2259 121.203C71.7677 121.203 72.3095 121.015 72.774 120.739C73.1499 120.872 73.5479 120.916 73.8907 120.805C73.0282 122.044 71.2812 122.674 69.6557 123.183H69.6668ZM74.3331 119.932C73.7912 120.739 72.6302 120.197 72.1326 119.854C71.8562 119.666 70.8941 118.749 71.0821 118.35C71.1153 118.295 71.1153 118.24 71.1042 118.185C71.248 118.251 71.3807 118.317 71.5355 118.361C72.4533 118.66 73.7139 118.859 74.3441 117.986C74.51 118.737 74.4879 119.379 74.322 119.921L74.3331 119.932ZM83.8427 130.005C83.3893 128.756 83.2124 127.484 82.4052 126.411C83.1571 126.047 83.7985 125.538 84.3514 124.952C84.285 125.461 84.5946 125.991 85.0922 126.146C85.6672 126.334 86.1427 125.571 86.3639 125.14C86.2865 126.212 86.1869 127.285 86.3639 128.358C85.4461 128.811 84.6278 129.375 83.8317 130.016L83.8427 130.005ZM90.223 116.117C90.5215 115.365 91.5057 115.586 92.1913 115.442C93.0317 115.265 93.8389 115.022 94.635 114.735C93.9937 116.039 93.5735 117.466 93.8057 118.903C92.7994 118.903 91.8043 118.981 90.8091 119.113C91.3399 118.87 91.749 118.406 91.5389 117.786C91.1518 116.625 89.4047 118.185 88.498 119.158C88.4648 119.158 88.4427 119.169 88.4095 119.18C89.2831 118.339 89.6922 117.433 90.2009 116.128L90.223 116.117ZM87.7682 122.552C87.7682 122.552 87.7682 122.508 87.7571 122.486C87.8456 122.464 87.934 122.431 88.0114 122.398C88.2105 122.939 88.4206 123.481 88.5975 124.045C88.8076 124.72 89.0398 125.427 89.5485 125.936C89.7365 126.124 90.035 125.848 89.8913 125.637C89.4158 124.93 89.0951 124.233 88.8076 123.437C88.7745 123.337 88.7413 123.249 88.697 123.149C89.3494 124.355 90.3115 125.427 91.0081 126.577C91.1297 126.787 91.4836 126.622 91.3951 126.389C91.0744 125.604 90.5105 124.963 89.9908 124.299C89.4269 123.592 88.9735 122.818 88.5091 122.044C88.5643 121.988 88.6086 121.933 88.6528 121.878C89.7475 123.481 91.1297 124.93 92.6336 126.146C92.8768 126.345 93.1644 126.013 92.9543 125.781C91.6274 124.377 90.0682 123.172 88.697 121.789C88.7413 121.723 88.7634 121.646 88.7855 121.557C89.4379 122.353 90.4663 123.017 91.2293 123.669C91.8153 124.167 92.5451 125.029 93.3413 125.073C93.4408 125.073 93.474 124.963 93.4408 124.886C93.0427 124.111 91.9038 123.581 91.2182 123.061C90.4442 122.475 89.7033 121.834 88.8297 121.391C88.8408 121.314 88.8297 121.248 88.8408 121.17C89.5153 121.469 90.1898 121.767 90.8644 122.066C91.8264 122.497 92.6225 123.127 93.5403 123.603C93.7393 123.702 93.9052 123.47 93.8057 123.304C93.3302 122.486 92.1802 122.121 91.3509 121.778C90.5879 121.469 89.6922 120.96 88.8408 120.894C88.8297 120.761 88.7965 120.628 88.7523 120.496C88.7744 120.518 88.7965 120.529 88.8297 120.518C91.6494 120.363 94.5355 120.451 95.8071 123.426C96.2605 124.487 96.4043 125.726 96.7581 126.821C97.0235 127.672 97.3773 128.479 97.7754 129.264C93.6067 128.899 87.6466 127.672 87.7461 122.519L87.7682 122.552Z" fill="#F0DEAB"/>
<path d="M61.992 86.0401C61.793 86.3608 61.9035 86.781 62.2242 86.9801C62.5448 87.1681 62.9651 87.0685 63.1641 86.7478C63.3632 86.4272 63.2526 86.007 62.9319 85.808C62.6112 85.6089 62.191 85.7195 61.992 86.0401Z" fill="#F0DEAB"/>
<path d="M64.3252 131.399C64.2035 131.399 64.093 131.421 63.9824 131.432C60.8088 129.232 57.9117 126.633 55.6117 123.548C53.0684 120.186 51.2881 116.261 50.4035 112.125C49.5189 107.99 49.4968 103.699 50.0939 99.5195C50.691 95.3286 51.8631 91.2151 53.555 87.3339H53.5218C51.7857 91.193 50.5693 95.2954 49.9169 99.4974C49.2867 103.688 49.2645 108.012 50.127 112.192C50.5472 114.282 51.1996 116.327 52.0621 118.273C52.9357 120.22 54.0415 122.066 55.3242 123.758C57.6684 126.821 60.5987 129.386 63.8386 131.443C60.6098 131.941 60.6208 137.359 65.0992 136.065C66.2824 135.722 69.1574 135.689 68.6487 139.316C68.6487 139.316 68.6487 139.327 68.6598 139.338C68.505 139.67 68.9141 139.924 69.1795 139.648C70.9819 137.79 70.6059 135.667 69.2901 133.964C68.1069 132.438 66.216 131.399 64.3252 131.399Z" fill="#F0DEAB"/>
<path d="M77.8044 128.999C76.6323 128.092 75.1174 127.573 73.6467 127.595C69.9202 126.202 66.3265 124.41 63.2414 121.911C60.0457 119.368 57.4582 116.062 55.888 112.291C54.3068 108.509 53.7207 104.374 53.8313 100.282C53.9308 96.1798 54.6938 92.1106 55.8438 88.174H55.8106C54.6053 92.0885 53.7981 96.1577 53.6543 100.271C53.5106 104.374 54.0635 108.553 55.6226 112.39C56.3967 114.303 57.4251 116.117 58.6746 117.776C59.9241 119.423 61.3948 120.894 63.0092 122.188C66.1275 124.642 69.7433 126.401 73.4919 127.617C73.0938 127.628 72.7068 127.683 72.3308 127.772C68.7371 128.701 70.0529 134.583 74.2659 132.095C75.3164 131.465 78.0919 130.713 78.5121 134.351C78.5121 134.351 78.5121 134.362 78.5342 134.373C78.4678 134.738 78.9212 134.882 79.1092 134.55C80.3808 132.305 79.4851 130.337 77.7823 129.021L77.8044 128.999Z" fill="#F0DEAB"/>
<path d="M52.4933 132.693C50.0606 129.983 48.1697 126.81 46.9644 123.393C46.2457 121.436 45.7371 119.401 45.4053 117.344C45.0625 115.288 44.8966 113.198 44.8745 111.108C44.8413 106.928 45.3721 102.748 46.301 98.668C46.7654 96.6223 47.3404 94.6098 48.0371 92.6305C48.3799 91.6464 48.7558 90.6622 49.176 89.7002C49.6072 88.7492 50.0385 87.7872 50.6467 86.9357L50.6135 86.9137C49.9942 87.7651 49.5519 88.7271 49.1096 89.6781C48.6784 90.6401 48.2914 91.6132 47.9375 92.5973C47.2188 94.5766 46.6327 96.5891 46.1351 98.6348C45.162 102.715 44.5981 106.906 44.5981 111.119C44.5981 113.22 44.7419 115.332 45.0625 117.411C45.3943 119.49 45.9029 121.546 46.6327 123.526C47.8933 126.92 49.8174 130.072 52.3164 132.682C48.6673 132.184 47.6169 138.078 52.4491 137.414C53.6654 137.248 56.5183 137.624 55.49 141.141C55.49 141.141 55.49 141.152 55.49 141.163C55.2909 141.472 55.6558 141.782 55.9544 141.55C58 139.98 57.9448 137.823 56.8832 135.944C55.9654 134.296 54.2957 133.024 52.4711 132.715L52.4933 132.693Z" fill="#F0DEAB"/>
<path d="M56.1649 23.7189C55.5014 23.8406 55.0702 24.4598 55.1476 25.1233C54.3625 25.267 53.5774 25.4329 52.8034 25.6098C52.6265 25.2228 52.2063 24.9795 51.764 25.0569C51.2885 25.1454 50.9678 25.5766 51.001 26.0521C47.6284 26.9478 44.3332 28.1641 41.1707 29.668C44.3553 28.2526 47.6615 27.1026 51.0341 26.2622C51.1668 26.7155 51.6313 27.0031 52.1067 26.9146C52.6154 26.8261 52.9471 26.3396 52.8697 25.831C53.6438 25.6651 54.4289 25.5103 55.214 25.3776C55.413 25.9526 56.0101 26.3064 56.6293 26.1958C57.2154 26.0853 57.6245 25.5877 57.6577 25.0126C58.3543 24.9242 59.051 24.8468 59.7587 24.7805C60.013 25.4992 60.7538 25.9526 61.5279 25.8088C62.1692 25.6872 62.6447 25.2006 62.7774 24.6035C63.2639 24.5925 63.7505 24.5815 64.237 24.5815C64.5245 24.5815 64.8121 24.5815 65.0996 24.5815C65.0996 24.6257 65.0995 24.6699 65.1216 24.7141C65.3096 25.7425 66.2938 26.417 67.3222 26.229C68.1073 26.0853 68.6822 25.4771 68.826 24.7473C69.3568 24.7915 69.8875 24.8357 70.4183 24.891C70.3962 25.0901 70.4072 25.3002 70.4404 25.5103C70.6615 26.7045 71.8116 27.5007 73.0168 27.2795C73.9346 27.1137 74.6092 26.3949 74.775 25.5435C79.0876 26.3617 83.3116 27.6776 87.3477 29.4247C86.4299 28.9935 85.9765 28.8054 85.9875 28.8165C82.3827 27.2463 78.6341 26.0742 74.7971 25.3112C74.8192 25.1122 74.7972 24.9132 74.775 24.7141C74.5539 23.5199 73.4039 22.7237 72.2097 22.9449C71.314 23.1107 70.6505 23.7853 70.4625 24.6146C69.9317 24.5593 69.401 24.504 68.8591 24.4598C68.8591 24.316 68.8592 24.1723 68.826 24.0286C68.638 23.0002 67.6539 22.3257 66.6255 22.5137C65.752 22.6795 65.1217 23.4204 65.0885 24.2829C64.9116 24.2829 64.7457 24.2829 64.5687 24.2829C63.9827 24.2829 63.3967 24.2829 62.8106 24.305C62.8106 24.1944 62.8106 24.0949 62.7885 23.9843C62.6337 23.1328 61.8044 22.569 60.9529 22.7238C60.1125 22.8786 59.5596 23.6747 59.6923 24.504C59.0067 24.5704 58.3322 24.6477 57.6467 24.7362C57.514 24.0506 56.8616 23.5973 56.176 23.73L56.1649 23.7189Z" fill="#F0DEAB"/>
<path d="M50.0716 15.9454C50.6908 15.857 51.111 15.293 51.0336 14.6738C51.9735 14.5079 52.9245 14.3531 53.8754 14.2314C54.0966 14.9391 54.7932 15.3925 55.5452 15.2819C56.2529 15.1714 56.7836 14.5853 56.8389 13.8997C57.6903 13.8223 58.5418 13.756 59.3932 13.7118C59.6697 14.5964 60.5432 15.1714 61.4831 15.0276C62.2572 14.917 62.8543 14.342 63.0422 13.6343C63.6283 13.6343 64.2255 13.6454 64.8115 13.6675C65.1543 13.6675 65.5082 13.6896 65.851 13.7118C65.851 13.767 65.851 13.8113 65.862 13.8666C66.05 15.1161 67.211 15.9786 68.4495 15.7906C69.4004 15.6579 70.1192 14.9392 70.3404 14.0656C70.9817 14.143 71.623 14.2204 72.2533 14.3199C72.2202 14.5632 72.2202 14.8175 72.2533 15.0718C72.4745 16.5314 73.8235 17.5267 75.2831 17.3166C76.3889 17.1507 77.2403 16.3214 77.4836 15.293C82.6586 16.4762 87.701 18.2454 92.5 20.5454C91.4163 19.9925 90.8746 19.7382 90.8856 19.7493C86.5952 17.6926 82.1279 16.1113 77.5279 15.0166C77.5611 14.7843 77.5611 14.541 77.5279 14.2978C77.3178 12.8382 75.9577 11.8319 74.4981 12.0531C73.4144 12.2079 72.5851 13.0041 72.3197 13.9993C71.6783 13.8997 71.037 13.8113 70.3957 13.7339C70.4067 13.557 70.4067 13.3911 70.3846 13.2031C70.1966 11.9536 69.0356 11.0911 67.786 11.279C66.7135 11.4339 65.9394 12.3074 65.851 13.3468C65.6409 13.3468 65.4308 13.3248 65.2317 13.3137C64.524 13.2805 63.8163 13.2694 63.1086 13.2694C63.1086 13.1367 63.1086 13.0151 63.0976 12.8824C62.9428 11.843 61.9807 11.1242 60.9303 11.279C59.9129 11.4339 59.2052 12.3627 59.3269 13.369C58.4975 13.4132 57.6682 13.4795 56.85 13.5569C56.7283 12.7276 55.9543 12.1526 55.125 12.2743C54.3177 12.3959 53.7649 13.1257 53.8423 13.9219C52.8913 14.0545 51.9293 14.2204 50.9894 14.3973C50.8014 13.9218 50.3038 13.6122 49.762 13.6896C49.187 13.7781 48.7779 14.2867 48.7889 14.8507C44.6754 15.7795 40.6394 17.1064 36.7581 18.7872C40.6615 17.217 44.7086 15.9786 48.8221 15.105C48.9658 15.6579 49.5076 16.0339 50.0826 15.9454H50.0716Z" fill="#F0DEAB"/>
<path d="M60.6539 1.7359C61.1625 1.75802 61.6049 1.37101 61.638 0.851297C62.4342 0.862354 63.2303 0.895547 64.0154 0.939777C64.0817 1.54795 64.5793 2.0345 65.1986 2.05662C65.7957 2.08979 66.3154 1.69169 66.4702 1.13881C67.1669 1.21621 67.8745 1.29359 68.5712 1.39311C68.6486 2.1561 69.2678 2.75323 70.0529 2.79746C70.7053 2.83064 71.2803 2.46575 71.5457 1.91286C72.0212 2.01238 72.5078 2.11186 72.9722 2.22244C73.2486 2.28879 73.5251 2.35513 73.8015 2.42147C73.8015 2.4657 73.8015 2.50993 73.7904 2.55416C73.7462 3.59358 74.5424 4.47824 75.5928 4.53353C76.389 4.57776 77.0856 4.11335 77.3953 3.43883C77.9039 3.6047 78.4126 3.77052 78.9102 3.94744C78.8438 4.13542 78.7996 4.34551 78.7885 4.5556C78.7333 5.77195 79.6731 6.80035 80.8895 6.86669C81.8183 6.91092 82.6366 6.36911 83.0015 5.57296C87.0155 7.35325 90.8303 9.60899 94.3467 12.2407C93.5505 11.6104 93.1636 11.3229 93.1636 11.334C90.0121 8.97869 86.6395 6.97728 83.0789 5.35179C83.1453 5.16381 83.1784 4.9758 83.1895 4.7657C83.2448 3.54935 82.3048 2.50997 81.0885 2.45468C80.1818 2.41045 79.3856 2.91909 79.0096 3.68207C78.501 3.50514 78.0034 3.32825 77.4837 3.16239C77.5279 3.02969 77.55 2.88593 77.5611 2.73112C77.6053 1.6917 76.8092 0.807036 75.7587 0.751748C74.863 0.707517 74.089 1.29362 73.8568 2.11189C73.6909 2.06766 73.525 2.02345 73.3592 1.99027C72.7842 1.85758 72.2202 1.72486 71.6452 1.61428C71.6674 1.51476 71.6894 1.40421 71.6894 1.29363C71.7337 0.431131 71.0592 -0.309792 70.1967 -0.354023C69.3452 -0.398254 68.6265 0.24309 68.5602 1.09453C67.8856 1.00607 67.2 0.917643 66.5144 0.851297C66.5476 0.154661 66.0058 -0.4314 65.3202 -0.464573C64.6457 -0.497746 64.0817 0.0109299 64.0154 0.663335C63.2192 0.619104 62.4231 0.596991 61.6159 0.596991C61.5385 0.176798 61.1847 -0.154947 60.7313 -0.177062C60.2447 -0.199177 59.8356 0.143636 59.7582 0.60806C56.264 0.707579 52.7808 1.13879 49.3639 1.87966C52.7808 1.22725 56.264 0.87338 59.7471 0.818091C59.7803 1.29357 60.1563 1.68065 60.6428 1.70276L60.6539 1.7359Z" fill="#F0DEAB"/>
<path d="M48.8996 139.847C48.9328 139.217 48.6011 138.719 48.2583 138.233C47.3184 136.895 45.8698 136.607 44.3992 136.563C44.952 135.888 45.3169 135.203 45.2285 134.208C45.0958 132.726 43.6914 131.465 42.3756 131.045C40.2746 130.37 40.8275 129.995 39.5448 129.132C39.0583 128.8 38.5275 128.491 37.8972 128.557C36.6035 128.69 35.9069 129.32 35.2434 130.16C34.8011 127.075 31.0083 125.218 28.6641 127.717C27.2155 126.489 25.789 126.423 24.2078 127.805C23.3784 128.535 22.8587 129.983 23.0578 131.178C21.0232 129.829 17.9491 131.211 17.7722 133.832C16.0582 133.92 14.8862 134.639 14.5102 136.441C14.09 138.42 15.5164 140.345 16.6775 141.284C15.2621 141.528 13.6808 142.036 13.0284 143.352C12.3207 144.79 12.1881 146.227 12.9621 147.598C10.4962 150.418 14.654 153.183 17.6948 153.326C16.4895 154.41 15.9919 156.024 17.0203 157.572C17.7943 158.745 19.4198 160.735 21.0121 160.204C22.1511 162.902 25.4573 162.349 27.127 160.403C27.4035 161.885 28.852 163.566 29.9467 164.063C31.6938 164.848 33.5405 164.749 34.5688 163.112C37.3111 164.307 39.6443 161.21 39.6886 158.446C40.3631 159.132 41.0929 159.574 42.254 159.463C43.039 159.386 43.7689 158.866 44.3549 158.391C45.4386 157.462 45.3722 155.914 46.4669 154.963C47.8934 153.713 48.9549 153.194 48.6785 151.082C48.5237 149.898 47.5838 148.815 46.5333 148.162C48.8886 147.643 50.5472 145.232 49.3088 142.799C48.7227 141.627 48.8333 141.074 48.8996 139.858V139.847ZM36.7694 131.045C38.0963 130.713 38.9809 131.731 39.6333 132.726C39.6333 133.058 39.954 133.223 40.153 133.124C41.3141 133.013 42.4198 133.19 42.9506 134.971C43.3929 136.485 42.1544 137.481 41.1482 138.354C40.0424 139.316 38.6713 139.958 37.3001 140.455C36.8468 139.969 36.327 139.891 35.8184 140.024C35.8184 140.024 35.8294 140.024 35.8405 140.024C36.902 138.808 38.052 137.558 39.3679 136.795C37.9746 137.392 36.6919 138.52 35.4977 139.593C36.6477 137.47 37.842 135.291 39.379 133.522C37.6429 135.236 36.2386 137.425 34.8785 139.515C35.0554 138.089 35.3208 136.53 36.0727 135.468C35.2545 136.331 34.79 137.669 34.4361 138.929C34.414 138.885 34.4141 138.852 34.3919 138.819C34.1376 138.343 33.7064 138.045 33.2198 137.912C33.3193 136.463 33.7285 134.827 34.1376 133.467C34.5468 132.084 35.4424 131.388 36.7804 131.045H36.7694ZM36.5039 149.666C35.9621 149.699 35.4535 149.257 35.0554 148.958C34.9669 148.881 34.8674 148.859 34.7569 148.859C35.1771 148.461 35.5309 147.985 35.7963 147.466C35.8073 147.466 35.8184 147.477 35.8294 147.466C36.5261 147.698 37.4992 148.063 37.3775 148.981C37.3222 149.423 36.9131 149.633 36.515 149.666H36.5039ZM34.3919 148.24C33.0429 149.611 30.8093 149.733 29.0843 149.191C25.5016 148.074 26.2092 143.341 28.7967 141.815C28.2549 142.357 27.879 143.076 27.7905 143.938C27.5251 146.437 29.8583 149.257 32.4347 147.421C33.9386 146.36 34.3809 143.098 32.0035 142.821C30.6545 142.656 29.1506 144.48 30.2674 145.586C30.5992 145.918 31.1741 145.453 30.8424 145.121C30.0683 144.347 32.4126 142.258 32.9544 144.878C33.2862 146.504 31.4395 147.41 30.1126 147.079C28.3655 146.647 28.277 144.513 28.8078 143.175C30.0131 140.134 33.9718 141.406 35.2323 143.618C36.0838 145.11 35.553 147.046 34.4141 148.207L34.3919 148.24ZM34.4141 150.86C34.4694 151.325 34.2372 151.767 33.8612 152.033C32.7554 152.829 31.9482 151.391 31.7934 150.496C31.7823 150.407 31.7491 150.308 31.6939 150.208C32.4237 150.142 33.0982 149.921 33.7064 149.6C33.7727 149.677 33.8501 149.766 33.9165 149.865C34.0602 150.097 34.403 150.717 34.4141 150.849V150.86ZM30.6102 150.219C30.5328 150.341 30.4775 150.473 30.4775 150.595C30.4444 151.325 30.378 152.353 29.4602 152.508C29.0289 152.585 28.7083 152.243 28.5645 151.867C28.3986 151.391 28.7636 150.385 28.9626 149.876C29.4934 150.053 30.0573 150.175 30.6102 150.219ZM24.9597 141.771C25.4352 140.499 26.9059 141.229 27.5361 141.882C27.5693 141.904 27.5914 141.915 27.6136 141.926C27.0938 142.434 26.6515 143.054 26.3419 143.706C25.9991 143.662 25.2361 143.142 25.1698 143.054C24.8602 142.7 24.8049 142.202 24.9707 141.771H24.9597ZM24.827 140.787C24.8933 140.732 24.9487 140.687 25.0261 140.643C24.9597 140.687 24.8933 140.732 24.827 140.787ZM25.9107 144.779H25.9328C25.9106 144.878 25.8775 144.978 25.8554 145.077C25.7448 145.586 25.7448 146.05 25.8001 146.493C25.5679 146.548 25.3136 146.592 25.0703 146.592C24.8049 146.537 24.5395 146.459 24.2741 146.393C24.1414 146.305 24.0198 146.161 23.9424 145.984C23.7434 145.586 23.9866 145.188 24.3073 144.945C24.7386 144.624 25.4131 144.723 25.9107 144.779ZM25.778 147.233C25.7117 147.233 25.6453 147.233 25.579 147.256C25.6453 147.256 25.7117 147.245 25.778 147.233ZM24.6832 146.559C24.8049 146.581 24.9376 146.592 25.0703 146.592C24.9376 146.592 24.8049 146.592 24.6832 146.559ZM24.2962 147.189C24.2962 147.189 24.2078 147.167 24.1636 147.156C24.2078 147.167 24.252 147.178 24.2962 147.189ZM24.7939 147.278C24.7939 147.278 24.6833 147.278 24.639 147.256C24.6943 147.256 24.7496 147.267 24.7939 147.278ZM25.3025 147.278C25.2472 147.278 25.1919 147.278 25.1256 147.278C25.1809 147.278 25.2362 147.278 25.3025 147.278ZM26.2645 147.82C26.6295 148.439 27.1712 148.947 27.8015 149.334C27.7573 149.401 27.7241 149.478 27.691 149.545C27.5583 149.777 27.0054 150.241 26.8727 150.296C26.4415 150.484 25.9438 150.374 25.59 150.086C24.628 149.312 25.4905 148.284 26.2645 147.808V147.82ZM27.6578 150.706C27.7573 150.639 27.8679 150.551 27.9674 150.451C27.8679 150.551 27.7683 150.628 27.6578 150.706C27.514 150.805 27.3482 150.883 27.1823 150.949C27.3482 150.883 27.514 150.794 27.6578 150.695V150.706ZM30.8093 140.643C30.8093 140.643 30.765 140.632 30.754 140.643C30.765 140.621 30.7871 140.621 30.7982 140.599C30.7982 140.61 30.7982 140.632 30.8203 140.654L30.8093 140.643ZM30.2564 140.643C29.6703 140.698 29.1174 140.886 28.6198 141.174C28.6198 141.141 28.5977 141.108 28.5866 141.074C28.1996 140.455 27.6799 139.548 28.3544 138.918C28.6751 138.62 29.1285 138.708 29.4492 138.951C29.8915 139.261 30.0131 139.935 30.1126 140.422C30.1347 140.533 30.2011 140.599 30.2564 140.643ZM30.4443 139.095C30.4443 139.095 30.4554 139.128 30.4665 139.139C30.4665 139.117 30.4554 139.106 30.4443 139.095ZM31.6496 139.183C31.8929 138.774 32.3463 138.564 32.8107 138.575C34.1708 138.62 33.9385 140.256 33.5294 141.052C33.5073 141.074 33.5295 141.096 33.5184 141.119C33.1535 140.942 32.7775 140.809 32.3794 140.754C32.103 140.709 31.8266 140.698 31.5612 140.698C31.5391 140.588 31.5058 140.444 31.4616 140.267C31.3842 140.013 31.5944 139.294 31.6496 139.183ZM34.3698 140.975C34.4361 140.809 34.4915 140.643 34.5357 140.466C34.4915 140.632 34.4361 140.809 34.3698 140.975ZM36.5924 140.864C36.9794 141.085 37.0348 141.539 36.9131 141.926C36.7583 142.434 36.1612 142.766 35.7299 143.032C35.7189 143.032 35.7078 143.054 35.6857 143.065C35.3982 142.6 35.0222 142.169 34.591 141.815C34.591 141.804 34.6131 141.804 34.6131 141.793C35.0775 141.229 35.7631 140.455 36.5813 140.875L36.5924 140.864ZM36.1059 143.938C36.2054 143.706 37.0458 143.761 37.1785 143.772C37.6429 143.85 37.9968 144.204 38.1516 144.635C38.5718 145.862 37.1343 146.249 36.2165 146.194C36.2939 145.84 36.327 145.464 36.327 145.088C36.327 144.69 36.2386 144.303 36.1059 143.938ZM38.1294 143.419C38.1958 143.463 38.2621 143.507 38.3285 143.562C38.2732 143.507 38.1958 143.463 38.1294 143.419ZM36.9905 143.021C37.1563 143.032 37.3111 143.065 37.477 143.109C37.3222 143.065 37.1563 143.043 36.9905 143.032V143.021ZM35.4203 140.179C35.4203 140.179 35.4203 140.179 35.4314 140.179C35.4314 140.179 35.4314 140.179 35.4203 140.179ZM25.004 129.95C26.1429 128.303 27.702 129.596 28.5756 130.78C28.7967 131.333 29.2391 131.001 29.3054 130.691C30.0463 127.473 34.9006 129.42 33.9386 132.007C33.9386 132.051 33.9386 132.084 33.9275 132.129C32.8881 133.743 32.5674 136.143 32.4568 137.846C31.8818 137.89 31.4174 138.244 31.0968 138.708C31.1078 138.686 31.1299 138.664 31.141 138.631C30.9088 137.237 30.754 135.833 30.8756 134.462C30.6102 135.7 30.577 137.005 30.6102 138.299C29.6924 136.209 28.6973 133.798 28.8963 131.753C28.5093 133.809 29.3386 136.375 30.0684 138.542C30.0131 138.476 29.9578 138.409 29.8914 138.354C29.803 138.277 29.6924 138.21 29.5819 138.155C29.6924 138.21 29.7919 138.266 29.8914 138.343C29.1174 137.37 28.3876 136.353 27.8126 135.269C28.1664 136.209 28.6309 137.116 29.1285 138C29.1285 138 29.1506 138 29.1617 138C28.841 137.945 28.5203 137.978 28.2217 138.1C27.6799 138.332 27.4256 138.719 27.3482 139.161C26.7732 137.16 26.541 134.783 25.0924 133.334C25.0703 133.29 25.0482 133.257 25.0261 133.223C24.1304 132.295 24.3516 130.901 25.0261 129.917L25.004 129.95ZM16.8544 137.569C17.0756 136.607 18.2256 135.822 19.077 136.552C19.5746 136.983 19.7847 136.53 19.7183 136.176C19.3313 134.119 21.1227 132.482 23.1573 133.013C24.3737 133.323 25.1367 134.738 25.6453 135.767C26.3862 137.304 26.3861 139.051 27.0385 140.599C26.6294 140.389 26.1761 140.278 25.6785 140.356C25.5458 140.378 25.4241 140.433 25.3135 140.477C25.3578 140.455 25.391 140.433 25.4352 140.411C24.7828 139.117 24.1193 137.868 23.5775 136.519C23.865 137.801 24.4511 138.741 24.5395 140.4C22.9362 139.427 21.2222 138.255 20.1717 136.751C21.1116 138.498 22.9251 139.891 24.4842 141.108C24.5174 141.063 24.5506 141.041 24.5838 141.008C24.3847 141.251 24.2299 141.528 24.1525 141.837C23.9866 142.446 24.2299 143.054 24.6169 143.529C22.7703 142.689 20.6251 141.561 18.5684 141.539C18.5684 141.528 18.5684 141.517 18.5684 141.495C18.115 140.721 17.3962 140.234 17.0203 139.371C16.777 138.808 16.7217 138.144 16.8655 137.558L16.8544 137.569ZM16.4784 151.347C15.4058 150.573 14.6982 148.627 16.2241 147.897C16.5559 147.731 16.7107 147.355 16.1799 147.145C14.8419 146.636 15.0299 144.768 15.5828 143.75C16.2241 142.578 17.5842 142.18 18.8227 142.246C20.5808 142.346 22.5491 143.396 24.2188 144.17C24.0972 144.215 23.9866 144.259 23.876 144.325C23.3563 144.646 23.0578 145.265 23.1131 145.851C23.1131 145.94 23.1462 146.006 23.1683 146.095C21.963 145.73 20.791 145.276 19.6741 144.69C20.8905 145.553 22.2174 146.26 23.5996 146.846C23.6438 146.891 23.6881 146.935 23.7434 146.968C23.7434 146.968 23.7323 146.968 23.7212 146.968C21.5429 147.333 19.2871 147.643 17.164 147.444C19.5635 147.875 22.1732 147.643 24.6501 147.421C23.2568 147.963 21.8746 148.538 20.5366 149.213C21.963 148.715 23.4227 148.328 24.8933 147.963C24.6722 148.24 24.5174 148.571 24.4511 148.958C24.3958 149.279 24.451 149.567 24.5506 149.832C23.0467 150.462 20.9236 151.026 19.5746 152.232C18.4578 152.132 17.3963 152.044 16.4564 151.347H16.4784ZM24.7386 159.64C23.4891 159.607 22.6597 159.098 22.2395 157.982C22.2285 157.76 21.9962 157.517 21.7198 157.617C20.1717 158.147 19.0217 156.19 19.0328 154.908C19.0328 153.912 19.8179 153.094 20.5145 152.497C21.7419 151.435 23.489 151.093 24.9597 150.462C25.0924 150.606 25.2472 150.75 25.4131 150.86C25.8996 151.181 26.4967 151.17 27.0385 150.982C26.9722 151.004 26.9058 151.037 26.8284 151.048C25.9217 152.232 24.816 153.282 23.478 153.923C24.7386 153.514 25.8775 152.74 26.8727 151.834C25.977 153.492 24.9044 155.129 23.5111 156.212C25.0703 155.228 26.3309 153.592 27.4035 151.966C27.1712 152.818 26.928 153.669 26.6957 154.521C27.0717 153.68 27.4588 152.851 27.8458 152.01C27.8458 151.988 27.8458 151.955 27.8458 151.933C27.8458 151.977 27.8457 152.033 27.8679 152.077C28.0006 152.608 28.4429 153.006 28.9405 153.16C28.2881 154.708 27.4919 156.367 27.4035 157.948C27.3924 157.982 26.4304 159.673 24.7606 159.629L24.7386 159.64ZM38.2511 159.342C37.7866 160.846 35.0443 161.255 33.9496 160.237C33.6842 159.983 33.3635 159.917 33.253 160.569C33.1424 161.188 30.8756 161.454 30.754 161.454C29.2722 161.398 28.3765 160.071 28.1001 158.767C28.0559 158.59 28.0559 157.982 28.0338 157.926C28.0559 156.279 29.0732 154.709 29.6813 153.238C30.3669 153.116 30.765 152.508 30.9751 151.822C31.152 153.636 31.2737 155.571 30.7982 157.241C31.4064 155.737 31.5169 153.934 31.5501 152.221C32.5232 154.498 33.6511 157.075 33.64 159.375C33.8059 157.539 33.242 155.471 32.6117 153.525C33.2641 154.333 33.9386 155.118 34.6905 155.825C33.9718 154.908 33.3415 153.912 32.7554 152.906C32.6448 152.873 32.5342 152.84 32.4347 152.796C33.1645 153.127 33.9496 152.928 34.5357 152.42C34.8453 152.143 35.0222 151.778 35.0886 151.38C35.9068 152.95 36.8025 154.93 38.041 156.312C38.5717 157.152 38.5054 158.501 38.24 159.353L38.2511 159.342ZM43.9679 153.581C43.415 153.437 43.0059 153.824 43.6804 154.288C43.9458 154.775 42.5746 156.688 42.5193 156.743C40.9712 158.092 39.3237 156.411 38.3506 155.328C36.9021 153.724 36.2275 151.745 35.1328 149.943C35.564 150.197 36.0396 150.396 36.4929 150.407C36.6699 150.407 36.8467 150.374 37.0126 150.319C37.0126 150.319 37.0015 150.319 36.9905 150.319C37.9525 151.148 38.9145 152.066 39.5117 153.183C39.1246 151.999 38.3727 150.927 37.5987 149.954C37.5987 149.954 37.5876 149.954 37.5766 149.976C37.6208 149.932 37.665 149.898 37.7093 149.854C39.1799 151.17 41.104 153.028 42.9175 153.348C41.0708 152.807 39.3569 150.595 38.0631 149.202C38.0852 149.124 38.1073 149.058 38.1073 148.981C39.3679 149.434 40.6948 149.887 42.0107 149.932C40.5953 149.644 39.2352 148.848 37.9857 148.151C37.9636 148.151 37.9415 148.129 37.9304 148.118C37.6319 147.609 37.0347 147.211 36.4597 146.957C37.1121 146.979 37.7424 146.824 38.24 146.393C39.6775 147.521 42.265 148.107 44.3992 147.941C45.5049 148.682 46.1684 149.688 46.1905 151.059C46.2126 152.342 45.339 153.702 43.9679 153.581ZM46.4669 146.548C45.7703 147.189 44.5761 147.211 43.7025 147.178C42.1434 147.134 39.9761 146.769 38.7155 145.807C38.9919 145.265 38.9698 144.624 38.7155 144.06C38.6602 143.938 38.5718 143.839 38.4944 143.739C38.5275 143.772 38.5607 143.795 38.5828 143.839C39.9097 144.148 41.292 144.403 42.5525 144.237C41.2588 144.226 39.8876 143.75 38.6049 143.253C40.8275 143.098 43.0943 142.932 45.2285 142.39C42.8179 142.777 40.2746 142.689 37.8198 142.645C39.3126 142.202 40.8276 141.771 42.2319 141.108C40.7501 141.55 39.191 141.76 37.654 141.981C37.654 142.025 37.6318 142.07 37.6208 142.114C37.7424 141.793 37.7424 141.45 37.6429 141.119C38.8814 140.665 40.0314 140.079 41.104 139.316C41.5573 139.007 42.1544 138.586 42.652 138.1C44.8193 136.695 47.1747 140.19 45.9583 142.07C45.8699 142.213 45.6929 142.589 46.1352 142.722C47.7496 143.186 47.4953 145.619 46.478 146.548H46.4669Z" fill="#F0DEAB"/>
<path d="M24.1642 141.848C24.1974 141.716 24.2416 141.594 24.2969 141.484C22.8704 141.03 21.3998 140.566 20.106 139.825C21.3003 140.787 22.7488 141.495 24.12 142.18C24.12 142.07 24.1421 141.959 24.1642 141.859V141.848Z" fill="#F0DEAB"/>
<path d="M28.5431 166.684C27.3156 165.722 25.5353 165.943 24.5733 167.181C23.6113 168.409 23.8324 170.189 25.0598 171.14C26.2873 172.102 28.0676 171.881 29.0296 170.654C29.9806 169.426 29.7705 167.657 28.5431 166.684Z" fill="#F0DEAB"/>
<path d="M24.0419 172.445C23.102 171.704 21.7419 171.881 21.0121 172.81C20.2712 173.75 20.437 175.11 21.3769 175.84C22.3168 176.569 23.6769 176.415 24.4067 175.475C25.1365 174.535 24.9707 173.175 24.0308 172.445H24.0419Z" fill="#F0DEAB"/>
<path d="M19.4197 176.216C18.6899 175.652 17.6505 175.773 17.0865 176.503C16.5226 177.222 16.6442 178.272 17.374 178.836C18.0928 179.4 19.1322 179.279 19.7072 178.549C20.2711 177.83 20.1495 176.78 19.4308 176.216H19.4197Z" fill="#F0DEAB"/>
<path d="M12.9184 178.305C12.5313 178.814 12.6198 179.544 13.1285 179.942C13.6371 180.34 14.3669 180.252 14.7539 179.743C15.152 179.234 15.0635 178.504 14.5549 178.106C14.0462 177.708 13.3164 177.797 12.9184 178.305Z" fill="#F0DEAB"/>
<path d="M9.42404 178.947C9.12548 179.323 9.19184 179.876 9.57886 180.174C9.95482 180.473 10.5077 180.406 10.8063 180.03C11.1048 179.654 11.0275 179.102 10.6515 178.803C10.2755 178.504 9.7226 178.571 9.42404 178.947Z" fill="#F0DEAB"/>
<path d="M5.68673 179.4C5.38818 179.776 5.45454 180.329 5.84156 180.628C6.21752 180.926 6.75933 180.86 7.06895 180.473C7.36751 180.086 7.29015 179.544 6.91419 179.245C6.53823 178.947 5.98529 179.024 5.68673 179.4Z" fill="#F0DEAB"/>
</g>
<defs>
<clipPath id="clip0_894_12112">
<rect width="62" height="181" fill="white"/>
</clipPath>
</defs>
</svg>
