<svg width="395" height="111" viewBox="0 0 395 111" fill="none" xmlns="http://www.w3.org/2000/svg">
<g clip-path="url(#clip0_893_907)">
<g clip-path="url(#clip1_893_907)">
<path d="M174.642 131.68C174.047 132.874 175.805 133.638 176.581 132.749C178.865 130.083 179.807 127.431 180.998 124.168C182.978 118.726 185.415 116.31 190.081 113.047C193.418 110.714 196.229 107.854 198.528 104.619C200.812 107.854 203.623 110.728 206.96 113.047C211.626 116.31 214.063 118.726 216.043 124.168C217.234 127.431 218.176 130.083 220.461 132.749C221.236 133.638 222.994 132.874 222.399 131.68C219.422 125.737 219.893 118.226 214.603 113.477C207.874 107.424 201.837 103.217 198.514 94.9973C195.191 103.217 189.153 107.438 182.424 113.477C177.149 118.226 177.605 125.737 174.628 131.68H174.642Z" fill="#F0DEAB"/>
<path d="M133.2 86.5277C137.949 86.5277 138.738 79.0857 133.92 79.0857C129.101 79.0857 128.381 86.5277 133.2 86.5277Z" fill="#F0DEAB"/>
<path d="M155.049 75.9896C157.459 76.0313 163.648 69.6722 172.856 71.4217C174.531 71.741 175.155 69.3112 173.022 68.5892C168.633 67.0897 157.154 62.6606 152.045 67.784C149.497 70.3526 151.02 75.9202 155.049 75.9757V75.9896Z" fill="#F0DEAB"/>
<path d="M190.538 73.4489C192.241 78.4056 194.886 83.1541 197.392 87.7359C197.794 88.4718 198.126 89.1938 198.514 89.8464C198.901 89.1799 199.234 88.4579 199.635 87.7359C202.155 83.1541 204.8 78.4056 206.489 73.4489C208.469 67.6869 204.44 62.0776 200.784 57.3014C203.083 55.7602 202.072 51.1229 198.514 51.0396C194.955 51.1229 193.944 55.7602 196.243 57.3014C192.587 62.0776 188.558 67.6869 190.538 73.4489ZM198.514 58.7176C202.64 63.9659 206.392 68.9365 202.778 76.6979C201.338 79.808 200.051 83.5012 198.514 86.8751C196.977 83.5151 195.689 79.808 194.249 76.6979C190.635 68.9365 194.401 63.9659 198.514 58.7176Z" fill="#F0DEAB"/>
<path d="M153.055 125.807C147.545 121.766 143.709 123.543 140.331 127.695C140.524 122.919 140.94 119.003 137.894 114.352C135.498 110.7 130.721 109.118 126.678 107.118C127.024 106.202 127.149 105.16 126.844 104.147V104.119C124.725 98.5793 117.013 103.439 120.904 107.562H120.918C121.652 108.354 122.607 108.757 123.562 108.923C123.272 113.436 122.247 118.378 124.199 122.28C126.692 127.25 130.278 128.861 134.501 131.069C129.226 131.916 125.778 134.359 126.512 141.163C126.65 142.426 127.993 142.815 128.976 142.259C135.457 138.525 142.047 143.953 147.738 147.313C147.683 140.677 146.285 132.249 152.751 128.486C153.734 127.917 154.066 126.556 153.042 125.807H153.055ZM126.262 115.685C126.442 114.046 126.622 112.45 126.761 110.853C128.201 111.533 129.669 112.172 131.178 112.839C138.461 116.046 137.686 123.085 137.561 129.597C131.87 126.459 125.404 123.613 126.276 115.685H126.262ZM146.437 144.911C141.411 140.579 136.246 136.47 129.572 138.761C129.932 133.276 135.637 133.54 139.154 133.415C139.347 133.415 139.472 133.29 139.624 133.207C139.777 133.124 139.929 133.054 140.026 132.901C141.895 129.916 144.512 124.821 149.442 127.25C144.124 131.902 145.204 138.372 146.437 144.911Z" fill="#F0DEAB"/>
<path d="M163.455 101.717C167.816 101.717 168.522 94.9001 164.119 94.9001C159.716 94.9001 159.051 101.717 163.455 101.717Z" fill="#F0DEAB"/>
<path d="M174.075 59.4809C174.67 60.6472 176.429 59.8836 175.861 58.2591C174.698 54.8852 171.97 45.8187 166.473 45.1384C163.717 44.7913 161.073 48.3457 162.928 50.8171C164.036 52.3027 170.793 53.0663 174.061 59.4809H174.075Z" fill="#F0DEAB"/>
<path d="M155.451 54.3855C152.488 55.4824 151.685 60.453 154.842 61.9802C156.739 62.8966 163.953 60.1336 170.613 64.8821C171.832 65.7568 173.202 64.0629 171.776 62.7022C168.841 59.9115 161.364 52.1918 155.451 54.3855Z" fill="#F0DEAB"/>
<path d="M152.017 93.2479C156.517 93.2479 157.251 86.2085 152.71 86.2085C148.168 86.2085 147.476 93.2479 152.017 93.2479Z" fill="#F0DEAB"/>
<path d="M263.842 86.5277C268.66 86.5277 267.871 79.0857 263.122 79.0857C258.372 79.0857 259.092 86.5277 263.842 86.5277Z" fill="#F0DEAB"/>
<path d="M224.019 68.6029C221.887 69.3249 222.51 71.7547 224.199 71.4354C233.393 69.6859 239.597 76.0311 241.992 76.0033C246.022 75.9339 247.558 70.3663 244.997 67.8115C239.888 62.6882 228.409 67.1173 224.019 68.6168V68.6029Z" fill="#F0DEAB"/>
<path d="M244 125.807C242.975 126.556 243.308 127.917 244.291 128.486C250.757 132.249 249.358 140.677 249.303 147.313C255.008 143.953 261.585 138.525 268.065 142.26C269.048 142.829 270.391 142.44 270.53 141.177C271.264 134.373 267.816 131.93 262.54 131.083C266.75 128.875 270.35 127.264 272.842 122.294C274.795 118.392 273.784 113.449 273.479 108.937C274.448 108.77 275.404 108.368 276.124 107.59H276.138C277.661 105.952 276.858 103.508 275.238 102.259C273.355 101.495 270.834 102.009 270.198 104.147V104.175C269.879 105.202 270.018 106.23 270.35 107.146C266.307 109.145 261.53 110.742 259.134 114.38C256.088 119.031 256.503 122.946 256.697 127.723C253.319 123.571 249.497 121.794 243.972 125.834L244 125.807ZM265.877 112.839C267.387 112.172 268.854 111.533 270.294 110.853C270.433 112.45 270.599 114.033 270.793 115.685C271.651 123.599 265.171 126.445 259.494 129.597C259.37 123.085 258.594 116.046 265.864 112.839H265.877ZM257.016 132.901C257.113 133.054 257.279 133.124 257.431 133.207C257.583 133.29 257.722 133.401 257.902 133.415C261.419 133.54 267.124 133.262 267.484 138.761C260.74 136.456 255.659 140.732 250.577 145.106C251.823 138.511 252.986 131.957 247.614 127.251C252.543 124.821 255.16 129.902 257.016 132.901Z" fill="#F0DEAB"/>
<path d="M198.527 110.728C198.527 110.728 198.444 110.7 198.375 110.7C194.083 110.7 193.363 117.434 197.724 117.434C198.029 117.434 198.264 117.337 198.527 117.268C198.791 117.323 199.026 117.434 199.331 117.434C203.678 117.434 202.972 110.7 198.68 110.7C198.624 110.7 198.597 110.728 198.541 110.728H198.527Z" fill="#F0DEAB"/>
<path d="M233.587 101.717C237.991 101.717 237.284 94.9001 232.923 94.9001C228.561 94.9001 229.226 101.717 233.587 101.717Z" fill="#F0DEAB"/>
<path d="M230.555 45.1384C225.044 45.8188 222.33 54.8853 221.167 58.2592C220.599 59.8975 222.371 60.6612 222.967 59.481C226.235 53.0664 232.992 52.2889 234.099 50.8172C235.955 48.3319 233.31 44.7913 230.555 45.1384Z" fill="#F0DEAB"/>
<path d="M241.604 54.3855C235.692 52.1918 228.215 59.9115 225.279 62.7022C223.853 64.0629 225.238 65.7568 226.442 64.8821C233.089 60.1336 240.317 62.8827 242.2 61.9802C245.371 60.453 244.554 55.4824 241.604 54.3855Z" fill="#F0DEAB"/>
<path d="M245.024 93.2479C249.58 93.2479 248.832 86.2085 244.332 86.2085C239.832 86.2085 240.524 93.2479 245.024 93.2479Z" fill="#F0DEAB"/>
<path d="M95.7307 101.204C93.3214 105.383 100.134 108.424 102.516 104.3C104.925 100.121 98.1123 97.08 95.7307 101.204Z" fill="#F0DEAB"/>
<path d="M69.658 131.18C72.7458 122.308 81.3168 120.114 82.4937 118.004C84.4461 114.477 80.4168 110.367 76.9136 111.297C69.9349 113.172 68.0241 125.348 67.1102 129.916C66.6671 132.124 69.0764 132.804 69.6441 131.18H69.658Z" fill="#F0DEAB"/>
<path d="M56.8083 112.269C55.5898 109.409 51.2004 109.937 50.1342 112.505C47.9742 117.629 54.4405 124.529 56.7667 127.223C57.9022 128.528 59.4391 127.376 58.7191 126.279C54.8144 120.225 57.5283 113.977 56.8083 112.269Z" fill="#F0DEAB"/>
<path d="M107.75 74.4346C107.085 74.4346 105.506 74.8094 104.8 76.1423C103.111 79.3358 107.403 82.5014 109.799 80.9463C111.682 79.7245 111.35 74.4346 107.75 74.4346Z" fill="#F0DEAB"/>
<path d="M63.6482 107.535C58.7881 111.575 61.7236 121.933 62.6651 125.876C63.1221 127.792 65.2821 127.445 65.1298 125.959C64.3544 117.809 70.35 112.908 70.5023 110.811C70.7654 107.299 66.0575 105.522 63.6482 107.535Z" fill="#F0DEAB"/>
<path d="M294.526 104.3C296.894 108.424 303.706 105.383 301.311 101.204C298.929 97.08 292.117 100.121 294.526 104.3Z" fill="#F0DEAB"/>
<path d="M320.128 111.283C316.639 110.353 312.595 114.463 314.548 117.99C315.725 120.1 324.296 122.308 327.397 131.18C327.951 132.79 330.361 132.124 329.917 129.902C329.004 125.334 327.107 113.158 320.128 111.283Z" fill="#F0DEAB"/>
<path d="M340.275 127.209C342.615 124.501 349.081 117.615 346.921 112.491C345.855 109.937 341.452 109.409 340.233 112.269C339.513 113.963 342.214 120.211 338.323 126.265C337.603 127.362 339.14 128.514 340.275 127.209Z" fill="#F0DEAB"/>
<path d="M292.255 76.1285C291.95 75.6148 290.69 74.3513 289.306 74.4207C285.65 74.629 285.36 78.8359 287.63 80.7381C290.4 81.7655 294.069 79.308 292.255 76.1285Z" fill="#F0DEAB"/>
<path d="M334.376 125.862C335.332 121.919 338.253 111.561 333.393 107.535C330.97 105.508 326.262 107.285 326.539 110.812C326.691 112.908 332.687 117.795 331.911 125.945C331.759 127.431 333.919 127.792 334.376 125.862Z" fill="#F0DEAB"/>
<path d="M398.818 237.423C399.026 236.604 399.026 234.396 398.818 233.563C395.675 221.4 386.689 203.517 372.745 201.157C383.684 193.229 392.587 177.234 386.91 163.669C385.567 160.434 384.127 157.158 381.455 154.742C379.392 152.867 387.118 145.3 388.17 143.829C392.753 137.275 392.726 130.402 392.795 123.016C386.384 119.392 380.472 115.935 372.51 116.643C370.71 116.81 360.311 119.739 359.729 117.018C358.954 113.491 356.863 110.603 354.745 107.826C345.855 96.108 327.592 95.8441 315.282 101.37C320.225 88.0967 309.259 71.3521 300.328 62.5355C299.718 61.9524 297.808 60.8417 297.005 60.6195C284.93 57.2595 264.991 56.121 255.991 67.048C254.606 53.594 245.246 37.863 230.693 36.0025C227.232 35.5582 223.687 35.1695 220.267 36.2663C217.622 37.1133 214.95 26.6306 214.188 24.9783C210.824 17.7168 204.87 14.3013 198.542 10.5525C192.2 14.3152 186.26 17.7168 182.881 24.9783C182.12 26.6167 179.447 37.1133 176.803 36.2663C173.383 35.1695 169.838 35.5582 166.362 36.0025C151.81 37.863 142.435 53.5801 141.065 67.048C132.064 56.121 112.125 57.2595 100.051 60.6195C99.2342 60.8417 97.3234 61.9524 96.728 62.5494C87.797 71.3521 76.8305 88.0967 81.7737 101.384C69.4641 95.8441 51.2005 96.1218 42.311 107.84C40.1925 110.631 38.0878 113.519 37.3263 117.032C36.7309 119.753 26.346 116.823 24.5459 116.657C16.5841 115.949 10.6717 119.42 4.26071 123.044C4.32994 130.43 4.30225 137.289 8.8993 143.856C9.93779 145.342 17.6642 152.909 15.6149 154.769C12.9563 157.199 11.5163 160.462 10.1732 163.697C4.4961 177.262 13.3994 193.271 24.3244 201.185C10.3809 203.545 1.40832 221.414 -1.73485 233.591C-1.94255 234.41 -1.94255 236.618 -1.73485 237.437C1.40832 249.6 10.3809 267.497 24.3244 269.843C13.3856 277.771 4.4961 293.766 10.1593 307.331C11.5163 310.566 12.9425 313.843 15.601 316.258C17.6503 318.133 9.93779 325.7 8.8993 327.172C4.31609 333.725 4.34379 340.598 4.26071 347.984C10.6717 351.608 16.5841 355.065 24.5459 354.357C26.346 354.191 36.7447 351.275 37.3263 353.996C38.1017 357.523 40.1925 360.397 42.311 363.188C51.2005 374.906 69.4641 375.184 81.7737 369.644C76.8305 382.931 87.797 399.662 96.728 408.478C97.3234 409.062 99.2481 410.172 100.051 410.408C112.125 413.768 132.064 414.907 141.065 403.98C142.435 417.434 151.81 433.165 166.362 435.025C169.838 435.47 173.383 435.858 176.803 434.761C179.447 433.915 182.12 444.397 182.881 446.049C186.26 453.311 192.2 456.727 198.542 460.475C204.883 456.713 210.824 453.311 214.188 446.049C214.95 444.411 217.622 433.915 220.267 434.761C223.701 435.858 227.232 435.47 230.693 435.025C245.26 433.165 254.62 417.448 256.005 403.98C265.005 414.907 284.944 413.768 297.018 410.408C297.821 410.186 299.732 409.075 300.342 408.478C309.273 399.662 320.225 382.917 315.296 369.644C327.605 375.184 345.869 374.906 354.759 363.201C356.877 360.411 358.982 357.523 359.743 354.01C360.339 351.289 370.724 354.204 372.524 354.371C380.485 355.079 386.398 351.608 392.809 347.984C392.726 340.612 392.767 333.739 388.17 327.185C387.132 325.714 379.405 318.147 381.455 316.272C384.127 313.843 385.553 310.58 386.91 307.345C392.587 293.78 383.684 277.771 372.745 269.857C386.689 267.51 395.675 249.627 398.818 237.451V237.423ZM370.751 268.468C370.613 268.524 370.557 268.635 370.474 268.746C369.2 268.885 368.3 270.621 369.657 271.509C384.626 281.367 391.743 302.818 377.079 316.369C376.567 316.842 376.29 317.813 376.871 318.383C381.136 322.492 384.681 326.436 387.658 331.656C390.344 336.349 390.413 341.722 391.036 346.943C386.204 349.026 381.524 351.636 376.138 351.664C370.142 351.677 364.977 350.581 359.286 348.928C358.497 348.692 357.805 349.428 357.652 350.122C353.277 369.616 331.206 374.156 315.199 366.103C313.745 365.367 312.707 367.02 313.219 368.2C313.177 368.325 313.108 368.422 313.122 368.589C314.894 382.848 307.763 395.913 297.531 405.507C297.226 405.785 296.243 406.368 295.841 406.493C282.438 410.575 267.594 410.228 256.157 401.564C256.033 401.467 255.908 401.481 255.783 401.453C255.022 400.412 253.069 400.495 252.986 402.133C251.948 420.058 236.98 436.969 217.955 431.013C217.29 430.804 216.307 431.04 216.113 431.832C214.687 437.594 213.067 442.634 210.048 447.827C207.334 452.506 202.737 455.255 198.528 458.407C194.319 455.255 189.721 452.492 187.008 447.827C183.989 442.634 182.355 437.594 180.943 431.832C180.749 431.04 179.766 430.804 179.101 431.013C160.076 436.955 145.108 420.058 144.069 402.133C143.972 400.495 142.034 400.425 141.272 401.453C141.148 401.481 141.023 401.453 140.898 401.564C129.475 410.228 114.618 410.561 101.214 406.479C100.813 406.354 99.8296 405.785 99.525 405.493C89.2924 395.899 82.1753 382.834 83.9338 368.575C83.9476 368.422 83.8784 368.325 83.8368 368.2C84.3492 367.02 83.3107 365.367 81.8568 366.103C65.864 374.17 43.7788 369.616 39.4033 350.122C39.2509 349.428 38.5586 348.706 37.7694 348.928C32.0923 350.581 26.9137 351.677 20.9181 351.664C15.5318 351.65 10.8517 349.026 6.01922 346.943C6.64231 341.708 6.71155 336.335 9.39778 331.642C12.3748 326.436 15.9195 322.492 20.1842 318.383C20.7658 317.813 20.4889 316.842 19.9765 316.369C5.32689 302.832 12.4302 281.381 27.4121 271.509C28.7691 270.621 27.8691 268.885 26.5952 268.746C26.5121 268.649 26.4567 268.538 26.3183 268.468C13.1225 262.873 5.40997 250.155 2.22526 236.479C2.12834 236.076 2.12834 234.924 2.22526 234.521C5.39612 220.845 13.1225 208.113 26.3183 202.532C26.4567 202.476 26.5121 202.365 26.5952 202.254C27.8691 202.115 28.7691 200.38 27.4121 199.477C12.444 189.619 5.34074 168.168 19.9904 154.617C20.5027 154.145 20.7935 153.173 20.1981 152.603C15.9334 148.494 12.3886 144.55 9.41162 139.344C6.73924 134.651 6.65616 129.278 6.03307 124.043C10.8655 121.961 15.5456 119.35 20.932 119.323C26.9275 119.309 32.0923 120.406 37.7832 122.058C38.5586 122.28 39.2648 121.558 39.4171 120.864C43.7926 101.37 65.864 96.816 81.8706 104.883C83.3245 105.619 84.363 103.966 83.8507 102.786C83.8922 102.661 83.9615 102.564 83.9476 102.398C82.1753 88.1383 89.3062 75.0731 99.525 65.479C99.7881 65.2291 100.854 64.6043 101.214 64.4932C114.618 60.4112 129.461 60.7583 140.898 69.4222C141.023 69.5194 141.148 69.5055 141.272 69.5333C142.034 70.5746 143.986 70.4913 144.069 68.8529C145.108 50.9282 160.076 34.0171 179.101 39.9735C179.766 40.1817 180.749 39.9457 180.943 39.1543C182.355 33.3923 183.989 28.3522 187.008 23.1595C189.721 18.4943 194.319 15.7314 198.528 12.5796C202.737 15.7314 207.334 18.4943 210.048 23.1595C213.053 28.3522 214.687 33.3923 216.113 39.1543C216.307 39.9457 217.29 40.1817 217.955 39.9735C236.98 34.0171 251.948 50.9282 252.986 68.8529C253.083 70.4774 255.022 70.5607 255.783 69.5333C255.908 69.5055 256.033 69.5333 256.157 69.4222C267.581 60.7583 282.438 60.4112 295.828 64.4932C296.229 64.6182 297.212 65.1875 297.517 65.479C307.749 75.087 314.867 88.1383 313.108 102.398C313.08 102.55 313.163 102.661 313.205 102.772C312.693 103.953 313.731 105.605 315.185 104.855C331.178 96.7883 353.263 101.342 357.639 120.836C357.791 121.53 358.483 122.238 359.272 122.03C364.95 120.378 370.128 119.267 376.124 119.295C381.51 119.295 386.19 121.933 391.023 124.002C390.4 129.236 390.33 134.609 387.658 139.302C384.667 144.509 381.136 148.452 376.871 152.562C376.276 153.131 376.567 154.103 377.079 154.575C391.729 168.112 384.612 189.564 369.644 199.435C368.287 200.324 369.187 202.06 370.461 202.212C370.544 202.309 370.599 202.421 370.751 202.49C383.947 208.085 391.673 220.803 394.844 234.48C394.941 234.882 394.941 236.035 394.844 236.451C391.66 250.127 383.947 262.845 370.737 268.441L370.751 268.468Z" fill="#F0DEAB"/>
<path d="M411.654 234.007C410.297 231.55 407.68 232.036 406.157 233.632C405.935 232.425 405.658 231.217 405.381 229.995C407.375 230.439 409.785 227.94 408.386 225.524C407.306 223.65 405.271 224.094 404.177 225.399C403.761 224.011 403.318 222.636 402.834 221.275C404.509 221.067 406.101 219.054 404.966 217.068C403.955 215.333 402.1 215.722 401.061 216.902C400.632 215.93 400.161 214.986 399.677 214.042C401.117 213.445 402.224 211.64 401.214 209.876C400.161 208.057 398.195 208.488 397.115 209.751C396.478 208.807 395.8 207.919 395.093 207.03C396.16 206.239 396.783 204.739 395.952 203.281C394.872 201.407 392.781 201.962 391.784 203.351C390.607 202.226 389.333 201.226 388.004 200.282C388.641 199.407 388.849 198.2 388.17 197.005C387.976 196.672 387.741 196.464 387.505 196.256C388.253 195.673 388.973 195.062 389.652 194.437C389.707 194.548 389.707 194.673 389.776 194.784C391.562 197.894 396.035 194.631 394.276 191.549C393.958 190.994 393.529 190.688 393.072 190.508C393.543 189.869 393.903 189.161 394.29 188.48C396.243 190.563 399.967 187.634 398.347 184.801C397.849 183.954 397.143 183.607 396.437 183.593C396.644 182.83 396.741 182.01 396.88 181.191C398.721 182.316 401.504 179.817 400.134 177.442C399.4 176.165 398.167 176.11 397.184 176.679C397.184 176.248 397.24 175.832 397.184 175.388C397.157 174.999 397.087 174.554 397.046 174.138C399.137 174.513 401.601 171.903 400.147 169.389C399.164 167.682 397.447 167.793 396.229 168.723C396.063 167.834 395.841 166.932 395.592 166.043C397.378 165.891 399.137 163.725 397.918 161.614C396.921 159.865 395.08 160.17 393.958 161.295C393.543 160.337 393.058 159.421 392.532 158.56C393.875 157.81 394.816 156.06 393.819 154.339C392.601 152.215 390.233 152.978 389.236 154.63C388.558 154.075 387.824 153.603 387.021 153.228C388.516 152.339 389.929 151.312 391.244 150.201C391.299 150.34 391.299 150.479 391.382 150.618C393.252 153.867 397.96 150.451 396.104 147.244C395.8 146.73 395.412 146.411 394.996 146.216C395.675 145.328 396.229 144.342 396.769 143.37C398.583 145.453 402.141 142.662 400.604 139.982C400.106 139.122 399.372 138.83 398.638 138.872C398.735 138.511 398.929 138.205 399.012 137.83C399.012 137.803 399.012 137.775 399.012 137.747C400.95 138.719 403.706 136.192 402.307 133.748C401.629 132.582 400.563 132.388 399.621 132.721C399.649 132.249 399.649 131.763 399.649 131.263C401.546 131.402 403.595 129.083 402.307 126.848C401.532 125.515 400.3 125.404 399.247 125.904C399.081 124.946 398.846 124.001 398.527 123.127C400.48 122.877 402.307 120.544 401.034 118.239C399.677 115.99 396.755 116.407 395.564 117.976C394.969 117.254 394.263 116.601 393.529 115.962C394.484 115.31 395.01 114.171 394.249 112.838C392.961 110.603 389.929 111.228 389.098 112.936C388.682 112.7 388.253 112.45 387.824 112.228C388.599 111.575 388.946 110.548 388.281 109.381C386.869 106.924 383.282 108.062 383.171 110.228C383.144 110.228 383.116 110.214 383.102 110.2C382.742 110.089 382.382 110.089 382.022 109.992C382.424 109.381 382.548 108.604 382.05 107.743C380.513 105.077 376.331 106.771 377.217 109.381C376.096 109.381 374.974 109.353 373.867 109.492C373.894 109.034 373.839 108.548 373.534 108.021C371.679 104.799 366.376 107.174 368.259 110.423C368.342 110.561 368.466 110.631 368.55 110.742C366.929 111.325 365.337 112.047 363.828 112.894C363.897 112.019 363.856 111.145 363.717 110.27C365.656 110.242 367.497 108.534 366.279 106.438C365.282 104.716 363.302 104.647 361.986 105.438C361.502 104.549 360.948 103.689 360.325 102.842C361.862 102.425 363.039 100.995 362.042 99.2457C360.823 97.1352 358.082 97.5657 357.057 99.0374C356.406 98.3848 355.741 97.7462 355.063 97.1491C356.475 96.566 357.417 95.1081 356.448 93.4003C354.994 90.8873 351.518 91.7064 350.798 93.7197C350.466 93.4836 350.106 93.206 349.787 92.9838C349.427 92.72 349.04 92.5812 348.666 92.3451C349.635 91.7759 350.217 90.679 349.469 89.3878C348.098 87.0135 344.553 88.1937 344.609 90.3458C343.847 90.0681 343.086 89.7349 342.31 89.5405C342.656 88.9157 342.726 88.1521 342.227 87.2912C340.593 84.4588 336.19 86.2221 337.021 88.9573C336.232 88.9573 335.442 88.9157 334.667 88.999C334.736 88.513 334.695 87.9993 334.376 87.4301C332.604 84.3616 327.536 86.6248 329.336 89.721C329.405 89.8321 329.502 89.9015 329.571 89.9987C328.685 90.2764 327.799 90.5818 326.927 90.9428C326.871 90.6374 326.802 90.318 326.608 89.9987C325.916 88.8185 324.781 88.402 323.701 88.513C323.562 86.8886 323.327 85.278 322.953 83.6952C324.656 83.5286 326.165 81.9874 325.085 80.113C324.254 78.6551 322.634 78.4608 321.416 78.9884C321 77.9332 320.585 76.8918 320.073 75.8644C321.707 75.5728 323.05 74.0872 322.011 72.2545C320.987 70.4911 318.882 70.5467 317.65 71.4908C317.082 70.5883 316.5 69.7275 315.877 68.8528C317.428 68.5334 318.688 67.1172 317.691 65.3817C316.556 63.4101 314.008 63.7711 312.997 65.1318C312.056 64.021 311.1 62.938 310.103 61.8967C311.792 61.5913 313.191 60.0501 312.111 58.1757C310.712 55.7737 307.362 56.6068 306.739 58.5645C305.825 57.7175 304.925 56.8567 303.997 56.0653C306.129 55.5516 307.819 53.5383 306.42 51.1086C306.129 50.6087 304.938 49.5674 303.845 49.609C301.048 49.734 300.161 52.0805 300.771 54.1909C299.621 53.7744 298.431 53.4134 297.24 53.0524C298.624 51.539 297.669 48.2067 294.886 48.2067C292.726 48.2067 292.089 50.1922 292.67 51.8028C291.272 51.4696 289.846 51.1641 288.433 50.9003C289.098 49.3452 288.143 46.9571 285.872 46.9571C283.878 46.9571 283.282 48.7621 283.767 50.2616C282.715 50.1505 281.662 50.0811 280.61 50.0395C280.818 48.4844 279.807 46.6378 277.785 46.6378C275.764 46.6378 275.071 48.5538 275.625 50.1228C274.49 50.1922 273.382 50.3449 272.261 50.5115C272.108 49.2064 271.139 47.9013 269.45 47.9013C267.29 47.9013 266.708 49.9978 267.428 51.5529C265.877 52.011 264.368 52.6081 262.886 53.3023C262.443 52.3165 261.516 51.5251 260.145 51.5251C259.771 51.5251 259.453 51.6223 259.176 51.7195C259.051 50.7753 258.885 49.859 258.677 48.9426C258.802 48.9565 258.899 49.012 259.037 49.012C262.61 49.012 262.028 43.486 258.497 43.486C257.846 43.486 257.376 43.7082 256.988 43.9998C256.656 43.2778 256.24 42.6113 255.839 41.931C258.622 41.2923 257.943 36.5855 254.689 36.5855C253.706 36.5855 253.069 37.0298 252.695 37.6407C252.142 37.0715 251.477 36.5716 250.854 36.044C252.737 35.0166 251.975 31.3372 249.248 31.3372C247.766 31.3372 247.115 32.3785 247.101 33.5171C246.728 33.3088 246.409 33.0589 245.994 32.8645C245.648 32.6979 245.232 32.5313 244.858 32.3647C246.229 30.7263 245.204 27.2969 242.311 27.2969C240.344 27.2969 239.569 28.8519 239.777 30.3653C238.918 30.0737 238.032 29.8099 237.146 29.5739C237.907 27.9494 236.91 25.3392 234.487 25.3392C232.479 25.3392 231.829 27.0886 232.23 28.6159C231.192 28.5048 230.167 28.4632 229.156 28.4909C229.184 26.9498 228.145 25.2559 226.152 25.2559C223.715 25.2559 223.175 27.6995 224.116 29.3934C223.299 29.6989 222.524 30.1015 221.79 30.6013C221.762 28.8519 221.582 27.1303 221.278 25.4225C221.43 25.4502 221.555 25.5197 221.707 25.5197C225.459 25.5197 224.85 19.7299 221.139 19.7299C220.544 19.7299 220.087 19.9243 219.699 20.1742C219.27 19.1467 218.688 18.1887 218.134 17.2168C220.821 16.6753 220.211 12.1907 217.124 12.1907C216.127 12.1907 215.517 12.6766 215.199 13.3292C214.936 13.0654 214.756 12.746 214.479 12.4961C214.465 12.4822 214.424 12.4684 214.41 12.4406C216.224 11.2604 215.42 7.58106 212.596 7.58106C211.253 7.58106 210.546 8.41413 210.366 9.39992C209.965 9.13611 209.55 8.90008 209.134 8.65016C210.186 7.08123 209.217 4.13774 206.642 4.13774C205.105 4.13774 204.385 5.16518 204.302 6.33147C203.374 5.99825 202.46 5.73444 201.532 5.56783C202.28 3.74898 201.2 0.999873 198.569 0.944336C195.952 0.999873 194.845 3.74898 195.606 5.56783C194.692 5.73444 193.764 5.99825 192.851 6.33147C192.754 5.17907 192.034 4.13774 190.511 4.13774C187.949 4.13774 186.966 7.08123 188.018 8.65016C187.603 8.90008 187.174 9.13611 186.786 9.39992C186.606 8.41413 185.9 7.58106 184.557 7.58106C181.732 7.58106 180.929 11.2604 182.743 12.4406C182.743 12.4545 182.701 12.4684 182.687 12.4961C182.41 12.746 182.23 13.0654 181.967 13.3292C181.635 12.6766 181.026 12.1907 180.029 12.1907C176.955 12.1907 176.332 16.6753 179.032 17.2168C178.464 18.1887 177.896 19.1467 177.467 20.1742C177.079 19.9243 176.622 19.7299 176.013 19.7299C172.316 19.7299 171.707 25.5197 175.459 25.5197C175.626 25.5197 175.736 25.4502 175.889 25.4225C175.584 27.1303 175.404 28.8658 175.376 30.6013C174.642 30.1015 173.867 29.6989 173.05 29.3934C173.992 27.6995 173.452 25.2559 171.028 25.2559C169.035 25.2559 167.996 26.9498 168.024 28.4909C167.013 28.4632 165.988 28.4909 164.95 28.6159C165.365 27.0886 164.714 25.3392 162.693 25.3392C160.256 25.3392 159.273 27.9355 160.034 29.5739C159.134 29.8099 158.262 30.0737 157.403 30.3653C157.611 28.838 156.836 27.2969 154.87 27.2969C151.976 27.2969 150.951 30.7402 152.322 32.3647C151.948 32.5313 151.533 32.6979 151.172 32.8645C150.771 33.0589 150.452 33.3088 150.065 33.5171C150.051 32.3924 149.386 31.3372 147.919 31.3372C145.177 31.3372 144.415 35.0027 146.312 36.044C145.689 36.5716 145.025 37.0576 144.471 37.6407C144.097 37.0298 143.46 36.5855 142.477 36.5855C139.223 36.5855 138.544 41.2923 141.328 41.931C140.94 42.6113 140.511 43.2778 140.178 43.9998C139.804 43.6943 139.334 43.486 138.683 43.486C135.152 43.486 134.57 49.012 138.143 49.012C138.281 49.012 138.378 48.9565 138.503 48.9426C138.295 49.8451 138.129 50.7753 138.004 51.7195C137.714 51.6084 137.409 51.5251 137.035 51.5251C135.678 51.5251 134.737 52.3165 134.294 53.3023C132.812 52.6081 131.303 52.011 129.752 51.5529C130.472 49.9978 129.89 47.9013 127.73 47.9013C126.055 47.9013 125.072 49.2064 124.919 50.5115C123.812 50.3449 122.69 50.1922 121.555 50.1228C122.109 48.5538 121.499 46.6378 119.408 46.6378C117.318 46.6378 116.362 48.4983 116.57 50.0395C115.518 50.0811 114.465 50.1644 113.413 50.2616C113.911 48.7621 113.302 46.9571 111.308 46.9571C109.024 46.9571 108.082 49.3452 108.747 50.9003C107.334 51.1641 105.908 51.4557 104.51 51.8028C105.077 50.1922 104.44 48.2067 102.28 48.2067C99.4972 48.2067 98.5556 51.539 99.9264 53.0524C98.7356 53.4273 97.5448 53.7882 96.3955 54.1909C97.0048 52.0666 96.1186 49.8173 93.3216 49.609C92.4216 49.5396 91.3554 50.1367 90.7461 51.1086C89.2507 53.4967 91.0369 55.5377 93.1693 56.0792C92.2416 56.8706 91.3277 57.7175 90.4138 58.5645C89.7907 56.6207 86.4399 55.7737 85.0552 58.1896C83.9752 60.064 85.3737 61.619 87.0491 61.9106C86.0521 62.9519 85.0829 64.0349 84.1552 65.1457C83.1444 63.785 80.5966 63.4101 79.4612 65.3956C78.4642 67.1311 79.7243 68.5473 81.2612 68.8667C80.652 69.7275 80.0566 70.6022 79.4889 71.4908C78.2565 70.5467 76.1519 70.4911 75.1272 72.2545C74.0749 74.0733 75.4318 75.5589 77.0657 75.8644C76.5673 76.8779 76.138 77.9332 75.7226 78.9745C74.518 78.4469 72.8979 78.6413 72.0533 80.0991C70.9733 81.9735 72.4964 83.5147 74.1995 83.6813C73.8118 85.2502 73.5764 86.8608 73.4518 88.4992C72.3718 88.3881 71.2225 88.8046 70.5302 89.9848C70.3363 90.318 70.2671 90.6373 70.2117 90.9289C69.3394 90.5679 68.4532 90.2486 67.567 89.9848C67.6362 89.8876 67.747 89.8321 67.8163 89.7071C69.6025 86.6109 64.5346 84.3477 62.7761 87.4162C62.4438 87.9716 62.4022 88.4992 62.4715 88.9712C61.6822 88.9018 60.9068 88.9435 60.1176 88.9435C60.9484 86.2082 56.5452 84.4449 54.9251 87.2635C54.4266 88.1243 54.4959 88.9018 54.8282 89.5266C54.0528 89.721 53.2912 90.0542 52.5297 90.3458C52.5712 88.1798 49.0265 87.0135 47.6557 89.3878C46.908 90.6651 47.4895 91.7759 48.4726 92.3451C48.0988 92.5812 47.7111 92.7339 47.351 92.9977C47.0326 93.2198 46.6864 93.4837 46.3402 93.7336C45.6064 91.7342 42.1309 90.9012 40.6909 93.4142C39.7078 95.122 40.6632 96.566 42.0755 97.1491C41.3832 97.7462 40.7185 98.3848 40.0678 99.0374C39.0431 97.5657 36.3015 97.1214 35.083 99.2318C34.086 100.981 35.263 102.411 36.7861 102.828C36.1769 103.675 35.623 104.536 35.1384 105.424C33.8091 104.633 31.8291 104.688 30.846 106.424C29.6275 108.534 31.4691 110.214 33.3937 110.256C33.2553 111.117 33.2137 111.992 33.2829 112.88C31.7598 112.019 30.1813 111.311 28.5613 110.728C28.6582 110.617 28.769 110.534 28.8521 110.409C30.7213 107.16 25.432 104.786 23.5765 108.007C23.2719 108.52 23.2165 109.02 23.2442 109.478C22.1365 109.34 21.0149 109.353 19.9072 109.353C20.7934 106.757 16.6117 105.035 15.0747 107.715C14.5763 108.59 14.687 109.367 15.0747 109.978C14.7147 110.075 14.3547 110.062 13.9947 110.173C13.9809 110.173 13.9393 110.2 13.9255 110.2C13.8008 108.034 10.2284 106.896 8.81609 109.34C8.13761 110.506 8.51147 111.533 9.27303 112.186C8.85763 112.394 8.42839 112.644 8.01299 112.88C7.1822 111.172 4.1498 110.548 2.86207 112.783C2.10051 114.102 2.62668 115.254 3.58209 115.907C2.83438 116.546 2.1282 117.198 1.5328 117.92C0.342 116.351 -2.57962 115.935 -3.93659 118.184C-5.19662 120.489 -3.38272 122.807 -1.43036 123.071C-1.74883 123.946 -1.97037 124.89 -2.15038 125.848C-3.20272 125.348 -4.44891 125.459 -5.21047 126.792C-6.4982 129.028 -4.43506 131.346 -2.56578 131.207C-2.56578 131.693 -2.56578 132.179 -2.52424 132.665C-3.47965 132.332 -4.54583 132.526 -5.21047 133.693C-6.62282 136.15 -3.85351 138.677 -1.91499 137.705C-1.91499 137.733 -1.91499 137.761 -1.91499 137.775C-1.83191 138.15 -1.6519 138.469 -1.55498 138.816C-2.28884 138.761 -3.00887 139.052 -3.50734 139.927C-5.04431 142.607 -1.48574 145.383 0.314308 143.315C0.86817 144.287 1.40818 145.272 2.08667 146.161C1.68512 146.369 1.28357 146.661 0.992788 147.188C-0.86265 150.396 3.83133 153.825 5.70062 150.576C5.78369 150.437 5.7837 150.298 5.83908 150.16C7.1545 151.27 8.56685 152.298 10.0623 153.186C9.25918 153.575 8.52531 154.047 7.84683 154.603C6.86373 152.95 4.48212 152.187 3.26362 154.297C2.26667 156.019 3.20824 157.768 4.55135 158.518C4.02518 159.379 3.5544 160.295 3.139 161.253C2.01743 160.142 0.189688 159.823 -0.821111 161.573C-2.03961 163.683 -0.294941 165.849 1.50511 166.002C1.26972 166.89 1.04817 167.793 0.868169 168.681C-0.336481 167.751 -2.0673 167.654 -3.05041 169.348C-4.50429 171.861 -2.05345 174.471 0.0512224 174.096C0.00968271 174.499 -0.0457027 174.943 -0.0872424 175.332C-0.128782 175.776 -0.0872424 176.193 -0.0872424 176.623C-1.07035 176.068 -2.30269 176.11 -3.03656 177.401C-4.40737 179.775 -1.61036 182.274 0.217381 181.15C0.355846 181.955 0.452772 182.788 0.674317 183.552C-0.0457037 183.579 -0.738031 183.899 -1.22266 184.759C-2.85655 187.592 0.868169 190.535 2.82053 188.439C3.20824 189.119 3.56825 189.827 4.02518 190.466C3.58209 190.646 3.15285 190.938 2.82053 191.507C1.06202 194.576 5.53446 197.839 7.32066 194.742C7.3899 194.617 7.38989 194.506 7.44528 194.381C8.12376 195.02 8.82994 195.631 9.5915 196.214C9.35611 196.408 9.12072 196.631 8.92686 196.95C8.24838 198.13 8.46993 199.338 9.10687 200.213C7.76375 201.157 6.50372 202.157 5.32676 203.281C4.32981 201.879 2.23898 201.337 1.15895 203.212C0.314307 204.684 0.951248 206.183 2.01743 206.961C1.31126 207.849 0.618931 208.738 -0.00416379 209.668C-1.07035 208.405 -3.05041 207.974 -4.10274 209.807C-5.11354 211.57 -4.00582 213.375 -2.57962 213.972C-3.06425 214.916 -3.52119 215.86 -3.96428 216.832C-5.00277 215.652 -6.87205 215.277 -7.86901 217.013C-9.00442 218.984 -7.41207 221.012 -5.73664 221.206C-6.22127 222.567 -6.66436 223.955 -7.06591 225.343C-8.17363 224.038 -10.1952 223.594 -11.2891 225.468C-12.6738 227.884 -10.2783 230.384 -8.27056 229.939C-8.54749 231.147 -8.82442 232.369 -9.04596 233.577C-10.5691 231.98 -12.9922 231.605 -14.543 233.952C-15.2769 235.063 -14.8338 236.437 -14.543 236.937C-13.1445 239.367 -10.5691 238.909 -9.04596 237.312C-8.82442 238.506 -8.54749 239.728 -8.27056 240.936C-10.2645 240.505 -12.6738 243.004 -11.2891 245.406C-10.2091 247.281 -8.17363 246.836 -7.06591 245.545C-6.66436 246.934 -6.20742 248.308 -5.72279 249.683C-7.39822 249.891 -8.99058 251.904 -7.85516 253.89C-6.85821 255.625 -4.98892 255.237 -3.95043 254.056C-3.50734 255.028 -3.05041 255.972 -2.56578 256.917C-4.00582 257.514 -5.0997 259.319 -4.0889 261.082C-3.03656 262.901 -1.07035 262.47 0.00968308 261.207C0.632778 262.151 1.32511 263.04 2.03128 263.928C0.965095 264.72 0.328154 266.219 1.17279 267.677C2.25282 269.551 4.34365 268.996 5.3406 267.608C6.50372 268.718 7.7776 269.746 9.12071 270.676C8.49762 271.565 8.26223 272.759 8.95455 273.939C9.14841 274.272 9.36995 274.48 9.61919 274.689C8.87148 275.272 8.15146 275.883 7.47297 276.507C7.41759 276.396 7.41759 276.271 7.34835 276.16C5.56215 273.05 1.07587 276.327 2.84823 279.381C3.1667 279.951 3.59594 280.242 4.03903 280.423C3.58209 281.061 3.22208 281.756 2.83438 282.45C0.882016 280.367 -2.84271 283.297 -1.20881 286.129C-0.724184 286.99 -0.0180103 287.309 0.688164 287.337C0.466619 288.101 0.369694 288.92 0.245075 289.739C-1.59652 288.615 -4.37967 291.114 -3.00887 293.488C-2.275 294.765 -1.04266 294.821 -0.0595499 294.265C-0.0595499 294.696 -0.10109 295.112 -0.0595499 295.557C-0.0318568 295.945 0.0373765 296.39 0.0789161 296.806C-2.02576 296.431 -4.4766 299.042 -3.02271 301.555C-2.03961 303.249 -0.322635 303.151 0.895862 302.221C1.07587 303.11 1.28357 304.012 1.51896 304.887C-0.267248 305.054 -2.02576 307.206 -0.807264 309.316C0.203535 311.066 2.03128 310.76 3.15285 309.635C3.56825 310.593 4.05288 311.51 4.5652 312.371C3.23593 313.134 2.28052 314.87 3.27747 316.605C4.49597 318.716 6.87757 317.966 7.86068 316.3C8.55301 316.855 9.27303 317.327 10.0761 317.702C8.5807 318.591 7.16835 319.604 5.85293 320.729C5.79754 320.59 5.79754 320.451 5.71446 320.326C3.84518 317.064 -0.86265 320.493 0.992788 323.7C1.29741 324.228 1.68512 324.533 2.08667 324.728C1.42203 325.616 0.86817 326.602 0.314308 327.574C-1.49959 325.505 -5.05816 328.282 -3.52119 330.962C-3.02271 331.823 -2.30269 332.114 -1.56882 332.073C-1.6796 332.434 -1.8596 332.739 -1.92884 333.1C-1.92884 333.128 -1.92884 333.156 -1.92884 333.183C-3.86735 332.211 -6.63666 334.738 -5.22431 337.182C-4.55968 338.348 -3.49349 338.543 -2.53808 338.21C-2.56578 338.682 -2.56578 339.168 -2.56578 339.667C-4.44891 339.529 -6.51204 341.861 -5.22431 344.083C-4.46275 345.416 -3.21656 345.527 -2.16423 345.027C-1.98422 345.985 -1.76268 346.929 -1.44421 347.804C-3.38272 348.054 -5.21047 350.372 -3.95043 352.691C-2.59347 354.94 0.328154 354.524 1.51896 352.955C2.11436 353.663 2.82053 354.343 3.56825 354.968C2.61283 355.621 2.08667 356.759 2.86207 358.092C4.13595 360.327 7.1822 359.703 7.99914 357.995C8.42839 358.231 8.84378 358.467 9.27303 358.689C8.49762 359.342 8.13761 360.369 8.81609 361.535C10.2284 363.993 13.8008 362.854 13.9255 360.688C13.9532 360.688 13.9809 360.688 13.9947 360.702C14.3547 360.827 14.7147 360.813 15.0747 360.91C14.6732 361.521 14.5486 362.299 15.047 363.16C16.584 365.826 20.7657 364.132 19.8795 361.521C21.0011 361.521 22.1226 361.549 23.2304 361.41C23.2027 361.868 23.2719 362.354 23.5627 362.882C25.4181 366.103 30.7213 363.743 28.8382 360.48C28.7551 360.341 28.6444 360.272 28.5474 360.161C30.1675 359.578 31.7598 358.869 33.2691 358.023C33.1999 358.897 33.2414 359.772 33.3799 360.633C31.4552 360.674 29.5998 362.368 30.8183 364.465C31.8152 366.187 33.7953 366.242 35.1107 365.465C35.5953 366.353 36.1492 367.214 36.7584 368.061C35.2353 368.477 34.0445 369.908 35.0553 371.657C36.2738 373.767 39.0154 373.323 40.0401 371.851C40.6909 372.504 41.3555 373.143 42.0478 373.74C40.6355 374.323 39.6801 375.781 40.6632 377.488C42.117 380.001 45.5925 379.182 46.3126 377.169C46.6449 377.419 47.0049 377.683 47.3234 377.919C47.6972 378.169 48.0711 378.321 48.4449 378.557C47.4757 379.127 46.8941 380.224 47.628 381.501C48.9988 383.875 52.5435 382.709 52.502 380.543C53.2635 380.835 54.0251 381.154 54.8005 381.362C54.4543 381.987 54.3989 382.751 54.8974 383.611C56.5313 386.444 60.9207 384.681 60.0899 381.945C60.8791 381.945 61.6684 381.987 62.4438 381.904C62.3746 382.39 62.4299 382.903 62.7484 383.473C64.5069 386.541 69.5748 384.292 67.7886 381.182C67.7193 381.071 67.6224 381.015 67.5393 380.904C68.4255 380.626 69.3117 380.321 70.184 379.946C70.2394 380.251 70.3086 380.557 70.5025 380.904C71.181 382.084 72.3302 382.501 73.4103 382.39C73.5487 384.014 73.7841 385.625 74.158 387.207C72.4548 387.374 70.9456 388.915 72.0118 390.79C72.8564 392.247 74.4764 392.442 75.6811 391.914C76.0965 392.956 76.5119 393.997 77.0104 395.024C75.3765 395.316 74.0333 396.815 75.0857 398.634C76.0965 400.398 78.2012 400.342 79.4473 399.398C80.0151 400.287 80.6105 401.161 81.2197 402.022C79.6689 402.341 78.4089 403.758 79.4197 405.493C80.5551 407.465 83.1028 407.104 84.1136 405.743C85.0552 406.854 86.0106 407.937 87.0076 408.978C85.3321 409.284 83.9336 410.825 85.0137 412.699C86.3983 415.101 89.763 414.268 90.3723 412.324C91.2861 413.171 92.1862 414.018 93.1277 414.81C90.9815 415.337 89.3061 417.337 90.7046 419.766C90.9954 420.266 92.1308 421.307 93.2801 421.266C96.0771 421.155 96.9632 418.808 96.354 416.684C97.5033 417.101 98.6941 417.461 99.8849 417.822C98.5002 419.336 99.4695 422.682 102.239 422.668C104.399 422.668 105.036 420.683 104.454 419.086C105.853 419.419 107.279 419.711 108.691 419.975C108.027 421.53 108.968 423.932 111.253 423.932C113.247 423.932 113.842 422.127 113.344 420.627C114.396 420.738 115.448 420.808 116.501 420.849C116.307 422.404 117.304 424.265 119.339 424.265C121.444 424.265 122.053 422.335 121.499 420.766C122.621 420.697 123.742 420.544 124.864 420.377C125.003 421.682 125.986 422.987 127.675 422.987C129.835 422.987 130.403 420.891 129.696 419.336C131.247 418.878 132.757 418.281 134.238 417.586C134.681 418.572 135.609 419.364 136.98 419.364C137.367 419.364 137.672 419.266 137.949 419.155C138.087 420.1 138.254 421.016 138.448 421.932C138.323 421.918 138.226 421.849 138.087 421.863C134.515 421.863 135.097 427.389 138.628 427.389C139.278 427.389 139.749 427.167 140.137 426.861C140.455 427.583 140.885 428.25 141.286 428.93C138.503 429.569 139.168 434.275 142.435 434.289C143.418 434.289 144.055 433.845 144.429 433.234C144.983 433.803 145.648 434.289 146.271 434.817C144.388 435.858 145.149 439.524 147.877 439.524C149.359 439.524 150.009 438.482 150.023 437.344C150.411 437.552 150.729 437.802 151.131 437.996C151.477 438.163 151.906 438.33 152.28 438.496C150.909 440.135 151.934 443.564 154.828 443.564C156.78 443.564 157.57 442.009 157.362 440.496C158.22 440.787 159.107 441.051 159.993 441.287C159.231 442.925 160.228 445.522 162.651 445.522C164.659 445.522 165.31 443.772 164.908 442.245C165.947 442.37 166.985 442.398 167.982 442.384C167.982 443.925 169.007 445.619 170.987 445.605C173.424 445.605 173.95 443.161 173.022 441.468C173.839 441.148 174.615 440.746 175.349 440.246C175.376 441.995 175.542 443.731 175.847 445.425C175.709 445.411 175.584 445.341 175.432 445.341C171.679 445.341 172.288 451.131 175.986 451.131C176.581 451.131 177.052 450.937 177.426 450.687C177.855 451.714 178.423 452.686 178.99 453.644C176.304 454.186 176.913 458.67 180.001 458.67C180.998 458.67 181.621 458.184 181.94 457.532C182.203 457.796 182.383 458.115 182.66 458.365C182.673 458.393 182.701 458.407 182.729 458.42C180.915 459.614 181.718 463.28 184.543 463.28C185.886 463.28 186.578 462.447 186.772 461.461C187.16 461.725 187.589 461.961 188.004 462.211C186.952 463.794 187.921 466.723 190.497 466.723C192.034 466.723 192.754 465.696 192.837 464.53C193.764 464.863 194.678 465.127 195.606 465.307C194.845 467.126 195.938 469.875 198.569 469.917C201.186 469.861 202.294 467.112 201.532 465.307C202.446 465.14 203.36 464.863 204.288 464.53C204.385 465.696 205.105 466.723 206.628 466.723C209.203 466.723 210.173 463.78 209.12 462.211C209.536 461.961 209.951 461.725 210.353 461.461C210.533 462.461 211.239 463.28 212.582 463.28C215.407 463.28 216.224 459.601 214.396 458.42C214.41 458.42 214.437 458.393 214.451 458.365C214.728 458.115 214.908 457.796 215.171 457.532C215.49 458.198 216.099 458.67 217.096 458.67C220.17 458.67 220.793 454.186 218.107 453.658C218.674 452.686 219.242 451.728 219.685 450.687C220.059 450.937 220.516 451.131 221.125 451.131C224.836 451.131 225.432 445.341 221.693 445.341C221.527 445.341 221.416 445.411 221.264 445.425C221.568 443.731 221.748 441.981 221.776 440.246C222.496 440.746 223.285 441.148 224.088 441.454C223.147 443.148 223.701 445.605 226.124 445.605C228.104 445.605 229.156 443.911 229.129 442.37C230.139 442.398 231.15 442.356 232.203 442.231C231.801 443.772 232.452 445.508 234.46 445.508C236.897 445.508 237.893 442.912 237.118 441.273C238.018 441.037 238.89 440.773 239.749 440.482C239.555 442.009 240.33 443.55 242.283 443.564C245.177 443.564 246.201 440.135 244.831 438.496C245.204 438.33 245.62 438.163 245.966 437.996C246.368 437.802 246.7 437.552 247.074 437.344C247.074 438.482 247.738 439.524 249.22 439.524C251.962 439.524 252.709 435.858 250.826 434.817C251.449 434.303 252.114 433.803 252.682 433.22C253.055 433.831 253.692 434.275 254.675 434.275C257.943 434.275 258.622 429.569 255.839 428.93C256.226 428.25 256.656 427.583 256.974 426.861C257.348 427.167 257.832 427.389 258.483 427.389C262.014 427.389 262.596 421.863 259.023 421.863C258.885 421.863 258.788 421.918 258.663 421.946C258.871 421.03 259.051 420.113 259.162 419.169C259.453 419.28 259.757 419.378 260.145 419.378C261.516 419.378 262.443 418.586 262.886 417.6C264.368 418.281 265.863 418.892 267.428 419.35C266.708 420.905 267.29 423.001 269.45 423.001C271.125 423.001 272.108 421.696 272.261 420.377C273.368 420.544 274.49 420.697 275.625 420.766C275.058 422.335 275.681 424.251 277.772 424.265C279.807 424.265 280.804 422.404 280.61 420.849C281.662 420.808 282.715 420.738 283.767 420.627C283.269 422.127 283.878 423.932 285.872 423.932C288.156 423.932 289.098 421.53 288.433 419.975C289.86 419.711 291.272 419.419 292.684 419.072C292.103 420.683 292.74 422.668 294.9 422.668C297.669 422.668 298.624 419.336 297.254 417.809C298.431 417.448 299.635 417.087 300.784 416.67C300.161 418.794 301.048 421.252 303.858 421.252C304.426 421.252 305.935 420.738 306.434 419.766C307.708 417.267 306.143 415.337 304.011 414.81C304.938 414.018 305.852 413.157 306.766 412.31C307.389 414.268 310.754 415.101 312.125 412.685C313.205 410.811 311.806 409.256 310.131 408.964C311.114 407.909 312.083 406.84 313.025 405.729C314.036 407.076 316.583 407.465 317.719 405.479C318.716 403.744 317.456 402.314 315.919 401.994C316.542 401.133 317.123 400.259 317.691 399.356C318.923 400.314 321.028 400.37 322.053 398.607C323.091 396.774 321.734 395.288 320.114 394.983C320.613 393.969 321.042 392.914 321.457 391.873C322.662 392.4 324.282 392.206 325.127 390.748C326.207 388.874 324.684 387.332 322.981 387.166C323.354 385.583 323.604 383.986 323.742 382.348C324.822 382.459 325.971 382.042 326.65 380.862C326.844 380.529 326.913 380.224 326.968 379.918C327.841 380.279 328.727 380.599 329.613 380.876C329.544 380.973 329.447 381.029 329.378 381.154C327.591 384.25 332.645 386.513 334.418 383.445C334.736 382.876 334.792 382.362 334.709 381.876C335.498 381.959 336.287 381.918 337.062 381.918C336.232 384.653 340.635 386.43 342.269 383.598C342.753 382.737 342.698 381.959 342.352 381.334C343.113 381.14 343.875 380.807 344.637 380.529C344.581 382.681 348.14 383.861 349.511 381.487C350.244 380.21 349.677 379.113 348.694 378.53C349.067 378.308 349.441 378.155 349.815 377.891C350.134 377.669 350.494 377.391 350.826 377.141C351.546 379.155 355.021 379.974 356.475 377.461C357.458 375.753 356.503 374.309 355.091 373.726C355.769 373.129 356.434 372.49 357.085 371.837C358.109 373.309 360.851 373.754 362.069 371.629C363.08 369.88 361.903 368.45 360.366 368.033C360.989 367.186 361.543 366.312 362.014 365.437C363.343 366.214 365.309 366.173 366.306 364.437C367.525 362.327 365.683 360.633 363.759 360.605C363.897 359.73 363.925 358.869 363.869 357.981C365.393 358.842 366.971 359.55 368.605 360.133C368.508 360.244 368.397 360.327 368.314 360.452C366.445 363.701 371.748 366.089 373.59 362.868C373.88 362.341 373.964 361.855 373.922 361.396C375.03 361.535 376.151 361.521 377.273 361.507C376.387 364.118 380.568 365.826 382.119 363.146C382.618 362.285 382.507 361.508 382.091 360.883C382.451 360.799 382.811 360.799 383.171 360.688C383.199 360.688 383.227 360.661 383.241 360.661C383.365 362.827 386.938 363.965 388.35 361.521C389.015 360.355 388.655 359.328 387.893 358.675C388.322 358.467 388.738 358.217 389.167 357.967C389.998 359.675 393.03 360.3 394.318 358.064C395.08 356.731 394.553 355.593 393.598 354.94C394.346 354.315 395.038 353.649 395.633 352.927C396.824 354.496 399.746 354.912 401.103 352.663C402.363 350.358 400.549 348.04 398.597 347.79C398.915 346.915 399.137 345.971 399.317 345.013C400.369 345.513 401.601 345.402 402.377 344.083C403.664 341.847 401.601 339.529 399.718 339.653C399.718 339.168 399.718 338.682 399.69 338.21C400.632 338.557 401.698 338.348 402.377 337.182C403.789 334.725 401.02 332.184 399.081 333.169C399.081 333.142 399.081 333.114 399.067 333.1C398.984 332.725 398.804 332.42 398.707 332.059C399.441 332.114 400.161 331.823 400.66 330.948C402.197 328.268 398.638 325.491 396.824 327.574C396.27 326.588 395.73 325.616 395.052 324.728C395.467 324.52 395.855 324.228 396.16 323.7C398.015 320.479 393.321 317.064 391.438 320.313C391.355 320.451 391.355 320.59 391.299 320.729C389.984 319.618 388.572 318.591 387.076 317.702C387.865 317.327 388.599 316.841 389.278 316.3C390.275 317.966 392.67 318.716 393.875 316.605C394.872 314.884 393.93 313.134 392.587 312.385C393.113 311.524 393.584 310.607 394 309.649C395.121 310.774 396.949 311.079 397.96 309.33C399.178 307.206 397.433 305.054 395.633 304.901C395.869 304.012 396.09 303.11 396.27 302.221C397.489 303.151 399.206 303.249 400.189 301.555C401.629 299.042 399.178 296.431 397.087 296.806C397.129 296.404 397.198 295.945 397.226 295.557C397.267 295.112 397.198 294.71 397.226 294.265C398.209 294.821 399.441 294.779 400.175 293.488C401.546 291.114 398.749 288.628 396.921 289.739C396.783 288.934 396.686 288.101 396.464 287.337C397.184 287.337 397.877 286.99 398.361 286.143C399.995 283.311 396.27 280.367 394.318 282.464C393.916 281.783 393.57 281.075 393.099 280.437C393.556 280.27 393.986 279.965 394.304 279.395C396.063 276.327 391.59 273.05 389.804 276.16C389.735 276.271 389.735 276.382 389.679 276.507C389.001 275.869 388.295 275.258 387.533 274.689C387.769 274.48 388.004 274.272 388.198 273.939C388.876 272.759 388.655 271.551 388.032 270.662C389.375 269.732 390.649 268.718 391.812 267.594C392.795 268.996 394.9 269.537 395.98 267.663C396.824 266.205 396.173 264.706 395.121 263.914C395.813 263.026 396.506 262.137 397.143 261.193C398.209 262.47 400.175 262.887 401.227 261.068C402.238 259.291 401.144 257.5 399.704 256.903C400.189 255.959 400.66 255.014 401.089 254.042C402.127 255.237 403.997 255.611 404.994 253.876C406.129 251.89 404.537 249.877 402.861 249.683C403.346 248.308 403.803 246.934 404.204 245.545C405.312 246.85 407.348 247.295 408.428 245.42C409.812 243.004 407.403 240.519 405.409 240.95C405.686 239.742 405.977 238.52 406.184 237.326C407.694 238.922 410.214 239.353 411.682 236.951C412.014 236.409 412.249 234.993 411.682 233.966L411.654 234.007ZM395.855 255.32C392.047 261.873 385.969 266.011 380.679 271.148C379.931 271.87 380.084 272.856 380.624 273.467C380.624 273.939 380.776 274.397 381.288 274.675C389.555 279.132 393.93 285.727 393.695 295.237C393.529 302.166 391.369 313.19 384.944 316.98C384.432 317.286 384.418 317.799 384.653 318.147C384.376 318.674 384.376 319.327 385.055 319.716C390.607 322.964 394.456 327.296 396.27 333.6C397.793 338.918 396.215 344.152 395.176 349.359C391.203 352.858 387.478 356.856 382.105 358.189C375.764 359.772 370.1 358.592 364.506 355.398C363.828 355.01 363.274 355.343 362.956 355.843C362.526 355.801 362.097 356.065 362.097 356.676C362.028 364.146 353.581 371.532 347.697 375.142C339.583 380.113 331.718 379.613 323.728 374.656C323.244 374.351 322.773 374.448 322.357 374.684C321.554 374.503 320.627 374.878 320.377 375.878C318.591 383.042 318.051 390.387 314.299 396.968C310.768 403.161 305.742 408.006 300.341 412.38V412.352C293.75 414.921 287.298 416.823 280.056 416.795C272.496 416.767 265.891 413.56 258.802 411.533C257.805 411.241 257.029 411.866 256.766 412.644C256.365 412.894 256.046 413.255 256.06 413.824C256.337 423.237 252.834 430.318 244.498 434.872C238.433 438.191 227.841 441.829 221.347 438.149C220.834 437.858 220.378 438.108 220.198 438.482C219.602 438.496 219.048 438.83 219.034 439.621C219.007 446.077 217.193 451.575 212.651 456.282C208.816 460.267 203.512 461.517 198.5 463.21C193.488 461.517 188.184 460.267 184.349 456.282C179.807 451.562 177.993 446.063 177.966 439.607C177.966 438.816 177.398 438.51 176.802 438.482C176.622 438.094 176.179 437.858 175.653 438.149C169.173 441.829 158.567 438.191 152.502 434.872C144.152 430.305 140.649 423.224 140.94 413.81C140.954 413.241 140.635 412.88 140.22 412.644C139.971 411.852 139.181 411.241 138.198 411.519C131.123 413.546 124.504 416.753 116.944 416.781C109.716 416.809 103.139 414.81 96.5617 412.255C91.1061 407.867 86.2737 403.23 82.7013 396.968C78.9489 390.387 78.4089 383.042 76.6226 375.878C76.3734 374.864 75.4457 374.503 74.6426 374.67C74.2272 374.434 73.7564 374.337 73.2718 374.642C65.2823 379.585 57.4175 380.085 49.3034 375.114C43.4048 371.504 34.9584 364.118 34.903 356.648C34.903 356.051 34.4599 355.787 34.0445 355.815C33.726 355.301 33.1583 354.982 32.4798 355.371C26.8997 358.564 21.2364 359.744 14.8947 358.161C9.53611 356.828 5.81139 352.844 1.83743 349.345C0.798936 344.138 -0.779571 338.918 0.74355 333.586C2.5436 327.283 6.39294 322.964 11.9454 319.716C12.6239 319.313 12.6239 318.674 12.3331 318.133C12.5824 317.786 12.5685 317.272 12.0562 316.966C5.63138 313.176 3.48517 302.152 3.31901 295.224C3.08362 285.685 7.44528 279.118 15.7255 274.661C16.224 274.383 16.3763 273.925 16.3902 273.453C16.9302 272.842 17.0825 271.856 16.3486 271.134C11.0592 265.997 4.9806 261.859 1.17279 255.306C-2.455 249.072 -4.04736 242.532 -5.12739 235.562C-4.04736 228.579 -2.46885 221.942 1.17279 215.666C4.9806 209.113 11.0592 204.975 16.3486 199.838C17.0963 199.116 16.944 198.13 16.404 197.519C16.404 197.047 16.2378 196.589 15.7394 196.325C7.47298 191.854 3.11131 185.273 3.3467 175.749C3.51286 168.82 5.67292 157.796 12.0839 154.006C12.5962 153.7 12.61 153.2 12.3608 152.853C12.6377 152.326 12.6516 151.673 11.9731 151.27C6.42064 148.021 2.5713 143.69 0.771244 137.4C-0.751877 132.082 0.82663 126.848 1.86512 121.641C5.83908 118.142 9.56381 114.157 14.9224 112.811C21.2641 111.228 26.9274 112.408 32.5075 115.615C33.1999 116.004 33.7399 115.685 34.0722 115.171C34.4876 115.199 34.9307 114.949 34.9307 114.338C34.9999 106.868 43.4463 99.4817 49.345 95.8718C57.459 90.9012 65.3239 91.401 73.3133 96.3577C73.798 96.6632 74.2687 96.566 74.6841 96.3161C75.4872 96.4966 76.4011 96.1217 76.6642 95.122C78.4504 87.9716 78.9904 80.6128 82.7428 74.0316C86.3291 67.7281 91.2031 63.063 96.7002 58.6478C103.263 56.093 109.73 54.177 116.972 54.2187C124.532 54.2464 131.137 57.4537 138.226 59.4808C139.223 59.7724 139.998 59.1476 140.248 58.3701C140.663 58.1202 140.981 57.7731 140.968 57.2038C140.691 47.7763 144.18 40.7092 152.529 36.1412C158.594 32.8228 169.187 29.1851 175.681 32.8645C176.193 33.1561 176.65 32.92 176.83 32.5313C177.426 32.5035 177.979 32.1842 177.993 31.4066C178.021 24.9504 179.835 19.4522 184.377 14.7315C188.212 10.7467 193.515 9.51099 198.528 7.80321C203.54 9.51099 208.843 10.7467 212.679 14.7315C217.221 19.4383 219.021 24.9504 219.062 31.4066C219.062 32.198 219.63 32.5174 220.225 32.5313C220.405 32.92 220.848 33.1561 221.361 32.8645C227.841 29.1851 238.447 32.8228 244.512 36.1412C252.862 40.6953 256.365 47.7763 256.088 57.2038C256.06 57.7731 256.392 58.134 256.808 58.3701C257.057 59.1615 257.832 59.7724 258.829 59.4808C265.905 57.4537 272.524 54.2464 280.084 54.2187C287.326 54.177 293.917 56.2041 300.494 58.7588C305.935 63.1463 310.768 67.7837 314.326 74.0316C318.079 80.6128 318.619 87.9577 320.405 95.122C320.654 96.1356 321.582 96.4966 322.385 96.33C322.801 96.566 323.271 96.6493 323.756 96.3577C331.745 91.401 339.61 90.915 347.724 95.8718C353.623 99.4817 362.055 106.868 362.125 114.338C362.125 114.935 362.568 115.199 362.983 115.171C363.302 115.671 363.856 116.004 364.548 115.615C370.128 112.422 375.791 111.242 382.133 112.825C387.492 114.157 391.216 118.142 395.19 121.655C396.229 126.862 397.807 132.096 396.284 137.414C394.47 143.703 390.621 148.035 385.068 151.298C384.39 151.687 384.404 152.339 384.681 152.867C384.432 153.214 384.445 153.728 384.958 154.033C391.369 157.824 393.543 168.848 393.709 175.776C393.944 185.301 389.582 191.882 381.302 196.339C380.804 196.617 380.638 197.061 380.651 197.547C380.098 198.158 379.959 199.144 380.693 199.866C385.982 204.989 392.075 209.14 395.869 215.68C399.497 221.914 401.075 228.44 402.155 235.618C401.089 242.56 399.497 249.086 395.869 255.32H395.855Z" fill="#F0DEAB"/>
<path d="M371.471 320.285C372.814 316.3 371.443 312.815 367.594 310.386C365.656 309.15 362.249 308.233 359.798 309.108C360.685 306.762 360.422 304.068 357.998 302.222C354.274 299.389 350.992 299.32 347.572 300.333C348.154 299.639 348.749 298.959 349.22 298.126C353.263 290.934 346.63 280.978 338.212 283.672C335.456 284.547 330.956 287.393 331.967 291.045C332.756 293.891 335.124 296.765 338.406 295.363C339.181 295.029 339.776 294.085 339.582 293.224C339.264 291.85 338.779 291.461 337.63 290.6C337.533 290.517 337.422 290.503 337.326 290.448L338.53 287.685C340.718 286.879 342.795 287.143 344.733 288.462C347.627 290.212 347.364 293.946 346.395 296.598C343.64 304.193 334.238 302.68 329.668 298.348C324.31 293.266 323.701 284.102 325.971 277.119C327.924 275.327 329.198 272.578 329.599 269.746C329.973 267.108 329.488 264.47 328.408 262.137C331.399 265.067 334.667 266.414 339.873 264.525C341.992 263.762 343.972 261.776 344.761 259.68C344.83 259.513 348.541 259.93 349.414 259.874C354.592 259.485 357.375 253.543 357.721 249.142C357.777 248.378 363.246 246.74 363.855 246.379C368.314 243.741 370.142 238.298 374.42 235.493C370.142 232.689 368.314 227.26 363.855 224.608C363.246 224.247 357.791 222.609 357.721 221.845C357.375 217.43 354.606 211.487 349.414 211.098C348.541 211.043 344.817 211.459 344.761 211.293C343.972 209.21 342.006 207.225 339.887 206.447C334.681 204.545 331.413 205.906 328.422 208.835C329.516 206.489 330.001 203.865 329.627 201.227C329.225 198.394 327.965 195.645 325.999 193.854C323.728 186.87 324.324 177.707 329.682 172.625C334.252 168.293 343.653 166.793 346.409 174.374C347.378 177.026 347.641 180.775 344.747 182.524C342.795 183.843 340.732 184.107 338.53 183.302L337.326 180.539C337.422 180.483 337.533 180.47 337.63 180.4C338.779 179.525 339.264 179.151 339.582 177.776C339.776 176.915 339.181 175.971 338.406 175.638C335.124 174.235 332.756 177.11 331.967 179.956C330.956 183.607 335.47 186.454 338.212 187.328C346.63 190.008 353.263 180.067 349.22 172.875C348.749 172.042 348.167 171.347 347.558 170.667C350.992 171.681 354.26 171.611 357.998 168.779C360.435 166.932 360.699 164.253 359.812 161.906C362.249 162.781 365.669 161.851 367.608 160.629C371.457 158.185 372.828 154.728 371.499 150.729C379.751 147.911 378.754 136.428 381.87 129.375C374.227 128.556 364.797 121.961 358.234 127.723C355.464 124.557 351.767 124.016 347.738 126.14C345.703 127.209 343.21 129.708 342.74 132.263C341.147 130.319 338.696 129.195 335.885 130.389C331.565 132.207 329.876 135.026 329.045 138.497C328.741 137.65 328.45 136.789 327.965 135.97C323.784 128.861 311.862 129.653 309.979 138.303C309.355 141.135 309.563 146.453 313.233 147.411C316.085 148.161 319.74 147.536 320.17 143.981C320.267 143.134 319.754 142.149 318.91 141.885C317.566 141.468 316.985 141.704 315.67 142.26C315.545 142.301 315.476 142.385 315.379 142.44L313.593 140.024C313.994 137.72 315.254 136.053 317.373 135.026C320.322 133.388 323.424 135.484 325.237 137.65C330.416 143.843 324.407 151.257 318.383 153.062C311.308 155.172 303.097 151.118 298.209 145.648C297.641 143.051 295.897 140.58 293.654 138.816C291.563 137.164 289.043 136.276 286.481 136.04C290.496 134.901 293.307 132.749 294.277 127.279C294.664 125.057 293.944 122.35 292.532 120.614C292.421 120.475 294.637 117.462 295.024 116.671C297.281 111.978 293.529 106.577 289.901 104.092C289.278 103.661 290.593 98.0936 290.58 97.3855C290.524 92.1927 286.744 87.8886 286.453 82.7791C281.898 85.0839 276.29 83.9593 271.776 86.514C271.153 86.8611 267.013 90.7904 266.32 90.4572C262.346 88.555 255.825 87.9858 252.889 92.3038C252.405 93.0258 250.909 96.4691 250.729 96.4413C248.528 96.0804 245.828 96.8023 244.111 98.2602C239.874 101.828 239.417 105.341 240.441 109.409C238.973 107.299 236.938 105.563 234.473 104.564C231.829 103.495 228.81 103.231 226.29 104.022C219.118 102.509 211.502 97.3994 209.799 90.2073C208.331 84.0704 211.737 75.1566 219.671 76.5589C222.455 77.0449 225.805 78.6971 225.875 82.071C226.041 84.4314 225.238 86.3474 223.438 87.8608L220.461 87.5137C220.461 87.4026 220.502 87.3054 220.488 87.1805C220.308 85.7643 220.225 85.1395 219.201 84.1815C218.55 83.5844 217.442 83.6261 216.764 84.1398C213.911 86.2919 215.213 89.7769 217.276 91.8873C219.934 94.5947 224.642 92.1094 226.775 90.1517C233.31 84.1953 228.021 73.4488 219.796 73.3655C218.841 73.3655 217.954 73.5183 217.068 73.6988C219.658 71.2273 221.236 68.3533 220.654 63.702C220.267 60.6613 218.093 59.0924 215.614 58.6898C217.594 57.0098 218.494 53.5942 218.397 51.2894C218.217 46.7214 215.905 43.8057 211.793 42.9727C213.482 34.3921 203.069 29.5048 198.542 23.2708C194.014 29.5048 183.601 34.3921 185.29 42.9727C181.178 43.8057 178.852 46.7353 178.686 51.2894C178.603 53.5942 179.503 57.0098 181.483 58.6898C179.004 59.0924 176.816 60.6613 176.442 63.702C175.861 68.3533 177.439 71.2273 180.029 73.6988C179.143 73.5322 178.256 73.3655 177.301 73.3655C169.076 73.4488 163.787 84.1815 170.322 90.1517C172.455 92.0955 177.162 94.5808 179.821 91.8873C181.898 89.7769 183.186 86.2919 180.333 84.1398C179.655 83.6261 178.533 83.5844 177.896 84.1815C176.858 85.1395 176.789 85.7643 176.609 87.1805C176.595 87.3054 176.636 87.4026 176.636 87.5137L173.645 87.8608C171.859 86.3613 171.042 84.4314 171.208 82.071C171.278 78.6832 174.642 77.0449 177.412 76.5589C185.346 75.1566 188.752 84.0843 187.284 90.2073C185.567 97.3994 177.966 102.509 170.793 104.022C168.273 103.217 165.254 103.495 162.61 104.564C160.131 105.563 158.11 107.299 156.642 109.409C157.667 105.341 157.21 101.828 152.973 98.2602C151.256 96.8162 148.555 96.0804 146.354 96.4413C146.174 96.4691 144.678 93.0258 144.194 92.3038C141.272 87.9997 134.737 88.555 130.763 90.4572C130.07 90.7904 125.93 86.8611 125.307 86.514C120.793 83.9732 115.185 85.0978 110.63 82.7791C110.353 87.8886 106.573 92.1927 106.517 97.3855C106.517 98.0936 107.833 103.661 107.196 104.092C103.568 106.591 99.8156 111.978 102.073 116.671C102.46 117.462 104.676 120.475 104.565 120.614C103.153 122.35 102.433 125.057 102.82 127.279C103.776 132.749 106.587 134.901 110.616 136.04C108.054 136.262 105.548 137.164 103.443 138.803C101.2 140.566 99.4556 143.051 98.8879 145.634C93.9862 151.104 85.7752 155.158 78.6996 153.048C72.6764 151.257 66.6808 143.829 71.8456 137.636C73.6595 135.47 76.7611 133.374 79.7104 135.012C81.829 136.053 83.089 137.706 83.4905 140.024L81.7043 142.44C81.6074 142.385 81.552 142.301 81.4274 142.26C80.112 141.704 79.5304 141.454 78.1873 141.885C77.3427 142.149 76.8165 143.134 76.9273 143.981C77.3565 147.536 81.0259 148.147 83.8783 147.411C87.5476 146.453 87.7414 141.121 87.1322 138.303C85.2491 129.653 73.3272 128.861 69.1455 135.97C68.6609 136.803 68.3563 137.65 68.0655 138.511C67.2209 135.026 65.5316 132.221 61.2253 130.403C58.4144 129.222 55.9636 130.319 54.3712 132.277C53.9005 129.722 51.4081 127.223 49.3726 126.154C45.3433 124.03 41.6601 124.571 38.877 127.737C32.3137 121.989 22.898 128.584 15.2409 129.389C18.3564 136.442 17.3733 147.925 25.6258 150.743C24.2827 154.728 25.6535 158.213 29.5167 160.643C31.4552 161.864 34.8615 162.795 37.2985 161.92C36.4123 164.266 36.6754 166.96 39.1124 168.807C42.8371 171.639 46.1187 171.708 49.5388 170.695C48.9434 171.375 48.3618 172.069 47.8911 172.903C43.8479 180.095 50.4804 190.05 58.8991 187.356C61.6545 186.481 66.1547 183.635 65.1439 179.984C64.3546 177.123 61.9869 174.263 58.7052 175.666C57.9298 175.999 57.3344 176.943 57.5283 177.804C57.8329 179.178 58.3314 179.553 59.4806 180.428C59.5776 180.497 59.6883 180.511 59.7853 180.567L58.5945 183.33C56.4067 184.135 54.3297 183.871 52.3773 182.552C49.4973 180.803 49.7465 177.068 50.7158 174.402C53.4712 166.807 62.8869 168.321 67.4424 172.653C72.801 177.734 73.4103 186.898 71.1256 193.882C69.1732 195.673 67.8993 198.422 67.4978 201.254C67.1239 203.892 67.6086 206.53 68.6886 208.863C65.6977 205.947 62.4299 204.587 57.2236 206.475C55.119 207.252 53.1389 209.224 52.3497 211.321C52.2804 211.487 48.5695 211.071 47.6972 211.126C42.5186 211.515 39.7354 217.457 39.3893 221.859C39.3339 222.622 33.8645 224.261 33.2553 224.622C28.7967 227.274 26.9689 232.702 22.6903 235.507C26.9551 238.312 28.7967 243.741 33.2414 246.393C33.8507 246.753 39.3201 248.392 39.3754 249.155C39.7216 253.557 42.5048 259.499 47.6834 259.902C48.5557 259.958 52.2804 259.541 52.3358 259.708C53.1251 261.804 55.1051 263.776 57.2098 264.553C62.4161 266.455 65.6839 265.095 68.6747 262.165C67.5809 264.498 67.1101 267.136 67.4839 269.774C67.8855 272.606 69.1594 275.355 71.1117 277.146C73.3826 284.13 72.7733 293.294 67.4285 298.376C62.8592 302.707 53.4574 304.207 50.7019 296.626C49.7327 293.974 49.4834 290.225 52.3635 288.476C54.3159 287.157 56.379 286.893 58.5806 287.698L59.7714 290.461C59.6745 290.517 59.5776 290.531 59.4668 290.6C58.3314 291.461 57.8329 291.85 57.5144 293.224C57.3206 294.085 57.916 295.029 58.6914 295.363C61.973 296.765 64.3408 293.891 65.13 291.045C66.1408 287.393 61.6407 284.547 58.8852 283.658C50.4665 280.965 43.834 290.92 47.8772 298.112C48.348 298.945 48.9296 299.639 49.525 300.319C46.091 299.306 42.8232 299.375 39.0985 302.208C36.6615 304.054 36.3984 306.734 37.2846 309.094C34.8476 308.22 31.4414 309.15 29.5028 310.372C25.6535 312.815 24.2827 316.286 25.612 320.271C17.3594 323.09 18.3425 334.572 15.2271 341.625C22.8703 342.445 32.2999 349.04 38.8631 343.278C41.6324 346.429 45.3295 346.985 49.3588 344.86C51.3942 343.791 53.8866 341.292 54.3574 338.737C55.9498 340.681 58.4006 341.792 61.2114 340.612C65.5316 338.793 67.2209 335.974 68.0516 332.503C68.3424 333.364 68.647 334.211 69.1317 335.03C73.3133 342.139 85.2352 341.348 87.1183 332.712C87.7414 329.879 87.5337 324.548 83.8644 323.603C81.012 322.854 77.3427 323.478 76.9134 327.033C76.8165 327.88 77.3288 328.866 78.1735 329.129C79.5166 329.546 80.0981 329.31 81.4136 328.755C81.5243 328.699 81.5936 328.616 81.6905 328.56L83.4767 330.976C83.0752 333.281 81.8151 334.947 79.6966 335.974C76.7334 337.613 73.6456 335.516 71.8317 333.35C66.6531 327.158 72.6625 319.744 78.6858 317.952C85.7475 315.842 93.9724 319.896 98.8602 325.367C99.4279 327.949 101.159 330.435 103.416 332.198C105.507 333.85 108.027 334.739 110.588 334.961C106.573 336.099 103.762 338.265 102.793 343.722C102.405 345.943 103.125 348.651 104.537 350.386C104.662 350.525 102.433 353.552 102.045 354.33C99.7879 359.022 103.54 364.423 107.168 366.909C107.805 367.339 106.49 372.907 106.49 373.615C106.545 378.808 110.325 383.112 110.602 388.221C115.158 385.916 120.765 387.041 125.279 384.486C125.903 384.139 130.043 380.21 130.735 380.543C134.709 382.445 141.231 383.015 144.166 378.697C144.651 377.975 146.146 374.531 146.326 374.559C148.528 374.92 151.228 374.198 152.945 372.74C157.182 369.172 157.639 365.659 156.614 361.591C158.082 363.715 160.117 365.437 162.582 366.437C165.227 367.506 168.245 367.783 170.765 366.978C177.938 368.505 185.54 373.601 187.257 380.793C188.71 386.93 185.304 395.844 177.384 394.441C174.601 393.955 171.25 392.303 171.181 388.929C171.015 386.583 171.818 384.653 173.618 383.153L176.595 383.501C176.595 383.612 176.553 383.709 176.567 383.834C176.747 385.25 176.83 385.875 177.855 386.833C178.492 387.43 179.613 387.388 180.292 386.874C183.144 384.722 181.843 381.237 179.779 379.127C177.121 376.42 172.413 378.919 170.281 380.863C163.759 386.819 169.035 397.565 177.259 397.649C178.215 397.649 179.101 397.496 180.001 397.316C177.412 399.787 175.833 402.661 176.415 407.312C176.802 410.353 178.976 411.922 181.455 412.325C179.475 414.005 178.575 417.434 178.672 419.725C178.852 424.293 181.164 427.209 185.277 428.055C183.587 436.622 194 441.509 198.528 447.744C203.056 441.509 213.468 436.622 211.779 428.042C215.891 427.209 218.217 424.279 218.397 419.725C218.481 417.42 217.581 414.005 215.6 412.325C218.079 411.922 220.267 410.339 220.641 407.312C221.222 402.661 219.644 399.773 217.054 397.316C217.941 397.482 218.827 397.649 219.782 397.635C228.007 397.552 233.296 386.819 226.761 380.849C224.628 378.891 219.921 376.42 217.276 379.113C215.199 381.224 213.911 384.709 216.764 386.861C217.442 387.374 218.564 387.416 219.201 386.819C220.239 385.861 220.322 385.236 220.502 383.82C220.516 383.695 220.474 383.598 220.474 383.487L223.451 383.14C225.252 384.639 226.055 386.569 225.888 388.915C225.819 392.303 222.455 393.942 219.685 394.428C211.751 395.83 208.345 386.902 209.813 380.779C211.53 373.587 219.131 368.478 226.304 366.964C228.824 367.77 231.842 367.506 234.487 366.423C236.952 365.437 238.987 363.688 240.469 361.577C239.444 365.645 239.901 369.158 244.138 372.726C245.855 374.17 248.555 374.906 250.757 374.545C250.937 374.517 252.432 377.961 252.917 378.683C255.839 382.987 262.374 382.431 266.334 380.529C267.027 380.196 271.181 384.125 271.79 384.472C276.304 387.027 281.912 385.889 286.467 388.207C286.744 383.098 290.524 378.78 290.58 373.587C290.58 372.879 289.278 367.311 289.901 366.881C293.543 364.382 297.281 358.995 295.024 354.288C294.637 353.496 292.421 350.484 292.532 350.345C293.944 348.623 294.664 345.916 294.277 343.68C293.321 338.21 290.51 336.058 286.481 334.919C289.056 334.697 291.549 333.808 293.654 332.156C295.897 330.393 297.641 327.908 298.209 325.325C303.111 319.855 311.322 315.8 318.397 317.911C324.421 319.716 330.416 327.13 325.251 333.322C323.437 335.488 320.336 337.585 317.373 335.961C315.254 334.933 313.994 333.267 313.593 330.948L315.379 328.532C315.476 328.588 315.531 328.671 315.656 328.727C316.971 329.282 317.553 329.532 318.896 329.102C319.727 328.838 320.253 327.852 320.156 327.005C319.727 323.451 316.057 322.84 313.205 323.576C309.549 324.52 309.342 329.865 309.951 332.684C311.834 341.334 323.742 342.125 327.938 335.016C328.422 334.183 328.727 333.336 329.018 332.476C329.862 335.961 331.552 338.765 335.872 340.598C338.682 341.778 341.133 340.681 342.726 338.724C343.196 341.278 345.703 343.777 347.724 344.846C351.754 346.971 355.437 346.429 358.22 343.264C364.783 349.012 374.199 342.417 381.856 341.598C378.741 334.544 379.724 323.062 371.471 320.243V320.285ZM356.821 130.458C357.348 131.499 358.621 131.569 359.355 130.722C363.745 125.626 371.637 129.625 378.09 131.527C376.511 138.081 376.013 146.953 369.422 148.216C368.314 148.424 367.746 149.549 368.369 150.549C371.914 156.089 364.714 163.128 359.134 160.698C358.968 160.407 358.843 160.06 358.635 159.796C362.582 158.449 364.742 155.242 364.617 150.465C364.479 145.759 364.894 147.244 367.913 143.523C369.602 141.441 370.807 138.15 371.36 135.429C368.743 134.554 365.296 133.957 362.651 134.373C357.929 135.137 359.009 136.248 355.008 133.763C350.951 131.249 347.101 131.541 343.972 134.29C343.833 133.971 343.598 133.707 343.432 133.415C344.124 127.348 353.803 124.599 356.821 130.458ZM186.952 45.4996C188.115 45.5552 188.821 44.4999 188.447 43.4308C186.246 37.0718 193.654 32.2262 198.514 27.561C203.388 32.2262 210.782 37.0718 208.58 43.4308C208.206 44.4999 208.899 45.5552 210.076 45.4996C216.639 45.1942 219.104 54.9549 214.216 58.6065C213.87 58.6065 213.523 58.537 213.177 58.5787C213.98 54.4828 212.305 50.9978 208.11 48.7347C203.969 46.4854 205.479 46.8881 203.762 42.4034C202.806 39.9042 200.577 37.2107 198.5 35.364C196.423 37.2107 194.194 39.9042 193.238 42.4034C191.521 46.8881 193.031 46.4993 188.89 48.7347C184.695 50.9978 183.02 54.4967 183.823 58.5787C183.476 58.537 183.13 58.6065 182.784 58.6065C177.896 54.9688 180.361 45.1942 186.924 45.4996H186.952ZM37.8939 160.698C32.2998 163.128 25.0996 156.102 28.6444 150.549C29.2813 149.563 28.7136 148.424 27.592 148.216C21.0011 146.953 20.5164 138.094 18.9241 131.541C25.3904 129.639 33.283 125.64 37.6723 130.736C38.4062 131.597 39.6801 131.527 40.2062 130.472C43.2248 124.627 52.8897 127.348 53.5958 133.429C53.4297 133.735 53.1943 133.999 53.0558 134.318C49.9265 131.569 46.0772 131.291 42.0201 133.79C38.0185 136.262 39.0985 135.151 34.3768 134.401C31.746 133.985 28.2982 134.582 25.6674 135.456C26.2212 138.178 27.4397 141.468 29.1151 143.551C32.1198 147.272 32.5352 145.772 32.4106 150.493C32.2722 155.269 34.4461 158.477 38.3785 159.823C38.1708 160.101 38.06 160.434 37.88 160.726L37.8939 160.698ZM40.2201 340.542C39.6939 339.501 38.42 339.418 37.6862 340.279C33.2968 345.374 25.4043 341.362 18.9518 339.473C20.5441 332.906 21.0288 324.048 27.6197 322.784C28.7274 322.576 29.2951 321.437 28.6582 320.452C25.1135 314.898 32.3137 307.872 37.9077 310.302C38.0739 310.594 38.1985 310.927 38.4062 311.205C34.4599 312.551 32.2998 315.759 32.4383 320.535C32.5629 325.256 32.1475 323.756 29.1428 327.477C27.4674 329.56 26.2489 332.85 25.695 335.572C28.3259 336.446 31.7598 337.044 34.4045 336.627C39.1262 335.877 38.0323 334.766 42.0478 337.238C46.1049 339.737 49.9542 339.459 53.0835 336.71C53.222 337.03 53.4574 337.293 53.6235 337.599C52.9174 343.666 43.2525 346.402 40.2339 340.556L40.2201 340.542ZM210.09 425.487C208.926 425.417 208.22 426.487 208.594 427.556C210.796 433.915 203.388 438.774 198.528 443.425C193.654 438.774 186.246 433.915 188.461 427.556C188.835 426.487 188.143 425.431 186.966 425.487C180.403 425.792 177.924 416.032 182.826 412.38C183.172 412.38 183.518 412.449 183.85 412.408C183.033 416.504 184.723 419.989 188.918 422.266C193.058 424.515 191.549 424.112 193.266 428.597C194.221 431.11 196.451 433.804 198.528 435.636C200.605 433.804 202.834 431.096 203.789 428.597C205.493 424.126 203.997 424.515 208.137 422.266C212.333 420.003 214.008 416.504 213.205 412.422C213.551 412.463 213.897 412.394 214.244 412.394C219.131 416.032 216.667 425.806 210.103 425.501L210.09 425.487ZM341.853 334.044C337.007 340.223 333.13 339.862 330.208 332.961C329.987 332.087 329.765 331.212 329.544 330.351C330.748 322.951 325.487 315.62 317.29 314.87C311.779 314.384 302.529 316.634 298.14 321.715C297.766 320.327 297.004 318.98 295.661 317.786C293.141 315.55 289.236 313.884 285.844 314.926C282.867 315.856 280.513 319.438 281.967 322.52C282.479 323.631 283.518 324.367 284.778 324.228C284.944 324.2 285.124 324.187 285.29 324.159C287.478 323.909 288.018 321.812 287.27 320.313C288.184 320.216 291.272 321.299 291.632 321.576C292.56 322.354 293.557 323.298 293.293 324.631C292.781 327.324 290.026 329.574 287.603 330.587C280.762 333.434 273.202 327.158 272.385 320.243C272.787 319.563 273.133 318.827 273.396 317.994C278.035 303.027 252.986 292.863 243.986 303.846C243.751 304.138 244.069 304.679 244.443 304.471C251.283 300.778 266.265 300.486 269.865 309.469C271.541 313.662 268.91 324.298 262.111 320.729C256.877 317.98 260.768 312.926 264.257 310.969C266.888 309.497 264.119 305.707 261.502 307.178C256.808 309.802 251.809 318.563 257.666 322.84C261.779 325.839 267.345 325.533 270.793 322.271C270.973 326.491 274.656 330.879 277.841 332.892C279.461 333.92 281.289 334.53 283.158 334.822C289.084 337.516 297.891 344.638 289.389 349.29C288.267 349.9 288.184 351.247 289.32 351.928C295.897 355.843 292.449 363.063 286.869 365.257C285.996 365.604 285.872 366.548 286.273 367.284C289.68 373.434 286.024 378.822 284.238 384.389C278.464 383.084 272.177 383.709 268.508 377.572C268.065 376.85 267.193 376.489 266.445 377.072C261.765 380.821 253.803 380.21 253.72 372.532C253.706 371.227 252.502 370.602 251.408 371.268C243.141 376.322 241.397 365.118 242.02 358.62C242.712 356.856 243.086 354.968 243.017 353.024C242.878 349.248 240.926 343.861 237.367 341.584C241.923 340.223 244.969 335.544 244.429 330.49C243.654 323.256 233.601 323.229 228.976 325.978C226.415 327.505 228.298 331.809 230.887 330.268C234.321 328.227 240.635 327.366 240.386 333.295C240.067 340.973 229.558 337.946 226.788 334.392C220.821 326.783 228.575 313.912 235.18 309.83C235.54 309.608 235.235 309.053 234.861 309.122C220.862 311.427 217.124 338.279 232.355 341.723C233.199 341.903 234.016 341.986 234.806 341.959C240.372 346.124 242.006 355.843 236.121 360.355C234.03 361.952 230.707 363.202 228.132 362.313C226.844 361.869 226.525 360.536 226.332 359.342C226.262 358.884 226.858 355.662 227.412 354.927C228.312 356.329 230.402 356.912 231.718 355.135C231.815 354.996 231.926 354.857 232.022 354.718C232.784 353.691 232.659 352.427 231.953 351.414C230.001 348.609 225.736 348.859 223.451 350.983C220.848 353.399 220.336 357.634 221.014 360.938C221.374 362.702 222.164 364.035 223.175 365.048C216.584 366.34 210.02 373.226 207.68 378.266C204.219 385.75 207.916 393.997 214.922 396.649C215.559 397.274 216.21 397.899 216.847 398.523C221.347 404.508 219.713 408.062 211.959 409.173C210.81 408.367 209.286 409.562 209.84 410.881C212.25 416.587 208.276 419.544 203.028 420.016C202.363 420.072 201.823 420.738 201.768 421.363C201.435 424.779 200.535 428.153 198.514 430.846C196.492 428.153 195.592 424.779 195.26 421.363C195.205 420.725 194.665 420.072 194 420.016C188.752 419.544 184.792 416.573 187.187 410.867C187.741 409.548 186.232 408.354 185.069 409.159C177.315 408.048 175.681 404.494 180.181 398.51C180.818 397.885 181.469 397.26 182.106 396.635C189.098 393.983 192.795 385.736 189.347 378.252C187.007 373.212 180.444 366.312 173.853 365.034C174.878 364.021 175.653 362.688 176.013 360.925C176.678 357.62 176.179 353.385 173.576 350.97C171.278 348.845 167.013 348.595 165.074 351.4C164.382 352.4 164.257 353.677 165.005 354.704C165.102 354.843 165.213 354.982 165.324 355.107C166.639 356.884 168.716 356.301 169.63 354.899C170.17 355.649 170.779 358.87 170.71 359.314C170.516 360.508 170.198 361.841 168.91 362.285C166.334 363.174 162.997 361.924 160.92 360.328C155.036 355.815 156.683 346.096 162.25 341.945C163.039 341.945 163.856 341.889 164.687 341.695C179.932 338.251 176.193 311.413 162.194 309.094C161.82 309.039 161.516 309.594 161.876 309.802C168.481 313.884 176.235 326.769 170.267 334.378C167.484 337.932 156.988 340.959 156.67 333.267C156.42 327.352 162.748 328.199 166.168 330.254C168.758 331.809 170.641 327.491 168.065 325.964C163.441 323.201 153.388 323.242 152.626 330.462C152.086 335.53 155.133 340.209 159.688 341.57C156.13 343.833 154.177 349.22 154.039 353.011C153.969 354.927 154.343 356.829 155.036 358.592C155.673 365.076 153.928 376.295 145.662 371.241C144.568 370.574 143.363 371.185 143.349 372.504C143.252 380.168 135.29 380.793 130.61 377.044C129.876 376.461 128.99 376.822 128.561 377.544C124.878 383.695 118.536 382.959 112.748 384.264C110.976 378.627 107.334 373.49 110.782 367.256C111.197 366.506 111.059 365.562 110.187 365.215C104.607 363.035 101.159 355.801 107.75 351.886C108.871 351.219 108.802 349.859 107.68 349.248C99.1787 344.597 107.985 337.474 113.911 334.78C115.781 334.503 117.608 333.878 119.242 332.85C122.427 330.837 126.11 326.45 126.29 322.215C129.738 325.492 135.304 325.797 139.417 322.798C145.274 318.522 140.275 309.761 135.581 307.137C132.978 305.679 130.195 309.469 132.826 310.941C136.315 312.899 140.206 317.953 134.958 320.702C128.173 324.27 125.529 313.634 127.204 309.441C130.804 300.458 145.786 300.75 152.626 304.443C153 304.651 153.319 304.096 153.083 303.818C144.083 292.822 119.035 302.985 123.673 317.952C123.936 318.772 124.282 319.521 124.684 320.202C123.867 327.116 116.293 333.392 109.467 330.546C107.044 329.532 104.302 327.269 103.776 324.589C103.513 323.242 104.51 322.298 105.437 321.535C105.797 321.243 108.871 320.16 109.799 320.257C109.051 321.743 109.577 323.853 111.765 324.103C111.931 324.117 112.098 324.145 112.278 324.159C113.538 324.298 114.576 323.562 115.088 322.451C116.528 319.355 114.188 315.773 111.211 314.856C107.819 313.815 103.914 315.481 101.394 317.716C100.051 318.911 99.2895 320.257 98.9294 321.646C94.5262 316.564 85.2906 314.315 79.7658 314.801C71.5687 315.551 66.2931 322.881 67.5116 330.282C67.2901 331.157 67.0685 332.017 66.8608 332.892C63.9392 339.793 60.0622 340.14 55.2159 333.975C55.3405 332.573 53.5405 331.851 52.682 332.989C48.9573 337.932 44.4156 335.961 41.3832 331.642C40.9955 331.101 40.1647 330.962 39.5831 331.226C36.4677 332.642 33.103 333.545 29.7659 333.142C31.0814 330.046 33.546 327.574 36.3292 325.575C36.8554 325.2 37.1461 324.423 36.8692 323.812C34.6538 319.008 35.2353 314.093 41.3555 313.315C42.7678 313.149 43.0448 311.219 41.7709 310.622C38.8493 303.332 41.1063 300.139 48.528 301.041C49.3865 301.291 50.245 301.527 51.1035 301.777C56.8913 306.526 65.8639 305.623 70.5994 298.875C73.7841 294.335 76.4565 285.171 74.2687 278.812C75.6534 279.187 77.1904 279.201 78.8935 278.632C82.092 277.563 85.4844 275.008 86.2737 271.537C86.966 268.483 85.0414 264.65 81.649 264.373C80.4305 264.262 79.2673 264.803 78.7689 265.956C78.6996 266.108 78.6304 266.275 78.5612 266.428C77.6888 268.455 79.2258 269.968 80.9012 270.065C80.5274 270.912 78.0489 273.05 77.6335 273.217C76.498 273.647 75.1826 274.036 74.158 273.134C72.0948 271.343 71.5133 267.816 71.8456 265.22C72.801 257.861 82.009 254.418 88.3922 257.167C88.7799 257.861 89.2369 258.527 89.8184 259.166C100.425 270.676 121.721 254.015 116.736 240.7C116.598 240.353 115.975 240.353 115.961 240.783C115.739 248.572 108.497 261.735 98.9433 260.36C94.4847 259.721 86.6199 252.113 93.1001 247.989C98.0848 244.824 100.508 250.724 100.453 254.723C100.411 257.75 105.063 257.222 105.105 254.237C105.188 248.836 100.106 240.131 93.4878 243.074C88.8353 245.143 86.3291 250.127 87.423 254.765C83.6844 252.807 78.0489 253.807 74.7257 255.57C73.0226 256.473 71.5687 257.75 70.3917 259.222C65.1023 263.012 54.5374 267.108 54.7728 257.403C54.8005 256.125 53.6651 255.39 52.5297 256.014C45.8556 259.763 41.3416 253.168 42.2417 247.226C42.3801 246.295 41.6324 245.712 40.7878 245.698C33.643 245.573 31.0537 239.742 27.0382 235.382C31.0537 231.022 33.6568 225.247 40.7878 225.122C41.6324 225.108 42.394 224.525 42.2417 223.58C41.3416 217.638 45.8556 211.043 52.5297 214.792C53.6651 215.43 54.8005 214.695 54.7728 213.417C54.5374 203.698 65.0885 207.794 70.3779 211.598C71.5548 213.084 73.0087 214.347 74.7118 215.264C78.035 217.027 83.6705 218.027 87.4091 216.069C86.3014 220.693 88.8215 225.677 93.4739 227.76C100.093 230.703 105.16 221.998 105.091 216.597C105.05 213.611 100.397 213.084 100.425 216.111C100.48 220.109 98.0571 226.024 93.0585 222.845C86.5783 218.735 94.457 211.112 98.9018 210.474C108.456 209.113 115.698 222.275 115.919 230.051C115.919 230.467 116.556 230.481 116.695 230.134C121.693 216.833 100.383 200.158 89.7907 211.668C89.2092 212.306 88.7384 212.973 88.3645 213.667C81.9813 216.416 72.7733 212.987 71.8179 205.614C71.4856 203.004 72.0671 199.491 74.1164 197.7C75.1411 196.798 76.4565 197.186 77.5781 197.631C78.0073 197.797 80.4858 199.935 80.8597 200.782C79.1981 200.88 77.6473 202.393 78.5196 204.42C78.5889 204.573 78.6581 204.739 78.7273 204.892C79.2258 206.058 80.3889 206.586 81.6074 206.489C84.9998 206.197 86.9245 202.379 86.2322 199.324C85.4429 195.867 82.0505 193.299 78.8519 192.23C77.1488 191.66 75.6119 191.674 74.2272 192.049C76.415 185.69 73.7426 176.526 70.5579 171.986C65.8223 165.238 56.8498 164.336 51.0619 169.084C50.2034 169.334 49.345 169.57 48.4865 169.82C41.0647 170.723 38.8216 167.543 41.7294 160.24C43.0032 159.643 42.7263 157.727 41.314 157.546C35.1938 156.783 34.6122 151.854 36.8277 147.064C37.1046 146.453 36.8277 145.661 36.2877 145.3C33.5045 143.301 31.0398 140.83 29.7244 137.733C33.0614 137.331 36.4261 138.233 39.5416 139.649C40.1231 139.913 40.9539 139.774 41.3416 139.233C44.3879 134.915 48.9157 132.957 52.6404 137.886C53.4989 139.025 55.299 138.317 55.1744 136.9C60.0206 130.722 63.8977 131.083 66.8193 137.983C67.0408 138.858 67.2485 139.719 67.4701 140.594C66.2654 147.994 71.5271 155.325 79.7243 156.075C85.2352 156.575 94.4847 154.311 98.8879 149.23C99.2479 150.618 100.023 151.965 101.353 153.159C103.873 155.394 107.777 157.06 111.17 156.019C114.161 155.089 116.501 151.507 115.047 148.424C114.535 147.314 113.496 146.578 112.236 146.717C112.07 146.731 111.89 146.758 111.724 146.786C109.536 147.036 108.996 149.146 109.744 150.632C108.83 150.729 105.742 149.646 105.396 149.355C104.454 148.591 103.457 147.647 103.72 146.3C104.247 143.607 106.988 141.357 109.411 140.344C116.251 137.497 123.812 143.773 124.629 150.688C124.227 151.368 123.867 152.104 123.618 152.937C118.979 167.904 144.028 178.068 153.028 167.071C153.263 166.78 152.945 166.238 152.571 166.446C145.731 170.14 130.749 170.431 127.149 161.448C125.473 157.269 128.118 146.619 134.903 150.188C140.137 152.937 136.246 157.991 132.77 159.948C130.14 161.42 132.909 165.211 135.526 163.753C140.22 161.129 145.218 152.368 139.361 148.091C135.249 145.092 129.683 145.398 126.235 148.674C126.055 144.453 122.372 140.066 119.187 138.053C117.553 137.025 115.725 136.401 113.856 136.123C107.93 133.429 99.1233 126.307 107.625 121.655C108.747 121.044 108.816 119.684 107.694 119.017C101.117 115.102 104.565 107.882 110.145 105.688C111.017 105.341 111.156 104.397 110.741 103.661C107.279 97.3855 111.031 92.2344 112.79 86.5557C118.564 87.8469 124.85 87.236 128.52 93.359C128.963 94.081 129.835 94.442 130.569 93.8589C135.249 90.1101 143.211 90.7349 143.308 98.399C143.321 99.7042 144.526 100.329 145.62 99.6625C153.886 94.5947 155.631 105.813 154.994 112.311C154.302 114.074 153.928 115.977 153.997 117.907C154.136 121.683 156.088 127.07 159.647 129.347C155.091 130.694 152.045 135.387 152.585 140.455C153.346 147.675 163.413 147.73 168.024 144.953C170.585 143.426 168.716 139.108 166.113 140.663C162.693 142.704 156.365 143.551 156.614 137.636C156.933 129.958 167.442 132.985 170.211 136.526C176.166 144.134 168.425 157.005 161.82 161.101C161.46 161.323 161.765 161.878 162.139 161.809C176.124 159.49 179.876 132.652 164.631 129.208C163.787 129.014 162.984 128.959 162.18 128.972C156.614 124.807 154.98 115.102 160.865 110.59C162.942 108.993 166.265 107.743 168.855 108.632C170.142 109.076 170.461 110.409 170.655 111.603C170.724 112.047 170.115 115.269 169.575 116.018C168.661 114.616 166.57 114.033 165.268 115.81C165.171 115.949 165.061 116.088 164.964 116.227C164.202 117.254 164.341 118.517 165.033 119.517C166.985 122.322 171.25 122.072 173.535 119.948C176.138 117.532 176.65 113.297 175.972 109.992C175.612 108.229 174.836 106.896 173.812 105.883C180.403 104.605 186.966 97.7048 189.306 92.6648C192.768 85.1811 189.057 76.9338 182.064 74.2819C181.427 73.6571 180.776 73.0323 180.139 72.4075C175.639 66.4234 177.273 62.869 185.027 61.7582C186.19 62.5635 187.7 61.3694 187.146 60.0504C184.75 54.344 188.71 51.3866 193.958 50.9145C194.623 50.859 195.163 50.2064 195.218 49.5677C195.551 46.1522 196.451 42.7783 198.472 40.0847C200.48 42.7783 201.394 46.1522 201.726 49.5677C201.782 50.2064 202.322 50.859 202.986 50.9145C208.234 51.3866 212.194 54.3578 209.799 60.0504C209.245 61.3694 210.754 62.5635 211.917 61.7582C219.671 62.869 221.305 66.4234 216.805 72.4075C216.168 73.0323 215.517 73.6571 214.88 74.2819C207.888 76.9338 204.177 85.1811 207.639 92.6648C209.965 97.7048 216.542 104.591 223.133 105.883C222.108 106.896 221.333 108.229 220.973 109.992C220.294 113.297 220.807 117.532 223.41 119.948C225.708 122.072 229.973 122.322 231.912 119.517C232.604 118.517 232.729 117.24 231.981 116.227C231.884 116.088 231.773 115.949 231.676 115.81C230.361 114.033 228.284 114.616 227.37 116.018C226.83 115.269 226.221 112.047 226.29 111.603C226.484 110.409 226.802 109.076 228.09 108.632C230.666 107.743 233.989 108.993 236.08 110.59C241.964 115.102 240.33 124.807 234.764 128.972C233.975 128.972 233.158 129.028 232.327 129.208C217.082 132.666 220.834 159.504 234.82 161.809C235.193 161.864 235.498 161.323 235.138 161.101C228.533 157.019 220.779 144.134 226.733 136.526C229.516 132.971 240.026 129.944 240.33 137.636C240.58 143.551 234.252 142.704 230.832 140.663C228.242 139.108 226.359 143.426 228.921 144.953C233.546 147.716 243.598 147.675 244.374 140.455C244.914 135.387 241.867 130.708 237.312 129.347C240.87 127.084 242.823 121.683 242.961 117.907C243.031 115.977 242.657 114.088 241.964 112.311C241.327 105.813 243.072 94.6086 251.338 99.6625C252.432 100.329 253.637 99.7181 253.651 98.399C253.748 90.7349 261.71 90.1101 266.39 93.8589C267.124 94.442 268.01 94.081 268.439 93.359C272.108 87.236 278.381 87.8469 284.141 86.5557C285.913 92.1927 289.652 97.4271 286.218 103.647C285.816 104.397 285.941 105.341 286.813 105.688C292.38 107.882 295.841 115.102 289.25 119.017C288.129 119.684 288.198 121.031 289.32 121.655C297.821 126.307 289.015 133.429 283.089 136.123C281.219 136.401 279.392 137.025 277.758 138.053C274.573 140.066 270.89 144.453 270.71 148.674C267.262 145.398 261.709 145.092 257.597 148.091C251.74 152.381 256.739 161.129 261.433 163.767C264.036 165.224 266.819 161.434 264.188 159.976C260.699 158.019 256.808 152.951 262.042 150.215C268.827 146.647 271.471 157.283 269.796 161.476C266.21 170.459 251.214 170.167 244.374 166.474C244 166.266 243.681 166.821 243.917 167.099C252.917 178.095 277.965 167.918 273.327 152.965C273.064 152.145 272.718 151.396 272.316 150.715C273.133 143.801 280.693 137.525 287.533 140.371C289.956 141.385 292.698 143.648 293.224 146.328C293.487 147.675 292.49 148.619 291.563 149.369C291.203 149.66 288.115 150.743 287.201 150.646C287.949 149.16 287.423 147.05 285.235 146.8C285.069 146.786 284.889 146.758 284.722 146.744C283.462 146.592 282.424 147.341 281.912 148.438C280.472 151.535 282.812 155.117 285.789 156.033C289.181 157.074 293.086 155.408 295.606 153.173C296.949 151.979 297.697 150.632 298.071 149.244C302.488 154.325 311.709 156.575 317.234 156.089C325.431 155.353 330.707 148.008 329.488 140.608C329.71 139.733 329.931 138.872 330.153 137.997C333.075 131.097 336.966 130.75 341.798 136.914C341.687 138.33 343.473 139.039 344.332 137.9C348.057 132.971 352.584 134.929 355.631 139.247C356.018 139.788 356.849 139.927 357.431 139.663C360.546 138.247 363.897 137.345 367.234 137.747C365.919 140.844 363.468 143.315 360.671 145.314C360.145 145.675 359.854 146.467 360.145 147.078C362.36 151.882 361.779 156.797 355.644 157.574C354.232 157.741 353.955 159.671 355.229 160.268C358.151 167.557 355.894 170.75 348.472 169.848C347.614 169.598 346.741 169.362 345.883 169.112C340.095 164.364 331.122 165.266 326.387 172.014C323.202 176.554 320.53 185.718 322.731 192.077C321.347 191.702 319.81 191.688 318.093 192.257C314.908 193.326 311.502 195.881 310.712 199.352C310.02 202.407 311.945 206.239 315.337 206.517C316.556 206.628 317.719 206.086 318.217 204.934C318.287 204.767 318.356 204.614 318.425 204.448C319.297 202.421 317.76 200.907 316.099 200.81C316.473 199.963 318.951 197.825 319.367 197.658C320.502 197.242 321.817 196.839 322.828 197.742C324.891 199.533 325.473 203.059 325.141 205.67C324.185 213.028 314.977 216.458 308.608 213.709C308.22 213.014 307.749 212.348 307.182 211.709C296.575 200.199 275.279 216.86 280.264 230.176C280.402 230.537 281.025 230.523 281.039 230.106C281.261 222.317 288.516 209.168 298.057 210.529C302.515 211.168 310.38 218.776 303.9 222.886C298.915 226.066 296.492 220.151 296.547 216.152C296.589 213.126 291.937 213.653 291.895 216.652C291.812 222.053 296.894 230.759 303.512 227.815C308.165 225.746 310.685 220.762 309.577 216.125C313.302 218.082 318.937 217.083 322.274 215.305C323.964 214.403 325.417 213.139 326.594 211.654C331.898 207.863 342.449 203.767 342.213 213.473C342.186 214.75 343.307 215.5 344.457 214.861C351.131 211.112 355.645 217.707 354.744 223.65C354.606 224.58 355.368 225.163 356.198 225.177C363.302 225.302 365.96 231.161 369.934 235.521C365.933 239.881 363.315 245.643 356.198 245.754C355.354 245.782 354.592 246.365 354.731 247.295C355.631 253.224 351.117 259.846 344.443 256.084C343.307 255.445 342.172 256.181 342.2 257.458C342.435 267.177 331.884 263.081 326.581 259.291C325.404 257.805 323.95 256.528 322.247 255.626C318.923 253.862 313.288 252.863 309.549 254.82C310.657 250.197 308.137 245.212 303.498 243.144C296.866 240.2 291.812 248.919 291.881 254.307C291.923 257.292 296.589 257.819 296.534 254.793C296.478 250.794 298.915 244.879 303.9 248.059C310.38 252.168 302.501 259.777 298.057 260.416C288.503 261.79 281.261 248.628 281.039 240.839C281.039 240.422 280.402 240.408 280.264 240.755C275.265 254.071 296.575 270.732 307.168 259.222C307.749 258.583 308.22 257.917 308.594 257.222C314.977 254.473 324.185 257.903 325.127 265.275C325.459 267.885 324.891 271.398 322.828 273.189C321.804 274.092 320.488 273.703 319.367 273.273C318.937 273.106 316.459 270.968 316.085 270.121C317.746 270.038 319.297 268.51 318.425 266.483C318.356 266.33 318.287 266.164 318.217 266.011C317.719 264.845 316.556 264.317 315.337 264.414C311.945 264.706 310.02 268.538 310.712 271.579C311.502 275.05 314.894 277.605 318.093 278.674C319.796 279.243 321.333 279.229 322.717 278.854C320.53 285.227 323.202 294.377 326.387 298.917C331.122 305.665 340.095 306.567 345.883 301.819C346.741 301.583 347.6 301.333 348.458 301.083C355.88 300.167 358.123 303.374 355.215 310.663C353.941 311.26 354.218 313.176 355.631 313.357C361.751 314.12 362.332 319.049 360.117 323.839C359.84 324.45 360.131 325.242 360.657 325.617C363.44 327.616 365.905 330.074 367.22 333.184C363.897 333.586 360.519 332.698 357.403 331.268C356.835 331.004 355.991 331.143 355.617 331.684C352.584 336.002 348.043 337.96 344.304 333.031C343.446 331.892 341.646 332.601 341.77 334.017L341.853 334.044ZM359.355 340.279C358.621 339.418 357.361 339.487 356.821 340.528C353.803 346.388 344.138 343.639 343.432 337.571C343.598 337.28 343.833 337.002 343.972 336.683C347.101 339.432 350.951 339.709 355.008 337.21C359.009 334.739 357.929 335.849 362.651 336.599C365.296 337.016 368.73 336.433 371.36 335.544C370.807 332.823 369.602 329.532 367.913 327.449C364.894 323.728 364.479 325.228 364.617 320.507C364.756 315.731 362.582 312.524 358.649 311.191C358.857 310.913 358.968 310.58 359.134 310.288C364.728 307.859 371.928 314.884 368.383 320.438C367.746 321.424 368.328 322.562 369.422 322.77C376.013 324.034 376.497 332.892 378.09 339.445C371.637 341.348 363.731 345.346 359.342 340.265L359.355 340.279Z" fill="#F0DEAB"/>
</g>
</g>
<defs>
<clipPath id="clip0_893_907">
<rect width="395" height="111" fill="white"/>
</clipPath>
<clipPath id="clip1_893_907">
<rect width="427" height="469" fill="white" transform="translate(-15 1)"/>
</clipPath>
</defs>
</svg>
