<svg width="134" height="171" viewBox="0 0 134 171" fill="none" xmlns="http://www.w3.org/2000/svg">
<g opacity="0.5">
<path d="M49.1737 71.5412C48.3248 73.6119 49.3086 75.9921 51.3873 76.841C53.458 77.6899 55.8382 76.6982 56.6871 74.6274C57.536 72.5488 56.5522 70.1766 54.4736 69.3276C52.3949 68.4708 50.0227 69.4625 49.1737 71.5412Z" fill="#F0DEAB"/>
<path d="M46.1271 57.8473C35.8131 33.9823 15.7722 52.4999 38.2568 66.6856C12.7891 56.8397 17.2956 88.0118 39.8832 78.9117C16.4942 88.7179 33.5758 104.736 44.6197 88.4164C30.6165 110.465 64.4067 112.94 56.4015 84.029C64.9462 112.654 85.8836 89.4478 66.0332 78.2532C95.7375 92.3834 88.5177 59.6721 63.5895 68.8992C90.2393 57.3713 73.3244 33.0144 58.2342 58.482C68.7941 35.704 39.0105 31.6101 46.1192 57.8473H46.1271ZM40.4227 67.5028C25.1501 56.1812 38.9867 42.7492 48.0075 63.8056C48.7532 65.5431 49.1896 66.7332 49.6022 67.4235C49.4356 67.5266 49.269 67.6218 49.1103 67.7408C48.7374 66.3603 47.3252 64.3055 45.9526 61.6714C44.0326 57.9822 39.907 56.9825 38.7169 58.0774C37.5189 59.1644 38.1457 63.3296 41.6207 65.6225C44.2706 67.368 46.1827 68.9785 47.5076 69.3911C47.2458 69.7798 46.7539 70.8747 46.7063 70.9937C45.1037 70.3431 42.8743 69.0975 40.4386 67.5028H40.4227ZM57.663 75.1193C56.6236 77.6264 53.7516 78.8244 51.2445 77.793C48.7374 76.7616 47.5394 73.8816 48.5708 71.3745C49.6022 68.8674 52.4822 67.6694 54.9893 68.7008C57.4964 69.7322 58.6944 72.6122 57.663 75.1193ZM40.0022 68.0106C42.6045 69.8751 45.2148 71.081 46.5 71.6363C46.4524 71.8426 46.4048 72.0569 46.3731 72.2631C45.1751 71.5094 42.668 71.0572 39.7404 70.1369C35.7735 68.8913 32.1557 71.0969 32.0763 72.7154C31.997 74.3339 35.3847 76.833 39.4627 75.9999C42.6759 75.3414 45.2227 75.1272 46.4048 74.437C46.5 74.9765 46.6667 75.5001 46.8809 75.992C46.8095 76.0238 46.7381 76.0555 46.6587 76.0872C21.3339 84.0211 19.525 62.9647 39.9943 68.0106H40.0022ZM47.103 76.595C47.103 76.595 47.1506 76.5791 47.1744 76.5633C47.3172 76.8171 47.468 77.0631 47.6425 77.2932C46.262 77.547 44.1357 79.0466 41.3351 80.4985C37.6459 82.4185 36.6462 86.5441 37.7411 87.7421C38.828 88.9401 42.9933 88.3133 45.2862 84.8383C47.1189 82.0535 48.8088 80.078 49.1103 78.753C49.3959 78.9672 49.7133 79.1418 50.0306 79.3084C49.2372 80.7603 47.0237 84.6875 45.6115 86.2029C34.3533 98.4528 25.2532 85.108 47.103 76.5791V76.595ZM46.0081 86.7662C47.4362 84.9414 49.7529 81.1728 50.8002 79.6575C51.189 79.8003 51.5856 79.9113 51.9903 79.9748C51.189 81.1252 50.7446 83.6958 49.7926 86.7186C48.547 90.6855 50.7526 94.3034 52.3711 94.3827C53.9896 94.462 56.1238 89.9239 55.6557 86.9963C55.1321 83.7196 54.783 81.1649 54.0689 80.0066C54.2911 79.9748 54.5132 79.9272 54.7274 79.8717C62.7247 105.157 38.4789 107.624 46.0081 86.7741V86.7662ZM63.0659 77.0948C82.4007 93.3433 62.701 102.912 55.3622 79.6654C55.9255 79.467 56.465 79.2052 56.9648 78.8641C57.2504 80.2446 58.7261 82.355 60.1621 85.116C62.09 88.8052 66.2077 89.8048 67.4057 88.71C68.6037 87.6151 67.977 83.4578 64.5019 81.1649C61.7965 79.3798 59.8606 77.7454 58.5357 77.3725C58.8848 76.9124 59.5353 75.5319 59.5909 75.3732C60.7572 76.0158 61.9234 76.595 63.0739 77.0948H63.0659ZM63.4467 76.5633C61.7489 75.6112 60.6144 75.0241 59.7734 74.6353C59.7734 74.6115 59.7813 74.5957 59.7892 74.5719C61.011 75.3018 63.4864 75.7461 66.3584 76.6505C70.3254 77.8961 73.9432 75.6905 74.0225 74.072C74.094 72.4535 70.7141 69.9544 66.6361 70.7874C63.5578 71.4222 61.0904 71.6364 59.8448 72.2631C59.7813 71.8426 59.6702 71.4301 59.5353 71.0334C81.4962 63.401 89.2238 84.2353 63.4467 76.5633ZM65.811 52.365C67.7707 51.8493 69.7383 52.4285 71.6662 54.1025C73.61 55.7925 74.2288 57.6728 73.5148 59.688C71.7376 64.7498 62.1853 69.2324 59.0276 69.8909C58.9403 69.7322 58.853 69.5735 58.7499 69.4228C60.1304 69.034 62.1614 67.6377 64.7637 66.281C68.453 64.361 69.4447 60.2354 68.3578 59.0374C67.2708 57.8394 63.1056 58.4662 60.8127 61.9412C59.1149 64.5118 57.5519 66.3921 57.0758 67.7091C56.6553 67.4076 56.2031 67.1458 55.7033 66.9395C55.4732 66.8443 55.2352 66.765 54.9972 66.6936C55.7271 65.0909 56.9965 62.1633 57.1949 61.6C59.1545 57.8315 62.1773 53.325 65.8031 52.3571L65.811 52.365ZM56.7268 61.1161C55.4891 63.4724 54.656 65.7336 54.3704 66.5508C54.3466 66.5508 54.3149 66.5349 54.2911 66.5349C54.9813 65.2813 55.4335 62.8695 56.3142 60.0768C57.5598 56.1098 55.3542 52.492 53.7357 52.4126C52.1172 52.3412 49.618 55.729 50.4511 59.799C51.0779 62.8298 51.2921 65.2813 51.895 66.5428C51.3793 66.638 50.8795 66.7967 50.3956 67.003C40.8194 41.1942 63.78 37.2511 56.7268 61.1161Z" fill="#F0DEAB"/>
<path d="M75.046 18.8287C73.4433 19.0747 71.9438 20.2965 71.0791 21.9547C70.8331 19.5983 69.6668 17.4165 68.0245 16.7025C67.0963 16.2978 65.2874 16.0757 63.3912 18.8684C62.09 17.0278 60.17 16.9008 58.853 17.6069C57.6629 18.2496 56.7743 19.7094 57.298 21.55C55.7826 20.709 54.0609 20.4869 52.7122 20.8757C50.7287 21.4469 49.618 23.1924 49.6973 25.5963C48.5707 25.39 47.6107 25.6756 46.9681 26.4135C46.143 27.3655 46.0081 28.9206 46.6349 30.3646C47.6584 32.7209 50.3162 34.5774 52.8867 36.3705C54.4656 37.4733 55.8381 38.6475 56.9965 39.6154C62.3201 44.0901 61.7647 49.1916 61.7647 49.3582L62.5184 49.6359C64.9462 48.6838 79.6873 37.0448 82.6704 29.7933C83.0909 28.7698 83.3844 27.7305 83.5193 26.6991C83.6621 25.6043 83.194 24.5411 82.2737 23.8667C81.4168 23.24 80.3299 23.0337 79.2985 23.2796C79.5445 22.4704 79.5683 21.5421 79.116 20.8677C78.0688 19.3127 76.6248 18.5987 75.038 18.8446L75.046 18.8287ZM64.4067 22.5735C66.0728 16.5835 71.0315 21.8674 70.2539 24.7474C69.5796 27.2465 67.6596 33.062 65.8903 38.219C66.5092 34.7916 66.9773 31.3246 67.5009 27.9844C67.4374 28.2224 67.3898 28.4445 67.3343 28.6508C66.6044 31.6498 65.9935 34.7678 65.2635 37.8541C65.6285 33.546 65.5016 29.1586 65.2159 24.9933C65.1445 29.4284 64.9859 34.149 64.2083 38.6872C64.0973 35.2439 63.6133 31.7847 63.1293 28.5953C63.3673 33.1969 63.9148 38.4729 63.1055 43.2412C63.0817 43.1301 63.0659 43.019 63.0341 42.908C63.0897 42.1781 63.1293 41.4878 63.1293 40.9562C63.1293 35.7358 62.0503 28.3652 60.0193 24.3666C59.5512 23.4383 60.0589 18.1068 64.3908 22.5735H64.4067ZM57.4646 39.1711C56.2824 38.1238 54.8623 36.9655 53.2596 35.8389C50.7605 34.0934 47.2934 27.0799 53.22 28.6588C50.7208 23.0575 58.0834 21.9229 59.4718 24.6522C61.4315 28.508 62.4708 35.6088 62.5105 40.742C62.4074 40.3691 62.3042 40.0042 62.1931 39.6472C61.4474 37.148 60.5429 34.6964 59.5194 32.2925C59.4163 32.0386 59.2973 31.7451 59.1466 31.4118C59.932 33.9189 60.5984 36.4657 61.0983 39.0442C59.7971 36.1245 58.0596 33.3556 56.4094 30.9754C58.0358 33.9506 60.1065 37.5843 61.2649 41.2577C59.5036 38.2825 56.7426 35.7516 54.0689 33.8872C53.9658 33.8079 53.8388 33.7206 53.696 33.6254C56.7664 36.2673 60.7175 40.2263 61.6854 44.4789C61.2173 43.0904 60.1065 41.5037 57.4725 39.1632L57.4646 39.1711ZM75.5299 26.8023C78.5131 25.4773 87.4307 28.4763 66.9931 45.3119C69.6748 42.4795 71.9518 39.2901 74.0146 35.9738C74.1415 35.7755 74.2843 35.5533 74.4351 35.2994C72.0152 38.4571 69.3733 41.8527 66.3505 44.6693C69.7065 39.8931 72.3326 34.6409 74.8873 29.3966C72.4278 33.5301 70.0159 38.0128 67.1756 42.0749C68.8417 38.3857 70.1349 34.4663 71.3964 30.793C69.405 35.1645 67.3422 39.9407 64.613 44.0822C64.7796 43.4395 64.9382 42.7969 65.089 42.1384C67.1835 36.188 70.0715 27.8257 70.8569 24.914C70.9997 24.3904 75.1174 20.003 75.522 26.8023H75.5299Z" fill="#F0DEAB"/>
<path d="M115.659 135.742C112.589 135.417 109.304 135.877 105.496 136.408C97.594 137.519 87.7639 138.9 74.3557 133.782C54.4576 126.19 52.6884 105.57 52.6725 105.363L52.6249 104.665L53.2755 104.403C54.9496 103.737 56.2428 102.301 57.1393 100.127C58.0517 97.9055 58.2342 95.6443 58.2738 94.9937V94.8192L60.1859 94.8827V95.0731C59.2894 117.256 86.1296 124.468 94.7299 126.206C92.8495 123.064 92.5877 118.272 92.2942 112.9C92.0799 108.934 91.8578 104.832 90.9454 101.063C88.6208 91.4711 73.7607 84.6004 73.61 84.5369L74.3875 82.7994C80.9091 85.6794 86.1296 79.5148 86.1851 79.4514L86.6691 78.8643L87.3435 79.2133C88.3828 79.7449 93.3414 82.966 98.5698 88.964C101.823 92.6929 102.624 100.071 103.473 107.878C103.981 112.567 104.512 117.415 105.599 121.413C108.281 131.299 115.723 133.774 116.04 133.878L119.69 135.488L115.651 135.726L115.659 135.742ZM54.656 105.879C55.132 109.33 58.2421 125.603 75.0381 132.013C87.9861 136.956 97.5464 135.607 105.234 134.528C107.583 134.195 109.741 133.893 111.803 133.782C109.058 131.87 105.496 128.284 103.774 121.929C102.648 117.788 102.116 112.861 101.593 108.1C100.775 100.595 100.006 93.5101 97.1497 90.2334C92.8654 85.3224 88.7477 82.3313 87.0896 81.2841C85.9233 82.4503 83.0036 84.9415 79.1795 85.4176C84.0588 88.4007 91.1358 93.7799 92.794 100.635C93.7461 104.57 93.9761 108.759 94.1903 112.813C94.5236 118.898 94.833 124.643 97.7844 126.872L100.664 129.046L97.0862 128.578C96.6816 128.522 87.0499 127.221 77.3865 122.492C66.8186 117.32 60.4715 110.06 58.734 101.254C57.7661 103.435 56.3935 104.982 54.656 105.879Z" fill="#F0DEAB"/>
<path d="M89.7871 82.2837C89.7633 82.3472 89.7158 82.4027 89.6523 82.4344L80.9251 87.5359C80.7743 87.6232 80.5839 87.5756 80.4887 87.4248C80.4014 87.2741 80.449 87.0757 80.5998 86.9885L89.327 81.887C89.4777 81.7997 89.6761 81.8473 89.7633 81.998C89.8189 82.0853 89.8189 82.1885 89.7792 82.2758L89.7871 82.2837Z" fill="#F0DEAB"/>
<path d="M91.3581 83.7276C91.3343 83.7911 91.2867 83.8466 91.2232 83.8862L82.615 88.6941C82.4642 88.7814 82.2659 88.7259 82.1866 88.5752C82.0993 88.4244 82.1548 88.2261 82.3056 88.1388L90.9138 83.3309C91.0645 83.2436 91.2629 83.2991 91.3422 83.4499C91.3898 83.5372 91.3977 83.6403 91.3581 83.7276Z" fill="#F0DEAB"/>
<path d="M93.2701 85.2034C93.2384 85.2669 93.1907 85.3304 93.1273 85.3621L84.1858 90.1462C84.0351 90.2255 83.8367 90.17 83.7574 90.0193C83.6781 89.8685 83.7336 89.6701 83.8843 89.5908L92.8258 84.8067C92.9845 84.7274 93.1749 84.7829 93.2542 84.9336C93.3018 85.0209 93.3018 85.1241 93.2701 85.2034Z" fill="#F0DEAB"/>
<path d="M95.6423 87.7739C95.6106 87.8453 95.555 87.9088 95.4757 87.9405L86.4232 91.8836C86.2645 91.955 86.0741 91.8836 86.0027 91.717C85.9313 91.5583 86.0027 91.3679 86.1693 91.2965L95.2218 87.3534C95.3805 87.282 95.5709 87.3534 95.6343 87.52C95.674 87.5993 95.6661 87.6866 95.6343 87.7659L95.6423 87.7739Z" fill="#F0DEAB"/>
<path d="M98.7524 91.3362C98.7127 91.4314 98.6334 91.5028 98.5303 91.5266L87.7482 93.8434C87.5736 93.883 87.407 93.772 87.3674 93.5974C87.3277 93.4229 87.4388 93.2562 87.6133 93.2245L98.3954 90.9078C98.5699 90.8682 98.7366 90.9792 98.7762 91.1538C98.7921 91.2172 98.7762 91.2807 98.7603 91.3442L98.7524 91.3362Z" fill="#F0DEAB"/>
<path d="M100.347 94.9698C100.299 95.0809 100.196 95.1603 100.069 95.1682L89.1524 95.5966C88.9778 95.5966 88.8271 95.4697 88.8192 95.2951C88.8192 95.1206 88.9461 94.9698 89.1206 94.9698L100.046 94.5414C100.22 94.5414 100.371 94.6683 100.371 94.8429C100.371 94.8905 100.371 94.9381 100.347 94.9778V94.9698Z" fill="#F0DEAB"/>
<path d="M101.545 99.0002C101.497 99.1272 101.371 99.2065 101.228 99.1986L90.6361 98.2782C90.4615 98.2624 90.3346 98.1116 90.3425 97.9371C90.3584 97.7625 90.5091 97.6356 90.6837 97.6435L101.275 98.5638C101.45 98.5797 101.577 98.7305 101.569 98.905C101.569 98.9367 101.553 98.9685 101.545 99.0002Z" fill="#F0DEAB"/>
<path d="M101.672 102.594C101.617 102.729 101.474 102.816 101.323 102.785L91.7548 101.023C91.5802 100.992 91.4692 100.825 91.5009 100.658C91.5326 100.484 91.6992 100.373 91.8658 100.405L101.434 102.166C101.609 102.198 101.72 102.364 101.688 102.539C101.688 102.563 101.68 102.578 101.672 102.602V102.594Z" fill="#F0DEAB"/>
<path d="M102.283 106.395C102.219 106.538 102.061 106.625 101.91 106.577L92.2387 103.975C92.0721 103.927 91.9689 103.753 92.0165 103.586C92.0641 103.412 92.2387 103.316 92.4053 103.364L102.085 105.966C102.251 106.014 102.354 106.188 102.307 106.355C102.307 106.371 102.299 106.379 102.291 106.395H102.283Z" fill="#F0DEAB"/>
<path d="M102.426 109.655C102.362 109.806 102.196 109.885 102.045 109.838L92.7861 107.061C92.6195 107.013 92.5243 106.831 92.5719 106.664C92.6274 106.498 92.802 106.403 92.9686 106.45L102.227 109.227C102.394 109.275 102.489 109.457 102.442 109.624C102.442 109.632 102.434 109.647 102.426 109.655Z" fill="#F0DEAB"/>
<path d="M103.227 112.726C103.171 112.869 103.013 112.956 102.854 112.916L92.9448 110.33C92.7781 110.282 92.675 110.116 92.7147 109.941C92.7543 109.767 92.9289 109.671 93.1034 109.711L103.013 112.297C103.179 112.345 103.283 112.512 103.243 112.686C103.243 112.702 103.235 112.718 103.227 112.726Z" fill="#F0DEAB"/>
<path d="M103.394 115.653C103.33 115.796 103.179 115.884 103.021 115.844L93.3018 113.337C93.1273 113.297 93.0321 113.123 93.0717 112.948C93.1193 112.781 93.2859 112.678 93.4605 112.718L103.172 115.225C103.338 115.265 103.441 115.439 103.402 115.614C103.402 115.63 103.394 115.646 103.386 115.653H103.394Z" fill="#F0DEAB"/>
<path d="M103.997 118.645C103.933 118.795 103.767 118.875 103.616 118.827L93.4367 115.788C93.2701 115.741 93.1749 115.558 93.2225 115.392C93.2701 115.225 93.4447 115.13 93.6192 115.177L103.798 118.216C103.965 118.264 104.06 118.438 104.013 118.613C104.013 118.621 104.013 118.637 104.005 118.645H103.997Z" fill="#F0DEAB"/>
<path d="M104.774 121.477C104.711 121.62 104.552 121.707 104.401 121.667L93.6668 118.859C93.5002 118.811 93.3971 118.645 93.4447 118.47C93.4844 118.295 93.6589 118.2 93.8334 118.24L104.568 121.048C104.742 121.096 104.838 121.263 104.798 121.437C104.798 121.453 104.798 121.469 104.782 121.477H104.774Z" fill="#F0DEAB"/>
<path d="M105.782 124.865C105.726 125.008 105.576 125.087 105.417 125.055L94.0952 122.572C93.9207 122.532 93.8175 122.366 93.8493 122.191C93.881 122.024 94.0556 121.913 94.2301 121.953L105.552 124.436C105.726 124.476 105.829 124.643 105.798 124.817C105.798 124.833 105.79 124.849 105.782 124.873V124.865Z" fill="#F0DEAB"/>
<path d="M107.44 128.054C107.384 128.197 107.226 128.276 107.075 128.245L95.3012 125.468C95.1266 125.428 95.0235 125.253 95.0632 125.087C95.1028 124.92 95.2774 124.809 95.444 124.849L107.218 127.626C107.392 127.665 107.496 127.84 107.456 128.007C107.456 128.022 107.448 128.038 107.44 128.054Z" fill="#F0DEAB"/>
<path d="M114.136 134.584C114.073 134.742 113.882 134.822 113.723 134.758L96.3166 127.602C96.158 127.538 96.0786 127.348 96.1421 127.189C96.2056 127.031 96.396 126.951 96.5546 127.015L113.962 134.171C114.12 134.235 114.2 134.425 114.136 134.584Z" fill="#F0DEAB"/>
<path d="M106.67 134.941C106.67 134.941 106.654 134.98 106.639 134.996C106.543 135.139 106.345 135.179 106.202 135.084L95.4281 127.911C95.2853 127.816 95.2376 127.618 95.3408 127.475C95.436 127.332 95.6343 127.293 95.7771 127.388L106.543 134.56C106.67 134.647 106.718 134.806 106.662 134.941H106.67Z" fill="#F0DEAB"/>
<path d="M102.267 135.647C102.267 135.647 102.235 135.71 102.204 135.742C102.085 135.869 101.886 135.877 101.759 135.758L92.6909 127.229C92.5639 127.11 92.556 126.912 92.675 126.785C92.794 126.658 92.9924 126.65 93.1272 126.769L102.196 135.298C102.291 135.393 102.323 135.528 102.275 135.647H102.267Z" fill="#F0DEAB"/>
<path d="M97.8797 136.02C97.8559 136.067 97.8241 136.115 97.7765 136.155C97.6337 136.258 97.4354 136.234 97.3322 136.091L90.2314 126.658C90.1283 126.515 90.1521 126.317 90.2949 126.214C90.4298 126.11 90.6361 126.134 90.7392 126.277L97.84 135.71C97.9114 135.806 97.9193 135.925 97.8797 136.02Z" fill="#F0DEAB"/>
<path d="M92.8734 136.242C92.8416 136.313 92.7861 136.377 92.7147 136.408C92.556 136.48 92.3656 136.408 92.2942 136.25L87.5974 125.975C87.5259 125.817 87.5974 125.626 87.756 125.555C87.9147 125.484 88.1051 125.555 88.1765 125.714L92.8734 135.988C92.913 136.067 92.913 136.163 92.8734 136.242Z" fill="#F0DEAB"/>
<path d="M89.6205 135.821C89.5888 135.901 89.5253 135.964 89.446 135.996C89.2873 136.059 89.0969 135.98 89.0334 135.821L84.6777 125C84.6143 124.841 84.6936 124.65 84.8523 124.587C85.011 124.524 85.2014 124.603 85.2648 124.761L89.6205 135.583C89.6523 135.663 89.6523 135.75 89.6205 135.821Z" fill="#F0DEAB"/>
<path d="M85.6536 135.448C85.6218 135.536 85.5504 135.599 85.4552 135.631C85.2886 135.678 85.114 135.591 85.0585 135.417L81.4962 123.778C81.4486 123.611 81.5438 123.437 81.7104 123.381C81.877 123.333 82.0595 123.421 82.1071 123.595L85.6694 135.234C85.6932 135.306 85.6853 135.385 85.6615 135.448H85.6536Z" fill="#F0DEAB"/>
<path d="M81.7184 134.75C81.6787 134.845 81.5994 134.917 81.4883 134.941C81.3138 134.972 81.1472 134.861 81.1154 134.695L78.6956 122.5C78.6639 122.326 78.775 122.159 78.9416 122.127C79.1161 122.096 79.2827 122.207 79.3144 122.373L81.7343 134.568C81.7501 134.631 81.7343 134.695 81.7184 134.75Z" fill="#F0DEAB"/>
<path d="M77.561 133.727C77.5214 133.83 77.4182 133.917 77.2913 133.925C77.1168 133.941 76.966 133.806 76.9501 133.632L75.9664 121.001C75.9505 120.826 76.0854 120.676 76.2599 120.66C76.4345 120.644 76.5852 120.779 76.6011 120.953L77.5848 133.584C77.5848 133.632 77.5848 133.687 77.561 133.727Z" fill="#F0DEAB"/>
<path d="M73.6655 132.354C73.6179 132.473 73.491 132.553 73.3561 132.553C73.1815 132.553 73.0467 132.394 73.0546 132.219L73.6417 119.66C73.6496 119.486 73.8004 119.351 73.9749 119.359C74.1495 119.359 74.2843 119.517 74.2764 119.692L73.6893 132.251C73.6893 132.251 73.6814 132.323 73.6655 132.354Z" fill="#F0DEAB"/>
<path d="M70.6983 130.68C70.6507 130.807 70.5158 130.886 70.373 130.878C70.1985 130.863 70.0715 130.712 70.0874 130.529L71.2219 118.311C71.2378 118.137 71.3965 118.01 71.571 118.026C71.7456 118.041 71.8725 118.2 71.8566 118.367L70.7221 130.593C70.7221 130.593 70.7142 130.656 70.6983 130.68Z" fill="#F0DEAB"/>
<path d="M66.6362 128.324C66.5807 128.467 66.422 128.546 66.2713 128.514C66.0967 128.475 65.9936 128.3 66.0332 128.134L68.8498 116.264C68.8894 116.098 69.064 115.987 69.2306 116.026C69.4051 116.066 69.5083 116.241 69.4686 116.407L66.6442 128.276C66.6442 128.276 66.6362 128.308 66.6283 128.324H66.6362Z" fill="#F0DEAB"/>
<path d="M63.7165 125.412C63.653 125.571 63.4785 125.65 63.3198 125.587C63.1532 125.531 63.0659 125.349 63.1214 125.182L66.9138 114.281C66.9614 114.114 67.1518 114.027 67.3184 114.082C67.485 114.138 67.5723 114.321 67.5168 114.487L63.7244 125.388C63.7244 125.388 63.7244 125.396 63.7244 125.404L63.7165 125.412Z" fill="#F0DEAB"/>
<path d="M65.4541 112.29V112.297L60.8842 122.31C60.8128 122.469 60.6224 122.54 60.4637 122.469C60.305 122.397 60.2495 122.199 60.305 122.048L64.8749 112.036C64.9463 111.877 65.1367 111.806 65.2954 111.877C65.4541 111.948 65.5255 112.131 65.462 112.282L65.4541 112.29Z" fill="#F0DEAB"/>
<path d="M63.9941 110.552C63.9941 110.552 63.9783 110.584 63.9703 110.592L58.9006 119.025C58.8134 119.176 58.615 119.224 58.4643 119.137C58.3135 119.049 58.2659 118.851 58.3532 118.7L63.4229 110.266C63.5102 110.116 63.7085 110.068 63.8593 110.155C63.9942 110.235 64.0497 110.401 63.9862 110.544L63.9941 110.552Z" fill="#F0DEAB"/>
<path d="M62.4788 108.672C62.4788 108.672 62.455 108.711 62.4471 108.735L57.2107 116.185C57.1076 116.328 56.9093 116.368 56.7664 116.264C56.6236 116.161 56.584 115.963 56.6871 115.82L61.9234 108.37C62.0266 108.227 62.2249 108.196 62.3677 108.291C62.4947 108.378 62.5344 108.537 62.4788 108.672Z" fill="#F0DEAB"/>
<path d="M61.614 106.601C61.614 106.601 61.5823 106.664 61.5506 106.696L55.9731 112.75C55.8541 112.877 55.6557 112.884 55.5208 112.765C55.3939 112.646 55.386 112.448 55.505 112.313L61.0825 106.26C61.2015 106.133 61.3998 106.125 61.5347 106.244C61.6379 106.339 61.6616 106.482 61.614 106.601Z" fill="#F0DEAB"/>
<path d="M60.7889 105.006C60.7731 105.054 60.7413 105.094 60.7017 105.125L54.902 110.06C54.7671 110.171 54.5688 110.155 54.4577 110.02C54.3467 109.886 54.3625 109.687 54.4974 109.576L60.2971 104.641C60.4319 104.53 60.6303 104.546 60.7413 104.681C60.8207 104.776 60.8366 104.903 60.7889 105.006Z" fill="#F0DEAB"/>
<path d="M60.0511 102.071C60.0352 102.11 60.0035 102.15 59.9717 102.182L54.3308 107.291C54.2038 107.41 53.9975 107.402 53.8865 107.267C53.7675 107.141 53.7754 106.934 53.9103 106.823L59.5512 101.714C59.6782 101.595 59.8845 101.611 59.9955 101.738C60.0828 101.833 60.0987 101.96 60.059 102.071H60.0511Z" fill="#F0DEAB"/>
<path d="M87.1531 118.462C74.1178 112.075 71.1505 109.83 67.1281 99.0321C67.1281 99.0321 74.7445 99.4209 75.1174 90.9951C87.7164 95.9458 83.3766 110.393 87.1531 118.462Z" fill="#F0DEAB"/>
<path d="M66.8107 103.134C67.6755 103.491 68.088 104.475 67.731 105.339C67.374 106.204 66.3822 106.617 65.5254 106.26C64.6606 105.903 64.248 104.919 64.6051 104.054C64.9621 103.189 65.9459 102.777 66.8107 103.134Z" fill="#F0DEAB"/>
<path d="M70.4523 108.743C71.3171 109.1 71.7296 110.092 71.3726 110.949C71.0156 111.813 70.0318 112.226 69.167 111.869C68.3022 111.512 67.8896 110.528 68.2467 109.663C68.6037 108.799 69.5875 108.386 70.4523 108.743Z" fill="#F0DEAB"/>
<path d="M75.1016 113.281C75.9663 113.638 76.3789 114.622 76.0219 115.487C75.6649 116.352 74.6811 116.764 73.8163 116.407C72.9515 116.05 72.5389 115.066 72.896 114.202C73.253 113.337 74.2368 112.924 75.1016 113.281Z" fill="#F0DEAB"/>
<path d="M79.9809 116.431C80.8457 116.788 81.2582 117.772 80.9012 118.637C80.5442 119.501 79.5604 119.914 78.6956 119.557C77.8308 119.2 77.4183 118.216 77.7753 117.351C78.1323 116.486 79.1161 116.074 79.9809 116.431Z" fill="#F0DEAB"/>
<path d="M85.2251 118.7C86.0899 119.057 86.5024 120.041 86.1454 120.906C85.7884 121.77 84.8046 122.183 83.9398 121.826C83.075 121.469 82.6625 120.485 83.0195 119.62C83.3765 118.756 84.3603 118.343 85.2251 118.7Z" fill="#F0DEAB"/>
<path d="M90.7868 120.184C91.6516 120.541 92.0642 121.525 91.7071 122.389C91.3501 123.254 90.3663 123.667 89.5015 123.31C88.6367 122.953 88.2242 121.969 88.5812 121.104C88.9382 120.239 89.922 119.827 90.7868 120.184Z" fill="#F0DEAB"/>
<path d="M90.4059 114.432C91.2707 114.789 91.6833 115.772 91.3263 116.637C90.9692 117.502 89.9855 117.915 89.1207 117.558C88.2559 117.201 87.8433 116.217 88.2003 115.352C88.5574 114.487 89.5412 114.075 90.4059 114.432Z" fill="#F0DEAB"/>
<path d="M89.5411 108.473C90.4059 108.83 90.8185 109.814 90.4615 110.679C90.1044 111.544 89.1206 111.956 88.2559 111.599C87.3911 111.242 86.9785 110.258 87.3355 109.394C87.6926 108.529 88.6763 108.116 89.5411 108.473Z" fill="#F0DEAB"/>
<path d="M88.3511 101.357C89.2159 101.714 89.6284 102.697 89.2714 103.562C88.9144 104.427 87.9306 104.84 87.0658 104.483C86.201 104.126 85.7884 103.142 86.1455 102.277C86.5025 101.412 87.4863 101 88.3511 101.357Z" fill="#F0DEAB"/>
<path d="M86.09 95.7316C86.9548 96.0887 87.3673 97.0725 87.0103 97.9373C86.6533 98.8021 85.6695 99.2146 84.8047 98.8576C83.9399 98.5006 83.5273 97.5168 83.8844 96.652C84.2414 95.7872 85.2252 95.3746 86.09 95.7316Z" fill="#F0DEAB"/>
<path d="M82.8529 91.0903C83.7177 91.4473 84.1303 92.4311 83.7732 93.2959C83.4162 94.1607 82.4324 94.5732 81.5676 94.2162C80.7028 93.8592 80.2903 92.8754 80.6473 92.0106C81.0043 91.1458 81.9881 90.7333 82.8529 91.0903Z" fill="#F0DEAB"/>
<path d="M77.7991 87.5279C78.6639 87.8849 79.0764 88.8687 78.7194 89.7335C78.3624 90.5983 77.3786 91.0109 76.5138 90.6539C75.649 90.2968 75.2364 89.313 75.5935 88.4482C75.9505 87.5834 76.9422 87.1709 77.7991 87.5279Z" fill="#F0DEAB"/>
<path d="M64.3116 97.5327C65.1764 97.8897 65.5889 98.8735 65.2319 99.7383C64.8749 100.603 63.8831 101.016 63.0263 100.659C62.1615 100.302 61.749 99.3178 62.106 98.453C62.463 97.5882 63.4468 97.1756 64.3116 97.5327Z" fill="#F0DEAB"/>
<path d="M86.0582 77.4362C93.7461 80.1416 99.7599 84.4338 103.64 89.456C107.456 94.3987 109.884 108.481 117.801 105.903C126.013 103.229 118.452 89.0196 108.725 83.1961C99.0062 77.3727 90.6598 77.3727 86.0661 77.4283L86.0582 77.4362Z" fill="#F0DEAB"/>
<path d="M86.6215 78.5785C95.3804 80.7524 100.736 87.5517 104.084 95.549C105.853 99.7936 107.178 104.197 108.765 108.505C110.209 112.432 111.93 116.367 115.009 119.295C117.833 121.985 121.721 123.373 125.569 122.35C129.131 121.405 132.566 118.041 132.368 114.122C132.186 110.544 127.624 106.482 124.379 109.584C123.189 110.726 122.744 112.726 124.188 113.876C126.076 115.376 128.068 112.472 126.283 111.964C128.163 112.4 126.314 115.217 124.506 114.344C122.348 113.384 122.625 110.711 124.022 109.227C127.306 105.744 132.495 109.33 133.399 113.115C134.471 117.431 131.249 121.842 127.489 123.619C123.546 125.483 118.666 124.96 114.929 122.818C106.948 118.248 105.679 106.593 103.235 98.6512C100.506 89.7811 95.9358 81.6727 86.6215 78.5785C90.5804 79.8955 88.6446 79.0783 86.6215 78.5785Z" fill="#F0DEAB"/>
<path d="M85.9075 75.7144C100.466 76.9204 114.239 71.7475 125.807 63.1869C116.485 73.9293 99.8155 80.0146 85.9075 75.7144C89.5174 76.0159 89.3904 76.7934 85.9075 75.7144Z" fill="#F0DEAB"/>
<path d="M85.5187 74.0167C89.6522 71.2239 93.0717 67.2332 95.0314 62.6316C97.2132 57.5143 97.5305 52.024 97.3798 46.5417C100.799 56.8319 96.7292 70.5178 85.5187 74.0167C88.121 73.2074 87.756 72.5013 85.5187 74.0167Z" fill="#F0DEAB"/>
<path d="M85.9789 74.7149C91.961 73.382 97.8162 70.5734 102.378 66.4558C107.361 61.9731 110.613 56.237 113.025 50.0486C111.32 63.2426 99.7362 75.0084 85.9789 74.7149C89.2714 74.7863 89.1683 74.0008 85.9789 74.7149Z" fill="#F0DEAB"/>
<path d="M98.7524 41.6703C100.855 42.5351 101.862 44.947 100.998 47.0495C100.133 49.1599 97.721 50.1596 95.6185 49.2948C93.5081 48.43 92.5084 46.0181 93.3732 43.9156C94.238 41.8052 96.6499 40.8056 98.7524 41.6703Z" fill="#F0DEAB"/>
<path d="M114.779 44.8281C116.881 45.6928 117.889 48.1048 117.024 50.2072C116.159 52.3176 113.747 53.3173 111.645 52.4525C109.542 51.5877 108.535 49.1758 109.4 47.0733C110.264 44.9629 112.676 43.9633 114.779 44.8281Z" fill="#F0DEAB"/>
<path d="M127.187 59.696C129.29 60.5608 130.297 62.9727 129.433 65.0752C128.568 67.1776 126.156 68.1852 124.053 67.3204C121.951 66.4556 120.943 64.0438 121.808 61.9413C122.673 59.8388 125.085 58.8312 127.187 59.696Z" fill="#F0DEAB"/>
<path d="M83.9556 1.77895C84.0826 3.80208 85.3599 5.35715 86.3437 7.01532C86.6373 7.50722 86.8039 7.95943 86.8753 8.38786C86.5659 8.37199 86.2485 8.37197 85.9312 8.41164C84.4872 8.60205 82.5038 9.60965 82.5355 11.3392C82.5672 13.1878 84.8601 12.7911 85.7645 11.9581C86.3675 11.4027 86.9626 10.6093 87.3117 9.75246C89.3983 10.2047 90.993 12.0374 91.7943 14.4969C92.1037 15.449 92.3576 16.6628 92.2227 17.7339C91.5801 17.0437 90.7946 16.528 89.8505 16.29C88.2558 15.8933 85.7011 16.5835 85.5662 18.5352C85.4234 20.6298 87.9146 21.6532 89.668 21.3517C90.8978 21.1375 91.7229 20.5266 92.2306 19.6856C93.2462 21.2486 93.8333 23.2956 93.9205 24.8585C94.0475 27.0086 93.0478 30.2535 90.9057 31.039C90.9216 29.7696 90.7073 28.4367 90.1996 27.0403C89.6997 25.6678 88.3113 24.446 86.9388 25.5884C85.1854 27.0403 85.3917 29.5791 86.8198 31.1738C87.9384 32.4195 89.1047 32.6813 90.1837 32.3639C89.8267 34.8075 88.3906 37.0211 86.431 38.7348C84.392 40.5199 81.9008 41.7417 79.3937 42.7414C77.2198 43.6141 74.5858 44.0981 74.0939 44.1298C72.4119 44.2171 71.7772 45.0025 77.7514 45.1057C79.481 45.1374 81.2185 45.423 82.837 46.0577C85.6138 47.1288 88.3589 49.628 88.8508 52.6904C89.2951 55.4197 87.3989 59.6722 83.9953 58.5059C82.7656 58.0855 81.8214 56.8478 82.4799 55.5546C83.1385 54.2534 84.3365 55.5228 84.8046 54.5629C83.2733 52.9919 81.2661 54.8564 81.2185 56.578C81.1788 58.1965 82.4641 59.4104 83.916 59.8627C87.5814 61.0051 90.3583 57.3476 90.5645 54.0392C90.8026 50.1357 87.9226 46.6766 84.5348 45.0898C82.8687 44.3123 81.0756 43.9711 79.2667 43.9315C84.8522 41.8607 90.1678 37.6796 90.8343 32.1021C92.7305 31.1025 94.2379 28.4129 94.5077 26.4294C94.8329 24.081 94.3569 20.6218 92.7463 18.3845C93.3414 15.8695 92.302 12.45 91.0088 10.7045C90.1678 9.56205 88.954 8.76075 87.5973 8.491C87.6131 8.24505 87.5973 7.99911 87.5417 7.75316C87.0657 5.67449 85.2885 4.11946 84.7411 2.04872C84.4158 0.818979 84.027 -1.4263 85.9867 -4.4491C83.5589 -1.32316 83.9001 1.08872 83.9398 1.79484L83.9556 1.77895ZM85.7407 10.8236C85.225 11.252 84.4951 11.6646 83.8208 11.3789C83.0353 11.0536 83.0591 10.5617 83.7494 10.2444C84.7966 9.76039 85.7884 9.59379 86.6928 9.6652C86.5024 10.0619 86.2009 10.4427 85.7407 10.8236ZM88.8032 31.0469C87.4862 30.6185 85.7883 28.9207 86.3834 27.3974C87.4386 24.7157 89.5252 27.4608 89.9219 28.8334C90.1599 29.6347 90.263 30.4281 90.263 31.1977C89.8188 31.2532 89.3348 31.2135 88.8032 31.0469ZM91.7705 19.0589C91.4769 19.5032 91.0406 19.8681 90.4059 20.0744C89.5093 20.368 88.5255 20.2093 87.6766 19.8364C87.034 19.5587 85.4948 18.5114 86.6214 17.8926C88.7874 16.7104 90.5328 17.5197 91.7705 19.0589Z" fill="#F0DEAB"/>
<path d="M37.1936 119.692C37.7489 119.612 40.7717 119.597 43.3661 120.096C46.3572 120.676 49.3721 121.501 52.014 123.04C54.5529 124.523 56.6156 126.666 57.528 129.3C56.2665 129.173 55.0209 129.712 54.053 131.331C52.8074 133.401 53.1168 136.258 55.378 137.495C57.1472 138.463 58.4166 136.813 58.6864 135.194C58.9561 133.536 58.9085 132.021 58.615 130.617C61.1538 131.037 62.9469 134.425 63.2642 136.829C63.4943 138.574 63.2801 140.962 62.4867 142.914C61.7409 142.097 60.6936 141.589 59.2893 141.613C57.2821 141.645 54.7432 143.311 55.3462 145.604C55.9095 147.738 58.8926 147.96 60.5746 147.183C61.5664 146.722 62.328 145.984 62.8993 145.08C63.2721 146.238 63.2483 147.635 63.1135 148.753C62.7485 151.649 61.3759 154.014 59.1624 154.966C58.5991 154.093 57.774 153.339 56.9806 152.855C55.7984 152.125 53.1803 152.173 53.5294 154.228C53.8626 156.148 56.2745 156.846 57.9168 156.751C58.2738 156.727 58.6229 156.663 58.9641 156.584C58.9799 157.068 58.8927 157.608 58.6705 158.211C57.9327 160.257 56.8457 162.249 57.1393 164.518C57.2424 165.311 57.3773 168.049 60.7333 171C57.9089 168.072 57.8692 165.494 57.9644 164.066C58.131 161.654 59.7733 159.559 59.8606 157.147C59.8685 156.87 59.8288 156.592 59.7574 156.322C61.1935 155.727 62.3756 154.585 63.0659 153.141C64.1211 150.935 64.5495 146.921 63.3515 144.263C64.6606 141.43 64.4543 137.503 63.5974 134.972C62.8675 132.838 60.6302 130.18 58.3214 129.474C54.3704 118.264 41.6921 118.43 38.1139 118.541C34.8134 119.462 35.6782 119.914 37.2015 119.7L37.1936 119.692ZM58.488 155.196C57.4963 155.473 56.3697 155.497 55.1003 155.18C54.2672 154.974 54.1403 154.434 54.9337 153.902C55.6239 153.442 56.5284 153.744 57.1789 154.109C57.766 154.434 58.1865 154.791 58.4801 155.196H58.488ZM62.1138 143.707C61.0665 145.675 59.3052 146.944 56.6553 146.096C55.2748 145.651 56.7664 144.16 57.409 143.715C58.2659 143.128 59.329 142.74 60.3842 142.874C61.1379 142.97 61.6933 143.279 62.1138 143.715V143.707ZM57.8613 130.569C58.0279 131.426 58.0834 132.322 57.9882 133.267C57.8295 134.869 56.1079 138.36 54.3704 135.615C53.3866 134.06 54.9099 131.807 56.2745 131.053C56.8219 130.752 57.3535 130.609 57.8613 130.569Z" fill="#F0DEAB"/>
<path d="M20.4373 32.2131C20.3977 32.3084 20.3104 32.3877 20.1914 32.4036C20.0169 32.4353 19.8582 32.3163 19.8265 32.1418L19.3108 28.9841C19.287 28.8096 19.398 28.6509 19.5726 28.6191C19.7471 28.5874 19.9058 28.7064 19.9375 28.881L20.4453 32.0386C20.4532 32.1021 20.4453 32.1577 20.4294 32.2053L20.4373 32.2131Z" fill="#F0DEAB"/>
<path d="M21.3735 30.1107C21.3338 30.2138 21.2386 30.2931 21.1196 30.309C20.9451 30.3328 20.7864 30.2058 20.7705 30.0313L20.35 26.6039C20.3262 26.4294 20.4532 26.2707 20.6277 26.2469C20.8023 26.2231 20.9609 26.35 20.9768 26.5246L21.3973 29.952C21.3973 30.0075 21.3973 30.0631 21.3735 30.1107Z" fill="#F0DEAB"/>
<path d="M22.5159 28.5795C22.4683 28.6985 22.3493 28.7778 22.2145 28.7778C22.0399 28.7778 21.8971 28.627 21.905 28.4525L21.9764 24.9378C21.9764 24.7633 22.1272 24.6204 22.3017 24.6284C22.4763 24.6284 22.6191 24.7791 22.6112 24.9537L22.5397 28.4684C22.5397 28.4684 22.5318 28.5477 22.5159 28.5795Z" fill="#F0DEAB"/>
<path d="M23.9441 27.3657C23.8885 27.5085 23.7378 27.5878 23.587 27.5561C23.4125 27.5164 23.3094 27.3498 23.3411 27.1832L24.0155 24.0017C24.0472 23.8351 24.2218 23.724 24.3884 23.7558C24.5629 23.7955 24.6661 23.962 24.6343 24.1286L23.9679 27.3101C23.9679 27.3101 23.9599 27.3498 23.952 27.3657H23.9441Z" fill="#F0DEAB"/>
<path d="M30.5291 23.4145C30.5291 23.4145 30.5132 23.4542 30.4974 23.4701L28.3473 26.7626C28.2521 26.9054 28.0538 26.953 27.911 26.8578C27.7602 26.7626 27.7285 26.5643 27.8158 26.4214L29.9658 23.1368C30.061 22.9861 30.2594 22.9464 30.4022 23.0416C30.5291 23.1289 30.5767 23.2876 30.5212 23.4304L30.5291 23.4145Z" fill="#F0DEAB"/>
<path d="M32.8935 23.6446C32.8935 23.6446 32.8696 23.6922 32.8538 23.716L30.5451 26.8737C30.4419 27.0165 30.2435 27.0483 30.1007 26.9451C29.9579 26.842 29.9183 26.6436 30.0293 26.5008L32.3381 23.3431C32.4412 23.2003 32.6396 23.1686 32.7824 23.2717C32.9014 23.359 32.9411 23.5177 32.8855 23.6526L32.8935 23.6446Z" fill="#F0DEAB"/>
<path d="M35.0673 23.9064C35.0673 23.9064 35.0515 23.9461 35.0356 23.9699L32.6792 27.3418C32.5761 27.4846 32.3857 27.5163 32.2349 27.4211C32.0921 27.318 32.0604 27.1276 32.1556 26.9768L34.512 23.6049C34.6151 23.4621 34.8135 23.4304 34.9563 23.5256C35.0832 23.6129 35.1229 23.7716 35.0673 23.9064Z" fill="#F0DEAB"/>
<path d="M37.4475 23.9699C37.4475 23.9699 37.4158 24.0254 37.3999 24.0492L34.4882 27.6512C34.3771 27.786 34.1787 27.8098 34.0439 27.6988C33.909 27.5877 33.8852 27.3893 33.9963 27.2545L36.908 23.6525C37.0191 23.5176 37.2174 23.4938 37.3523 23.6049C37.4634 23.6922 37.4951 23.8429 37.4475 23.9699Z" fill="#F0DEAB"/>
<path d="M40.7559 23.843C40.74 23.8826 40.7082 23.9302 40.6686 23.962L36.4795 27.6115C36.3446 27.7226 36.1463 27.7147 36.0352 27.5798C35.9241 27.4449 35.9321 27.2466 36.067 27.1355L40.256 23.4859C40.3909 23.3669 40.5892 23.3828 40.7003 23.5177C40.7797 23.6129 40.7955 23.7398 40.7559 23.8509V23.843Z" fill="#F0DEAB"/>
<path d="M43.7231 23.2876C43.6993 23.3431 43.6596 23.3907 43.612 23.4304L37.5188 27.556C37.376 27.6512 37.1777 27.6195 37.0825 27.4687C36.9793 27.3259 37.019 27.1276 37.1697 27.0244L43.263 22.8988C43.4058 22.8036 43.6041 22.8354 43.7073 22.9861C43.7707 23.0813 43.7786 23.1924 43.739 23.2876H43.7231Z" fill="#F0DEAB"/>
<path d="M42.9456 25.5963C42.9139 25.6677 42.8663 25.7312 42.787 25.7629L37.3364 28.3414C37.1777 28.4128 36.9873 28.3414 36.9159 28.1907C36.8445 28.032 36.908 27.8415 37.0666 27.7701L42.5172 25.1916C42.6759 25.1123 42.8663 25.1837 42.9377 25.3424C42.9774 25.4297 42.9774 25.5169 42.9377 25.5963H42.9456Z" fill="#F0DEAB"/>
<path d="M42.065 28.1511C42.0253 28.2384 41.9539 28.3098 41.8507 28.3336L36.5906 29.722C36.424 29.7696 36.2494 29.6665 36.2018 29.4919C36.1542 29.3253 36.2574 29.1508 36.424 29.1032L41.6841 27.7147C41.8507 27.6751 42.0253 27.7703 42.0729 27.9449C42.0888 28.0163 42.0808 28.0877 42.057 28.1432L42.065 28.1511Z" fill="#F0DEAB"/>
<path d="M41.1526 30.2377C41.113 30.3408 41.0178 30.4202 40.8987 30.436L35.8449 31.047C35.6703 31.0708 35.5117 30.9438 35.4879 30.7693C35.4641 30.5947 35.591 30.4361 35.7655 30.4123L40.8194 29.8013C40.9939 29.7775 41.1526 29.9045 41.1764 30.079C41.1764 30.1345 41.1764 30.1901 41.1526 30.2377Z" fill="#F0DEAB"/>
<path d="M40.272 32.102C40.2244 32.221 40.1053 32.3004 39.9784 32.3004L35.0912 32.2369C34.9166 32.2369 34.7738 32.0941 34.7817 31.9116C34.7817 31.7371 34.9246 31.5942 35.107 31.5942L39.9943 31.6577C40.1688 31.6577 40.3116 31.8005 40.3116 31.983C40.3116 32.0227 40.3037 32.0623 40.2878 32.102H40.272Z" fill="#F0DEAB"/>
<path d="M38.8915 34.2203C38.8359 34.3552 38.6931 34.4425 38.5344 34.4107L34.036 33.5301C33.8614 33.4984 33.7504 33.3317 33.79 33.1572C33.8218 32.9906 33.9884 32.8716 34.1629 32.9033L38.6614 33.776C38.8359 33.8078 38.947 33.9744 38.9153 34.1489C38.9153 34.1727 38.9074 34.1886 38.8994 34.2124L38.8915 34.2203Z" fill="#F0DEAB"/>
<path d="M37.7251 35.7992C37.6617 35.942 37.503 36.0293 37.3443 35.9817L33.0838 34.7995C32.9172 34.7519 32.8141 34.5774 32.8617 34.4108C32.9093 34.2442 33.0838 34.141 33.2504 34.1886L37.5109 35.3628C37.6775 35.4104 37.7807 35.585 37.7331 35.7516C37.7331 35.7675 37.7331 35.7754 37.7172 35.7913L37.7251 35.7992Z" fill="#F0DEAB"/>
<path d="M36.059 37.6318C36.059 37.6318 36.0511 37.6477 36.0432 37.6636C35.9638 37.8143 35.7655 37.8778 35.6147 37.7984L31.862 35.7991C31.7113 35.7197 31.6478 35.5214 31.7272 35.3707C31.8065 35.2199 32.0049 35.1564 32.1556 35.2437L35.9083 37.243C36.0511 37.3224 36.1146 37.4969 36.0511 37.6397L36.059 37.6318Z" fill="#F0DEAB"/>
<path d="M34.9245 38.592C34.9245 38.592 34.9245 38.6158 34.9087 38.6237C34.8293 38.7745 34.631 38.838 34.4802 38.7507L30.7275 36.7513C30.5688 36.672 30.5212 36.4737 30.6006 36.3229C30.6799 36.1722 30.8782 36.1087 31.029 36.196L34.7817 38.1953C34.9245 38.2746 34.988 38.4492 34.9245 38.592Z" fill="#F0DEAB"/>
<path d="M33.2584 39.5677C33.2584 39.5677 33.2425 39.5995 33.2346 39.6153C33.1394 39.7661 32.9411 39.8057 32.7983 39.7105L29.3629 37.497C29.2121 37.4018 29.1725 37.2035 29.2677 37.0606C29.3629 36.9099 29.5612 36.8702 29.704 36.9654L33.1394 39.179C33.2743 39.2583 33.3219 39.4249 33.2584 39.5677Z" fill="#F0DEAB"/>
<path d="M31.0924 40.3928C31.0924 40.3928 31.0607 40.4563 31.0369 40.4881C30.9179 40.615 30.7196 40.6229 30.5847 40.5039L27.8872 38.0206C27.7603 37.9016 27.7523 37.6953 27.8713 37.5763C27.9903 37.4494 28.1887 37.4415 28.3235 37.5605L31.021 40.0438C31.1242 40.139 31.148 40.2817 31.1004 40.3928H31.0924Z" fill="#F0DEAB"/>
<path d="M28.8472 40.7262C28.8234 40.7738 28.7917 40.8214 28.7441 40.8611C28.6013 40.9642 28.4029 40.9404 28.2998 40.7976L26.4115 38.3064C26.3004 38.1636 26.3322 37.9653 26.475 37.8621C26.6178 37.759 26.8162 37.7827 26.9193 37.9255L28.8076 40.4168C28.879 40.512 28.8869 40.631 28.8472 40.7262Z" fill="#F0DEAB"/>
<path d="M26.1576 40.3057C26.1338 40.3612 26.1021 40.4088 26.0465 40.4485C25.9037 40.5516 25.7054 40.512 25.6022 40.3692L24.0869 38.2032C23.9837 38.0604 24.0234 37.8621 24.1662 37.7589C24.309 37.6558 24.5074 37.6955 24.6105 37.8383L26.1179 40.0042C26.1814 40.0994 26.1894 40.2105 26.1497 40.3057H26.1576Z" fill="#F0DEAB"/>
<path d="M25.3721 26.7864C25.3166 26.9292 25.1579 27.0086 25.0072 26.9689C24.8406 26.9292 24.7295 26.7547 24.7692 26.5881L25.4753 23.6208C25.515 23.4542 25.6895 23.3431 25.8561 23.3828C26.0307 23.4225 26.1338 23.597 26.0941 23.7636L25.388 26.7309C25.388 26.7309 25.3801 26.7626 25.3721 26.7785V26.7864Z" fill="#F0DEAB"/>
<path d="M28.2997 23.4145L27.0383 26.4928C26.9748 26.6594 26.7844 26.7308 26.6257 26.6673C26.467 26.6038 26.3877 26.4135 26.4512 26.2548L27.7206 23.1765C27.784 23.0178 27.9745 22.9384 28.1331 23.0019C28.2918 23.0654 28.3712 23.2558 28.3077 23.4145H28.2997Z" fill="#F0DEAB"/>
<path d="M5.91845 115.542C5.79944 117.09 6.04539 118.668 6.63249 120.104C8.14785 123.794 12.0672 126.848 16.2007 125.975C19.7313 125.254 22.9762 121.223 20.8817 117.693C20.2311 116.598 19.0172 115.654 17.7002 115.59C16.0817 115.519 14.1379 117.034 14.7171 118.811C15.0027 119.692 16.042 120.454 16.9465 119.922C17.5336 119.573 17.2956 118.819 17.0734 119.168C16.5339 120.033 15.5105 119.168 15.4708 118.446C15.4311 117.621 16.2324 116.978 16.9703 116.836C18.3984 116.558 19.6599 117.97 19.9137 119.256C20.1756 120.612 19.4298 121.953 18.4539 122.85C15.5025 125.547 11.4642 123.936 9.25065 121.136C7.36239 118.74 7.37033 113.004 7.61628 110.735C6.98951 111.702 5.26788 114.17 4.36342 115.003C2.91946 116.336 1.13435 117.28 -0.769776 117.756C-5.03025 118.756 -10.5046 117.201 -10.9489 112.155C-11.1473 109.846 -9.96512 107.458 -7.43423 107.275C-5.83159 107.156 -3.79259 108.537 -4.75258 110.314C-5.49836 111.695 -7.40249 110.774 -7.43423 109.902C-8.28315 112.02 -5.09374 113.004 -4.0068 111.298C-2.88019 109.521 -3.30067 107.148 -4.93505 106.117C-6.34727 105.205 -8.28314 105.221 -9.78264 105.887C-13.6385 107.593 -14.1066 112.758 -12.2024 116.082C-8.19586 123.064 1.66589 121.239 5.90257 115.55L5.91845 115.542Z" fill="#F0DEAB"/>
<path d="M-12.6309 90.2333C-14.9873 88.2657 -17.7006 91.7566 -15.4474 92.5024C-16.0583 91.8042 -15.8521 90.8363 -14.9159 90.7569C-13.2339 90.6141 -12.0755 92.185 -13.0038 94.0257C-13.9321 95.8743 -16.8834 96.2154 -18.6527 94.8904C-22.8338 91.8676 -21.1439 86.4647 -17.7006 83.6878C-14.3684 80.9903 -9.77472 80.5461 -5.83159 82.0852C-7.61671 81.3871 -5.72052 82.1328 -5.83159 82.0852C-5.53804 82.2043 -5.37937 81.879 -5.49045 81.6806C-6.69639 80.9031 -8.02927 79.8955 -8.53704 79.3639C-9.71918 78.1421 -10.5998 76.6267 -11.0283 74.9765C-11.9169 71.5649 -10.9489 66.9554 -7.06927 65.9795C-4.60185 65.3527 -0.45245 67.0823 -1.99162 70.3193C-2.74533 72.1362 -6.15688 71.4618 -5.08581 69.7402C-4.99854 69.5974 -4.7526 69.3038 -4.13376 69.0341C-5.02236 68.7643 -5.65707 69.2721 -5.82368 69.8195C-6.49805 72.0806 -3.78467 73.0089 -2.18996 72.1997C-1.08716 71.6443 -0.53973 70.5256 -0.412788 69.3435C0.0235729 65.1068 -4.74466 63.2662 -8.18795 64.4245C-15.0269 66.7253 -14.2335 75.4129 -9.77472 79.6813C-12.3453 79.2052 -14.3684 79.4353 -16.3915 80.2128C-20.3902 81.7599 -23.8573 85.6554 -23.6669 90.1301C-23.5003 93.9542 -20.3029 98.1354 -16.1615 97.8339C-12.6944 97.58 -9.17176 93.1291 -12.6388 90.2333H-12.6309Z" fill="#F0DEAB"/>
<path d="M30.2286 83.5055C30.2038 83.5552 30.2038 83.5552 30.2286 83.5055V83.5055Z" fill="#F0DEAB"/>
<path d="M43.3662 22.8117C39.7245 23.7875 36.5986 23.2004 33.4806 22.9069C30.1563 22.5975 26.5544 21.7406 23.1904 22.9069C20.3501 23.8986 15.9706 30.5868 18.7078 35.9025C10.885 39.9488 6.5214 45.5659 4.26818 49.4853C4.53794 47.5177 4.59349 45.558 4.7601 43.6301C5.7915 31.8642 -0.373096 28.2226 0.221943 24.1525C0.586899 21.6533 1.73731 18.813 4.60936 18.813C6.74356 18.813 10.0044 20.5823 10.052 23.0259C10.0758 24.1763 9.15545 25.7551 7.9257 25.9297C6.79116 26.0963 5.38687 24.6206 6.64042 23.732C4.88704 24.565 6.75149 26.5961 8.10024 26.4771C9.55214 26.3422 10.7501 24.7713 10.9723 23.4226C11.5118 20.1221 7.42587 17.5436 4.56176 17.5515C1.22954 17.5515 -0.619068 20.6378 -0.817413 23.6844C-0.936422 25.4933 -0.42071 27.5323 0.682095 29.3016C-1.90434 26.2312 -6.22035 24.5492 -10.8934 26.5882C-14.6223 28.2226 -17.2643 32.4513 -17.0818 36.5293C-16.8914 40.6787 -13.0355 45.3597 -8.48149 43.8919C-5.98233 43.0906 -4.79225 40.4804 -4.9668 37.9971C-5.63324 37.2989 -6.19654 39.0364 -6.42662 39.3855C-6.99786 40.2503 -7.74366 41.0516 -8.77506 41.3293C-10.8934 41.9085 -13.0276 40.1233 -13.8606 38.3065C-14.8444 36.2834 -14.5588 33.927 -13.7416 31.9039C-11.9803 27.5482 -6.56943 25.0808 -2.33276 27.7307C1.73731 30.2774 2.8877 36.3944 2.66556 40.7739C2.40374 46.1213 0.967705 51.3418 0.697954 56.6892C0.452003 61.5447 1.26126 66.3288 3.65729 70.5496C1.41201 69.0739 -1.88847 71.6207 0.214001 74.2944C-3.09441 73.5328 -3.72913 78.4121 -0.912617 78.6501C-4.11789 78.9436 -4.34796 82.8471 -1.42037 83.3628C-4.31622 83.7198 -4.53043 87.5757 -1.51557 87.4408C-4.74465 88.8054 -3.46731 91.5505 -0.904675 91.3283C-3.22929 93.6212 -1.11888 97.2788 2.03086 96.414C-1.30136 98.3974 0.325073 101.523 4.00638 100.428C1.03119 102.436 3.06224 105.681 5.90255 104.998C3.12571 108.616 8.63974 112.424 10.7739 108.323C9.73461 111.845 15.6771 112.686 15.8516 108.997C16.7005 111.695 20.0486 110.988 20.7468 108.949C20.9134 109.275 21.08 109.608 21.2704 109.925C23.3888 113.496 26.6654 115.915 30.1563 118.042C33.7345 120.223 37.9394 122.08 40.7163 125.317C42.9536 127.927 44.2468 132.085 41.8349 135.02C39.5262 137.821 35.0991 138.416 32.5127 135.671C31.3543 134.433 30.6403 132.664 31.394 131.029C31.9018 129.942 33.1157 128.919 34.3851 129.078C36.1781 129.3 36.7573 132.505 34.9642 132.116C34.9484 132.116 33.5124 130.942 33.8376 131.91C34.1233 132.799 35.1388 133.076 35.9243 132.703C38.1219 131.648 36.9636 128.848 35.2023 128.102C33.195 127.253 30.9656 128.633 30.0215 130.418C27.6175 134.972 32.6634 139.622 37.035 139.63C42.2634 139.63 46.2858 134.806 45.5639 129.712C44.834 124.555 41.3272 121.517 37.2254 118.906C38.7963 118.684 40.2403 117.835 41.351 116.733C43.6597 114.448 45.072 110.584 43.4059 107.545C41.8667 104.737 37.2254 103.07 35.1467 106.26C34.3057 107.553 34.2502 109.449 35.6386 110.393C36.7256 111.123 38.6217 110.854 38.6297 109.227C37.6935 108.87 37.7173 110.322 36.5986 109.735C35.829 109.338 35.71 108.497 35.9957 107.759C36.9398 105.355 40.0498 106.331 41.1923 107.981C43.7391 111.671 38.9074 116.994 34.9801 117.534C30.8942 115.122 26.6258 112.837 24.1187 109.172C18.0334 100.286 25.0707 89.2894 30.2357 83.4263C30.2277 83.4501 30.2119 83.4738 30.2039 83.4897C30.2039 83.4738 30.2198 83.4501 30.2357 83.4263C30.6086 83.0058 31.3226 82.5456 31.6955 82.2044C32.3064 81.6332 32.1953 81.1492 29.7358 81.0778C28.8552 81.054 23.7537 79.7687 22.1035 79.1816C18.6919 77.9757 15.447 76.2858 12.7654 73.8183C7.78289 69.2167 6.03744 62.3698 8.71908 56.0466C9.9171 53.2221 12.1386 50.4611 15.4073 50.2549C17.962 50.0962 20.9293 51.3338 22.2542 53.6029C23.6664 56.0069 22.4764 60.6006 19.0886 60.307C17.7319 60.188 16.2245 58.9503 16.8354 57.4667C17.478 55.8879 18.6443 57.4112 19.2394 56.475C17.8589 54.8406 15.8596 56.713 15.9389 58.3553C16.0103 59.8389 17.3987 60.9179 18.7633 61.1797C22.2542 61.862 24.5392 57.9189 24.1107 54.8803C23.5871 51.1672 19.6678 48.684 16.161 48.4142C12.3528 48.1207 9.19512 50.0724 7.01331 53.0634C2.34028 59.474 4.00637 68.2806 9.25064 73.8025C11.5991 76.2779 14.4711 78.0709 17.605 79.3403C2.75282 74.0008 2.82424 58.8472 3.61763 53.7299C4.60936 51.1911 8.67147 42.4638 19.3742 36.9498C22.1273 40.7898 27.4668 42.3369 30.9656 41.5038C36.4796 40.1947 39.9943 33.213 42.0174 28.2781C43.1837 25.4378 43.747 23.1846 43.755 23.1608L43.8819 22.6372L43.3583 22.78L43.3662 22.8117ZM2.9591 75.5162C2.8401 75.6987 2.73697 75.8891 2.6259 76.0795C2.60209 76.0716 2.57827 76.0478 2.55447 76.0399C1.93563 75.786 1.22158 76.0795 0.967701 76.6983C0.713818 77.3172 1.00739 78.0312 1.63416 78.2851C1.65797 78.293 1.67382 78.301 1.69763 78.301C1.65002 78.4517 1.60242 78.6025 1.57068 78.7532C1.07085 78.5231 0.547224 78.4041 -0.055748 78.4438C-2.63425 77.1585 -0.444508 73.4851 2.96705 75.5083L2.9591 75.5162ZM-0.103348 79.0864C0.467888 79.0706 0.967722 79.134 1.43582 79.3879C1.39615 79.6339 1.3644 79.8798 1.34854 80.1178C0.832834 80.0702 0.317137 80.3558 0.110857 80.8636C-0.143026 81.4824 0.150522 82.1965 0.777296 82.4504C1.03911 82.5535 1.3168 82.5615 1.57068 82.4901C1.68969 82.8788 1.84836 83.2437 2.06258 83.5849C1.38026 83.0692 0.380615 82.855 -0.50004 83.0216C-2.73738 82.7757 -2.1503 79.142 -0.0954304 79.0864H-0.103348ZM0.420288 83.934C0.333015 84.0292 0.261597 84.1482 0.206059 84.2752C-0.0478249 84.894 0.245726 85.6081 0.872499 85.862C0.888367 85.862 0.912174 85.8699 0.928041 85.8778C0.872505 86.0285 0.816957 86.1793 0.769356 86.33C0.134647 86.3935 -0.476252 86.6236 -0.984018 86.9886C-2.99921 86.3697 -2.66599 83.696 0.428205 83.9419L0.420288 83.934ZM0.594833 86.9886C0.555164 87.2107 0.531359 87.4328 0.51549 87.655C-0.00814247 87.5994 -0.53179 87.885 -0.738071 88.3928C-0.991953 89.0117 -0.698387 89.7257 -0.0795479 89.9796C0.190203 90.0907 0.475813 90.0907 0.729696 90.0113C0.769365 90.17 0.801096 90.3207 0.848698 90.4874C0.56308 90.5191 0.277464 90.5905 0.00771332 90.7095C-2.2217 91.1618 -3.44349 87.8613 0.594833 86.9886ZM1.07084 91.1062C1.17398 91.376 1.293 91.6536 1.41994 91.9313C1.45167 91.9948 1.49134 92.0662 1.52308 92.1376C1.27713 92.2645 1.06292 92.4708 0.951843 92.7485C0.69796 93.3674 0.991508 94.0814 1.61828 94.3353C2.07845 94.5257 2.58622 94.4067 2.91945 94.0894C3.24473 94.4305 3.59381 94.7558 3.97464 95.0335C3.451 95.2398 2.92738 95.5333 2.49895 95.9141C-0.0478134 97.1439 -3.1817 92.2566 1.07084 91.1062ZM4.64108 95.4619C4.98223 95.6444 5.32339 95.7872 5.68041 95.8824C5.32339 95.9776 5.01397 96.2235 4.86322 96.5964C4.60934 97.2153 4.90289 97.9293 5.52966 98.1832C5.71214 98.2625 5.90257 98.2784 6.09298 98.2625C6.14059 98.6275 6.21198 98.9924 6.30719 99.3574C5.75975 99.3733 5.23613 99.5082 4.7839 99.7779C1.1026 100.881 -0.579395 97.3264 4.64108 95.4698V95.4619ZM6.50554 99.9842C6.53727 100.079 6.58487 100.167 6.62454 100.262C6.29925 100.365 6.01363 100.611 5.87875 100.952C5.62487 101.571 5.91844 102.285 6.53728 102.539C6.98951 102.721 7.48139 102.618 7.81461 102.309C7.88602 102.396 7.9495 102.491 8.0209 102.579C7.10058 102.936 6.4262 103.539 6.09298 104.324C3.39548 105.109 2.5148 100.778 6.49759 99.9921L6.50554 99.9842ZM8.49694 103.07C8.56834 103.142 8.64768 103.205 8.71908 103.269C8.62388 103.372 8.54453 103.491 8.489 103.618C8.23511 104.237 8.52866 104.951 9.15544 105.205C9.75841 105.451 10.4487 105.181 10.7184 104.594C10.8612 104.657 10.9961 104.729 11.1548 104.792C10.6867 105.474 10.401 106.181 10.4407 107.085C10.4486 107.299 10.4883 107.521 10.5518 107.736C7.66388 111.052 3.66523 105.633 8.49694 103.063V103.07ZM11.7657 105.03C11.8926 105.078 12.0275 105.109 12.1544 105.157C11.9799 105.744 12.2734 106.379 12.8526 106.617C13.4715 106.871 14.1855 106.577 14.4394 105.958C14.479 105.863 14.4949 105.776 14.5108 105.673C14.6457 105.689 14.7805 105.712 14.9154 105.72C14.7964 106.672 14.963 107.672 15.4391 108.465C14.7012 110.711 9.48866 109.751 11.7577 105.03H11.7657ZM19.6519 106.244C19.6519 106.244 19.6361 106.268 19.6361 106.292C20.4771 109.751 15.0582 111.29 15.5501 105.76C15.7881 105.768 16.0182 105.76 16.2562 105.76C16.2721 106.22 16.5498 106.649 17.002 106.839C17.6209 107.093 18.3349 106.799 18.5888 106.181C18.7157 105.879 18.7078 105.554 18.5888 105.268C18.8347 105.157 19.0728 105.03 19.287 104.879C19.3901 105.347 19.5091 105.808 19.6519 106.26V106.244ZM17.1607 90.5112C15.0265 92.0583 11.5991 95.4143 11.2341 96.2315C12.2338 96.0966 15.6771 92.7327 17.367 90.7016C17.6209 90.9317 17.8906 91.1379 18.1524 91.3283C15.3914 93.4943 13.043 97.0169 12.2417 100.302C15.09 98.4609 17.6526 95.0811 18.7951 91.7489C19.0172 91.8837 19.2394 92.0106 19.4456 92.1138C18.2635 94.3115 17.3828 96.8265 16.9544 99.2622C18.2 97.1359 19.1521 94.6685 19.6757 92.2328C20.1914 92.4867 20.6278 92.6454 20.8975 92.7406C19.9613 94.6447 19.287 96.6758 19.0013 98.8021C18.8585 99.889 18.8268 100.976 18.8903 102.063C18.565 103.412 15.9785 103.507 14.9075 103.634C13.4159 103.808 11.8847 103.245 10.7025 102.396C6.58488 99.4605 7.65593 96.5805 8.10816 95.7396C9.23477 93.883 16.4149 89.6623 16.4149 89.6623C16.6529 89.9637 16.8989 90.2494 17.1607 90.5032V90.5112ZM15.6136 88.377C15.7405 88.6547 15.8913 88.9085 16.0499 89.1545C16.0499 89.1545 9.86949 93.4784 6.66422 94.1131C5.03778 94.3829 3.44308 91.7727 2.94324 90.7175C1.84838 88.4008 2.28472 86.8299 3.72075 85.0368C5.36305 84.3148 14.971 85.2828 14.971 85.2828C14.971 85.4414 14.963 85.6001 14.971 85.7509C12.8764 85.3066 10.5121 85.3303 8.43345 85.616C10.4804 86.1634 12.8526 86.2507 14.9948 86.0603C15.0186 86.2904 15.0503 86.5046 15.09 86.7188C12.0275 86.3776 8.42554 87.1869 5.99778 88.8292C8.86983 89.5353 12.5591 89.0434 15.32 87.6391C15.3677 87.7819 15.4152 87.9247 15.4787 88.0596C13.4476 88.8768 11.4483 90.0748 9.82188 91.4791C11.845 90.7968 13.884 89.7019 15.6136 88.377ZM23.2142 88.972C22.8255 89.4877 22.4684 90.0272 22.1273 90.5746C16.9782 88.0675 17.3194 84.3307 18.2714 82.26C19.0886 82.5138 19.9534 82.5773 20.7865 82.736C19.2076 86.2587 21.3736 88.5198 23.2142 88.98V88.972ZM15.8675 81.2048C15.7881 81.3952 15.7247 81.5856 15.6533 81.776C13.765 80.4749 11.5991 79.4197 9.44898 78.7532C11.2341 80.1496 13.3683 81.3238 15.5343 82.133C15.4787 82.2997 15.4311 82.4663 15.3835 82.6329C12.8288 80.5383 9.03643 79.2054 5.83909 79.3324C8.14784 81.5777 11.9006 83.1248 15.2169 83.2517C15.1931 83.3628 15.1614 83.4739 15.1376 83.577C13.0668 82.9502 10.7898 82.6408 8.66354 82.7281C10.6549 83.458 12.9161 83.8785 15.0741 83.9182C15.0344 84.172 15.0106 84.41 14.9948 84.6481C14.9948 84.6481 7.71942 84.4101 4.26027 83.6722C1.65003 79.1658 4.87116 76.0636 6.84668 74.9053C9.32204 77.5472 12.4559 79.7608 15.8595 81.2206L15.8675 81.2048ZM4.25233 71.5969C4.66488 72.2316 5.11712 72.8504 5.59315 73.4534C5.55348 73.4296 5.51381 73.4137 5.47414 73.3979C5.3472 73.144 5.13299 72.9298 4.8553 72.8108C4.23647 72.5569 3.52242 72.8504 3.26854 73.4692C3.07812 73.9215 3.18919 74.4213 3.50654 74.7625C3.451 74.8339 3.38753 74.9053 3.332 74.9767C2.68935 74.4769 1.82456 74.1754 0.999443 74.1833C-0.262037 72.4696 1.77698 70.5655 3.81597 71.462C3.95085 71.5255 4.06984 71.4779 4.14124 71.3985C4.18091 71.462 4.21266 71.5334 4.26027 71.5969H4.25233ZM20.6754 36.3151C22.2225 36.2754 24.682 36.0295 27.6334 35.0536C32.0684 33.5938 34.8928 30.5868 34.3375 29.3412C33.7821 28.0956 29.4819 27.9369 25.6182 30.5472C22.8017 32.4513 20.9293 34.1491 19.8979 35.1964C19.9931 34.2761 20.2311 32.7369 20.842 31.2374C21.6116 29.3571 22.7461 28.0798 24.2059 27.4451C26.4433 26.4692 28.879 26.9135 31.2274 27.3419C33.2505 27.7069 35.1705 28.0639 36.9636 27.572C36.9318 27.6434 36.908 27.7227 36.8684 27.802C35.9004 30.1584 33.1315 35.7994 28.3078 37.3465C25.9435 38.1081 23.3808 37.7511 20.6754 36.3151ZM41.4383 28.0559C39.4707 32.8559 36.0115 38.8301 30.7593 40.0837C27.673 40.8136 24.2932 39.7901 20.7071 37.045C23.4443 38.4255 26.0625 38.7349 28.4982 37.9415C33.5758 36.3071 36.4479 30.4678 37.4475 28.0322C37.6697 27.4847 37.7808 27.1515 37.7808 27.1515L37.995 26.5009L37.3603 26.7548C35.5514 27.4689 33.5044 27.096 31.3305 26.6993C28.8869 26.255 26.356 25.7948 23.9441 26.85C22.3256 27.5561 21.0879 28.9445 20.247 30.9835C19.7075 32.2926 19.4456 33.6176 19.3187 34.5696C19.1997 32.9511 19.2076 30.3726 20.1121 28.175C20.8658 26.3343 22.1114 25.0728 23.8172 24.4302C27.0066 23.2242 30.0691 23.5099 33.314 23.8113C36.3368 24.097 39.4627 24.3826 42.9933 23.5416C42.7632 24.3588 42.2475 26.0566 41.4224 28.048L41.4383 28.0559Z" fill="#F0DEAB"/>
<path d="M47.2776 128.006C46.6905 124.69 51.3397 123.794 52.1014 127.15C52.9662 130.982 47.8568 131.251 47.2776 128.006Z" fill="#F0DEAB"/>
<path d="M47.4363 133.735C48.1503 130.87 52.2997 131.783 51.6412 134.774C50.8716 138.249 46.7381 136.591 47.4363 133.735Z" fill="#F0DEAB"/>
<path d="M45.1117 138.471C46.4922 136.147 50.2211 138.551 48.0551 140.764C46.4208 142.422 43.9137 140.494 45.1117 138.471Z" fill="#F0DEAB"/>
<path d="M41.478 140.661C43.5884 140.082 44.5404 143.216 42.3428 143.731C39.8833 144.311 39.3755 141.256 41.478 140.661Z" fill="#F0DEAB"/>
<path d="M36.9477 141.454C38.7408 141.502 38.7329 144.231 36.8922 144.073C34.52 143.874 35.1547 141.415 36.9477 141.454Z" fill="#F0DEAB"/>
<path d="M32.838 143.39C31.4258 143.152 31.7828 141.129 33.1792 141.367C34.5755 141.597 34.2582 143.62 32.838 143.39C33.4648 143.493 32.2112 143.287 32.838 143.39Z" fill="#F0DEAB"/>
<path d="M21.9844 6.58685C19.6915 3.55612 15.3279 3.92904 12.1623 5.07945C9.53622 6.03944 7.25127 7.75315 5.33921 9.83976C4.94252 9.15744 4.59343 8.42751 4.29988 7.63412C3.41129 5.26984 3.10187 2.5168 4.13327 0.152515C4.55377 -0.80748 5.31542 -1.72781 6.24368 -2.43393C6.25955 -2.39426 6.27541 -2.35457 6.29128 -2.3149C7.29888 -0.180695 11.48 1.7869 11.956 -1.71986C12.1068 -2.81473 11.5276 -4.21108 10.4724 -4.53637C9.15539 -4.94099 7.57656 -4.0207 6.36268 -3.03691C6.34682 -3.07657 6.32302 -3.11621 6.31508 -3.15588C5.125 -6.31355 7.37027 -10.8835 10.5438 -12.0418C10.4883 -11.4944 10.5042 -10.939 10.6311 -10.3598C10.9802 -8.8286 12.4162 -7.09107 14.1378 -7.4243C15.3597 -7.66231 15.8278 -9.26496 15.5421 -10.3122C15.1296 -11.8276 13.3524 -12.9542 11.837 -12.9542C11.5117 -12.9542 11.1944 -12.8907 10.885 -12.7876C11.2579 -14.7552 12.5114 -16.5879 12.7018 -18.5952C12.8684 -20.3485 12.4717 -23.649 10.0678 -23.1571C9.18712 -22.9826 7.79077 -21.729 7.29887 -21.007C8.65556 -22.6017 10.52 -23.1809 11.6942 -21.9115C12.9557 -20.5469 12.4559 -18.1429 11.9402 -16.5879C11.5117 -15.2947 10.9008 -14.0173 10.639 -12.6924C9.70282 -12.3116 8.84598 -11.5578 8.20334 -10.8834C6.26748 -8.86824 5.10913 -5.52017 6.08499 -2.80679C5.77557 -2.53704 5.48996 -2.27525 5.24401 -2.03723C2.23708 0.922091 3.00666 5.81726 4.60137 9.26055C4.74418 9.56204 4.89492 9.86352 5.04566 10.1491C3.56997 11.8311 2.18949 13.5528 1.03908 15.3934C-1.46802 19.4 -2.20588 23.2797 -0.912664 27.8575C-0.49217 28.2145 0.277421 28.9127 0.658246 29.3094C0.372628 27.5401 -0.158939 25.4298 -0.158939 23.6288C-0.143071 18.8288 1.58651 14.9491 4.57757 11.252C4.78385 10.9901 5.00598 10.7363 5.23607 10.4903C7.21953 13.9812 10.401 16.4883 14.479 17.1071C17.6049 17.5832 20.8737 16.5756 22.4605 13.6956C23.6823 11.4821 23.5077 8.59411 21.9765 6.57891L21.9844 6.58685ZM10.8612 -12.1291C12.6621 -12.6448 15.4945 -11.1215 15.2645 -9.02695C15.1534 -7.97968 13.9554 -7.70993 13.1144 -7.94002C11.6466 -8.34464 10.8136 -10.1932 10.7739 -11.5737C10.7739 -11.7562 10.7739 -11.9307 10.7898 -12.1132C10.8136 -12.1132 10.8374 -12.1291 10.8612 -12.137V-12.1291ZM9.99637 -3.70332C11.7974 -3.57638 12.3527 -1.05345 10.647 -0.315603C9.06019 0.374641 7.29889 -1.24386 6.54517 -2.64816C7.59244 -3.3622 8.81423 -3.79059 9.99637 -3.70332ZM14.6139 15.7346C10.5279 15.2903 7.48928 13.3306 5.53756 10.1809C8.7349 6.85662 13.3603 4.77797 18.1682 5.82523C21.3577 6.52341 23.4681 8.68137 22.8492 11.8311C22.1034 15.5918 18.0572 16.1075 14.6139 15.7346Z" fill="#F0DEAB"/>
</g>
</svg>
