<svg width="62" height="181" viewBox="0 0 62 181" fill="none" xmlns="http://www.w3.org/2000/svg">
<g clip-path="url(#clip0_894_12113)">
<path d="M1.34579 58.285C3.93329 61.0604 8.03575 62.498 8.78767 66.722C9.05306 68.2037 8.68812 69.5639 7.23956 70.2715C6.33283 70.7249 5.24916 70.9571 4.453 71.5873C3.67896 72.1955 3.2367 73.0249 2.56218 73.7105C0.27323 76.0547 -2.31432 74.009 -2.18162 71.0677C-1.99364 66.8105 1.90973 62.697 0.516459 58.5061C0.240016 57.6657 1.35686 58.2739 1.35686 58.2739L1.34579 58.285ZM-0.589311 67.5845C-1.07585 68.9556 -1.6177 70.7249 -1.23068 72.1734C-0.876831 73.5004 0.383799 74.6725 1.65544 73.4008C2.04246 73.0138 2.39627 72.6047 2.728 72.1845C3.56839 71.134 4.48621 70.5479 5.73573 70.0724C7.08477 69.5417 8.5333 68.7124 8.04676 66.9432C7.79243 66.0143 7.3612 65.2624 6.89678 64.422C5.90158 62.5975 4.19867 61.4917 2.71693 60.1869C3.40251 60.8061 4.0328 61.4696 4.44193 62.4537C4.92847 63.648 4.91745 64.986 3.92225 65.9148C3.01552 66.7552 1.74389 65.9922 1.23524 65.1186C0.947737 64.621 0.914553 63.9465 0.947726 63.3715C0.505418 64.809 -0.102783 66.2244 -0.60038 67.5955L-0.589311 67.5845Z" fill="#F0DEAB"/>
<path d="M16.2623 84.4365C15.3556 84.8235 14.7143 85.5091 13.885 86.0067C11.0763 87.6764 9.0859 85.0336 9.98157 82.225C11.2643 78.1557 16.0965 75.1922 15.8311 70.7802C15.7759 69.8956 16.7047 70.7692 16.7047 70.7802C18.485 74.1196 22.0787 76.5744 21.7138 80.8538C21.5922 82.3576 20.8845 83.574 19.3032 83.8946C18.308 84.0937 17.2023 84.0384 16.2623 84.4475V84.4365ZM20.9398 80.8648C20.9398 79.9028 20.7076 79.0625 20.4864 78.1336C19.9999 76.1211 18.6398 74.6062 17.534 72.9586C18.0427 73.7437 18.4739 74.5399 18.6066 75.5904C18.7724 76.862 18.4186 78.1557 17.2134 78.7971C16.1297 79.3721 15.0902 78.3105 14.8249 77.3264C14.67 76.7735 14.8249 76.11 15.0018 75.5572C14.2057 76.8288 13.2547 78.0341 12.4254 79.2394C11.596 80.4447 10.6229 82.0038 10.6229 83.5077C10.6229 84.8788 11.5407 86.3384 13.0888 85.4427C13.5643 85.1663 14.0066 84.8677 14.4379 84.536C15.5215 83.7399 16.5609 83.4192 17.8879 83.2644C19.3254 83.1096 20.9398 82.6673 20.9287 80.8428L20.9398 80.8648Z" fill="#F0DEAB"/>
<path d="M20.4529 98.2589C21.7466 94.1896 26.5899 91.2483 26.3356 86.8363C26.2803 85.9516 27.2091 86.8363 27.2091 86.8363C28.9783 90.1868 32.5611 92.6526 32.1962 96.932C32.0635 98.4358 31.3558 99.6411 29.7745 99.9618C28.7793 100.161 27.6735 100.105 26.7336 100.504C25.8269 100.891 25.1855 101.576 24.3451 102.063C21.5254 103.721 19.5572 101.079 20.4529 98.2699V98.2589ZM24.9202 100.614C26.0038 99.818 27.0432 99.4973 28.3702 99.3536C29.8077 99.1988 31.4221 98.7675 31.411 96.943C31.411 95.981 31.1899 95.1406 30.9577 94.2117C30.4712 92.1882 29.1221 90.6843 28.0274 89.0257C28.536 89.8108 28.9673 90.6069 29.1 91.6574C29.2548 92.929 28.9009 94.2228 27.6957 94.8641C26.6009 95.4391 25.5725 94.3666 25.3072 93.3935C25.1634 92.8406 25.3072 92.1771 25.4841 91.6242C24.688 92.8959 23.7259 94.1012 22.8966 95.2954C22.0673 96.4896 21.0942 98.0598 21.0832 99.5637C21.0832 100.935 21.9899 102.406 23.5379 101.51C24.0134 101.233 24.4557 100.935 24.898 100.614H24.9202Z" fill="#F0DEAB"/>
<path d="M34.0651 105.911C34.2973 105.059 34.8944 106.176 34.8944 106.176C35.5247 109.914 38.1453 113.375 36.4424 117.322C35.8453 118.705 34.7948 119.633 33.1915 119.434C32.1852 119.313 31.1569 118.915 30.1396 118.992C29.1665 119.069 28.3261 119.512 27.3862 119.722C24.1905 120.407 23.1511 117.278 24.8872 114.89C27.3973 111.44 32.9261 110.168 34.0651 105.9V105.911ZM26.8112 118.959C27.342 118.848 27.8617 118.705 28.3814 118.528C29.6641 118.119 30.7477 118.141 32.0526 118.428C33.4679 118.738 35.1376 118.837 35.7016 117.101C36.0001 116.183 36.0555 115.31 36.1439 114.37C36.3208 112.302 35.5136 110.444 34.9939 108.52C35.2261 109.427 35.3809 110.323 35.1708 111.362C34.9165 112.623 34.1757 113.74 32.8266 113.961C31.6103 114.16 30.9689 112.822 31.0242 111.816C31.0574 111.241 31.4001 110.655 31.754 110.201C30.5929 111.163 29.3103 111.993 28.1382 112.866C26.9771 113.74 25.5506 114.912 25.0751 116.338C24.6328 117.632 25.042 119.313 26.8001 118.959H26.8112Z" fill="#F0DEAB"/>
<path d="M46.218 92.5199C44.681 88.1964 43.3983 83.7954 41.8723 79.4718C40.7776 76.3867 39.705 73.357 37.9911 70.5483C35.5694 66.5675 32.429 63.0511 29.0012 59.9107C22.3444 53.7848 14.6151 48.8973 6.27758 45.381C-2.07099 41.8757 -11.8349 39.454 -20.8027 41.8203C-12.5537 39.0006 -3.24311 40.803 4.75161 43.6228C12.9343 46.5199 20.6194 51.0204 27.2983 56.5492C33.568 61.7353 38.6877 67.9829 41.6733 75.4911C43.6526 74.1642 45.6872 74.8939 47.4343 76.442C49.4579 78.2444 50.5195 80.5887 50.5195 83.32C50.5195 86.6704 48.7392 89.5896 49.3031 92.9954C49.9334 96.8435 51.6473 100.271 54.1574 103.235C54.0248 103.191 53.9695 103.18 53.9473 103.169C50.3536 100.327 47.7551 96.5892 46.2291 92.5089L46.218 92.5199Z" fill="#F0DEAB"/>
<path d="M45.5324 69.5751C45.5324 69.5751 45.455 69.6083 45.4218 69.5751C45.3776 69.5309 45.3334 69.4976 45.2891 69.4534C39.8377 66.8217 36.4098 61.2265 32.5286 56.8255C28.4814 52.2366 23.6935 48.4217 18.1867 45.7125C12.3151 42.8265 5.96794 41.0351 -0.434478 39.8077C-6.60468 38.6245 -13.8696 37.3197 -20.1172 38.6245C-14.2234 36.7779 -6.96957 37.6736 -0.976295 38.5692C5.39295 39.5202 11.6848 41.1789 17.5564 43.8659C18.9829 44.5294 20.354 45.2592 21.692 46.0664C21.6699 44.64 23.3949 43.5895 24.7218 43.2135C27.5194 42.4395 30.0737 44.6952 31.7434 46.7188C34.5079 50.0693 36.2881 54.2933 37.6814 58.3847C38.4665 60.7068 39.3401 62.9404 40.9545 64.8313C42.3699 66.49 43.9843 67.9275 45.5656 69.4203C45.6098 69.4645 45.5877 69.5198 45.5435 69.564C45.5767 69.5861 45.6098 69.6083 45.643 69.6304C45.5987 69.6083 45.5656 69.5862 45.5324 69.5751Z" fill="#F0DEAB"/>
<path d="M42.5139 104.208C42.1047 93.6144 38.2013 82.7999 32.1749 74.1418C20.133 56.4494 -0.810247 47.1499 -21.3555 43.7994C-0.965054 45.8893 19.7128 54.9898 32.1859 71.7422C38.2456 79.8807 42.3922 90.1865 43.3653 100.371C45.3667 99.862 47.1691 101.355 48.2749 103.002C49.8893 105.38 50.4643 108.078 49.3365 110.82C47.91 114.281 45.6321 117.278 45.7095 121.237C45.798 125.549 48.7393 131.244 50.409 132.969C47.3681 131.078 44.3273 125.151 43.2768 120.12C42.1821 114.878 42.724 109.504 42.5139 104.197V104.208Z" fill="#F0DEAB"/>
<path d="M47.9432 71.7311C47.6999 71.4989 47.6668 71.2225 47.7442 70.9682C47.7442 70.4706 48.098 70.2163 48.5182 70.161C48.9384 69.984 49.4028 70.0283 49.6461 70.5038C49.823 70.6807 49.9004 70.935 49.812 71.2225C49.8562 72.2177 48.3745 72.6932 47.9432 71.7201V71.7311Z" fill="#F0DEAB"/>
<path d="M51.4144 74.3408C50.1539 74.6946 49.8111 72.6821 51.0606 72.3393C52.3212 71.9855 52.664 73.998 51.4144 74.3408Z" fill="#F0DEAB"/>
<path d="M53.1286 76.6079C52.5757 76.7074 52.0339 76.3204 51.9344 75.7675C51.7574 74.7281 53.1507 74.1752 53.7257 74.905C54.0021 75.1261 54.1127 75.5132 53.9358 75.8339C53.8363 76.2209 53.5156 76.5305 53.1175 76.6079H53.1286Z" fill="#F0DEAB"/>
<path d="M55.7496 106.121C54.4447 106.486 54.0909 104.407 55.3846 104.042C56.7005 103.677 57.0433 105.756 55.7496 106.121Z" fill="#F0DEAB"/>
<path d="M57.7621 108.134C56.4241 108.509 56.0592 106.375 57.3861 106.01C58.7241 105.634 59.089 107.769 57.7621 108.134Z" fill="#F0DEAB"/>
<path d="M60.9904 109.703C60.9904 109.703 60.9683 109.736 60.9462 109.748C60.8246 109.958 60.6366 110.112 60.3491 110.157C60.1279 110.19 59.9289 110.157 59.752 110.046C58.8342 109.67 58.9779 108.255 59.9731 108.089C60.8356 107.945 61.5654 108.985 60.9904 109.703Z" fill="#F0DEAB"/>
<path d="M52.5205 133.101C53.8695 132.725 54.2233 134.86 52.8964 135.236C51.5474 135.612 51.1936 133.477 52.5205 133.101Z" fill="#F0DEAB"/>
<path d="M55.2963 137.315C53.9251 137.691 53.5602 135.523 54.9203 135.147C56.2914 134.772 56.6564 136.939 55.2963 137.315Z" fill="#F0DEAB"/>
<path d="M58.0827 139.449C56.7336 139.825 56.3688 137.679 57.7068 137.315C59.0558 136.939 59.4096 139.084 58.0827 139.449Z" fill="#F0DEAB"/>
<path d="M-35.4882 125.007C-35.1343 123.824 -34.8026 122.563 -33.8958 121.657C-32.1819 119.954 -29.6939 120.109 -27.4713 120.308C-27.405 120.308 -27.3718 120.363 -27.3718 120.418C-27.3386 120.341 -27.2944 120.263 -27.2501 120.186C-29.0857 119.766 -30.9434 119.489 -32.8343 119.523C-33.0444 119.523 -33.166 119.29 -33.1107 119.113C-32.6463 117.466 -33.2987 115.785 -34.0838 114.348C-34.1944 114.137 -33.9732 113.872 -33.7521 113.961C-32.1708 114.569 -30.6117 115.066 -28.8977 115.088C-28.8203 115.088 -28.7208 115.144 -28.6876 115.221C-28.4444 115.84 -28.2343 116.471 -28.0353 117.101C-27.7478 117.974 -27.2833 118.549 -26.7083 119.124C-27.0953 118.129 -27.3165 117.123 -27.3718 116.161C-27.5708 112.523 -25.7352 109.604 -22.8934 109.051C-19.8525 108.454 -17.9838 110.356 -17.5525 112.379C-17.1766 114.071 -17.8069 116.128 -20.0295 116.659C-21.655 117.046 -22.5285 116.393 -22.9045 115.962C-23.5126 115.276 -23.6895 114.237 -23.3578 113.363C-23.1919 112.943 -22.9819 112.689 -22.5396 112.335C-21.5886 111.738 -21.1131 112.269 -20.9583 112.435C-20.5934 112.899 -20.704 113.596 -21.2126 113.994C-21.7102 114.403 -22.418 114.348 -22.7939 113.894C-22.8492 113.828 -22.8934 113.739 -22.9266 113.651C-23.1367 114.325 -22.9818 115.099 -22.5285 115.63C-22.0088 116.216 -21.1684 116.404 -20.14 116.172C-18.2492 115.719 -17.8068 113.96 -18.0391 112.49C-18.4703 109.814 -24.4746 109.548 -24.4636 113.695C-24.4636 115.387 -23.3468 117.399 -21.6992 118.715C-20.3722 119.777 -18.9127 120.219 -17.6742 119.943C-15.717 119.489 -12.9747 117.786 -11.5814 115.11C-10.2766 112.6 -10.2987 109.659 -11.6588 106.386C-13.9699 100.78 -18.3376 97.8605 -22.5506 95.0297C-27.5376 91.6903 -32.7016 88.2292 -34.4487 80.3672C-35.7756 74.4513 -35.4439 69.8403 -30.5564 67.2196C-28.0131 65.8595 -25.4035 65.8374 -22.1857 66.0253C-19.5429 66.335 -16.5463 67.1422 -13.3949 68.6349C-7.8439 71.2667 1.89797 78.0009 4.75086 93.4042C6.29894 101.775 4.65133 109.88 0.2393 116.128C0.2393 116.15 0.217208 116.183 0.195093 116.205C0.195093 116.216 0.161887 116.227 0.161887 116.238C-0.413113 117.035 -1.02127 117.82 -1.68473 118.549C-3.59771 120.673 -5.78716 122.386 -8.06505 123.603C-8.09822 123.636 -8.13136 123.658 -8.16453 123.658C-10.9953 125.151 -13.9588 125.881 -16.6679 125.66C-19.9631 125.394 -22.3737 124.299 -24.0655 122.807C-23.1035 124.145 -22.0972 125.416 -20.4718 125.991C-20.2617 126.069 -20.2396 126.312 -20.3723 126.467C-21.4007 127.628 -21.4227 129.165 -21.9977 130.547C-22.0641 130.713 -22.2963 130.835 -22.4621 130.702C-23.391 129.95 -24.3088 129.275 -25.4035 128.767C-25.5694 128.689 -25.6357 128.557 -25.6026 128.369C-25.3151 127.075 -25.5915 125.693 -25.691 124.377C-25.7132 124.111 -25.7352 123.78 -25.7352 123.437C-26.3324 128.479 -32.7016 129.651 -36.992 129.95C-37.2684 129.972 -37.3569 129.618 -37.2574 129.43C-36.4833 127.993 -35.9194 126.522 -35.466 124.952L-35.4882 125.007ZM-11.0285 115.077C-11.0727 115.166 -11.1059 115.265 -11.1501 115.354C-11.5814 116.183 -12.1011 116.891 -12.6761 117.499C-12.6761 117.499 -12.665 117.51 -12.654 117.521C-12.1564 118.472 -10.7189 118.096 -9.93381 117.72C-9.06025 117.3 -8.31933 116.493 -8.29722 115.486C-9.02703 115.509 -9.79001 115.188 -10.4424 114.911C-10.4424 114.911 -10.4424 114.911 -10.4535 114.911C-10.6194 114.967 -10.7963 115.022 -10.9732 115.077C-10.9953 115.077 -11.0064 115.077 -11.0285 115.077ZM2.95952 100.514C2.67202 100.614 2.38452 100.691 2.13019 100.724C1.4225 100.824 0.725876 100.68 0.139818 100.348C0.305684 101.764 -0.158797 103.301 -1.23139 104.208C-1.23139 104.208 -1.23138 104.219 -1.22033 104.219C-0.490517 105.236 1.06867 105.358 1.87589 105.103C2.84896 104.794 4.05422 104.285 4.39701 103.223C3.67826 102.483 3.28017 101.498 2.93738 100.525L2.95952 100.514ZM-9.64629 99.8951C-9.2261 100.238 -8.79483 100.514 -8.30829 100.747C-7.68906 101.034 -6.80446 101.244 -6.18523 101.675C-6.15205 101.653 -6.10778 101.631 -6.07461 101.609C-5.9972 101.388 -5.95301 101.123 -5.90878 100.957C-5.78715 100.481 -5.57705 100.039 -5.48859 99.5523C-5.36695 98.9331 -5.3448 98.2917 -5.31162 97.6725C-6.80441 98.6787 -8.30831 99.3975 -9.64629 99.9061V99.8951ZM-7.02562 95.3504C-7.70014 94.9855 -8.33041 94.51 -9.00493 94.1451C-9.73474 93.736 -10.4646 93.3489 -11.1833 92.9287C-11.5151 94.51 -11.6588 96.2018 -11.7804 97.8163C-9.93379 97.0864 -8.35254 96.246 -7.01455 95.3504H-7.02562ZM-6.25157 94.8086C-4.19484 93.2936 -2.73522 91.635 -1.6958 90.0538C-2.21551 89.8768 -2.93425 89.8436 -3.34339 89.8215C-3.85204 89.7883 -4.38284 89.7773 -4.89149 89.6999C-5.12371 89.6667 -6.05255 89.346 -6.55015 89.2797C-6.329 91.1153 -6.57223 92.984 -6.2405 94.8086H-6.25157ZM-2.04965 86.5374C-1.72898 87.4109 -1.45248 88.2956 -1.16498 89.1802C-0.236136 87.5547 0.305651 86.0398 0.659498 84.8787C0.559978 84.8566 0.460494 84.8345 0.349917 84.8124C-0.103449 84.7129 -0.59001 84.7018 -1.05443 84.6466C-1.7179 84.5691 -2.40349 84.4585 -3.07801 84.4475C-2.93426 84.9451 -2.20442 86.1835 -2.07172 86.5374H-2.04965ZM-0.346724 94.3109C-0.402012 93.8133 -0.402066 93.3379 -0.402066 92.8624C-1.40832 94.2888 -2.5251 95.461 -3.6751 96.4451C-2.40347 96.6331 -1.14289 96.8432 0.128749 97.0422C-0.0481739 96.1355 -0.236136 95.2398 -0.335655 94.3109H-0.346724ZM-6.10781 102.737C-5.35589 104.495 -3.45395 105.181 -1.80635 104.009C-0.545771 103.113 -0.081347 101.443 -0.424136 99.9615V99.9393C-0.601059 99.7734 -0.755859 99.5855 -0.899609 99.3754C-2.32605 100.581 -4.06213 101.742 -6.09675 102.737H-6.10781ZM-5.05732 111.373C-4.1727 110.71 -3.68616 109.493 -3.80779 108.421C-3.80779 108.387 -3.80779 108.365 -3.80779 108.332C-4.88039 108.575 -5.86456 108.266 -6.67177 107.547C-6.70494 108.83 -7.06984 110.079 -8.18667 110.875C-8.2309 110.886 -8.26407 110.92 -8.31936 110.953C-7.33522 111.638 -6.2405 112.269 -5.06839 111.373H-5.05732ZM-8.33042 111.561C-8.26408 112.313 -8.52944 113.22 -8.92752 113.773C-9.1929 114.137 -9.50255 114.414 -9.85639 114.624C-9.03812 114.956 -8.06505 115.232 -7.30207 114.657C-6.46168 114.016 -6.05249 113.175 -5.79817 112.191C-6.17413 112.28 -6.56117 112.302 -6.99242 112.258C-7.47896 112.213 -7.92129 111.882 -8.33042 111.561ZM-6.72704 106.729C-6.72704 106.729 -6.68283 106.784 -6.67177 106.817C-5.89773 107.735 -4.83617 108.199 -3.60876 107.757C-2.95636 107.525 -2.07174 107.138 -1.74001 106.474C-1.51885 106.032 -1.08758 104.971 -1.58518 104.561C-1.6073 104.539 -1.61841 104.517 -1.64052 104.495C-1.81745 104.606 -1.99437 104.694 -2.19341 104.772C-3.46505 105.269 -4.59288 105.125 -5.45538 104.451C-5.53278 105.38 -6.04149 106.143 -6.74918 106.673C-6.74918 106.696 -6.7381 106.707 -6.72704 106.729ZM0.725841 105.778C0.150841 105.778 -0.446278 105.634 -0.866471 105.313C-0.910702 105.678 -1.03233 106.065 -1.13185 106.386C-1.4304 107.271 -2.33713 107.79 -3.13329 108.122C-3.1554 108.133 -3.1886 108.144 -3.22177 108.155C-2.52513 109.062 -1.75107 109.991 -0.711647 109.648C0.161912 109.361 1.06865 108.31 1.09076 107.027C0.924899 106.607 0.803235 106.176 0.714773 105.789L0.725841 105.778ZM-3.29918 109.084C-3.3987 110.123 -3.92944 111.307 -4.79194 111.804C-4.92464 111.882 -5.0573 111.948 -5.17894 112.003C-4.7698 113.164 -3.16647 113.651 -2.17127 112.954C-1.91695 112.777 -1.0102 111.616 -0.910678 110.179C-1.89481 110.267 -2.72417 109.836 -3.28811 109.084H-3.29918ZM-4.95784 116.216C-5.0463 116.238 -5.12367 116.261 -5.20107 116.272C-5.20107 116.294 -5.17894 116.316 -5.17894 116.349C-5.15682 116.869 -5.31168 117.333 -5.57707 117.709C-4.16168 118.417 -2.72413 117.278 -2.28182 115.896C-2.71307 115.564 -3.05588 115.122 -3.26598 114.613C-3.49819 115.365 -4.2059 116.006 -4.94677 116.216H-4.95784ZM-5.32269 115.807C-4.49336 115.564 -3.64193 114.956 -3.60876 113.761C-4.31645 113.651 -4.99097 113.231 -5.4001 112.645C-5.74289 113.795 -6.36216 114.834 -7.51216 115.343C-6.8487 115.708 -6.06356 116.017 -5.32269 115.807ZM-7.82175 115.741C-7.92126 116.625 -8.45206 117.366 -9.15975 117.864C-8.7285 118.361 -7.61166 118.273 -7.06983 118.129C-6.19627 117.897 -5.64337 117.289 -5.67655 116.36C-5.67655 116.36 -5.67655 116.349 -5.67655 116.338C-6.42847 116.36 -7.14723 116.117 -7.82175 115.741ZM-9.07127 120.485C-8.59579 120.186 -7.86598 119.611 -7.82175 118.793C-7.82175 118.793 -7.82175 118.793 -7.82175 118.782C-7.82175 118.76 -7.81067 118.748 -7.79961 118.726C-8.28615 118.748 -8.80587 118.693 -9.19289 118.461C-9.21501 119.191 -10.0997 120.064 -10.6194 120.374C-10.6747 120.407 -10.7521 120.44 -10.8073 120.473C-10.2545 120.728 -9.6131 120.827 -9.07127 120.485ZM-9.28137 121.115C-8.64002 121.856 -7.62271 121.944 -6.85973 121.303C-7.00348 121.192 -7.13615 121.06 -7.24672 120.938C-7.48999 120.639 -7.65588 120.286 -7.7554 119.91C-8.05396 120.385 -8.5405 120.783 -9.00493 121.004C-9.09339 121.048 -9.19291 121.093 -9.28137 121.115ZM-10.7631 114.513C-10.1218 114.303 -9.53571 113.983 -9.2261 113.33C-8.96071 112.755 -8.68426 111.959 -8.87224 111.329C-9.30349 111.561 -9.80106 111.76 -10.1549 111.638C-10.2102 112.645 -10.4093 113.596 -10.7521 114.513H-10.7631ZM-10.1328 111.086C-10.1328 111.086 -10.0333 111.13 -9.98908 111.185C-9.94485 111.24 -8.98279 110.82 -8.91645 110.787C-8.46308 110.499 -7.94337 110.157 -7.67799 109.681C-7.20251 108.863 -7.11407 107.956 -7.14724 107.027C-7.1583 107.027 -7.16932 107.005 -7.18038 106.983C-8.34144 107.636 -9.8453 107.713 -10.929 106.95C-10.4092 108.387 -10.1328 109.77 -10.1218 111.086H-10.1328ZM-11.2497 106.143C-10.0665 107.724 -5.96406 106.906 -5.83137 104.119C-6.11887 103.81 -6.36217 103.422 -6.55015 102.98C-8.14246 103.721 -9.9227 104.34 -11.891 104.783C-11.6698 105.225 -11.4377 105.678 -11.2497 106.154V106.143ZM-12.3997 103.843C-12.267 103.212 -11.8246 102.56 -11.5371 102.018C-11.2828 101.554 -11.0175 100.935 -10.8958 100.337C-12.4992 100.824 -13.7708 101.012 -14.39 101.078C-13.6602 101.908 -12.9968 102.825 -12.3997 103.843ZM-16.0487 99.1321C-16.0487 99.1321 -16.0487 99.1653 -16.0487 99.1764C-14.9429 98.8999 -13.9146 98.5903 -12.9525 98.2586C-13.4612 97.761 -13.8593 97.1307 -14.3458 96.6552C-14.8324 96.1908 -15.3963 95.5162 -15.9934 95.0739C-16.0266 95.0739 -16.0597 95.096 -16.0929 95.1071C-16.1039 95.3614 -16.0929 95.6268 -16.115 95.8812C-16.1593 96.2461 -16.2256 96.611 -16.2366 96.9869C-16.2698 97.7167 -16.303 98.4466 -16.0598 99.1432L-16.0487 99.1321ZM-33.9953 80.1571C-33.9953 80.0907 -34.0285 80.0134 -34.0175 79.947C-34.0064 79.5379 -33.8405 79.2061 -33.741 78.8302C-33.929 78.7528 -34.1391 78.6422 -34.316 78.5095C-34.2276 79.0402 -34.117 79.5821 -33.9953 80.1461V80.1571ZM-29.1963 78.7748C-29.4838 78.5426 -29.7602 78.2662 -30.0146 77.9677C-30.1694 77.7907 -30.3131 77.5917 -30.4458 77.4037C-31.0761 77.7575 -31.6622 78.233 -32.0271 78.7085C-32.4583 79.2614 -32.6131 79.8364 -32.403 80.1129C-32.1929 80.3893 -31.5958 80.3893 -30.9545 80.1018C-30.3684 79.8475 -29.716 79.3609 -29.1963 78.7859V78.7748ZM-29.2074 82.7446C-28.8757 82.9105 -28.3449 82.6451 -27.9026 82.1032C-27.4824 81.6056 -27.1064 80.8316 -26.9074 80.0465C-26.9074 80.0354 -26.8963 80.0244 -26.8963 80.0134C-27.4381 79.8475 -27.9689 79.6153 -28.4665 79.3057C-28.953 79.9359 -29.3401 80.6879 -29.4838 81.3182C-29.6497 82.0037 -29.5391 82.5898 -29.2185 82.7446H-29.2074ZM-30.9102 76.5744C-31.1867 75.9994 -31.3636 75.3802 -31.43 74.7499C-32.1156 74.8273 -32.7679 75.0042 -33.2545 75.2585C-33.8737 75.5902 -34.2497 76.0436 -34.1723 76.3864C-34.0838 76.7292 -33.542 76.9614 -32.8453 76.9614C-32.2703 76.9614 -31.5626 76.8176 -30.9102 76.5633V76.5744ZM-23.4795 66.4677C-24.1208 66.4234 -24.729 66.4234 -25.304 66.4345C-27.228 66.5008 -28.8314 66.8657 -29.9372 67.4739C-33.6636 69.5085 -34.7804 72.2951 -34.6145 75.9109C-34.4819 75.546 -34.1501 75.2032 -33.6636 74.9157C-33.6083 74.8825 -33.5531 74.8494 -33.4867 74.8162C-32.9449 74.5287 -32.204 74.3297 -31.4631 74.2523C-31.4631 73.5335 -31.3305 72.8037 -31.0098 72.1071C-30.0478 70.0061 -27.6482 68.6128 -25.4256 69.7407C-23.6232 70.6474 -22.7497 73.3345 -24.718 74.6061C-25.6357 75.2033 -27.1396 74.9157 -27.4713 73.7547C-27.7256 72.8258 -26.4871 71.51 -25.7684 72.5936C-26.3323 71.8859 -27.2612 72.5273 -27.2944 73.2681C-27.3275 74.1749 -26.266 74.7167 -25.4809 74.4734C-23.4131 73.8542 -24.143 71.2225 -25.6136 70.4595C-27.2502 69.608 -29.0415 70.5037 -29.915 71.9855C-31.054 73.9206 -30.4348 76.1321 -28.9309 77.647C-25.8348 80.7542 -20.7925 79.2503 -19.3992 75.1922C-18.1829 71.6537 -19.9963 67.5292 -23.4795 66.4455V66.4677ZM-26.0117 82.5124C-25.8458 83.1979 -25.4698 83.6624 -25.0939 83.6513C-24.729 83.6403 -24.3862 83.1537 -24.2535 82.4681C-24.1208 81.8379 -24.1429 81.0085 -24.3198 80.2455C-24.8948 80.3119 -25.4809 80.2898 -26.0448 80.2013C-26.0448 80.2124 -26.0448 80.2234 -26.0448 80.2345C-26.1996 81.0306 -26.1776 81.8931 -26.0117 82.5124ZM-18.3598 73.8984C-17.7516 73.9648 -16.867 73.9537 -16.1372 73.7215C-15.4626 73.5225 -15.0093 73.1355 -15.0203 72.8037C-15.0314 72.472 -15.5179 72.1292 -16.2035 71.9855C-16.8338 71.8417 -17.6853 71.8417 -18.4372 71.9855C-18.3377 72.6158 -18.3045 73.2571 -18.3487 73.8984H-18.3598ZM-16.4247 75.6234C-16.9554 75.2585 -17.7184 74.9489 -18.4814 74.8052C-18.5588 75.1811 -18.6583 75.546 -18.791 75.8999C-18.8794 76.1321 -18.979 76.3422 -19.0785 76.5523C-18.415 76.9283 -17.6631 77.1937 -17.0439 77.2489C-16.3473 77.3263 -15.7723 77.1605 -15.6617 76.8287C-15.5401 76.5081 -15.8607 75.9994 -16.4467 75.6124L-16.4247 75.6234ZM-18.0612 78.8855C-18.3819 78.3547 -18.9237 77.7907 -19.5319 77.3595C-19.8968 77.9124 -20.328 78.3768 -20.8146 78.7859C-20.3612 79.3388 -19.7972 79.8475 -19.2775 80.135C-18.6693 80.4778 -18.0833 80.5552 -17.8511 80.3119C-17.6078 80.0686 -17.6963 79.4826 -18.0612 78.8855ZM-20.8367 81.2408C-20.9362 80.6436 -21.2348 79.9359 -21.5886 79.3388C-22.1636 79.6816 -22.7718 79.9359 -23.4132 80.1018C-23.1809 80.8205 -22.816 81.5172 -22.3958 81.9927C-21.9424 82.5234 -21.4117 82.7998 -21.1131 82.645C-20.8256 82.4902 -20.704 81.9374 -20.8367 81.2408ZM-15.9381 68.8672C-16.0819 68.5465 -16.6679 68.4028 -17.3424 68.5355C-17.9616 68.635 -18.7025 68.9778 -19.3549 69.4201C-19.0564 69.9508 -18.8242 70.5037 -18.6583 71.0898C-17.9174 70.9018 -17.1544 70.5369 -16.6458 70.1278C-16.0818 69.6855 -15.8054 69.1879 -15.9381 68.8672ZM-13.627 69.1436C-13.8924 69.022 -14.1468 68.9004 -14.4011 68.8008C-14.3016 69.5417 -14.8545 70.183 -15.3631 70.7138C-14.4896 71.1782 -13.5828 71.9191 -13.6602 73.0138C-13.7045 73.7879 -14.2241 74.4955 -14.9208 74.8604C-14.3789 75.347 -14.0915 76.4196 -14.2905 76.9614C-14.5891 77.8239 -15.4295 78.6643 -16.3583 78.7196C-15.9934 79.7148 -16.2146 80.7542 -17.0881 81.4951C-17.7405 82.0479 -18.6141 82.3244 -19.3329 81.9705C-19.543 83.8061 -21.8982 85.1441 -23.0482 83.5629C-23.4021 84.4364 -24.2204 85.1331 -25.1382 85.3211C-26.255 85.5533 -26.9516 84.7018 -27.2391 83.7508C-27.8251 84.3922 -28.9199 84.7129 -29.6939 84.547C-30.866 84.2927 -31.3747 83.1206 -31.242 82.0148C-31.64 82.1475 -31.9497 82.2691 -32.4251 82.1364C-32.8564 82.0259 -33.2655 81.672 -33.5088 81.3182C-33.6857 81.0749 -33.8516 80.7653 -33.9622 80.4556C-33.4646 82.5898 -32.7348 84.3811 -31.817 85.9181C-28.6213 86.648 -12.9526 88.4061 -11.4598 70.2936C-12.2449 69.8402 -12.9747 69.4532 -13.6602 69.1436H-13.627ZM-9.40299 71.6205C-8.6953 76.5523 -14.755 90.9273 -30.3242 88.0191C-28.743 89.9763 -26.83 91.5023 -24.7954 92.9398C-24.8507 92.8403 -24.8727 92.7297 -24.8285 92.6302C-24.5189 91.9225 -23.1699 89.722 -22.7607 89.0475C-22.6501 88.8706 -22.3295 88.7932 -22.1636 88.9037C-21.3454 89.5009 -19.2886 91.1484 -18.7578 91.6903C-18.5477 91.9114 -18.99 92.5638 -19.2222 92.3648C-20.0073 91.7013 -21.8429 89.91 -22.3847 89.5782C-22.9487 90.6398 -23.4241 91.9114 -24.1097 93.0725C-24.165 93.1941 -24.2867 93.2273 -24.3972 93.2052C-23.7006 93.6917 -22.9929 94.1672 -22.2742 94.6427C-22.0198 94.8196 -21.7655 94.9855 -21.5223 95.1513C-15.0314 95.3946 -8.80591 90.2638 -6.67177 87.7095C-3.75253 84.2263 -2.62462 80.3783 -2.42558 78.0783C-4.64818 75.2364 -7.10299 73.1575 -9.40299 71.6095V71.6205ZM-1.64052 79.1287C-1.64052 79.4051 -1.67365 79.7148 -1.72894 80.0244C-0.755859 81.296 -0.0482171 82.7778 0.913804 84.0715C0.958034 83.9167 1.00233 83.773 1.04656 83.6513C0.21723 81.9706 -0.678504 80.4777 -1.64052 79.1287ZM2.48405 87.0239C1.99751 88.5388 1.41144 89.8768 0.747978 91.071C1.20134 91.1927 1.64363 91.3254 2.10805 91.4249C2.72729 91.5576 3.31335 91.7787 3.91047 91.9335C3.51239 90.1864 3.03693 88.5499 2.48405 87.035V87.0239ZM4.24218 93.548C4.22007 93.4595 4.20902 93.371 4.18691 93.2715C3.44604 94.7201 1.92007 96.9206 -0.523685 99.0658C0.0844889 99.9725 1.16818 100.47 2.27395 100.216C3.14751 100.017 4.45232 99.3533 4.76193 98.2365C4.69559 96.6884 4.52967 95.1182 4.23112 93.5369L4.24218 93.548ZM4.79507 99.309C4.46334 99.7514 3.94363 100.105 3.41286 100.36C3.43497 100.382 3.44607 100.393 3.45713 100.426C3.74463 101.244 4.07637 102.096 4.64031 102.748C4.76195 101.62 4.81719 100.47 4.79507 99.309ZM4.46335 104.186C3.77777 105.048 2.58354 105.523 1.55517 105.723C1.45565 105.745 1.35617 105.767 1.24559 105.778C1.49992 106.906 2.10804 108.575 3.40179 108.719C3.87727 107.26 4.23114 105.734 4.46335 104.186ZM2.5946 110.875C2.82681 110.323 3.03692 109.759 3.23596 109.195C2.43981 109.051 1.85375 108.476 1.44462 107.768C1.32298 108.708 0.626349 109.648 -0.214037 110.024C0.327791 110.632 1.62155 111.384 2.4177 110.909C2.47299 110.875 2.53931 110.864 2.5946 110.875ZM2.34029 111.473C1.41144 111.749 0.183995 111.141 -0.46841 110.466C-0.623218 111.052 -0.667408 111.683 -0.910678 112.236C-0.545773 112.468 -0.20302 112.722 0.228231 112.833C0.670539 112.943 1.24559 113.098 1.66579 112.855C1.90906 112.401 2.13019 111.937 2.34029 111.473ZM-0.225105 115.962C0.338838 115.166 0.85852 114.325 1.334 113.485C0.969097 113.518 0.593157 113.452 0.250368 113.363C-0.280402 113.22 -0.689548 112.943 -1.14291 112.667C-1.14291 112.667 -1.14292 112.667 -1.15398 112.678C-1.60735 113.253 -2.14916 113.607 -2.86791 113.761C-2.90109 113.761 -2.92322 113.773 -2.95639 113.784C-2.91216 114.436 -2.54724 115.044 -2.03859 115.464C-1.68474 115.741 -0.68954 116.36 -0.236174 115.973L-0.225105 115.962ZM-2.07172 118.273C-1.57413 117.731 -1.12082 117.156 -0.678509 116.57C-1.06553 116.537 -1.49677 116.371 -1.83956 116.183C-2.27081 117.344 -3.27702 118.295 -4.42702 118.428C-4.3275 118.936 -3.87413 119.644 -3.38759 119.633C-2.93423 119.202 -2.49192 118.748 -2.07172 118.273ZM-5.4001 121.225C-5.4001 121.225 -5.30058 121.225 -5.25635 121.225C-4.76981 120.849 -4.29435 120.451 -3.82993 120.031C-4.41599 119.777 -4.8583 119.025 -4.9357 118.417C-5.25637 118.384 -5.57705 118.284 -5.90878 118.096C-6.22946 118.373 -6.62754 118.572 -7.09197 118.649C-7.15831 118.66 -7.23573 118.671 -7.31313 118.682C-7.31313 118.715 -7.30208 118.737 -7.31313 118.771C-7.37948 119.357 -7.31313 119.987 -6.95928 120.473C-6.63861 120.927 -5.99722 121.447 -5.4001 121.225ZM-8.27515 123.183C-8.054 123.072 -7.84387 122.961 -7.62271 122.829C-7.05877 122.497 -6.50588 122.132 -5.95299 121.745C-6.1078 121.712 -6.26264 121.668 -6.40639 121.59C-7.45688 122.608 -9.0381 122.409 -9.83426 121.203C-10.3761 121.203 -10.9179 121.015 -11.3824 120.739C-11.7583 120.872 -12.1563 120.916 -12.4991 120.805C-11.6366 122.044 -9.88956 122.674 -8.26408 123.183H-8.27515ZM-12.9415 119.932C-12.3996 120.739 -11.2386 120.197 -10.741 119.854C-10.4646 119.666 -9.50252 118.749 -9.6905 118.35C-9.72367 118.295 -9.7237 118.24 -9.71264 118.185C-9.85639 118.251 -9.9891 118.317 -10.1439 118.361C-11.0617 118.66 -12.3222 118.859 -12.9525 117.986C-13.1184 118.737 -13.0963 119.379 -12.9304 119.921L-12.9415 119.932ZM-22.4511 130.005C-21.9977 128.756 -21.8208 127.484 -21.0136 126.411C-21.7655 126.047 -22.4069 125.538 -22.9597 124.952C-22.8934 125.461 -23.203 125.991 -23.7006 126.146C-24.2756 126.334 -24.7511 125.571 -24.9723 125.14C-24.8949 126.212 -24.7953 127.285 -24.9723 128.358C-24.0545 128.811 -23.2362 129.375 -22.4401 130.016L-22.4511 130.005ZM-28.8314 116.117C-29.1299 115.365 -30.1141 115.586 -30.7997 115.442C-31.6401 115.265 -32.4472 115.022 -33.2434 114.735C-32.6021 116.039 -32.1819 117.466 -32.4141 118.903C-31.4078 118.903 -30.4127 118.981 -29.4175 119.113C-29.9483 118.87 -30.3574 118.406 -30.1473 117.786C-29.7602 116.625 -28.0131 118.185 -27.1064 119.158C-27.0732 119.158 -27.0511 119.169 -27.0179 119.18C-27.8915 118.339 -28.3006 117.433 -28.8093 116.128L-28.8314 116.117ZM-26.3766 122.552C-26.3766 122.552 -26.3766 122.508 -26.3655 122.486C-26.454 122.464 -26.5424 122.431 -26.6198 122.398C-26.8189 122.939 -27.029 123.481 -27.2059 124.045C-27.416 124.72 -27.6482 125.427 -28.1569 125.936C-28.3449 126.124 -28.6434 125.848 -28.4997 125.637C-28.0242 124.93 -27.7035 124.233 -27.416 123.437C-27.3829 123.337 -27.3497 123.249 -27.3054 123.149C-27.9578 124.355 -28.9199 125.427 -29.6165 126.577C-29.7381 126.787 -30.092 126.622 -30.0035 126.389C-29.6828 125.604 -29.1189 124.963 -28.5992 124.299C-28.0353 123.592 -27.5819 122.818 -27.1175 122.044C-27.1727 121.988 -27.217 121.933 -27.2612 121.878C-28.3559 123.481 -29.7381 124.93 -31.242 126.146C-31.4852 126.345 -31.7728 126.013 -31.5627 125.781C-30.2358 124.377 -28.6766 123.172 -27.3054 121.789C-27.3497 121.723 -27.3718 121.646 -27.3939 121.557C-28.0463 122.353 -29.0747 123.017 -29.8377 123.669C-30.4237 124.167 -31.1535 125.029 -31.9497 125.073C-32.0492 125.073 -32.0824 124.963 -32.0492 124.886C-31.6511 124.111 -30.5122 123.581 -29.8266 123.061C-29.0526 122.475 -28.3117 121.834 -27.4381 121.391C-27.4492 121.314 -27.4381 121.248 -27.4492 121.17C-28.1237 121.469 -28.7982 121.767 -29.4728 122.066C-30.4348 122.497 -31.2309 123.127 -32.1487 123.603C-32.3477 123.702 -32.5136 123.47 -32.4141 123.304C-31.9386 122.486 -30.7886 122.121 -29.9593 121.778C-29.1963 121.469 -28.3006 120.96 -27.4492 120.894C-27.4381 120.761 -27.4049 120.628 -27.3607 120.496C-27.3828 120.518 -27.4049 120.529 -27.4381 120.518C-30.2578 120.363 -33.1439 120.451 -34.4155 123.426C-34.8689 124.487 -35.0127 125.726 -35.3665 126.821C-35.6319 127.672 -35.9857 128.479 -36.3838 129.264C-32.2151 128.899 -26.255 127.672 -26.3545 122.519L-26.3766 122.552Z" fill="#F0DEAB"/>
<path d="M-2.93356 131.399C-2.81193 131.399 -2.70136 131.421 -2.59078 131.432C0.582784 129.232 3.47991 126.633 5.77992 123.548C8.32319 120.186 10.1035 116.261 10.9881 112.125C11.8727 107.99 11.8948 103.699 11.2977 99.5195C10.7006 95.3286 9.52846 91.2151 7.83663 87.3339H7.86984C9.6059 91.193 10.8223 95.2954 11.4747 99.4974C12.105 103.688 12.1271 108.012 11.2646 112.192C10.8444 114.282 10.192 116.327 9.32946 118.273C8.4559 120.22 7.35012 122.066 6.06743 123.758C3.72319 126.821 0.792886 129.386 -2.44702 131.443C0.781828 131.941 0.770755 137.359 -3.70762 136.065C-4.89079 135.722 -7.76575 135.689 -7.2571 139.316C-7.2571 139.316 -7.25711 139.327 -7.26817 139.338C-7.11336 139.67 -7.52253 139.924 -7.78791 139.648C-9.59032 137.79 -9.21433 135.667 -7.89846 133.964C-6.71529 132.438 -4.82443 131.399 -2.93356 131.399Z" fill="#F0DEAB"/>
<path d="M-16.4128 128.999C-15.2407 128.092 -13.7258 127.573 -12.2551 127.595C-8.52864 126.202 -4.93491 124.41 -1.84981 121.911C1.34586 119.368 3.93339 116.062 5.50359 112.291C7.08484 108.509 7.67088 104.374 7.5603 100.282C7.46079 96.1798 6.6978 92.1106 5.54779 88.174H5.581C6.78629 92.0885 7.59352 96.1577 7.73727 100.271C7.88102 104.374 7.3281 108.553 5.76896 112.39C4.99492 114.303 3.96654 116.117 2.71702 117.776C1.4675 119.423 -0.00315284 120.894 -1.61758 122.188C-4.73585 124.642 -8.3517 126.401 -12.1003 127.617C-11.7022 127.628 -11.3152 127.683 -10.9392 127.772C-7.34546 128.701 -8.66133 134.583 -12.8743 132.095C-13.9248 131.465 -16.7003 130.713 -17.1205 134.351C-17.1205 134.351 -17.1205 134.362 -17.1426 134.373C-17.0762 134.738 -17.5296 134.882 -17.7176 134.55C-18.9892 132.305 -18.0935 130.337 -16.3907 129.021L-16.4128 128.999Z" fill="#F0DEAB"/>
<path d="M8.89831 132.693C11.331 129.983 13.2219 126.81 14.4272 123.393C15.1459 121.436 15.6545 119.401 15.9863 117.344C16.3291 115.288 16.495 113.198 16.5171 111.108C16.5503 106.928 16.0195 102.748 15.0906 98.668C14.6262 96.6223 14.0512 94.6098 13.3545 92.6305C13.0117 91.6464 12.6358 90.6622 12.2156 89.7002C11.7844 88.7492 11.3531 87.7872 10.7449 86.9357L10.7781 86.9137C11.3974 87.7651 11.8397 88.7271 12.282 89.6781C12.7132 90.6401 13.1002 91.6132 13.4541 92.5973C14.1728 94.5766 14.7589 96.5891 15.2565 98.6348C16.2296 102.715 16.7935 106.906 16.7935 111.119C16.7935 113.22 16.6497 115.332 16.3291 117.411C15.9973 119.49 15.4887 121.546 14.7589 123.526C13.4983 126.92 11.5743 130.072 9.07521 132.682C12.7243 132.184 13.7747 138.078 8.94252 137.414C7.72617 137.248 4.87328 137.624 5.90165 141.141C5.90165 141.141 5.90165 141.152 5.90165 141.163C6.10069 141.472 5.7358 141.782 5.43725 141.55C3.39157 139.98 3.44683 137.823 4.50837 135.944C5.42616 134.296 7.09593 133.024 8.92045 132.715L8.89831 132.693Z" fill="#F0DEAB"/>
<path d="M5.2267 23.7189C5.89016 23.8406 6.32139 24.4598 6.24399 25.1233C7.02908 25.267 7.81418 25.4329 8.58821 25.6098C8.76514 25.2228 9.18533 24.9795 9.62764 25.0569C10.1031 25.1454 10.4238 25.5766 10.3906 26.0521C13.7632 26.9478 17.0584 28.1641 20.2209 29.668C17.0363 28.2526 13.7301 27.1026 10.3575 26.2622C10.2248 26.7155 9.76034 27.0031 9.28486 26.9146C8.7762 26.8261 8.44447 26.3396 8.52187 25.831C7.74783 25.6651 6.96274 25.5103 6.17764 25.3776C5.9786 25.9526 5.38152 26.3064 4.76229 26.1958C4.17623 26.0853 3.76711 25.5877 3.73393 25.0126C3.0373 24.9242 2.34063 24.8468 1.63294 24.7805C1.37861 25.4992 0.637774 25.9526 -0.136266 25.8088C-0.777613 25.6872 -1.2531 25.2006 -1.38579 24.6035C-1.87233 24.5925 -2.35888 24.5815 -2.84542 24.5815C-3.13292 24.5815 -3.42045 24.5815 -3.70795 24.5815C-3.70795 24.6257 -3.70791 24.6699 -3.73002 24.7141C-3.918 25.7425 -4.90219 26.417 -5.93056 26.229C-6.71566 26.0853 -7.29064 25.4771 -7.43439 24.7473C-7.96516 24.7915 -8.49594 24.8357 -9.02671 24.891C-9.00459 25.0901 -9.0156 25.3002 -9.04878 25.5103C-9.26993 26.7045 -10.42 27.5007 -11.6252 27.2795C-12.543 27.1137 -13.2176 26.3949 -13.3834 25.5435C-17.696 26.3617 -21.92 27.6776 -25.9561 29.4247C-25.0383 28.9935 -24.5849 28.8054 -24.5959 28.8165C-20.9911 27.2463 -17.2425 26.0742 -13.4055 25.3112C-13.4276 25.1122 -13.4056 24.9132 -13.3834 24.7141C-13.1623 23.5199 -12.0123 22.7237 -10.818 22.9449C-9.92238 23.1107 -9.25889 23.7853 -9.07091 24.6146C-8.54014 24.5593 -8.00936 24.504 -7.46753 24.4598C-7.46753 24.316 -7.46757 24.1723 -7.43439 24.0286C-7.24641 23.0002 -6.26229 22.3257 -5.23392 22.5137C-4.36036 22.6795 -3.73006 23.4204 -3.69688 24.2829C-3.51996 24.2829 -3.35406 24.2829 -3.17714 24.2829C-2.59108 24.2829 -2.00506 24.2829 -1.419 24.305C-1.419 24.1944 -1.41898 24.0949 -1.39686 23.9843C-1.24205 23.1328 -0.412754 22.569 0.438689 22.7238C1.27908 22.8786 1.83198 23.6747 1.69928 24.504C2.38486 24.5704 3.05936 24.6477 3.74493 24.7362C3.87763 24.0506 4.53005 23.5973 5.21563 23.73L5.2267 23.7189Z" fill="#F0DEAB"/>
<path d="M11.32 15.9454C10.7008 15.857 10.2806 15.293 10.358 14.6738C9.4181 14.5079 8.46713 14.3531 7.51617 14.2314C7.29501 14.9391 6.59837 15.3925 5.84644 15.2819C5.13875 15.1714 4.608 14.5853 4.55271 13.8997C3.70127 13.8223 2.84983 13.756 1.99838 13.7118C1.72194 14.5964 0.848365 15.1714 -0.0915406 15.0276C-0.86558 14.917 -1.46267 14.342 -1.65065 13.6343C-2.23671 13.6343 -2.83386 13.6454 -3.41992 13.6675C-3.76271 13.6675 -4.11656 13.6896 -4.45935 13.7118C-4.45935 13.767 -4.45936 13.8113 -4.47042 13.8666C-4.6584 15.1161 -5.81942 15.9786 -7.05788 15.7906C-8.00885 15.6579 -8.72762 14.9392 -8.94878 14.0656C-9.59012 14.143 -10.2314 14.2204 -10.8617 14.3199C-10.8286 14.5632 -10.8286 14.8175 -10.8617 15.0718C-11.0829 16.5314 -12.4319 17.5267 -13.8915 17.3166C-14.9973 17.1507 -15.8487 16.3214 -16.092 15.293C-21.267 16.4762 -26.3094 18.2454 -31.1084 20.5454C-30.0247 19.9925 -29.483 19.7382 -29.494 19.7493C-25.2036 17.6926 -20.7363 16.1113 -16.1363 15.0166C-16.1695 14.7843 -16.1695 14.541 -16.1363 14.2978C-15.9262 12.8382 -14.5661 11.8319 -13.1065 12.0531C-12.0228 12.2079 -11.1935 13.0041 -10.9281 13.9993C-10.2867 13.8997 -9.6454 13.8113 -9.00405 13.7339C-9.01511 13.557 -9.0151 13.3911 -8.99298 13.2031C-8.805 11.9536 -7.64397 11.0911 -6.39445 11.279C-5.32185 11.4339 -4.54781 12.3074 -4.45935 13.3468C-4.24925 13.3468 -4.03916 13.3248 -3.84012 13.3137C-3.13243 13.2805 -2.42468 13.2694 -1.71699 13.2694C-1.71699 13.1367 -1.71705 13.0151 -1.70599 12.8824C-1.55118 11.843 -0.589137 11.1242 0.461345 11.279C1.47865 11.4339 2.18636 12.3627 2.06473 13.369C2.89405 13.4132 3.72337 13.4795 4.54164 13.5569C4.66328 12.7276 5.43731 12.1526 6.26664 12.2743C7.07385 12.3959 7.62671 13.1257 7.54931 13.9219C8.50027 14.0545 9.46231 14.2204 10.4022 14.3973C10.5902 13.9218 11.0878 13.6122 11.6296 13.6896C12.2046 13.7781 12.6137 14.2867 12.6027 14.8507C16.7162 15.7795 20.7522 17.1064 24.6335 18.7872C20.7301 17.217 16.683 15.9786 12.5695 15.105C12.4258 15.6579 11.884 16.0339 11.309 15.9454H11.32Z" fill="#F0DEAB"/>
<path d="M0.737726 1.7359C0.229072 1.75802 -0.213253 1.37101 -0.246426 0.851297C-1.04258 0.862354 -1.8387 0.895547 -2.62379 0.939777C-2.69014 1.54795 -3.18774 2.0345 -3.80698 2.05662C-4.40409 2.08979 -4.92383 1.69169 -5.07864 1.13881C-5.77527 1.21621 -6.48293 1.29359 -7.17956 1.39311C-7.25697 2.1561 -7.87623 2.75323 -8.66133 2.79746C-9.31373 2.83064 -9.8887 2.46575 -10.1541 1.91286C-10.6296 2.01238 -11.1162 2.11186 -11.5806 2.22244C-11.857 2.28879 -12.1335 2.35513 -12.4099 2.42147C-12.4099 2.4657 -12.4099 2.50993 -12.3988 2.55416C-12.3546 3.59358 -13.1508 4.47824 -14.2012 4.53353C-14.9974 4.57776 -15.694 4.11335 -16.0037 3.43883C-16.5123 3.6047 -17.021 3.77052 -17.5186 3.94744C-17.4522 4.13542 -17.408 4.34551 -17.3969 4.5556C-17.3417 5.77195 -18.2815 6.80035 -19.4979 6.86669C-20.4267 6.91092 -21.245 6.36911 -21.6099 5.57296C-25.6239 7.35325 -29.4387 9.60899 -32.9551 12.2407C-32.1589 11.6104 -31.772 11.3229 -31.772 11.334C-28.6205 8.97869 -25.2479 6.97728 -21.6873 5.35179C-21.7537 5.16381 -21.7868 4.9758 -21.7979 4.7657C-21.8532 3.54935 -20.9132 2.50997 -19.6969 2.45468C-18.7902 2.41045 -17.994 2.91909 -17.618 3.68207C-17.1094 3.50514 -16.6118 3.32825 -16.0921 3.16239C-16.1363 3.02969 -16.1584 2.88593 -16.1695 2.73112C-16.2137 1.6917 -15.4176 0.807036 -14.3671 0.751748C-13.4714 0.707517 -12.6974 1.29362 -12.4652 2.11189C-12.2993 2.06766 -12.1334 2.02345 -11.9676 1.99027C-11.3926 1.85758 -10.8286 1.72486 -10.2536 1.61428C-10.2758 1.51476 -10.2978 1.40421 -10.2978 1.29363C-10.3421 0.431131 -9.66758 -0.309792 -8.80508 -0.354023C-7.95364 -0.398254 -7.23491 0.24309 -7.16856 1.09453C-6.49404 1.00607 -5.80842 0.917643 -5.12285 0.851297C-5.15602 0.154661 -4.61417 -0.4314 -3.92859 -0.464573C-3.25407 -0.497746 -2.69014 0.0109299 -2.62379 0.663335C-1.82764 0.619104 -1.0315 0.596991 -0.224289 0.596991C-0.146885 0.176798 0.206948 -0.154947 0.660314 -0.177062C1.14685 -0.199177 1.55599 0.143636 1.6334 0.60806C5.12763 0.707579 8.61084 1.13879 12.0277 1.87966C8.61084 1.22725 5.12764 0.87338 1.64447 0.818091C1.61129 1.29357 1.23533 1.68065 0.748795 1.70276L0.737726 1.7359Z" fill="#F0DEAB"/>
<path d="M12.492 139.847C12.4588 139.217 12.7905 138.719 13.1333 138.233C14.0732 136.895 15.5218 136.607 16.9925 136.563C16.4396 135.888 16.0747 135.203 16.1631 134.208C16.2958 132.726 17.7002 131.465 19.016 131.045C21.117 130.37 20.5641 129.995 21.8468 129.132C22.3333 128.8 22.8641 128.491 23.4944 128.557C24.7881 128.69 25.4847 129.32 26.1482 130.16C26.5905 127.075 30.3833 125.218 32.7275 127.717C34.1761 126.489 35.6026 126.423 37.1838 127.805C38.0132 128.535 38.5329 129.983 38.3338 131.178C40.3684 129.829 43.4425 131.211 43.6194 133.832C45.3334 133.92 46.5054 134.639 46.8814 136.441C47.3016 138.42 45.8752 140.345 44.7141 141.284C46.1295 141.528 47.7108 142.036 48.3632 143.352C49.0709 144.79 49.2035 146.227 48.4295 147.598C50.8954 150.418 46.7376 153.183 43.6968 153.326C44.9021 154.41 45.3997 156.024 44.3713 157.572C43.5973 158.745 41.9718 160.735 40.3795 160.204C39.2405 162.902 35.9343 162.349 34.2646 160.403C33.9881 161.885 32.5396 163.566 31.4449 164.063C29.6978 164.848 27.8511 164.749 26.8228 163.112C24.0805 164.307 21.7473 161.21 21.703 158.446C21.0285 159.132 20.2987 159.574 19.1376 159.463C18.3526 159.386 17.6227 158.866 17.0367 158.391C15.953 157.462 16.0194 155.914 14.9247 154.963C13.4982 153.713 12.4367 153.194 12.7131 151.082C12.8679 149.898 13.8078 148.815 14.8583 148.162C12.503 147.643 10.8444 145.232 12.0828 142.799C12.6689 141.627 12.5583 141.074 12.492 139.858V139.847ZM24.6222 131.045C23.2953 130.713 22.4107 131.731 21.7583 132.726C21.7583 133.058 21.4376 133.223 21.2386 133.124C20.0775 133.013 18.9718 133.19 18.441 134.971C17.9987 136.485 19.2372 137.481 20.2434 138.354C21.3492 139.316 22.7203 139.958 24.0915 140.455C24.5448 139.969 25.0646 139.891 25.5732 140.024C25.5732 140.024 25.5622 140.024 25.5511 140.024C24.4896 138.808 23.3396 137.558 22.0237 136.795C23.417 137.392 24.6997 138.52 25.8939 139.593C24.7439 137.47 23.5496 135.291 22.0126 133.522C23.7487 135.236 25.153 137.425 26.5131 139.515C26.3362 138.089 26.0708 136.53 25.3189 135.468C26.1371 136.331 26.6016 137.669 26.9555 138.929C26.9776 138.885 26.9775 138.852 26.9997 138.819C27.254 138.343 27.6852 138.045 28.1718 137.912C28.0723 136.463 27.6631 134.827 27.254 133.467C26.8448 132.084 25.9492 131.388 24.6112 131.045H24.6222ZM24.8877 149.666C25.4295 149.699 25.9382 149.257 26.3362 148.958C26.4247 148.881 26.5242 148.859 26.6347 148.859C26.2145 148.461 25.8607 147.985 25.5953 147.466C25.5843 147.466 25.5732 147.477 25.5622 147.466C24.8655 147.698 23.8924 148.063 24.0141 148.981C24.0694 149.423 24.4785 149.633 24.8766 149.666H24.8877ZM26.9997 148.24C28.3487 149.611 30.5823 149.733 32.3074 149.191C35.89 148.074 35.1824 143.341 32.5949 141.815C33.1367 142.357 33.5126 143.076 33.6011 143.938C33.8665 146.437 31.5333 149.257 28.9569 147.421C27.4531 146.36 27.0107 143.098 29.3881 142.821C30.7371 142.656 32.241 144.48 31.1242 145.586C30.7924 145.918 30.2175 145.453 30.5492 145.121C31.3233 144.347 28.979 142.258 28.4372 144.878C28.1054 146.504 29.9521 147.41 31.279 147.079C33.0261 146.647 33.1146 144.513 32.5838 143.175C31.3785 140.134 27.4198 141.406 26.1593 143.618C25.3078 145.11 25.8386 147.046 26.9775 148.207L26.9997 148.24ZM26.9775 150.86C26.9222 151.325 27.1545 151.767 27.5304 152.033C28.6362 152.829 29.4434 151.391 29.5982 150.496C29.6093 150.407 29.6425 150.308 29.6977 150.208C28.9679 150.142 28.2934 149.921 27.6852 149.6C27.6189 149.677 27.5415 149.766 27.4751 149.865C27.3314 150.097 26.9886 150.717 26.9775 150.849V150.86ZM30.7814 150.219C30.8588 150.341 30.9141 150.473 30.9141 150.595C30.9472 151.325 31.0136 152.353 31.9314 152.508C32.3627 152.585 32.6833 152.243 32.8271 151.867C32.993 151.391 32.628 150.385 32.429 149.876C31.8982 150.053 31.3343 150.175 30.7814 150.219ZM36.4319 141.771C35.9564 140.499 34.4857 141.229 33.8555 141.882C33.8223 141.904 33.8002 141.915 33.778 141.926C34.2978 142.434 34.7401 143.054 35.0497 143.706C35.3925 143.662 36.1555 143.142 36.2218 143.054C36.5314 142.7 36.5867 142.202 36.4209 141.771H36.4319ZM36.5646 140.787C36.4983 140.732 36.4429 140.687 36.3655 140.643C36.4319 140.687 36.4983 140.732 36.5646 140.787ZM35.4809 144.779H35.4588C35.481 144.878 35.5141 144.978 35.5362 145.077C35.6468 145.586 35.6468 146.05 35.5915 146.493C35.8237 146.548 36.078 146.592 36.3213 146.592C36.5867 146.537 36.8521 146.459 37.1175 146.393C37.2502 146.305 37.3718 146.161 37.4492 145.984C37.6483 145.586 37.405 145.188 37.0843 144.945C36.653 144.624 35.9785 144.723 35.4809 144.779ZM35.6136 147.233C35.6799 147.233 35.7463 147.233 35.8126 147.256C35.7463 147.256 35.6799 147.245 35.6136 147.233ZM36.7084 146.559C36.5867 146.581 36.454 146.592 36.3213 146.592C36.454 146.592 36.5867 146.592 36.7084 146.559ZM37.0954 147.189C37.0954 147.189 37.1838 147.167 37.228 147.156C37.1838 147.167 37.1396 147.178 37.0954 147.189ZM36.5977 147.278C36.5977 147.278 36.7083 147.278 36.7526 147.256C36.6973 147.256 36.642 147.267 36.5977 147.278ZM36.0891 147.278C36.1444 147.278 36.1997 147.278 36.266 147.278C36.2107 147.278 36.1554 147.278 36.0891 147.278ZM35.1271 147.82C34.7621 148.439 34.2204 148.947 33.5901 149.334C33.6343 149.401 33.6675 149.478 33.7006 149.545C33.8333 149.777 34.3862 150.241 34.5189 150.296C34.9501 150.484 35.4478 150.374 35.8016 150.086C36.7636 149.312 35.9011 148.284 35.1271 147.808V147.82ZM33.7338 150.706C33.6343 150.639 33.5237 150.551 33.4242 150.451C33.5237 150.551 33.6233 150.628 33.7338 150.706C33.8776 150.805 34.0434 150.883 34.2093 150.949C34.0434 150.883 33.8776 150.794 33.7338 150.695V150.706ZM30.5824 140.643C30.5824 140.643 30.6266 140.632 30.6376 140.643C30.6266 140.621 30.6045 140.621 30.5934 140.599C30.5934 140.61 30.5934 140.632 30.5713 140.654L30.5824 140.643ZM31.1352 140.643C31.7213 140.698 32.2742 140.886 32.7718 141.174C32.7718 141.141 32.7939 141.108 32.805 141.074C33.192 140.455 33.7117 139.548 33.0372 138.918C32.7165 138.62 32.2631 138.708 31.9424 138.951C31.5001 139.261 31.3785 139.935 31.279 140.422C31.2569 140.533 31.1905 140.599 31.1352 140.643ZM30.9473 139.095C30.9473 139.095 30.9362 139.128 30.9251 139.139C30.9251 139.117 30.9362 139.106 30.9473 139.095ZM29.742 139.183C29.4987 138.774 29.0453 138.564 28.5809 138.575C27.2208 138.62 27.4531 140.256 27.8622 141.052C27.8843 141.074 27.8621 141.096 27.8732 141.119C28.2381 140.942 28.6141 140.809 29.0122 140.754C29.2886 140.709 29.565 140.698 29.8304 140.698C29.8525 140.588 29.8858 140.444 29.93 140.267C30.0074 140.013 29.7972 139.294 29.742 139.183ZM27.0218 140.975C26.9555 140.809 26.9001 140.643 26.8559 140.466C26.9001 140.632 26.9555 140.809 27.0218 140.975ZM24.7992 140.864C24.4122 141.085 24.3568 141.539 24.4785 141.926C24.6333 142.434 25.2304 142.766 25.6617 143.032C25.6727 143.032 25.6838 143.054 25.7059 143.065C25.9934 142.6 26.3694 142.169 26.8006 141.815C26.8006 141.804 26.7785 141.804 26.7785 141.793C26.3141 141.229 25.6285 140.455 24.8103 140.875L24.7992 140.864ZM25.2857 143.938C25.1862 143.706 24.3458 143.761 24.2131 143.772C23.7487 143.85 23.3948 144.204 23.24 144.635C22.8198 145.862 24.2573 146.249 25.1751 146.194C25.0977 145.84 25.0646 145.464 25.0646 145.088C25.0646 144.69 25.153 144.303 25.2857 143.938ZM23.2622 143.419C23.1958 143.463 23.1295 143.507 23.0631 143.562C23.1184 143.507 23.1958 143.463 23.2622 143.419ZM24.4011 143.021C24.2353 143.032 24.0805 143.065 23.9146 143.109C24.0694 143.065 24.2353 143.043 24.4011 143.032V143.021ZM25.9713 140.179C25.9713 140.179 25.9713 140.179 25.9602 140.179C25.9602 140.179 25.9602 140.179 25.9713 140.179ZM36.3876 129.95C35.2487 128.303 33.6896 129.596 32.816 130.78C32.5949 131.333 32.1525 131.001 32.0862 130.691C31.3453 127.473 26.491 129.42 27.453 132.007C27.453 132.051 27.453 132.084 27.4641 132.129C28.5035 133.743 28.8242 136.143 28.9348 137.846C29.5098 137.89 29.9742 138.244 30.2948 138.708C30.2838 138.686 30.2617 138.664 30.2506 138.631C30.4828 137.237 30.6376 135.833 30.516 134.462C30.7814 135.7 30.8146 137.005 30.7814 138.299C31.6992 136.209 32.6944 133.798 32.4953 131.753C32.8823 133.809 32.053 136.375 31.3232 138.542C31.3785 138.476 31.4338 138.409 31.5002 138.354C31.5886 138.277 31.6992 138.21 31.8097 138.155C31.6992 138.21 31.5997 138.266 31.5002 138.343C32.2742 137.37 33.004 136.353 33.579 135.269C33.2252 136.209 32.7607 137.116 32.2631 138C32.2631 138 32.241 138 32.2299 138C32.5506 137.945 32.8713 137.978 33.1699 138.1C33.7117 138.332 33.966 138.719 34.0434 139.161C34.6184 137.16 34.8506 134.783 36.2992 133.334C36.3213 133.29 36.3434 133.257 36.3655 133.223C37.2612 132.295 37.04 130.901 36.3655 129.917L36.3876 129.95ZM44.5372 137.569C44.316 136.607 43.166 135.822 42.3146 136.552C41.817 136.983 41.6069 136.53 41.6733 136.176C42.0603 134.119 40.2689 132.482 38.2343 133.013C37.0179 133.323 36.2549 134.738 35.7463 135.767C35.0054 137.304 35.0055 139.051 34.3531 140.599C34.7622 140.389 35.2155 140.278 35.7131 140.356C35.8458 140.378 35.9675 140.433 36.0781 140.477C36.0338 140.455 36.0006 140.433 35.9564 140.411C36.6088 139.117 37.2723 137.868 37.8141 136.519C37.5266 137.801 36.9405 138.741 36.8521 140.4C38.4554 139.427 40.1694 138.255 41.2199 136.751C40.28 138.498 38.4665 139.891 36.9074 141.108C36.8742 141.063 36.841 141.041 36.8078 141.008C37.0069 141.251 37.1617 141.528 37.2391 141.837C37.405 142.446 37.1617 143.054 36.7747 143.529C38.6213 142.689 40.7665 141.561 42.8232 141.539C42.8232 141.528 42.8232 141.517 42.8232 141.495C43.2766 140.721 43.9954 140.234 44.3713 139.371C44.6146 138.808 44.6699 138.144 44.5261 137.558L44.5372 137.569ZM44.9132 151.347C45.9858 150.573 46.6934 148.627 45.1675 147.897C44.8357 147.731 44.6809 147.355 45.2117 147.145C46.5497 146.636 46.3617 144.768 45.8088 143.75C45.1675 142.578 43.8074 142.18 42.5689 142.246C40.8108 142.346 38.8425 143.396 37.1728 144.17C37.2944 144.215 37.405 144.259 37.5156 144.325C38.0353 144.646 38.3338 145.265 38.2785 145.851C38.2785 145.94 38.2454 146.006 38.2233 146.095C39.4286 145.73 40.6006 145.276 41.7175 144.69C40.5011 145.553 39.1742 146.26 37.792 146.846C37.7478 146.891 37.7035 146.935 37.6482 146.968C37.6482 146.968 37.6593 146.968 37.6704 146.968C39.8487 147.333 42.1045 147.643 44.2276 147.444C41.8281 147.875 39.2184 147.643 36.7415 147.421C38.1348 147.963 39.517 148.538 40.855 149.213C39.4286 148.715 37.9689 148.328 36.4983 147.963C36.7194 148.24 36.8742 148.571 36.9405 148.958C36.9958 149.279 36.9406 149.567 36.8411 149.832C38.3449 150.462 40.468 151.026 41.817 152.232C42.9338 152.132 43.9953 152.044 44.9352 151.347H44.9132ZM36.653 159.64C37.9025 159.607 38.7319 159.098 39.1521 157.982C39.1631 157.76 39.3954 157.517 39.6718 157.617C41.2199 158.147 42.3699 156.19 42.3588 154.908C42.3588 153.912 41.5737 153.094 40.8771 152.497C39.6497 151.435 37.9026 151.093 36.4319 150.462C36.2992 150.606 36.1444 150.75 35.9785 150.86C35.492 151.181 34.8949 151.17 34.3531 150.982C34.4194 151.004 34.4858 151.037 34.5632 151.048C35.4699 152.232 36.5756 153.282 37.9136 153.923C36.653 153.514 35.5141 152.74 34.5189 151.834C35.4146 153.492 36.4872 155.129 37.8805 156.212C36.3213 155.228 35.0607 153.592 33.9881 151.966C34.2204 152.818 34.4636 153.669 34.6959 154.521C34.3199 153.68 33.9328 152.851 33.5458 152.01C33.5458 151.988 33.5458 151.955 33.5458 151.933C33.5458 151.977 33.5459 152.033 33.5237 152.077C33.391 152.608 32.9487 153.006 32.4511 153.16C33.1035 154.708 33.8997 156.367 33.9881 157.948C33.9992 157.982 34.9612 159.673 36.631 159.629L36.653 159.64ZM23.1405 159.342C23.605 160.846 26.3473 161.255 27.442 160.237C27.7074 159.983 28.0281 159.917 28.1386 160.569C28.2492 161.188 30.516 161.454 30.6376 161.454C32.1194 161.398 33.0151 160.071 33.2915 158.767C33.3357 158.59 33.3357 157.982 33.3578 157.926C33.3357 156.279 32.3184 154.709 31.7103 153.238C31.0247 153.116 30.6266 152.508 30.4165 151.822C30.2396 153.636 30.1179 155.571 30.5934 157.241C29.9852 155.737 29.8747 153.934 29.8415 152.221C28.8684 154.498 27.7405 157.075 27.7516 159.375C27.5857 157.539 28.1496 155.471 28.7799 153.525C28.1275 154.333 27.453 155.118 26.7011 155.825C27.4198 154.908 28.0501 153.912 28.6362 152.906C28.7468 152.873 28.8574 152.84 28.9569 152.796C28.2271 153.127 27.442 152.928 26.8559 152.42C26.5463 152.143 26.3694 151.778 26.303 151.38C25.4848 152.95 24.5891 154.93 23.3506 156.312C22.8199 157.152 22.8862 158.501 23.1516 159.353L23.1405 159.342ZM17.4237 153.581C17.9766 153.437 18.3857 153.824 17.7112 154.288C17.4458 154.775 18.817 156.688 18.8723 156.743C20.4204 158.092 22.0679 156.411 23.041 155.328C24.4895 153.724 25.1641 151.745 26.2588 149.943C25.8276 150.197 25.352 150.396 24.8987 150.407C24.7217 150.407 24.5449 150.374 24.379 150.319C24.379 150.319 24.3901 150.319 24.4011 150.319C23.4391 151.148 22.4771 152.066 21.8799 153.183C22.267 151.999 23.0189 150.927 23.7929 149.954C23.7929 149.954 23.804 149.954 23.815 149.976C23.7708 149.932 23.7266 149.898 23.6824 149.854C22.2117 151.17 20.2876 153.028 18.4741 153.348C20.3208 152.807 22.0347 150.595 23.3285 149.202C23.3064 149.124 23.2843 149.058 23.2843 148.981C22.0237 149.434 20.6968 149.887 19.3809 149.932C20.7963 149.644 22.1564 148.848 23.4059 148.151C23.428 148.151 23.4501 148.129 23.4612 148.118C23.7597 147.609 24.3569 147.211 24.9319 146.957C24.2795 146.979 23.6492 146.824 23.1516 146.393C21.7141 147.521 19.1266 148.107 16.9925 147.941C15.8867 148.682 15.2232 149.688 15.2011 151.059C15.179 152.342 16.0526 153.702 17.4237 153.581ZM14.9247 146.548C15.6213 147.189 16.8155 147.211 17.6891 147.178C19.2482 147.134 21.4156 146.769 22.6761 145.807C22.3997 145.265 22.4218 144.624 22.6761 144.06C22.7314 143.938 22.8198 143.839 22.8972 143.739C22.8641 143.772 22.8309 143.795 22.8088 143.839C21.4819 144.148 20.0996 144.403 18.8391 144.237C20.1328 144.226 21.504 143.75 22.7867 143.253C20.5641 143.098 18.2973 142.932 16.1631 142.39C18.5737 142.777 21.117 142.689 23.5718 142.645C22.079 142.202 20.564 141.771 19.1597 141.108C20.6415 141.55 22.2006 141.76 23.7376 141.981C23.7376 142.025 23.7598 142.07 23.7708 142.114C23.6492 141.793 23.6492 141.45 23.7487 141.119C22.5102 140.665 21.3602 140.079 20.2876 139.316C19.8343 139.007 19.2372 138.586 18.7396 138.1C16.5723 136.695 14.2169 140.19 15.4333 142.07C15.5217 142.213 15.6987 142.589 15.2564 142.722C13.642 143.186 13.8963 145.619 14.9136 146.548H14.9247Z" fill="#F0DEAB"/>
<path d="M37.2274 141.848C37.1942 141.716 37.15 141.594 37.0947 141.484C38.5212 141.03 39.9918 140.566 41.2856 139.825C40.0913 140.787 38.6428 141.495 37.2716 142.18C37.2716 142.07 37.2495 141.959 37.2274 141.859V141.848Z" fill="#F0DEAB"/>
<path d="M32.8486 166.684C34.076 165.722 35.8563 165.943 36.8183 167.181C37.7803 168.409 37.5592 170.189 36.3318 171.14C35.1043 172.102 33.324 171.881 32.362 170.654C31.411 169.426 31.6211 167.657 32.8486 166.684Z" fill="#F0DEAB"/>
<path d="M37.3497 172.445C38.2896 171.704 39.6497 171.881 40.3795 172.81C41.1204 173.75 40.9546 175.11 40.0147 175.84C39.0748 176.569 37.7147 176.415 36.9849 175.475C36.2551 174.535 36.4209 173.175 37.3608 172.445H37.3497Z" fill="#F0DEAB"/>
<path d="M41.9719 176.216C42.7017 175.652 43.7411 175.773 44.3051 176.503C44.869 177.222 44.7474 178.272 44.0176 178.836C43.2988 179.4 42.2594 179.279 41.6844 178.549C41.1205 177.83 41.2421 176.78 41.9609 176.216H41.9719Z" fill="#F0DEAB"/>
<path d="M48.4732 178.305C48.8603 178.814 48.7718 179.544 48.2631 179.942C47.7545 180.34 47.0247 180.252 46.6377 179.743C46.2396 179.234 46.3281 178.504 46.8367 178.106C47.3454 177.708 48.0752 177.797 48.4732 178.305Z" fill="#F0DEAB"/>
<path d="M51.9676 178.947C52.2661 179.323 52.1998 179.876 51.8127 180.174C51.4368 180.473 50.8839 180.406 50.5853 180.03C50.2868 179.654 50.3641 179.102 50.7401 178.803C51.1161 178.504 51.669 178.571 51.9676 178.947Z" fill="#F0DEAB"/>
<path d="M55.7049 179.4C56.0034 179.776 55.9371 180.329 55.55 180.628C55.1741 180.926 54.6323 180.86 54.3227 180.473C54.0241 180.086 54.1014 179.544 54.4774 179.245C54.8534 178.947 55.4063 179.024 55.7049 179.4Z" fill="#F0DEAB"/>
</g>
<defs>
<clipPath id="clip0_894_12113">
<rect width="62" height="181" fill="white"/>
</clipPath>
</defs>
</svg>
