<svg width="128" height="190" viewBox="0 0 128 190" fill="none" xmlns="http://www.w3.org/2000/svg">
<g opacity="0.1" clip-path="url(#clip0_892_904)">
<path d="M91.7921 81.5822C92.7112 83.8241 91.646 86.4011 89.3955 87.3202C87.1535 88.2393 84.5766 87.1656 83.6575 84.9237C82.7384 82.6731 83.8035 80.1048 86.0541 79.1856C88.3046 78.2579 90.873 79.3316 91.7921 81.5822Z" fill="#F0DEAB"/>
<path d="M95.0908 66.7562C106.258 40.9178 127.956 60.9666 103.612 76.3253C131.185 65.6653 126.306 99.4149 101.851 89.5623C127.174 100.179 108.68 117.522 96.7228 99.8529C111.884 123.724 75.2997 126.404 83.9669 95.1027C74.7156 126.095 52.047 100.97 73.5388 88.8493C41.3784 104.148 49.1951 68.7319 76.1845 78.7219C47.3311 66.2408 65.6447 39.8699 81.9826 67.4434C70.5495 42.7819 102.796 38.3495 95.0994 66.7562H95.0908ZM101.267 77.2101C117.802 64.9523 102.822 50.4097 93.055 73.2072C92.2475 75.0883 91.7751 76.3768 91.3284 77.1241C91.5088 77.2358 91.6892 77.3389 91.861 77.4677C92.2647 75.9731 93.7937 73.7483 95.2797 70.8965C97.3585 66.9022 101.825 65.8199 103.114 67.0053C104.411 68.1821 103.732 72.6918 99.9698 75.1743C97.1008 77.064 95.0306 78.8078 93.5961 79.2544C93.8796 79.6753 94.4122 80.8607 94.4637 80.9896C96.1989 80.2852 98.6126 78.9366 101.25 77.2101H101.267ZM82.6011 85.4563C83.7264 88.1707 86.8359 89.4678 89.5503 88.3511C92.2647 87.2344 93.5618 84.1163 92.4451 81.4019C91.3284 78.6875 88.2103 77.3904 85.4959 78.5071C82.7815 79.6238 81.4844 82.7419 82.6011 85.4563ZM101.722 77.7598C98.9047 79.7784 96.0786 81.084 94.687 81.6853C94.7386 81.9087 94.7901 82.1406 94.8245 82.364C96.1216 81.5479 98.8359 81.0583 102.006 80.0619C106.301 78.7133 110.218 81.1013 110.303 82.8536C110.389 84.6059 106.721 87.3117 102.306 86.4098C98.8274 85.6968 96.07 85.4649 94.7901 84.7176C94.687 85.3017 94.5066 85.8686 94.2747 86.4012C94.352 86.4356 94.4293 86.4699 94.5152 86.5043C121.934 95.0942 123.893 72.2967 101.731 77.7598H101.722ZM94.0342 87.054C94.0342 87.054 93.9827 87.0368 93.9569 87.0197C93.8023 87.2945 93.6391 87.5608 93.4501 87.8099C94.9447 88.0848 97.2468 89.7083 100.279 91.2803C104.273 93.359 105.356 97.8257 104.17 99.1228C102.993 100.42 98.4838 99.7412 96.0013 95.9789C94.017 92.9638 92.1874 90.825 91.861 89.3905C91.5517 89.6224 91.2081 89.8114 90.8645 89.9918C91.7235 91.5637 94.1201 95.8157 95.6491 97.4564C107.838 110.719 117.691 96.271 94.0342 87.0369V87.054ZM95.2196 98.0662C93.6734 96.0905 91.1652 92.0104 90.0313 90.3697C89.6104 90.5243 89.1809 90.6446 88.7428 90.7133C89.6104 91.9588 90.0915 94.7419 91.1223 98.0147C92.4709 102.31 90.0829 106.227 88.3306 106.313C86.5782 106.398 84.2675 101.485 84.7743 98.3154C85.3413 94.7677 85.7192 92.0018 86.4923 90.7477C86.2518 90.7133 86.0113 90.6618 85.7794 90.6016C77.1208 117.978 103.371 120.649 95.2196 98.0748V98.0662ZM76.7514 87.5952C55.8179 105.187 77.1465 115.547 85.0922 90.3783C84.4823 90.1635 83.8982 89.8801 83.357 89.5107C83.0478 91.0054 81.4501 93.2903 79.8953 96.2796C77.808 100.274 73.3498 101.356 72.0528 100.171C70.7557 98.9853 71.4343 94.4842 75.1966 92.0018C78.1258 90.0691 80.2217 88.2996 81.6562 87.8958C81.2783 87.3976 80.5739 85.903 80.5138 85.7312C79.2511 86.427 77.9883 87.054 76.7428 87.5952H76.7514ZM76.3391 87.0197C78.1773 85.9889 79.4057 85.3532 80.3162 84.9323C80.3162 84.9066 80.3076 84.8894 80.299 84.8636C78.9762 85.6539 76.2961 86.1349 73.1866 87.1141C68.8917 88.4627 64.9747 86.0748 64.8888 84.3224C64.8115 82.5701 68.4708 79.8643 72.886 80.7663C76.2188 81.4535 78.8903 81.6854 80.2389 82.364C80.3076 81.9087 80.4279 81.462 80.5739 81.0326C56.7972 72.7691 48.4306 95.3261 76.3391 87.0197ZM73.7793 60.8206C71.6576 60.2622 69.5273 60.8893 67.44 62.7018C65.3355 64.5314 64.6655 66.5672 65.4386 68.749C67.3627 74.2293 77.7049 79.0827 81.1236 79.7956C81.2181 79.6238 81.3126 79.452 81.4243 79.2888C79.9297 78.8679 77.7307 77.356 74.9132 75.8872C70.9189 73.8084 69.8452 69.3417 71.022 68.0446C72.1988 66.7476 76.7085 67.4262 79.1909 71.1886C81.0292 73.9717 82.7214 76.0075 83.2368 77.4334C83.692 77.107 84.1816 76.8235 84.7228 76.6002C84.9719 76.4971 85.2296 76.4112 85.4873 76.3339C84.697 74.5987 83.3226 71.4291 83.1079 70.8192C80.9862 66.739 77.7135 61.8599 73.7879 60.812L73.7793 60.8206ZM83.6147 70.2952C84.9547 72.8464 85.8567 75.2945 86.1659 76.1793C86.1917 76.1793 86.226 76.1621 86.2518 76.1621C85.5045 74.8049 85.0149 72.1936 84.0614 69.17C82.7128 64.875 85.1008 60.958 86.8531 60.8721C88.6054 60.7948 91.3112 64.4627 90.4093 68.8693C89.7307 72.1506 89.4988 74.8049 88.8459 76.1707C89.4043 76.2737 89.9454 76.4456 90.4694 76.6689C100.837 48.7261 75.9783 44.4569 83.6147 70.2952Z" fill="#F0DEAB"/>
<path d="M63.7807 24.5112C65.5158 24.7774 67.1393 26.1003 68.0756 27.8956C68.3419 25.3444 69.6046 22.9822 71.3827 22.2091C72.3877 21.771 74.3462 21.5305 76.3992 24.5542C77.8079 22.5613 79.8867 22.4238 81.3126 23.1883C82.6011 23.8841 83.5631 25.4646 82.9962 27.4575C84.6369 26.547 86.5009 26.3065 87.9611 26.7274C90.1086 27.3458 91.3112 29.2356 91.2253 31.8383C92.445 31.615 93.4844 31.9242 94.1802 32.7231C95.0735 33.7539 95.2196 35.4375 94.541 37.0009C93.4329 39.552 90.5553 41.5621 87.7722 43.5034C86.0628 44.6974 84.5767 45.9687 83.3226 47.0166C77.5588 51.8613 78.1601 57.3846 78.1601 57.565L77.3441 57.8656C74.7156 56.8348 58.7556 44.2335 55.5258 36.3824C55.0706 35.2743 54.7527 34.149 54.6067 33.0323C54.4521 31.8469 54.9589 30.6959 55.9553 29.9658C56.883 29.2872 58.0598 29.0638 59.1765 29.3301C58.9102 28.4539 58.8845 27.4489 59.3741 26.7188C60.5079 25.0351 62.0713 24.2621 63.7893 24.5284L63.7807 24.5112ZM75.2997 28.5656C73.4958 22.0803 68.1271 27.8011 68.9689 30.9192C69.6991 33.625 71.7778 39.9214 73.6934 45.5048C73.0234 41.794 72.5166 38.0402 71.9496 34.4239C72.0183 34.6816 72.0699 34.9221 72.13 35.1454C72.9203 38.3924 73.5817 41.7682 74.372 45.1097C73.9768 40.4454 74.1143 35.6952 74.4235 31.1855C74.5008 35.9872 74.6726 41.0982 75.5144 46.0116C75.6347 42.2836 76.1587 38.5384 76.6826 35.0853C76.425 40.0674 75.8323 45.7797 76.7084 50.9422C76.7342 50.8219 76.7514 50.7017 76.7857 50.5814C76.7256 49.7912 76.6826 49.0438 76.6826 48.4683C76.6826 42.8162 77.8509 34.8362 80.0499 30.5069C80.5567 29.5019 80.0069 23.7295 75.3169 28.5656H75.2997ZM82.8158 46.5356C84.0957 45.4017 85.6333 44.1476 87.3684 42.9278C90.0742 41.0381 93.828 33.4446 87.4114 35.154C90.1172 29.0896 82.1458 27.8612 80.6426 30.8161C78.5209 34.9908 77.3956 42.6787 77.3527 48.2364C77.4643 47.8326 77.576 47.4376 77.6962 47.051C78.5037 44.3452 79.4829 41.6909 80.591 39.0882C80.7027 38.8133 80.8315 38.4955 80.9948 38.1347C80.1444 40.8491 79.4228 43.6065 78.8817 46.3982C80.2904 43.2371 82.1716 40.2392 83.9583 37.6622C82.1973 40.8834 79.9554 44.8176 78.7013 48.7947C80.6082 45.5735 83.5975 42.8334 86.4923 40.8148C86.6039 40.7289 86.7414 40.6344 86.896 40.5313C83.5717 43.3917 79.2939 47.678 78.246 52.2822C78.7528 50.779 79.9554 49.061 82.8072 46.527L82.8158 46.5356ZM63.2567 33.144C60.0269 31.7095 50.3719 34.9564 72.4994 53.1841C69.596 50.1175 67.1307 46.6645 64.8974 43.0739C64.7599 42.8591 64.6053 42.6186 64.4421 42.3437C67.062 45.7625 69.9224 49.439 73.1952 52.4884C69.5617 47.3173 66.7184 41.6308 63.9525 35.9529C66.6153 40.4282 69.2266 45.2815 72.3018 49.6795C70.4979 45.6852 69.0978 41.4418 67.732 37.4647C69.8881 42.1977 72.1214 47.3688 75.0763 51.8527C74.896 51.1569 74.7242 50.4611 74.561 49.7482C72.2932 43.3058 69.1665 34.2521 68.3161 31.0996C68.1615 30.5327 63.7034 25.7825 63.2653 33.144H63.2567Z" fill="#F0DEAB"/>
<path d="M19.8092 151.091C23.1335 150.739 26.6897 151.237 30.8128 151.813C39.3683 153.015 50.0112 154.51 64.528 148.97C86.0714 140.749 87.9869 118.424 88.0041 118.201L88.0557 117.445L87.3513 117.161C85.5388 116.44 84.1387 114.885 83.168 112.531C82.1802 110.126 81.9826 107.678 81.9397 106.974V106.785L79.8695 106.853V107.06C80.8402 131.077 51.7807 138.885 42.4693 140.766C44.505 137.365 44.7885 132.176 45.1063 126.361C45.3383 122.066 45.5788 117.625 46.5666 113.545C49.0835 103.16 65.1723 95.7209 65.3355 95.6522L64.4937 93.771C57.4328 96.8892 51.7807 90.2149 51.7206 90.1461L51.1966 89.5105L50.4664 89.8885C49.3411 90.464 43.9725 93.9514 38.3118 100.445C34.7899 104.483 33.9223 112.471 33.0032 120.924C32.4535 126 31.878 131.249 30.7012 135.578C27.7978 146.281 19.7405 148.961 19.3969 149.073L15.4455 150.816L19.8178 151.074L19.8092 151.091ZM85.8567 118.759C85.3413 122.496 81.974 140.113 63.7893 147.054C49.7706 152.405 39.4198 150.945 31.0963 149.777C28.5537 149.416 26.2172 149.09 23.9839 148.97C26.956 146.899 30.8128 143.017 32.6768 136.136C33.8966 131.652 34.4721 126.318 35.039 121.164C35.9238 113.038 36.757 105.367 39.8494 101.82C44.4879 96.5026 48.946 93.2643 50.7413 92.1304C52.004 93.3931 55.1651 96.0903 59.3054 96.6057C54.0226 99.8355 46.3605 105.659 44.5652 113.081C43.5344 117.342 43.2853 121.877 43.0534 126.267C42.6926 132.855 42.3576 139.074 39.1621 141.488L36.044 143.841L39.9181 143.335C40.3561 143.274 50.7843 141.866 61.2467 136.746C72.6884 131.146 79.5603 123.286 81.4415 113.751C82.4894 116.113 83.9755 117.788 85.8567 118.759Z" fill="#F0DEAB"/>
<path d="M47.8207 93.2129C47.8464 93.2816 47.8979 93.3418 47.9667 93.3761L57.4155 98.8994C57.5787 98.9939 57.7849 98.9423 57.888 98.7791C57.9825 98.6159 57.9309 98.4012 57.7677 98.3067L48.3189 92.7834C48.1556 92.6889 47.9409 92.7404 47.8464 92.9036C47.7863 92.9981 47.7863 93.1098 47.8292 93.2043L47.8207 93.2129Z" fill="#F0DEAB"/>
<path d="M46.1199 94.7762C46.1457 94.8449 46.1973 94.905 46.266 94.9479L55.586 100.153C55.7492 100.248 55.9639 100.188 56.0498 100.025C56.1443 99.8613 56.0842 99.6466 55.921 99.5521L46.601 94.3467C46.4378 94.2522 46.223 94.3123 46.1371 94.4755C46.0856 94.57 46.077 94.6817 46.1199 94.7762Z" fill="#F0DEAB"/>
<path d="M44.0494 96.3738C44.0837 96.4426 44.1353 96.5113 44.204 96.5456L53.8848 101.725C54.048 101.811 54.2627 101.751 54.3486 101.588C54.4345 101.425 54.3744 101.21 54.2112 101.124L44.5304 95.9443C44.3586 95.8584 44.1525 95.9186 44.0666 96.0818C44.015 96.1762 44.015 96.2879 44.0494 96.3738Z" fill="#F0DEAB"/>
<path d="M41.4812 99.157C41.5156 99.2343 41.5757 99.3031 41.6616 99.3374L51.4626 103.607C51.6344 103.684 51.8406 103.607 51.9179 103.426C51.9952 103.254 51.9179 103.048 51.7375 102.971L41.9365 98.7017C41.7647 98.6244 41.5585 98.7017 41.4898 98.8821C41.4469 98.968 41.4555 99.0625 41.4898 99.1484L41.4812 99.157Z" fill="#F0DEAB"/>
<path d="M38.1141 103.014C38.157 103.117 38.2429 103.194 38.3546 103.22L50.0282 105.728C50.2172 105.771 50.3976 105.651 50.4405 105.462C50.4835 105.273 50.3632 105.093 50.1742 105.058L38.5006 102.55C38.3116 102.507 38.1312 102.627 38.0883 102.816C38.0711 102.885 38.0883 102.954 38.1055 103.022L38.1141 103.014Z" fill="#F0DEAB"/>
<path d="M36.3876 106.948C36.4391 107.068 36.5508 107.154 36.6882 107.163L48.5079 107.627C48.6968 107.627 48.8601 107.489 48.8687 107.3C48.8687 107.111 48.7312 106.948 48.5422 106.948L36.714 106.484C36.525 106.484 36.3618 106.622 36.3618 106.811C36.3618 106.862 36.3618 106.914 36.3876 106.957V106.948Z" fill="#F0DEAB"/>
<path d="M35.0905 111.312C35.142 111.449 35.2795 111.535 35.4341 111.526L46.9015 110.53C47.0905 110.513 47.2279 110.349 47.2193 110.16C47.2022 109.972 47.039 109.834 46.85 109.843L35.3825 110.839C35.1936 110.856 35.0561 111.019 35.0647 111.208C35.0647 111.243 35.0819 111.277 35.0905 111.312Z" fill="#F0DEAB"/>
<path d="M34.9532 115.203C35.0133 115.349 35.1679 115.443 35.3311 115.409L45.6905 113.502C45.8794 113.468 45.9997 113.287 45.9653 113.107C45.931 112.918 45.7506 112.798 45.5702 112.832L35.2108 114.739C35.0219 114.773 34.9016 114.954 34.936 115.143C34.936 115.168 34.9446 115.186 34.9532 115.211V115.203Z" fill="#F0DEAB"/>
<path d="M34.2915 119.317C34.3603 119.472 34.532 119.566 34.6952 119.515L45.1663 116.697C45.3467 116.646 45.4584 116.457 45.4068 116.276C45.3553 116.087 45.1663 115.984 44.9859 116.036L34.5063 118.853C34.3259 118.905 34.2142 119.094 34.2657 119.274C34.2657 119.291 34.2744 119.3 34.2829 119.317H34.2915Z" fill="#F0DEAB"/>
<path d="M34.137 122.848C34.2057 123.011 34.3861 123.097 34.5493 123.045L44.5737 120.039C44.754 119.987 44.8571 119.79 44.8056 119.609C44.7455 119.429 44.5565 119.326 44.3761 119.378L34.3517 122.384C34.1713 122.436 34.0682 122.633 34.1198 122.813C34.1198 122.822 34.1284 122.839 34.137 122.848Z" fill="#F0DEAB"/>
<path d="M33.2694 126.172C33.3295 126.327 33.5013 126.421 33.6731 126.378L44.4019 123.578C44.5822 123.526 44.6939 123.346 44.651 123.157C44.608 122.968 44.419 122.865 44.2301 122.908L33.5013 125.708C33.321 125.76 33.2092 125.94 33.2522 126.129C33.2522 126.146 33.2608 126.163 33.2694 126.172Z" fill="#F0DEAB"/>
<path d="M33.0888 129.342C33.1575 129.496 33.3208 129.591 33.4926 129.548L44.0152 126.833C44.2041 126.791 44.3072 126.602 44.2643 126.413C44.2127 126.232 44.0323 126.121 43.8434 126.163L33.3294 128.878C33.149 128.921 33.0373 129.11 33.0803 129.299C33.0803 129.316 33.0888 129.333 33.0974 129.342H33.0888Z" fill="#F0DEAB"/>
<path d="M32.436 132.58C32.5047 132.743 32.6851 132.829 32.8483 132.778L43.8691 129.488C44.0495 129.436 44.1525 129.239 44.101 129.058C44.0495 128.878 43.8605 128.775 43.6715 128.826L32.6507 132.116C32.4704 132.168 32.3673 132.357 32.4188 132.546C32.4188 132.554 32.4188 132.571 32.4274 132.58H32.436Z" fill="#F0DEAB"/>
<path d="M31.5941 135.647C31.6628 135.801 31.8347 135.896 31.9979 135.853L43.6199 132.812C43.8003 132.76 43.912 132.58 43.8604 132.391C43.8175 132.202 43.6285 132.099 43.4395 132.142L31.8175 135.183C31.6285 135.234 31.5254 135.415 31.5684 135.604C31.5684 135.621 31.5683 135.638 31.5855 135.647H31.5941Z" fill="#F0DEAB"/>
<path d="M30.5034 139.315C30.5635 139.469 30.7267 139.555 30.8985 139.521L43.1562 136.832C43.3452 136.789 43.4569 136.609 43.4225 136.42C43.3882 136.239 43.1992 136.119 43.0102 136.162L30.7525 138.851C30.5635 138.894 30.4518 139.074 30.4862 139.263C30.4862 139.28 30.4948 139.297 30.5034 139.323V139.315Z" fill="#F0DEAB"/>
<path d="M28.7083 142.768C28.7684 142.922 28.9403 143.008 29.1035 142.974L41.8508 139.967C42.0398 139.924 42.1515 139.735 42.1085 139.555C42.0656 139.375 41.8766 139.254 41.6962 139.297L28.9488 142.304C28.7598 142.347 28.6482 142.536 28.6911 142.716C28.6911 142.733 28.6997 142.75 28.7083 142.768Z" fill="#F0DEAB"/>
<path d="M21.4583 149.837C21.5271 150.009 21.7332 150.095 21.905 150.026L40.7512 142.278C40.923 142.209 41.0089 142.003 40.9401 141.831C40.8714 141.66 40.6653 141.574 40.4935 141.642L21.6473 149.39C21.4755 149.459 21.3896 149.665 21.4583 149.837Z" fill="#F0DEAB"/>
<path d="M29.5414 150.224C29.5414 150.224 29.5586 150.267 29.5758 150.284C29.6788 150.438 29.8936 150.481 30.0482 150.378L41.7132 142.613C41.8678 142.51 41.9194 142.295 41.8077 142.141C41.7046 141.986 41.4899 141.943 41.3353 142.046L29.6788 149.811C29.5414 149.906 29.4898 150.078 29.55 150.224H29.5414Z" fill="#F0DEAB"/>
<path d="M34.3085 150.988C34.3085 150.988 34.3429 151.057 34.3772 151.091C34.5061 151.229 34.7208 151.237 34.8582 151.108L44.6765 141.874C44.8139 141.746 44.8225 141.531 44.6937 141.393C44.5648 141.256 44.3501 141.247 44.204 141.376L34.3858 150.61C34.2827 150.713 34.2484 150.859 34.2999 150.988H34.3085Z" fill="#F0DEAB"/>
<path d="M39.0589 151.392C39.0847 151.444 39.1191 151.495 39.1706 151.538C39.3252 151.65 39.54 151.624 39.6516 151.469L47.3396 141.256C47.4512 141.101 47.4255 140.887 47.2708 140.775C47.1248 140.663 46.9015 140.689 46.7898 140.844L39.1019 151.057C39.0246 151.16 39.016 151.289 39.0589 151.392Z" fill="#F0DEAB"/>
<path d="M44.4789 151.632C44.5133 151.71 44.5734 151.778 44.6507 151.813C44.8225 151.89 45.0287 151.813 45.106 151.641L50.1912 140.517C50.2685 140.345 50.1912 140.139 50.0194 140.062C49.8476 139.984 49.6414 140.062 49.5641 140.234L44.4789 151.357C44.436 151.443 44.436 151.546 44.4789 151.632Z" fill="#F0DEAB"/>
<path d="M48.0008 151.177C48.0351 151.263 48.1038 151.332 48.1897 151.366C48.3615 151.435 48.5677 151.349 48.6364 151.177L53.3523 139.461C53.421 139.289 53.3351 139.083 53.1633 139.014C52.9915 138.945 52.7853 139.031 52.7166 139.203L48.0008 150.919C47.9664 151.005 47.9664 151.1 48.0008 151.177Z" fill="#F0DEAB"/>
<path d="M52.2957 150.773C52.33 150.868 52.4074 150.937 52.5104 150.971C52.6908 151.023 52.8798 150.928 52.9399 150.739L56.7968 138.138C56.8483 137.957 56.7452 137.768 56.5648 137.708C56.3845 137.657 56.1869 137.751 56.1354 137.94L52.2785 150.542C52.2527 150.619 52.2613 150.705 52.2871 150.773H52.2957Z" fill="#F0DEAB"/>
<path d="M56.5563 150.018C56.5993 150.121 56.6852 150.198 56.8055 150.224C56.9944 150.258 57.1748 150.138 57.2092 149.957L59.8291 136.755C59.8635 136.566 59.7432 136.385 59.5628 136.351C59.3738 136.317 59.1934 136.437 59.1591 136.617L56.5392 149.82C56.522 149.889 56.5392 149.957 56.5563 150.018Z" fill="#F0DEAB"/>
<path d="M61.0577 148.91C61.1007 149.021 61.2123 149.116 61.3498 149.124C61.5388 149.142 61.702 148.995 61.7191 148.807L62.7843 135.131C62.8014 134.942 62.6554 134.779 62.4664 134.762C62.2775 134.745 62.1143 134.891 62.0971 135.08L61.032 148.755C61.032 148.807 61.032 148.867 61.0577 148.91Z" fill="#F0DEAB"/>
<path d="M65.2752 147.423C65.3268 147.552 65.4642 147.638 65.6102 147.638C65.7992 147.638 65.9452 147.466 65.9367 147.277L65.301 133.68C65.2924 133.491 65.1292 133.345 64.9402 133.353C64.7512 133.353 64.6052 133.525 64.6138 133.714L65.2495 147.312C65.2495 147.312 65.2581 147.389 65.2752 147.423Z" fill="#F0DEAB"/>
<path d="M68.488 145.611C68.5396 145.748 68.6856 145.834 68.8402 145.826C69.0292 145.809 69.1666 145.645 69.1494 145.448L67.9211 132.219C67.9039 132.03 67.7321 131.893 67.5431 131.91C67.3542 131.927 67.2167 132.099 67.2339 132.279L68.4623 145.516C68.4623 145.516 68.4708 145.585 68.488 145.611Z" fill="#F0DEAB"/>
<path d="M72.8858 143.06C72.946 143.214 73.1178 143.3 73.281 143.266C73.47 143.223 73.5816 143.034 73.5387 142.854L70.4893 130.003C70.4463 129.823 70.2574 129.703 70.077 129.746C69.888 129.788 69.7763 129.978 69.8193 130.158L72.8772 143.008C72.8772 143.008 72.8859 143.043 72.8944 143.06H72.8858Z" fill="#F0DEAB"/>
<path d="M76.0467 139.907C76.1154 140.079 76.3044 140.165 76.4762 140.096C76.6565 140.036 76.751 139.839 76.6909 139.658L72.585 127.856C72.5334 127.675 72.3273 127.581 72.1469 127.641C71.9665 127.701 71.872 127.899 71.9321 128.079L76.0381 139.882C76.0381 139.882 76.0381 139.89 76.0381 139.899L76.0467 139.907Z" fill="#F0DEAB"/>
<path d="M74.1657 125.7V125.708L79.1134 136.549C79.1907 136.72 79.3969 136.798 79.5687 136.72C79.7405 136.643 79.8006 136.428 79.7405 136.265L74.7927 125.425C74.7154 125.253 74.5093 125.176 74.3375 125.253C74.1657 125.33 74.0884 125.528 74.1571 125.691L74.1657 125.7Z" fill="#F0DEAB"/>
<path d="M75.7464 123.819C75.7464 123.819 75.7636 123.853 75.7722 123.862L81.2611 132.993C81.3556 133.156 81.5703 133.207 81.7335 133.113C81.8967 133.018 81.9483 132.804 81.8538 132.64L76.3649 123.509C76.2704 123.346 76.0556 123.295 75.8924 123.389C75.7464 123.475 75.6863 123.655 75.755 123.81L75.7464 123.819Z" fill="#F0DEAB"/>
<path d="M77.3869 121.783C77.3869 121.783 77.4127 121.825 77.4213 121.851L83.0906 129.917C83.2023 130.072 83.417 130.115 83.5716 130.003C83.7263 129.891 83.7692 129.677 83.6575 129.522L77.9882 121.456C77.8766 121.302 77.6618 121.267 77.5072 121.37C77.3698 121.465 77.3268 121.637 77.3869 121.783Z" fill="#F0DEAB"/>
<path d="M78.3231 119.541C78.3231 119.541 78.3575 119.609 78.3918 119.644L84.4305 126.198C84.5594 126.335 84.7741 126.344 84.9201 126.215C85.0576 126.086 85.0662 125.871 84.9373 125.725L78.8986 119.171C78.7698 119.034 78.555 119.025 78.409 119.154C78.2973 119.257 78.2716 119.412 78.3231 119.541Z" fill="#F0DEAB"/>
<path d="M79.2165 117.814C79.2337 117.866 79.2681 117.909 79.311 117.943L85.5902 123.286C85.7362 123.406 85.951 123.389 86.0712 123.243C86.1915 123.097 86.1743 122.882 86.0283 122.762L79.7491 117.419C79.603 117.299 79.3883 117.316 79.268 117.462C79.1821 117.565 79.165 117.702 79.2165 117.814Z" fill="#F0DEAB"/>
<path d="M80.0154 114.636C80.0325 114.679 80.0669 114.722 80.1012 114.756L86.2086 120.288C86.3461 120.417 86.5694 120.408 86.6897 120.262C86.8185 120.125 86.8099 119.902 86.6639 119.781L80.5565 114.249C80.4191 114.121 80.1957 114.138 80.0755 114.275C79.981 114.378 79.9638 114.516 80.0068 114.636H80.0154Z" fill="#F0DEAB"/>
<path d="M50.6727 132.383C64.7859 125.468 67.9985 123.037 72.3535 111.346C72.3535 111.346 64.1072 111.767 63.7035 102.645C50.0628 108.005 54.7615 123.647 50.6727 132.383Z" fill="#F0DEAB"/>
<path d="M72.697 115.787C71.7607 116.174 71.314 117.239 71.7006 118.175C72.0871 119.111 73.1609 119.558 74.0886 119.171C75.0249 118.785 75.4715 117.72 75.085 116.784C74.6985 115.847 73.6333 115.401 72.697 115.787Z" fill="#F0DEAB"/>
<path d="M68.7541 121.86C67.8179 122.247 67.3712 123.321 67.7577 124.248C68.1443 125.185 69.2094 125.631 70.1457 125.245C71.082 124.858 71.5287 123.793 71.1421 122.857C70.7556 121.92 69.6904 121.474 68.7541 121.86Z" fill="#F0DEAB"/>
<path d="M63.7205 126.774C62.7842 127.16 62.3375 128.225 62.724 129.162C63.1106 130.098 64.1757 130.545 65.112 130.158C66.0483 129.772 66.495 128.706 66.1084 127.77C65.7219 126.834 64.6568 126.387 63.7205 126.774Z" fill="#F0DEAB"/>
<path d="M58.4377 130.184C57.5014 130.57 57.0548 131.636 57.4413 132.572C57.8279 133.508 58.893 133.955 59.8293 133.568C60.7656 133.182 61.2123 132.116 60.8257 131.18C60.4392 130.244 59.374 129.797 58.4377 130.184Z" fill="#F0DEAB"/>
<path d="M52.7595 132.641C51.8232 133.027 51.3765 134.092 51.7631 135.029C52.1496 135.965 53.2148 136.412 54.1511 136.025C55.0874 135.638 55.534 134.573 55.1475 133.637C54.761 132.701 53.6958 132.254 52.7595 132.641Z" fill="#F0DEAB"/>
<path d="M46.738 134.247C45.8017 134.633 45.3551 135.698 45.7416 136.635C46.1282 137.571 47.1933 138.018 48.1296 137.631C49.0659 137.245 49.5126 136.18 49.126 135.243C48.7395 134.307 47.6743 133.86 46.738 134.247Z" fill="#F0DEAB"/>
<path d="M47.1506 128.019C46.2143 128.406 45.7677 129.471 46.1542 130.407C46.5407 131.344 47.6059 131.79 48.5422 131.404C49.4785 131.017 49.9252 129.952 49.5386 129.016C49.1521 128.079 48.0869 127.633 47.1506 128.019Z" fill="#F0DEAB"/>
<path d="M48.0867 121.568C47.1504 121.955 46.7037 123.02 47.0902 123.956C47.4768 124.892 48.5419 125.339 49.4782 124.952C50.4145 124.566 50.8612 123.501 50.4746 122.564C50.0881 121.628 49.023 121.182 48.0867 121.568Z" fill="#F0DEAB"/>
<path d="M49.3752 113.863C48.4389 114.25 47.9923 115.315 48.3788 116.251C48.7654 117.187 49.8305 117.634 50.7668 117.247C51.7031 116.861 52.1498 115.796 51.7632 114.859C51.3767 113.923 50.3115 113.476 49.3752 113.863Z" fill="#F0DEAB"/>
<path d="M51.8235 107.773C50.8872 108.159 50.4405 109.225 50.8271 110.161C51.2136 111.097 52.2787 111.544 53.215 111.157C54.1513 110.771 54.598 109.706 54.2115 108.769C53.8249 107.833 52.7598 107.386 51.8235 107.773Z" fill="#F0DEAB"/>
<path d="M55.3279 102.748C54.3916 103.134 53.9449 104.199 54.3315 105.136C54.718 106.072 55.7831 106.519 56.7194 106.132C57.6557 105.746 58.1024 104.681 57.7159 103.744C57.3293 102.808 56.2642 102.361 55.3279 102.748Z" fill="#F0DEAB"/>
<path d="M60.8 98.8908C59.8637 99.2774 59.4171 100.342 59.8036 101.279C60.1902 102.215 61.2553 102.662 62.1916 102.275C63.1279 101.889 63.5746 100.824 63.188 99.8872C62.8015 98.9509 61.7277 98.5043 60.8 98.8908Z" fill="#F0DEAB"/>
<path d="M75.4026 109.723C74.4663 110.109 74.0196 111.175 74.4062 112.111C74.7927 113.047 75.8665 113.494 76.7942 113.107C77.7305 112.721 78.1771 111.656 77.7906 110.719C77.404 109.783 76.3389 109.336 75.4026 109.723Z" fill="#F0DEAB"/>
<path d="M51.8579 87.9643C43.5343 90.8935 37.0232 95.5406 32.8227 100.978C28.691 106.329 26.0625 121.576 17.4899 118.785C8.59935 115.89 16.7855 100.506 27.3167 94.2006C37.8392 87.8956 46.8758 87.8957 51.8493 87.9558L51.8579 87.9643Z" fill="#F0DEAB"/>
<path d="M51.248 89.2014C41.7648 91.555 35.9667 98.9166 32.3417 107.575C30.4262 112.171 28.9917 116.938 27.2738 121.602C25.7104 125.854 23.8464 130.115 20.5135 133.285C17.4556 136.197 13.2465 137.7 9.08044 136.592C5.22359 135.57 1.50417 131.927 1.71892 127.684C1.91649 123.81 6.85566 119.412 10.3689 122.771C11.6574 124.008 12.1384 126.172 10.5751 127.418C8.53068 129.041 6.37461 125.897 8.30733 125.348C6.27153 125.82 8.27296 128.869 10.2315 127.925C12.5679 126.885 12.2672 123.99 10.7554 122.384C7.19922 118.613 1.58144 122.496 0.602195 126.593C-0.557437 131.266 2.93006 136.042 7.00165 137.966C11.2708 139.985 16.5536 139.418 20.5994 137.099C29.2408 132.151 30.6152 119.532 33.2609 110.934C36.2158 101.33 41.1635 92.5515 51.248 89.2014C46.9617 90.6273 49.0576 89.7426 51.248 89.2014Z" fill="#F0DEAB"/>
<path d="M52.021 86.1005C36.2586 87.4061 21.3466 81.8056 8.82257 72.5371C18.9157 84.1678 36.963 90.7562 52.021 86.1005C48.1126 86.4269 48.25 87.2687 52.021 86.1005Z" fill="#F0DEAB"/>
<path d="M52.4419 84.2623C47.9666 81.2387 44.2643 76.918 42.1426 71.9359C39.7804 66.3954 39.4368 60.4512 39.6 54.5156C35.8978 65.6567 40.3044 80.4742 52.4419 84.2623C49.6244 83.3862 50.0196 82.6217 52.4419 84.2623Z" fill="#F0DEAB"/>
<path d="M51.9438 85.0181C45.4671 83.575 39.1278 80.5342 34.1886 76.0761C28.7942 71.2228 25.2724 65.0123 22.661 58.3123C24.5079 72.5972 37.049 85.3359 51.9438 85.0181C48.3791 85.0954 48.4907 84.245 51.9438 85.0181Z" fill="#F0DEAB"/>
<path d="M38.1143 49.2415C35.838 50.1778 34.7471 52.7891 35.6834 55.0654C36.6196 57.3503 39.231 58.4326 41.5073 57.4963C43.7922 56.56 44.8745 53.9487 43.9382 51.6724C43.0019 49.3875 40.3906 48.3052 38.1143 49.2415Z" fill="#F0DEAB"/>
<path d="M20.7624 52.6602C18.4861 53.5965 17.3952 56.2078 18.3315 58.4841C19.2678 60.769 21.8791 61.8513 24.1555 60.915C26.4318 59.9787 27.5226 57.3674 26.5863 55.0911C25.65 52.8062 23.0388 51.7239 20.7624 52.6602Z" fill="#F0DEAB"/>
<path d="M7.32783 68.7574C5.05152 69.6937 3.96059 72.305 4.89688 74.5813C5.83318 76.8577 8.44452 77.9485 10.7208 77.0122C12.9972 76.0759 14.0881 73.4647 13.1518 71.1883C12.2155 68.912 9.60414 67.8211 7.32783 68.7574Z" fill="#F0DEAB"/>
<path d="M54.134 6.05137C53.9966 8.24179 52.6136 9.92543 51.5485 11.7207C51.2307 12.2533 51.0503 12.7429 50.973 13.2067C51.308 13.1896 51.6516 13.1895 51.9951 13.2325C53.5585 13.4386 55.706 14.5296 55.6716 16.4021C55.6372 18.4036 53.1548 17.9741 52.1756 17.0722C51.5227 16.4709 50.8785 15.6119 50.5005 14.6842C48.2414 15.1738 46.5148 17.1581 45.6473 19.8209C45.3122 20.8517 45.0374 22.1659 45.1834 23.3256C45.8792 22.5783 46.7296 22.02 47.7518 21.7623C49.4783 21.3328 52.2443 22.0801 52.3903 24.1932C52.5449 26.4609 49.8477 27.569 47.9493 27.2425C46.6179 27.0106 45.7245 26.3492 45.1748 25.4387C44.0753 27.1309 43.4397 29.3471 43.3452 31.0393C43.2077 33.3672 44.29 36.8804 46.6093 37.7308C46.5921 36.3564 46.8241 34.9133 47.3738 33.4015C47.915 31.9155 49.4182 30.5926 50.9042 31.8296C52.8026 33.4015 52.5793 36.1502 51.0331 37.8768C49.8219 39.2254 48.5592 39.5089 47.391 39.1653C47.7775 41.811 49.3323 44.2076 51.454 46.063C53.6616 47.9957 56.3588 49.3185 59.0732 50.4008C61.4268 51.3457 64.2787 51.8697 64.8112 51.9041C66.6323 51.9986 67.3195 52.8489 60.8513 52.9606C58.9787 52.995 57.0975 53.3042 55.3452 53.9914C52.3388 55.151 49.3667 57.8568 48.8341 61.1725C48.3531 64.1274 50.406 68.7316 54.0911 67.4689C55.4225 67.0136 56.4447 65.6736 55.7317 64.2735C55.0188 62.8648 53.7217 64.2391 53.2149 63.1998C54.8728 61.499 57.046 63.5176 57.0975 65.3816C57.1405 67.1339 55.7489 68.4482 54.177 68.9378C50.2085 70.1747 47.202 66.2148 46.9787 62.6328C46.721 58.4066 49.8391 54.6614 53.507 52.9435C55.3108 52.1017 57.2522 51.7323 59.2107 51.6893C53.1634 49.4474 47.4082 44.9205 46.6866 38.8819C44.6336 37.7995 43.0016 34.8875 42.7095 32.7401C42.3573 30.1975 42.8727 26.4523 44.6165 24.0299C43.9722 21.307 45.0975 17.6047 46.4976 15.715C47.4082 14.478 48.7224 13.6105 50.1913 13.3184C50.1741 13.0521 50.1913 12.7858 50.2514 12.5196C50.7668 10.269 52.6909 8.5854 53.2836 6.34345C53.6358 5.01202 54.0567 2.58109 51.935 -0.69165C54.5635 2.69276 54.1942 5.30407 54.1512 6.06857L54.134 6.05137ZM52.2013 15.8438C52.7597 16.3077 53.5499 16.7544 54.2801 16.4451C55.1305 16.093 55.1047 15.5603 54.3574 15.2167C53.2235 14.6928 52.1498 14.5124 51.1705 14.5897C51.3767 15.0192 51.7031 15.4315 52.2013 15.8438ZM48.8856 37.7394C50.3115 37.2755 52.1498 35.4373 51.5055 33.7881C50.3631 30.8847 48.1039 33.8568 47.6744 35.3428C47.4168 36.2104 47.3051 37.0694 47.3051 37.9026C47.7861 37.9627 48.3101 37.9198 48.8856 37.7394ZM45.673 24.7601C45.9908 25.2412 46.4633 25.6363 47.1505 25.8596C48.1211 26.1774 49.1863 26.0056 50.1054 25.6019C50.8012 25.3013 52.4676 24.1674 51.2478 23.4974C48.9028 22.2175 47.013 23.0937 45.673 24.7601Z" fill="#F0DEAB"/>
<path d="M104.763 133.714C104.161 133.628 100.889 133.611 98.0798 134.152C94.8414 134.779 91.5773 135.672 88.7168 137.339C85.9681 138.945 83.7347 141.264 82.7469 144.116C84.1127 143.979 85.4613 144.563 86.5093 146.315C87.8579 148.557 87.5229 151.65 85.0747 152.99C83.1592 154.038 81.7848 152.251 81.4928 150.499C81.2007 148.703 81.2523 147.063 81.5701 145.542C78.8213 145.997 76.88 149.665 76.5364 152.268C76.2873 154.158 76.5193 156.743 77.3782 158.857C78.1857 157.972 79.3195 157.422 80.84 157.448C83.0132 157.482 85.7619 159.286 85.1091 161.768C84.4992 164.079 81.2694 164.32 79.4484 163.478C78.3747 162.98 77.55 162.181 76.9315 161.202C76.5278 162.456 76.5536 163.967 76.6996 165.179C77.0948 168.314 78.5808 170.874 80.9774 171.905C81.5873 170.96 82.4806 170.144 83.3396 169.62C84.6195 168.829 87.4542 168.881 87.0762 171.106C86.7154 173.184 84.1041 173.94 82.326 173.837C81.9394 173.811 81.5615 173.743 81.1921 173.657C81.175 174.181 81.2694 174.765 81.51 175.418C82.3088 177.634 83.4856 179.79 83.1678 182.247C83.0561 183.106 82.9101 186.069 79.2766 189.265C82.3346 186.095 82.3775 183.303 82.2744 181.757C82.0941 179.146 80.316 176.878 80.2215 174.267C80.2129 173.966 80.2558 173.665 80.3332 173.373C78.7784 172.729 77.4985 171.492 76.7512 169.929C75.6087 167.541 75.1449 163.194 76.4419 160.317C75.0246 157.25 75.248 152.998 76.1757 150.258C76.9659 147.947 79.3883 145.07 81.8879 144.305C86.1657 132.168 99.8923 132.348 103.766 132.468C107.34 133.465 106.403 133.954 104.754 133.723L104.763 133.714ZM81.7075 172.154C82.7813 172.454 84.001 172.48 85.3754 172.136C86.2773 171.913 86.4148 171.329 85.5558 170.753C84.8085 170.255 83.8292 170.582 83.1249 170.977C82.4892 171.329 82.0339 171.716 81.7161 172.154H81.7075ZM77.782 159.715C78.9158 161.846 80.8228 163.22 83.6918 162.301C85.1864 161.82 83.5715 160.205 82.8757 159.724C81.948 159.088 80.797 158.668 79.6545 158.814C78.8385 158.917 78.2372 159.252 77.782 159.724V159.715ZM82.3861 145.491C82.2057 146.418 82.1456 147.389 82.2487 148.411C82.4205 150.146 84.2845 153.926 86.1657 150.954C87.2308 149.27 85.5815 146.831 84.1041 146.015C83.5114 145.688 82.9359 145.534 82.3861 145.491Z" fill="#F0DEAB"/>
<path d="M122.905 39.0022C122.948 39.1053 123.042 39.1912 123.171 39.2084C123.36 39.2428 123.532 39.1139 123.566 38.9249L124.124 35.5062C124.15 35.3172 124.03 35.1454 123.841 35.111C123.652 35.0767 123.48 35.2055 123.446 35.3945L122.896 38.8132C122.888 38.882 122.896 38.9421 122.913 38.9937L122.905 39.0022Z" fill="#F0DEAB"/>
<path d="M121.891 36.7257C121.934 36.8373 122.037 36.9232 122.166 36.9404C122.355 36.9662 122.527 36.8287 122.544 36.6397L122.999 32.929C123.025 32.74 122.888 32.5682 122.699 32.5424C122.51 32.5166 122.338 32.6541 122.321 32.843L121.865 36.5539C121.865 36.614 121.865 36.6741 121.891 36.7257Z" fill="#F0DEAB"/>
<path d="M120.654 35.0679C120.706 35.1968 120.835 35.2827 120.981 35.2827C121.17 35.2827 121.324 35.1194 121.316 34.9305L121.238 31.1252C121.238 30.9362 121.075 30.7815 120.886 30.7901C120.697 30.7901 120.542 30.9534 120.551 31.1424L120.628 34.9477C120.628 34.9477 120.637 35.0336 120.654 35.0679Z" fill="#F0DEAB"/>
<path d="M119.108 33.7536C119.168 33.9082 119.331 33.9941 119.495 33.9597C119.684 33.9168 119.795 33.7364 119.761 33.556L119.031 30.1115C118.996 29.9311 118.807 29.8109 118.627 29.8452C118.438 29.8882 118.326 30.0685 118.361 30.2489L119.082 33.6935C119.082 33.6935 119.091 33.7364 119.099 33.7536H119.108Z" fill="#F0DEAB"/>
<path d="M111.979 29.4759C111.979 29.4759 111.996 29.5188 112.013 29.536L114.341 33.1008C114.444 33.2554 114.659 33.3069 114.813 33.2038C114.976 33.1008 115.011 32.886 114.916 32.7314L112.588 29.1752C112.485 29.012 112.271 28.969 112.116 29.0721C111.979 29.1666 111.927 29.3384 111.987 29.4931L111.979 29.4759Z" fill="#F0DEAB"/>
<path d="M109.419 29.7251C109.419 29.7251 109.444 29.7767 109.462 29.8025L111.961 33.2212C112.073 33.3758 112.288 33.4102 112.442 33.2985C112.597 33.1869 112.64 32.9721 112.52 32.8175L110.02 29.3987C109.908 29.2441 109.694 29.2098 109.539 29.3214C109.41 29.4159 109.367 29.5877 109.427 29.7337L109.419 29.7251Z" fill="#F0DEAB"/>
<path d="M107.065 30.0086C107.065 30.0086 107.082 30.0515 107.099 30.0773L109.651 33.728C109.762 33.8826 109.968 33.917 110.132 33.8139C110.286 33.7022 110.321 33.4961 110.217 33.3329L107.666 29.6822C107.555 29.5275 107.34 29.4932 107.185 29.5963C107.048 29.6908 107.005 29.8626 107.065 30.0086Z" fill="#F0DEAB"/>
<path d="M104.488 30.0773C104.488 30.0773 104.522 30.1374 104.54 30.1632L107.692 34.0629C107.812 34.209 108.027 34.2347 108.173 34.1145C108.319 33.9942 108.345 33.7795 108.225 33.6335L105.072 29.7337C104.952 29.5876 104.737 29.5619 104.591 29.6821C104.471 29.7766 104.436 29.9399 104.488 30.0773Z" fill="#F0DEAB"/>
<path d="M100.906 29.9397C100.923 29.9826 100.958 30.0342 101.001 30.0685L105.536 34.0198C105.682 34.1401 105.897 34.1315 106.017 33.9855C106.138 33.8395 106.129 33.6247 105.983 33.5045L101.447 29.5531C101.301 29.4242 101.087 29.4415 100.966 29.5875C100.881 29.6906 100.863 29.828 100.906 29.9482V29.9397Z" fill="#F0DEAB"/>
<path d="M97.6934 29.3385C97.7192 29.3986 97.7621 29.4502 97.8137 29.4931L104.411 33.9598C104.565 34.0629 104.78 34.0285 104.883 33.8653C104.995 33.7107 104.952 33.496 104.789 33.3843L98.1916 28.9176C98.037 28.8145 97.8222 28.8489 97.7106 29.0121C97.6418 29.1152 97.6333 29.2354 97.6762 29.3385H97.6934Z" fill="#F0DEAB"/>
<path d="M98.5354 31.8381C98.5698 31.9154 98.6213 31.9842 98.7072 32.0185L104.608 34.8102C104.78 34.8875 104.986 34.8102 105.064 34.647C105.141 34.4752 105.072 34.269 104.9 34.1917L98.9992 31.4C98.8274 31.3141 98.6213 31.3914 98.544 31.5632C98.501 31.6577 98.501 31.7522 98.544 31.8381H98.5354Z" fill="#F0DEAB"/>
<path d="M99.4886 34.6042C99.5315 34.6987 99.6088 34.776 99.7205 34.8018L105.416 36.305C105.596 36.3565 105.785 36.2448 105.837 36.0559C105.888 35.8755 105.776 35.6865 105.596 35.635L99.9009 34.1317C99.7205 34.0888 99.5315 34.1919 99.48 34.3809C99.4628 34.4582 99.4714 34.5355 99.4972 34.5956L99.4886 34.6042Z" fill="#F0DEAB"/>
<path d="M100.477 36.8632C100.519 36.9749 100.623 37.0608 100.751 37.078L106.223 37.7394C106.412 37.7652 106.584 37.6278 106.61 37.4388C106.635 37.2498 106.498 37.078 106.309 37.0522L100.837 36.3908C100.648 36.365 100.477 36.5025 100.451 36.6914C100.451 36.7516 100.451 36.8117 100.477 36.8632Z" fill="#F0DEAB"/>
<path d="M101.43 38.8818C101.482 39.0106 101.61 39.0965 101.748 39.0965L107.039 39.0278C107.228 39.0278 107.383 38.8732 107.374 38.6756C107.374 38.4867 107.22 38.332 107.022 38.332L101.731 38.4008C101.542 38.4008 101.387 38.5554 101.387 38.7529C101.387 38.7959 101.396 38.8388 101.413 38.8818H101.43Z" fill="#F0DEAB"/>
<path d="M102.925 41.1754C102.985 41.3214 103.139 41.4159 103.311 41.3815L108.182 40.428C108.371 40.3937 108.491 40.2133 108.448 40.0243C108.413 39.8439 108.233 39.7151 108.044 39.7495L103.174 40.6943C102.985 40.7287 102.864 40.909 102.899 41.098C102.899 41.1238 102.907 41.141 102.916 41.1668L102.925 41.1754Z" fill="#F0DEAB"/>
<path d="M104.188 42.8847C104.256 43.0394 104.428 43.1338 104.6 43.0823L109.213 41.8024C109.393 41.7509 109.505 41.5619 109.453 41.3815C109.402 41.2011 109.213 41.0895 109.032 41.141L104.42 42.4123C104.239 42.4638 104.127 42.6528 104.179 42.8332C104.179 42.8504 104.179 42.859 104.196 42.8761L104.188 42.8847Z" fill="#F0DEAB"/>
<path d="M105.991 44.8689C105.991 44.8689 106 44.8861 106.009 44.9033C106.095 45.0665 106.309 45.1352 106.473 45.0493L110.536 42.8846C110.699 42.7987 110.767 42.584 110.682 42.4208C110.596 42.2576 110.381 42.1889 110.218 42.2833L106.155 44.448C106 44.5339 105.931 44.7229 106 44.8775L105.991 44.8689Z" fill="#F0DEAB"/>
<path d="M107.22 45.9083C107.22 45.9083 107.22 45.934 107.237 45.9426C107.323 46.1058 107.537 46.1746 107.701 46.0801L111.764 43.9154C111.935 43.8295 111.987 43.6148 111.901 43.4516C111.815 43.2884 111.6 43.2196 111.437 43.3141L107.374 45.4788C107.22 45.5647 107.151 45.7536 107.22 45.9083Z" fill="#F0DEAB"/>
<path d="M109.023 46.9648C109.023 46.9648 109.041 46.9991 109.049 47.0163C109.152 47.1795 109.367 47.2225 109.522 47.1194L113.241 44.7228C113.404 44.6197 113.447 44.405 113.344 44.2504C113.241 44.0872 113.026 44.0442 112.872 44.1473L109.152 46.5439C109.006 46.6298 108.955 46.8101 109.023 46.9648Z" fill="#F0DEAB"/>
<path d="M111.368 47.8582C111.368 47.8582 111.403 47.927 111.428 47.9614C111.557 48.0988 111.772 48.1074 111.918 47.9785L114.839 45.2899C114.976 45.161 114.985 44.9377 114.856 44.8089C114.727 44.6714 114.512 44.6629 114.366 44.7917L111.446 47.4803C111.334 47.5834 111.308 47.738 111.36 47.8582H111.368Z" fill="#F0DEAB"/>
<path d="M113.799 48.2191C113.825 48.2707 113.86 48.3222 113.911 48.3652C114.066 48.4768 114.28 48.451 114.392 48.2964L116.436 45.5992C116.557 45.4446 116.522 45.2299 116.368 45.1182C116.213 45.0065 115.998 45.0323 115.887 45.1869L113.842 47.8841C113.765 47.9872 113.756 48.1161 113.799 48.2191Z" fill="#F0DEAB"/>
<path d="M116.711 47.7636C116.737 47.8237 116.772 47.8753 116.832 47.9182C116.986 48.0299 117.201 47.987 117.313 47.8323L118.953 45.4873C119.065 45.3327 119.022 45.118 118.868 45.0063C118.713 44.8946 118.498 44.9375 118.387 45.0922L116.754 47.4372C116.686 47.5403 116.677 47.6605 116.72 47.7636H116.711Z" fill="#F0DEAB"/>
<path d="M117.562 33.1266C117.622 33.2812 117.794 33.3671 117.957 33.3242C118.138 33.2812 118.258 33.0923 118.215 32.9119L117.45 29.6993C117.407 29.5189 117.218 29.3986 117.038 29.4416C116.849 29.4845 116.737 29.6735 116.78 29.8539L117.545 33.0665C117.545 33.0665 117.553 33.1008 117.562 33.118V33.1266Z" fill="#F0DEAB"/>
<path d="M114.392 29.476L115.758 32.8089C115.827 32.9893 116.033 33.0666 116.205 32.9978C116.377 32.9291 116.462 32.723 116.394 32.5512L115.019 29.2183C114.951 29.0465 114.745 28.9606 114.573 29.0293C114.401 29.0981 114.315 29.3042 114.384 29.476H114.392Z" fill="#F0DEAB"/>
<path d="M138.624 129.222C138.753 130.897 138.487 132.606 137.851 134.161C136.211 138.155 131.967 141.462 127.492 140.517C123.669 139.736 120.156 135.372 122.424 131.549C123.128 130.364 124.442 129.342 125.868 129.273C127.621 129.196 129.725 130.836 129.098 132.761C128.789 133.714 127.664 134.539 126.684 133.963C126.049 133.585 126.306 132.769 126.547 133.147C127.131 134.083 128.239 133.147 128.282 132.365C128.325 131.472 127.457 130.776 126.659 130.622C125.112 130.321 123.747 131.85 123.472 133.242C123.188 134.71 123.996 136.162 125.052 137.133C128.248 140.053 132.62 138.31 135.017 135.277C137.061 132.683 137.052 126.473 136.786 124.016C137.465 125.064 139.329 127.736 140.308 128.637C141.871 130.081 143.804 131.103 145.866 131.618C150.478 132.7 156.405 131.017 156.886 125.554C157.101 123.054 155.821 120.469 153.081 120.271C151.346 120.142 149.138 121.637 150.178 123.561C150.985 125.055 153.047 124.059 153.081 123.114C154 125.408 150.547 126.473 149.37 124.626C148.15 122.702 148.606 120.133 150.375 119.017C151.904 118.029 154 118.046 155.624 118.768C159.798 120.615 160.305 126.207 158.244 129.806C153.906 137.365 143.228 135.389 138.641 129.23L138.624 129.222Z" fill="#F0DEAB"/>
<path d="M112.304 94.5356C112.331 94.5889 112.331 94.5889 112.304 94.5356Z" fill="#F0DEAB"/>
<path d="M98.0798 28.8233C102.023 29.8798 105.407 29.2442 108.783 28.9264C112.382 28.5913 116.282 27.6636 119.924 28.9264C122.999 30.0001 127.741 37.2413 124.777 42.9965C133.247 47.3774 137.971 53.459 140.411 57.7024C140.119 55.5721 140.058 53.4504 139.878 51.3631C138.761 38.6243 145.436 34.6816 144.791 30.275C144.396 27.5692 143.151 24.494 140.041 24.494C137.731 24.494 134.2 26.4095 134.149 29.0552C134.123 30.3007 135.119 32.0101 136.451 32.1991C137.679 32.3795 139.199 30.7817 137.842 29.8197C139.741 30.7216 137.722 32.9206 136.262 32.7918C134.69 32.6458 133.393 30.945 133.152 29.4847C132.568 25.9113 136.992 23.1196 140.093 23.1282C143.701 23.1282 145.702 26.4696 145.917 29.7681C146.046 31.7266 145.487 33.9342 144.293 35.8498C147.094 32.5255 151.766 30.7045 156.826 32.9121C160.863 34.6816 163.724 39.2599 163.526 43.6751C163.32 48.1676 159.145 53.2357 154.215 51.6465C151.509 50.779 150.22 47.9529 150.409 45.2643C151.131 44.5084 151.741 46.3896 151.99 46.7675C152.608 47.7038 153.416 48.5714 154.532 48.872C156.826 49.4991 159.137 47.5664 160.038 45.5993C161.104 43.4089 160.794 40.8577 159.91 38.6673C158.003 33.9514 152.144 31.28 147.557 34.149C143.151 36.9063 141.905 43.5291 142.146 48.2707C142.429 54.0603 143.984 59.7124 144.276 65.502C144.542 70.759 143.666 75.9387 141.072 80.5085C143.503 78.9108 147.076 81.6681 144.8 84.5629C148.382 83.7383 149.069 89.021 146.02 89.2787C149.49 89.5966 149.739 93.8228 146.57 94.3811C149.705 94.7677 149.937 98.9423 146.673 98.7963C150.169 100.274 148.786 103.246 146.011 103.005C148.528 105.488 146.243 109.448 142.833 108.511C146.441 110.659 144.68 114.043 140.694 112.858C143.915 115.031 141.716 118.544 138.641 117.806C141.648 121.723 135.678 125.846 133.367 121.405C134.492 125.219 128.058 126.129 127.869 122.135C126.95 125.056 123.325 124.291 122.57 122.083C122.389 122.436 122.209 122.796 122.003 123.14C119.709 127.005 116.161 129.625 112.382 131.927C108.508 134.29 103.955 136.3 100.949 139.804C98.5265 142.63 97.1263 147.131 99.7377 150.31C102.237 153.342 107.03 153.986 109.831 151.014C111.085 149.674 111.858 147.759 111.042 145.989C110.492 144.812 109.178 143.704 107.804 143.876C105.862 144.116 105.235 147.587 107.176 147.166C107.194 147.166 108.748 145.895 108.396 146.942C108.087 147.905 106.987 148.205 106.137 147.801C103.758 146.659 105.012 143.627 106.919 142.819C109.092 141.9 111.506 143.395 112.528 145.328C115.131 150.258 109.668 155.292 104.935 155.3C99.2738 155.3 94.9187 150.078 95.7004 144.563C96.4907 138.98 100.287 135.69 104.728 132.864C103.028 132.623 101.464 131.704 100.262 130.51C97.762 128.036 96.233 123.853 98.0369 120.563C99.7033 117.522 104.728 115.718 106.979 119.171C107.889 120.572 107.95 122.625 106.446 123.647C105.27 124.437 103.217 124.145 103.208 122.384C104.222 121.998 104.196 123.569 105.407 122.934C106.24 122.504 106.369 121.594 106.06 120.795C105.038 118.192 101.67 119.249 100.433 121.035C97.6761 125.03 102.907 130.794 107.159 131.378C111.583 128.766 116.204 126.292 118.919 122.324C125.507 112.703 117.888 100.798 112.296 94.4498C112.305 94.4756 112.322 94.5013 112.33 94.5185C112.33 94.5013 112.313 94.4756 112.296 94.4498C111.892 93.9946 111.119 93.4963 110.716 93.127C110.054 92.5085 110.174 91.9845 112.837 91.9072C113.791 91.8815 119.314 90.4899 121.101 89.8542C124.794 88.5486 128.308 86.7189 131.211 84.0475C136.605 79.0654 138.495 71.6523 135.592 64.8062C134.295 61.7482 131.89 58.759 128.351 58.5356C125.585 58.3638 122.372 59.7038 120.937 62.1605C119.408 64.7633 120.697 69.7368 124.365 69.419C125.834 69.2901 127.466 67.9501 126.804 66.3438C126.109 64.6344 124.846 66.2837 124.202 65.2701C125.696 63.5005 127.861 65.5277 127.775 67.3059C127.698 68.9122 126.194 70.0804 124.717 70.3638C120.937 71.1026 118.464 66.8334 118.927 63.5435C119.494 59.5234 123.738 56.8348 127.534 56.5428C131.658 56.225 135.076 58.338 137.439 61.5764C142.498 68.517 140.694 78.0518 135.016 84.0303C132.474 86.7104 129.364 88.6517 125.971 90.026C142.051 84.2451 141.974 67.8385 141.115 62.298C140.041 59.5492 135.643 50.1004 124.056 44.1304C121.075 48.2879 115.294 49.9629 111.506 49.061C105.536 47.6437 101.731 40.0846 99.5401 34.7417C98.2774 31.6665 97.6675 29.227 97.6589 29.2012L97.5215 28.6343L98.0884 28.7889L98.0798 28.8233ZM141.828 85.8857C141.957 86.0833 142.069 86.2895 142.189 86.4956C142.215 86.487 142.24 86.4613 142.266 86.4527C142.936 86.1778 143.709 86.4956 143.984 87.1656C144.259 87.8356 143.941 88.6087 143.262 88.8836C143.237 88.8922 143.22 88.9008 143.194 88.9008C143.245 89.064 143.297 89.2272 143.331 89.3904C143.872 89.1413 144.439 89.0124 145.092 89.0554C147.884 87.6638 145.513 83.6867 141.819 85.8771L141.828 85.8857ZM145.144 89.7512C144.525 89.734 143.984 89.8027 143.477 90.0776C143.52 90.3439 143.555 90.6101 143.572 90.8678C144.13 90.8163 144.688 91.1255 144.912 91.6753C145.187 92.3453 144.869 93.1184 144.19 93.3933C143.907 93.5049 143.606 93.5136 143.331 93.4363C143.202 93.8572 143.031 94.2522 142.799 94.6216C143.537 94.0633 144.62 93.8314 145.573 94.0118C147.996 93.7455 147.36 89.8113 145.135 89.7512H145.144ZM144.577 94.9996C144.671 95.1026 144.749 95.2315 144.809 95.369C145.084 96.039 144.766 96.8121 144.087 97.0869C144.07 97.0869 144.044 97.0955 144.027 97.1041C144.087 97.2673 144.147 97.4305 144.199 97.5937C144.886 97.6624 145.547 97.9116 146.097 98.3067C148.279 97.6367 147.918 94.7419 144.568 95.0082L144.577 94.9996ZM144.388 98.3067C144.431 98.5472 144.456 98.7877 144.474 99.0282C145.041 98.9681 145.608 99.2773 145.831 99.8271C146.106 100.497 145.788 101.27 145.118 101.545C144.826 101.665 144.517 101.665 144.242 101.579C144.199 101.751 144.164 101.914 144.113 102.095C144.422 102.129 144.731 102.206 145.023 102.335C147.437 102.825 148.76 99.2516 144.388 98.3067ZM143.872 102.765C143.761 103.057 143.632 103.358 143.494 103.658C143.46 103.727 143.417 103.804 143.383 103.882C143.649 104.019 143.881 104.242 144.001 104.543C144.276 105.213 143.958 105.986 143.28 106.261C142.781 106.467 142.232 106.338 141.871 105.995C141.519 106.364 141.141 106.716 140.729 107.017C141.295 107.24 141.862 107.558 142.326 107.97C145.084 109.302 148.477 104.01 143.872 102.765ZM140.007 107.481C139.638 107.678 139.268 107.833 138.882 107.936C139.268 108.039 139.603 108.305 139.766 108.709C140.041 109.379 139.723 110.152 139.045 110.427C138.847 110.513 138.641 110.53 138.435 110.513C138.383 110.908 138.306 111.303 138.203 111.698C138.796 111.715 139.363 111.861 139.852 112.154C143.838 113.348 145.659 109.499 140.007 107.489V107.481ZM137.988 112.377C137.954 112.48 137.902 112.574 137.859 112.678C138.212 112.789 138.521 113.055 138.667 113.425C138.942 114.095 138.624 114.868 137.954 115.143C137.464 115.34 136.932 115.229 136.571 114.894C136.494 114.988 136.425 115.091 136.348 115.186C137.344 115.572 138.074 116.225 138.435 117.076C141.356 117.926 142.309 113.236 137.997 112.385L137.988 112.377ZM135.832 115.718C135.755 115.796 135.669 115.864 135.592 115.933C135.695 116.045 135.781 116.174 135.841 116.311C136.116 116.981 135.798 117.754 135.119 118.029C134.466 118.295 133.719 118.003 133.427 117.368C133.272 117.436 133.126 117.514 132.955 117.582C133.461 118.321 133.771 119.086 133.728 120.065C133.719 120.297 133.676 120.537 133.607 120.769C136.734 124.36 141.063 118.493 135.832 115.71V115.718ZM132.293 117.84C132.156 117.892 132.01 117.926 131.872 117.977C132.061 118.613 131.744 119.3 131.116 119.558C130.446 119.833 129.673 119.515 129.398 118.845C129.356 118.742 129.338 118.647 129.321 118.536C129.175 118.553 129.029 118.579 128.883 118.587C129.012 119.618 128.832 120.7 128.316 121.559C129.115 123.99 134.759 122.951 132.302 117.84H132.293ZM123.755 119.154C123.755 119.154 123.772 119.18 123.772 119.206C122.862 122.951 128.728 124.617 128.196 118.63C127.938 118.639 127.689 118.63 127.431 118.63C127.414 119.128 127.114 119.592 126.624 119.798C125.954 120.073 125.181 119.756 124.906 119.086C124.769 118.759 124.777 118.407 124.906 118.098C124.64 117.977 124.382 117.84 124.15 117.677C124.038 118.184 123.91 118.682 123.755 119.171V119.154ZM126.452 102.121C128.763 103.796 132.474 107.429 132.869 108.314C131.786 108.168 128.058 104.526 126.229 102.327C125.954 102.576 125.662 102.799 125.378 103.005C128.368 105.35 130.91 109.164 131.778 112.72C128.694 110.728 125.92 107.068 124.683 103.461C124.442 103.607 124.202 103.744 123.978 103.856C125.258 106.235 126.212 108.958 126.675 111.595C125.327 109.293 124.296 106.622 123.729 103.985C123.171 104.259 122.698 104.431 122.406 104.534C123.42 106.596 124.15 108.795 124.459 111.097C124.614 112.274 124.648 113.451 124.58 114.627C124.932 116.088 127.732 116.191 128.892 116.328C130.507 116.517 132.164 115.907 133.444 114.988C137.902 111.81 136.743 108.692 136.253 107.781C135.033 105.771 127.26 101.201 127.26 101.201C127.002 101.528 126.736 101.837 126.452 102.112V102.121ZM128.127 99.8099C127.99 100.111 127.827 100.385 127.655 100.652C127.655 100.652 134.346 105.333 137.817 106.02C139.577 106.312 141.304 103.486 141.845 102.344C143.031 99.8357 142.558 98.1349 141.003 96.1936C139.225 95.4119 128.823 96.4598 128.823 96.4598C128.823 96.6316 128.832 96.8035 128.823 96.9667C131.091 96.4856 133.65 96.5114 135.901 96.8206C133.685 97.4133 131.116 97.5078 128.797 97.3017C128.771 97.5508 128.737 97.7827 128.694 98.0146C132.01 97.6452 135.91 98.5214 138.538 100.3C135.429 101.064 131.434 100.531 128.445 99.0111C128.393 99.1657 128.342 99.3203 128.273 99.4663C130.472 100.351 132.637 101.648 134.398 103.169C132.207 102.43 130 101.244 128.127 99.8099ZM119.898 100.454C120.319 101.012 120.706 101.597 121.075 102.189C126.65 99.4749 126.28 95.4291 125.25 93.1871C124.365 93.462 123.429 93.5307 122.527 93.7025C124.236 97.5164 121.891 99.9645 119.898 100.463V100.454ZM127.852 92.0446C127.938 92.2508 128.007 92.457 128.084 92.6631C130.129 91.2544 132.474 90.112 134.802 89.3904C132.869 90.9022 130.558 92.1735 128.213 93.0497C128.273 93.2301 128.325 93.4105 128.376 93.5909C131.142 91.3231 135.248 89.88 138.71 90.0174C136.21 92.4484 132.147 94.1234 128.557 94.2608C128.582 94.3811 128.617 94.5014 128.643 94.6131C130.885 93.9345 133.35 93.5994 135.652 93.6939C133.496 94.4842 131.048 94.9395 128.711 94.9824C128.754 95.2573 128.78 95.515 128.797 95.7727C128.797 95.7727 136.674 95.515 140.419 94.7161C143.245 89.8371 139.758 86.4784 137.619 85.2243C134.939 88.0847 131.546 90.4813 127.861 92.0618L127.852 92.0446ZM140.428 81.6423C139.981 82.3295 139.492 82.9996 138.976 83.6524C139.019 83.6266 139.062 83.6094 139.105 83.5922C139.242 83.3174 139.474 83.0855 139.775 82.9566C140.445 82.6817 141.218 82.9995 141.493 83.6695C141.699 84.1592 141.579 84.7003 141.235 85.0697C141.295 85.147 141.364 85.2243 141.424 85.3016C142.12 84.7605 143.056 84.434 143.95 84.4426C145.315 82.5872 143.108 80.5257 140.9 81.4963C140.754 81.565 140.625 81.5135 140.548 81.4276C140.505 81.4963 140.471 81.5736 140.419 81.6423H140.428ZM122.647 43.4432C120.972 43.4003 118.309 43.134 115.114 42.0774C110.312 40.4969 107.254 37.2413 107.855 35.8927C108.456 34.5441 113.112 34.3723 117.295 37.1984C120.345 39.26 122.372 41.0982 123.489 42.232C123.386 41.2356 123.128 39.5692 122.466 37.9457C121.633 35.9099 120.405 34.527 118.824 33.8398C116.402 32.7832 113.765 33.2643 111.222 33.7281C109.032 34.1232 106.953 34.5098 105.012 33.9772C105.046 34.0545 105.072 34.1404 105.115 34.2263C106.163 36.7775 109.161 42.8849 114.383 44.5599C116.943 45.3845 119.718 44.998 122.647 43.4432ZM100.167 34.5012C102.297 39.698 106.043 46.1662 111.729 47.5234C115.071 48.3137 118.73 47.2056 122.612 44.2335C119.649 45.7281 116.814 46.0631 114.177 45.2042C108.68 43.4346 105.57 37.1125 104.488 34.4754C104.247 33.8827 104.127 33.522 104.127 33.522L103.895 32.8176L104.582 33.0925C106.541 33.8656 108.757 33.4618 111.111 33.0323C113.756 32.5513 116.496 32.0531 119.108 33.1955C120.86 33.96 122.2 35.4632 123.111 37.6708C123.695 39.0882 123.978 40.5227 124.116 41.5535C124.245 39.8011 124.236 37.0094 123.257 34.63C122.441 32.6372 121.092 31.2714 119.245 30.5756C115.792 29.2699 112.476 29.5792 108.963 29.9056C105.69 30.2148 102.306 30.5241 98.4836 29.6135C98.7327 30.4983 99.291 32.3365 100.184 34.4926L100.167 34.5012Z" fill="#F0DEAB"/>
<path d="M93.8451 142.716C94.4807 139.126 89.4471 138.155 88.6224 141.788C87.6861 145.937 93.218 146.229 93.8451 142.716Z" fill="#F0DEAB"/>
<path d="M93.6732 148.918C92.9001 145.817 88.4076 146.805 89.1205 150.043C89.9537 153.806 94.4291 152.01 93.6732 148.918Z" fill="#F0DEAB"/>
<path d="M96.1903 154.046C94.6957 151.529 90.6585 154.132 93.0035 156.529C94.773 158.324 97.4874 156.237 96.1903 154.046Z" fill="#F0DEAB"/>
<path d="M100.124 156.417C97.8392 155.79 96.8085 159.183 99.1879 159.741C101.851 160.368 102.4 157.061 100.124 156.417Z" fill="#F0DEAB"/>
<path d="M105.029 157.276C103.088 157.327 103.096 160.282 105.089 160.111C107.658 159.896 106.97 157.233 105.029 157.276Z" fill="#F0DEAB"/>
<path d="M109.479 159.372C111.008 159.114 110.621 156.924 109.109 157.181C107.597 157.431 107.941 159.621 109.479 159.372C108.8 159.484 110.157 159.26 109.479 159.372Z" fill="#F0DEAB"/>
<path d="M121.23 11.2569C123.712 7.97556 128.437 8.37932 131.864 9.62485C134.707 10.6642 137.181 12.5196 139.251 14.7788C139.681 14.04 140.059 13.2497 140.377 12.3908C141.339 9.83098 141.674 6.85031 140.557 4.29053C140.102 3.25115 139.277 2.25472 138.272 1.49022C138.255 1.53317 138.238 1.57614 138.221 1.61909C137.13 3.92977 132.603 6.06005 132.087 2.26333C131.924 1.07793 132.551 -0.433875 133.694 -0.786059C135.12 -1.22414 136.829 -0.227758 138.143 0.837385C138.16 0.794436 138.186 0.751518 138.195 0.708569C139.483 -2.7102 137.052 -7.65797 133.616 -8.91209C133.677 -8.31939 133.659 -7.7181 133.522 -7.09104C133.144 -5.4332 131.589 -3.55201 129.725 -3.91278C128.402 -4.17048 127.896 -5.90564 128.205 -7.0395C128.651 -8.68017 130.576 -9.89994 132.216 -9.89994C132.568 -9.89994 132.912 -9.83121 133.247 -9.71954C132.843 -11.8498 131.486 -13.8341 131.28 -16.0073C131.1 -17.9057 131.529 -21.4791 134.132 -20.9465C135.085 -20.7575 136.597 -19.4003 137.13 -18.6186C135.661 -20.3452 133.642 -20.9723 132.371 -19.5979C131.005 -18.1204 131.546 -15.5177 132.105 -13.8341C132.568 -12.4339 133.23 -11.051 133.513 -9.61646C134.527 -9.20415 135.455 -8.38809 136.15 -7.65795C138.246 -5.47612 139.5 -1.85121 138.444 1.08652C138.779 1.37858 139.088 1.66202 139.354 1.91972C142.61 5.12374 141.777 10.4237 140.05 14.1517C139.896 14.4781 139.732 14.8045 139.569 15.1137C141.167 16.9348 142.662 18.7988 143.907 20.7917C146.621 25.1296 147.42 29.33 146.02 34.2863C145.565 34.6729 144.732 35.4288 144.319 35.8583C144.629 33.9427 145.204 31.6579 145.204 29.708C145.187 24.5111 143.314 20.3106 140.076 16.3077C139.853 16.0243 139.612 15.7494 139.363 15.4831C137.216 19.2627 133.771 21.977 129.356 22.6471C125.971 23.1625 122.432 22.0715 120.714 18.9534C119.392 16.5569 119.581 13.4301 121.238 11.2483L121.23 11.2569ZM133.273 -9.00656C131.323 -9.56491 128.256 -7.91567 128.505 -5.64795C128.626 -4.51409 129.923 -4.22204 130.833 -4.47114C132.422 -4.90923 133.324 -6.91068 133.367 -8.40532C133.367 -8.60288 133.367 -8.79185 133.35 -8.98942C133.324 -8.98942 133.299 -9.00657 133.273 -9.01516V-9.00656ZM134.209 0.115866C132.259 0.253304 131.658 2.98484 133.505 3.7837C135.223 4.53102 137.13 2.77869 137.946 1.25828C136.812 0.485192 135.489 0.0213776 134.209 0.115866ZM129.21 21.161C133.634 20.68 136.924 18.5583 139.037 15.1481C135.575 11.549 130.567 9.29844 125.362 10.4323C121.908 11.1882 119.624 13.5246 120.294 16.9348C121.101 21.0064 125.482 21.5648 129.21 21.161Z" fill="#F0DEAB"/>
</g>
<defs>
<clipPath id="clip0_892_904">
<rect width="128" height="190" fill="white"/>
</clipPath>
</defs>
</svg>
