<svg width="393" height="68" viewBox="0 0 393 68" fill="none" xmlns="http://www.w3.org/2000/svg">
<path d="M45.0336 7.78861C31.6051 9.57098 21.688 19.9787 12.3131 28.7676C1.3917 39.0076 -11.0232 48.9151 -25.612 53.3312C-30.4502 54.7917 -35.6813 55.9074 -40.6716 54.5612C-46.0616 53.1098 -52.9628 47.4937 -50.0158 41.1437C-49.5932 40.2432 -48.9501 39.3614 -48.1497 38.6782C-48.4024 40.0938 -48.1678 41.6338 -47.6533 42.9319C-44.0091 52.057 -29.5246 49.5522 -30.2968 39.3668C-30.9199 31.1772 -40.6215 26.2429 -48.0295 29.4097C-54.1771 32.041 -56.9758 39.5181 -55.4658 45.7077C-53.7211 52.8717 -47.0354 57.6234 -39.9451 58.8395C-30.7664 60.412 -21.045 56.9061 -12.3528 51.9682C-11.3044 56.2399 -7.6061 57.6951 -3.01639 55.8704C4.78161 52.7703 9.34668 44.5905 14.1726 38.2556C14.8929 40.4123 16.8889 42.0952 19.2097 42.4183C23.1999 42.9809 26.3978 39.6342 28.2602 36.5548C28.3368 36.4292 28.4133 36.3035 28.4899 36.1779C28.4899 36.1779 28.4996 36.1836 28.5093 36.1894C33.5998 38.4697 37.1732 37.1279 39.5478 32.1092C40.8668 29.3129 41.4609 26.2383 43.3973 23.7553C46.8156 19.3618 52.4591 16.3726 57.4973 20.207C57.5498 20.2513 57.6009 20.1566 57.5503 20.12C52.6058 16.2622 47.4311 17.9705 43.1572 22.1265C38.709 26.449 38.132 38.5775 29.6828 34.2737C29.6731 34.268 29.6555 34.2641 29.6458 34.2584C31.5398 31.0728 33.3551 28.0708 36.0966 25.2559C39.0182 22.265 42.418 19.2286 46.1323 17.2204C52.9177 13.5531 63.0568 17.8126 62.4147 26.2193C62.4067 26.2869 62.514 26.2847 62.5221 26.2172C62.9036 20.8921 59.7278 16.7736 54.5484 15.368C48.371 13.6866 43.5982 17.0735 38.883 20.7576C34.6746 24.0448 31.0667 27.9773 28.3503 32.5566C27.6477 33.7319 27.1124 35.0458 26.3416 36.1807C24.3549 39.0943 16.3892 43.2854 16.0601 36.9407C16.0455 36.6492 15.9253 36.4333 15.76 36.2695C22.1991 28.3848 31.1846 20.4965 40.2549 16.243C46.0477 13.5199 53.2305 12.2455 59.0567 15.6129C64.622 18.8323 67.4668 26.6484 63.1338 32.0652C63.0907 32.1251 63.1646 32.1886 63.2156 32.1268C67.0981 27.1994 66.4635 20.0619 61.5529 16.0071C55.9399 11.365 47.7352 11.9023 41.3494 14.5765C32.101 18.4482 22.6635 26.1541 16.0018 33.5123C12.196 37.7156 9.12952 42.5215 5.37237 46.7536C2.94923 49.4809 -8.96217 59.3776 -9.7546 50.5088C-9.76038 50.4856 -9.76423 50.4702 -9.77 50.4471C-5.44472 47.7947 -1.42873 44.867 2.0656 42.1432C12.214 34.2272 20.5092 23.9697 31.0733 16.5894C38.8678 11.1457 50.1576 7.70786 59.2214 12.047C64.3931 14.5201 69.0576 19.2183 68.8043 25.2574C68.6283 29.2771 66.5631 34.0055 62.2045 35.0266C58.5274 35.886 54.0339 33.0716 52.995 29.4041C53.4195 30.2081 54.0687 30.9152 54.8495 31.3845C56.8666 32.6195 59.8198 32.3176 60.8914 29.9929C61.9236 27.7435 60.6079 25.6615 58.9076 24.2328C54.2268 20.3011 49.2024 24.8082 49.9093 30.2062C50.6164 35.5714 56.5553 39.0911 61.6681 37.7671C61.7306 37.7516 61.7056 37.6512 61.6431 37.6668C57.9555 38.7502 53.7745 36.3907 51.9891 33.0568C53.2594 35.2567 55.2801 36.6055 57.9791 37.0146C58.0395 37.0242 58.0555 36.9218 57.995 36.9123C55.5929 36.4292 53.8396 34.5218 53.1704 32.2704C54.0931 34.0078 55.6919 35.4618 57.8297 36.2158C63.5084 38.2264 68.5275 34.1305 70.1574 28.9204C74.8596 13.8697 57.4489 6.13588 45.0473 7.777L45.0336 7.78861Z" fill="#F0DEAB"/>
<line y1="-0.5" x2="192" y2="-0.5" transform="matrix(1 0 0 -1 100.5 0.926758)" stroke="#F0DEAB"/>
<path d="M347.966 7.78861C361.395 9.57098 371.312 19.9787 380.687 28.7676C391.608 39.0076 404.023 48.9151 418.612 53.3312C423.45 54.7917 428.681 55.9074 433.672 54.5612C439.062 53.1098 445.963 47.4937 443.016 41.1437C442.593 40.2432 441.95 39.3614 441.15 38.6782C441.402 40.0938 441.168 41.6338 440.653 42.9319C437.009 52.057 422.525 49.5522 423.297 39.3668C423.92 31.1772 433.622 26.2429 441.03 29.4097C447.177 32.041 449.976 39.5181 448.466 45.7077C446.721 52.8717 440.035 57.6234 432.945 58.8395C423.766 60.412 414.045 56.9061 405.353 51.9682C404.304 56.2399 400.606 57.6951 396.016 55.8704C388.218 52.7703 383.653 44.5905 378.827 38.2556C378.107 40.4123 376.111 42.0952 373.79 42.4183C369.8 42.9809 366.602 39.6342 364.74 36.5548C364.663 36.4292 364.587 36.3035 364.51 36.1779C364.51 36.1779 364.5 36.1836 364.491 36.1894C359.4 38.4697 355.827 37.1279 353.452 32.1092C352.133 29.3129 351.539 26.2383 349.603 23.7553C346.184 19.3618 340.541 16.3726 335.503 20.207C335.45 20.2513 335.399 20.1566 335.45 20.12C340.394 16.2622 345.569 17.9705 349.843 22.1265C354.291 26.449 354.868 38.5775 363.317 34.2737C363.327 34.268 363.344 34.2641 363.354 34.2584C361.46 31.0728 359.645 28.0708 356.903 25.2559C353.982 22.265 350.582 19.2286 346.868 17.2204C340.082 13.5531 329.943 17.8126 330.585 26.2193C330.593 26.2869 330.486 26.2847 330.478 26.2172C330.096 20.8921 333.272 16.7736 338.452 15.368C344.629 13.6866 349.402 17.0735 354.117 20.7576C358.325 24.0448 361.933 27.9773 364.65 32.5566C365.352 33.7319 365.888 35.0458 366.658 36.1807C368.645 39.0943 376.611 43.2854 376.94 36.9407C376.954 36.6492 377.075 36.4333 377.24 36.2695C370.801 28.3848 361.815 20.4965 352.745 16.243C346.952 13.5199 339.769 12.2455 333.943 15.6129C328.378 18.8323 325.533 26.6484 329.866 32.0652C329.909 32.1251 329.835 32.1886 329.784 32.1268C325.902 27.1994 326.537 20.0619 331.447 16.0071C337.06 11.365 345.265 11.9023 351.651 14.5765C360.899 18.4482 370.336 26.1541 376.998 33.5123C380.804 37.7156 383.87 42.5215 387.628 46.7536C390.051 49.4809 401.962 59.3776 402.755 50.5088C402.76 50.4856 402.764 50.4702 402.77 50.4471C398.445 47.7947 394.429 44.867 390.934 42.1432C380.786 34.2272 372.491 23.9697 361.927 16.5894C354.132 11.1457 342.842 7.70786 333.779 12.047C328.607 14.5201 323.942 19.2183 324.196 25.2574C324.372 29.2771 326.437 34.0055 330.796 35.0266C334.473 35.886 338.966 33.0716 340.005 29.4041C339.58 30.2081 338.931 30.9152 338.15 31.3845C336.133 32.6195 333.18 32.3176 332.109 29.9929C331.076 27.7435 332.392 25.6615 334.092 24.2328C338.773 20.3011 343.798 24.8082 343.091 30.2062C342.384 35.5714 336.445 39.0911 331.332 37.7671C331.269 37.7516 331.294 37.6512 331.357 37.6668C335.045 38.7502 339.226 36.3907 341.011 33.0568C339.741 35.2567 337.72 36.6055 335.021 37.0146C334.96 37.0242 334.945 36.9218 335.005 36.9123C337.407 36.4292 339.16 34.5218 339.83 32.2704C338.907 34.0078 337.308 35.4618 335.17 36.2158C329.492 38.2264 324.473 34.1305 322.843 28.9204C318.14 13.8697 335.551 6.13588 347.953 7.777L347.966 7.78861Z" fill="#F0DEAB"/>
</svg>
