<svg width="13" height="13" viewBox="0 0 13 13" fill="none" xmlns="http://www.w3.org/2000/svg">
<g clip-path="url(#clip0_1560_283)">
<path d="M10.5 5.19531H6C5.44772 5.19531 5 5.64303 5 6.19531V10.6953C5 11.2476 5.44772 11.6953 6 11.6953H10.5C11.0523 11.6953 11.5 11.2476 11.5 10.6953V6.19531C11.5 5.64303 11.0523 5.19531 10.5 5.19531Z" stroke="#F0DEAB" stroke-linecap="round" stroke-linejoin="round"/>
<path d="M3 8.19531H2.5C2.23478 8.19531 1.98043 8.08996 1.79289 7.90242C1.60536 7.71488 1.5 7.46053 1.5 7.19531V2.69531C1.5 2.4301 1.60536 2.17574 1.79289 1.98821C1.98043 1.80067 2.23478 1.69531 2.5 1.69531H7C7.26522 1.69531 7.51957 1.80067 7.70711 1.98821C7.89464 2.17574 8 2.4301 8 2.69531V3.19531" stroke="#F0DEAB" stroke-linecap="round" stroke-linejoin="round"/>
</g>
<defs>
<clipPath id="clip0_1560_283">
<rect width="12" height="12" fill="white" transform="translate(0.5 0.695312)"/>
</clipPath>
</defs>
</svg>
