<svg width="25" height="24" viewBox="0 0 25 24" fill="none" xmlns="http://www.w3.org/2000/svg">
<path d="M8.16699 14C7.88366 14 7.64599 13.904 7.45399 13.712C7.26266 13.5207 7.16699 13.2833 7.16699 13C7.16699 12.7167 7.26266 12.479 7.45399 12.287C7.64599 12.0957 7.88366 12 8.16699 12C8.45033 12 8.68799 12.0957 8.87999 12.287C9.07133 12.479 9.16699 12.7167 9.16699 13C9.16699 13.2833 9.07133 13.5207 8.87999 13.712C8.68799 13.904 8.45033 14 8.16699 14ZM12.167 14C11.8837 14 11.6463 13.904 11.455 13.712C11.263 13.5207 11.167 13.2833 11.167 13C11.167 12.7167 11.263 12.479 11.455 12.287C11.6463 12.0957 11.8837 12 12.167 12C12.4503 12 12.688 12.0957 12.88 12.287C13.0713 12.479 13.167 12.7167 13.167 13C13.167 13.2833 13.0713 13.5207 12.88 13.712C12.688 13.904 12.4503 14 12.167 14ZM16.167 14C15.8837 14 15.6463 13.904 15.455 13.712C15.263 13.5207 15.167 13.2833 15.167 13C15.167 12.7167 15.263 12.479 15.455 12.287C15.6463 12.0957 15.8837 12 16.167 12C16.4503 12 16.6877 12.0957 16.879 12.287C17.071 12.479 17.167 12.7167 17.167 13C17.167 13.2833 17.071 13.5207 16.879 13.712C16.6877 13.904 16.4503 14 16.167 14ZM5.16699 22C4.61699 22 4.14599 21.8043 3.75399 21.413C3.36266 21.021 3.16699 20.55 3.16699 20V6C3.16699 5.45 3.36266 4.97933 3.75399 4.588C4.14599 4.196 4.61699 4 5.16699 4H6.16699V2H8.16699V4H16.167V2H18.167V4H19.167C19.717 4 20.188 4.196 20.58 4.588C20.9713 4.97933 21.167 5.45 21.167 6V20C21.167 20.55 20.9713 21.021 20.58 21.413C20.188 21.8043 19.717 22 19.167 22H5.16699ZM5.16699 20H19.167V10H5.16699V20Z" fill="#F0DEAB"/>
</svg>
