<svg width="249" height="249" viewBox="0 0 249 249" fill="none" xmlns="http://www.w3.org/2000/svg">
<path fill-rule="evenodd" clip-rule="evenodd" d="M57.5406 46.8275C57.0459 47.6381 55.6849 49.8679 55.6101 52.1501H55.6001C55.6001 52.3601 55.3101 52.4201 55.2201 52.2301C53.4801 48.5501 54.5701 45.7501 54.9801 45.0701C55.4301 44.3401 56.3801 44.1102 57.1101 44.5502C57.8401 45.0002 58.0701 45.9502 57.6301 46.6802C57.6049 46.7222 57.5748 46.7714 57.5406 46.8275ZM68.5701 54.7001C72.0201 52.1801 71.4201 47.6501 69.0301 45.4801H69.1901C64.2501 40.9902 53.1601 46.9901 58.7401 57.6501C59.5872 59.2683 60.7383 60.5229 62.0737 61.4764C62.4808 61.1549 62.8904 60.8365 63.3026 60.5213C58.8071 58.147 56.9853 52.3027 60.4201 48.7501C66.4201 42.5401 70.3901 52.8501 64.0401 53.2701C63.9205 53.279 63.8068 53.2309 63.725 53.1964C63.6222 53.153 63.57 53.1309 63.6201 53.2701C64.3701 55.4601 66.5601 56.1601 68.5701 54.7001ZM81.1503 49.6198C81.8992 49.2641 82.6532 48.9174 83.4122 48.58C83.9147 47.3028 84.1146 46.1486 83.9901 45.3702C83.8701 44.6202 83.0601 44.1902 82.3201 44.3702C81.5801 44.5502 81.1201 45.3101 81.3201 46.0401C81.5168 46.7422 81.5432 48.1009 81.1503 49.6198ZM87.5412 46.8543C87.5257 46.645 87.5053 46.4336 87.4801 46.2201V46.2001C85.8201 38.5201 92.5401 35.1901 102.02 39.3301C101.79 38.9601 101.58 38.5601 101.44 38.0801C100.92 36.3601 100.75 33.7202 102.22 32.3702C103.98 30.7502 106.88 31.5001 107.8 33.2901C108.6 34.8501 107.91 38.0001 105.51 38.0001C104.07 38.0001 103.34 36.2102 104.43 35.3002C104.88 34.9202 105.54 35.5601 105.09 35.9501C105.97 36.8101 107.38 35.0701 106.54 33.7601C105.76 32.9401 104.9 32.6901 103.96 33.0101C103.3 33.2701 102.73 33.7102 102.44 34.3702C101.98 35.4402 101.77 36.8001 102.36 37.8301C106.96 45.8501 118.6 34.4201 113.66 28.3301C113.51 28.1501 113.56 27.9102 113.74 27.8002C113.748 27.784 113.769 27.7743 113.788 27.7659C113.792 27.764 113.796 27.762 113.8 27.7601H113.82C117.02 26.6701 116.26 21.4302 113.38 20.6102C111.88 20.1802 110.08 20.0501 109.31 21.8301C108.92 22.7201 108.67 25.0101 110.84 25.1301C111.341 25.2017 111.304 24.7646 111.264 24.2935C111.243 24.0411 111.221 23.779 111.28 23.5801C111.57 22.6101 112.72 22.5501 113.28 23.4001C114 24.5101 113.12 25.9201 111.87 26.1401C110.51 26.3801 108.73 26.0401 108.12 24.6001C107.87 24.0101 107.8 23.3501 107.87 22.7001C106.8 22.9001 105.5 22.2101 105.57 21.0001C105.58 20.8101 105.77 20.7001 105.94 20.7901C107.12 21.4101 108 20.9601 108.96 20.2101C109.057 20.1284 109.159 20.0687 109.258 20.0106C109.293 19.9906 109.327 19.9707 109.36 19.9501C111.59 18.1701 115.4 19.3301 116.6 22.4801C116.97 23.4601 117.19 25.1601 116.39 26.4501C118.1 24.2701 118.76 20.6501 115.99 18.9601C114.39 17.9901 111.2 16.4702 109.57 18.1202C109.29 18.4002 109.07 18.0901 108.94 17.7501C107.97 15.2501 110.85 12.9201 112.58 13.7301C110.79 11.1501 114.65 7.41015 117.43 9.04015C115.39 6.25015 118.69 3.19012 120.66 4.64012C120.04 2.76012 121.97 -0.0198927 124.14 0.000107311C126.31 -0.0198927 128.24 2.76012 127.62 4.64012C129.59 3.19012 132.9 6.25015 130.85 9.04015C133.63 7.42015 137.49 11.1501 135.7 13.7301C137.43 12.9201 140.31 15.2501 139.34 17.7501C139.21 18.0901 138.99 18.4002 138.71 18.1202C137.07 16.4702 133.89 17.9801 132.29 18.9601C129.51 20.6501 130.17 24.2701 131.89 26.4501C131.1 25.1601 131.31 23.4601 131.69 22.4801C132.88 19.3301 136.69 18.1701 138.92 19.9501C138.934 19.9579 138.947 19.9655 138.96 19.9731C139.085 20.044 139.203 20.1108 139.32 20.2101C140.28 20.9601 141.16 21.4101 142.34 20.7901C142.51 20.7001 142.7 20.8101 142.71 21.0001C142.78 22.2101 141.48 22.9101 140.41 22.7001C140.48 23.3501 140.41 24.0101 140.16 24.6001C139.55 26.0401 137.77 26.3901 136.41 26.1401C135.16 25.9201 134.28 24.5101 135 23.4001C135.55 22.5501 136.71 22.6101 137 23.5801C137.059 23.779 137.037 24.0411 137.016 24.2935C136.976 24.7646 136.939 25.2017 137.44 25.1301C139.62 25.0201 139.36 22.7301 138.97 21.8301C138.2 20.0501 136.4 20.1702 134.9 20.6102C132.02 21.4402 131.26 26.6701 134.46 27.7601H134.48C134.484 27.762 134.488 27.7639 134.492 27.7659C134.511 27.7743 134.532 27.784 134.54 27.8002C134.72 27.9102 134.76 28.1501 134.61 28.3301C129.66 34.4201 141.31 45.8501 145.91 37.8301C146.5 36.8001 146.29 35.4402 145.83 34.3702C145.54 33.7102 144.98 33.2701 144.31 33.0101C143.37 32.6901 142.51 32.9401 141.73 33.7601C140.88 35.0701 142.3 36.8101 143.18 35.9501C142.73 35.5501 143.38 34.9202 143.84 35.3002C144.93 36.2102 144.2 38.0001 142.76 38.0001C140.36 38.0001 139.67 34.8501 140.47 33.2901C141.39 31.5001 144.28 30.7502 146.05 32.3702C147.51 33.7102 147.35 36.3601 146.83 38.0801C146.68 38.5601 146.48 38.9601 146.25 39.3301C155.72 35.2001 162.45 38.5301 160.79 46.2001V46.2201C160.761 46.4689 160.738 46.7148 160.722 46.9579C160.326 46.8014 159.928 46.6473 159.53 46.4957C160.328 44.6281 159.944 42.1688 158.23 40.7301C155.188 38.1815 151.431 39.6112 147.879 40.9629C146.733 41.399 145.609 41.827 144.536 42.1107C142.198 41.6227 139.83 41.2163 137.435 40.8947C136.276 40.0228 135.127 38.9297 134.18 37.3301C132.49 34.4901 130.73 31.3201 132.79 28.4501C130.36 27.3501 127 24.9001 124.22 18.5201C121.43 24.9001 118.08 27.3401 115.64 28.4501C117.7 31.3201 115.94 34.4901 114.25 37.3301C113.328 38.8881 112.214 39.9656 111.086 40.8262C108.597 41.147 106.138 41.5594 103.71 42.0597C102.693 41.7768 101.631 41.3728 100.55 40.9616C96.9983 39.6103 93.2453 38.1824 90.2101 40.7301C88.5392 42.1324 88.1297 44.5044 88.8482 46.3529C88.4111 46.5171 87.9754 46.6842 87.5412 46.8543ZM94.0492 44.5626C94.5278 44.4125 95.0079 44.266 95.4895 44.123C95.2139 44.0897 94.9172 44.0842 94.6001 44.1102C94.2914 44.1348 94.1064 44.334 94.0492 44.5626ZM124.511 40.0013C124.809 40.0028 125.107 40.0056 125.404 40.0097C125.487 38.9008 125.774 37.9566 126.25 37.3102C127.7 35.3402 130.5 35.1102 131.65 37.4302C131.903 38.9318 131.588 39.8044 131.095 40.2478C131.588 40.2824 132.081 40.3205 132.572 40.3623C133.49 37.9841 131.894 34.5481 128.97 34.7801C126.052 35.0131 124.789 37.3734 124.511 40.0013ZM127.552 40.0619C128.055 40.0795 128.557 40.1007 129.057 40.1257C128.956 39.9501 128.94 39.7411 129.05 39.5201C129.16 39.2201 128.89 38.9701 128.62 38.9501C127.842 38.8931 127.521 39.411 127.552 40.0619ZM123.916 40C123.619 40.0003 123.321 40.0018 123.024 40.0047C122.942 38.898 122.655 37.9556 122.18 37.3102C120.72 35.3402 117.92 35.1002 116.78 37.4302C116.529 38.9019 116.826 39.7694 117.301 40.2208C116.815 40.2529 116.33 40.2886 115.846 40.3276C114.959 37.9509 116.558 34.5492 119.46 34.7801C122.372 35.0131 123.636 37.3726 123.916 40ZM120.885 40.0476C120.913 39.4014 120.589 38.89 119.81 38.9501C119.54 38.9701 119.27 39.2301 119.38 39.5201C119.486 39.7323 119.475 39.9335 119.384 40.1047C119.883 40.082 120.384 40.0629 120.885 40.0476ZM222.969 125.584C222.799 124.409 222.609 123.241 222.399 122.079C223.589 123.011 224.816 123.863 226.29 124.05C225.05 124.207 223.984 124.834 222.969 125.584ZM223.286 127.987C224.789 126.674 226.828 125.347 229.62 124.13C225.71 122.42 223.279 120.5 221.728 118.707C221.431 117.336 221.105 115.975 220.752 114.625C222.347 116.932 226.782 116.07 227.54 113.44C227.97 111.94 228.1 110.14 226.32 109.37C225.43 108.98 223.13 108.73 223.02 110.9C222.948 111.402 223.386 111.364 223.857 111.324C224.109 111.303 224.371 111.281 224.57 111.34C225.53 111.63 225.6 112.79 224.75 113.34C223.64 114.06 222.23 113.18 222 111.93C221.76 110.57 222.1 108.79 223.54 108.18C224.13 107.93 224.79 107.86 225.44 107.93C225.23 106.86 225.93 105.56 227.14 105.63C227.33 105.64 227.44 105.83 227.35 106C226.73 107.18 227.18 108.06 227.93 109.02C228.04 109.16 228.12 109.29 228.19 109.42C229.97 111.66 228.81 115.46 225.66 116.66C224.68 117.03 222.98 117.25 221.69 116.45C223.87 118.17 227.49 118.83 229.18 116.05C230.16 114.45 231.67 111.26 230.02 109.63C229.74 109.35 230.05 109.13 230.39 109C232.89 108.03 235.22 110.91 234.41 112.64C236.99 110.85 240.73 114.71 239.1 117.49C241.89 115.45 244.95 118.75 243.5 120.72C245.36 120.107 248.1 121.989 248.14 124.13C248.1 126.271 245.36 128.153 243.5 127.54C244.96 129.51 241.89 132.82 239.1 130.77C240.72 133.55 236.99 137.41 234.41 135.62C235.22 137.35 232.89 140.23 230.39 139.26C230.05 139.13 229.74 138.9 230.02 138.63C231.67 136.99 230.16 133.81 229.18 132.21C227.92 130.137 225.586 129.977 223.577 130.743C223.558 130.539 223.539 130.334 223.519 130.131C225.396 129.405 227.635 129.64 229.2 131.05C230.79 132.49 232.16 136.05 231.18 138.26C232.82 137.69 234.36 136.54 233.34 134.46C233.2 133.93 233.63 133.81 234.05 134.16C236.93 135.58 238.8 132.17 238.08 130.39C237.98 130.12 238.25 129.74 238.5 129.88C240.3 130.87 243.07 130.23 242.62 127.3C242.58 127.02 242.79 126.77 243.07 126.74C244.62 126.6 246.25 125.98 246.23 124.07V124.06C246.25 122.15 244.62 121.53 243.07 121.39C242.79 121.36 242.58 121.11 242.62 120.83C243.07 117.91 240.3 117.26 238.5 118.25C238.25 118.39 237.98 118 238.08 117.74C238.79 115.96 236.93 112.55 234.05 113.97C233.63 114.33 233.2 114.21 233.34 113.67C234.36 111.6 232.82 110.44 231.18 109.87C232.16 112.08 230.79 115.64 229.2 117.08C227.4 118.72 224.68 118.78 222.67 117.6C223.06 118.01 223.49 118.38 223.94 118.73C224.86 119.08 225.89 119.27 226.47 119.29C228.42 119.34 230.05 118.67 231.63 117.59C232.89 116.73 234.26 116.07 235.43 117.37C235.668 117.631 235.86 117.885 236.039 118.122C236.614 118.88 237.05 119.457 238.4 119.51C238.43 119.511 238.461 119.513 238.493 119.514C238.969 119.532 239.621 119.556 239.94 119.95C240.09 120.131 240.23 120.306 240.366 120.476C240.933 121.187 241.422 121.799 242.27 122.34C242.89 122.74 243.11 123.37 243.22 124.05V124.07V124.09C243.11 124.77 242.89 125.4 242.27 125.8C241.416 126.35 240.92 126.974 240.338 127.706C240.211 127.865 240.08 128.03 239.94 128.2C239.622 128.593 238.963 128.618 238.494 128.636C238.462 128.638 238.43 128.639 238.4 128.64C237.037 128.694 236.599 129.275 236.018 130.046C235.845 130.277 235.658 130.525 235.43 130.78C234.26 132.08 232.88 131.42 231.63 130.56C230.05 129.48 228.41 128.81 226.47 128.85C225.89 128.87 224.86 129.06 223.94 129.41C223.785 129.53 223.633 129.653 223.484 129.779C223.423 129.18 223.357 128.582 223.286 127.987ZM223.521 149.851C223.62 148.843 223.703 147.83 223.772 146.814C223.84 146.896 223.903 146.985 223.96 147.08C224.517 147.997 224.315 149.172 223.521 149.851ZM222.631 156.583C222.792 155.62 222.939 154.654 223.072 153.682C223.342 153.968 223.525 154.34 223.57 154.76C223.652 155.522 223.26 156.228 222.631 156.583ZM201.551 203.139C202.07 202.501 202.582 201.857 203.087 201.207C203.445 202.414 203.845 203.597 204.63 204.59C203.721 203.872 202.652 203.476 201.551 203.139ZM116.929 239.754C115.761 242.334 118.721 244.839 120.54 243.5C119.92 245.38 121.85 248.17 124.02 248.14C126.19 248.16 128.12 245.38 127.5 243.5C129.32 244.849 132.283 242.341 131.109 239.751C130.827 239.771 130.545 239.79 130.262 239.807C130.439 241.378 129.544 242.969 127.27 242.62C126.99 242.58 126.74 242.79 126.71 243.07C126.57 244.62 125.95 246.25 124.04 246.23C122.14 246.25 121.51 244.62 121.37 243.07C121.34 242.79 121.09 242.58 120.81 242.62C118.546 242.969 117.646 241.382 117.818 239.812C117.522 239.794 117.225 239.775 116.929 239.754ZM45.0376 201.367C45.5197 201.986 46.0089 202.6 46.5051 203.207C45.4462 203.535 44.4202 203.925 43.5409 204.614C44.292 203.657 44.6895 202.525 45.0376 201.367ZM24.9497 153.838C25.0742 154.738 25.2107 155.633 25.359 156.525C24.8129 156.15 24.4842 155.494 24.5601 154.79C24.599 154.429 24.7394 154.103 24.9497 153.838ZM24.2412 147.001C24.3048 147.919 24.3807 148.835 24.4689 149.747C23.7995 149.057 23.6481 147.977 24.1701 147.11C24.1929 147.073 24.2166 147.036 24.2412 147.001ZM25.5732 122.235C25.3777 123.326 25.1998 124.422 25.04 125.525C24.0605 124.815 23.0307 124.231 21.8401 124.08C23.2485 123.902 24.4319 123.117 25.5732 122.235ZM26.2537 118.791C24.6965 120.524 22.304 122.366 18.5501 124.01C21.2576 125.194 23.2555 126.479 24.7426 127.752C24.6636 128.398 24.5908 129.047 24.5243 129.697C24.4143 129.607 24.3029 129.518 24.1901 129.43C23.2701 129.08 22.2401 128.89 21.6601 128.87C19.7101 128.82 18.0801 129.49 16.4901 130.58C15.2301 131.44 13.8501 132.1 12.6901 130.8C12.4536 130.54 12.2618 130.288 12.0834 130.053C11.5076 129.295 11.0714 128.721 9.72008 128.66C9.68995 128.659 9.65887 128.658 9.62701 128.657C9.15119 128.638 8.49876 128.614 8.1801 128.22C8.02823 128.037 7.88698 127.86 7.75021 127.689C7.18454 126.98 6.69564 126.368 5.85008 125.82C5.23008 125.42 5.01007 124.79 4.90007 124.11V124.09V124.07C5.01007 123.39 5.23008 122.76 5.85008 122.36C6.69612 121.815 7.19143 121.197 7.76666 120.48C7.89855 120.315 8.03463 120.145 8.1801 119.97C8.49818 119.577 9.15756 119.552 9.62609 119.534C9.65839 119.533 9.68977 119.531 9.72008 119.53C11.0827 119.476 11.5208 118.895 12.1019 118.124C12.2757 117.893 12.4622 117.646 12.6901 117.39C13.8601 116.09 15.2401 116.75 16.4901 117.61C18.0701 118.69 19.7101 119.36 21.6601 119.31C22.2401 119.3 23.2701 119.1 24.1901 118.75C24.6401 118.4 25.0701 118.03 25.4601 117.62C23.4501 118.8 20.7401 118.74 18.9301 117.1C17.3401 115.66 15.9801 112.1 16.9501 109.89C15.3101 110.46 13.7701 111.61 14.7901 113.69C14.9301 114.22 14.5001 114.34 14.0801 113.99C11.2001 112.57 9.3401 115.98 10.0501 117.76C10.1601 118.03 9.89006 118.41 9.64006 118.27C7.84006 117.28 5.07007 117.93 5.52007 120.85C5.56007 121.13 5.36005 121.38 5.07005 121.41C3.52005 121.55 1.89008 122.17 1.91008 124.08C1.89008 125.99 3.52005 126.61 5.07005 126.75C5.35005 126.78 5.56007 127.03 5.52007 127.31C5.07007 130.24 7.84006 130.88 9.64006 129.89C9.89006 129.75 10.1601 130.14 10.0501 130.4C9.3401 132.18 11.2001 135.59 14.0801 134.17C14.5001 133.81 14.9301 133.93 14.7901 134.47C13.7701 136.54 15.3101 137.7 16.9501 138.27C15.9701 136.06 17.3401 132.5 18.9301 131.06C20.4606 129.682 22.6347 129.419 24.4848 130.09C24.4646 130.296 24.4449 130.502 24.4259 130.709C22.451 130.006 20.1997 130.207 18.9701 132.23C17.9901 133.83 16.4801 137.02 18.1301 138.65C18.4101 138.93 18.1001 139.15 17.7601 139.28C15.2601 140.25 12.9301 137.37 13.7301 135.64C11.1501 137.43 7.41009 133.57 9.04009 130.79C6.25009 132.84 3.19006 129.53 4.64006 127.56C2.76006 128.18 -0.0198927 126.25 0.000107314 124.08C-0.0198927 121.91 2.76006 119.98 4.64006 120.6C3.19006 118.63 6.25009 115.32 9.04009 117.37C7.42009 114.59 11.1501 110.73 13.7301 112.52C12.9201 110.79 15.2501 107.91 17.7601 108.88C18.1001 109.01 18.4101 109.24 18.1301 109.51C16.4801 111.15 17.9901 114.33 18.9701 115.93C20.6601 118.71 24.2801 118.05 26.4601 116.33C25.1701 117.13 23.4701 116.91 22.4901 116.54C19.3401 115.35 18.1801 111.54 19.9601 109.3C19.9752 109.276 19.9903 109.251 20.0056 109.226C20.071 109.118 20.139 109.006 20.2201 108.9C20.9701 107.94 21.4201 107.06 20.8001 105.88C20.7101 105.71 20.8201 105.52 21.0101 105.51C22.2201 105.44 22.9201 106.74 22.7101 107.81C23.3601 107.74 24.0201 107.81 24.6101 108.06C26.0501 108.67 26.4001 110.45 26.1501 111.81C25.9301 113.06 24.5201 113.94 23.4101 113.22C22.5601 112.67 22.6201 111.51 23.5901 111.22C23.7927 111.161 24.0563 111.183 24.3089 111.205C24.7794 111.244 25.2116 111.281 25.1401 110.78C25.0301 108.6 22.7401 108.86 21.8401 109.25C20.0601 110.02 20.1901 111.82 20.6201 113.32C21.3511 115.857 25.4953 116.749 27.218 114.739C26.8692 116.079 26.5476 117.43 26.2537 118.791ZM33.3281 97.7698C33.0943 98.2711 32.8644 98.7747 32.6387 99.2804C30.289 99.8732 28.2428 101.119 27.3575 101.658C27.2746 101.709 27.2019 101.753 27.1401 101.79C26.1101 102.41 24.7801 102.08 24.1601 101.05C23.5401 100.03 23.8701 98.6901 24.8901 98.0701C25.7484 97.5515 28.9734 96.2814 33.3281 97.7698ZM35.9091 92.6305C35.6864 93.0437 35.4666 93.4586 35.2496 93.8753C33.9996 92.323 32.1992 91.2941 31.5351 90.9146C31.5002 90.8946 31.4685 90.8765 31.4401 90.8602C30.7001 90.4302 30.4501 89.4802 30.8801 88.7402C31.3101 88.0102 32.2601 87.7601 33.0001 88.1901C33.568 88.5193 35.2196 89.8917 35.9091 92.6305ZM45.6213 77.8907C45.1128 78.5315 44.612 79.1787 44.119 79.8321C43.209 79.7592 42.4536 79.5663 41.9501 79.2801C41.2901 78.9101 41.1701 77.9902 41.6001 77.3702C42.0301 76.7402 42.9001 76.5701 43.5101 77.0201C43.9247 77.3228 44.6721 77.66 45.6213 77.8907ZM46.896 76.3171C47.1718 75.9835 47.4498 75.6517 47.7299 75.3217C45.1885 74.8013 43.2663 73.2997 42.6601 72.4202C42.2301 71.8001 41.3501 71.6702 40.7401 72.1202C40.1301 72.5702 39.9401 73.4701 40.4401 74.0401C41.379 75.1152 43.942 76.1593 46.896 76.3171ZM52.0407 70.5603C49.7 71.4366 47.0063 70.6411 45.4801 68.9601C40.9901 64.0201 46.9901 52.9401 57.6401 58.5101C59.288 59.3728 60.559 60.5509 61.5188 61.9178C61.1195 62.2377 60.7228 62.5606 60.3285 62.8865C57.8437 58.6457 52.2101 57.0049 48.7501 60.3501C42.5401 66.3501 52.8501 70.3201 53.2701 63.9701C53.2789 63.8505 53.2309 63.7368 53.1963 63.6551C53.1529 63.5523 53.1308 63.5 53.2701 63.5502C55.0286 64.1552 55.8306 65.6971 55.3086 67.3258C54.1948 68.3789 53.1052 69.4574 52.0407 70.5603ZM24.3744 131.286C24.3445 131.632 24.3164 131.979 24.2901 132.325C22.6776 132.416 21.0523 133.34 20.6201 134.84C20.1901 136.34 20.0601 138.14 21.8401 138.91C22.3338 139.127 23.2585 139.3 24.0045 139.039C24.0015 139.359 24 139.679 24 140C24 140.097 24.0001 140.194 24.0004 140.291C23.5817 140.381 23.1436 140.397 22.7101 140.35C22.9101 141.42 22.2201 142.72 21.0101 142.65C20.8201 142.64 20.7101 142.45 20.8001 142.28C21.4201 141.1 20.9701 140.22 20.2201 139.26C20.1383 139.163 20.0786 139.061 20.0205 138.962C20.0005 138.928 19.9806 138.893 19.9601 138.86C18.1801 136.62 19.3401 132.82 22.4901 131.62C22.9837 131.434 23.6599 131.286 24.3744 131.286ZM24.0452 136.965C23.8799 136.973 23.7212 136.969 23.5901 136.93C22.6301 136.64 22.5601 135.49 23.4101 134.93C23.6444 134.778 23.8922 134.697 24.1393 134.677C24.0994 135.437 24.068 136.2 24.0452 136.965ZM43.5409 204.614C43.534 204.619 43.527 204.625 43.5201 204.63V204.64C43.527 204.631 43.534 204.623 43.5409 204.614ZM119.882 239.917C119.895 239.928 119.907 239.939 119.92 239.95C120.09 240.09 120.255 240.221 120.414 240.348C121.146 240.93 121.77 241.426 122.32 242.28C122.72 242.9 123.35 243.12 124.03 243.23H124.05H124.07C124.75 243.12 125.38 242.9 125.78 242.28C126.34 241.416 126.968 240.917 127.696 240.338C127.853 240.214 128.014 240.086 128.18 239.95C128.195 239.938 128.209 239.925 128.223 239.912C127.914 239.925 127.603 239.937 127.293 239.947C127.197 240.008 127.09 240.062 126.97 240.11C126.389 240.346 126.092 240.83 125.798 241.311C125.417 241.931 125.04 242.547 124.06 242.62C123.077 242.547 122.7 241.931 122.32 241.311C122.024 240.828 121.727 240.342 121.14 240.11C121.022 240.063 120.917 240.01 120.823 239.95C120.509 239.941 120.196 239.929 119.882 239.917ZM224 140.236C224 140.157 224 140.079 224 140C224 139.651 223.998 139.303 223.995 138.955C224.762 139.299 225.786 139.116 226.32 138.89C228.1 138.12 227.97 136.32 227.54 134.82C227.094 133.271 225.373 132.335 223.708 132.299C223.682 131.955 223.654 131.612 223.624 131.269C224.394 131.245 225.132 131.401 225.66 131.6C228.81 132.79 229.97 136.6 228.19 138.84L228.167 138.881C228.096 139.005 228.029 139.123 227.93 139.24C227.18 140.21 226.73 141.08 227.35 142.26C227.44 142.43 227.33 142.62 227.14 142.63C225.93 142.7 225.23 141.4 225.44 140.33C224.954 140.382 224.463 140.357 224 140.236ZM223.954 136.934C223.931 136.173 223.9 135.414 223.86 134.657C224.159 134.651 224.464 134.729 224.75 134.91C225.6 135.46 225.54 136.62 224.57 136.91C224.395 136.962 224.174 136.952 223.954 136.934ZM248.14 124.107V124.153C248.14 124.146 248.14 124.138 248.14 124.13C248.14 124.122 248.14 124.115 248.14 124.107ZM248.14 124.107V124.06C248.14 124.076 248.14 124.091 248.14 124.107ZM187.815 63.0056C187.421 62.6784 187.024 62.3542 186.625 62.033C187.584 60.6682 188.854 59.4918 190.5 58.6301C201.16 53.0501 207.16 64.1301 202.67 69.0801C201.132 70.7741 198.408 71.5689 196.055 70.6596C195.011 69.5747 193.942 68.5133 192.85 67.4764C192.307 65.839 193.103 64.2869 194.88 63.6702C195.019 63.62 194.997 63.6723 194.954 63.775C194.919 63.8568 194.871 63.9705 194.88 64.0901C195.3 70.4401 205.61 66.4701 199.4 60.4701C195.94 57.1251 190.307 58.7655 187.815 63.0056ZM212.797 93.9645C212.595 93.5753 212.39 93.1876 212.183 92.8014C212.84 89.9286 214.558 88.4973 215.14 88.1601C215.88 87.7201 216.83 87.9701 217.26 88.7101C217.69 89.4501 217.44 90.4001 216.7 90.8301C216.657 90.8554 216.607 90.8846 216.55 90.9179C215.827 91.3374 214.016 92.3894 212.797 93.9645ZM215.338 99.2288C215.123 98.7476 214.904 98.2685 214.682 97.7914C219.097 96.238 222.374 97.5268 223.24 98.0502C224.26 98.6702 224.59 100 223.97 101.03C223.35 102.06 222.02 102.39 220.99 101.77C220.932 101.736 220.865 101.695 220.788 101.648C219.893 101.105 217.765 99.8117 215.338 99.2288ZM203.874 79.8232C203.386 79.1765 202.891 78.5359 202.387 77.9016C203.399 77.6709 204.197 77.3166 204.63 77.0001C205.24 76.5501 206.11 76.7301 206.54 77.3501C206.97 77.9701 206.85 78.8901 206.19 79.2601H206.2C205.667 79.5621 204.853 79.7604 203.874 79.8232ZM201.093 76.3042C200.822 75.9766 200.549 75.6507 200.274 75.3266C202.878 74.8309 204.854 73.2941 205.47 72.4001C205.9 71.7801 206.78 71.6501 207.39 72.1001C208 72.5501 208.19 73.4501 207.69 74.0201C206.74 75.1131 204.109 76.1742 201.093 76.3042ZM186.128 61.6358C185.69 61.2884 185.249 60.9446 184.806 60.6045C189.419 58.2863 191.326 52.345 187.85 48.7501C181.85 42.5401 177.88 52.8401 184.23 53.2701C184.35 53.279 184.463 53.2309 184.545 53.1964C184.648 53.153 184.7 53.1309 184.65 53.2701C183.9 55.4601 181.71 56.1601 179.7 54.7001C176.25 52.1801 176.85 47.6501 179.24 45.4801C184.18 40.9902 195.26 46.9901 189.69 57.6501C188.795 59.36 187.56 60.664 186.128 61.6358ZM173.347 53.0036C171.255 48.0933 174.299 43.6794 175.72 42.7001V42.6901C176.34 42.2601 176.47 41.3801 176.02 40.7701C175.57 40.1601 174.67 39.9701 174.1 40.4701C172.344 42.0035 170.671 47.8686 172.807 52.6988C172.987 52.7998 173.167 52.9014 173.347 53.0036ZM170.659 51.5297C169.25 48.1607 170.309 44.6611 171.12 43.5502V43.5401C171.57 42.9301 171.4 42.0601 170.77 41.6301C170.14 41.2001 169.23 41.3201 168.86 41.9801C167.974 43.5399 167.981 47.5151 169.682 51.0206C170.009 51.1886 170.334 51.3583 170.659 51.5297ZM167.018 49.7C166.606 48.1529 166.63 46.763 166.83 46.0502C167.04 45.3202 166.57 44.5601 165.83 44.3801C165.09 44.1901 164.28 44.6301 164.16 45.3801C164.033 46.1726 164.243 47.3545 164.766 48.6592C165.521 48.9971 166.272 49.3441 167.018 49.7ZM152.663 44.1683C153.016 44.0975 153.409 44.075 153.84 44.1102C154.213 44.14 154.405 44.4244 154.41 44.7078C153.83 44.5228 153.247 44.3429 152.663 44.1683ZM78.5062 50.9239C80.169 47.4398 80.1696 43.5139 79.2901 41.9601V41.9701C78.9201 41.3101 78.0001 41.1902 77.3801 41.6202C76.7601 42.0502 76.5801 42.9201 77.0301 43.5301C77.8348 44.6327 78.8846 48.0884 77.5227 51.4341C77.8495 51.2623 78.1773 51.0922 78.5062 50.9239ZM75.3862 52.591C77.4566 47.7798 75.7939 41.9831 74.0501 40.4601C73.4801 39.9601 72.5801 40.1501 72.1301 40.7601C71.6801 41.3801 71.8101 42.2502 72.4301 42.6802C73.8427 43.6538 76.8602 48.0221 74.8395 52.898C75.0214 52.7951 75.2036 52.6928 75.3862 52.591ZM128.77 23.2699C128.262 21.6565 128.414 19.7607 129.09 18.2402C129.216 17.9541 129.393 17.6261 129.584 17.2735C130.428 15.7158 131.532 13.6776 129.55 12.6501C129.461 12.6035 129.364 12.5592 129.265 12.5137C128.853 12.3251 128.399 12.1175 128.27 11.6501C128.169 11.2922 128.16 10.8735 128.15 10.4466C128.129 9.47803 128.107 8.46742 127.01 8.03014C126.423 7.79353 126.126 7.30736 125.831 6.8248C125.452 6.20601 125.078 5.59317 124.1 5.52013C123.122 5.5932 122.744 6.20656 122.363 6.82563C122.066 7.30792 121.767 7.79367 121.18 8.03014C120.083 8.46742 120.061 9.47803 120.04 10.4466C120.03 10.8735 120.021 11.2922 119.92 11.6501C119.793 12.1126 119.341 12.3208 118.935 12.5078C118.831 12.5553 118.731 12.6015 118.64 12.6501C116.657 13.6744 117.752 15.6964 118.597 17.2552C118.792 17.614 118.973 17.9483 119.1 18.2402C119.77 19.7702 119.93 21.6702 119.41 23.3002C121.595 19.9568 122.577 15.4233 123.483 11.2394C123.688 10.2924 123.89 9.36341 124.1 8.47014C124.309 9.3558 124.509 10.2766 124.712 11.2152C125.619 15.3932 126.603 19.9231 128.77 23.2699ZM117.711 25.3824C118.085 25.016 118.426 24.6166 118.75 24.2001C119.1 23.2801 119.29 22.2502 119.31 21.6702C119.36 19.7201 118.69 18.0901 117.61 16.5101C116.75 15.2501 116.09 13.8801 117.39 12.7101C117.65 12.4757 117.902 12.2853 118.136 12.1083C118.901 11.5301 119.476 11.0953 119.53 9.74016C119.531 9.71004 119.533 9.67898 119.534 9.64713C119.552 9.17131 119.576 8.51879 119.97 8.20012C120.136 8.06403 120.297 7.93606 120.454 7.81179C121.183 7.23298 121.81 6.73458 122.37 5.87016C122.77 5.25016 123.4 5.03015 124.08 4.92015H124.1H124.12C124.8 5.03015 125.43 5.25016 125.83 5.87016C126.37 6.70886 126.989 7.20285 127.701 7.77174C127.872 7.90829 128.048 8.04914 128.23 8.20012C128.623 8.51818 128.648 9.17758 128.666 9.64611C128.668 9.67843 128.669 9.70984 128.67 9.74016C128.724 11.1027 129.305 11.5408 130.076 12.1219C130.307 12.2957 130.555 12.4823 130.81 12.7101C132.11 13.8801 131.45 15.2601 130.59 16.5101C129.5 18.0901 128.84 19.7302 128.89 21.6702C128.9 22.2502 129.1 23.2801 129.45 24.2001C129.8 24.6501 130.17 25.0801 130.58 25.4701C129.4 23.4601 129.46 20.7501 131.1 18.9401C132.54 17.3501 136.1 15.9901 138.31 16.9601C137.74 15.3201 136.59 13.7802 134.51 14.8002C133.98 14.9402 133.86 14.5201 134.22 14.0901C135.64 11.2101 132.23 9.34016 130.45 10.0502C130.18 10.1602 129.8 9.89012 129.94 9.64012C130.93 7.84012 130.29 5.07013 127.36 5.52013C127.08 5.56013 126.83 5.35011 126.8 5.07011C126.66 3.52011 126.03 1.89014 124.13 1.91014C122.22 1.89014 121.6 3.52011 121.46 5.07011C121.44 5.35011 121.18 5.56013 120.9 5.52013C117.98 5.07013 117.33 7.84012 118.32 9.64012C118.46 9.89012 118.07 10.1602 117.81 10.0502C116.03 9.34016 112.62 11.2001 114.04 14.0901C114.4 14.5101 114.28 14.9402 113.74 14.8002C111.67 13.7802 110.51 15.3201 109.94 16.9601C112.15 15.9801 115.71 17.3501 117.15 18.9401C118.766 20.7239 118.848 23.3819 117.711 25.3824ZM101.678 27.3617C100.987 28.5004 99.0825 31.6351 98.9701 34.8401V34.8301C98.9601 35.1201 98.5601 35.2001 98.4301 34.9401C95.9801 29.7901 97.5001 25.8701 98.0801 24.9101C98.7001 23.8901 100.03 23.5602 101.06 24.1802C102.09 24.8002 102.42 26.1301 101.8 27.1601C101.766 27.218 101.725 27.2854 101.678 27.3617ZM95.6201 33.6102C95.7201 33.8402 95.4301 34.0501 95.2401 33.8901C91.4801 30.7801 91.2401 27.1801 91.3401 26.2301C91.4501 25.2101 92.3701 24.4701 93.3901 24.5801C94.4101 24.6901 95.1501 25.6101 95.0401 26.6301C95.0347 26.6787 95.0283 26.7344 95.0212 26.7965C94.8945 27.8983 94.5315 31.0544 95.6201 33.6102ZM94.7201 35.8401C94.8901 35.9501 94.8101 36.2301 94.6001 36.2201L94.5901 36.2101C90.5301 35.9901 88.5901 33.7001 88.1901 33.0101C87.7601 32.2701 88.0101 31.3201 88.7501 30.8901C89.4901 30.4601 90.4401 30.7101 90.8701 31.4501C90.8954 31.4929 90.9247 31.5433 90.9579 31.6005C91.4382 32.4274 92.7467 34.6804 94.7201 35.8401ZM126.991 34.4477C126.242 34.9341 125.562 35.3758 124.95 36.2201H124.96C124.63 36.6801 124.34 37.1901 124.09 37.7201C123.83 37.1901 123.54 36.6801 123.21 36.2201C122.597 35.3807 121.915 34.9356 121.163 34.4453C120.885 34.2638 120.597 34.0762 120.3 33.8602C119.54 33.3102 119.33 32.0401 119.33 31.1702C119.325 29.2714 120.508 27.7852 121.7 26.289C122.779 24.9327 123.866 23.568 124.08 21.8801C124.294 23.5695 125.38 24.935 126.46 26.2924C127.649 27.7875 128.83 29.2728 128.83 31.1702C128.83 32.0401 128.62 33.3102 127.86 33.8602C127.561 34.0778 127.271 34.2659 126.991 34.4477ZM192.93 52.2501C192.84 52.4401 192.55 52.3801 192.55 52.1702H192.54C192.464 49.8356 191.05 47.556 190.578 46.794C190.557 46.7595 190.537 46.7282 190.52 46.7001C190.07 45.9701 190.31 45.0101 191.04 44.5701C191.77 44.1301 192.73 44.3601 193.17 45.0901C193.58 45.7801 194.67 48.5701 192.93 52.2501ZM149.73 34.9601C149.6 35.2201 149.19 35.1401 149.19 34.8501L149.2 34.8602C149.088 31.6513 147.19 28.5299 146.496 27.3875C146.448 27.3088 146.406 27.2395 146.37 27.1802C145.74 26.1602 146.07 24.8201 147.1 24.2001C148.12 23.5801 149.46 23.9002 150.08 24.9302C150.66 25.8802 152.18 29.8101 149.73 34.9601ZM156.82 26.2402C156.92 27.1902 156.69 30.7901 152.92 33.9001C152.73 34.0601 152.44 33.8502 152.54 33.6202C153.629 31.0644 153.266 27.9082 153.139 26.8065C153.132 26.7443 153.125 26.6887 153.12 26.6401C153.01 25.6201 153.75 24.7001 154.77 24.5901C155.79 24.4801 156.71 25.2202 156.82 26.2402ZM153.55 36.2402C153.35 36.2502 153.26 35.9702 153.44 35.8602V35.8702C155.449 34.6838 156.781 32.3534 157.225 31.5759C157.245 31.5407 157.264 31.5087 157.28 31.4801C157.71 30.7401 158.66 30.4902 159.4 30.9202C160.14 31.3502 160.39 32.3001 159.96 33.0401C159.55 33.7301 157.61 36.0202 153.55 36.2402ZM18.2301 119.09C19.7701 119.77 21.6701 119.92 23.2901 119.4V119.42C19.9403 121.602 15.3957 122.588 11.2051 123.498C10.2665 123.702 9.34573 123.902 8.46007 124.11C9.35334 124.321 10.2824 124.522 11.2293 124.727C15.4132 125.633 19.9468 126.615 23.2901 128.8C21.6601 128.29 19.7601 128.44 18.2301 129.11C17.942 129.237 17.6117 129.416 17.2568 129.609C15.7025 130.454 13.6759 131.557 12.6501 129.57C12.6027 129.479 12.5576 129.38 12.5114 129.279C12.3234 128.865 12.1155 128.409 11.6501 128.28C11.2922 128.179 10.8735 128.17 10.4466 128.161C9.47797 128.139 8.46736 128.117 8.03008 127.02C7.79361 126.433 7.30786 126.134 6.82557 125.837C6.2065 125.456 5.59314 125.078 5.52007 124.1C5.59321 123.115 6.20778 122.739 6.8275 122.359C7.30915 122.063 7.79393 121.766 8.03008 121.18C8.46724 120.077 9.47742 120.057 10.4458 120.038C10.8729 120.029 11.292 120.021 11.6501 119.92C12.1168 119.783 12.3245 119.329 12.5129 118.917C12.5586 118.817 12.6032 118.72 12.6501 118.63C13.6691 116.649 15.705 117.752 17.2624 118.595C17.6153 118.787 17.9437 118.964 18.2301 119.09ZM53.2202 52.1982C53.2465 52.5886 53.2724 52.9752 53.3101 53.3501V53.3602C52.9308 53.322 52.5395 53.2963 52.1444 53.2702C50.4666 53.1597 48.7199 53.0447 47.5301 51.9601C46.1493 50.7114 45.6613 49.042 45.1753 47.3799C44.7779 46.0205 44.3819 44.6659 43.5001 43.5502C44.6173 44.4331 45.9759 44.829 47.3383 45.226C49.0004 45.7103 50.6681 46.1963 51.9101 47.5701C52.9895 48.7632 53.1073 50.5162 53.2202 52.1982ZM44.5301 57.1102C44.0901 56.3802 44.3201 55.4201 45.0501 54.9801V54.9902C45.7401 54.5802 48.5301 53.4901 52.2101 55.2301C52.4001 55.3201 52.3401 55.6102 52.1301 55.6102C49.7955 55.6867 47.5157 57.0999 46.7538 57.5721C46.7194 57.5934 46.6881 57.6128 46.6601 57.6301C45.9301 58.0801 44.9701 57.8402 44.5301 57.1102ZM26.7765 95.0012C26.7143 95.0084 26.6587 95.0148 26.6101 95.0201C25.5901 95.1301 24.6701 94.3902 24.5601 93.3702C24.4501 92.3502 25.1901 91.4301 26.2101 91.3201C27.1701 91.2201 30.7601 91.4501 33.8701 95.2201C34.0301 95.4101 33.8201 95.7001 33.5901 95.6001C31.0343 94.5116 27.8783 94.8745 26.7765 95.0012ZM204.554 43.546C204.569 43.5342 204.585 43.5222 204.6 43.5101L204.59 43.5001C204.578 43.5154 204.566 43.5307 204.554 43.546ZM204.554 43.546C203.445 44.4042 202.107 44.7947 200.764 45.1864C199.104 45.6706 197.437 46.1567 196.19 47.5301C195.105 48.7283 194.99 50.4703 194.88 52.1462C194.854 52.5405 194.828 52.9311 194.79 53.3102C195.165 53.2725 195.552 53.2465 195.942 53.2203C197.624 53.1073 199.377 52.9896 200.57 51.9101C201.944 50.6682 202.43 49.0004 202.914 47.3383C203.306 45.9945 203.696 44.6544 204.554 43.546ZM195.98 55.5701C195.77 55.5701 195.71 55.2801 195.9 55.1901V55.1802C199.58 53.4402 202.38 54.5301 203.06 54.9401C203.79 55.3901 204.02 56.3401 203.58 57.0701C203.13 57.8001 202.18 58.0301 201.45 57.5901C201.408 57.5649 201.359 57.5349 201.303 57.5007C200.492 57.0059 198.262 55.6449 195.98 55.5701ZM229.9 129.06C228.37 128.39 226.46 128.23 224.84 128.75V128.73C228.19 126.549 232.734 125.562 236.925 124.652C237.864 124.449 238.784 124.249 239.67 124.04C238.804 123.838 237.904 123.644 236.987 123.446C232.779 122.537 228.206 121.55 224.84 119.35C226.47 119.87 228.37 119.71 229.9 119.04C230.192 118.913 230.526 118.732 230.885 118.537C232.444 117.693 234.466 116.597 235.49 118.58C235.537 118.67 235.582 118.767 235.627 118.867C235.816 119.279 236.023 119.733 236.49 119.87C236.852 119.975 237.276 119.985 237.707 119.994C238.672 120.016 239.675 120.039 240.11 121.13C240.347 121.717 240.832 122.016 241.315 122.313C241.934 122.694 242.547 123.072 242.62 124.05C242.547 125.035 241.932 125.412 241.313 125.792C240.831 126.087 240.346 126.384 240.11 126.97C239.673 128.073 238.663 128.093 237.694 128.112C237.267 128.121 236.848 128.129 236.49 128.23C236.023 128.367 235.816 128.821 235.627 129.233C235.582 129.333 235.537 129.43 235.49 129.52C234.464 131.508 232.428 130.403 230.871 129.557C230.517 129.365 230.187 129.186 229.9 129.06ZM214.54 95.5901C214.31 95.6901 214.1 95.4001 214.26 95.2101C217.37 91.4401 220.97 91.2102 221.92 91.3102C222.94 91.4202 223.68 92.3402 223.57 93.3602C223.46 94.3801 222.54 95.1201 221.52 95.0101C221.471 95.0048 221.416 94.9984 221.354 94.9912C220.252 94.8645 217.096 94.5016 214.54 95.5901Z" fill="#F0DEAB"/>
<circle cx="124" cy="140" r="98.5" stroke="#F0DEAB" stroke-width="3"/>
</svg>
