<svg width="25" height="25" viewBox="0 0 25 25" fill="none" xmlns="http://www.w3.org/2000/svg">
<path d="M12.5 12.9263C13.05 12.9263 13.521 12.7303 13.913 12.3383C14.3043 11.9469 14.5 11.4763 14.5 10.9263C14.5 10.3763 14.3043 9.90527 13.913 9.51327C13.521 9.12194 13.05 8.92627 12.5 8.92627C11.95 8.92627 11.4793 9.12194 11.088 9.51327C10.696 9.90527 10.5 10.3763 10.5 10.9263C10.5 11.4763 10.696 11.9469 11.088 12.3383C11.4793 12.7303 11.95 12.9263 12.5 12.9263ZM12.5 20.2763C14.5333 18.4096 16.0417 16.7136 17.025 15.1883C18.0083 13.6636 18.5 12.3096 18.5 11.1263C18.5 9.3096 17.9207 7.82194 16.762 6.66327C15.604 5.50527 14.1833 4.92627 12.5 4.92627C10.8167 4.92627 9.39567 5.50527 8.237 6.66327C7.079 7.82194 6.5 9.3096 6.5 11.1263C6.5 12.3096 6.99167 13.6636 7.975 15.1883C8.95833 16.7136 10.4667 18.4096 12.5 20.2763ZM12.5 22.5513C12.3667 22.5513 12.2333 22.5263 12.1 22.4763C11.9667 22.4263 11.85 22.3596 11.75 22.2763C9.31667 20.1263 7.5 18.1306 6.3 16.2893C5.1 14.4473 4.5 12.7263 4.5 11.1263C4.5 8.62627 5.30433 6.6346 6.913 5.15127C8.521 3.66794 10.3833 2.92627 12.5 2.92627C14.6167 2.92627 16.479 3.66794 18.087 5.15127C19.6957 6.6346 20.5 8.62627 20.5 11.1263C20.5 12.7263 19.9 14.4473 18.7 16.2893C17.5 18.1306 15.6833 20.1263 13.25 22.2763C13.15 22.3596 13.0333 22.4263 12.9 22.4763C12.7667 22.5263 12.6333 22.5513 12.5 22.5513Z" fill="#F0DEAB"/>
</svg>
