<svg width="25" height="24" viewBox="0 0 25 24" fill="none" xmlns="http://www.w3.org/2000/svg">
<path d="M2.3335 3H8.3335C9.39436 3 10.4118 3.42143 11.1619 4.17157C11.9121 4.92172 12.3335 5.93913 12.3335 7V21C12.3335 20.2044 12.0174 19.4413 11.4548 18.8787C10.8922 18.3161 10.1291 18 9.3335 18H2.3335V3Z" stroke="#F0DEAB" stroke-width="1.5" stroke-linecap="round" stroke-linejoin="round"/>
<path d="M22.3335 3H16.3335C15.2726 3 14.2552 3.42143 13.5051 4.17157C12.7549 4.92172 12.3335 5.93913 12.3335 7V21C12.3335 20.2044 12.6496 19.4413 13.2122 18.8787C13.7748 18.3161 14.5378 18 15.3335 18H22.3335V3Z" stroke="#F0DEAB" stroke-width="1.5" stroke-linecap="round" stroke-linejoin="round"/>
</svg>
