<svg width="237" height="8" viewBox="0 0 237 8" fill="none" xmlns="http://www.w3.org/2000/svg">
<path fill-rule="evenodd" clip-rule="evenodd" d="M1.83137 4.45809C1.40483 4.30571 0.961334 4.14727 0.5 3.97008C0.963411 3.79182 1.40882 3.63257 1.83713 3.47943C3.9882 2.71036 5.70813 2.09543 7.11211 0C8.04149 2.64063 9.83016 3.13585 11.8278 3.13585H28.8247H118.482V4.80431H11.7564C9.7834 4.80431 8.02332 5.35105 7.11211 7.9385C5.70688 5.84259 3.98513 5.2275 1.83137 4.45809ZM235.169 4.45809C235.595 4.30571 236.039 4.14727 236.5 3.97008C236.037 3.79182 235.591 3.63257 235.163 3.47943C233.012 2.71036 231.292 2.09543 229.888 0C228.959 2.64063 227.17 3.13585 225.172 3.13585H208.175H118.518V4.80431H225.244C227.217 4.80431 228.977 5.35105 229.888 7.9385C231.293 5.84259 233.015 5.2275 235.169 4.45809Z" fill="#F0DEAB"/>
</svg>
