<svg width="393" height="67" viewBox="0 0 393 67" fill="none" xmlns="http://www.w3.org/2000/svg">
<path d="M45.0336 60.0644C31.6051 58.282 21.688 47.8743 12.3131 39.0855C1.3917 28.8454 -11.0232 18.9379 -25.612 14.5218C-30.4502 13.0614 -35.6813 11.9456 -40.6716 13.2918C-46.0616 14.7433 -52.9628 20.3593 -50.0158 26.7093C-49.5932 27.6099 -48.9501 28.4916 -48.1497 29.1748C-48.4024 27.7592 -48.1678 26.2192 -47.6533 24.9211C-44.0091 15.796 -29.5246 18.3008 -30.2968 28.4862C-30.9199 36.6759 -40.6215 41.6101 -48.0295 38.4433C-54.1771 35.8121 -56.9758 28.335 -55.4658 22.1453C-53.7211 14.9813 -47.0354 10.2296 -39.9451 9.01354C-30.7664 7.44105 -21.045 10.9469 -12.3528 15.8849C-11.3044 11.6131 -7.6061 10.1579 -3.01639 11.9826C4.78161 15.0827 9.34668 23.2626 14.1726 29.5974C14.8929 27.4407 16.8889 25.7579 19.2097 25.4348C23.1999 24.8721 26.3978 28.2189 28.2602 31.2982C28.3368 31.4238 28.4133 31.5495 28.4899 31.6752C28.4899 31.6752 28.4996 31.6694 28.5093 31.6636C33.5998 29.3833 37.1732 30.7251 39.5478 35.7438C40.8668 38.5401 41.4609 41.6147 43.3973 44.0977C46.8156 48.4913 52.4591 51.4804 57.4973 47.646C57.5498 47.6017 57.6009 47.6964 57.5503 47.733C52.6058 51.5908 47.4311 49.8825 43.1572 45.7265C38.709 41.404 38.132 29.2755 29.6828 33.5793C29.6731 33.5851 29.6555 33.5889 29.6458 33.5947C31.5398 36.7802 33.3551 39.7823 36.0966 42.5971C39.0182 45.5881 42.418 48.6244 46.1323 50.6326C52.9177 54.2999 63.0568 50.0404 62.4147 41.6337C62.4067 41.5661 62.514 41.5683 62.5221 41.6359C62.9036 46.961 59.7278 51.0794 54.5484 52.485C48.371 54.1664 43.5982 50.7795 38.883 47.0955C34.6746 43.8083 31.0667 39.8757 28.3503 35.2964C27.6477 34.1211 27.1124 32.8072 26.3416 31.6724C24.3549 28.7588 16.3892 24.5676 16.0601 30.9123C16.0455 31.2038 15.9253 31.4198 15.76 31.5835C22.1991 39.4682 31.1846 47.3566 40.2549 51.61C46.0477 54.3331 53.2305 55.6076 59.0567 52.2401C64.622 49.0207 67.4668 41.2047 63.1338 35.7879C63.0907 35.7279 63.1646 35.6644 63.2156 35.7263C67.0981 40.6537 66.4635 47.7912 61.5529 51.846C55.9399 56.488 47.7352 55.9507 41.3494 53.2765C32.101 49.4049 22.6635 41.6989 16.0018 34.3407C12.196 30.1375 9.12952 25.3315 5.37237 21.0994C2.94923 18.3721 -8.96217 8.47542 -9.7546 17.3442C-9.76038 17.3674 -9.76423 17.3828 -9.77 17.406C-5.44472 20.0583 -1.42873 22.986 2.0656 25.7098C12.214 33.6259 20.5092 43.8833 31.0733 51.2636C38.8678 56.7073 50.1576 60.1452 59.2214 55.8061C64.3931 53.3329 69.0576 48.6347 68.8043 42.5956C68.6283 38.576 66.5631 33.8475 62.2045 32.8264C58.5274 31.967 54.0339 34.7814 52.995 38.449C53.4195 37.6449 54.0687 36.9378 54.8495 36.4685C56.8666 35.2336 59.8198 35.5354 60.8914 37.8601C61.9236 40.1095 60.6079 42.1915 58.9076 43.6202C54.2268 47.5519 49.2024 43.0448 49.9093 37.6468C50.6164 32.2817 56.5553 28.7619 61.6681 30.0859C61.7306 30.1015 61.7056 30.2018 61.6431 30.1862C57.9555 29.1028 53.7745 31.4623 51.9891 34.7962C53.2594 32.5963 55.2801 31.2475 57.9791 30.8384C58.0395 30.8289 58.0555 30.9312 57.995 30.9407C55.5929 31.4239 53.8396 33.3312 53.1704 35.5826C54.0931 33.8453 55.6919 32.3913 57.8297 31.6373C63.5084 29.6266 68.5275 33.7225 70.1574 38.9326C74.8596 53.9833 57.4489 61.7171 45.0473 60.076L45.0336 60.0644Z" fill="#F0DEAB"/>
<line x1="100.5" y1="66.4263" x2="292.5" y2="66.4263" stroke="#F0DEAB"/>
<path d="M347.966 60.0644C361.395 58.282 371.312 47.8743 380.687 39.0855C391.608 28.8454 404.023 18.9379 418.612 14.5218C423.45 13.0614 428.681 11.9456 433.672 13.2918C439.062 14.7433 445.963 20.3593 443.016 26.7093C442.593 27.6099 441.95 28.4916 441.15 29.1748C441.402 27.7592 441.168 26.2192 440.653 24.9211C437.009 15.796 422.525 18.3008 423.297 28.4862C423.92 36.6759 433.622 41.6101 441.03 38.4433C447.177 35.8121 449.976 28.335 448.466 22.1453C446.721 14.9813 440.035 10.2296 432.945 9.01354C423.766 7.44105 414.045 10.9469 405.353 15.8849C404.304 11.6131 400.606 10.1579 396.016 11.9826C388.218 15.0827 383.653 23.2626 378.827 29.5974C378.107 27.4407 376.111 25.7579 373.79 25.4348C369.8 24.8721 366.602 28.2189 364.74 31.2982C364.663 31.4238 364.587 31.5495 364.51 31.6752C364.51 31.6752 364.5 31.6694 364.491 31.6636C359.4 29.3833 355.827 30.7251 353.452 35.7438C352.133 38.5401 351.539 41.6147 349.603 44.0977C346.184 48.4913 340.541 51.4804 335.503 47.646C335.45 47.6017 335.399 47.6964 335.45 47.733C340.394 51.5908 345.569 49.8825 349.843 45.7265C354.291 41.404 354.868 29.2755 363.317 33.5793C363.327 33.5851 363.344 33.5889 363.354 33.5947C361.46 36.7802 359.645 39.7823 356.903 42.5971C353.982 45.5881 350.582 48.6244 346.868 50.6326C340.082 54.2999 329.943 50.0404 330.585 41.6337C330.593 41.5661 330.486 41.5683 330.478 41.6359C330.096 46.961 333.272 51.0794 338.452 52.485C344.629 54.1664 349.402 50.7795 354.117 47.0955C358.325 43.8083 361.933 39.8757 364.65 35.2964C365.352 34.1211 365.888 32.8072 366.658 31.6724C368.645 28.7588 376.611 24.5676 376.94 30.9123C376.954 31.2038 377.075 31.4198 377.24 31.5835C370.801 39.4682 361.815 47.3566 352.745 51.61C346.952 54.3331 339.769 55.6076 333.943 52.2401C328.378 49.0207 325.533 41.2047 329.866 35.7879C329.909 35.7279 329.835 35.6644 329.784 35.7263C325.902 40.6537 326.537 47.7912 331.447 51.846C337.06 56.488 345.265 55.9507 351.651 53.2765C360.899 49.4049 370.336 41.6989 376.998 34.3407C380.804 30.1375 383.87 25.3315 387.628 21.0994C390.051 18.3721 401.962 8.47542 402.755 17.3442C402.76 17.3674 402.764 17.3828 402.77 17.406C398.445 20.0583 394.429 22.986 390.934 25.7098C380.786 33.6259 372.491 43.8833 361.927 51.2636C354.132 56.7073 342.842 60.1452 333.779 55.8061C328.607 53.3329 323.942 48.6347 324.196 42.5956C324.372 38.576 326.437 33.8475 330.796 32.8264C334.473 31.967 338.966 34.7814 340.005 38.449C339.58 37.6449 338.931 36.9378 338.15 36.4685C336.133 35.2336 333.18 35.5354 332.109 37.8601C331.076 40.1095 332.392 42.1915 334.092 43.6202C338.773 47.5519 343.798 43.0448 343.091 37.6468C342.384 32.2817 336.445 28.7619 331.332 30.0859C331.269 30.1015 331.294 30.2018 331.357 30.1862C335.045 29.1028 339.226 31.4623 341.011 34.7962C339.741 32.5963 337.72 31.2475 335.021 30.8384C334.96 30.8289 334.945 30.9312 335.005 30.9407C337.407 31.4239 339.16 33.3312 339.83 35.5826C338.907 33.8453 337.308 32.3913 335.17 31.6373C329.492 29.6266 324.473 33.7225 322.843 38.9326C318.14 53.9833 335.551 61.7171 347.953 60.076L347.966 60.0644Z" fill="#F0DEAB"/>
</svg>
