<svg width="15" height="12" viewBox="0 0 15 12" fill="none" xmlns="http://www.w3.org/2000/svg">
<g clip-path="url(#clip0_1560_1025)">
<path d="M12.4942 9.62451C12.9063 9.52808 13.663 9.47158 13.9149 8.9082C13.9149 8.9082 13.9682 9.18193 13.662 9.46875C13.662 9.46875 14.1886 9.7777 14.7 9.58358C14.8607 9.52258 14.8966 9.41733 14.8645 9.32522C14.7874 9.1048 14.4171 9.11262 14.5453 9.35792C14.5892 9.48348 14.2869 9.57292 14.2157 9.36923C14.161 9.21297 14.2715 9.09523 14.4482 9.02814C14.6945 8.93462 14.9187 9.08974 14.9811 9.2683C15.0347 9.42182 14.9806 9.62252 14.7369 9.71496C14.1907 9.92231 13.2543 9.59514 12.4915 9.62551L12.4942 9.62451Z" fill="#242424"/>
<path d="M12.9024 7.3646C12.5784 7.48759 12.2733 7.84677 12.4323 8.30156C12.5484 8.63359 12.8768 8.64481 13.0937 8.56247C13.3106 8.48015 13.468 8.19286 13.4346 8.08861C13.4346 8.08861 13.1823 8.09586 13.118 7.91171C13.076 7.79174 13.1451 7.67702 13.2442 7.63942C13.3915 7.58351 13.6403 7.61862 13.7847 8.03157C13.9066 8.38034 13.7347 8.83431 13.3491 8.98069C12.8779 9.15956 12.3698 8.97315 12.2544 8.9032C12.191 8.86087 12.1599 8.91062 12.1534 8.93523C12.123 9.04789 12.2889 9.18402 12.2792 9.29519C11.6746 9.34453 10.9739 9.30076 10.4625 9.49488C9.83856 9.73178 9.45806 10.3092 9.71167 11.0346C9.90484 11.5871 10.5774 11.8626 11.1505 11.6451C11.7235 11.4276 12.0413 11.0004 11.8296 10.3949C11.7253 10.0965 11.4169 9.85634 10.9483 10.0342C10.7046 10.1268 10.4937 10.4344 10.5873 10.7022C10.6917 11.0008 10.9384 11.0557 11.1017 10.9936C11.34 10.9032 11.4683 10.3678 11.6127 10.7808C11.6663 10.9342 11.5618 11.2425 11.1414 11.4021C10.6968 11.5708 10.3553 11.1316 10.2616 10.8637C10.1221 10.4648 10.2849 9.90676 10.8767 9.68219C11.6747 9.37923 12.218 9.60597 13.0802 9.27871C13.1231 9.2624 13.1659 9.24618 13.2141 9.22787C13.8942 8.96969 14.1091 8.36981 13.9482 7.90943C13.7872 7.44906 13.3888 7.17682 12.9041 7.3608L12.9024 7.3646Z" fill="#242424"/>
<path d="M11.4326 9.76184C11.9014 9.62812 12.8856 9.71915 13.2384 10.034C13.2384 10.034 12.7468 10.129 12.4852 9.98808C12.4852 9.98808 12.5408 10.1123 12.5258 10.2255C12.4235 10.2801 12.3149 10.2644 12.2845 10.238C12.2845 10.238 12.3275 10.4999 12.1095 10.7091C12.1095 10.7091 12.2171 9.94123 11.4342 9.75809L11.4326 9.76184Z" fill="#242424"/>
<path d="M2.50585 9.62453C2.09369 9.52809 1.33699 9.47159 1.08506 8.9082C1.08506 8.9082 1.03183 9.18195 1.33796 9.46877C1.33796 9.46877 0.811401 9.77772 0.299955 9.58359C0.13929 9.5226 0.103316 9.41734 0.135505 9.32523C0.212563 9.10482 0.582892 9.11264 0.454687 9.35793C0.410792 9.48349 0.71315 9.57294 0.784355 9.36925C0.838975 9.21298 0.728505 9.09525 0.551773 9.02814C0.305425 8.93463 0.08134 9.08975 0.018912 9.26832C-0.0347376 9.42175 0.0194462 9.62253 0.263119 9.71498C0.809373 9.92233 1.74573 9.59516 2.50853 9.62553L2.50585 9.62453Z" fill="#242424"/>
<path d="M2.09756 7.3646C2.42156 7.48759 2.72669 7.84677 2.56769 8.30156C2.45161 8.63359 2.12315 8.6448 1.90626 8.56248C1.68936 8.48014 1.53199 8.19286 1.56541 8.08861C1.56541 8.08861 1.81765 8.09587 1.88202 7.91171C1.92396 7.79173 1.85488 7.67702 1.75581 7.63941C1.60853 7.58351 1.35968 7.61863 1.21531 8.03157C1.09338 8.38034 1.26527 8.83432 1.65086 8.98068C2.12214 9.15957 2.63014 8.97316 2.74559 8.90321C2.80892 8.86087 2.84005 8.91062 2.84661 8.93523C2.87698 9.0479 2.7111 9.18403 2.72078 9.2952C3.32531 9.34446 4.02607 9.30077 4.53751 9.4949C5.16141 9.73171 5.5419 10.3092 5.28828 11.0346C5.09514 11.5871 4.42251 11.8627 3.84947 11.6452C3.27644 11.4276 2.9587 11.0005 3.17037 10.395C3.27474 10.0964 3.58312 9.85635 4.05172 10.0343C4.29539 10.1268 4.50632 10.4344 4.41267 10.7022C4.3083 11.0008 4.06163 11.0556 3.89829 10.9936C3.65997 10.9032 3.5317 10.3678 3.38734 10.7807C3.33369 10.9342 3.43822 11.2425 3.85862 11.4021C4.30312 11.5708 4.64472 11.1316 4.73836 10.8637C4.87785 10.4648 4.71502 9.90678 4.12325 9.68212C3.32529 9.37924 2.78197 9.60598 1.91975 9.27872C1.8769 9.26241 1.83406 9.24619 1.78586 9.22788C1.10572 8.9697 0.89081 8.36981 1.05176 7.90944C1.21271 7.44906 1.61119 7.17682 2.09586 7.3608L2.09756 7.3646Z" fill="#242424"/>
<path d="M3.5675 9.76184C3.09864 9.62812 2.11445 9.71915 1.76172 10.034C1.76172 10.034 2.25325 10.129 2.51483 9.988C2.51483 9.988 2.45924 10.1123 2.47428 10.2255C2.57651 10.2801 2.68511 10.2644 2.71555 10.238C2.71555 10.238 2.67256 10.4998 2.8906 10.709C2.8906 10.709 2.78292 9.94124 3.5658 9.75801L3.5675 9.76184Z" fill="#242424"/>
<path d="M2.97072 5.63644L4.48882 4.01514L6.02059 5.63644H2.97072ZM4.70524 3.81152L6.01114 5.23358L7.25397 3.81152H4.70524ZM7.61643 3.81152L8.98432 5.23358L10.3406 3.81152H7.61643ZM8.98432 5.63644L7.45257 4.01514L5.93549 5.63644H8.98432ZM12.0331 5.63644L10.5014 4.01514L8.98328 5.63644H12.0321H12.0331ZM6.01008 5.97799L7.29078 11.5107L7.48539 11.7329L7.66586 11.5107L8.90766 5.97799H6.01008ZM2.96967 5.97799L7.09114 11.5107L5.6886 5.97799H2.97072H2.96967ZM9.25854 5.97799L7.86541 11.5107L11.9775 5.97799H9.25854Z" fill="#242424"/>
<path d="M9.60463 2.29127C9.57796 2.35393 9.55592 2.39391 9.49859 2.41737C9.4276 2.44652 9.42456 2.47462 9.40907 2.55623C9.38216 2.46501 9.294 2.40833 9.22693 2.49005C9.27931 2.48556 9.32922 2.52434 9.32307 2.58915C9.31596 2.66454 9.26238 2.68434 9.21056 2.7073C9.16264 2.72854 9.16696 2.77414 9.17199 2.82425C9.1759 2.86286 9.21191 2.91703 9.20377 2.95429C9.19778 2.98118 9.18341 3.00157 9.14292 3.01359C9.13438 2.99509 9.11705 2.92683 9.02378 2.90585C8.9702 2.89388 8.92364 2.92888 8.89553 2.9572C8.89498 2.92957 8.90568 2.83772 8.81225 2.76966C8.77168 2.73998 8.71443 2.74074 8.66388 2.76512C8.65797 2.73971 8.59449 2.68539 8.57732 2.68575C8.59449 2.68539 8.62978 2.69612 8.64719 2.69612C8.6856 2.69612 8.72545 2.689 8.76322 2.68132C8.78422 2.67733 8.8049 2.67285 8.82526 2.66491C8.88867 2.64013 8.95503 2.59728 8.9991 2.53723C9.0431 2.47745 9.05029 2.40127 9.0697 2.33073C9.08638 2.27035 9.1109 2.18703 9.17598 2.18084C9.25831 2.17277 9.31988 2.2011 9.27045 2.14451C9.23012 2.09822 9.13062 2.05296 9.08072 2.08657C9.03735 2.11556 8.98601 2.1762 8.95806 2.22452C9.00917 2.13647 9.08335 1.96899 9.05756 1.8555C9.03632 1.7624 8.9492 1.70142 8.93187 1.60431C8.93067 1.59787 8.93035 1.59178 8.93019 1.58562C8.93259 1.57458 8.93402 1.56314 8.93442 1.5514C8.9353 1.53615 8.93434 1.52061 8.93187 1.50432C8.91925 1.5119 8.90823 1.52083 8.89841 1.53096C8.8909 1.53863 8.88412 1.54708 8.87805 1.55616C8.87389 1.55987 8.86942 1.56337 8.86439 1.56619C8.78829 1.61066 8.69311 1.56867 8.61732 1.60688C8.52493 1.65373 8.4581 1.82536 8.43031 1.92678C8.44556 1.87115 8.45458 1.78668 8.44732 1.72899C8.43917 1.6625 8.34686 1.59957 8.29064 1.59138C8.22189 1.58131 8.27906 1.62005 8.3249 1.70027C8.3582 1.7591 8.32498 1.82753 8.29663 1.87828C8.26381 1.9366 8.22013 1.9873 8.1937 2.05022C8.1735 2.09875 8.16631 2.1528 8.16735 2.20673C8.16847 2.26929 8.181 2.34447 8.21079 2.398C8.22213 2.41864 8.27236 2.48582 8.28761 2.5018C8.30206 2.51722 8.34638 2.5471 8.35676 2.56641C8.32522 2.54607 8.2825 2.51669 8.21183 2.54805C8.20057 2.50361 8.15433 2.3987 8.0205 2.37499C7.93521 2.36019 7.87405 2.40556 7.81599 2.47068C7.81152 2.45371 7.80777 2.43639 7.8013 2.42015C7.7779 2.36049 7.71147 2.31143 7.65525 2.31341C7.68751 2.28721 7.99423 2.08275 8.04685 2.02188C8.10067 1.96024 8.14052 1.87675 8.14012 1.78698C8.13956 1.65622 8.01427 1.36761 8.1418 1.27155C8.23826 1.19849 8.32969 1.18611 8.23706 1.1546C8.1616 1.12865 8.01403 1.14935 7.97195 1.22894C7.93514 1.29792 7.90663 1.41139 7.89952 1.49205C7.91238 1.34488 7.9087 1.0827 7.81288 0.963453C7.75475 0.891028 7.66196 0.867838 7.58697 0.817511C7.56078 0.799965 7.53691 0.779317 7.5171 0.752093C7.51271 0.745761 7.50872 0.7393 7.50544 0.732422C7.50201 0.739314 7.4981 0.745761 7.49362 0.752093C7.47398 0.779317 7.44995 0.799965 7.42399 0.817511C7.34869 0.867838 7.25598 0.891028 7.19785 0.963453C7.10215 1.0827 7.09848 1.34488 7.11124 1.49205C7.10427 1.41139 7.07566 1.29792 7.039 1.22894C6.99665 1.14935 6.84925 1.12865 6.77376 1.1546C6.68106 1.1861 6.77255 1.19849 6.86903 1.27155C6.99651 1.36761 6.87116 1.65622 6.87058 1.78698C6.87024 1.87675 6.91027 1.96024 6.96385 2.02188C7.01654 2.08275 7.32338 2.28721 7.35556 2.31341C7.29942 2.31143 7.23274 2.36049 7.20939 2.42015C7.20305 2.43639 7.1993 2.45371 7.19484 2.47068C7.13681 2.40556 7.07545 2.36019 6.99029 2.37499C6.85648 2.39872 6.81023 2.50361 6.7989 2.54805C6.7282 2.51669 6.68542 2.54607 6.65396 2.56641C6.66439 2.54712 6.70864 2.51722 6.72321 2.5018C6.73834 2.48582 6.78857 2.41864 6.80002 2.398C6.82979 2.34447 6.84238 2.26929 6.84337 2.20673C6.84434 2.1528 6.83728 2.09875 6.81693 2.05022C6.79047 1.9873 6.74688 1.9366 6.7142 1.87828C6.68573 1.82754 6.65261 1.7591 6.68584 1.70027C6.73175 1.62003 6.78891 1.58129 6.7201 1.59138C6.66387 1.59957 6.5717 1.6625 6.56347 1.72899C6.55627 1.78668 6.56517 1.87115 6.58034 1.92678C6.5528 1.82536 6.48578 1.65373 6.39342 1.60688C6.31761 1.56867 6.22244 1.61066 6.1463 1.56619C6.14142 1.56337 6.13686 1.55987 6.13263 1.55616C6.12673 1.54708 6.11996 1.53863 6.1124 1.53096C6.10252 1.52081 6.09162 1.5119 6.07895 1.50432C6.07618 1.5206 6.07548 1.53615 6.07618 1.5514C6.07683 1.56314 6.07828 1.57458 6.0807 1.58562C6.0805 1.59178 6.08004 1.59787 6.07883 1.60431C6.06162 1.70142 5.97435 1.7624 5.9532 1.8555C5.92734 1.96899 6.00168 2.13645 6.05273 2.22452C6.02469 2.17619 5.97334 2.11556 5.92996 2.08657C5.87997 2.05296 5.7806 2.09822 5.74033 2.14451C5.69068 2.2011 5.75235 2.17277 5.83485 2.18084C5.89988 2.18703 5.92442 2.27035 5.94102 2.33073C5.96055 2.40127 5.96778 2.47745 6.01171 2.53723C6.0556 2.59728 6.12216 2.64013 6.18565 2.66491C6.20579 2.67285 6.22636 2.67735 6.24735 2.68132C6.28531 2.68898 6.32505 2.69612 6.36361 2.69612C6.38082 2.69612 6.41618 2.68539 6.43353 2.68575C6.41618 2.68539 6.3528 2.73971 6.34694 2.76512C6.29636 2.74074 6.23898 2.73998 6.19841 2.76966C6.1052 2.83772 6.11575 2.92957 6.11527 2.9572C6.08714 2.9289 6.04046 2.89388 5.98701 2.90585C5.89364 2.92683 5.8764 2.99509 5.86785 3.01359C5.82727 3.00157 5.81292 2.98116 5.80716 2.95429C5.79884 2.91703 5.83492 2.86286 5.83873 2.82425C5.84382 2.77415 5.84817 2.72854 5.80015 2.7073C5.74824 2.68434 5.69491 2.66454 5.68777 2.58915C5.68155 2.52436 5.73134 2.48558 5.78382 2.49005C5.71676 2.40833 5.62863 2.46501 5.60173 2.55623C5.5863 2.47464 5.58331 2.44652 5.51213 2.41737C5.45487 2.39391 5.43299 2.35392 5.40611 2.29127C5.3982 2.36349 5.44421 2.44419 5.48279 2.4952C5.50131 2.51952 5.55773 2.63186 5.62456 2.76882C5.63465 2.76437 5.64574 2.76192 5.65738 2.76192C5.70415 2.76192 5.74208 2.80151 5.74208 2.85033C5.74208 2.88256 5.7255 2.91068 5.70081 2.92613C5.788 3.10673 5.87564 3.28949 5.91216 3.35568C6.04043 3.33208 6.24275 3.31038 6.36136 3.29254C6.42775 3.28271 6.49366 3.2759 6.56022 3.27012C6.70641 3.25771 6.8529 3.24483 6.99929 3.2332C6.99516 3.23456 7.21604 3.21782 7.28712 3.2145C7.35987 3.21093 7.4327 3.20885 7.50536 3.20799C7.57819 3.20885 7.65078 3.21093 7.72344 3.2145C7.79459 3.21782 8.01547 3.23456 8.01148 3.2332C8.15801 3.24482 8.30422 3.25771 8.45059 3.27012C8.51719 3.2759 8.58315 3.28269 8.64935 3.29254C8.76801 3.31038 8.9702 3.33208 9.09836 3.35568C9.13502 3.28949 9.22269 3.10672 9.30989 2.92611C9.28522 2.91066 9.26861 2.88254 9.26861 2.85033C9.26861 2.80151 9.30654 2.76192 9.35334 2.76192C9.36499 2.76192 9.37609 2.76437 9.38616 2.76882C9.45291 2.63186 9.50937 2.51952 9.52782 2.4952C9.56654 2.44419 9.61254 2.36349 9.60463 2.29127ZM6.40024 2.47266C6.31642 2.47266 6.24848 2.40175 6.24848 2.31426C6.24848 2.22678 6.31642 2.15586 6.40024 2.15586C6.48406 2.15586 6.552 2.22678 6.552 2.31426C6.552 2.40173 6.48406 2.47266 6.40024 2.47266ZM6.72096 3.08139C6.68049 3.09688 6.62455 3.04363 6.59602 2.96244C6.56749 2.88126 6.57716 2.80287 6.61764 2.78738C6.65811 2.77189 6.71405 2.82514 6.74258 2.90633C6.77111 2.98751 6.76142 3.06588 6.72096 3.08139ZM7.28776 1.81689C7.28776 1.69144 7.38518 1.58974 7.50536 1.58974C7.62554 1.58974 7.72296 1.69144 7.72296 1.81689C7.72296 1.94234 7.62554 2.04404 7.50536 2.04404C7.38518 2.04404 7.28776 1.94234 7.28776 1.81689ZM7.50536 3.00342C7.44284 3.00342 7.39213 2.90172 7.39213 2.77626C7.39213 2.65081 7.44284 2.54911 7.50536 2.54911C7.56789 2.54911 7.6186 2.65081 7.6186 2.77626C7.6186 2.90172 7.56789 3.00342 7.50536 3.00342ZM8.41474 2.96242C8.38615 3.04361 8.33025 3.09686 8.28976 3.08137C8.24928 3.06588 8.23962 2.9875 8.26812 2.90631C8.29671 2.82513 8.35261 2.77187 8.3931 2.78736C8.43358 2.80286 8.44324 2.88124 8.41474 2.96242ZM8.45874 2.31426C8.45874 2.22678 8.52669 2.15586 8.61046 2.15586C8.6943 2.15586 8.76226 2.22678 8.76226 2.31426C8.76226 2.40175 8.6943 2.47266 8.61046 2.47266C8.52669 2.47266 8.45874 2.40175 8.45874 2.31426Z" fill="#242424"/>
</g>
<defs>
<clipPath id="clip0_1560_1025">
<rect width="15" height="11" fill="white" transform="translate(0 0.732422)"/>
</clipPath>
</defs>
</svg>
