<svg width="133" height="171" viewBox="0 0 133 171" fill="none" xmlns="http://www.w3.org/2000/svg">
<g opacity="0.5">
<path d="M84.5791 70.7477C85.428 72.8184 84.4442 75.1986 82.3655 76.0475C80.2948 76.8964 77.9147 75.9047 77.0657 73.834C76.2168 71.7553 77.2006 69.3831 79.2793 68.5342C81.358 67.6773 83.7302 68.669 84.5791 70.7477Z" fill="#F0DEAB"/>
<path d="M87.6257 57.054C97.9397 33.189 117.981 51.7066 95.4961 65.8923C120.964 56.0464 116.457 87.2185 93.8697 78.1184C117.259 87.9246 100.177 103.943 89.1331 87.6231C103.136 109.671 69.3461 112.147 77.3514 83.2357C68.8066 111.861 47.8692 88.6545 67.7197 77.4598C38.0154 91.59 45.2352 58.8788 70.1633 68.1059C43.5135 56.578 60.4285 32.2211 75.5187 57.6887C64.9587 34.9106 94.7424 30.8167 87.6337 57.054H87.6257ZM93.3302 66.7095C108.603 55.3879 94.7662 41.9559 85.7454 63.0123C84.9996 64.7498 84.5633 65.9399 84.1507 66.6301C84.3173 66.7333 84.4839 66.8285 84.6426 66.9475C85.0155 65.567 86.4277 63.5121 87.8003 60.8781C89.7203 57.1888 93.8459 56.1892 95.0359 57.2841C96.2339 58.371 95.6072 62.5363 92.1321 64.8292C89.4822 66.5746 87.5702 68.1852 86.2452 68.5977C86.5071 68.9865 86.9989 70.0813 87.0465 70.2004C88.6492 69.5498 90.8786 68.3042 93.3143 66.7095H93.3302ZM76.0899 74.326C77.1292 76.8331 80.0013 78.0311 82.5084 76.9997C85.0155 75.9683 86.2135 73.0883 85.1821 70.5812C84.1507 68.0741 81.2707 66.8761 78.7636 67.9075C76.2565 68.9389 75.0585 71.8189 76.0899 74.326ZM93.7507 67.2173C91.1484 69.0817 88.5381 70.2876 87.2528 70.843C87.3004 71.0493 87.348 71.2635 87.3798 71.4698C88.5778 70.7161 91.0849 70.2639 94.0125 69.3435C97.9794 68.0979 101.597 70.3035 101.677 71.922C101.756 73.5405 98.3681 76.0397 94.2901 75.2066C91.0769 74.5481 88.5302 74.3339 87.348 73.6437C87.2528 74.1832 87.0862 74.7068 86.872 75.1987C86.9434 75.2304 87.0148 75.2622 87.0941 75.2939C112.419 83.2278 114.228 62.1713 93.7586 67.2173H93.7507ZM86.6499 75.8016C86.6499 75.8016 86.6023 75.7858 86.5784 75.7699C86.4356 76.0238 86.2849 76.2697 86.1104 76.4998C87.4908 76.7537 89.6171 78.2532 92.4178 79.7051C96.107 81.6251 97.1067 85.7507 96.0118 86.9487C94.9249 88.1467 90.7596 87.5199 88.4667 84.0449C86.634 81.2601 84.9441 79.2846 84.6426 77.9597C84.357 78.1739 84.0396 78.3484 83.7223 78.5151C84.5156 79.9669 86.7292 83.8942 88.1414 85.4096C99.3995 97.6594 108.5 84.3147 86.6499 75.7858V75.8016ZM87.7447 85.9728C86.3166 84.1481 83.9999 80.3795 82.9527 78.8641C82.5639 79.007 82.1672 79.118 81.7626 79.1815C82.5639 80.3319 83.0082 82.9024 83.9603 85.9252C85.2059 89.8922 83.0003 93.51 81.3818 93.5894C79.7633 93.6687 77.6291 89.1305 78.0972 86.2029C78.6208 82.9263 78.9699 80.3716 79.6839 79.2132C79.4618 79.1815 79.2397 79.1339 79.0254 79.0783C71.0281 104.363 95.2739 106.831 87.7447 85.9808V85.9728ZM70.687 76.3015C51.3522 92.55 71.0519 102.118 78.3907 78.872C77.8274 78.6737 77.2879 78.4119 76.7881 78.0708C76.5025 79.4512 75.0268 81.5617 73.5907 84.3226C71.6628 88.0119 67.5452 89.0115 66.3471 87.9166C65.1491 86.8218 65.7759 82.6644 69.2509 80.3715C71.9564 78.5864 73.8922 76.9521 75.2172 76.5792C74.8681 76.119 74.2175 74.7385 74.162 74.5798C72.9957 75.2225 71.8294 75.8016 70.679 76.3015H70.687ZM70.3061 75.7699C72.004 74.8179 73.1385 74.2308 73.9795 73.842C73.9795 73.8182 73.9716 73.8023 73.9636 73.7785C72.7418 74.5084 70.2665 74.9527 67.3944 75.8572C63.4275 77.1028 59.8097 74.8972 59.7303 73.2787C59.6589 71.6602 63.0387 69.1611 67.1167 69.9941C70.1951 70.6288 72.6625 70.843 73.9081 71.4698C73.9716 71.0493 74.0827 70.6368 74.2175 70.2401C52.2566 62.6077 44.5291 83.442 70.3061 75.7699ZM67.9419 51.5717C65.9822 51.056 64.0146 51.6352 62.0867 53.3092C60.1429 54.9991 59.5241 56.8794 60.2381 58.8946C62.0153 63.9564 71.5676 68.4391 74.7253 69.0976C74.8126 68.9389 74.8998 68.7802 75.003 68.6295C73.6225 68.2407 71.5914 66.8443 68.9891 65.4876C65.2999 63.5677 64.3082 59.4421 65.3951 58.244C66.482 57.046 70.6473 57.6728 72.9402 61.1479C74.638 63.7184 76.201 65.5988 76.677 66.9158C77.0975 66.6143 77.5497 66.3524 78.0496 66.1462C78.2796 66.051 78.5177 65.9716 78.7557 65.9002C78.0258 64.2976 76.7563 61.37 76.558 60.8067C74.5983 57.0381 71.5756 52.5317 67.9498 51.5638L67.9419 51.5717ZM77.0261 60.3228C78.2638 62.6791 79.0968 64.9402 79.3824 65.7574C79.4062 65.7574 79.438 65.7415 79.4618 65.7415C78.7715 64.488 78.3193 62.0761 77.4387 59.2834C76.1931 55.3165 78.3987 51.6986 80.0172 51.6193C81.6357 51.5479 84.1348 54.9356 83.3018 59.0057C82.675 62.0364 82.4608 64.488 81.8578 65.7495C82.3735 65.8447 82.8733 66.0034 83.3573 66.2097C92.9335 40.4009 69.9729 36.4577 77.0261 60.3228Z" fill="#F0DEAB"/>
<path d="M58.7069 18.0353C60.3096 18.2812 61.809 19.503 62.6738 21.1612C62.9198 18.8049 64.0861 16.623 65.7284 15.909C66.6566 15.5044 68.4655 15.2823 70.3617 18.075C71.6629 16.2343 73.5829 16.1074 74.8999 16.8135C76.09 17.4561 76.9786 18.9159 76.4549 20.7566C77.9703 19.9156 79.692 19.6935 81.0407 20.0822C83.0242 20.6534 84.1349 22.3989 84.0556 24.8029C85.1822 24.5966 86.1422 24.8822 86.7848 25.62C87.6099 26.5721 87.7448 28.1271 87.118 29.5711C86.0945 31.9275 83.4367 33.784 80.8662 35.577C79.2873 36.6798 77.9148 37.854 76.7564 38.8219C71.4328 43.2966 71.9882 48.3981 71.9882 48.5647L71.2345 48.8424C68.8067 47.8903 54.0656 36.2514 51.0825 28.9998C50.662 27.9764 50.3685 26.9371 50.2336 25.9057C50.0908 24.8108 50.5589 23.7477 51.4792 23.0733C52.3361 22.4465 53.423 22.2402 54.4544 22.4862C54.2084 21.6769 54.1846 20.7486 54.6369 20.0743C55.6841 18.5192 57.1281 17.8052 58.7149 18.0511L58.7069 18.0353ZM69.3462 21.7801C67.6801 15.79 62.7214 21.0739 63.499 23.9539C64.1733 26.4531 66.0933 32.2686 67.8626 37.4256C67.2437 33.9982 66.7756 30.5311 66.252 27.191C66.3155 27.429 66.3631 27.6511 66.4186 27.8574C67.1485 30.8564 67.7594 33.9744 68.4894 37.0607C68.1244 32.7526 68.2513 28.3651 68.537 24.1999C68.6084 28.6349 68.767 33.3555 69.5446 37.8937C69.6556 34.4504 70.1396 30.9912 70.6236 27.8018C70.3856 32.4035 69.8381 37.6795 70.6474 42.4477C70.6712 42.3366 70.687 42.2256 70.7188 42.1145C70.6632 41.3846 70.6236 40.6943 70.6236 40.1628C70.6236 34.9423 71.7026 27.5718 73.7336 23.5731C74.2017 22.6449 73.694 17.3133 69.3621 21.7801H69.3462ZM76.2883 38.3777C77.4705 37.3304 78.8906 36.172 80.4933 35.0454C82.9924 33.3 86.4595 26.2865 80.5329 27.8653C83.0321 22.264 75.6695 21.1295 74.2811 23.8587C72.3214 27.7146 71.2821 34.8153 71.2424 39.9485C71.3455 39.5757 71.4487 39.2107 71.5598 38.8537C72.3055 36.3546 73.21 33.903 74.2335 31.499C74.3366 31.2451 74.4556 30.9516 74.6063 30.6184C73.8209 33.1255 73.1545 35.6722 72.6546 38.2507C73.9558 35.3311 75.6933 32.5621 77.3435 30.182C75.7171 33.1572 73.6464 36.7909 72.488 40.4643C74.2493 37.4891 77.0103 34.9582 79.684 33.0937C79.7871 33.0144 79.9141 32.9271 80.0569 32.8319C76.9865 35.4739 73.0354 39.4329 72.0675 43.6854C72.5356 42.297 73.6464 40.7102 76.2804 38.3697L76.2883 38.3777ZM58.223 26.0088C55.2398 24.6839 46.3222 27.6828 66.7598 44.5184C64.0781 41.6861 61.8011 38.4967 59.7383 35.1803C59.6114 34.982 59.4686 34.7598 59.3178 34.5059C61.7377 37.6636 64.3796 41.0593 67.4024 43.8758C64.0464 39.0996 61.4203 33.8474 58.8656 28.6032C61.3251 32.7367 63.737 37.2193 66.5773 41.2815C64.9112 37.5922 63.618 33.6729 62.3565 29.9995C64.3479 34.3711 66.4107 39.1472 69.1399 43.2887C68.9733 42.6461 68.8146 42.0034 68.6639 41.3449C66.5694 35.3945 63.6814 27.0323 62.896 24.1206C62.7532 23.5969 58.6355 19.2095 58.2309 26.0088H58.223Z" fill="#F0DEAB"/>
<path d="M18.0935 134.949C21.1639 134.623 24.4486 135.083 28.2568 135.615C36.1589 136.726 45.9889 138.106 59.3971 132.989C79.2952 125.396 81.0645 104.776 81.0803 104.57L81.1279 103.872L80.4773 103.61C78.8033 102.943 77.5101 101.507 76.6136 99.3335C75.7012 97.112 75.5187 94.8508 75.479 94.2003V94.0258L73.567 94.0892V94.2796C74.4635 116.463 47.6233 123.675 39.023 125.412C40.9033 122.27 41.1652 117.478 41.4587 112.107C41.6729 108.14 41.8951 104.038 42.8075 100.27C45.1321 90.6777 59.9922 83.8069 60.1429 83.7435L59.3654 82.006C52.8438 84.8859 47.6233 78.7214 47.5678 78.6579L47.0838 78.0708L46.4094 78.4199C45.3701 78.9515 40.4114 82.1726 35.183 88.1706C31.9302 91.8995 31.1288 99.278 30.2799 107.085C29.7722 111.774 29.2406 116.621 28.1537 120.62C25.472 130.506 18.03 132.981 17.7127 133.084L14.0631 134.695L18.1015 134.933L18.0935 134.949ZM79.0969 105.086C78.6208 108.537 75.5108 124.809 58.7148 131.22C45.7668 136.162 36.2065 134.814 28.5186 133.735C26.1702 133.401 24.0122 133.1 21.9494 132.989C24.6945 131.077 28.2568 127.491 29.9784 121.136C31.105 116.994 31.6366 112.067 32.1602 107.307C32.9774 99.8016 33.747 92.7166 36.6032 89.44C40.8875 84.5289 45.0051 81.5379 46.6633 80.4906C47.8296 81.6569 50.7492 84.1481 54.5733 84.6241C49.694 87.6072 42.617 92.9864 40.9589 99.8413C40.0068 103.776 39.7767 107.966 39.5625 112.02C39.2293 118.105 38.9199 123.849 35.9685 126.078L33.0885 128.252L36.6667 127.784C37.0713 127.729 46.703 126.428 56.3664 121.699C66.9343 116.526 73.2813 109.267 75.0189 100.46C75.9868 102.642 77.3594 104.189 79.0969 105.086Z" fill="#F0DEAB"/>
<path d="M43.9658 81.4904C43.9896 81.5538 44.0372 81.6094 44.1006 81.6411L52.8279 86.7426C52.9786 86.8298 53.169 86.7822 53.2642 86.6315C53.3515 86.4807 53.3039 86.2824 53.1532 86.1951L44.4259 81.0937C44.2752 81.0064 44.0769 81.054 43.9896 81.2047C43.934 81.292 43.9341 81.3952 43.9737 81.4824L43.9658 81.4904Z" fill="#F0DEAB"/>
<path d="M42.3949 82.934C42.4187 82.9975 42.4664 83.053 42.5298 83.0927L51.1381 87.9006C51.2888 87.9878 51.4871 87.9323 51.5665 87.7816C51.6537 87.6308 51.5982 87.4325 51.4475 87.3452L42.8392 82.5373C42.6885 82.4501 42.4902 82.5056 42.4108 82.6563C42.3632 82.7436 42.3553 82.8468 42.3949 82.934Z" fill="#F0DEAB"/>
<path d="M40.4829 84.4098C40.5146 84.4733 40.5622 84.5368 40.6257 84.5685L49.5671 89.3526C49.7179 89.4319 49.9162 89.3764 49.9956 89.2257C50.0749 89.0749 50.0194 88.8766 49.8686 88.7972L40.9272 84.0131C40.7685 83.9338 40.5781 83.9893 40.4988 84.1401C40.4511 84.2273 40.4511 84.3305 40.4829 84.4098Z" fill="#F0DEAB"/>
<path d="M38.1106 86.9803C38.1424 87.0517 38.1979 87.1152 38.2772 87.1469L47.3298 91.09C47.4884 91.1614 47.6789 91.09 47.7503 90.9234C47.8217 90.7647 47.7503 90.5743 47.5837 90.5029L38.5311 86.5598C38.3725 86.4884 38.1821 86.5598 38.1186 86.7264C38.0789 86.8058 38.0869 86.893 38.1186 86.9724L38.1106 86.9803Z" fill="#F0DEAB"/>
<path d="M35.0006 90.5428C35.0403 90.638 35.1196 90.7094 35.2227 90.7332L46.0048 93.0499C46.1794 93.0896 46.346 92.9785 46.3856 92.8039C46.4253 92.6294 46.3142 92.4628 46.1397 92.431L35.3576 90.1144C35.1831 90.0747 35.0164 90.1858 34.9768 90.3603C34.9609 90.4238 34.9768 90.4872 34.9926 90.5507L35.0006 90.5428Z" fill="#F0DEAB"/>
<path d="M33.4058 94.1764C33.4534 94.2875 33.5566 94.3668 33.6835 94.3747L44.6005 94.8031C44.775 94.8031 44.9258 94.6762 44.9337 94.5016C44.9337 94.3271 44.8068 94.1764 44.6322 94.1764L33.7073 93.7479C33.5328 93.7479 33.382 93.8749 33.382 94.0494C33.382 94.097 33.382 94.1447 33.4058 94.1843V94.1764Z" fill="#F0DEAB"/>
<path d="M32.2078 98.2068C32.2554 98.3337 32.3824 98.4131 32.5252 98.4051L43.1169 97.4848C43.2914 97.4689 43.4183 97.3182 43.4104 97.1436C43.3945 96.9691 43.2438 96.8421 43.0693 96.8501L32.4776 97.7704C32.3031 97.7863 32.1761 97.937 32.1841 98.1115C32.1841 98.1433 32.1999 98.1751 32.2078 98.2068Z" fill="#F0DEAB"/>
<path d="M32.081 101.801C32.1365 101.936 32.2793 102.023 32.4301 101.991L41.9982 100.23C42.1728 100.198 42.2839 100.032 42.2521 99.865C42.2204 99.6905 42.0538 99.5794 41.8872 99.6111L32.319 101.372C32.1444 101.404 32.0333 101.571 32.0651 101.745C32.0651 101.769 32.073 101.785 32.081 101.809V101.801Z" fill="#F0DEAB"/>
<path d="M31.47 105.601C31.5335 105.744 31.6922 105.831 31.8429 105.784L41.5143 103.181C41.6809 103.134 41.784 102.959 41.7364 102.793C41.6888 102.618 41.5143 102.523 41.3477 102.57L31.6684 105.173C31.5018 105.22 31.3986 105.395 31.4462 105.561C31.4462 105.577 31.4542 105.585 31.4621 105.601H31.47Z" fill="#F0DEAB"/>
<path d="M31.3272 108.862C31.3907 109.013 31.5573 109.092 31.708 109.044L40.9668 106.268C41.1334 106.22 41.2286 106.038 41.181 105.871C41.1255 105.704 40.9509 105.609 40.7843 105.657L31.5255 108.434C31.3589 108.481 31.2637 108.664 31.3113 108.83C31.3113 108.838 31.3193 108.854 31.3272 108.862Z" fill="#F0DEAB"/>
<path d="M30.5259 111.932C30.5814 112.075 30.74 112.162 30.8987 112.123L40.8081 109.536C40.9747 109.489 41.0779 109.322 41.0382 109.148C40.9985 108.973 40.824 108.878 40.6495 108.918L30.7401 111.504C30.5735 111.552 30.4703 111.718 30.51 111.893C30.51 111.909 30.5179 111.924 30.5259 111.932Z" fill="#F0DEAB"/>
<path d="M30.3592 114.86C30.4227 115.003 30.5735 115.09 30.7322 115.05L40.4511 112.543C40.6257 112.504 40.7209 112.329 40.6812 112.154C40.6336 111.988 40.467 111.885 40.2924 111.924L30.5814 114.431C30.4148 114.471 30.3117 114.646 30.3514 114.82C30.3514 114.836 30.3593 114.852 30.3672 114.86H30.3592Z" fill="#F0DEAB"/>
<path d="M29.7563 117.851C29.8198 118.002 29.9864 118.081 30.1372 118.033L40.3163 114.995C40.4829 114.947 40.5781 114.765 40.5305 114.598C40.4829 114.431 40.3083 114.336 40.1338 114.384L29.9547 117.423C29.7881 117.47 29.6929 117.645 29.7405 117.819C29.7405 117.827 29.7405 117.843 29.7484 117.851H29.7563Z" fill="#F0DEAB"/>
<path d="M28.9788 120.683C29.0422 120.826 29.2009 120.913 29.3517 120.874L40.0862 118.065C40.2528 118.018 40.3559 117.851 40.3083 117.676C40.2686 117.502 40.0941 117.407 39.9196 117.446L29.1851 120.255C29.0105 120.302 28.9153 120.469 28.955 120.644C28.955 120.659 28.955 120.675 28.9708 120.683H28.9788Z" fill="#F0DEAB"/>
<path d="M27.9713 124.071C28.0268 124.214 28.1775 124.293 28.3362 124.262L39.6578 121.778C39.8323 121.739 39.9355 121.572 39.9037 121.398C39.872 121.231 39.6975 121.12 39.5229 121.16L28.2013 123.643C28.0268 123.683 27.9236 123.849 27.9554 124.024C27.9554 124.04 27.9633 124.055 27.9713 124.079V124.071Z" fill="#F0DEAB"/>
<path d="M26.313 127.261C26.3686 127.403 26.5273 127.483 26.678 127.451L38.4518 124.674C38.6264 124.634 38.7295 124.46 38.6898 124.293C38.6502 124.127 38.4756 124.016 38.309 124.055L26.5352 126.832C26.3606 126.872 26.2575 127.046 26.2972 127.213C26.2972 127.229 26.3051 127.245 26.313 127.261Z" fill="#F0DEAB"/>
<path d="M19.6168 133.79C19.6803 133.949 19.8707 134.028 20.0294 133.965L37.4362 126.808C37.5949 126.745 37.6743 126.554 37.6108 126.396C37.5473 126.237 37.3569 126.158 37.1982 126.221L19.7913 133.378C19.6327 133.441 19.5534 133.631 19.6168 133.79Z" fill="#F0DEAB"/>
<path d="M27.0826 134.147C27.0826 134.147 27.0985 134.187 27.1144 134.203C27.2096 134.346 27.4079 134.385 27.5507 134.29L38.3249 127.118C38.4677 127.023 38.5153 126.824 38.4121 126.681C38.3169 126.539 38.1186 126.499 37.9758 126.594L27.2096 133.766C27.0826 133.854 27.035 134.012 27.0905 134.147H27.0826Z" fill="#F0DEAB"/>
<path d="M31.4859 134.853C31.4859 134.853 31.5176 134.917 31.5493 134.948C31.6684 135.075 31.8667 135.083 31.9936 134.964L41.062 126.435C41.189 126.316 41.1969 126.118 41.0779 125.991C40.9589 125.864 40.7606 125.856 40.6257 125.975L31.5573 134.504C31.4621 134.599 31.4304 134.734 31.478 134.853H31.4859Z" fill="#F0DEAB"/>
<path d="M35.8733 135.226C35.8971 135.274 35.9288 135.321 35.9764 135.361C36.1192 135.464 36.3176 135.44 36.4207 135.298L43.5215 125.864C43.6247 125.721 43.6008 125.523 43.458 125.42C43.3232 125.317 43.1169 125.341 43.0137 125.483L35.913 134.917C35.8416 135.012 35.8336 135.131 35.8733 135.226Z" fill="#F0DEAB"/>
<path d="M40.8795 135.448C40.9113 135.52 40.9668 135.583 41.0382 135.615C41.1969 135.686 41.3873 135.615 41.4587 135.456L46.1555 125.182C46.2269 125.023 46.1555 124.833 45.9969 124.761C45.8382 124.69 45.6478 124.761 45.5764 124.92L40.8795 135.194C40.8398 135.274 40.8398 135.369 40.8795 135.448Z" fill="#F0DEAB"/>
<path d="M44.1325 135.028C44.1642 135.107 44.2277 135.171 44.307 135.202C44.4657 135.266 44.6561 135.187 44.7196 135.028L49.0753 124.206C49.1388 124.047 49.0594 123.857 48.9007 123.794C48.7421 123.73 48.5517 123.809 48.4882 123.968L44.1325 134.79C44.1008 134.869 44.1008 134.956 44.1325 135.028Z" fill="#F0DEAB"/>
<path d="M48.0993 134.655C48.1311 134.742 48.2025 134.806 48.2977 134.837C48.4643 134.885 48.6388 134.798 48.6944 134.623L52.2567 122.984C52.3043 122.818 52.209 122.643 52.0424 122.588C51.8758 122.54 51.6933 122.627 51.6457 122.802L48.0835 134.441C48.0597 134.512 48.0676 134.592 48.0914 134.655H48.0993Z" fill="#F0DEAB"/>
<path d="M52.0345 133.957C52.0742 134.052 52.1535 134.123 52.2646 134.147C52.4391 134.179 52.6058 134.068 52.6375 133.901L55.0573 121.707C55.0891 121.532 54.978 121.366 54.8114 121.334C54.6368 121.302 54.4702 121.413 54.4385 121.58L52.0187 133.774C52.0028 133.838 52.0186 133.901 52.0345 133.957Z" fill="#F0DEAB"/>
<path d="M56.1919 132.933C56.2315 133.036 56.3347 133.124 56.4616 133.132C56.6361 133.147 56.7869 133.013 56.8028 132.838L57.7865 120.207C57.8024 120.033 57.6675 119.882 57.493 119.866C57.3184 119.85 57.1677 119.985 57.1518 120.16L56.1681 132.79C56.1681 132.838 56.1681 132.894 56.1919 132.933Z" fill="#F0DEAB"/>
<path d="M60.0874 131.561C60.135 131.68 60.2619 131.759 60.3968 131.759C60.5714 131.759 60.7062 131.6 60.6983 131.426L60.1112 118.867C60.1033 118.692 59.9525 118.557 59.778 118.565C59.6034 118.565 59.4686 118.724 59.4765 118.898L60.0636 131.458C60.0636 131.458 60.0715 131.529 60.0874 131.561Z" fill="#F0DEAB"/>
<path d="M63.0547 129.887C63.1023 130.014 63.2371 130.093 63.38 130.085C63.5545 130.069 63.6814 129.918 63.6656 129.736L62.531 117.518C62.5152 117.343 62.3565 117.216 62.1819 117.232C62.0074 117.248 61.8805 117.407 61.8963 117.573L63.0309 129.799C63.0309 129.799 63.0388 129.863 63.0547 129.887Z" fill="#F0DEAB"/>
<path d="M67.1168 127.53C67.1723 127.673 67.331 127.753 67.4817 127.721C67.6563 127.681 67.7594 127.507 67.7198 127.34L64.9032 115.471C64.8636 115.304 64.689 115.193 64.5224 115.233C64.3479 115.273 64.2447 115.447 64.2844 115.614L67.1089 127.483C67.1089 127.483 67.1168 127.515 67.1247 127.53H67.1168Z" fill="#F0DEAB"/>
<path d="M70.0364 124.619C70.0999 124.777 70.2744 124.857 70.4331 124.793C70.5997 124.738 70.687 124.555 70.6314 124.389L66.8391 113.488C66.7915 113.321 66.6011 113.234 66.4344 113.289C66.2678 113.345 66.1806 113.527 66.2361 113.694L70.0285 124.595C70.0285 124.595 70.0285 124.603 70.0285 124.611L70.0364 124.619Z" fill="#F0DEAB"/>
<path d="M68.2989 111.496V111.504L72.8688 121.516C72.9402 121.675 73.1306 121.746 73.2893 121.675C73.448 121.604 73.5035 121.405 73.448 121.255L68.8781 111.242C68.8067 111.083 68.6163 111.012 68.4576 111.083C68.2989 111.155 68.2275 111.337 68.291 111.488L68.2989 111.496Z" fill="#F0DEAB"/>
<path d="M69.7587 109.759C69.7587 109.759 69.7746 109.79 69.7825 109.798L74.8522 118.232C74.9395 118.383 75.1379 118.43 75.2886 118.343C75.4394 118.256 75.487 118.057 75.3997 117.907L70.33 109.473C70.2427 109.322 70.0443 109.275 69.8936 109.362C69.7587 109.441 69.7032 109.608 69.7666 109.751L69.7587 109.759Z" fill="#F0DEAB"/>
<path d="M71.2741 107.878C71.2741 107.878 71.2979 107.918 71.3058 107.942L76.5422 115.391C76.6453 115.534 76.8437 115.574 76.9865 115.471C77.1293 115.368 77.169 115.169 77.0658 115.026L71.8295 107.577C71.7263 107.434 71.528 107.402 71.3852 107.497C71.2583 107.585 71.2186 107.743 71.2741 107.878Z" fill="#F0DEAB"/>
<path d="M72.1389 105.807C72.1389 105.807 72.1706 105.871 72.2024 105.902L77.7798 111.956C77.8989 112.083 78.0972 112.091 78.2321 111.972C78.359 111.853 78.3669 111.655 78.2479 111.52L72.6704 105.466C72.5514 105.339 72.3531 105.331 72.2182 105.45C72.1151 105.545 72.0913 105.688 72.1389 105.807Z" fill="#F0DEAB"/>
<path d="M72.964 104.213C72.9799 104.26 73.0117 104.3 73.0513 104.332L78.851 109.267C78.9858 109.378 79.1842 109.362 79.2953 109.227C79.4063 109.092 79.3905 108.894 79.2556 108.783L73.4559 103.848C73.3211 103.737 73.1227 103.753 73.0116 103.887C72.9323 103.983 72.9164 104.11 72.964 104.213Z" fill="#F0DEAB"/>
<path d="M73.7019 101.277C73.7177 101.317 73.7495 101.357 73.7812 101.388L79.4222 106.498C79.5491 106.617 79.7554 106.609 79.8665 106.474C79.9855 106.347 79.9775 106.141 79.8427 106.03L74.2017 100.92C74.0747 100.801 73.8685 100.817 73.7574 100.944C73.6701 101.039 73.6543 101.166 73.6939 101.277H73.7019Z" fill="#F0DEAB"/>
<path d="M46.5999 117.669C59.6352 111.282 62.6024 109.037 66.6249 98.2388C66.6249 98.2388 59.0084 98.6275 58.6355 90.2018C46.0365 95.1525 50.3764 109.6 46.5999 117.669Z" fill="#F0DEAB"/>
<path d="M66.9423 102.341C66.0775 102.698 65.6649 103.681 66.0219 104.546C66.379 105.411 67.3707 105.823 68.2275 105.466C69.0923 105.109 69.5049 104.126 69.1479 103.261C68.7908 102.396 67.8071 101.984 66.9423 102.341Z" fill="#F0DEAB"/>
<path d="M63.3006 107.95C62.4358 108.307 62.0232 109.298 62.3802 110.155C62.7373 111.02 63.7211 111.433 64.5858 111.076C65.4506 110.719 65.8632 109.735 65.5062 108.87C65.1492 108.005 64.1654 107.593 63.3006 107.95Z" fill="#F0DEAB"/>
<path d="M58.6514 112.488C57.7866 112.845 57.374 113.829 57.731 114.693C58.0881 115.558 59.0719 115.971 59.9366 115.614C60.8014 115.257 61.214 114.273 60.857 113.408C60.5 112.543 59.5162 112.131 58.6514 112.488Z" fill="#F0DEAB"/>
<path d="M53.772 115.638C52.9072 115.995 52.4947 116.978 52.8517 117.843C53.2087 118.708 54.1925 119.12 55.0573 118.763C55.9221 118.406 56.3347 117.423 55.9776 116.558C55.6206 115.693 54.6368 115.281 53.772 115.638Z" fill="#F0DEAB"/>
<path d="M48.5278 117.907C47.663 118.264 47.2504 119.248 47.6074 120.112C47.9645 120.977 48.9483 121.39 49.8131 121.033C50.6778 120.676 51.0904 119.692 50.7334 118.827C50.3764 117.962 49.3926 117.55 48.5278 117.907Z" fill="#F0DEAB"/>
<path d="M42.9662 119.39C42.1014 119.747 41.6888 120.731 42.0458 121.596C42.4029 122.461 43.3866 122.873 44.2514 122.516C45.1162 122.159 45.5288 121.175 45.1718 120.311C44.8147 119.446 43.8309 119.033 42.9662 119.39Z" fill="#F0DEAB"/>
<path d="M43.347 113.638C42.4822 113.995 42.0697 114.979 42.4267 115.844C42.7837 116.709 43.7675 117.121 44.6323 116.764C45.4971 116.407 45.9096 115.424 45.5526 114.559C45.1956 113.694 44.2118 113.281 43.347 113.638Z" fill="#F0DEAB"/>
<path d="M44.2118 107.68C43.347 108.037 42.9344 109.021 43.2915 109.886C43.6485 110.75 44.6323 111.163 45.4971 110.806C46.3619 110.449 46.7744 109.465 46.4174 108.6C46.0604 107.736 45.0766 107.323 44.2118 107.68Z" fill="#F0DEAB"/>
<path d="M45.4019 100.563C44.5371 100.92 44.1245 101.904 44.4816 102.769C44.8386 103.634 45.8224 104.046 46.6872 103.689C47.552 103.332 47.9645 102.348 47.6075 101.483C47.2505 100.619 46.2667 100.206 45.4019 100.563Z" fill="#F0DEAB"/>
<path d="M47.663 94.9383C46.7982 95.2953 46.3856 96.2792 46.7426 97.1439C47.0997 98.0087 48.0835 98.4213 48.9482 98.0642C49.813 97.7072 50.2256 96.7234 49.8686 95.8587C49.5116 94.9939 48.5278 94.5813 47.663 94.9383Z" fill="#F0DEAB"/>
<path d="M50.9 90.2968C50.0352 90.6539 49.6226 91.6377 49.9796 92.5025C50.3367 93.3672 51.3205 93.7798 52.1852 93.4228C53.05 93.0657 53.4626 92.082 53.1056 91.2172C52.7485 90.3524 51.7648 89.9398 50.9 90.2968Z" fill="#F0DEAB"/>
<path d="M55.9539 86.7345C55.0891 87.0915 54.6765 88.0753 55.0336 88.94C55.3906 89.8048 56.3744 90.2174 57.2392 89.8604C58.1039 89.5034 58.5165 88.5196 58.1595 87.6548C57.8024 86.79 56.8107 86.3774 55.9539 86.7345Z" fill="#F0DEAB"/>
<path d="M69.4414 96.7393C68.5766 97.0964 68.164 98.0802 68.5211 98.945C68.8781 99.8098 69.8698 100.222 70.7267 99.8653C71.5915 99.5082 72.004 98.5245 71.647 97.6597C71.29 96.7949 70.3062 96.3823 69.4414 96.7393Z" fill="#F0DEAB"/>
<path d="M47.6948 76.6426C40.0069 79.348 33.993 83.6403 30.1133 88.6624C26.2972 93.6052 23.8694 107.688 15.9514 105.109C7.73991 102.436 15.3009 88.226 25.0278 82.4026C34.7467 76.5791 43.0931 76.5792 47.6868 76.6347L47.6948 76.6426Z" fill="#F0DEAB"/>
<path d="M47.1314 77.7852C38.3725 79.959 33.0171 86.7583 29.669 94.7557C27.8998 99.0003 26.5749 103.404 24.9881 107.712C23.5441 111.639 21.8225 115.574 18.7442 118.502C15.9197 121.191 12.0321 122.58 8.18422 121.556C4.62192 120.612 1.18656 117.248 1.38491 113.329C1.56739 109.751 6.12935 105.689 9.37429 108.791C10.5644 109.933 11.0087 111.932 9.5647 113.083C7.67645 114.582 5.68504 111.679 7.47015 111.171C5.58983 111.607 7.43841 114.424 9.24733 113.551C11.4053 112.591 11.1276 109.917 9.73128 108.434C6.44667 104.951 1.25793 108.537 0.35347 112.321C-0.717602 116.637 2.50355 121.048 6.26419 122.826C10.2073 124.69 15.0866 124.166 18.8235 122.024C26.8049 117.454 28.0743 105.8 30.518 97.8578C33.2472 88.9878 37.8171 80.8794 47.1314 77.7852C43.1725 79.1022 45.1083 78.285 47.1314 77.7852Z" fill="#F0DEAB"/>
<path d="M47.8455 74.9211C33.2869 76.127 19.5137 70.9542 7.94615 62.3936C17.2684 73.136 33.9374 79.2212 47.8455 74.9211C44.2356 75.2226 44.3625 76.0001 47.8455 74.9211Z" fill="#F0DEAB"/>
<path d="M48.2342 73.2233C44.1007 70.4306 40.6812 66.4399 38.7215 61.8383C36.5397 56.7209 36.2224 51.2307 36.3731 45.7484C32.9536 56.0386 37.0237 69.7245 48.2342 73.2233C45.6319 72.4141 45.9969 71.708 48.2342 73.2233Z" fill="#F0DEAB"/>
<path d="M47.774 73.9214C41.7919 72.5885 35.9368 69.78 31.3748 65.6623C26.3923 61.1797 23.1395 55.4435 20.7276 49.2551C22.4334 62.4491 34.0168 74.215 47.774 73.9214C44.4815 73.9928 44.5846 73.2074 47.774 73.9214Z" fill="#F0DEAB"/>
<path d="M35.0006 40.8769C32.8981 41.7417 31.8905 44.1535 32.7553 46.256C33.6201 48.3664 36.0319 49.3661 38.1344 48.5013C40.2448 47.6365 41.2445 45.2246 40.3797 43.1221C39.5149 41.0117 37.103 40.0121 35.0006 40.8769Z" fill="#F0DEAB"/>
<path d="M18.9742 44.0346C16.8718 44.8994 15.8642 47.3113 16.729 49.4138C17.5937 51.5242 20.0057 52.5238 22.1081 51.659C24.2106 50.7942 25.2182 48.3824 24.3534 46.2799C23.4886 44.1695 21.0767 43.1698 18.9742 44.0346Z" fill="#F0DEAB"/>
<path d="M6.56569 58.9025C4.46322 59.7673 3.45561 62.1793 4.3204 64.2817C5.18519 66.3842 7.5971 67.3918 9.69957 66.527C11.802 65.6622 12.8097 63.2503 11.9449 61.1478C11.0801 59.0454 8.66816 58.0378 6.56569 58.9025Z" fill="#F0DEAB"/>
<path d="M49.7972 0.985496C49.6703 3.00863 48.3929 4.56369 47.4091 6.22186C47.1156 6.71376 46.9489 7.16597 46.8775 7.5944C47.187 7.57854 47.5043 7.57851 47.8217 7.61818C49.2656 7.80859 51.2491 8.81619 51.2173 10.5458C51.1856 12.3944 48.8927 11.9977 47.9883 11.1646C47.3853 10.6093 46.7903 9.81586 46.4412 8.959C44.3546 9.41123 42.7599 11.244 41.9586 13.7035C41.6491 14.6555 41.3953 15.8694 41.5301 16.9404C42.1728 16.2502 42.9582 15.7345 43.9023 15.4965C45.497 15.0998 48.0518 15.79 48.1866 17.7418C48.3294 19.8363 45.8382 20.8598 44.0848 20.5583C42.8551 20.3441 42.03 19.7332 41.5222 18.8922C40.5067 20.4552 39.9196 22.5021 39.8323 24.0651C39.7054 26.2151 40.705 29.4601 42.8472 30.2455C42.8313 28.9761 43.0455 27.6432 43.5533 26.2469C44.0531 24.8743 45.4415 23.6525 46.8141 24.795C48.5675 26.2469 48.3612 28.7857 46.9331 30.3804C45.8144 31.626 44.6481 31.8878 43.5691 31.5705C43.9262 34.0141 45.3622 36.2276 47.3219 37.9414C49.3608 39.7265 51.8521 40.9483 54.3592 41.9479C56.533 42.8207 59.1671 43.3046 59.659 43.3364C61.3409 43.4236 61.9756 44.2091 56.0015 44.3122C54.2719 44.3439 52.5344 44.6296 50.9159 45.2643C48.139 46.3354 45.3939 48.8345 44.902 51.897C44.4577 54.6262 46.3539 58.8788 49.7575 57.7125C50.9873 57.292 51.9314 56.0543 51.2729 54.7611C50.6144 53.46 49.4164 54.7294 48.9483 53.7694C50.4795 52.1985 52.4868 54.0629 52.5344 55.7846C52.574 57.4031 51.2888 58.617 49.8369 59.0692C46.1714 60.2117 43.3946 56.5541 43.1883 53.2457C42.9503 49.3423 45.8303 45.8831 49.218 44.2964C50.8841 43.5189 52.6772 43.1777 54.4861 43.138C48.9007 41.0673 43.585 36.8862 42.9186 31.3087C41.0224 30.309 39.5149 27.6194 39.2452 25.636C38.9199 23.2875 39.3959 19.8284 41.0065 17.591C40.4115 15.076 41.4508 11.6565 42.744 9.91107C43.585 8.7686 44.7989 7.9673 46.1556 7.69755C46.1397 7.4516 46.1556 7.20565 46.2111 6.9597C46.6871 4.88104 48.4643 3.326 49.0117 1.25527C49.337 0.0255218 49.7258 -2.21976 47.7661 -5.24255C50.1939 -2.11662 49.8527 0.295267 49.8131 1.00138L49.7972 0.985496ZM48.0121 10.0301C48.5278 10.4585 49.2577 10.8711 49.9321 10.5855C50.7175 10.2602 50.6937 9.76825 50.0035 9.4509C48.9562 8.96693 47.9645 8.80034 47.06 8.87174C47.2504 9.26843 47.5519 9.64927 48.0121 10.0301ZM44.9496 30.2535C46.2666 29.825 47.9645 28.1272 47.3695 26.6039C46.3143 23.9223 44.2276 26.6674 43.8309 28.0399C43.5929 28.8413 43.4898 29.6346 43.4898 30.4042C43.9341 30.4597 44.418 30.4201 44.9496 30.2535ZM41.9824 18.2654C42.2759 18.7097 42.7123 19.0747 43.347 19.2809C44.2435 19.5745 45.2273 19.4158 46.0762 19.0429C46.7189 18.7653 48.258 17.718 47.1314 17.0991C44.9655 15.917 43.22 16.7263 41.9824 18.2654Z" fill="#F0DEAB"/>
<path d="M96.5592 118.898C96.0039 118.819 92.9811 118.803 90.3867 119.303C87.3956 119.882 84.3808 120.707 81.7388 122.246C79.2 123.73 77.1372 125.872 76.2248 128.506C77.4863 128.379 78.7319 128.919 79.6998 130.537C80.9454 132.608 80.636 135.464 78.3748 136.702C76.6056 137.67 75.3362 136.02 75.0664 134.401C74.7967 132.743 74.8443 131.227 75.1378 129.823C72.599 130.244 70.806 133.631 70.4886 136.035C70.2585 137.781 70.4727 140.169 71.2661 142.121C72.0119 141.303 73.0592 140.796 74.4635 140.819C76.4707 140.851 79.0096 142.517 78.4066 144.81C77.8433 146.944 74.8602 147.167 73.1782 146.389C72.1865 145.929 71.4248 145.191 70.8535 144.287C70.4807 145.445 70.5045 146.841 70.6393 147.96C71.0043 150.856 72.3769 153.22 74.5904 154.172C75.1537 153.299 75.9788 152.546 76.7722 152.062C77.9544 151.332 80.5725 151.379 80.2234 153.434C79.8902 155.354 77.4783 156.052 75.836 155.957C75.479 155.933 75.1299 155.87 74.7888 155.791C74.7729 156.275 74.8602 156.814 75.0823 157.417C75.8202 159.464 76.9071 161.455 76.6135 163.724C76.5104 164.518 76.3755 167.255 73.0195 170.206C75.8439 167.279 75.8836 164.7 75.7884 163.272C75.6218 160.86 73.9795 158.766 73.8922 156.354C73.8843 156.076 73.924 155.799 73.9954 155.529C72.5593 154.934 71.3772 153.791 70.6869 152.347C69.6317 150.142 69.2033 146.127 70.4013 143.469C69.0923 140.637 69.2985 136.71 70.1554 134.179C70.8853 132.045 73.1226 129.387 75.4314 128.681C79.3824 117.47 92.0607 117.637 95.6389 117.748C98.9394 118.668 98.0746 119.12 96.5513 118.906L96.5592 118.898ZM75.2648 154.402C76.2565 154.68 77.3831 154.704 78.6525 154.386C79.4856 154.18 79.6125 153.641 78.8191 153.109C78.1289 152.649 77.2244 152.95 76.5739 153.315C75.9868 153.641 75.5663 153.998 75.2727 154.402H75.2648ZM71.639 142.914C72.6863 144.882 74.4476 146.151 77.0975 145.302C78.478 144.858 76.9864 143.366 76.3438 142.922C75.4869 142.335 74.4238 141.946 73.3686 142.081C72.6149 142.176 72.0595 142.486 71.639 142.922V142.914ZM75.8915 129.776C75.7249 130.632 75.6694 131.529 75.7646 132.473C75.9233 134.076 77.6449 137.567 79.3824 134.821C80.3662 133.266 78.8429 131.013 77.4783 130.26C76.9309 129.958 76.3993 129.815 75.8915 129.776Z" fill="#F0DEAB"/>
<path d="M113.316 31.4198C113.355 31.515 113.442 31.5944 113.561 31.6103C113.736 31.642 113.895 31.523 113.926 31.3484L114.442 28.1908C114.466 28.0162 114.355 27.8575 114.18 27.8258C114.006 27.7941 113.847 27.9131 113.815 28.0876L113.308 31.2453C113.3 31.3088 113.308 31.3643 113.323 31.4119L113.316 31.4198Z" fill="#F0DEAB"/>
<path d="M112.379 29.3173C112.419 29.4205 112.514 29.4998 112.633 29.5157C112.808 29.5395 112.966 29.4125 112.982 29.238L113.403 25.8106C113.427 25.636 113.3 25.4774 113.125 25.4536C112.951 25.4298 112.792 25.5567 112.776 25.7312L112.356 29.1586C112.356 29.2142 112.356 29.2697 112.379 29.3173Z" fill="#F0DEAB"/>
<path d="M111.237 27.7861C111.285 27.9051 111.403 27.9845 111.538 27.9845C111.713 27.9845 111.856 27.8337 111.848 27.6592L111.776 24.1445C111.776 23.9699 111.626 23.8271 111.451 23.835C111.277 23.835 111.134 23.9858 111.142 24.1603L111.213 27.675C111.213 27.675 111.221 27.7544 111.237 27.7861Z" fill="#F0DEAB"/>
<path d="M109.809 26.5722C109.864 26.715 110.015 26.7944 110.166 26.7626C110.34 26.723 110.444 26.5564 110.412 26.3898L109.737 23.2083C109.706 23.0417 109.531 22.9306 109.364 22.9623C109.19 23.002 109.087 23.1686 109.119 23.3352L109.785 26.5167C109.785 26.5167 109.793 26.5563 109.801 26.5722H109.809Z" fill="#F0DEAB"/>
<path d="M103.224 22.6211C103.224 22.6211 103.24 22.6607 103.255 22.6766L105.405 25.9691C105.501 26.1119 105.699 26.1595 105.842 26.0643C105.993 25.9691 106.024 25.7708 105.937 25.628L103.787 22.3434C103.692 22.1926 103.493 22.153 103.351 22.2482C103.224 22.3354 103.176 22.4941 103.232 22.637L103.224 22.6211Z" fill="#F0DEAB"/>
<path d="M100.859 22.8512C100.859 22.8512 100.883 22.8988 100.899 22.9226L103.208 26.0802C103.311 26.223 103.509 26.2548 103.652 26.1517C103.795 26.0485 103.835 25.8502 103.724 25.7074L101.415 22.5497C101.312 22.4069 101.113 22.3752 100.97 22.4783C100.851 22.5656 100.812 22.7242 100.867 22.8591L100.859 22.8512Z" fill="#F0DEAB"/>
<path d="M98.6855 23.113C98.6855 23.113 98.7014 23.1527 98.7173 23.1765L101.074 26.5483C101.177 26.6911 101.367 26.7229 101.518 26.6277C101.661 26.5245 101.692 26.3341 101.597 26.1834L99.2409 22.8115C99.1378 22.6687 98.9394 22.637 98.7966 22.7322C98.6697 22.8194 98.63 22.9781 98.6855 23.113Z" fill="#F0DEAB"/>
<path d="M96.3054 23.1765C96.3054 23.1765 96.3371 23.2321 96.353 23.2559L99.2647 26.8578C99.3758 26.9927 99.5742 27.0165 99.709 26.9054C99.8439 26.7943 99.8677 26.596 99.7566 26.4611L96.8449 22.8592C96.7338 22.7243 96.5355 22.7005 96.4006 22.8116C96.2895 22.8988 96.2578 23.0496 96.3054 23.1765Z" fill="#F0DEAB"/>
<path d="M92.9969 23.0495C93.0128 23.0892 93.0446 23.1368 93.0842 23.1685L97.2733 26.8181C97.4082 26.9291 97.6065 26.9212 97.7176 26.7864C97.8287 26.6515 97.8207 26.4531 97.6859 26.3421L93.4968 22.6925C93.3619 22.5735 93.1636 22.5894 93.0525 22.7242C92.9732 22.8194 92.9573 22.9464 92.9969 23.0574V23.0495Z" fill="#F0DEAB"/>
<path d="M90.0297 22.4941C90.0535 22.5496 90.0932 22.5973 90.1408 22.637L96.234 26.7625C96.3768 26.8577 96.5751 26.826 96.6703 26.6753C96.7735 26.5325 96.7338 26.3341 96.5831 26.231L90.4898 22.1054C90.347 22.0102 90.1487 22.0419 90.0456 22.1927C89.9821 22.2879 89.9742 22.3989 90.0138 22.4941H90.0297Z" fill="#F0DEAB"/>
<path d="M90.8072 24.8029C90.8389 24.8743 90.8865 24.9378 90.9658 24.9696L96.4164 27.5481C96.575 27.6195 96.7655 27.5481 96.8369 27.3973C96.9083 27.2386 96.8448 27.0482 96.6861 26.9768L91.2356 24.3983C91.0769 24.319 90.8865 24.3904 90.8151 24.5491C90.7754 24.6363 90.7754 24.7236 90.8151 24.8029H90.8072Z" fill="#F0DEAB"/>
<path d="M91.6879 27.3578C91.7276 27.445 91.799 27.5165 91.9021 27.5403L97.1623 28.9287C97.3289 28.9763 97.5034 28.8731 97.551 28.6986C97.5986 28.532 97.4955 28.3574 97.3289 28.3098L92.0687 26.9214C91.9021 26.8817 91.7276 26.977 91.68 27.1515C91.6641 27.2229 91.6721 27.2943 91.6959 27.3499L91.6879 27.3578Z" fill="#F0DEAB"/>
<path d="M92.6003 29.4442C92.6399 29.5474 92.7351 29.6267 92.8542 29.6426L97.908 30.2535C98.0826 30.2773 98.2412 30.1504 98.265 29.9758C98.2888 29.8013 98.1619 29.6426 97.9874 29.6188L92.9335 29.0079C92.759 28.9841 92.6003 29.111 92.5765 29.2855C92.5765 29.3411 92.5765 29.3966 92.6003 29.4442Z" fill="#F0DEAB"/>
<path d="M93.4809 31.3087C93.5285 31.4277 93.6475 31.507 93.7744 31.507L98.6617 31.4435C98.8362 31.4435 98.979 31.3008 98.9711 31.1183C98.9711 30.9437 98.8283 30.8009 98.6458 30.8009L93.7586 30.8644C93.584 30.8644 93.4412 31.0072 93.4412 31.1897C93.4412 31.2293 93.4491 31.269 93.465 31.3087H93.4809Z" fill="#F0DEAB"/>
<path d="M94.8614 33.427C94.917 33.5619 95.0598 33.6491 95.2185 33.6174L99.7169 32.7368C99.8915 32.705 100.003 32.5384 99.9629 32.3638C99.9311 32.1972 99.7645 32.0783 99.59 32.11L95.0915 32.9827C94.917 33.0144 94.8059 33.181 94.8376 33.3556C94.8376 33.3794 94.8455 33.3953 94.8535 33.4191L94.8614 33.427Z" fill="#F0DEAB"/>
<path d="M96.0277 35.0057C96.0912 35.1485 96.2499 35.2358 96.4086 35.1882L100.669 34.0061C100.836 33.9585 100.939 33.7839 100.891 33.6173C100.844 33.4507 100.669 33.3476 100.502 33.3952L96.2419 34.5694C96.0753 34.617 95.9722 34.7915 96.0198 34.9581C96.0198 34.974 96.0198 34.9819 96.0357 34.9978L96.0277 35.0057Z" fill="#F0DEAB"/>
<path d="M97.6938 36.8385C97.6938 36.8385 97.7017 36.8543 97.7097 36.8702C97.789 37.021 97.9873 37.0844 98.1381 37.0051L101.891 35.0057C102.042 34.9264 102.105 34.7281 102.026 34.5773C101.946 34.4266 101.748 34.3631 101.597 34.4504L97.8445 36.4497C97.7017 36.529 97.6383 36.7036 97.7017 36.8464L97.6938 36.8385Z" fill="#F0DEAB"/>
<path d="M98.8283 37.7987C98.8283 37.7987 98.8283 37.8224 98.8442 37.8304C98.9235 37.9811 99.1219 38.0446 99.2726 37.9573L103.025 35.958C103.184 35.8787 103.232 35.6803 103.152 35.5296C103.073 35.3789 102.875 35.3154 102.724 35.4026L98.9711 37.402C98.8283 37.4813 98.7649 37.6559 98.8283 37.7987Z" fill="#F0DEAB"/>
<path d="M100.494 38.7744C100.494 38.7744 100.51 38.8061 100.518 38.822C100.613 38.9727 100.812 39.0124 100.955 38.9172L104.39 36.7037C104.541 36.6085 104.58 36.4101 104.485 36.2673C104.39 36.1166 104.192 36.0769 104.049 36.1721L100.613 38.3856C100.479 38.465 100.431 38.6316 100.494 38.7744Z" fill="#F0DEAB"/>
<path d="M102.66 39.5996C102.66 39.5996 102.692 39.6631 102.716 39.6949C102.835 39.8218 103.033 39.8297 103.168 39.7107L105.866 37.2274C105.993 37.1084 106.001 36.9021 105.882 36.7831C105.763 36.6562 105.564 36.6483 105.429 36.7673L102.732 39.2506C102.629 39.3458 102.605 39.4885 102.652 39.5996H102.66Z" fill="#F0DEAB"/>
<path d="M104.906 39.9328C104.929 39.9804 104.961 40.028 105.009 40.0676C105.152 40.1708 105.35 40.1469 105.453 40.0041L107.341 37.5129C107.452 37.3701 107.421 37.1718 107.278 37.0687C107.135 36.9655 106.937 36.9893 106.834 37.1321L104.945 39.6233C104.874 39.7185 104.866 39.8376 104.906 39.9328Z" fill="#F0DEAB"/>
<path d="M107.595 39.5122C107.619 39.5678 107.651 39.6154 107.706 39.655C107.849 39.7582 108.047 39.7185 108.151 39.5757L109.666 37.4098C109.769 37.267 109.729 37.0686 109.587 36.9655C109.444 36.8624 109.245 36.902 109.142 37.0448L107.635 39.2107C107.571 39.3059 107.564 39.417 107.603 39.5122H107.595Z" fill="#F0DEAB"/>
<path d="M108.381 25.993C108.436 26.1358 108.595 26.2151 108.746 26.1754C108.912 26.1358 109.023 25.9612 108.984 25.7946L108.278 22.8274C108.238 22.6608 108.063 22.5497 107.897 22.5894C107.722 22.629 107.619 22.8036 107.659 22.9702L108.365 25.9374C108.365 25.9374 108.373 25.9692 108.381 25.985V25.993Z" fill="#F0DEAB"/>
<path d="M105.453 22.6211L106.715 25.6995C106.778 25.8661 106.968 25.9375 107.127 25.874C107.286 25.8105 107.365 25.6201 107.302 25.4615L106.032 22.3831C105.969 22.2244 105.778 22.1451 105.62 22.2086C105.461 22.272 105.382 22.4625 105.445 22.6211H105.453Z" fill="#F0DEAB"/>
<path d="M127.835 114.749C127.954 116.296 127.708 117.875 127.12 119.311C125.605 123 121.686 126.055 117.552 125.182C114.022 124.46 110.777 120.43 112.871 116.899C113.522 115.804 114.736 114.86 116.053 114.797C117.671 114.725 119.615 116.241 119.036 118.018C118.75 118.898 117.711 119.66 116.806 119.129C116.219 118.779 116.457 118.026 116.68 118.375C117.219 119.24 118.242 118.375 118.282 117.653C118.322 116.828 117.521 116.185 116.783 116.042C115.355 115.765 114.093 117.177 113.839 118.462C113.577 119.819 114.323 121.16 115.299 122.056C118.25 124.754 122.289 123.143 124.502 120.342C126.391 117.946 126.383 112.21 126.137 109.941C126.763 110.909 128.485 113.376 129.39 114.21C130.833 115.542 132.619 116.487 134.523 116.963C138.783 117.962 144.258 116.407 144.702 111.361C144.9 109.052 143.718 106.664 141.187 106.482C139.585 106.363 137.546 107.743 138.506 109.521C139.251 110.901 141.155 109.981 141.187 109.108C142.036 111.226 138.847 112.21 137.76 110.504C136.633 108.727 137.054 106.355 138.688 105.324C140.1 104.411 142.036 104.427 143.536 105.094C147.391 106.799 147.86 111.964 145.955 115.289C141.949 122.27 132.087 120.446 127.85 114.757L127.835 114.749Z" fill="#F0DEAB"/>
<path d="M103.524 82.712C103.549 82.7617 103.549 82.7617 103.524 82.712V82.712Z" fill="#F0DEAB"/>
<path d="M90.3867 22.0182C94.0284 22.9941 97.1543 22.407 100.272 22.1134C103.597 21.804 107.199 20.9471 110.562 22.1134C113.403 23.1052 117.782 29.7934 115.045 35.1091C122.868 39.1553 127.232 44.7725 129.485 48.6918C129.215 46.7242 129.159 44.7645 128.993 42.8366C127.961 31.0707 134.126 27.4291 133.531 23.359C133.166 20.8599 132.016 18.0196 129.144 18.0196C127.009 18.0196 123.749 19.7888 123.701 22.2324C123.677 23.3829 124.597 24.9617 125.827 25.1362C126.962 25.3028 128.366 23.8271 127.112 22.9385C128.866 23.7716 127.001 25.8027 125.653 25.6837C124.201 25.5488 123.003 23.9779 122.781 22.6291C122.241 19.3287 126.327 16.7501 129.191 16.7581C132.523 16.7581 134.372 19.8443 134.57 22.8909C134.689 24.6998 134.174 26.7388 133.071 28.5081C135.657 25.4377 139.973 23.7557 144.646 25.7947C148.375 27.4291 151.017 31.6578 150.835 35.7358C150.644 39.8852 146.788 44.5662 142.234 43.0984C139.735 42.2971 138.545 39.6869 138.72 37.2036C139.386 36.5054 139.949 38.2429 140.18 38.592C140.751 39.4568 141.497 40.2581 142.528 40.5358C144.646 41.115 146.78 39.3299 147.614 37.513C148.597 35.4899 148.312 33.1336 147.495 31.1104C145.733 26.7547 140.322 24.2873 136.086 26.9372C132.016 29.484 130.865 35.601 131.087 39.9805C131.349 45.3279 132.785 50.5483 133.055 55.8957C133.301 60.7513 132.492 65.5353 130.096 69.7561C132.341 68.2804 135.641 70.8272 133.539 73.5009C136.847 72.7393 137.482 77.6186 134.666 77.8566C137.871 78.1502 138.101 82.0536 135.173 82.5693C138.069 82.9263 138.283 86.7822 135.268 86.6473C138.498 88.012 137.22 90.757 134.658 90.5349C136.982 92.8278 134.872 96.4853 131.722 95.6205C135.054 97.604 133.428 100.73 129.747 99.635C132.722 101.642 130.691 104.887 127.85 104.205C130.627 107.823 125.113 111.631 122.979 107.529C124.018 111.052 118.076 111.893 117.901 108.204C117.052 110.901 113.704 110.195 113.006 108.156C112.839 108.481 112.673 108.814 112.482 109.132C110.364 112.702 107.087 115.122 103.597 117.248C100.018 119.43 95.8135 121.286 93.0366 124.523C90.7993 127.134 89.5061 131.291 91.9179 134.227C94.2267 137.027 98.6538 137.622 101.24 134.877C102.399 133.639 103.113 131.87 102.359 130.236C101.851 129.149 100.637 128.125 99.3678 128.284C97.5748 128.506 96.9956 131.712 98.7887 131.323C98.8045 131.323 100.241 130.149 99.9153 131.117C99.6296 132.005 98.6141 132.283 97.8286 131.91C95.631 130.855 96.7893 128.054 98.5506 127.308C100.558 126.459 102.787 127.84 103.731 129.625C106.135 134.179 101.089 138.828 96.7179 138.836C91.4895 138.836 87.4671 134.012 88.189 128.919C88.9189 123.762 92.4257 120.723 96.5275 118.113C94.9566 117.891 93.5126 117.042 92.4019 115.939C90.0932 113.654 88.6809 109.79 90.347 106.752C91.8862 103.943 96.5275 102.277 98.6062 105.466C99.4472 106.76 99.5027 108.656 98.1143 109.6C97.0273 110.33 95.1312 110.06 95.1232 108.434C96.0594 108.077 96.0356 109.529 97.1543 108.941C97.9239 108.545 98.0429 107.704 97.7572 106.966C96.8131 104.562 93.7031 105.538 92.5606 107.188C90.0138 110.877 94.8455 116.201 98.7728 116.74C102.859 114.329 107.127 112.044 109.634 108.378C115.719 99.4922 108.682 88.4959 103.517 82.6328C103.525 82.6566 103.541 82.6804 103.549 82.6962C103.549 82.6804 103.533 82.6566 103.517 82.6328C103.144 82.2123 102.43 81.7521 102.057 81.411C101.446 80.8397 101.558 80.3558 104.017 80.2844C104.898 80.2606 109.999 78.9753 111.649 78.3882C115.061 77.1822 118.306 75.4923 120.988 73.0249C125.97 68.4233 127.715 61.5764 125.034 55.2531C123.836 52.4287 121.614 49.6677 118.346 49.4614C115.791 49.3027 112.824 50.5404 111.499 52.8095C110.086 55.2134 111.277 59.8071 114.664 59.5136C116.021 59.3946 117.528 58.1569 116.918 56.6732C116.275 55.0944 115.109 56.6177 114.514 55.6815C115.894 54.0471 117.893 55.9195 117.814 57.5618C117.743 59.0455 116.354 60.1245 114.99 60.3863C111.499 61.0686 109.214 57.1255 109.642 54.0868C110.166 50.3738 114.085 47.8905 117.592 47.6207C121.4 47.3272 124.558 49.2789 126.74 52.27C131.413 58.6805 129.747 67.4871 124.502 73.0091C122.154 75.4844 119.282 77.2774 116.148 78.5469C131 73.2074 130.929 58.0538 130.135 52.9364C129.144 50.3976 125.081 41.6704 114.379 36.1563C111.626 39.9963 106.286 41.5434 102.787 40.7104C97.2733 39.4013 93.7586 32.4195 91.7355 27.4846C90.5692 24.6443 90.0059 22.3911 89.9979 22.3673L89.871 21.8437L90.3946 21.9865L90.3867 22.0182ZM130.794 74.7227C130.913 74.9052 131.016 75.0956 131.127 75.2861C131.151 75.2781 131.175 75.2543 131.198 75.2464C131.817 74.9925 132.531 75.286 132.785 75.9049C133.039 76.5237 132.746 77.2378 132.119 77.4916C132.095 77.4996 132.079 77.5075 132.055 77.5075C132.103 77.6583 132.15 77.809 132.182 77.9598C132.682 77.7297 133.206 77.6107 133.809 77.6503C136.387 76.365 134.197 72.6917 130.786 74.7148L130.794 74.7227ZM133.856 78.293C133.285 78.2771 132.785 78.3406 132.317 78.5945C132.357 78.8404 132.388 79.0863 132.404 79.3244C132.92 79.2768 133.436 79.5624 133.642 80.0701C133.896 80.689 133.602 81.403 132.976 81.6569C132.714 81.76 132.436 81.768 132.182 81.6966C132.063 82.0854 131.905 82.4503 131.69 82.7914C132.373 82.2757 133.372 82.0616 134.253 82.2282C136.49 81.9822 135.903 78.3485 133.848 78.293H133.856ZM133.333 83.1405C133.42 83.2357 133.491 83.3548 133.547 83.4817C133.801 84.1006 133.507 84.8146 132.88 85.0685C132.865 85.0685 132.841 85.0764 132.825 85.0843C132.88 85.2351 132.936 85.3858 132.984 85.5366C133.618 85.6 134.229 85.8301 134.737 86.1951C136.752 85.5763 136.419 82.9025 133.325 83.1485L133.333 83.1405ZM133.158 86.1951C133.198 86.4172 133.222 86.6394 133.237 86.8615C133.761 86.806 134.285 87.0916 134.491 87.5993C134.745 88.2182 134.451 88.9322 133.832 89.1861C133.563 89.2972 133.277 89.2972 133.023 89.2179C132.984 89.3766 132.952 89.5273 132.904 89.6939C133.19 89.7256 133.475 89.7971 133.745 89.9161C135.975 90.3683 137.196 87.0678 133.158 86.1951ZM132.682 90.3128C132.579 90.5825 132.46 90.8602 132.333 91.1379C132.301 91.2013 132.262 91.2728 132.23 91.3442C132.476 91.4711 132.69 91.6774 132.801 91.9551C133.055 92.5739 132.761 93.288 132.135 93.5418C131.674 93.7323 131.167 93.6133 130.833 93.2959C130.508 93.6371 130.159 93.9623 129.778 94.24C130.302 94.4463 130.826 94.7398 131.254 95.1207C133.801 96.3504 136.935 91.4632 132.682 90.3128ZM129.112 94.6684C128.771 94.8509 128.43 94.9937 128.072 95.0889C128.43 95.1841 128.739 95.4301 128.89 95.803C129.144 96.4218 128.85 97.1359 128.223 97.3897C128.041 97.4691 127.85 97.4849 127.66 97.4691C127.612 97.834 127.541 98.199 127.446 98.5639C127.993 98.5798 128.517 98.7147 128.969 98.9845C132.65 100.087 134.332 96.5329 129.112 94.6764V94.6684ZM127.247 99.1907C127.216 99.2859 127.168 99.3732 127.128 99.4684C127.454 99.5715 127.739 99.8175 127.874 100.159C128.128 100.777 127.834 101.492 127.216 101.745C126.763 101.928 126.272 101.825 125.938 101.515C125.867 101.603 125.803 101.698 125.732 101.785C126.652 102.142 127.327 102.745 127.66 103.531C130.357 104.316 131.238 99.9841 127.255 99.1987L127.247 99.1907ZM125.256 102.277C125.185 102.348 125.105 102.412 125.034 102.475C125.129 102.578 125.208 102.697 125.264 102.824C125.518 103.443 125.224 104.157 124.597 104.411C123.994 104.657 123.304 104.387 123.034 103.8C122.892 103.864 122.757 103.935 122.598 103.999C123.066 104.681 123.352 105.387 123.312 106.292C123.304 106.506 123.265 106.728 123.201 106.942C126.089 110.258 130.088 104.84 125.256 102.269V102.277ZM121.987 104.237C121.86 104.284 121.725 104.316 121.598 104.364C121.773 104.951 121.479 105.585 120.9 105.823C120.281 106.077 119.567 105.784 119.314 105.165C119.274 105.07 119.258 104.982 119.242 104.879C119.107 104.895 118.972 104.919 118.837 104.927C118.956 105.879 118.79 106.879 118.314 107.672C119.052 109.917 124.264 108.957 121.995 104.237H121.987ZM114.101 105.451C114.101 105.451 114.117 105.474 114.117 105.498C113.276 108.957 118.695 110.496 118.203 104.967C117.965 104.974 117.735 104.967 117.497 104.967C117.481 105.427 117.203 105.855 116.751 106.046C116.132 106.299 115.418 106.006 115.164 105.387C115.037 105.086 115.045 104.76 115.164 104.475C114.918 104.364 114.68 104.237 114.466 104.086C114.363 104.554 114.244 105.014 114.101 105.466V105.451ZM116.592 89.7177C118.726 91.2648 122.154 94.6208 122.519 95.438C121.519 95.3031 118.076 91.9392 116.386 89.9081C116.132 90.1382 115.862 90.3445 115.6 90.5349C118.361 92.7008 120.71 96.2234 121.511 99.5081C118.663 97.6674 116.1 94.2876 114.958 90.9554C114.736 91.0903 114.514 91.2172 114.307 91.3203C115.489 93.518 116.37 96.033 116.798 98.4687C115.553 96.3425 114.601 93.875 114.077 91.4394C113.561 91.6932 113.125 91.8519 112.855 91.9471C113.792 93.8513 114.466 95.8823 114.752 98.0086C114.894 99.0955 114.926 100.182 114.863 101.269C115.188 102.618 117.774 102.713 118.845 102.84C120.337 103.015 121.868 102.452 123.05 101.603C127.168 98.6671 126.097 95.7871 125.645 94.9461C124.518 93.0896 117.338 88.8688 117.338 88.8688C117.1 89.1703 116.854 89.4559 116.592 89.7098V89.7177ZM118.139 87.5835C118.012 87.8612 117.862 88.1151 117.703 88.361C117.703 88.361 123.883 92.685 127.089 93.3197C128.715 93.5894 130.31 90.9792 130.81 89.924C131.905 87.6073 131.468 86.0364 130.032 84.2434C128.39 83.5214 118.782 84.4893 118.782 84.4893C118.782 84.648 118.79 84.8067 118.782 84.9574C120.876 84.5131 123.241 84.5369 125.319 84.8225C123.273 85.3699 120.9 85.4573 118.758 85.2669C118.734 85.4969 118.703 85.7111 118.663 85.9253C121.725 85.5842 125.327 86.3934 127.755 88.0358C124.883 88.7419 121.194 88.25 118.433 86.8457C118.385 86.9885 118.338 87.1313 118.274 87.2661C120.305 88.0833 122.305 89.2813 123.931 90.6856C121.908 90.0033 119.869 88.9085 118.139 87.5835ZM110.539 88.1786C110.927 88.6943 111.284 89.2337 111.626 89.7812C116.775 87.2741 116.434 83.5372 115.481 81.4665C114.664 81.7204 113.799 81.7839 112.966 81.9426C114.545 85.4652 112.379 87.7263 110.539 88.1865V88.1786ZM117.885 80.4113C117.965 80.6017 118.028 80.7921 118.1 80.9826C119.988 79.6814 122.154 78.6262 124.304 77.9598C122.519 79.3561 120.385 80.5303 118.219 81.3396C118.274 81.5062 118.322 81.6728 118.369 81.8394C120.924 79.7449 124.716 78.412 127.914 78.5389C125.605 80.7842 121.852 82.3313 118.536 82.4582C118.56 82.5693 118.592 82.6804 118.615 82.7836C120.686 82.1568 122.963 81.8474 125.089 81.9346C123.098 82.6645 120.837 83.085 118.679 83.1247C118.718 83.3786 118.742 83.6166 118.758 83.8546C118.758 83.8546 126.033 83.6166 129.493 82.8788C132.103 78.3723 128.882 75.2702 126.906 74.1118C124.431 76.7538 121.297 78.9674 117.893 80.4272L117.885 80.4113ZM129.501 70.8034C129.088 71.4381 128.636 72.057 128.16 72.66C128.199 72.6362 128.239 72.6203 128.279 72.6044C128.406 72.3505 128.62 72.1363 128.898 72.0173C129.516 71.7634 130.23 72.057 130.484 72.6758C130.675 73.128 130.564 73.6279 130.246 73.969C130.302 74.0404 130.365 74.1118 130.421 74.1832C131.064 73.6834 131.928 73.3819 132.753 73.3899C134.015 71.6761 131.976 69.772 129.937 70.6686C129.802 70.732 129.683 70.6844 129.612 70.6051C129.572 70.6685 129.54 70.7399 129.493 70.8034H129.501ZM113.078 35.5216C111.53 35.482 109.071 35.236 106.12 34.2601C101.685 32.8003 98.8601 29.7934 99.4154 28.5478C99.9708 27.3021 104.271 27.1435 108.135 29.7537C110.951 31.6578 112.824 33.3557 113.855 34.4029C113.76 33.4826 113.522 31.9435 112.911 30.444C112.141 28.5636 111.007 27.2863 109.547 26.6516C107.31 25.6757 104.874 26.12 102.526 26.5485C100.502 26.9134 98.5824 27.2704 96.7893 26.7785C96.8211 26.8499 96.8449 26.9292 96.8845 27.0086C97.8525 29.3649 100.621 35.0059 105.445 36.553C107.809 37.3147 110.372 36.9577 113.078 35.5216ZM92.3146 27.2625C94.2822 32.0625 97.7414 38.0367 102.994 39.2902C106.08 40.0201 109.46 38.9966 113.046 36.2515C110.309 37.632 107.69 37.9414 105.255 37.1481C100.177 35.5137 97.305 29.6744 96.3054 27.2387C96.0832 26.6913 95.9721 26.3581 95.9721 26.3581L95.7579 25.7075L96.3926 25.9614C98.2015 26.6754 100.248 26.3025 102.422 25.9058C104.866 25.4615 107.397 25.0014 109.809 26.0566C111.427 26.7627 112.665 28.1511 113.506 30.1901C114.045 31.4992 114.307 32.8241 114.434 33.7762C114.553 32.1577 114.545 29.5792 113.641 27.3815C112.887 25.5409 111.641 24.2793 109.936 23.6367C106.746 22.4308 103.684 22.7164 100.439 23.0179C97.4161 23.3035 94.2902 23.5891 90.7596 22.7481C90.9897 23.5653 91.5054 25.2631 92.3305 27.2545L92.3146 27.2625Z" fill="#F0DEAB"/>
<path d="M86.4754 127.213C87.0625 123.897 82.4132 123 81.6516 126.356C80.7868 130.188 85.8962 130.458 86.4754 127.213Z" fill="#F0DEAB"/>
<path d="M86.3167 132.941C85.6026 130.077 81.4532 130.99 82.1117 133.981C82.8813 137.456 87.0149 135.797 86.3167 132.941Z" fill="#F0DEAB"/>
<path d="M88.6413 137.678C87.2608 135.353 83.5319 137.757 85.6978 139.97C87.3322 141.629 89.8393 139.701 88.6413 137.678Z" fill="#F0DEAB"/>
<path d="M92.275 139.867C90.1646 139.288 89.2125 142.422 91.4102 142.938C93.8697 143.517 94.3775 140.462 92.275 139.867Z" fill="#F0DEAB"/>
<path d="M96.8052 140.661C95.0122 140.708 95.0201 143.438 96.8607 143.279C99.233 143.081 98.5983 140.621 96.8052 140.661Z" fill="#F0DEAB"/>
<path d="M100.915 142.597C102.327 142.359 101.97 140.335 100.574 140.574C99.1774 140.804 99.4948 142.827 100.915 142.597C100.288 142.7 101.542 142.493 100.915 142.597Z" fill="#F0DEAB"/>
<path d="M111.768 5.79339C114.061 2.76266 118.425 3.13559 121.591 4.28599C124.217 5.24599 126.502 6.9597 128.414 9.0463C128.81 8.36399 129.159 7.63405 129.453 6.84067C130.342 4.47638 130.651 1.72334 129.62 -0.640942C129.199 -1.60094 128.437 -2.52127 127.509 -3.22738C127.493 -3.18771 127.477 -3.14802 127.462 -3.10835C126.454 -0.974152 122.273 0.993443 121.797 -2.51332C121.646 -3.60819 122.225 -5.00453 123.28 -5.32982C124.597 -5.73445 126.176 -4.81416 127.39 -3.83036C127.406 -3.87003 127.43 -3.90967 127.438 -3.94934C128.628 -7.10701 126.383 -11.6769 123.209 -12.8353C123.265 -12.2878 123.249 -11.7325 123.122 -11.1533C122.773 -9.62205 121.337 -7.88453 119.615 -8.21775C118.393 -8.45577 117.925 -10.0584 118.211 -11.1057C118.623 -12.621 120.4 -13.7477 121.916 -13.7477C122.241 -13.7477 122.558 -13.6842 122.868 -13.581C122.495 -15.5486 121.241 -17.3814 121.051 -19.3886C120.884 -21.142 121.281 -24.4425 123.685 -23.9506C124.566 -23.776 125.962 -22.5225 126.454 -21.8005C125.097 -23.3952 123.233 -23.9744 122.059 -22.705C120.797 -21.3403 121.297 -18.9364 121.813 -17.3813C122.241 -16.0881 122.852 -14.8108 123.114 -13.4858C124.05 -13.105 124.907 -12.3513 125.55 -11.6769C127.485 -9.6617 128.644 -6.31363 127.668 -3.60025C127.977 -3.3305 128.263 -3.0687 128.509 -2.83069C131.516 0.128633 130.746 5.02381 129.152 8.46709C129.009 8.76858 128.858 9.07006 128.707 9.35568C130.183 11.0377 131.563 12.7593 132.714 14.6C135.221 18.6066 135.959 22.4862 134.666 27.064C134.245 27.4211 133.475 28.1192 133.095 28.5159C133.38 26.7467 133.912 24.6363 133.912 22.8353C133.896 18.0354 132.166 14.1557 129.175 10.4585C128.969 10.1967 128.747 9.94283 128.517 9.69688C126.533 13.1878 123.352 15.6948 119.274 16.3137C116.148 16.7897 112.879 15.7821 111.292 12.9021C110.071 10.6886 110.245 7.80065 111.776 5.78545L111.768 5.79339ZM122.892 -12.9225C121.091 -13.4382 118.258 -11.9149 118.488 -9.82041C118.599 -8.77314 119.797 -8.50339 120.638 -8.73347C122.106 -9.1381 122.939 -10.9867 122.979 -12.3672C122.979 -12.5497 122.979 -12.7242 122.963 -12.9067C122.939 -12.9067 122.916 -12.9225 122.892 -12.9305V-12.9225ZM123.756 -4.49678C121.956 -4.36984 121.4 -1.84691 123.106 -1.10906C124.693 -0.418816 126.454 -2.03732 127.208 -3.44161C126.16 -4.15566 124.939 -4.58405 123.756 -4.49678ZM119.139 14.9411C123.225 14.4968 126.264 12.5372 128.215 9.38745C125.018 6.06317 120.393 3.98451 115.585 5.03178C112.395 5.72995 110.285 7.88792 110.904 11.0377C111.649 14.7983 115.696 15.314 119.139 14.9411Z" fill="#F0DEAB"/>
</g>
</svg>
